<svg version="1.1" viewBox="0.0 0.0 1297.0 765.0" fill="none" stroke="none" stroke-linecap="square" stroke-miterlimit="10" width="1297" height="765" xmlns:xlink="http://www.w3.org/1999/xlink" xmlns="http://www.w3.org/2000/svg"><path fill="#ffffff" d="M0 0L1297.0 0L1297.0 765.0L0 765.0L0 0Z" fill-rule="nonzero"/><path stroke="#cccccc" stroke-width="1.0" stroke-linecap="butt" d="M104.5 674.5L1258.5 674.5" fill-rule="nonzero"/><path stroke="#cccccc" stroke-width="1.0" stroke-linecap="butt" d="M104.5 529.5L1258.5 529.5" fill-rule="nonzero"/><path stroke="#cccccc" stroke-width="1.0" stroke-linecap="butt" d="M104.5 384.5L1258.5 384.5" fill-rule="nonzero"/><path stroke="#cccccc" stroke-width="1.0" stroke-linecap="butt" d="M104.5 239.5L1258.5 239.5" fill-rule="nonzero"/><path stroke="#cccccc" stroke-width="1.0" stroke-linecap="butt" d="M104.5 94.5L1258.5 94.5" fill-rule="nonzero"/><clipPath id="id_0"><path d="M104.25 94.75L1258.75 94.75L1258.75 674.75L104.25 674.75L104.25 94.75Z" clip-rule="nonzero"/></clipPath><path stroke="#000000" stroke-width="2.0" stroke-linecap="butt" stroke-opacity="0.0" clip-path="url(#id_0)" d="M209.0 675.0L160.0 675.0L160.0 385.0C160.0 383.89542 160.89543 383.0 162.0 383.0L207.0 383.0C208.10457 383.0 209.0 383.89542 209.0 385.0Z" fill-rule="nonzero"/><path fill="#4285f4" clip-path="url(#id_0)" d="M209.0 675.0L160.0 675.0L160.0 385.0C160.0 383.89542 160.89543 383.0 162.0 383.0L207.0 383.0C208.10457 383.0 209.0 383.89542 209.0 385.0Z" fill-rule="nonzero"/><path stroke="#000000" stroke-width="2.0" stroke-linecap="butt" stroke-opacity="0.0" clip-path="url(#id_0)" d="M366.0 675.0L317.0 675.0L317.0 507.0C317.0 505.89542 317.89542 505.0 319.0 505.0L364.0 505.0C365.10458 505.0 366.0 505.89542 366.0 507.0Z" fill-rule="nonzero"/><path fill="#4285f4" clip-path="url(#id_0)" d="M366.0 675.0L317.0 675.0L317.0 507.0C317.0 505.89542 317.89542 505.0 319.0 505.0L364.0 505.0C365.10458 505.0 366.0 505.89542 366.0 507.0Z" fill-rule="nonzero"/><path stroke="#000000" stroke-width="2.0" stroke-linecap="butt" stroke-opacity="0.0" clip-path="url(#id_0)" d="M523.0 675.0L474.0 675.0L474.0 490.0C474.0 488.89542 474.89542 488.0 476.0 488.0L521.0 488.0C522.10455 488.0 523.0 488.89542 523.0 490.0Z" fill-rule="nonzero"/><path fill="#4285f4" clip-path="url(#id_0)" d="M523.0 675.0L474.0 675.0L474.0 490.0C474.0 488.89542 474.89542 488.0 476.0 488.0L521.0 488.0C522.10455 488.0 523.0 488.89542 523.0 490.0Z" fill-rule="nonzero"/><path stroke="#000000" stroke-width="2.0" stroke-linecap="butt" stroke-opacity="0.0" clip-path="url(#id_0)" d="M681.0 675.0L632.0 675.0L632.0 563.0C632.0 561.89545 632.89545 561.0 634.0 561.0L679.0 561.0C680.10455 561.0 681.0 561.89545 681.0 563.0Z" fill-rule="nonzero"/><path fill="#4285f4" clip-path="url(#id_0)" d="M681.0 675.0L632.0 675.0L632.0 563.0C632.0 561.89545 632.89545 561.0 634.0 561.0L679.0 561.0C680.10455 561.0 681.0 561.89545 681.0 563.0Z" fill-rule="nonzero"/><path stroke="#000000" stroke-width="2.0" stroke-linecap="butt" stroke-opacity="0.0" clip-path="url(#id_0)" d="M838.0 675.0L789.0 675.0L789.0 528.0C789.0 526.89545 789.89545 526.0 791.0 526.0L836.0 526.0C837.10455 526.0 838.0 526.89545 838.0 528.0Z" fill-rule="nonzero"/><path fill="#4285f4" clip-path="url(#id_0)" d="M838.0 675.0L789.0 675.0L789.0 528.0C789.0 526.89545 789.89545 526.0 791.0 526.0L836.0 526.0C837.10455 526.0 838.0 526.89545 838.0 528.0Z" fill-rule="nonzero"/><path stroke="#000000" stroke-width="2.0" stroke-linecap="butt" stroke-opacity="0.0" clip-path="url(#id_0)" d="M995.0 675.0L946.0 675.0L946.0 472.0C946.0 470.89542 946.89545 470.0 948.0 470.0L993.0 470.0C994.10455 470.0 995.0 470.89542 995.0 472.0Z" fill-rule="nonzero"/><path fill="#4285f4" clip-path="url(#id_0)" d="M995.0 675.0L946.0 675.0L946.0 472.0C946.0 470.89542 946.89545 470.0 948.0 470.0L993.0 470.0C994.10455 470.0 995.0 470.89542 995.0 472.0Z" fill-rule="nonzero"/><path stroke="#000000" stroke-width="2.0" stroke-linecap="butt" stroke-opacity="0.0" clip-path="url(#id_0)" d="M1152.0 675.0L1103.0 675.0L1103.0 563.0C1103.0 561.89545 1103.8954 561.0 1105.0 561.0L1150.0 561.0C1151.1046 561.0 1152.0 561.89545 1152.0 563.0Z" fill-rule="nonzero"/><path fill="#4285f4" clip-path="url(#id_0)" d="M1152.0 675.0L1103.0 675.0L1103.0 563.0C1103.0 561.89545 1103.8954 561.0 1105.0 561.0L1150.0 561.0C1151.1046 561.0 1152.0 561.89545 1152.0 563.0Z" fill-rule="nonzero"/><path stroke="#000000" stroke-width="2.0" stroke-linecap="butt" stroke-opacity="0.0" clip-path="url(#id_0)" d="M260.0 675.0L211.0 675.0L211.0 224.0C211.0 222.89543 211.89543 222.0 213.0 222.0L258.0 222.0C259.10458 222.0 260.0 222.89543 260.0 224.0Z" fill-rule="nonzero"/><path fill="#ea4335" clip-path="url(#id_0)" d="M260.0 675.0L211.0 675.0L211.0 224.0C211.0 222.89543 211.89543 222.0 213.0 222.0L258.0 222.0C259.10458 222.0 260.0 222.89543 260.0 224.0Z" fill-rule="nonzero"/><path stroke="#000000" stroke-width="2.0" stroke-linecap="butt" stroke-opacity="0.0" clip-path="url(#id_0)" d="M417.0 675.0L368.0 675.0L368.0 433.0C368.0 431.89542 368.89542 431.0 370.0 431.0L415.0 431.0C416.10458 431.0 417.0 431.89542 417.0 433.0Z" fill-rule="nonzero"/><path fill="#ea4335" clip-path="url(#id_0)" d="M417.0 675.0L368.0 675.0L368.0 433.0C368.0 431.89542 368.89542 431.0 370.0 431.0L415.0 431.0C416.10458 431.0 417.0 431.89542 417.0 433.0Z" fill-rule="nonzero"/><path stroke="#000000" stroke-width="2.0" stroke-linecap="butt" stroke-opacity="0.0" clip-path="url(#id_0)" d="M574.0 675.0L525.0 675.0L525.0 371.0C525.0 369.89542 525.89545 369.0 527.0 369.0L572.0 369.0C573.10455 369.0 574.0 369.89542 574.0 371.0Z" fill-rule="nonzero"/><path fill="#ea4335" clip-path="url(#id_0)" d="M574.0 675.0L525.0 675.0L525.0 371.0C525.0 369.89542 525.89545 369.0 527.0 369.0L572.0 369.0C573.10455 369.0 574.0 369.89542 574.0 371.0Z" fill-rule="nonzero"/><path stroke="#000000" stroke-width="2.0" stroke-linecap="butt" stroke-opacity="0.0" clip-path="url(#id_0)" d="M732.0 675.0L683.0 675.0L683.0 521.0C683.0 519.89545 683.89545 519.0 685.0 519.0L730.0 519.0C731.10455 519.0 732.0 519.89545 732.0 521.0Z" fill-rule="nonzero"/><path fill="#ea4335" clip-path="url(#id_0)" d="M732.0 675.0L683.0 675.0L683.0 521.0C683.0 519.89545 683.89545 519.0 685.0 519.0L730.0 519.0C731.10455 519.0 732.0 519.89545 732.0 521.0Z" fill-rule="nonzero"/><path stroke="#000000" stroke-width="2.0" stroke-linecap="butt" stroke-opacity="0.0" clip-path="url(#id_0)" d="M889.0 675.0L840.0 675.0L840.0 528.0C840.0 526.89545 840.89545 526.0 842.0 526.0L887.0 526.0C888.10455 526.0 889.0 526.89545 889.0 528.0Z" fill-rule="nonzero"/><path fill="#ea4335" clip-path="url(#id_0)" d="M889.0 675.0L840.0 675.0L840.0 528.0C840.0 526.89545 840.89545 526.0 842.0 526.0L887.0 526.0C888.10455 526.0 889.0 526.89545 889.0 528.0Z" fill-rule="nonzero"/><path stroke="#000000" stroke-width="2.0" stroke-linecap="butt" stroke-opacity="0.0" clip-path="url(#id_0)" d="M1046.0 675.0L997.0 675.0L997.0 388.0C997.0 386.89542 997.89545 386.0 999.0 386.0L1044.0 386.0C1045.1046 386.0 1046.0 386.89542 1046.0 388.0Z" fill-rule="nonzero"/><path fill="#ea4335" clip-path="url(#id_0)" d="M1046.0 675.0L997.0 675.0L997.0 388.0C997.0 386.89542 997.89545 386.0 999.0 386.0L1044.0 386.0C1045.1046 386.0 1046.0 386.89542 1046.0 388.0Z" fill-rule="nonzero"/><path stroke="#000000" stroke-width="2.0" stroke-linecap="butt" stroke-opacity="0.0" clip-path="url(#id_0)" d="M1203.0 675.0L1154.0 675.0L1154.0 506.0C1154.0 504.89542 1154.8954 504.0 1156.0 504.0L1201.0 504.0C1202.1046 504.0 1203.0 504.89542 1203.0 506.0Z" fill-rule="nonzero"/><path fill="#ea4335" clip-path="url(#id_0)" d="M1203.0 675.0L1154.0 675.0L1154.0 506.0C1154.0 504.89542 1154.8954 504.0 1156.0 504.0L1201.0 504.0C1202.1046 504.0 1203.0 504.89542 1203.0 506.0Z" fill-rule="nonzero"/><path stroke="#ffffff" stroke-width="3.0" stroke-linejoin="round" stroke-linecap="round" d="M178.96875 359.718L178.96875 360.62424L178.76562 360.62424Q177.5 360.6555 176.75 361.38986Q176.0 362.1086 175.875 363.4211Q176.5625 362.6555 177.71875 362.6555Q178.82812 362.6555 179.5 363.43674Q180.17188 364.218 180.17188 365.468Q180.17188 366.7805 179.45312 367.57736Q178.73438 368.37424 177.51562 368.37424Q176.29688 368.37424 175.53125 367.43674Q174.78125 366.4836 174.78125 364.99924L174.78125 364.593Q174.78125 362.2336 175.78125 360.9836Q176.78125 359.7336 178.76562 359.718L178.96875 359.718ZM177.54688 363.56174Q176.98438 363.56174 176.51562 363.88986Q176.04688 364.218 175.85938 364.7336L175.85938 365.12424Q175.85938 366.18674 176.32812 366.82736Q176.8125 367.468 177.51562 367.468Q178.25 367.468 178.67188 366.93674Q179.09375 366.38986 179.09375 365.51486Q179.09375 364.63986 178.67188 364.1086Q178.25 363.56174 177.54688 363.56174ZM187.0625 364.6086Q187.0625 366.51486 186.40625 367.45236Q185.76562 368.37424 184.375 368.37424Q183.01562 368.37424 182.35938 367.468Q181.70312 366.56174 181.67188 364.74924L181.67188 363.31174Q181.67188 361.4211 182.3125 360.51486Q182.96875 359.593 184.35938 359.593Q185.73438 359.593 186.39062 360.4836Q187.04688 361.3586 187.0625 363.20236L187.0625 364.6086ZM185.96875 363.12424Q185.96875 361.74924 185.57812 361.12424Q185.20312 360.4836 184.35938 360.4836Q183.53125 360.4836 183.14062 361.12424Q182.76562 361.74924 182.76562 363.0461L182.76562 364.7805Q182.76562 366.1555 183.15625 366.82736Q183.5625 367.4836 184.375 367.4836Q185.17188 367.4836 185.5625 366.8586Q185.95312 366.2336 185.96875 364.9055L185.96875 363.12424ZM194.29688 368.24924L188.70312 368.24924L188.70312 367.468L191.65625 364.18674Q192.3125 363.43674 192.5625 362.9836Q192.8125 362.51486 192.8125 362.01486Q192.8125 361.343 192.40625 360.9211Q192.01562 360.4836 191.32812 360.4836Q190.53125 360.4836 190.07812 360.95236Q189.625 361.4055 189.625 362.2336L188.54688 362.2336Q188.54688 361.0461 189.29688 360.32736Q190.0625 359.593 191.32812 359.593Q192.53125 359.593 193.21875 360.218Q193.90625 360.843 193.90625 361.88986Q193.90625 363.13986 192.29688 364.88986L190.01562 367.3586L194.29688 367.3586L194.29688 368.24924Z" fill-rule="nonzero"/><path fill="#4285f4" d="M178.96875 359.718L178.96875 360.62424L178.76562 360.62424Q177.5 360.6555 176.75 361.38986Q176.0 362.1086 175.875 363.4211Q176.5625 362.6555 177.71875 362.6555Q178.82812 362.6555 179.5 363.43674Q180.17188 364.218 180.17188 365.468Q180.17188 366.7805 179.45312 367.57736Q178.73438 368.37424 177.51562 368.37424Q176.29688 368.37424 175.53125 367.43674Q174.78125 366.4836 174.78125 364.99924L174.78125 364.593Q174.78125 362.2336 175.78125 360.9836Q176.78125 359.7336 178.76562 359.718L178.96875 359.718ZM177.54688 363.56174Q176.98438 363.56174 176.51562 363.88986Q176.04688 364.218 175.85938 364.7336L175.85938 365.12424Q175.85938 366.18674 176.32812 366.82736Q176.8125 367.468 177.51562 367.468Q178.25 367.468 178.67188 366.93674Q179.09375 366.38986 179.09375 365.51486Q179.09375 364.63986 178.67188 364.1086Q178.25 363.56174 177.54688 363.56174ZM187.0625 364.6086Q187.0625 366.51486 186.40625 367.45236Q185.76562 368.37424 184.375 368.37424Q183.01562 368.37424 182.35938 367.468Q181.70312 366.56174 181.67188 364.74924L181.67188 363.31174Q181.67188 361.4211 182.3125 360.51486Q182.96875 359.593 184.35938 359.593Q185.73438 359.593 186.39062 360.4836Q187.04688 361.3586 187.0625 363.20236L187.0625 364.6086ZM185.96875 363.12424Q185.96875 361.74924 185.57812 361.12424Q185.20312 360.4836 184.35938 360.4836Q183.53125 360.4836 183.14062 361.12424Q182.76562 361.74924 182.76562 363.0461L182.76562 364.7805Q182.76562 366.1555 183.15625 366.82736Q183.5625 367.4836 184.375 367.4836Q185.17188 367.4836 185.5625 366.8586Q185.95312 366.2336 185.96875 364.9055L185.96875 363.12424ZM194.29688 368.24924L188.70312 368.24924L188.70312 367.468L191.65625 364.18674Q192.3125 363.43674 192.5625 362.9836Q192.8125 362.51486 192.8125 362.01486Q192.8125 361.343 192.40625 360.9211Q192.01562 360.4836 191.32812 360.4836Q190.53125 360.4836 190.07812 360.95236Q189.625 361.4055 189.625 362.2336L188.54688 362.2336Q188.54688 361.0461 189.29688 360.32736Q190.0625 359.593 191.32812 359.593Q192.53125 359.593 193.21875 360.218Q193.90625 360.843 193.90625 361.88986Q193.90625 363.13986 192.29688 364.88986L190.01562 367.3586L194.29688 367.3586L194.29688 368.24924Z" fill-rule="nonzero"/><path stroke="#ffffff" stroke-width="3.0" stroke-linejoin="round" stroke-linecap="round" d="M336.28125 487.24063L337.46875 487.24063L337.46875 488.11563L336.28125 488.11563L336.28125 490.1L335.20312 490.1L335.20312 488.11563L331.3125 488.11563L331.3125 487.475L335.125 481.56876L336.28125 481.56876L336.28125 487.24063ZM332.54688 487.24063L335.20312 487.24063L335.20312 483.05313L335.0625 483.2875L332.54688 487.24063ZM340.28125 485.30313L341.09375 485.30313Q341.875 485.2875 342.3125 484.89688Q342.75 484.50626 342.75 483.83438Q342.75 482.33438 341.25 482.33438Q340.54688 482.33438 340.125 482.74063Q339.71875 483.14688 339.71875 483.80313L338.625 483.80313Q338.625 482.7875 339.35938 482.11563Q340.10938 481.44376 341.25 481.44376Q342.45312 481.44376 343.14062 482.08438Q343.82812 482.725 343.82812 483.86563Q343.82812 484.42813 343.46875 484.94376Q343.10938 485.45938 342.48438 485.725Q343.1875 485.94376 343.5625 486.45938Q343.95312 486.975 343.95312 487.725Q343.95312 488.86563 343.20312 489.55313Q342.45312 490.225 341.25 490.225Q340.0625 490.225 339.29688 489.56876Q338.54688 488.9125 338.54688 487.85L339.64062 487.85Q339.64062 488.52188 340.07812 488.92813Q340.51562 489.33438 341.26562 489.33438Q342.04688 489.33438 342.45312 488.92813Q342.875 488.50626 342.875 487.74063Q342.875 487.00626 342.42188 486.61563Q341.96875 486.20938 341.09375 486.19376L340.28125 486.19376L340.28125 485.30313ZM350.28125 487.24063L351.46875 487.24063L351.46875 488.11563L350.28125 488.11563L350.28125 490.1L349.20312 490.1L349.20312 488.11563L345.3125 488.11563L345.3125 487.475L349.125 481.56876L350.28125 481.56876L350.28125 487.24063ZM346.54688 487.24063L349.20312 487.24063L349.20312 483.05313L349.0625 483.2875L346.54688 487.24063Z" fill-rule="nonzero"/><path fill="#4285f4" d="M336.28125 487.24063L337.46875 487.24063L337.46875 488.11563L336.28125 488.11563L336.28125 490.1L335.20312 490.1L335.20312 488.11563L331.3125 488.11563L331.3125 487.475L335.125 481.56876L336.28125 481.56876L336.28125 487.24063ZM332.54688 487.24063L335.20312 487.24063L335.20312 483.05313L335.0625 483.2875L332.54688 487.24063ZM340.28125 485.30313L341.09375 485.30313Q341.875 485.2875 342.3125 484.89688Q342.75 484.50626 342.75 483.83438Q342.75 482.33438 341.25 482.33438Q340.54688 482.33438 340.125 482.74063Q339.71875 483.14688 339.71875 483.80313L338.625 483.80313Q338.625 482.7875 339.35938 482.11563Q340.10938 481.44376 341.25 481.44376Q342.45312 481.44376 343.14062 482.08438Q343.82812 482.725 343.82812 483.86563Q343.82812 484.42813 343.46875 484.94376Q343.10938 485.45938 342.48438 485.725Q343.1875 485.94376 343.5625 486.45938Q343.95312 486.975 343.95312 487.725Q343.95312 488.86563 343.20312 489.55313Q342.45312 490.225 341.25 490.225Q340.0625 490.225 339.29688 489.56876Q338.54688 488.9125 338.54688 487.85L339.64062 487.85Q339.64062 488.52188 340.07812 488.92813Q340.51562 489.33438 341.26562 489.33438Q342.04688 489.33438 342.45312 488.92813Q342.875 488.50626 342.875 487.74063Q342.875 487.00626 342.42188 486.61563Q341.96875 486.20938 341.09375 486.19376L340.28125 486.19376L340.28125 485.30313ZM350.28125 487.24063L351.46875 487.24063L351.46875 488.11563L350.28125 488.11563L350.28125 490.1L349.20312 490.1L349.20312 488.11563L345.3125 488.11563L345.3125 487.475L349.125 481.56876L350.28125 481.56876L350.28125 487.24063ZM346.54688 487.24063L349.20312 487.24063L349.20312 483.05313L349.0625 483.2875L346.54688 487.24063Z" fill-rule="nonzero"/><path stroke="#ffffff" stroke-width="3.0" stroke-linejoin="round" stroke-linecap="round" d="M493.28125 470.40613L494.46875 470.40613L494.46875 471.28113L493.28125 471.28113L493.28125 473.2655L492.20312 473.2655L492.20312 471.28113L488.3125 471.28113L488.3125 470.6405L492.125 464.73425L493.28125 464.73425L493.28125 470.40613ZM489.54688 470.40613L492.20312 470.40613L492.20312 466.21863L492.0625 466.453L489.54688 470.40613ZM496.20312 468.98425L496.64062 464.73425L501.01562 464.73425L501.01562 465.73425L497.5625 465.73425L497.29688 468.06238Q497.9375 467.68738 498.73438 467.68738Q499.89062 467.68738 500.57812 468.46863Q501.26562 469.23425 501.26562 470.54675Q501.26562 471.85925 500.54688 472.62488Q499.84375 473.3905 498.5625 473.3905Q497.4375 473.3905 496.71875 472.7655Q496.0 472.12488 495.90625 471.0155L496.92188 471.0155Q497.03125 471.74988 497.45312 472.12488Q497.875 472.49988 498.5625 472.49988Q499.3125 472.49988 499.75 471.98425Q500.1875 471.46863 500.1875 470.56238Q500.1875 469.703 499.71875 469.18738Q499.25 468.67175 498.46875 468.67175Q497.76562 468.67175 497.35938 468.96863L497.07812 469.203L496.20312 468.98425ZM508.21875 465.34363L504.6875 473.2655L503.54688 473.2655L507.0625 465.62488L502.45312 465.62488L502.45312 464.73425L508.21875 464.73425L508.21875 465.34363Z" fill-rule="nonzero"/><path fill="#4285f4" d="M493.28125 470.40613L494.46875 470.40613L494.46875 471.28113L493.28125 471.28113L493.28125 473.2655L492.20312 473.2655L492.20312 471.28113L488.3125 471.28113L488.3125 470.6405L492.125 464.73425L493.28125 464.73425L493.28125 470.40613ZM489.54688 470.40613L492.20312 470.40613L492.20312 466.21863L492.0625 466.453L489.54688 470.40613ZM496.20312 468.98425L496.64062 464.73425L501.01562 464.73425L501.01562 465.73425L497.5625 465.73425L497.29688 468.06238Q497.9375 467.68738 498.73438 467.68738Q499.89062 467.68738 500.57812 468.46863Q501.26562 469.23425 501.26562 470.54675Q501.26562 471.85925 500.54688 472.62488Q499.84375 473.3905 498.5625 473.3905Q497.4375 473.3905 496.71875 472.7655Q496.0 472.12488 495.90625 471.0155L496.92188 471.0155Q497.03125 471.74988 497.45312 472.12488Q497.875 472.49988 498.5625 472.49988Q499.3125 472.49988 499.75 471.98425Q500.1875 471.46863 500.1875 470.56238Q500.1875 469.703 499.71875 469.18738Q499.25 468.67175 498.46875 468.67175Q497.76562 468.67175 497.35938 468.96863L497.07812 469.203L496.20312 468.98425ZM508.21875 465.34363L504.6875 473.2655L503.54688 473.2655L507.0625 465.62488L502.45312 465.62488L502.45312 464.73425L508.21875 464.73425L508.21875 465.34363Z" fill-rule="nonzero"/><path stroke="#ffffff" stroke-width="3.0" stroke-linejoin="round" stroke-linecap="round" d="M648.28125 540.7946L649.09375 540.7946Q649.875 540.779 650.3125 540.38837Q650.75 539.99774 650.75 539.32587Q650.75 537.82587 649.25 537.82587Q648.5469 537.82587 648.125 538.2321Q647.71875 538.63837 647.71875 539.2946L646.625 539.2946Q646.625 538.279 647.3594 537.6071Q648.1094 536.93524 649.25 536.93524Q650.4531 536.93524 651.1406 537.57587Q651.8281 538.2165 651.8281 539.3571Q651.8281 539.9196 651.46875 540.43524Q651.1094 540.95087 650.4844 541.2165Q651.1875 541.43524 651.5625 541.95087Q651.9531 542.4665 651.9531 543.2165Q651.9531 544.3571 651.2031 545.0446Q650.4531 545.7165 649.25 545.7165Q648.0625 545.7165 647.2969 545.06024Q646.5469 544.404 646.5469 543.3415L647.6406 543.3415Q647.6406 544.01337 648.0781 544.4196Q648.5156 544.82587 649.2656 544.82587Q650.0469 544.82587 650.4531 544.4196Q650.875 543.99774 650.875 543.2321Q650.875 542.49774 650.4219 542.1071Q649.96875 541.70087 649.09375 541.68524L648.28125 541.68524L648.28125 540.7946ZM654.2031 541.31024L654.6406 537.06024L659.0156 537.06024L659.0156 538.06024L655.5625 538.06024L655.2969 540.38837Q655.9375 540.01337 656.7344 540.01337Q657.8906 540.01337 658.5781 540.7946Q659.2656 541.56024 659.2656 542.87274Q659.2656 544.18524 658.5469 544.95087Q657.84375 545.7165 656.5625 545.7165Q655.4375 545.7165 654.71875 545.0915Q654.0 544.45087 653.90625 543.3415L654.9219 543.3415Q655.03125 544.07587 655.4531 544.45087Q655.875 544.82587 656.5625 544.82587Q657.3125 544.82587 657.75 544.31024Q658.1875 543.7946 658.1875 542.88837Q658.1875 542.029 657.71875 541.51337Q657.25 540.99774 656.46875 540.99774Q655.7656 540.99774 655.3594 541.2946L655.0781 541.529L654.2031 541.31024ZM666.21875 537.6696L662.6875 545.5915L661.5469 545.5915L665.0625 537.95087L660.4531 537.95087L660.4531 537.06024L666.21875 537.06024L666.21875 537.6696Z" fill-rule="nonzero"/><path fill="#4285f4" d="M648.28125 540.7946L649.09375 540.7946Q649.875 540.779 650.3125 540.38837Q650.75 539.99774 650.75 539.32587Q650.75 537.82587 649.25 537.82587Q648.5469 537.82587 648.125 538.2321Q647.71875 538.63837 647.71875 539.2946L646.625 539.2946Q646.625 538.279 647.3594 537.6071Q648.1094 536.93524 649.25 536.93524Q650.4531 536.93524 651.1406 537.57587Q651.8281 538.2165 651.8281 539.3571Q651.8281 539.9196 651.46875 540.43524Q651.1094 540.95087 650.4844 541.2165Q651.1875 541.43524 651.5625 541.95087Q651.9531 542.4665 651.9531 543.2165Q651.9531 544.3571 651.2031 545.0446Q650.4531 545.7165 649.25 545.7165Q648.0625 545.7165 647.2969 545.06024Q646.5469 544.404 646.5469 543.3415L647.6406 543.3415Q647.6406 544.01337 648.0781 544.4196Q648.5156 544.82587 649.2656 544.82587Q650.0469 544.82587 650.4531 544.4196Q650.875 543.99774 650.875 543.2321Q650.875 542.49774 650.4219 542.1071Q649.96875 541.70087 649.09375 541.68524L648.28125 541.68524L648.28125 540.7946ZM654.2031 541.31024L654.6406 537.06024L659.0156 537.06024L659.0156 538.06024L655.5625 538.06024L655.2969 540.38837Q655.9375 540.01337 656.7344 540.01337Q657.8906 540.01337 658.5781 540.7946Q659.2656 541.56024 659.2656 542.87274Q659.2656 544.18524 658.5469 544.95087Q657.84375 545.7165 656.5625 545.7165Q655.4375 545.7165 654.71875 545.0915Q654.0 544.45087 653.90625 543.3415L654.9219 543.3415Q655.03125 544.07587 655.4531 544.45087Q655.875 544.82587 656.5625 544.82587Q657.3125 544.82587 657.75 544.31024Q658.1875 543.7946 658.1875 542.88837Q658.1875 542.029 657.71875 541.51337Q657.25 540.99774 656.46875 540.99774Q655.7656 540.99774 655.3594 541.2946L655.0781 541.529L654.2031 541.31024ZM666.21875 537.6696L662.6875 545.5915L661.5469 545.5915L665.0625 537.95087L660.4531 537.95087L660.4531 537.06024L666.21875 537.06024L666.21875 537.6696Z" fill-rule="nonzero"/><path stroke="#ffffff" stroke-width="3.0" stroke-linejoin="round" stroke-linecap="round" d="M808.28125 507.91037L809.46875 507.91037L809.46875 508.78537L808.28125 508.78537L808.28125 510.76974L807.2031 510.76974L807.2031 508.78537L803.3125 508.78537L803.3125 508.14474L807.125 502.2385L808.28125 502.2385L808.28125 507.91037ZM804.5469 507.91037L807.2031 507.91037L807.2031 503.72287L807.0625 503.95724L804.5469 507.91037ZM816.0625 507.12912Q816.0625 509.03537 815.40625 509.97287Q814.7656 510.89474 813.375 510.89474Q812.0156 510.89474 811.3594 509.9885Q810.7031 509.08224 810.6719 507.26974L810.6719 505.83224Q810.6719 503.94162 811.3125 503.03537Q811.96875 502.1135 813.3594 502.1135Q814.7344 502.1135 815.3906 503.00412Q816.0469 503.87912 816.0625 505.72287L816.0625 507.12912ZM814.96875 505.64474Q814.96875 504.26974 814.5781 503.64474Q814.2031 503.00412 813.3594 503.00412Q812.53125 503.00412 812.1406 503.64474Q811.7656 504.26974 811.7656 505.56662L811.7656 507.301Q811.7656 508.676 812.15625 509.34787Q812.5625 510.00412 813.375 510.00412Q814.1719 510.00412 814.5625 509.37912Q814.9531 508.75412 814.96875 507.426L814.96875 505.64474ZM818.2031 506.4885L818.6406 502.2385L823.0156 502.2385L823.0156 503.2385L819.5625 503.2385L819.2969 505.56662Q819.9375 505.19162 820.7344 505.19162Q821.8906 505.19162 822.5781 505.97287Q823.2656 506.7385 823.2656 508.051Q823.2656 509.3635 822.5469 510.12912Q821.84375 510.89474 820.5625 510.89474Q819.4375 510.89474 818.71875 510.26974Q818.0 509.62912 817.90625 508.51974L818.9219 508.51974Q819.03125 509.25412 819.4531 509.62912Q819.875 510.00412 820.5625 510.00412Q821.3125 510.00412 821.75 509.4885Q822.1875 508.97287 822.1875 508.06662Q822.1875 507.20724 821.71875 506.69162Q821.25 506.176 820.46875 506.176Q819.7656 506.176 819.3594 506.47287L819.0781 506.70724L818.2031 506.4885Z" fill-rule="nonzero"/><path fill="#4285f4" d="M808.28125 507.91037L809.46875 507.91037L809.46875 508.78537L808.28125 508.78537L808.28125 510.76974L807.2031 510.76974L807.2031 508.78537L803.3125 508.78537L803.3125 508.14474L807.125 502.2385L808.28125 502.2385L808.28125 507.91037ZM804.5469 507.91037L807.2031 507.91037L807.2031 503.72287L807.0625 503.95724L804.5469 507.91037ZM816.0625 507.12912Q816.0625 509.03537 815.40625 509.97287Q814.7656 510.89474 813.375 510.89474Q812.0156 510.89474 811.3594 509.9885Q810.7031 509.08224 810.6719 507.26974L810.6719 505.83224Q810.6719 503.94162 811.3125 503.03537Q811.96875 502.1135 813.3594 502.1135Q814.7344 502.1135 815.3906 503.00412Q816.0469 503.87912 816.0625 505.72287L816.0625 507.12912ZM814.96875 505.64474Q814.96875 504.26974 814.5781 503.64474Q814.2031 503.00412 813.3594 503.00412Q812.53125 503.00412 812.1406 503.64474Q811.7656 504.26974 811.7656 505.56662L811.7656 507.301Q811.7656 508.676 812.15625 509.34787Q812.5625 510.00412 813.375 510.00412Q814.1719 510.00412 814.5625 509.37912Q814.9531 508.75412 814.96875 507.426L814.96875 505.64474ZM818.2031 506.4885L818.6406 502.2385L823.0156 502.2385L823.0156 503.2385L819.5625 503.2385L819.2969 505.56662Q819.9375 505.19162 820.7344 505.19162Q821.8906 505.19162 822.5781 505.97287Q823.2656 506.7385 823.2656 508.051Q823.2656 509.3635 822.5469 510.12912Q821.84375 510.89474 820.5625 510.89474Q819.4375 510.89474 818.71875 510.26974Q818.0 509.62912 817.90625 508.51974L818.9219 508.51974Q819.03125 509.25412 819.4531 509.62912Q819.875 510.00412 820.5625 510.00412Q821.3125 510.00412 821.75 509.4885Q822.1875 508.97287 822.1875 508.06662Q822.1875 507.20724 821.71875 506.69162Q821.25 506.176 820.46875 506.176Q819.7656 506.176 819.3594 506.47287L819.0781 506.70724L818.2031 506.4885Z" fill-rule="nonzero"/><path stroke="#ffffff" stroke-width="3.0" stroke-linejoin="round" stroke-linecap="round" d="M965.28125 451.71564L966.46875 451.71564L966.46875 452.59064L965.28125 452.59064L965.28125 454.575L964.2031 454.575L964.2031 452.59064L960.3125 452.59064L960.3125 451.95L964.125 446.04376L965.28125 446.04376L965.28125 451.71564ZM961.5469 451.71564L964.2031 451.71564L964.2031 447.52814L964.0625 447.7625L961.5469 451.71564ZM972.8906 448.2625Q972.8906 448.90314 972.5469 449.40314Q972.2031 449.90314 971.6406 450.1844Q972.2969 450.46564 972.6875 451.02814Q973.0781 451.575 973.0781 452.27814Q973.0781 453.3719 972.3281 454.04376Q971.59375 454.7 970.375 454.7Q969.1406 454.7 968.3906 454.04376Q967.65625 453.3719 967.65625 452.27814Q967.65625 451.575 968.03125 451.02814Q968.40625 450.46564 969.0781 450.1844Q968.5156 449.90314 968.1875 449.40314Q967.8594 448.90314 967.8594 448.2625Q967.8594 447.1844 968.5469 446.5594Q969.2344 445.91876 970.375 445.91876Q971.5 445.91876 972.1875 446.5594Q972.8906 447.1844 972.8906 448.2625ZM972.0 452.2469Q972.0 451.52814 971.5469 451.09064Q971.09375 450.6375 970.3594 450.6375Q969.625 450.6375 969.1719 451.09064Q968.7344 451.52814 968.7344 452.2625Q968.7344 452.98126 969.1719 453.40314Q969.6094 453.8094 970.375 453.8094Q971.125 453.8094 971.5625 453.3875Q972.0 452.96564 972.0 452.2469ZM970.375 446.8094Q969.7344 446.8094 969.3281 447.21564Q968.9375 447.60626 968.9375 448.29376Q968.9375 448.9344 969.3281 449.34064Q969.71875 449.7469 970.3594 449.7469Q971.0156 449.7469 971.40625 449.34064Q971.7969 448.9344 971.7969 448.29376Q971.7969 447.6375 971.3906 447.23126Q970.9844 446.8094 970.375 446.8094ZM976.28125 449.77814L977.09375 449.77814Q977.875 449.7625 978.3125 449.3719Q978.75 448.98126 978.75 448.3094Q978.75 446.8094 977.25 446.8094Q976.5469 446.8094 976.125 447.21564Q975.71875 447.6219 975.71875 448.27814L974.625 448.27814Q974.625 447.2625 975.3594 446.59064Q976.1094 445.91876 977.25 445.91876Q978.4531 445.91876 979.1406 446.5594Q979.8281 447.2 979.8281 448.34064Q979.8281 448.90314 979.46875 449.41876Q979.1094 449.9344 978.4844 450.2Q979.1875 450.41876 979.5625 450.9344Q979.9531 451.45 979.9531 452.2Q979.9531 453.34064 979.2031 454.02814Q978.4531 454.7 977.25 454.7Q976.0625 454.7 975.2969 454.04376Q974.5469 453.3875 974.5469 452.325L975.6406 452.325Q975.6406 452.9969 976.0781 453.40314Q976.5156 453.8094 977.2656 453.8094Q978.0469 453.8094 978.4531 453.40314Q978.875 452.98126 978.875 452.21564Q978.875 451.48126 978.4219 451.09064Q977.96875 450.6844 977.09375 450.66876L976.28125 450.66876L976.28125 449.77814Z" fill-rule="nonzero"/><path fill="#4285f4" d="M965.28125 451.71564L966.46875 451.71564L966.46875 452.59064L965.28125 452.59064L965.28125 454.575L964.2031 454.575L964.2031 452.59064L960.3125 452.59064L960.3125 451.95L964.125 446.04376L965.28125 446.04376L965.28125 451.71564ZM961.5469 451.71564L964.2031 451.71564L964.2031 447.52814L964.0625 447.7625L961.5469 451.71564ZM972.8906 448.2625Q972.8906 448.90314 972.5469 449.40314Q972.2031 449.90314 971.6406 450.1844Q972.2969 450.46564 972.6875 451.02814Q973.0781 451.575 973.0781 452.27814Q973.0781 453.3719 972.3281 454.04376Q971.59375 454.7 970.375 454.7Q969.1406 454.7 968.3906 454.04376Q967.65625 453.3719 967.65625 452.27814Q967.65625 451.575 968.03125 451.02814Q968.40625 450.46564 969.0781 450.1844Q968.5156 449.90314 968.1875 449.40314Q967.8594 448.90314 967.8594 448.2625Q967.8594 447.1844 968.5469 446.5594Q969.2344 445.91876 970.375 445.91876Q971.5 445.91876 972.1875 446.5594Q972.8906 447.1844 972.8906 448.2625ZM972.0 452.2469Q972.0 451.52814 971.5469 451.09064Q971.09375 450.6375 970.3594 450.6375Q969.625 450.6375 969.1719 451.09064Q968.7344 451.52814 968.7344 452.2625Q968.7344 452.98126 969.1719 453.40314Q969.6094 453.8094 970.375 453.8094Q971.125 453.8094 971.5625 453.3875Q972.0 452.96564 972.0 452.2469ZM970.375 446.8094Q969.7344 446.8094 969.3281 447.21564Q968.9375 447.60626 968.9375 448.29376Q968.9375 448.9344 969.3281 449.34064Q969.71875 449.7469 970.3594 449.7469Q971.0156 449.7469 971.40625 449.34064Q971.7969 448.9344 971.7969 448.29376Q971.7969 447.6375 971.3906 447.23126Q970.9844 446.8094 970.375 446.8094ZM976.28125 449.77814L977.09375 449.77814Q977.875 449.7625 978.3125 449.3719Q978.75 448.98126 978.75 448.3094Q978.75 446.8094 977.25 446.8094Q976.5469 446.8094 976.125 447.21564Q975.71875 447.6219 975.71875 448.27814L974.625 448.27814Q974.625 447.2625 975.3594 446.59064Q976.1094 445.91876 977.25 445.91876Q978.4531 445.91876 979.1406 446.5594Q979.8281 447.2 979.8281 448.34064Q979.8281 448.90314 979.46875 449.41876Q979.1094 449.9344 978.4844 450.2Q979.1875 450.41876 979.5625 450.9344Q979.9531 451.45 979.9531 452.2Q979.9531 453.34064 979.2031 454.02814Q978.4531 454.7 977.25 454.7Q976.0625 454.7 975.2969 454.04376Q974.5469 453.3875 974.5469 452.325L975.6406 452.325Q975.6406 452.9969 976.0781 453.40314Q976.5156 453.8094 977.2656 453.8094Q978.0469 453.8094 978.4531 453.40314Q978.875 452.98126 978.875 452.21564Q978.875 451.48126 978.4219 451.09064Q977.96875 450.6844 977.09375 450.66876L976.28125 450.66876L976.28125 449.77814Z" fill-rule="nonzero"/><path stroke="#ffffff" stroke-width="3.0" stroke-linejoin="round" stroke-linecap="round" d="M1119.2812 541.2804L1120.0938 541.2804Q1120.875 541.2648 1121.3125 540.87415Q1121.75 540.4835 1121.75 539.81165Q1121.75 538.31165 1120.25 538.31165Q1119.5469 538.31165 1119.125 538.7179Q1118.7188 539.12415 1118.7188 539.7804L1117.625 539.7804Q1117.625 538.7648 1118.3594 538.0929Q1119.1094 537.421 1120.25 537.421Q1121.4531 537.421 1122.1406 538.06165Q1122.8281 538.7023 1122.8281 539.8429Q1122.8281 540.4054 1122.4688 540.921Q1122.1094 541.43665 1121.4844 541.7023Q1122.1875 541.921 1122.5625 542.43665Q1122.9531 542.9523 1122.9531 543.7023Q1122.9531 544.8429 1122.2031 545.5304Q1121.4531 546.2023 1120.25 546.2023Q1119.0625 546.2023 1118.2969 545.546Q1117.5469 544.8898 1117.5469 543.8273L1118.6406 543.8273Q1118.6406 544.49915 1119.0781 544.9054Q1119.5156 545.31165 1120.2656 545.31165Q1121.0469 545.31165 1121.4531 544.9054Q1121.875 544.4835 1121.875 543.7179Q1121.875 542.9835 1121.4219 542.5929Q1120.9688 542.18665 1120.0938 542.171L1119.2812 542.171L1119.2812 541.2804ZM1125.2031 541.796L1125.6406 537.546L1130.0156 537.546L1130.0156 538.546L1126.5625 538.546L1126.2969 540.87415Q1126.9375 540.49915 1127.7344 540.49915Q1128.8906 540.49915 1129.5781 541.2804Q1130.2656 542.046 1130.2656 543.3585Q1130.2656 544.671 1129.5469 545.43665Q1128.8438 546.2023 1127.5625 546.2023Q1126.4375 546.2023 1125.7188 545.5773Q1125.0 544.93665 1124.9062 543.8273L1125.9219 543.8273Q1126.0312 544.56165 1126.4531 544.93665Q1126.875 545.31165 1127.5625 545.31165Q1128.3125 545.31165 1128.75 544.796Q1129.1875 544.2804 1129.1875 543.37415Q1129.1875 542.5148 1128.7188 541.99915Q1128.25 541.4835 1127.4688 541.4835Q1126.7656 541.4835 1126.3594 541.7804L1126.0781 542.0148L1125.2031 541.796ZM1137.2188 538.1554L1133.6875 546.0773L1132.5469 546.0773L1136.0625 538.43665L1131.4531 538.43665L1131.4531 537.546L1137.2188 537.546L1137.2188 538.1554Z" fill-rule="nonzero"/><path fill="#4285f4" d="M1119.2812 541.2804L1120.0938 541.2804Q1120.875 541.2648 1121.3125 540.87415Q1121.75 540.4835 1121.75 539.81165Q1121.75 538.31165 1120.25 538.31165Q1119.5469 538.31165 1119.125 538.7179Q1118.7188 539.12415 1118.7188 539.7804L1117.625 539.7804Q1117.625 538.7648 1118.3594 538.0929Q1119.1094 537.421 1120.25 537.421Q1121.4531 537.421 1122.1406 538.06165Q1122.8281 538.7023 1122.8281 539.8429Q1122.8281 540.4054 1122.4688 540.921Q1122.1094 541.43665 1121.4844 541.7023Q1122.1875 541.921 1122.5625 542.43665Q1122.9531 542.9523 1122.9531 543.7023Q1122.9531 544.8429 1122.2031 545.5304Q1121.4531 546.2023 1120.25 546.2023Q1119.0625 546.2023 1118.2969 545.546Q1117.5469 544.8898 1117.5469 543.8273L1118.6406 543.8273Q1118.6406 544.49915 1119.0781 544.9054Q1119.5156 545.31165 1120.2656 545.31165Q1121.0469 545.31165 1121.4531 544.9054Q1121.875 544.4835 1121.875 543.7179Q1121.875 542.9835 1121.4219 542.5929Q1120.9688 542.18665 1120.0938 542.171L1119.2812 542.171L1119.2812 541.2804ZM1125.2031 541.796L1125.6406 537.546L1130.0156 537.546L1130.0156 538.546L1126.5625 538.546L1126.2969 540.87415Q1126.9375 540.49915 1127.7344 540.49915Q1128.8906 540.49915 1129.5781 541.2804Q1130.2656 542.046 1130.2656 543.3585Q1130.2656 544.671 1129.5469 545.43665Q1128.8438 546.2023 1127.5625 546.2023Q1126.4375 546.2023 1125.7188 545.5773Q1125.0 544.93665 1124.9062 543.8273L1125.9219 543.8273Q1126.0312 544.56165 1126.4531 544.93665Q1126.875 545.31165 1127.5625 545.31165Q1128.3125 545.31165 1128.75 544.796Q1129.1875 544.2804 1129.1875 543.37415Q1129.1875 542.5148 1128.7188 541.99915Q1128.25 541.4835 1127.4688 541.4835Q1126.7656 541.4835 1126.3594 541.7804L1126.0781 542.0148L1125.2031 541.796ZM1137.2188 538.1554L1133.6875 546.0773L1132.5469 546.0773L1136.0625 538.43665L1131.4531 538.43665L1131.4531 537.546L1137.2188 537.546L1137.2188 538.1554Z" fill-rule="nonzero"/><path stroke="#ffffff" stroke-width="3.0" stroke-linejoin="round" stroke-linecap="round" d="M230.89062 201.0955Q230.89062 201.73613 230.54688 202.23613Q230.20312 202.73613 229.64062 203.01738Q230.29688 203.29863 230.6875 203.86113Q231.07812 204.408 231.07812 205.11113Q231.07812 206.20488 230.32812 206.87675Q229.59375 207.533 228.375 207.533Q227.14062 207.533 226.39062 206.87675Q225.65625 206.20488 225.65625 205.11113Q225.65625 204.408 226.03125 203.86113Q226.40625 203.29863 227.07812 203.01738Q226.51562 202.73613 226.1875 202.23613Q225.85938 201.73613 225.85938 201.0955Q225.85938 200.01738 226.54688 199.39238Q227.23438 198.75175 228.375 198.75175Q229.5 198.75175 230.1875 199.39238Q230.89062 200.01738 230.89062 201.0955ZM230.0 205.07988Q230.0 204.36113 229.54688 203.92363Q229.09375 203.4705 228.35938 203.4705Q227.625 203.4705 227.17188 203.92363Q226.73438 204.36113 226.73438 205.0955Q226.73438 205.81425 227.17188 206.23613Q227.60938 206.64238 228.375 206.64238Q229.125 206.64238 229.5625 206.2205Q230.0 205.79863 230.0 205.07988ZM228.375 199.64238Q227.73438 199.64238 227.32812 200.04863Q226.9375 200.43925 226.9375 201.12675Q226.9375 201.76738 227.32812 202.17363Q227.71875 202.57988 228.35938 202.57988Q229.01562 202.57988 229.40625 202.17363Q229.79688 201.76738 229.79688 201.12675Q229.79688 200.4705 229.39062 200.06425Q228.98438 199.64238 228.375 199.64238ZM238.29688 207.408L232.70312 207.408L232.70312 206.62675L235.65625 203.3455Q236.3125 202.5955 236.5625 202.14238Q236.8125 201.67363 236.8125 201.17363Q236.8125 200.50175 236.40625 200.07988Q236.01562 199.64238 235.32812 199.64238Q234.53125 199.64238 234.07812 200.11113Q233.625 200.56425 233.625 201.39238L232.54688 201.39238Q232.54688 200.20488 233.29688 199.48613Q234.0625 198.75175 235.32812 198.75175Q236.53125 198.75175 237.21875 199.37675Q237.90625 200.00175 237.90625 201.04863Q237.90625 202.29863 236.29688 204.04863L234.01562 206.51738L238.29688 206.51738L238.29688 207.408ZM244.28125 204.54863L245.46875 204.54863L245.46875 205.42363L244.28125 205.42363L244.28125 207.408L243.20312 207.408L243.20312 205.42363L239.3125 205.42363L239.3125 204.783L243.125 198.87675L244.28125 198.87675L244.28125 204.54863ZM240.54688 204.54863L243.20312 204.54863L243.20312 200.36113L243.0625 200.5955L240.54688 204.54863Z" fill-rule="nonzero"/><path fill="#ea4335" d="M230.89062 201.0955Q230.89062 201.73613 230.54688 202.23613Q230.20312 202.73613 229.64062 203.01738Q230.29688 203.29863 230.6875 203.86113Q231.07812 204.408 231.07812 205.11113Q231.07812 206.20488 230.32812 206.87675Q229.59375 207.533 228.375 207.533Q227.14062 207.533 226.39062 206.87675Q225.65625 206.20488 225.65625 205.11113Q225.65625 204.408 226.03125 203.86113Q226.40625 203.29863 227.07812 203.01738Q226.51562 202.73613 226.1875 202.23613Q225.85938 201.73613 225.85938 201.0955Q225.85938 200.01738 226.54688 199.39238Q227.23438 198.75175 228.375 198.75175Q229.5 198.75175 230.1875 199.39238Q230.89062 200.01738 230.89062 201.0955ZM230.0 205.07988Q230.0 204.36113 229.54688 203.92363Q229.09375 203.4705 228.35938 203.4705Q227.625 203.4705 227.17188 203.92363Q226.73438 204.36113 226.73438 205.0955Q226.73438 205.81425 227.17188 206.23613Q227.60938 206.64238 228.375 206.64238Q229.125 206.64238 229.5625 206.2205Q230.0 205.79863 230.0 205.07988ZM228.375 199.64238Q227.73438 199.64238 227.32812 200.04863Q226.9375 200.43925 226.9375 201.12675Q226.9375 201.76738 227.32812 202.17363Q227.71875 202.57988 228.35938 202.57988Q229.01562 202.57988 229.40625 202.17363Q229.79688 201.76738 229.79688 201.12675Q229.79688 200.4705 229.39062 200.06425Q228.98438 199.64238 228.375 199.64238ZM238.29688 207.408L232.70312 207.408L232.70312 206.62675L235.65625 203.3455Q236.3125 202.5955 236.5625 202.14238Q236.8125 201.67363 236.8125 201.17363Q236.8125 200.50175 236.40625 200.07988Q236.01562 199.64238 235.32812 199.64238Q234.53125 199.64238 234.07812 200.11113Q233.625 200.56425 233.625 201.39238L232.54688 201.39238Q232.54688 200.20488 233.29688 199.48613Q234.0625 198.75175 235.32812 198.75175Q236.53125 198.75175 237.21875 199.37675Q237.90625 200.00175 237.90625 201.04863Q237.90625 202.29863 236.29688 204.04863L234.01562 206.51738L238.29688 206.51738L238.29688 207.408ZM244.28125 204.54863L245.46875 204.54863L245.46875 205.42363L244.28125 205.42363L244.28125 207.408L243.20312 207.408L243.20312 205.42363L239.3125 205.42363L239.3125 204.783L243.125 198.87675L244.28125 198.87675L244.28125 204.54863ZM240.54688 204.54863L243.20312 204.54863L243.20312 200.36113L243.0625 200.5955L240.54688 204.54863Z" fill-rule="nonzero"/><path stroke="#ffffff" stroke-width="3.0" stroke-linejoin="round" stroke-linecap="round" d="M383.20312 411.644L383.64062 407.394L388.01562 407.394L388.01562 408.394L384.5625 408.394L384.29688 410.72214Q384.9375 410.34714 385.73438 410.34714Q386.89062 410.34714 387.57812 411.1284Q388.26562 411.894 388.26562 413.2065Q388.26562 414.519 387.54688 415.28464Q386.84375 416.05026 385.5625 416.05026Q384.4375 416.05026 383.71875 415.42526Q383.0 414.78464 382.90625 413.67526L383.92188 413.67526Q384.03125 414.40964 384.45312 414.78464Q384.875 415.15964 385.5625 415.15964Q386.3125 415.15964 386.75 414.644Q387.1875 414.1284 387.1875 413.22214Q387.1875 412.36276 386.71875 411.84714Q386.25 411.3315 385.46875 411.3315Q384.76562 411.3315 384.35938 411.6284L384.07812 411.86276L383.20312 411.644ZM391.28125 411.1284L392.09375 411.1284Q392.875 411.11276 393.3125 410.72214Q393.75 410.3315 393.75 409.65964Q393.75 408.15964 392.25 408.15964Q391.54688 408.15964 391.125 408.5659Q390.71875 408.97214 390.71875 409.6284L389.625 409.6284Q389.625 408.61276 390.35938 407.9409Q391.10938 407.269 392.25 407.269Q393.45312 407.269 394.14062 407.90964Q394.82812 408.55026 394.82812 409.6909Q394.82812 410.2534 394.46875 410.769Q394.10938 411.28464 393.48438 411.55026Q394.1875 411.769 394.5625 412.28464Q394.95312 412.80026 394.95312 413.55026Q394.95312 414.6909 394.20312 415.3784Q393.45312 416.05026 392.25 416.05026Q391.0625 416.05026 390.29688 415.394Q389.54688 414.73776 389.54688 413.67526L390.64062 413.67526Q390.64062 414.34714 391.07812 414.7534Q391.51562 415.15964 392.26562 415.15964Q393.04688 415.15964 393.45312 414.7534Q393.875 414.3315 393.875 413.5659Q393.875 412.8315 393.42188 412.4409Q392.96875 412.03464 392.09375 412.019L391.28125 412.019L391.28125 411.1284ZM400.96875 407.394L400.96875 408.30026L400.76562 408.30026Q399.5 408.3315 398.75 409.0659Q398.0 409.78464 397.875 411.09714Q398.5625 410.3315 399.71875 410.3315Q400.82812 410.3315 401.5 411.11276Q402.17188 411.894 402.17188 413.144Q402.17188 414.4565 401.45312 415.2534Q400.73438 416.05026 399.51562 416.05026Q398.29688 416.05026 397.53125 415.11276Q396.78125 414.15964 396.78125 412.67526L396.78125 412.269Q396.78125 409.90964 397.78125 408.65964Q398.78125 407.40964 400.76562 407.394L400.96875 407.394ZM399.54688 411.23776Q398.98438 411.23776 398.51562 411.5659Q398.04688 411.894 397.85938 412.40964L397.85938 412.80026Q397.85938 413.86276 398.32812 414.5034Q398.8125 415.144 399.51562 415.144Q400.25 415.144 400.67188 414.61276Q401.09375 414.0659 401.09375 413.1909Q401.09375 412.3159 400.67188 411.78464Q400.25 411.23776 399.54688 411.23776Z" fill-rule="nonzero"/><path fill="#ea4335" d="M383.20312 411.644L383.64062 407.394L388.01562 407.394L388.01562 408.394L384.5625 408.394L384.29688 410.72214Q384.9375 410.34714 385.73438 410.34714Q386.89062 410.34714 387.57812 411.1284Q388.26562 411.894 388.26562 413.2065Q388.26562 414.519 387.54688 415.28464Q386.84375 416.05026 385.5625 416.05026Q384.4375 416.05026 383.71875 415.42526Q383.0 414.78464 382.90625 413.67526L383.92188 413.67526Q384.03125 414.40964 384.45312 414.78464Q384.875 415.15964 385.5625 415.15964Q386.3125 415.15964 386.75 414.644Q387.1875 414.1284 387.1875 413.22214Q387.1875 412.36276 386.71875 411.84714Q386.25 411.3315 385.46875 411.3315Q384.76562 411.3315 384.35938 411.6284L384.07812 411.86276L383.20312 411.644ZM391.28125 411.1284L392.09375 411.1284Q392.875 411.11276 393.3125 410.72214Q393.75 410.3315 393.75 409.65964Q393.75 408.15964 392.25 408.15964Q391.54688 408.15964 391.125 408.5659Q390.71875 408.97214 390.71875 409.6284L389.625 409.6284Q389.625 408.61276 390.35938 407.9409Q391.10938 407.269 392.25 407.269Q393.45312 407.269 394.14062 407.90964Q394.82812 408.55026 394.82812 409.6909Q394.82812 410.2534 394.46875 410.769Q394.10938 411.28464 393.48438 411.55026Q394.1875 411.769 394.5625 412.28464Q394.95312 412.80026 394.95312 413.55026Q394.95312 414.6909 394.20312 415.3784Q393.45312 416.05026 392.25 416.05026Q391.0625 416.05026 390.29688 415.394Q389.54688 414.73776 389.54688 413.67526L390.64062 413.67526Q390.64062 414.34714 391.07812 414.7534Q391.51562 415.15964 392.26562 415.15964Q393.04688 415.15964 393.45312 414.7534Q393.875 414.3315 393.875 413.5659Q393.875 412.8315 393.42188 412.4409Q392.96875 412.03464 392.09375 412.019L391.28125 412.019L391.28125 411.1284ZM400.96875 407.394L400.96875 408.30026L400.76562 408.30026Q399.5 408.3315 398.75 409.0659Q398.0 409.78464 397.875 411.09714Q398.5625 410.3315 399.71875 410.3315Q400.82812 410.3315 401.5 411.11276Q402.17188 411.894 402.17188 413.144Q402.17188 414.4565 401.45312 415.2534Q400.73438 416.05026 399.51562 416.05026Q398.29688 416.05026 397.53125 415.11276Q396.78125 414.15964 396.78125 412.67526L396.78125 412.269Q396.78125 409.90964 397.78125 408.65964Q398.78125 407.40964 400.76562 407.394L400.96875 407.394ZM399.54688 411.23776Q398.98438 411.23776 398.51562 411.5659Q398.04688 411.894 397.85938 412.40964L397.85938 412.80026Q397.85938 413.86276 398.32812 414.5034Q398.8125 415.144 399.51562 415.144Q400.25 415.144 400.67188 414.61276Q401.09375 414.0659 401.09375 413.1909Q401.09375 412.3159 400.67188 411.78464Q400.25 411.23776 399.54688 411.23776Z" fill-rule="nonzero"/><path stroke="#ffffff" stroke-width="3.0" stroke-linejoin="round" stroke-linecap="round" d="M543.96875 345.044L543.96875 345.95026L543.7656 345.95026Q542.5 345.9815 541.75 346.71588Q541.0 347.43463 540.875 348.74713Q541.5625 347.9815 542.71875 347.9815Q543.8281 347.9815 544.5 348.76276Q545.1719 349.544 545.1719 350.794Q545.1719 352.1065 544.4531 352.90338Q543.7344 353.70026 542.5156 353.70026Q541.2969 353.70026 540.53125 352.76276Q539.78125 351.80963 539.78125 350.32526L539.78125 349.919Q539.78125 347.55963 540.78125 346.30963Q541.78125 345.05963 543.7656 345.044L543.96875 345.044ZM542.5469 348.88776Q541.9844 348.88776 541.5156 349.21588Q541.0469 349.544 540.8594 350.05963L540.8594 350.45026Q540.8594 351.51276 541.3281 352.15338Q541.8125 352.794 542.5156 352.794Q543.25 352.794 543.6719 352.26276Q544.09375 351.71588 544.09375 350.84088Q544.09375 349.96588 543.6719 349.43463Q543.25 348.88776 542.5469 348.88776ZM552.2969 353.57526L546.7031 353.57526L546.7031 352.794L549.65625 349.51276Q550.3125 348.76276 550.5625 348.30963Q550.8125 347.84088 550.8125 347.34088Q550.8125 346.669 550.40625 346.24713Q550.0156 345.80963 549.3281 345.80963Q548.53125 345.80963 548.0781 346.27838Q547.625 346.7315 547.625 347.55963L546.5469 347.55963Q546.5469 346.37213 547.2969 345.65338Q548.0625 344.919 549.3281 344.919Q550.53125 344.919 551.21875 345.544Q551.90625 346.169 551.90625 347.21588Q551.90625 348.46588 550.2969 350.21588L548.0156 352.68463L552.2969 352.68463L552.2969 353.57526ZM559.2969 353.57526L553.7031 353.57526L553.7031 352.794L556.65625 349.51276Q557.3125 348.76276 557.5625 348.30963Q557.8125 347.84088 557.8125 347.34088Q557.8125 346.669 557.40625 346.24713Q557.0156 345.80963 556.3281 345.80963Q555.53125 345.80963 555.0781 346.27838Q554.625 346.7315 554.625 347.55963L553.5469 347.55963Q553.5469 346.37213 554.2969 345.65338Q555.0625 344.919 556.3281 344.919Q557.53125 344.919 558.21875 345.544Q558.90625 346.169 558.90625 347.21588Q558.90625 348.46588 557.2969 350.21588L555.0156 352.68463L559.2969 352.68463L559.2969 353.57526Z" fill-rule="nonzero"/><path fill="#ea4335" d="M543.96875 345.044L543.96875 345.95026L543.7656 345.95026Q542.5 345.9815 541.75 346.71588Q541.0 347.43463 540.875 348.74713Q541.5625 347.9815 542.71875 347.9815Q543.8281 347.9815 544.5 348.76276Q545.1719 349.544 545.1719 350.794Q545.1719 352.1065 544.4531 352.90338Q543.7344 353.70026 542.5156 353.70026Q541.2969 353.70026 540.53125 352.76276Q539.78125 351.80963 539.78125 350.32526L539.78125 349.919Q539.78125 347.55963 540.78125 346.30963Q541.78125 345.05963 543.7656 345.044L543.96875 345.044ZM542.5469 348.88776Q541.9844 348.88776 541.5156 349.21588Q541.0469 349.544 540.8594 350.05963L540.8594 350.45026Q540.8594 351.51276 541.3281 352.15338Q541.8125 352.794 542.5156 352.794Q543.25 352.794 543.6719 352.26276Q544.09375 351.71588 544.09375 350.84088Q544.09375 349.96588 543.6719 349.43463Q543.25 348.88776 542.5469 348.88776ZM552.2969 353.57526L546.7031 353.57526L546.7031 352.794L549.65625 349.51276Q550.3125 348.76276 550.5625 348.30963Q550.8125 347.84088 550.8125 347.34088Q550.8125 346.669 550.40625 346.24713Q550.0156 345.80963 549.3281 345.80963Q548.53125 345.80963 548.0781 346.27838Q547.625 346.7315 547.625 347.55963L546.5469 347.55963Q546.5469 346.37213 547.2969 345.65338Q548.0625 344.919 549.3281 344.919Q550.53125 344.919 551.21875 345.544Q551.90625 346.169 551.90625 347.21588Q551.90625 348.46588 550.2969 350.21588L548.0156 352.68463L552.2969 352.68463L552.2969 353.57526ZM559.2969 353.57526L553.7031 353.57526L553.7031 352.794L556.65625 349.51276Q557.3125 348.76276 557.5625 348.30963Q557.8125 347.84088 557.8125 347.34088Q557.8125 346.669 557.40625 346.24713Q557.0156 345.80963 556.3281 345.80963Q555.53125 345.80963 555.0781 346.27838Q554.625 346.7315 554.625 347.55963L553.5469 347.55963Q553.5469 346.37213 554.2969 345.65338Q555.0625 344.919 556.3281 344.919Q557.53125 344.919 558.21875 345.544Q558.90625 346.169 558.90625 347.21588Q558.90625 348.46588 557.2969 350.21588L555.0156 352.68463L559.2969 352.68463L559.2969 353.57526Z" fill-rule="nonzero"/><path stroke="#ffffff" stroke-width="3.0" stroke-linejoin="round" stroke-linecap="round" d="M702.28125 501.2404L703.46875 501.2404L703.46875 502.1154L702.28125 502.1154L702.28125 504.09976L701.2031 504.09976L701.2031 502.1154L697.3125 502.1154L697.3125 501.47476L701.125 495.5685L702.28125 495.5685L702.28125 501.2404ZM698.5469 501.2404L701.2031 501.2404L701.2031 497.0529L701.0625 497.28726L698.5469 501.2404ZM708.2656 504.09976L707.1875 504.09976L707.1875 496.881L705.0 497.6779L705.0 496.6935L708.1094 495.52164L708.2656 495.52164L708.2656 504.09976ZM712.2031 499.8185L712.6406 495.5685L717.0156 495.5685L717.0156 496.5685L713.5625 496.5685L713.2969 498.89664Q713.9375 498.52164 714.7344 498.52164Q715.8906 498.52164 716.5781 499.3029Q717.2656 500.0685 717.2656 501.381Q717.2656 502.6935 716.5469 503.45914Q715.84375 504.22476 714.5625 504.22476Q713.4375 504.22476 712.71875 503.59976Q712.0 502.95914 711.90625 501.84976L712.9219 501.84976Q713.03125 502.58414 713.4531 502.95914Q713.875 503.33414 714.5625 503.33414Q715.3125 503.33414 715.75 502.8185Q716.1875 502.3029 716.1875 501.39664Q716.1875 500.53726 715.71875 500.02164Q715.25 499.506 714.46875 499.506Q713.7656 499.506 713.3594 499.8029L713.0781 500.03726L712.2031 499.8185Z" fill-rule="nonzero"/><path fill="#ea4335" d="M702.28125 501.2404L703.46875 501.2404L703.46875 502.1154L702.28125 502.1154L702.28125 504.09976L701.2031 504.09976L701.2031 502.1154L697.3125 502.1154L697.3125 501.47476L701.125 495.5685L702.28125 495.5685L702.28125 501.2404ZM698.5469 501.2404L701.2031 501.2404L701.2031 497.0529L701.0625 497.28726L698.5469 501.2404ZM708.2656 504.09976L707.1875 504.09976L707.1875 496.881L705.0 497.6779L705.0 496.6935L708.1094 495.52164L708.2656 495.52164L708.2656 504.09976ZM712.2031 499.8185L712.6406 495.5685L717.0156 495.5685L717.0156 496.5685L713.5625 496.5685L713.2969 498.89664Q713.9375 498.52164 714.7344 498.52164Q715.8906 498.52164 716.5781 499.3029Q717.2656 500.0685 717.2656 501.381Q717.2656 502.6935 716.5469 503.45914Q715.84375 504.22476 714.5625 504.22476Q713.4375 504.22476 712.71875 503.59976Q712.0 502.95914 711.90625 501.84976L712.9219 501.84976Q713.03125 502.58414 713.4531 502.95914Q713.875 503.33414 714.5625 503.33414Q715.3125 503.33414 715.75 502.8185Q716.1875 502.3029 716.1875 501.39664Q716.1875 500.53726 715.71875 500.02164Q715.25 499.506 714.46875 499.506Q713.7656 499.506 713.3594 499.8029L713.0781 500.03726L712.2031 499.8185Z" fill-rule="nonzero"/><path stroke="#ffffff" stroke-width="3.0" stroke-linejoin="round" stroke-linecap="round" d="M859.28125 507.91037L860.46875 507.91037L860.46875 508.78537L859.28125 508.78537L859.28125 510.76974L858.2031 510.76974L858.2031 508.78537L854.3125 508.78537L854.3125 508.14474L858.125 502.2385L859.28125 502.2385L859.28125 507.91037ZM855.5469 507.91037L858.2031 507.91037L858.2031 503.72287L858.0625 503.95724L855.5469 507.91037ZM867.0625 507.12912Q867.0625 509.03537 866.40625 509.97287Q865.7656 510.89474 864.375 510.89474Q863.0156 510.89474 862.3594 509.9885Q861.7031 509.08224 861.6719 507.26974L861.6719 505.83224Q861.6719 503.94162 862.3125 503.03537Q862.96875 502.1135 864.3594 502.1135Q865.7344 502.1135 866.3906 503.00412Q867.0469 503.87912 867.0625 505.72287L867.0625 507.12912ZM865.96875 505.64474Q865.96875 504.26974 865.5781 503.64474Q865.2031 503.00412 864.3594 503.00412Q863.53125 503.00412 863.1406 503.64474Q862.7656 504.26974 862.7656 505.56662L862.7656 507.301Q862.7656 508.676 863.15625 509.34787Q863.5625 510.00412 864.375 510.00412Q865.1719 510.00412 865.5625 509.37912Q865.9531 508.75412 865.96875 507.426L865.96875 505.64474ZM869.2031 506.4885L869.6406 502.2385L874.0156 502.2385L874.0156 503.2385L870.5625 503.2385L870.2969 505.56662Q870.9375 505.19162 871.7344 505.19162Q872.8906 505.19162 873.5781 505.97287Q874.2656 506.7385 874.2656 508.051Q874.2656 509.3635 873.5469 510.12912Q872.84375 510.89474 871.5625 510.89474Q870.4375 510.89474 869.71875 510.26974Q869.0 509.62912 868.90625 508.51974L869.9219 508.51974Q870.03125 509.25412 870.4531 509.62912Q870.875 510.00412 871.5625 510.00412Q872.3125 510.00412 872.75 509.4885Q873.1875 508.97287 873.1875 508.06662Q873.1875 507.20724 872.71875 506.69162Q872.25 506.176 871.46875 506.176Q870.7656 506.176 870.3594 506.47287L870.0781 506.70724L869.2031 506.4885Z" fill-rule="nonzero"/><path fill="#ea4335" d="M859.28125 507.91037L860.46875 507.91037L860.46875 508.78537L859.28125 508.78537L859.28125 510.76974L858.2031 510.76974L858.2031 508.78537L854.3125 508.78537L854.3125 508.14474L858.125 502.2385L859.28125 502.2385L859.28125 507.91037ZM855.5469 507.91037L858.2031 507.91037L858.2031 503.72287L858.0625 503.95724L855.5469 507.91037ZM867.0625 507.12912Q867.0625 509.03537 866.40625 509.97287Q865.7656 510.89474 864.375 510.89474Q863.0156 510.89474 862.3594 509.9885Q861.7031 509.08224 861.6719 507.26974L861.6719 505.83224Q861.6719 503.94162 862.3125 503.03537Q862.96875 502.1135 864.3594 502.1135Q865.7344 502.1135 866.3906 503.00412Q867.0469 503.87912 867.0625 505.72287L867.0625 507.12912ZM865.96875 505.64474Q865.96875 504.26974 865.5781 503.64474Q865.2031 503.00412 864.3594 503.00412Q863.53125 503.00412 863.1406 503.64474Q862.7656 504.26974 862.7656 505.56662L862.7656 507.301Q862.7656 508.676 863.15625 509.34787Q863.5625 510.00412 864.375 510.00412Q865.1719 510.00412 865.5625 509.37912Q865.9531 508.75412 865.96875 507.426L865.96875 505.64474ZM869.2031 506.4885L869.6406 502.2385L874.0156 502.2385L874.0156 503.2385L870.5625 503.2385L870.2969 505.56662Q870.9375 505.19162 871.7344 505.19162Q872.8906 505.19162 873.5781 505.97287Q874.2656 506.7385 874.2656 508.051Q874.2656 509.3635 873.5469 510.12912Q872.84375 510.89474 871.5625 510.89474Q870.4375 510.89474 869.71875 510.26974Q869.0 509.62912 868.90625 508.51974L869.9219 508.51974Q870.03125 509.25412 870.4531 509.62912Q870.875 510.00412 871.5625 510.00412Q872.3125 510.00412 872.75 509.4885Q873.1875 508.97287 873.1875 508.06662Q873.1875 507.20724 872.71875 506.69162Q872.25 506.176 871.46875 506.176Q870.7656 506.176 870.3594 506.47287L870.0781 506.70724L869.2031 506.4885Z" fill-rule="nonzero"/><path stroke="#ffffff" stroke-width="3.0" stroke-linejoin="round" stroke-linecap="round" d="M1012.2031 366.9695L1012.6406 362.7195L1017.0156 362.7195L1017.0156 363.7195L1013.5625 363.7195L1013.2969 366.04764Q1013.9375 365.67264 1014.7344 365.67264Q1015.8906 365.67264 1016.5781 366.4539Q1017.2656 367.2195 1017.2656 368.532Q1017.2656 369.8445 1016.5469 370.61014Q1015.84375 371.37576 1014.5625 371.37576Q1013.4375 371.37576 1012.71875 370.75076Q1012.0 370.11014 1011.90625 369.00076L1012.9219 369.00076Q1013.03125 369.73514 1013.4531 370.11014Q1013.875 370.48514 1014.5625 370.48514Q1015.3125 370.48514 1015.75 369.9695Q1016.1875 369.4539 1016.1875 368.54764Q1016.1875 367.68826 1015.71875 367.17264Q1015.25 366.657 1014.46875 366.657Q1013.7656 366.657 1013.3594 366.9539L1013.0781 367.18826L1012.2031 366.9695ZM1022.8594 367.50076Q1022.53125 367.907 1022.0469 368.157Q1021.5781 368.3914 1021.0156 368.3914Q1020.28125 368.3914 1019.7344 368.032Q1019.1875 367.67264 1018.8906 367.0164Q1018.59375 366.3445 1018.59375 365.54764Q1018.59375 364.7039 1018.90625 364.0164Q1019.2344 363.3289 1019.8281 362.9695Q1020.4375 362.5945 1021.2344 362.5945Q1022.5 362.5945 1023.21875 363.54764Q1023.9531 364.50076 1023.9531 366.12576L1023.9531 366.43826Q1023.9531 368.93826 1022.96875 370.0789Q1021.9844 371.2195 1020.0 371.25076L1019.78125 371.25076L1019.78125 370.3445L1020.0156 370.3445Q1021.3594 370.31326 1022.0781 369.6414Q1022.7969 368.9695 1022.8594 367.50076ZM1021.1875 367.50076Q1021.7344 367.50076 1022.1875 367.17264Q1022.65625 366.8289 1022.875 366.3445L1022.875 365.907Q1022.875 364.8445 1022.40625 364.17264Q1021.9375 363.50076 1021.2344 363.50076Q1020.5156 363.50076 1020.0781 364.04764Q1019.65625 364.5945 1019.65625 365.50076Q1019.65625 366.37576 1020.0625 366.93826Q1020.4844 367.50076 1021.1875 367.50076ZM1030.8906 364.93826Q1030.8906 365.5789 1030.5469 366.0789Q1030.2031 366.5789 1029.6406 366.86014Q1030.2969 367.1414 1030.6875 367.7039Q1031.0781 368.25076 1031.0781 368.9539Q1031.0781 370.04764 1030.3281 370.7195Q1029.5938 371.37576 1028.375 371.37576Q1027.1406 371.37576 1026.3906 370.7195Q1025.6562 370.04764 1025.6562 368.9539Q1025.6562 368.25076 1026.0312 367.7039Q1026.4062 367.1414 1027.0781 366.86014Q1026.5156 366.5789 1026.1875 366.0789Q1025.8594 365.5789 1025.8594 364.93826Q1025.8594 363.86014 1026.5469 363.23514Q1027.2344 362.5945 1028.375 362.5945Q1029.5 362.5945 1030.1875 363.23514Q1030.8906 363.86014 1030.8906 364.93826ZM1030.0 368.92264Q1030.0 368.2039 1029.5469 367.7664Q1029.0938 367.31326 1028.3594 367.31326Q1027.625 367.31326 1027.1719 367.7664Q1026.7344 368.2039 1026.7344 368.93826Q1026.7344 369.657 1027.1719 370.0789Q1027.6094 370.48514 1028.375 370.48514Q1029.125 370.48514 1029.5625 370.06326Q1030.0 369.6414 1030.0 368.92264ZM1028.375 363.48514Q1027.7344 363.48514 1027.3281 363.8914Q1026.9375 364.282 1026.9375 364.9695Q1026.9375 365.61014 1027.3281 366.0164Q1027.7188 366.42264 1028.3594 366.42264Q1029.0156 366.42264 1029.4062 366.0164Q1029.7969 365.61014 1029.7969 364.9695Q1029.7969 364.31326 1029.3906 363.907Q1028.9844 363.48514 1028.375 363.48514Z" fill-rule="nonzero"/><path fill="#ea4335" d="M1012.2031 366.9695L1012.6406 362.7195L1017.0156 362.7195L1017.0156 363.7195L1013.5625 363.7195L1013.2969 366.04764Q1013.9375 365.67264 1014.7344 365.67264Q1015.8906 365.67264 1016.5781 366.4539Q1017.2656 367.2195 1017.2656 368.532Q1017.2656 369.8445 1016.5469 370.61014Q1015.84375 371.37576 1014.5625 371.37576Q1013.4375 371.37576 1012.71875 370.75076Q1012.0 370.11014 1011.90625 369.00076L1012.9219 369.00076Q1013.03125 369.73514 1013.4531 370.11014Q1013.875 370.48514 1014.5625 370.48514Q1015.3125 370.48514 1015.75 369.9695Q1016.1875 369.4539 1016.1875 368.54764Q1016.1875 367.68826 1015.71875 367.17264Q1015.25 366.657 1014.46875 366.657Q1013.7656 366.657 1013.3594 366.9539L1013.0781 367.18826L1012.2031 366.9695ZM1022.8594 367.50076Q1022.53125 367.907 1022.0469 368.157Q1021.5781 368.3914 1021.0156 368.3914Q1020.28125 368.3914 1019.7344 368.032Q1019.1875 367.67264 1018.8906 367.0164Q1018.59375 366.3445 1018.59375 365.54764Q1018.59375 364.7039 1018.90625 364.0164Q1019.2344 363.3289 1019.8281 362.9695Q1020.4375 362.5945 1021.2344 362.5945Q1022.5 362.5945 1023.21875 363.54764Q1023.9531 364.50076 1023.9531 366.12576L1023.9531 366.43826Q1023.9531 368.93826 1022.96875 370.0789Q1021.9844 371.2195 1020.0 371.25076L1019.78125 371.25076L1019.78125 370.3445L1020.0156 370.3445Q1021.3594 370.31326 1022.0781 369.6414Q1022.7969 368.9695 1022.8594 367.50076ZM1021.1875 367.50076Q1021.7344 367.50076 1022.1875 367.17264Q1022.65625 366.8289 1022.875 366.3445L1022.875 365.907Q1022.875 364.8445 1022.40625 364.17264Q1021.9375 363.50076 1021.2344 363.50076Q1020.5156 363.50076 1020.0781 364.04764Q1019.65625 364.5945 1019.65625 365.50076Q1019.65625 366.37576 1020.0625 366.93826Q1020.4844 367.50076 1021.1875 367.50076ZM1030.8906 364.93826Q1030.8906 365.5789 1030.5469 366.0789Q1030.2031 366.5789 1029.6406 366.86014Q1030.2969 367.1414 1030.6875 367.7039Q1031.0781 368.25076 1031.0781 368.9539Q1031.0781 370.04764 1030.3281 370.7195Q1029.5938 371.37576 1028.375 371.37576Q1027.1406 371.37576 1026.3906 370.7195Q1025.6562 370.04764 1025.6562 368.9539Q1025.6562 368.25076 1026.0312 367.7039Q1026.4062 367.1414 1027.0781 366.86014Q1026.5156 366.5789 1026.1875 366.0789Q1025.8594 365.5789 1025.8594 364.93826Q1025.8594 363.86014 1026.5469 363.23514Q1027.2344 362.5945 1028.375 362.5945Q1029.5 362.5945 1030.1875 363.23514Q1030.8906 363.86014 1030.8906 364.93826ZM1030.0 368.92264Q1030.0 368.2039 1029.5469 367.7664Q1029.0938 367.31326 1028.3594 367.31326Q1027.625 367.31326 1027.1719 367.7664Q1026.7344 368.2039 1026.7344 368.93826Q1026.7344 369.657 1027.1719 370.0789Q1027.6094 370.48514 1028.375 370.48514Q1029.125 370.48514 1029.5625 370.06326Q1030.0 369.6414 1030.0 368.92264ZM1028.375 363.48514Q1027.7344 363.48514 1027.3281 363.8914Q1026.9375 364.282 1026.9375 364.9695Q1026.9375 365.61014 1027.3281 366.0164Q1027.7188 366.42264 1028.3594 366.42264Q1029.0156 366.42264 1029.4062 366.0164Q1029.7969 365.61014 1029.7969 364.9695Q1029.7969 364.31326 1029.3906 363.907Q1028.9844 363.48514 1028.375 363.48514Z" fill-rule="nonzero"/><path stroke="#ffffff" stroke-width="3.0" stroke-linejoin="round" stroke-linecap="round" d="M1173.2812 485.81238L1174.4688 485.81238L1174.4688 486.68738L1173.2812 486.68738L1173.2812 488.67175L1172.2031 488.67175L1172.2031 486.68738L1168.3125 486.68738L1168.3125 486.04675L1172.125 480.1405L1173.2812 480.1405L1173.2812 485.81238ZM1169.5469 485.81238L1172.2031 485.81238L1172.2031 481.62488L1172.0625 481.85925L1169.5469 485.81238ZM1177.2812 483.87488L1178.0938 483.87488Q1178.875 483.85925 1179.3125 483.46863Q1179.75 483.078 1179.75 482.40613Q1179.75 480.90613 1178.25 480.90613Q1177.5469 480.90613 1177.125 481.31238Q1176.7188 481.71863 1176.7188 482.37488L1175.625 482.37488Q1175.625 481.35925 1176.3594 480.68738Q1177.1094 480.0155 1178.25 480.0155Q1179.4531 480.0155 1180.1406 480.65613Q1180.8281 481.29675 1180.8281 482.43738Q1180.8281 482.99988 1180.4688 483.5155Q1180.1094 484.03113 1179.4844 484.29675Q1180.1875 484.5155 1180.5625 485.03113Q1180.9531 485.54675 1180.9531 486.29675Q1180.9531 487.43738 1180.2031 488.12488Q1179.4531 488.79675 1178.25 488.79675Q1177.0625 488.79675 1176.2969 488.1405Q1175.5469 487.48425 1175.5469 486.42175L1176.6406 486.42175Q1176.6406 487.09363 1177.0781 487.49988Q1177.5156 487.90613 1178.2656 487.90613Q1179.0469 487.90613 1179.4531 487.49988Q1179.875 487.078 1179.875 486.31238Q1179.875 485.578 1179.4219 485.18738Q1178.9688 484.78113 1178.0938 484.7655L1177.2812 484.7655L1177.2812 483.87488ZM1186.9688 480.1405L1186.9688 481.04675L1186.7656 481.04675Q1185.5 481.078 1184.75 481.81238Q1184.0 482.53113 1183.875 483.84363Q1184.5625 483.078 1185.7188 483.078Q1186.8281 483.078 1187.5 483.85925Q1188.1719 484.6405 1188.1719 485.8905Q1188.1719 487.203 1187.4531 487.99988Q1186.7344 488.79675 1185.5156 488.79675Q1184.2969 488.79675 1183.5312 487.85925Q1182.7812 486.90613 1182.7812 485.42175L1182.7812 485.0155Q1182.7812 482.65613 1183.7812 481.40613Q1184.7812 480.15613 1186.7656 480.1405L1186.9688 480.1405ZM1185.5469 483.98425Q1184.9844 483.98425 1184.5156 484.31238Q1184.0469 484.6405 1183.8594 485.15613L1183.8594 485.54675Q1183.8594 486.60925 1184.3281 487.24988Q1184.8125 487.8905 1185.5156 487.8905Q1186.25 487.8905 1186.6719 487.35925Q1187.0938 486.81238 1187.0938 485.93738Q1187.0938 485.06238 1186.6719 484.53113Q1186.25 483.98425 1185.5469 483.98425Z" fill-rule="nonzero"/><path fill="#ea4335" d="M1173.2812 485.81238L1174.4688 485.81238L1174.4688 486.68738L1173.2812 486.68738L1173.2812 488.67175L1172.2031 488.67175L1172.2031 486.68738L1168.3125 486.68738L1168.3125 486.04675L1172.125 480.1405L1173.2812 480.1405L1173.2812 485.81238ZM1169.5469 485.81238L1172.2031 485.81238L1172.2031 481.62488L1172.0625 481.85925L1169.5469 485.81238ZM1177.2812 483.87488L1178.0938 483.87488Q1178.875 483.85925 1179.3125 483.46863Q1179.75 483.078 1179.75 482.40613Q1179.75 480.90613 1178.25 480.90613Q1177.5469 480.90613 1177.125 481.31238Q1176.7188 481.71863 1176.7188 482.37488L1175.625 482.37488Q1175.625 481.35925 1176.3594 480.68738Q1177.1094 480.0155 1178.25 480.0155Q1179.4531 480.0155 1180.1406 480.65613Q1180.8281 481.29675 1180.8281 482.43738Q1180.8281 482.99988 1180.4688 483.5155Q1180.1094 484.03113 1179.4844 484.29675Q1180.1875 484.5155 1180.5625 485.03113Q1180.9531 485.54675 1180.9531 486.29675Q1180.9531 487.43738 1180.2031 488.12488Q1179.4531 488.79675 1178.25 488.79675Q1177.0625 488.79675 1176.2969 488.1405Q1175.5469 487.48425 1175.5469 486.42175L1176.6406 486.42175Q1176.6406 487.09363 1177.0781 487.49988Q1177.5156 487.90613 1178.2656 487.90613Q1179.0469 487.90613 1179.4531 487.49988Q1179.875 487.078 1179.875 486.31238Q1179.875 485.578 1179.4219 485.18738Q1178.9688 484.78113 1178.0938 484.7655L1177.2812 484.7655L1177.2812 483.87488ZM1186.9688 480.1405L1186.9688 481.04675L1186.7656 481.04675Q1185.5 481.078 1184.75 481.81238Q1184.0 482.53113 1183.875 483.84363Q1184.5625 483.078 1185.7188 483.078Q1186.8281 483.078 1187.5 483.85925Q1188.1719 484.6405 1188.1719 485.8905Q1188.1719 487.203 1187.4531 487.99988Q1186.7344 488.79675 1185.5156 488.79675Q1184.2969 488.79675 1183.5312 487.85925Q1182.7812 486.90613 1182.7812 485.42175L1182.7812 485.0155Q1182.7812 482.65613 1183.7812 481.40613Q1184.7812 480.15613 1186.7656 480.1405L1186.9688 480.1405ZM1185.5469 483.98425Q1184.9844 483.98425 1184.5156 484.31238Q1184.0469 484.6405 1183.8594 485.15613L1183.8594 485.54675Q1183.8594 486.60925 1184.3281 487.24988Q1184.8125 487.8905 1185.5156 487.8905Q1186.25 487.8905 1186.6719 487.35925Q1187.0938 486.81238 1187.0938 485.93738Q1187.0938 485.06238 1186.6719 484.53113Q1186.25 483.98425 1185.5469 483.98425Z" fill-rule="nonzero"/><path fill="#000000" d="M664.875 723.75L661.5469 715.15625L662.78125 715.15625L665.0156 721.40625Q665.28125 722.15625 665.46875 722.8125Q665.6719 722.1094 665.9375 721.40625L668.25 715.15625L669.40625 715.15625L666.0469 723.75L664.875 723.75ZM668.90625 720.6406Q668.90625 718.90625 669.8594 718.0781Q670.65625 717.3906 671.8125 717.3906Q673.09375 717.3906 673.90625 718.2344Q674.7344 719.0625 674.7344 720.5469Q674.7344 721.75 674.375 722.4375Q674.0156 723.125 673.3125 723.5156Q672.625 723.8906 671.8125 723.8906Q670.5156 723.8906 669.7031 723.0625Q668.90625 722.21875 668.90625 720.6406ZM669.9844 720.6406Q669.9844 721.8281 670.5 722.4219Q671.03125 723.0156 671.8125 723.0156Q672.6094 723.0156 673.125 722.4219Q673.6406 721.8281 673.6406 720.6094Q673.6406 719.4531 673.1094 718.8594Q672.59375 718.2656 671.8125 718.2656Q671.03125 718.2656 670.5 718.8594Q669.9844 719.4375 669.9844 720.6406ZM677.4375 723.75L675.53125 717.53125L676.625 717.53125L677.6094 721.125L677.9844 722.4531Q678.0156 722.3594 678.3125 721.1719L679.2969 717.53125L680.375 717.53125L681.3125 721.1406L681.625 722.3281L681.9844 721.125L683.0469 717.53125L684.0781 717.53125L682.125 723.75L681.03125 723.75L680.0469 720.0156L679.7969 718.96875L678.5469 723.75L677.4375 723.75ZM689.5469 721.75L690.6406 721.875Q690.3906 722.8281 689.6875 723.3594Q688.9844 723.8906 687.90625 723.8906Q686.5469 723.8906 685.7344 723.0469Q684.9375 722.2031 684.9375 720.6875Q684.9375 719.125 685.75 718.2656Q686.5625 717.3906 687.84375 717.3906Q689.09375 717.3906 689.875 718.2344Q690.6719 719.0781 690.6719 720.625Q690.6719 720.71875 690.6719 720.90625L686.03125 720.90625Q686.09375 721.9375 686.6094 722.4844Q687.125 723.0156 687.90625 723.0156Q688.4844 723.0156 688.8906 722.71875Q689.3125 722.40625 689.5469 721.75ZM686.09375 720.0469L689.5625 720.0469Q689.5 719.25 689.1719 718.8594Q688.65625 718.25 687.8594 718.25Q687.125 718.25 686.625 718.7344Q686.1406 719.21875 686.09375 720.0469ZM692.2656 723.75L692.2656 715.15625L693.3281 715.15625L693.3281 723.75L692.2656 723.75ZM694.875 721.8906L695.90625 721.7344Q696.0 722.3594 696.3906 722.6875Q696.7969 723.0156 697.53125 723.0156Q698.25 723.0156 698.59375 722.7344Q698.9531 722.4375 698.9531 722.03125Q698.9531 721.6719 698.6406 721.46875Q698.4219 721.3281 697.5625 721.1094Q696.40625 720.8125 695.9531 720.6094Q695.5156 720.3906 695.28125 720.0156Q695.0469 719.6406 695.0469 719.1719Q695.0469 718.7656 695.2344 718.40625Q695.4219 718.0469 695.75 717.8125Q696.0 717.6406 696.4219 717.5156Q696.84375 717.3906 697.34375 717.3906Q698.0625 717.3906 698.6094 717.6094Q699.1719 717.8125 699.4375 718.1719Q699.7031 718.53125 699.7969 719.125L698.7656 719.2656Q698.7031 718.7969 698.3594 718.53125Q698.03125 718.25 697.40625 718.25Q696.6875 718.25 696.375 718.5Q696.0625 718.7344 696.0625 719.0625Q696.0625 719.2656 696.1875 719.4219Q696.3281 719.59375 696.59375 719.7031Q696.75 719.7656 697.53125 719.96875Q698.65625 720.28125 699.09375 720.46875Q699.53125 720.65625 699.78125 721.0156Q700.03125 721.375 700.03125 721.9219Q700.03125 722.4531 699.71875 722.9219Q699.4219 723.375 698.84375 723.6406Q698.2656 723.8906 697.53125 723.8906Q696.3125 723.8906 695.6719 723.3906Q695.0469 722.875 694.875 721.8906Z" fill-rule="nonzero"/><path fill="#000000" d="M49.25 409.76562L40.65625 409.76562L40.65625 403.96875L41.671875 403.96875L41.671875 408.625L44.328125 408.625L44.328125 404.59375L45.34375 404.59375L45.34375 408.625L49.25 408.625L49.25 409.76562ZM49.25 399.28125L49.25 400.32812L42.53125 400.32812Q42.890625 400.71875 43.265625 401.34375Q43.625 401.95312 43.796875 402.4375L42.78125 402.4375Q42.359375 401.5625 41.78125 400.90625Q41.1875 400.23438 40.625 399.95312L40.625 399.28125L49.25 399.28125ZM51.78125 390.9375Q50.671875 391.8125 49.203125 392.42188Q47.71875 393.01562 46.140625 393.01562Q44.75 393.01562 43.46875 392.57812Q41.984375 392.04688 40.515625 390.9375L40.515625 390.1875Q41.734375 390.89062 42.25 391.125Q43.0625 391.48438 43.9375 391.6875Q45.03125 391.9375 46.140625 391.9375Q48.96875 391.9375 51.78125 390.1875L51.78125 390.9375ZM49.25 388.78125L40.65625 388.78125L40.65625 387.65625L44.1875 387.65625L44.1875 383.1875L40.65625 383.1875L40.65625 382.04688L49.25 382.04688L49.25 383.1875L45.203125 383.1875L45.203125 387.65625L49.25 387.65625L49.25 388.78125ZM49.25 380.51562L48.390625 380.51562L43.84375 376.54688Q43.875 377.23438 43.875 377.75L43.875 380.28125L43.03125 380.28125L43.03125 375.1875L43.71875 375.1875L47.671875 378.5625L48.390625 379.21875Q48.34375 378.5 48.34375 377.89062L48.34375 375.0L49.25 375.0L49.25 380.51562ZM51.78125 374.26562L51.78125 375.01562Q48.96875 373.26562 46.140625 373.26562Q45.046875 373.26562 43.953125 373.51562Q43.078125 373.71875 42.265625 374.07812Q41.75 374.3125 40.515625 375.01562L40.515625 374.26562Q41.984375 373.17188 43.46875 372.64062Q44.75 372.1875 46.140625 372.1875Q47.71875 372.1875 49.203125 372.79688Q50.671875 373.40625 51.78125 374.26562Z" fill-rule="nonzero"/><path fill="#000000" d="M83.296875 677.7344L83.296875 678.75L77.609375 678.75Q77.609375 678.375 77.734375 678.0156Q77.953125 677.4375 78.421875 676.875Q78.90625 676.3125 79.8125 675.5781Q81.21875 674.4219 81.703125 673.75Q82.203125 673.0781 82.203125 672.4844Q82.203125 671.8594 81.75 671.4375Q81.296875 671.0 80.578125 671.0Q79.8125 671.0 79.359375 671.4531Q78.90625 671.90625 78.890625 672.71875L77.8125 672.6094Q77.921875 671.3906 78.640625 670.7656Q79.375 670.125 80.609375 670.125Q81.84375 670.125 82.5625 670.8125Q83.28125 671.5 83.28125 672.5156Q83.28125 673.03125 83.0625 673.53125Q82.859375 674.0156 82.359375 674.5781Q81.875 675.125 80.75 676.0781Q79.796875 676.875 79.515625 677.1719Q79.25 677.4531 79.078125 677.7344L83.296875 677.7344ZM84.75 674.5156Q84.75 672.9844 85.0625 672.0625Q85.375 671.125 85.984375 670.625Q86.609375 670.125 87.546875 670.125Q88.234375 670.125 88.75 670.40625Q89.28125 670.6875 89.625 671.21875Q89.96875 671.7344 90.15625 672.4844Q90.34375 673.2344 90.34375 674.5156Q90.34375 676.03125 90.03125 676.9531Q89.734375 677.875 89.109375 678.3906Q88.5 678.8906 87.546875 678.8906Q86.3125 678.8906 85.59375 678.0Q84.75 676.9375 84.75 674.5156ZM85.828125 674.5156Q85.828125 676.625 86.328125 677.3281Q86.828125 678.03125 87.546875 678.03125Q88.28125 678.03125 88.765625 677.3281Q89.265625 676.625 89.265625 674.5156Q89.265625 672.3906 88.765625 671.7031Q88.28125 671.0 87.53125 671.0Q86.8125 671.0 86.375 671.6094Q85.828125 672.3906 85.828125 674.5156ZM91.75 674.5156Q91.75 672.9844 92.0625 672.0625Q92.375 671.125 92.984375 670.625Q93.609375 670.125 94.546875 670.125Q95.234375 670.125 95.75 670.40625Q96.28125 670.6875 96.625 671.21875Q96.96875 671.7344 97.15625 672.4844Q97.34375 673.2344 97.34375 674.5156Q97.34375 676.03125 97.03125 676.9531Q96.734375 677.875 96.109375 678.3906Q95.5 678.8906 94.546875 678.8906Q93.3125 678.8906 92.59375 678.0Q91.75 676.9375 91.75 674.5156ZM92.828125 674.5156Q92.828125 676.625 93.328125 677.3281Q93.828125 678.03125 94.546875 678.03125Q95.28125 678.03125 95.765625 677.3281Q96.265625 676.625 96.265625 674.5156Q96.265625 672.3906 95.765625 671.7031Q95.28125 671.0 94.53125 671.0Q93.8125 671.0 93.375 671.6094Q92.828125 672.3906 92.828125 674.5156Z" fill-rule="nonzero"/><path fill="#000000" d="M81.125 533.75L81.125 531.6875L77.40625 531.6875L77.40625 530.71875L81.328125 525.15625L82.1875 525.15625L82.1875 530.71875L83.34375 530.71875L83.34375 531.6875L82.1875 531.6875L82.1875 533.75L81.125 533.75ZM81.125 530.71875L81.125 526.8594L78.4375 530.71875L81.125 530.71875ZM84.75 529.5156Q84.75 527.9844 85.0625 527.0625Q85.375 526.125 85.984375 525.625Q86.609375 525.125 87.546875 525.125Q88.234375 525.125 88.75 525.40625Q89.28125 525.6875 89.625 526.21875Q89.96875 526.7344 90.15625 527.4844Q90.34375 528.2344 90.34375 529.5156Q90.34375 531.03125 90.03125 531.9531Q89.734375 532.875 89.109375 533.3906Q88.5 533.8906 87.546875 533.8906Q86.3125 533.8906 85.59375 533.0Q84.75 531.9375 84.75 529.5156ZM85.828125 529.5156Q85.828125 531.625 86.328125 532.3281Q86.828125 533.03125 87.546875 533.03125Q88.28125 533.03125 88.765625 532.3281Q89.265625 531.625 89.265625 529.5156Q89.265625 527.3906 88.765625 526.7031Q88.28125 526.0 87.53125 526.0Q86.8125 526.0 86.375 526.6094Q85.828125 527.3906 85.828125 529.5156ZM91.75 529.5156Q91.75 527.9844 92.0625 527.0625Q92.375 526.125 92.984375 525.625Q93.609375 525.125 94.546875 525.125Q95.234375 525.125 95.75 525.40625Q96.28125 525.6875 96.625 526.21875Q96.96875 526.7344 97.15625 527.4844Q97.34375 528.2344 97.34375 529.5156Q97.34375 531.03125 97.03125 531.9531Q96.734375 532.875 96.109375 533.3906Q95.5 533.8906 94.546875 533.8906Q93.3125 533.8906 92.59375 533.0Q91.75 531.9375 91.75 529.5156ZM92.828125 529.5156Q92.828125 531.625 93.328125 532.3281Q93.828125 533.03125 94.546875 533.03125Q95.28125 533.03125 95.765625 532.3281Q96.265625 531.625 96.265625 529.5156Q96.265625 527.3906 95.765625 526.7031Q95.28125 526.0 94.53125 526.0Q93.8125 526.0 93.375 526.6094Q92.828125 527.3906 92.828125 529.5156Z" fill-rule="nonzero"/><path fill="#000000" d="M83.21875 382.26562L82.171875 382.34375Q82.03125 381.71875 81.78125 381.4375Q81.34375 380.98438 80.71875 380.98438Q80.21875 380.98438 79.828125 381.26562Q79.34375 381.64062 79.046875 382.34375Q78.765625 383.03125 78.75 384.3125Q79.125 383.73438 79.671875 383.45312Q80.234375 383.17188 80.84375 383.17188Q81.890625 383.17188 82.625 383.95312Q83.375 384.73438 83.375 385.95312Q83.375 386.76562 83.015625 387.46875Q82.671875 388.15625 82.0625 388.53125Q81.453125 388.89062 80.6875 388.89062Q79.359375 388.89062 78.53125 387.92188Q77.703125 386.95312 77.703125 384.73438Q77.703125 382.23438 78.625 381.10938Q79.421875 380.125 80.78125 380.125Q81.796875 380.125 82.4375 380.70312Q83.09375 381.26562 83.21875 382.26562ZM78.921875 385.96875Q78.921875 386.51562 79.140625 387.01562Q79.375 387.5 79.78125 387.76562Q80.203125 388.03125 80.671875 388.03125Q81.328125 388.03125 81.8125 387.5Q82.296875 386.95312 82.296875 386.03125Q82.296875 385.14062 81.8125 384.625Q81.34375 384.10938 80.625 384.10938Q79.90625 384.10938 79.40625 384.625Q78.921875 385.14062 78.921875 385.96875ZM84.75 384.51562Q84.75 382.98438 85.0625 382.0625Q85.375 381.125 85.984375 380.625Q86.609375 380.125 87.546875 380.125Q88.234375 380.125 88.75 380.40625Q89.28125 380.6875 89.625 381.21875Q89.96875 381.73438 90.15625 382.48438Q90.34375 383.23438 90.34375 384.51562Q90.34375 386.03125 90.03125 386.95312Q89.734375 387.875 89.109375 388.39062Q88.5 388.89062 87.546875 388.89062Q86.3125 388.89062 85.59375 388.0Q84.75 386.9375 84.75 384.51562ZM85.828125 384.51562Q85.828125 386.625 86.328125 387.32812Q86.828125 388.03125 87.546875 388.03125Q88.28125 388.03125 88.765625 387.32812Q89.265625 386.625 89.265625 384.51562Q89.265625 382.39062 88.765625 381.70312Q88.28125 381.0 87.53125 381.0Q86.8125 381.0 86.375 381.60938Q85.828125 382.39062 85.828125 384.51562ZM91.75 384.51562Q91.75 382.98438 92.0625 382.0625Q92.375 381.125 92.984375 380.625Q93.609375 380.125 94.546875 380.125Q95.234375 380.125 95.75 380.40625Q96.28125 380.6875 96.625 381.21875Q96.96875 381.73438 97.15625 382.48438Q97.34375 383.23438 97.34375 384.51562Q97.34375 386.03125 97.03125 386.95312Q96.734375 387.875 96.109375 388.39062Q95.5 388.89062 94.546875 388.89062Q93.3125 388.89062 92.59375 388.0Q91.75 386.9375 91.75 384.51562ZM92.828125 384.51562Q92.828125 386.625 93.328125 387.32812Q93.828125 388.03125 94.546875 388.03125Q95.28125 388.03125 95.765625 387.32812Q96.265625 386.625 96.265625 384.51562Q96.265625 382.39062 95.765625 381.70312Q95.28125 381.0 94.53125 381.0Q93.8125 381.0 93.375 381.60938Q92.828125 382.39062 92.828125 384.51562Z" fill-rule="nonzero"/><path fill="#000000" d="M79.375 239.09375Q78.71875 238.84375 78.390625 238.40625Q78.078125 237.95312 78.078125 237.34375Q78.078125 236.40625 78.75 235.76562Q79.4375 235.125 80.546875 235.125Q81.671875 235.125 82.359375 235.78125Q83.046875 236.4375 83.046875 237.375Q83.046875 237.96875 82.734375 238.40625Q82.421875 238.84375 81.78125 239.09375Q82.578125 239.34375 82.984375 239.92188Q83.390625 240.5 83.390625 241.29688Q83.390625 242.39062 82.609375 243.14062Q81.84375 243.89062 80.5625 243.89062Q79.296875 243.89062 78.515625 243.14062Q77.734375 242.39062 77.734375 241.26562Q77.734375 240.42188 78.15625 239.85938Q78.59375 239.29688 79.375 239.09375ZM79.15625 237.29688Q79.15625 237.90625 79.546875 238.29688Q79.953125 238.6875 80.578125 238.6875Q81.1875 238.6875 81.578125 238.3125Q81.96875 237.92188 81.96875 237.35938Q81.96875 236.78125 81.5625 236.39062Q81.15625 235.98438 80.5625 235.98438Q79.953125 235.98438 79.546875 236.375Q79.15625 236.76562 79.15625 237.29688ZM78.828125 241.26562Q78.828125 241.71875 79.03125 242.14062Q79.25 242.5625 79.671875 242.79688Q80.09375 243.03125 80.578125 243.03125Q81.328125 243.03125 81.8125 242.54688Q82.3125 242.0625 82.3125 241.3125Q82.3125 240.54688 81.8125 240.04688Q81.3125 239.54688 80.546875 239.54688Q79.796875 239.54688 79.3125 240.04688Q78.828125 240.53125 78.828125 241.26562ZM84.75 239.51562Q84.75 237.98438 85.0625 237.0625Q85.375 236.125 85.984375 235.625Q86.609375 235.125 87.546875 235.125Q88.234375 235.125 88.75 235.40625Q89.28125 235.6875 89.625 236.21875Q89.96875 236.73438 90.15625 237.48438Q90.34375 238.23438 90.34375 239.51562Q90.34375 241.03125 90.03125 241.95312Q89.734375 242.875 89.109375 243.39062Q88.5 243.89062 87.546875 243.89062Q86.3125 243.89062 85.59375 243.0Q84.75 241.9375 84.75 239.51562ZM85.828125 239.51562Q85.828125 241.625 86.328125 242.32812Q86.828125 243.03125 87.546875 243.03125Q88.28125 243.03125 88.765625 242.32812Q89.265625 241.625 89.265625 239.51562Q89.265625 237.39062 88.765625 236.70312Q88.28125 236.0 87.53125 236.0Q86.8125 236.0 86.375 236.60938Q85.828125 237.39062 85.828125 239.51562ZM91.75 239.51562Q91.75 237.98438 92.0625 237.0625Q92.375 236.125 92.984375 235.625Q93.609375 235.125 94.546875 235.125Q95.234375 235.125 95.75 235.40625Q96.28125 235.6875 96.625 236.21875Q96.96875 236.73438 97.15625 237.48438Q97.34375 238.23438 97.34375 239.51562Q97.34375 241.03125 97.03125 241.95312Q96.734375 242.875 96.109375 243.39062Q95.5 243.89062 94.546875 243.89062Q93.3125 243.89062 92.59375 243.0Q91.75 241.9375 91.75 239.51562ZM92.828125 239.51562Q92.828125 241.625 93.328125 242.32812Q93.828125 243.03125 94.546875 243.03125Q95.28125 243.03125 95.765625 242.32812Q96.265625 241.625 96.265625 239.51562Q96.265625 237.39062 95.765625 236.70312Q95.28125 236.0 94.53125 236.0Q93.8125 236.0 93.375 236.60938Q92.828125 237.39062 92.828125 239.51562Z" fill-rule="nonzero"/><path fill="#000000" d="M74.71875 98.75L73.671875 98.75L73.671875 92.03125Q73.28125 92.390625 72.65625 92.765625Q72.046875 93.125 71.5625 93.296875L71.5625 92.28125Q72.4375 91.859375 73.09375 91.28125Q73.765625 90.6875 74.046875 90.125L74.71875 90.125L74.71875 98.75ZM77.75 94.515625Q77.75 92.984375 78.0625 92.0625Q78.375 91.125 78.984375 90.625Q79.609375 90.125 80.546875 90.125Q81.234375 90.125 81.75 90.40625Q82.28125 90.6875 82.625 91.21875Q82.96875 91.734375 83.15625 92.484375Q83.34375 93.234375 83.34375 94.515625Q83.34375 96.03125 83.03125 96.953125Q82.734375 97.875 82.109375 98.390625Q81.5 98.890625 80.546875 98.890625Q79.3125 98.890625 78.59375 98.0Q77.75 96.9375 77.75 94.515625ZM78.828125 94.515625Q78.828125 96.625 79.328125 97.328125Q79.828125 98.03125 80.546875 98.03125Q81.28125 98.03125 81.765625 97.328125Q82.265625 96.625 82.265625 94.515625Q82.265625 92.390625 81.765625 91.703125Q81.28125 91.0 80.53125 91.0Q79.8125 91.0 79.375 91.609375Q78.828125 92.390625 78.828125 94.515625ZM84.75 94.515625Q84.75 92.984375 85.0625 92.0625Q85.375 91.125 85.984375 90.625Q86.609375 90.125 87.546875 90.125Q88.234375 90.125 88.75 90.40625Q89.28125 90.6875 89.625 91.21875Q89.96875 91.734375 90.15625 92.484375Q90.34375 93.234375 90.34375 94.515625Q90.34375 96.03125 90.03125 96.953125Q89.734375 97.875 89.109375 98.390625Q88.5 98.890625 87.546875 98.890625Q86.3125 98.890625 85.59375 98.0Q84.75 96.9375 84.75 94.515625ZM85.828125 94.515625Q85.828125 96.625 86.328125 97.328125Q86.828125 98.03125 87.546875 98.03125Q88.28125 98.03125 88.765625 97.328125Q89.265625 96.625 89.265625 94.515625Q89.265625 92.390625 88.765625 91.703125Q88.28125 91.0 87.53125 91.0Q86.8125 91.0 86.375 91.609375Q85.828125 92.390625 85.828125 94.515625ZM91.75 94.515625Q91.75 92.984375 92.0625 92.0625Q92.375 91.125 92.984375 90.625Q93.609375 90.125 94.546875 90.125Q95.234375 90.125 95.75 90.40625Q96.28125 90.6875 96.625 91.21875Q96.96875 91.734375 97.15625 92.484375Q97.34375 93.234375 97.34375 94.515625Q97.34375 96.03125 97.03125 96.953125Q96.734375 97.875 96.109375 98.390625Q95.5 98.890625 94.546875 98.890625Q93.3125 98.890625 92.59375 98.0Q91.75 96.9375 91.75 94.515625ZM92.828125 94.515625Q92.828125 96.625 93.328125 97.328125Q93.828125 98.03125 94.546875 98.03125Q95.28125 98.03125 95.765625 97.328125Q96.265625 96.625 96.265625 94.515625Q96.265625 92.390625 95.765625 91.703125Q95.28125 91.0 94.53125 91.0Q93.8125 91.0 93.375 91.609375Q92.828125 92.390625 92.828125 94.515625Z" fill-rule="nonzero"/><path fill="#000000" d="M206.75989 691.75L210.05676 683.15625L211.27551 683.15625L214.79114 691.75L213.50989 691.75L212.49426 689.1406L208.91614 689.1406L207.96301 691.75L206.75989 691.75ZM209.24426 688.21875L212.15051 688.21875L211.25989 685.84375Q210.83801 684.7656 210.65051 684.0625Q210.47864 684.8906 210.18176 685.7031L209.24426 688.21875Z" fill-rule="nonzero"/><path fill="#000000" d="M364.30347 691.75L364.30347 683.15625L370.5066 683.15625L370.5066 684.1719L365.4441 684.1719L365.4441 686.7969L370.1941 686.7969L370.1941 687.8125L365.4441 687.8125L365.4441 690.7344L370.70972 690.7344L370.70972 691.75L364.30347 691.75Z" fill-rule="nonzero"/><path fill="#000000" d="M520.3783 691.75L520.3783 683.15625L526.5814 683.15625L526.5814 684.1719L521.5189 684.1719L521.5189 686.7969L526.2689 686.7969L526.2689 687.8125L521.5189 687.8125L521.5189 690.7344L526.78455 690.7344L526.78455 691.75L520.3783 691.75ZM528.22205 686.2031L527.9564 684.59375L527.9564 683.15625L529.15955 683.15625L529.15955 684.59375L528.8783 686.2031L528.22205 686.2031Z" fill-rule="nonzero"/><path fill="#000000" d="M681.125 691.75L681.125 683.15625L682.25 683.15625L682.25 691.75L681.125 691.75Z" fill-rule="nonzero"/><path fill="#000000" d="M837.1998 691.75L837.1998 683.15625L838.3248 683.15625L838.3248 691.75L837.1998 691.75ZM839.8717 686.2031L839.6061 684.59375L839.6061 683.15625L840.8092 683.15625L840.8092 684.59375L840.52795 686.2031L839.8717 686.2031Z" fill-rule="nonzero"/><path fill="#000000" d="M991.7278 687.5625Q991.7278 685.4219 992.8684 684.21875Q994.02466 683.0 995.83716 683.0Q997.0403 683.0 997.9934 683.5781Q998.94653 684.1406 999.44653 685.15625Q999.94653 686.1719 999.94653 687.46875Q999.94653 688.7656 999.4153 689.7969Q998.88403 690.8281 997.9153 691.3594Q996.96216 691.8906 995.83716 691.8906Q994.6184 691.8906 993.6653 691.3125Q992.71216 690.71875 992.21216 689.71875Q991.7278 688.7031 991.7278 687.5625ZM992.89966 687.5781Q992.89966 689.1406 993.7278 690.03125Q994.57153 690.9219 995.83716 690.9219Q997.1184 690.9219 997.94653 690.03125Q998.77466 689.125 998.77466 687.4531Q998.77466 686.40625 998.4153 685.625Q998.07153 684.84375 997.38403 684.4219Q996.69653 683.9844 995.8528 683.9844Q994.64966 683.9844 993.77466 684.8125Q992.89966 685.6406 992.89966 687.5781Z" fill-rule="nonzero"/><path fill="#000000" d="M1154.787 683.15625L1155.9276 683.15625L1155.9276 688.125Q1155.9276 689.4219 1155.6307 690.1875Q1155.3339 690.9375 1154.5682 691.4219Q1153.8026 691.8906 1152.5682 691.8906Q1151.3651 691.8906 1150.5839 691.4844Q1149.8182 691.0625 1149.4901 690.28125Q1149.162 689.4844 1149.162 688.125L1149.162 683.15625L1150.3026 683.15625L1150.3026 688.1094Q1150.3026 689.2344 1150.5057 689.7656Q1150.7245 690.2969 1151.2245 690.59375Q1151.7401 690.875 1152.4745 690.875Q1153.7245 690.875 1154.2557 690.3125Q1154.787 689.7344 1154.787 688.1094L1154.787 683.15625Z" fill-rule="nonzero"/><path fill="#757575" d="M39.734375 57.25L39.734375 42.9375L42.59375 42.9375L45.96875 53.0625Q46.4375 54.484375 46.65625 55.1875Q46.90625 54.40625 47.421875 52.890625L50.84375 42.9375L53.390625 42.9375L53.390625 57.25L51.578125 57.25L51.578125 45.265625L47.40625 57.25L45.703125 57.25L41.5625 45.0625L41.5625 57.25L39.734375 57.25ZM63.671875 53.90625L65.484375 54.140625Q65.0625 55.71875 63.890625 56.609375Q62.734375 57.484375 60.921875 57.484375Q58.65625 57.484375 57.3125 56.09375Q55.984375 54.6875 55.984375 52.15625Q55.984375 49.53125 57.328125 48.09375Q58.671875 46.640625 60.828125 46.640625Q62.90625 46.640625 64.21875 48.0625Q65.546875 49.46875 65.546875 52.046875Q65.546875 52.203125 65.53125 52.515625L57.796875 52.515625Q57.890625 54.21875 58.765625 55.125Q59.640625 56.03125 60.9375 56.03125Q61.90625 56.03125 62.578125 55.53125Q63.265625 55.015625 63.671875 53.90625ZM57.890625 51.0625L63.6875 51.0625Q63.578125 49.765625 63.03125 49.109375Q62.1875 48.09375 60.84375 48.09375Q59.640625 48.09375 58.8125 48.90625Q57.984375 49.703125 57.890625 51.0625ZM74.34375 55.96875Q73.359375 56.796875 72.453125 57.140625Q71.546875 57.484375 70.515625 57.484375Q68.8125 57.484375 67.890625 56.65625Q66.96875 55.8125 66.96875 54.515625Q66.96875 53.75 67.3125 53.125Q67.671875 52.5 68.234375 52.125Q68.796875 51.734375 69.5 51.53125Q70.015625 51.40625 71.0625 51.265625Q73.1875 51.015625 74.1875 50.671875Q74.203125 50.3125 74.203125 50.203125Q74.203125 49.140625 73.703125 48.6875Q73.03125 48.09375 71.703125 48.09375Q70.453125 48.09375 69.859375 48.53125Q69.28125 48.96875 69.0 50.078125L67.28125 49.84375Q67.515625 48.734375 68.046875 48.0625Q68.578125 47.375 69.59375 47.015625Q70.609375 46.640625 71.953125 46.640625Q73.28125 46.640625 74.109375 46.953125Q74.9375 47.265625 75.328125 47.75Q75.71875 48.21875 75.875 48.9375Q75.96875 49.390625 75.96875 50.5625L75.96875 52.90625Q75.96875 55.359375 76.078125 56.015625Q76.1875 56.65625 76.53125 57.25L74.6875 57.25Q74.421875 56.703125 74.34375 55.96875ZM74.1875 52.046875Q73.234375 52.4375 71.3125 52.703125Q70.234375 52.859375 69.78125 53.0625Q69.34375 53.25 69.09375 53.625Q68.84375 54.0 68.84375 54.46875Q68.84375 55.171875 69.375 55.640625Q69.90625 56.109375 70.9375 56.109375Q71.953125 56.109375 72.734375 55.671875Q73.53125 55.21875 73.90625 54.453125Q74.1875 53.84375 74.1875 52.6875L74.1875 52.046875ZM78.5625 57.25L78.5625 46.875L80.15625 46.875L80.15625 48.359375Q81.296875 46.640625 83.453125 46.640625Q84.390625 46.640625 85.171875 46.984375Q85.96875 47.3125 86.359375 47.859375Q86.75 48.40625 86.90625 49.15625Q87.0 49.65625 87.0 50.875L87.0 57.25L85.234375 57.25L85.234375 50.9375Q85.234375 49.859375 85.03125 49.328125Q84.828125 48.796875 84.296875 48.484375Q83.78125 48.171875 83.078125 48.171875Q81.953125 48.171875 81.140625 48.890625Q80.328125 49.59375 80.328125 51.578125L80.328125 57.25L78.5625 57.25ZM94.890625 57.25L94.890625 42.9375L104.546875 42.9375L104.546875 44.625L96.78125 44.625L96.78125 49.0625L103.5 49.0625L103.5 50.75L96.78125 50.75L96.78125 57.25L94.890625 57.25ZM112.703125 57.25L110.9375 57.25L110.9375 46.046875Q110.3125 46.65625 109.28125 47.265625Q108.25 47.859375 107.421875 48.171875L107.421875 46.46875Q108.90625 45.78125 110.0 44.796875Q111.109375 43.796875 111.5625 42.875L112.703125 42.875L112.703125 57.25ZM130.5 51.640625L130.5 49.953125L136.5625 49.9375L136.5625 55.25Q135.15625 56.375 133.67188 56.9375Q132.1875 57.5 130.625 57.5Q128.51562 57.5 126.796875 56.59375Q125.078125 55.6875 124.1875 53.984375Q123.3125 52.265625 123.3125 50.15625Q123.3125 48.0625 124.1875 46.265625Q125.0625 44.453125 126.703125 43.578125Q128.34375 42.6875 130.48438 42.6875Q132.03125 42.6875 133.28125 43.1875Q134.54688 43.6875 135.25 44.59375Q135.96875 45.484375 136.34375 46.9375L134.64062 47.40625Q134.3125 46.3125 133.82812 45.6875Q133.35938 45.0625 132.46875 44.6875Q131.57812 44.3125 130.5 44.3125Q129.1875 44.3125 128.23438 44.703125Q127.296875 45.09375 126.71875 45.75Q126.140625 46.390625 125.8125 47.15625Q125.265625 48.484375 125.265625 50.046875Q125.265625 51.953125 125.921875 53.25Q126.59375 54.53125 127.84375 55.15625Q129.10938 55.78125 130.51562 55.78125Q131.75 55.78125 132.92188 55.3125Q134.09375 54.84375 134.70312 54.296875L134.70312 51.640625L130.5 51.640625ZM146.67188 53.90625L148.48438 54.140625Q148.0625 55.71875 146.89062 56.609375Q145.73438 57.484375 143.92188 57.484375Q141.65625 57.484375 140.3125 56.09375Q138.98438 54.6875 138.98438 52.15625Q138.98438 49.53125 140.32812 48.09375Q141.67188 46.640625 143.82812 46.640625Q145.90625 46.640625 147.21875 48.0625Q148.54688 49.46875 148.54688 52.046875Q148.54688 52.203125 148.53125 52.515625L140.79688 52.515625Q140.89062 54.21875 141.76562 55.125Q142.64062 56.03125 143.9375 56.03125Q144.90625 56.03125 145.57812 55.53125Q146.26562 55.015625 146.67188 53.90625ZM140.89062 51.0625L146.6875 51.0625Q146.57812 49.765625 146.03125 49.109375Q145.1875 48.09375 143.84375 48.09375Q142.64062 48.09375 141.8125 48.90625Q140.98438 49.703125 140.89062 51.0625ZM150.5625 57.25L150.5625 46.875L152.15625 46.875L152.15625 48.359375Q153.29688 46.640625 155.45312 46.640625Q156.39062 46.640625 157.17188 46.984375Q157.96875 47.3125 158.35938 47.859375Q158.75 48.40625 158.90625 49.15625Q159.0 49.65625 159.0 50.875L159.0 57.25L157.23438 57.25L157.23438 50.9375Q157.23438 49.859375 157.03125 49.328125Q156.82812 48.796875 156.29688 48.484375Q155.78125 48.171875 155.07812 48.171875Q153.95312 48.171875 153.14062 48.890625Q152.32812 49.59375 152.32812 51.578125L152.32812 57.25L150.5625 57.25ZM167.29688 57.25L167.29688 55.9375Q166.3125 57.484375 164.39062 57.484375Q163.15625 57.484375 162.10938 56.796875Q161.07812 56.109375 160.5 54.890625Q159.9375 53.671875 159.9375 52.078125Q159.9375 50.515625 160.45312 49.25Q160.96875 47.984375 162.0 47.3125Q163.04688 46.640625 164.3125 46.640625Q165.25 46.640625 165.98438 47.046875Q166.71875 47.4375 167.1875 48.0625L167.1875 42.9375L168.92188 42.9375L168.92188 57.25L167.29688 57.25ZM161.73438 52.078125Q161.73438 54.0625 162.57812 55.046875Q163.42188 56.03125 164.5625 56.03125Q165.71875 56.03125 166.51562 55.09375Q167.32812 54.15625 167.32812 52.21875Q167.32812 50.09375 166.5 49.09375Q165.6875 48.09375 164.48438 48.09375Q163.3125 48.09375 162.51562 49.0625Q161.73438 50.015625 161.73438 52.078125ZM178.67188 53.90625L180.48438 54.140625Q180.0625 55.71875 178.89062 56.609375Q177.73438 57.484375 175.92188 57.484375Q173.65625 57.484375 172.3125 56.09375Q170.98438 54.6875 170.98438 52.15625Q170.98438 49.53125 172.32812 48.09375Q173.67188 46.640625 175.82812 46.640625Q177.90625 46.640625 179.21875 48.0625Q180.54688 49.46875 180.54688 52.046875Q180.54688 52.203125 180.53125 52.515625L172.79688 52.515625Q172.89062 54.21875 173.76562 55.125Q174.64062 56.03125 175.9375 56.03125Q176.90625 56.03125 177.57812 55.53125Q178.26562 55.015625 178.67188 53.90625ZM172.89062 51.0625L178.6875 51.0625Q178.57812 49.765625 178.03125 49.109375Q177.1875 48.09375 175.84375 48.09375Q174.64062 48.09375 173.8125 48.90625Q172.98438 49.703125 172.89062 51.0625ZM182.54688 57.25L182.54688 46.875L184.125 46.875L184.125 48.453125Q184.73438 47.34375 185.25 47.0Q185.76562 46.640625 186.375 46.640625Q187.26562 46.640625 188.1875 47.203125L187.57812 48.84375Q186.9375 48.453125 186.29688 48.453125Q185.71875 48.453125 185.25 48.8125Q184.79688 49.15625 184.59375 49.765625Q184.3125 50.703125 184.3125 51.8125L184.3125 57.25L182.54688 57.25ZM191.48438 57.25L188.3125 46.875L190.125 46.875L191.78125 52.859375L192.39062 55.09375Q192.4375 54.921875 192.92188 52.953125L194.57812 46.875L196.39062 46.875L197.9375 52.890625L198.45312 54.875L199.04688 52.875L200.82812 46.875L202.53125 46.875L199.29688 57.25L197.46875 57.25L195.8125 51.03125L195.42188 49.265625L193.3125 57.25L191.48438 57.25ZM204.57812 44.953125L204.57812 42.9375L206.34375 42.9375L206.34375 44.953125L204.57812 44.953125ZM204.57812 57.25L204.57812 46.875L206.34375 46.875L206.34375 57.25L204.57812 57.25ZM207.85938 54.15625L209.60938 53.875Q209.75 54.921875 210.42188 55.484375Q211.09375 56.03125 212.29688 56.03125Q213.5 56.03125 214.07812 55.546875Q214.67188 55.046875 214.67188 54.390625Q214.67188 53.796875 214.15625 53.453125Q213.79688 53.21875 212.35938 52.859375Q210.42188 52.359375 209.67188 52.015625Q208.9375 51.65625 208.54688 51.03125Q208.15625 50.390625 208.15625 49.625Q208.15625 48.9375 208.46875 48.34375Q208.79688 47.75 209.34375 47.359375Q209.75 47.0625 210.45312 46.859375Q211.17188 46.640625 211.98438 46.640625Q213.20312 46.640625 214.125 47.0Q215.04688 47.34375 215.48438 47.953125Q215.92188 48.546875 216.09375 49.546875L214.375 49.78125Q214.25 48.984375 213.6875 48.546875Q213.125 48.09375 212.10938 48.09375Q210.89062 48.09375 210.375 48.5Q209.85938 48.890625 209.85938 49.421875Q209.85938 49.765625 210.07812 50.046875Q210.28125 50.328125 210.75 50.515625Q211.01562 50.609375 212.29688 50.953125Q214.17188 51.453125 214.90625 51.78125Q215.64062 52.09375 216.0625 52.703125Q216.48438 53.296875 216.48438 54.203125Q216.48438 55.078125 215.96875 55.859375Q215.45312 56.640625 214.48438 57.0625Q213.51562 57.484375 212.29688 57.484375Q210.28125 57.484375 209.21875 56.640625Q208.15625 55.796875 207.85938 54.15625ZM225.67188 53.90625L227.48438 54.140625Q227.0625 55.71875 225.89062 56.609375Q224.73438 57.484375 222.92188 57.484375Q220.65625 57.484375 219.3125 56.09375Q217.98438 54.6875 217.98438 52.15625Q217.98438 49.53125 219.32812 48.09375Q220.67188 46.640625 222.82812 46.640625Q224.90625 46.640625 226.21875 48.0625Q227.54688 49.46875 227.54688 52.046875Q227.54688 52.203125 227.53125 52.515625L219.79688 52.515625Q219.89062 54.21875 220.76562 55.125Q221.64062 56.03125 222.9375 56.03125Q223.90625 56.03125 224.57812 55.53125Q225.26562 55.015625 225.67188 53.90625ZM219.89062 51.0625L225.6875 51.0625Q225.57812 49.765625 225.03125 49.109375Q224.1875 48.09375 222.84375 48.09375Q221.64062 48.09375 220.8125 48.90625Q219.98438 49.703125 219.89062 51.0625ZM234.89062 52.953125L234.89062 51.1875L240.28125 51.1875L240.28125 52.953125L234.89062 52.953125ZM247.21875 57.25L252.71875 42.9375L254.76562 42.9375L260.625 57.25L258.46875 57.25L256.79688 52.90625L250.8125 52.90625L249.23438 57.25L247.21875 57.25ZM251.35938 51.375L256.20312 51.375L254.71875 47.40625Q254.03125 45.59375 253.70312 44.4375Q253.42188 45.8125 252.92188 47.171875L251.35938 51.375ZM261.53125 57.25L261.53125 42.9375L263.28125 42.9375L263.28125 57.25L261.53125 57.25ZM265.53125 57.25L265.53125 42.9375L267.28125 42.9375L267.28125 57.25L265.53125 57.25ZM279.89062 57.25L274.34375 42.9375L276.39062 42.9375L280.10938 53.328125Q280.5625 54.578125 280.85938 55.671875Q281.1875 54.5 281.64062 53.328125L285.5 42.9375L287.4375 42.9375L281.82812 57.25L279.89062 57.25ZM287.92188 52.0625Q287.92188 49.1875 289.51562 47.796875Q290.85938 46.640625 292.78125 46.640625Q294.92188 46.640625 296.26562 48.046875Q297.625 49.453125 297.625 51.921875Q297.625 53.921875 297.03125 55.078125Q296.4375 56.21875 295.28125 56.859375Q294.14062 57.484375 292.78125 57.484375Q290.59375 57.484375 289.25 56.09375Q287.92188 54.6875 287.92188 52.0625ZM289.71875 52.0625Q289.71875 54.0625 290.57812 55.046875Q291.45312 56.03125 292.78125 56.03125Q294.09375 56.03125 294.95312 55.046875Q295.82812 54.046875 295.82812 52.0Q295.82812 50.078125 294.95312 49.09375Q294.07812 48.09375 292.78125 48.09375Q291.45312 48.09375 290.57812 49.09375Q289.71875 50.078125 289.71875 52.0625ZM301.48438 57.25L298.3125 46.875L300.125 46.875L301.78125 52.859375L302.39062 55.09375Q302.4375 54.921875 302.92188 52.953125L304.57812 46.875L306.39062 46.875L307.9375 52.890625L308.45312 54.875L309.04688 52.875L310.82812 46.875L312.53125 46.875L309.29688 57.25L307.46875 57.25L305.8125 51.03125L305.42188 49.265625L303.3125 57.25L301.48438 57.25ZM321.67188 53.90625L323.48438 54.140625Q323.0625 55.71875 321.89062 56.609375Q320.73438 57.484375 318.92188 57.484375Q316.65625 57.484375 315.3125 56.09375Q313.98438 54.6875 313.98438 52.15625Q313.98438 49.53125 315.32812 48.09375Q316.67188 46.640625 318.82812 46.640625Q320.90625 46.640625 322.21875 48.0625Q323.54688 49.46875 323.54688 52.046875Q323.54688 52.203125 323.53125 52.515625L315.79688 52.515625Q315.89062 54.21875 316.76562 55.125Q317.64062 56.03125 318.9375 56.03125Q319.90625 56.03125 320.57812 55.53125Q321.26562 55.015625 321.67188 53.90625ZM315.89062 51.0625L321.6875 51.0625Q321.57812 49.765625 321.03125 49.109375Q320.1875 48.09375 318.84375 48.09375Q317.64062 48.09375 316.8125 48.90625Q315.98438 49.703125 315.89062 51.0625ZM325.53125 57.25L325.53125 42.9375L327.28125 42.9375L327.28125 57.25L325.53125 57.25ZM328.85938 54.15625L330.60938 53.875Q330.75 54.921875 331.42188 55.484375Q332.09375 56.03125 333.29688 56.03125Q334.5 56.03125 335.07812 55.546875Q335.67188 55.046875 335.67188 54.390625Q335.67188 53.796875 335.15625 53.453125Q334.79688 53.21875 333.35938 52.859375Q331.42188 52.359375 330.67188 52.015625Q329.9375 51.65625 329.54688 51.03125Q329.15625 50.390625 329.15625 49.625Q329.15625 48.9375 329.46875 48.34375Q329.79688 47.75 330.34375 47.359375Q330.75 47.0625 331.45312 46.859375Q332.17188 46.640625 332.98438 46.640625Q334.20312 46.640625 335.125 47.0Q336.04688 47.34375 336.48438 47.953125Q336.92188 48.546875 337.09375 49.546875L335.375 49.78125Q335.25 48.984375 334.6875 48.546875Q334.125 48.09375 333.10938 48.09375Q331.89062 48.09375 331.375 48.5Q330.85938 48.890625 330.85938 49.421875Q330.85938 49.765625 331.07812 50.046875Q331.28125 50.328125 331.75 50.515625Q332.01562 50.609375 333.29688 50.953125Q335.17188 51.453125 335.90625 51.78125Q336.64062 52.09375 337.0625 52.703125Q337.48438 53.296875 337.48438 54.203125Q337.48438 55.078125 336.96875 55.859375Q336.45312 56.640625 335.48438 57.0625Q334.51562 57.484375 333.29688 57.484375Q331.28125 57.484375 330.21875 56.640625Q329.15625 55.796875 328.85938 54.15625Z" fill-rule="nonzero"/></svg>