<svg version="1.1" viewBox="0.0 0.0 1476.0 906.0" fill="none" stroke="none" stroke-linecap="square" stroke-miterlimit="10" width="1476" height="906" xmlns:xlink="http://www.w3.org/1999/xlink" xmlns="http://www.w3.org/2000/svg"><path fill="#ffffff" d="M0 0L1476.0 0L1476.0 906.0L0 906.0L0 0Z" fill-rule="nonzero"/><path stroke="#cccccc" stroke-width="1.0" stroke-linecap="butt" d="M1430.5 106.5L1430.5 808.5" fill-rule="nonzero"/><path stroke="#cccccc" stroke-width="1.0" stroke-linecap="butt" d="M1210.5 106.5L1210.5 808.5" fill-rule="nonzero"/><path stroke="#cccccc" stroke-width="1.0" stroke-linecap="butt" d="M990.5 106.5L990.5 808.5" fill-rule="nonzero"/><path stroke="#cccccc" stroke-width="1.0" stroke-linecap="butt" d="M771.5 106.5L771.5 808.5" fill-rule="nonzero"/><path stroke="#cccccc" stroke-width="1.0" stroke-linecap="butt" d="M551.5 106.5L551.5 808.5" fill-rule="nonzero"/><path stroke="#cccccc" stroke-width="1.0" stroke-linecap="butt" d="M331.5 106.5L331.5 808.5" fill-rule="nonzero"/><path stroke="#cccccc" stroke-width="1.0" stroke-linecap="butt" d="M111.5 106.5L111.5 808.5" fill-rule="nonzero"/><path stroke="#e6e6e6" stroke-width="1.0" stroke-linecap="butt" d="M1320.5 106.5L1320.5 808.5" fill-rule="nonzero"/><path stroke="#e6e6e6" stroke-width="1.0" stroke-linecap="butt" d="M1100.5 106.5L1100.5 808.5" fill-rule="nonzero"/><path stroke="#e6e6e6" stroke-width="1.0" stroke-linecap="butt" d="M880.5 106.5L880.5 808.5" fill-rule="nonzero"/><path stroke="#e6e6e6" stroke-width="1.0" stroke-linecap="butt" d="M661.5 106.5L661.5 808.5" fill-rule="nonzero"/><path stroke="#e6e6e6" stroke-width="1.0" stroke-linecap="butt" d="M441.5 106.5L441.5 808.5" fill-rule="nonzero"/><path stroke="#e6e6e6" stroke-width="1.0" stroke-linecap="butt" d="M221.5 106.5L221.5 808.5" fill-rule="nonzero"/><path stroke="#cccccc" stroke-width="1.0" stroke-linecap="butt" d="M111.5 808.5L1430.5 808.5" fill-rule="nonzero"/><path stroke="#cccccc" stroke-width="1.0" stroke-linecap="butt" d="M111.5 633.5L1430.5 633.5" fill-rule="nonzero"/><path stroke="#cccccc" stroke-width="1.0" stroke-linecap="butt" d="M111.5 457.5L1430.5 457.5" fill-rule="nonzero"/><path stroke="#cccccc" stroke-width="1.0" stroke-linecap="butt" d="M111.5 282.5L1430.5 282.5" fill-rule="nonzero"/><path stroke="#cccccc" stroke-width="1.0" stroke-linecap="butt" d="M111.5 106.5L1430.5 106.5" fill-rule="nonzero"/><path stroke="#e6e6e6" stroke-width="1.0" stroke-linecap="butt" d="M111.5 720.5L1430.5 720.5" fill-rule="nonzero"/><path stroke="#e6e6e6" stroke-width="1.0" stroke-linecap="butt" d="M111.5 545.5L1430.5 545.5" fill-rule="nonzero"/><path stroke="#e6e6e6" stroke-width="1.0" stroke-linecap="butt" d="M111.5 369.5L1430.5 369.5" fill-rule="nonzero"/><path stroke="#e6e6e6" stroke-width="1.0" stroke-linecap="butt" d="M111.5 194.5L1430.5 194.5" fill-rule="nonzero"/><path stroke="#eeeeee" stroke-width="1.0" stroke-linecap="butt" d="M729.08704 233.2836L729.08704 249.2836" fill-rule="nonzero"/><path stroke="#eeeeee" stroke-width="1.0" stroke-linecap="butt" d="M668.9444 491.67563L668.9444 507.67563" fill-rule="nonzero"/><path stroke="#eeeeee" stroke-width="1.0" stroke-linecap="butt" d="M850.51587 422.0174L850.51587 438.0174" fill-rule="nonzero"/><path stroke="#eeeeee" stroke-width="1.0" stroke-linecap="butt" d="M673.8152 604.3963L673.8152 620.3963" fill-rule="nonzero"/><path stroke="#eeeeee" stroke-width="1.0" stroke-linecap="butt" d="M402.6785 612.3312L402.6785 628.3312" fill-rule="nonzero"/><path stroke="#eeeeee" stroke-width="1.0" stroke-linecap="butt" d="M937.0465 460.6296L937.0465 476.6296" fill-rule="nonzero"/><path stroke="#eeeeee" stroke-width="1.0" stroke-linecap="butt" d="M831.08765 588.53534L831.08765 604.53534" fill-rule="nonzero"/><clipPath id="id_0"><path d="M111.3 106.5L1430.7 106.5L1430.7 808.7L111.3 808.7L111.3 106.5Z" clip-rule="nonzero"/></clipPath><path fill="#0000ff" clip-path="url(#id_0)" d="M735.08704 249.2836C735.08704 252.5973 732.40076 255.2836 729.08704 255.2836C725.7734 255.2836 723.08704 252.5973 723.08704 249.2836C723.08704 245.96988 725.7734 243.2836 729.08704 243.2836C732.40076 243.2836 735.08704 245.96988 735.08704 249.2836Z" fill-rule="nonzero"/><path fill="#0000ff" clip-path="url(#id_0)" d="M674.9444 507.67563C674.9444 510.98935 672.2581 513.67566 668.9444 513.67566C665.6307 513.67566 662.9444 510.98935 662.9444 507.67563C662.9444 504.36194 665.6307 501.67563 668.9444 501.67563C672.2581 501.67563 674.9444 504.36194 674.9444 507.67563Z" fill-rule="nonzero"/><path fill="#0000ff" clip-path="url(#id_0)" d="M856.51587 438.0174C856.51587 441.33112 853.8295 444.0174 850.51587 444.0174C847.20215 444.0174 844.51587 441.33112 844.51587 438.0174C844.51587 434.70367 847.20215 432.0174 850.51587 432.0174C853.8295 432.0174 856.51587 434.70367 856.51587 438.0174Z" fill-rule="nonzero"/><path fill="#0000ff" clip-path="url(#id_0)" d="M679.8152 620.3963C679.8152 623.71 677.1289 626.3963 673.8152 626.3963C670.50146 626.3963 667.8152 623.71 667.8152 620.3963C667.8152 617.0826 670.50146 614.3963 673.8152 614.3963C677.1289 614.3963 679.8152 617.0826 679.8152 620.3963Z" fill-rule="nonzero"/><path fill="#0000ff" clip-path="url(#id_0)" d="M408.6785 628.3312C408.6785 631.64484 405.99222 634.3312 402.6785 634.3312C399.36478 634.3312 396.6785 631.64484 396.6785 628.3312C396.6785 625.01746 399.36478 622.3312 402.6785 622.3312C405.99222 622.3312 408.6785 625.01746 408.6785 628.3312Z" fill-rule="nonzero"/><path fill="#0000ff" clip-path="url(#id_0)" d="M943.0465 476.6296C943.0465 479.94333 940.36017 482.6296 937.0465 482.6296C933.7328 482.6296 931.0465 479.94333 931.0465 476.6296C931.0465 473.31592 933.7328 470.6296 937.0465 470.6296C940.36017 470.6296 943.0465 473.31592 943.0465 476.6296Z" fill-rule="nonzero"/><path fill="#0000ff" clip-path="url(#id_0)" d="M837.08765 604.53534C837.08765 607.84906 834.40137 610.53534 831.08765 610.53534C827.774 610.53534 825.08765 607.84906 825.08765 604.53534C825.08765 601.2216 827.774 598.53534 831.08765 598.53534C834.40137 598.53534 837.08765 601.2216 837.08765 604.53534Z" fill-rule="nonzero"/><path stroke="#ffffff" stroke-width="3.0" stroke-linejoin="round" stroke-linecap="round" d="M730.79016 229.04922L727.21204 229.04922L726.41516 231.2836L725.2589 231.2836L728.5089 222.75235L729.4933 222.75235L732.7589 231.2836L731.60266 231.2836L730.79016 229.04922ZM727.5558 228.12735L730.46204 228.12735L729.0089 224.14297L727.5558 228.12735Z" fill-rule="nonzero"/><path fill="#0000ff" d="M730.79016 229.04922L727.21204 229.04922L726.41516 231.2836L725.2589 231.2836L728.5089 222.75235L729.4933 222.75235L732.7589 231.2836L731.60266 231.2836L730.79016 229.04922ZM727.5558 228.12735L730.46204 228.12735L729.0089 224.14297L727.5558 228.12735Z" fill-rule="nonzero"/><path stroke="#ffffff" stroke-width="3.0" stroke-linejoin="round" stroke-linecap="round" d="M671.2569 485.73813L667.5538 485.73813L667.5538 488.75375L671.85065 488.75375L671.85065 489.67563L666.4288 489.67563L666.4288 481.14438L671.8038 481.14438L671.8038 482.06625L667.5538 482.06625L667.5538 484.81625L671.2569 484.81625L671.2569 485.73813Z" fill-rule="nonzero"/><path fill="#0000ff" d="M671.2569 485.73813L667.5538 485.73813L667.5538 488.75375L671.85065 488.75375L671.85065 489.67563L666.4288 489.67563L666.4288 481.14438L671.8038 481.14438L671.8038 482.06625L667.5538 482.06625L667.5538 484.81625L671.2569 484.81625L671.2569 485.73813Z" fill-rule="nonzero"/><path stroke="#ffffff" stroke-width="3.0" stroke-linejoin="round" stroke-linecap="round" d="M851.82837 416.0799L848.12524 416.0799L848.12524 419.09552L852.4221 419.09552L852.4221 420.0174L847.00024 420.0174L847.00024 411.48615L852.37524 411.48615L852.37524 412.40802L848.12524 412.40802L848.12524 415.15802L851.82837 415.15802L851.82837 416.0799ZM854.50024 411.67365L854.37524 413.8299L853.62524 413.8299L853.62524 411.0174L854.50024 411.0174L854.50024 411.67365Z" fill-rule="nonzero"/><path fill="#0000ff" d="M851.82837 416.0799L848.12524 416.0799L848.12524 419.09552L852.4221 419.09552L852.4221 420.0174L847.00024 420.0174L847.00024 411.48615L852.37524 411.48615L852.37524 412.40802L848.12524 412.40802L848.12524 415.15802L851.82837 415.15802L851.82837 416.0799ZM854.50024 411.67365L854.37524 413.8299L853.62524 413.8299L853.62524 411.0174L854.50024 411.0174L854.50024 411.67365Z" fill-rule="nonzero"/><path stroke="#ffffff" stroke-width="3.0" stroke-linejoin="round" stroke-linecap="round" d="M674.5183 602.3963L673.3933 602.3963L673.3933 593.86505L674.5183 593.86505L674.5183 602.3963Z" fill-rule="nonzero"/><path fill="#0000ff" d="M674.5183 602.3963L673.3933 602.3963L673.3933 593.86505L674.5183 593.86505L674.5183 602.3963Z" fill-rule="nonzero"/><path stroke="#ffffff" stroke-width="3.0" stroke-linejoin="round" stroke-linecap="round" d="M402.38162 610.3312L401.25662 610.3312L401.25662 601.7999L402.38162 601.7999L402.38162 610.3312ZM404.66287 601.9874L404.53787 604.1437L403.78787 604.1437L403.78787 601.3312L404.66287 601.3312L404.66287 601.9874Z" fill-rule="nonzero"/><path fill="#0000ff" d="M402.38162 610.3312L401.25662 610.3312L401.25662 601.7999L402.38162 601.7999L402.38162 610.3312ZM404.66287 601.9874L404.53787 604.1437L403.78787 604.1437L403.78787 601.3312L404.66287 601.3312L404.66287 601.9874Z" fill-rule="nonzero"/><path stroke="#ffffff" stroke-width="3.0" stroke-linejoin="round" stroke-linecap="round" d="M940.5934 454.64523Q940.5934 455.89523 940.1715 456.83273Q939.74963 457.7546 938.9684 458.2546Q938.20276 458.7546 937.1715 458.7546Q936.1715 458.7546 935.39026 458.2546Q934.609 457.7546 934.1715 456.84836Q933.74963 455.92648 933.734 454.70773L933.734 454.09836Q933.734 452.86398 934.1559 451.92648Q934.5934 450.98898 935.37463 450.48898Q936.1559 449.97336 937.1715 449.97336Q938.18713 449.97336 938.9684 450.47336Q939.74963 450.97336 940.1715 451.91086Q940.5934 452.84836 940.5934 454.09836L940.5934 454.64523ZM939.484 454.08273Q939.484 452.5671 938.87463 451.7546Q938.26526 450.9421 937.1715 450.9421Q936.0934 450.9421 935.484 451.7546Q934.87463 452.5671 934.859 454.0046L934.859 454.64523Q934.859 456.11398 935.4684 456.95773Q936.0934 457.78586 937.1715 457.78586Q938.26526 457.78586 938.859 457.0046Q939.4684 456.20773 939.484 454.72336L939.484 454.08273Z" fill-rule="nonzero"/><path fill="#0000ff" d="M940.5934 454.64523Q940.5934 455.89523 940.1715 456.83273Q939.74963 457.7546 938.9684 458.2546Q938.20276 458.7546 937.1715 458.7546Q936.1715 458.7546 935.39026 458.2546Q934.609 457.7546 934.1715 456.84836Q933.74963 455.92648 933.734 454.70773L933.734 454.09836Q933.734 452.86398 934.1559 451.92648Q934.5934 450.98898 935.37463 450.48898Q936.1559 449.97336 937.1715 449.97336Q938.18713 449.97336 938.9684 450.47336Q939.74963 450.97336 940.1715 451.91086Q940.5934 452.84836 940.5934 454.09836L940.5934 454.64523ZM939.484 454.08273Q939.484 452.5671 938.87463 451.7546Q938.26526 450.9421 937.1715 450.9421Q936.0934 450.9421 935.484 451.7546Q934.87463 452.5671 934.859 454.0046L934.859 454.64523Q934.859 456.11398 935.4684 456.95773Q936.0934 457.78586 937.1715 457.78586Q938.26526 457.78586 938.859 457.0046Q939.4684 456.20773 939.484 454.72336L939.484 454.08273Z" fill-rule="nonzero"/><path stroke="#ffffff" stroke-width="3.0" stroke-linejoin="round" stroke-linecap="round" d="M834.08765 578.0041L834.08765 583.80096Q834.072 585.0041 833.322 585.78534Q832.572 586.55096 831.2908 586.6447L830.9783 586.66034Q829.58765 586.66034 828.7439 585.91034Q827.9158 585.1447 827.9158 583.8166L827.9158 578.0041L829.02515 578.0041L829.02515 583.78534Q829.02515 584.7072 829.52515 585.22284Q830.0408 585.73846 830.9783 585.73846Q831.947 585.73846 832.447 585.22284Q832.947 584.7072 832.947 583.78534L832.947 578.0041L834.08765 578.0041Z" fill-rule="nonzero"/><path fill="#0000ff" d="M834.08765 578.0041L834.08765 583.80096Q834.072 585.0041 833.322 585.78534Q832.572 586.55096 831.2908 586.6447L830.9783 586.66034Q829.58765 586.66034 828.7439 585.91034Q827.9158 585.1447 827.9158 583.8166L827.9158 578.0041L829.02515 578.0041L829.02515 583.78534Q829.02515 584.7072 829.52515 585.22284Q830.0408 585.73846 830.9783 585.73846Q831.947 585.73846 832.447 585.22284Q832.947 584.7072 832.947 583.78534L832.947 578.0041L834.08765 578.0041Z" fill-rule="nonzero"/><path fill="#000000" d="M752.4844 857.7L752.4844 849.10626L758.28125 849.10626L758.28125 850.1219L753.625 850.1219L753.625 852.77814L757.65625 852.77814L757.65625 853.79376L753.625 853.79376L753.625 857.7L752.4844 857.7ZM764.5469 856.6844L764.5469 857.7L758.8594 857.7Q758.8594 857.325 758.9844 856.96564Q759.2031 856.3875 759.6719 855.825Q760.15625 855.2625 761.0625 854.52814Q762.46875 853.3719 762.9531 852.7Q763.4531 852.02814 763.4531 851.4344Q763.4531 850.8094 763.0 850.3875Q762.5469 849.95 761.8281 849.95Q761.0625 849.95 760.6094 850.40314Q760.15625 850.85626 760.1406 851.66876L759.0625 851.5594Q759.1719 850.34064 759.8906 849.71564Q760.625 849.075 761.8594 849.075Q763.09375 849.075 763.8125 849.7625Q764.53125 850.45 764.53125 851.46564Q764.53125 851.98126 764.3125 852.48126Q764.1094 852.96564 763.6094 853.52814Q763.125 854.075 762.0 855.02814Q761.0469 855.825 760.7656 856.1219Q760.5 856.40314 760.3281 856.6844L764.5469 856.6844ZM771.3125 860.23126Q770.4375 859.1219 769.8281 857.65314Q769.2344 856.16876 769.2344 854.59064Q769.2344 853.2 769.6719 851.91876Q770.2031 850.4344 771.3125 848.96564L772.0625 848.96564Q771.3594 850.1844 771.125 850.7Q770.7656 851.5125 770.5625 852.3875Q770.3125 853.48126 770.3125 854.59064Q770.3125 857.41876 772.0625 860.23126L771.3125 860.23126ZM773.46875 857.7L773.46875 849.10626L774.59375 849.10626L774.59375 852.6375L779.0625 852.6375L779.0625 849.10626L780.2031 849.10626L780.2031 857.7L779.0625 857.7L779.0625 853.65314L774.59375 853.65314L774.59375 857.7L773.46875 857.7ZM781.7344 857.7L781.7344 856.84064L785.7031 852.29376Q785.0156 852.325 784.5 852.325L781.96875 852.325L781.96875 851.48126L787.0625 851.48126L787.0625 852.16876L783.6875 856.1219L783.03125 856.84064Q783.75 856.79376 784.3594 856.79376L787.25 856.79376L787.25 857.7L781.7344 857.7ZM787.9844 860.23126L787.2344 860.23126Q788.9844 857.41876 788.9844 854.59064Q788.9844 853.4969 788.7344 852.40314Q788.53125 851.52814 788.1719 850.71564Q787.9375 850.2 787.2344 848.96564L787.9844 848.96564Q789.0781 850.4344 789.6094 851.91876Q790.0625 853.2 790.0625 854.59064Q790.0625 856.16876 789.4531 857.65314Q788.84375 859.1219 787.9844 860.23126Z" fill-rule="nonzero"/><path fill="#000000" d="M56.30001 482.61563L47.70626 482.61563L47.70626 476.81876L48.721886 476.81876L48.721886 481.475L51.378136 481.475L51.378136 477.44376L52.39376 477.44376L52.39376 481.475L56.30001 481.475L56.30001 482.61563ZM56.30001 472.13126L56.30001 473.17813L49.58126 473.17813Q49.940636 473.56876 50.315636 474.19376Q50.67501 474.80313 50.846886 475.2875L49.83126 475.2875Q49.409386 474.4125 48.83126 473.75626Q48.23751 473.08438 47.67501 472.80313L47.67501 472.13126L56.30001 472.13126ZM58.83126 463.7875Q57.721886 464.6625 56.253136 465.27188Q54.76876 465.86563 53.190636 465.86563Q51.80001 465.86563 50.51876 465.42813Q49.034386 464.89688 47.565636 463.7875L47.565636 463.0375Q48.784386 463.74063 49.30001 463.975Q50.11251 464.33438 50.98751 464.5375Q52.08126 464.7875 53.190636 464.7875Q56.01876 464.7875 58.83126 463.0375L58.83126 463.7875ZM56.30001 461.63126L47.70626 461.63126L47.70626 460.50626L51.23751 460.50626L51.23751 456.0375L47.70626 456.0375L47.70626 454.89688L56.30001 454.89688L56.30001 456.0375L52.253136 456.0375L52.253136 460.50626L56.30001 460.50626L56.30001 461.63126ZM56.30001 453.36563L55.440636 453.36563L50.89376 449.39688Q50.92501 450.08438 50.92501 450.6L50.92501 453.13126L50.08126 453.13126L50.08126 448.0375L50.76876 448.0375L54.721886 451.4125L55.440636 452.06876Q55.39376 451.35 55.39376 450.74063L55.39376 447.85L56.30001 447.85L56.30001 453.36563ZM58.83126 447.11563L58.83126 447.86563Q56.01876 446.11563 53.190636 446.11563Q52.096886 446.11563 51.003136 446.36563Q50.128136 446.56876 49.315636 446.92813Q48.80001 447.1625 47.565636 447.86563L47.565636 447.11563Q49.034386 446.02188 50.51876 445.49063Q51.80001 445.0375 53.190636 445.0375Q54.76876 445.0375 56.253136 445.64688Q57.721886 446.25626 58.83126 447.11563Z" fill-rule="nonzero"/><path fill="#000000" d="M90.34688 811.6844L90.34688 812.7L84.65938 812.7Q84.65938 812.325 84.78438 811.96564Q85.00313 811.3875 85.47188 810.825Q85.95625 810.2625 86.8625 809.52814Q88.26875 808.3719 88.75313 807.7Q89.25313 807.02814 89.25313 806.4344Q89.25313 805.8094 88.8 805.3875Q88.34688 804.95 87.62813 804.95Q86.8625 804.95 86.40938 805.40314Q85.95625 805.85626 85.94063 806.66876L84.8625 806.5594Q84.97188 805.34064 85.69063 804.71564Q86.425 804.075 87.65938 804.075Q88.89375 804.075 89.6125 804.7625Q90.33125 805.45 90.33125 806.46564Q90.33125 806.98126 90.1125 807.48126Q89.90938 807.96564 89.40938 808.52814Q88.925 809.075 87.8 810.02814Q86.84688 810.825 86.56563 811.1219Q86.3 811.40314 86.12813 811.6844L90.34688 811.6844ZM91.8 808.46564Q91.8 806.9344 92.1125 806.0125Q92.425 805.075 93.03438 804.575Q93.65938 804.075 94.59688 804.075Q95.28438 804.075 95.8 804.35626Q96.33125 804.6375 96.675 805.16876Q97.01875 805.6844 97.20625 806.4344Q97.39375 807.1844 97.39375 808.46564Q97.39375 809.98126 97.08125 810.90314Q96.78438 811.825 96.15938 812.34064Q95.55 812.84064 94.59688 812.84064Q93.3625 812.84064 92.64375 811.95Q91.8 810.8875 91.8 808.46564ZM92.87813 808.46564Q92.87813 810.575 93.37813 811.27814Q93.87813 811.98126 94.59688 811.98126Q95.33125 811.98126 95.81563 811.27814Q96.31563 810.575 96.31563 808.46564Q96.31563 806.34064 95.81563 805.65314Q95.33125 804.95 94.58125 804.95Q93.8625 804.95 93.425 805.5594Q92.87813 806.34064 92.87813 808.46564ZM98.8 808.46564Q98.8 806.9344 99.1125 806.0125Q99.425 805.075 100.03438 804.575Q100.65938 804.075 101.59688 804.075Q102.28438 804.075 102.8 804.35626Q103.33125 804.6375 103.675 805.16876Q104.01875 805.6844 104.20625 806.4344Q104.39375 807.1844 104.39375 808.46564Q104.39375 809.98126 104.08125 810.90314Q103.78438 811.825 103.15938 812.34064Q102.55 812.84064 101.59688 812.84064Q100.3625 812.84064 99.64375 811.95Q98.8 810.8875 98.8 808.46564ZM99.87813 808.46564Q99.87813 810.575 100.37813 811.27814Q100.87813 811.98126 101.59688 811.98126Q102.33125 811.98126 102.81563 811.27814Q103.31563 810.575 103.31563 808.46564Q103.31563 806.34064 102.81563 805.65314Q102.33125 804.95 101.58125 804.95Q100.8625 804.95 100.425 805.5594Q99.87813 806.34064 99.87813 808.46564Z" fill-rule="nonzero"/><path fill="#000000" d="M88.175 637.15L88.175 635.0875L84.45625 635.0875L84.45625 634.1188L88.37813 628.5563L89.2375 628.5563L89.2375 634.1188L90.39375 634.1188L90.39375 635.0875L89.2375 635.0875L89.2375 637.15L88.175 637.15ZM88.175 634.1188L88.175 630.2594L85.4875 634.1188L88.175 634.1188ZM91.8 632.91565Q91.8 631.3844 92.1125 630.4625Q92.425 629.525 93.03438 629.025Q93.65938 628.525 94.59688 628.525Q95.28438 628.525 95.8 628.8063Q96.33125 629.0875 96.675 629.6188Q97.01875 630.1344 97.20625 630.8844Q97.39375 631.6344 97.39375 632.91565Q97.39375 634.4313 97.08125 635.35315Q96.78438 636.275 96.15938 636.79065Q95.55 637.29065 94.59688 637.29065Q93.3625 637.29065 92.64375 636.4Q91.8 635.3375 91.8 632.91565ZM92.87813 632.91565Q92.87813 635.025 93.37813 635.72815Q93.87813 636.4313 94.59688 636.4313Q95.33125 636.4313 95.81563 635.72815Q96.31563 635.025 96.31563 632.91565Q96.31563 630.79065 95.81563 630.10315Q95.33125 629.4 94.58125 629.4Q93.8625 629.4 93.425 630.0094Q92.87813 630.79065 92.87813 632.91565ZM98.8 632.91565Q98.8 631.3844 99.1125 630.4625Q99.425 629.525 100.03438 629.025Q100.65938 628.525 101.59688 628.525Q102.28438 628.525 102.8 628.8063Q103.33125 629.0875 103.675 629.6188Q104.01875 630.1344 104.20625 630.8844Q104.39375 631.6344 104.39375 632.91565Q104.39375 634.4313 104.08125 635.35315Q103.78438 636.275 103.15938 636.79065Q102.55 637.29065 101.59688 637.29065Q100.3625 637.29065 99.64375 636.4Q98.8 635.3375 98.8 632.91565ZM99.87813 632.91565Q99.87813 635.025 100.37813 635.72815Q100.87813 636.4313 101.59688 636.4313Q102.33125 636.4313 102.81563 635.72815Q103.31563 635.025 103.31563 632.91565Q103.31563 630.79065 102.81563 630.10315Q102.33125 629.4 101.58125 629.4Q100.8625 629.4 100.425 630.0094Q99.87813 630.79065 99.87813 632.91565Z" fill-rule="nonzero"/><path fill="#000000" d="M90.26875 455.11563L89.22188 455.19376Q89.08125 454.56876 88.83125 454.2875Q88.39375 453.83438 87.76875 453.83438Q87.26875 453.83438 86.87813 454.11563Q86.39375 454.49063 86.09688 455.19376Q85.81563 455.88126 85.8 457.1625Q86.175 456.58438 86.72188 456.30313Q87.28438 456.02188 87.89375 456.02188Q88.94063 456.02188 89.675 456.80313Q90.425 457.58438 90.425 458.80313Q90.425 459.61563 90.06563 460.31876Q89.72188 461.00626 89.1125 461.38126Q88.50313 461.74063 87.7375 461.74063Q86.40938 461.74063 85.58125 460.77188Q84.75313 459.80313 84.75313 457.58438Q84.75313 455.08438 85.675 453.95938Q86.47188 452.975 87.83125 452.975Q88.84688 452.975 89.4875 453.55313Q90.14375 454.11563 90.26875 455.11563ZM85.97188 458.81876Q85.97188 459.36563 86.19063 459.86563Q86.425 460.35 86.83125 460.61563Q87.25313 460.88126 87.72188 460.88126Q88.37813 460.88126 88.8625 460.35Q89.34688 459.80313 89.34688 458.88126Q89.34688 457.99063 88.8625 457.475Q88.39375 456.95938 87.675 456.95938Q86.95625 456.95938 86.45625 457.475Q85.97188 457.99063 85.97188 458.81876ZM91.8 457.36563Q91.8 455.83438 92.1125 454.9125Q92.425 453.975 93.03438 453.475Q93.65938 452.975 94.59688 452.975Q95.28438 452.975 95.8 453.25626Q96.33125 453.5375 96.675 454.06876Q97.01875 454.58438 97.20625 455.33438Q97.39375 456.08438 97.39375 457.36563Q97.39375 458.88126 97.08125 459.80313Q96.78438 460.725 96.15938 461.24063Q95.55 461.74063 94.59688 461.74063Q93.3625 461.74063 92.64375 460.85Q91.8 459.7875 91.8 457.36563ZM92.87813 457.36563Q92.87813 459.475 93.37813 460.17813Q93.87813 460.88126 94.59688 460.88126Q95.33125 460.88126 95.81563 460.17813Q96.31563 459.475 96.31563 457.36563Q96.31563 455.24063 95.81563 454.55313Q95.33125 453.85 94.58125 453.85Q93.8625 453.85 93.425 454.45938Q92.87813 455.24063 92.87813 457.36563ZM98.8 457.36563Q98.8 455.83438 99.1125 454.9125Q99.425 453.975 100.03438 453.475Q100.65938 452.975 101.59688 452.975Q102.28438 452.975 102.8 453.25626Q103.33125 453.5375 103.675 454.06876Q104.01875 454.58438 104.20625 455.33438Q104.39375 456.08438 104.39375 457.36563Q104.39375 458.88126 104.08125 459.80313Q103.78438 460.725 103.15938 461.24063Q102.55 461.74063 101.59688 461.74063Q100.3625 461.74063 99.64375 460.85Q98.8 459.7875 98.8 457.36563ZM99.87813 457.36563Q99.87813 459.475 100.37813 460.17813Q100.87813 460.88126 101.59688 460.88126Q102.33125 460.88126 102.81563 460.17813Q103.31563 459.475 103.31563 457.36563Q103.31563 455.24063 102.81563 454.55313Q102.33125 453.85 101.58125 453.85Q100.8625 453.85 100.425 454.45938Q99.87813 455.24063 99.87813 457.36563Z" fill-rule="nonzero"/><path fill="#000000" d="M86.425 281.39374Q85.76875 281.14374 85.44063 280.70624Q85.12813 280.2531 85.12813 279.64374Q85.12813 278.70624 85.8 278.0656Q86.4875 277.425 87.59688 277.425Q88.72188 277.425 89.40938 278.08124Q90.09688 278.7375 90.09688 279.675Q90.09688 280.26874 89.78438 280.70624Q89.47188 281.14374 88.83125 281.39374Q89.62813 281.64374 90.03438 282.22186Q90.44063 282.8 90.44063 283.59686Q90.44063 284.6906 89.65938 285.4406Q88.89375 286.1906 87.6125 286.1906Q86.34688 286.1906 85.56563 285.4406Q84.78438 284.6906 84.78438 283.5656Q84.78438 282.72186 85.20625 282.15936Q85.64375 281.59686 86.425 281.39374ZM86.20625 279.59686Q86.20625 280.20624 86.59688 280.59686Q87.00313 280.9875 87.62813 280.9875Q88.2375 280.9875 88.62813 280.6125Q89.01875 280.22186 89.01875 279.65936Q89.01875 279.08124 88.6125 278.6906Q88.20625 278.28436 87.6125 278.28436Q87.00313 278.28436 86.59688 278.675Q86.20625 279.0656 86.20625 279.59686ZM85.87813 283.5656Q85.87813 284.01874 86.08125 284.4406Q86.3 284.8625 86.72188 285.09686Q87.14375 285.33124 87.62813 285.33124Q88.37813 285.33124 88.8625 284.84686Q89.3625 284.3625 89.3625 283.6125Q89.3625 282.84686 88.8625 282.34686Q88.3625 281.84686 87.59688 281.84686Q86.84688 281.84686 86.3625 282.34686Q85.87813 282.83124 85.87813 283.5656ZM91.8 281.8156Q91.8 280.28436 92.1125 279.3625Q92.425 278.425 93.03438 277.925Q93.65938 277.425 94.59688 277.425Q95.28438 277.425 95.8 277.70624Q96.33125 277.9875 96.675 278.51874Q97.01875 279.03436 97.20625 279.78436Q97.39375 280.53436 97.39375 281.8156Q97.39375 283.33124 97.08125 284.2531Q96.78438 285.175 96.15938 285.6906Q95.55 286.1906 94.59688 286.1906Q93.3625 286.1906 92.64375 285.3Q91.8 284.2375 91.8 281.8156ZM92.87813 281.8156Q92.87813 283.925 93.37813 284.6281Q93.87813 285.33124 94.59688 285.33124Q95.33125 285.33124 95.81563 284.6281Q96.31563 283.925 96.31563 281.8156Q96.31563 279.6906 95.81563 279.0031Q95.33125 278.3 94.58125 278.3Q93.8625 278.3 93.425 278.90936Q92.87813 279.6906 92.87813 281.8156ZM98.8 281.8156Q98.8 280.28436 99.1125 279.3625Q99.425 278.425 100.03438 277.925Q100.65938 277.425 101.59688 277.425Q102.28438 277.425 102.8 277.70624Q103.33125 277.9875 103.675 278.51874Q104.01875 279.03436 104.20625 279.78436Q104.39375 280.53436 104.39375 281.8156Q104.39375 283.33124 104.08125 284.2531Q103.78438 285.175 103.15938 285.6906Q102.55 286.1906 101.59688 286.1906Q100.3625 286.1906 99.64375 285.3Q98.8 284.2375 98.8 281.8156ZM99.87813 281.8156Q99.87813 283.925 100.37813 284.6281Q100.87813 285.33124 101.59688 285.33124Q102.33125 285.33124 102.81563 284.6281Q103.31563 283.925 103.31563 281.8156Q103.31563 279.6906 102.81563 279.0031Q102.33125 278.3 101.58125 278.3Q100.8625 278.3 100.425 278.90936Q99.87813 279.6906 99.87813 281.8156Z" fill-rule="nonzero"/><path fill="#000000" d="M81.76875 110.5L80.72188 110.5L80.72188 103.78125Q80.33125 104.140625 79.70625 104.515625Q79.09688 104.875 78.6125 105.046875L78.6125 104.03125Q79.4875 103.609375 80.14375 103.03125Q80.81563 102.4375 81.09688 101.875L81.76875 101.875L81.76875 110.5ZM84.8 106.265625Q84.8 104.734375 85.1125 103.8125Q85.425 102.875 86.03438 102.375Q86.65938 101.875 87.59688 101.875Q88.28438 101.875 88.8 102.15625Q89.33125 102.4375 89.675 102.96875Q90.01875 103.484375 90.20625 104.234375Q90.39375 104.984375 90.39375 106.265625Q90.39375 107.78125 90.08125 108.703125Q89.78438 109.625 89.15938 110.140625Q88.55 110.640625 87.59688 110.640625Q86.3625 110.640625 85.64375 109.75Q84.8 108.6875 84.8 106.265625ZM85.87813 106.265625Q85.87813 108.375 86.37813 109.078125Q86.87813 109.78125 87.59688 109.78125Q88.33125 109.78125 88.81563 109.078125Q89.31563 108.375 89.31563 106.265625Q89.31563 104.140625 88.81563 103.453125Q88.33125 102.75 87.58125 102.75Q86.8625 102.75 86.425 103.359375Q85.87813 104.140625 85.87813 106.265625ZM91.8 106.265625Q91.8 104.734375 92.1125 103.8125Q92.425 102.875 93.03438 102.375Q93.65938 101.875 94.59688 101.875Q95.28438 101.875 95.8 102.15625Q96.33125 102.4375 96.675 102.96875Q97.01875 103.484375 97.20625 104.234375Q97.39375 104.984375 97.39375 106.265625Q97.39375 107.78125 97.08125 108.703125Q96.78438 109.625 96.15938 110.140625Q95.55 110.640625 94.59688 110.640625Q93.3625 110.640625 92.64375 109.75Q91.8 108.6875 91.8 106.265625ZM92.87813 106.265625Q92.87813 108.375 93.37813 109.078125Q93.87813 109.78125 94.59688 109.78125Q95.33125 109.78125 95.81563 109.078125Q96.31563 108.375 96.31563 106.265625Q96.31563 104.140625 95.81563 103.453125Q95.33125 102.75 94.58125 102.75Q93.8625 102.75 93.425 103.359375Q92.87813 104.140625 92.87813 106.265625ZM98.8 106.265625Q98.8 104.734375 99.1125 103.8125Q99.425 102.875 100.03438 102.375Q100.65938 101.875 101.59688 101.875Q102.28438 101.875 102.8 102.15625Q103.33125 102.4375 103.675 102.96875Q104.01875 103.484375 104.20625 104.234375Q104.39375 104.984375 104.39375 106.265625Q104.39375 107.78125 104.08125 108.703125Q103.78438 109.625 103.15938 110.140625Q102.55 110.640625 101.59688 110.640625Q100.3625 110.640625 99.64375 109.75Q98.8 108.6875 98.8 106.265625ZM99.87813 106.265625Q99.87813 108.375 100.37813 109.078125Q100.87813 109.78125 101.59688 109.78125Q102.33125 109.78125 102.81563 109.078125Q103.31563 108.375 103.31563 106.265625Q103.31563 104.140625 102.81563 103.453125Q102.33125 102.75 101.58125 102.75Q100.8625 102.75 100.425 103.359375Q99.87813 104.140625 99.87813 106.265625Z" fill-rule="nonzero"/><path fill="#000000" d="M1422.325 821.04376Q1421.6687 820.79376 1421.3406 820.35626Q1421.0281 819.90314 1421.0281 819.29376Q1421.0281 818.35626 1421.7 817.71564Q1422.3875 817.075 1423.4968 817.075Q1424.6218 817.075 1425.3093 817.73126Q1425.9968 818.3875 1425.9968 819.325Q1425.9968 819.91876 1425.6843 820.35626Q1425.3718 820.79376 1424.7312 821.04376Q1425.5281 821.29376 1425.9343 821.8719Q1426.3406 822.45 1426.3406 823.2469Q1426.3406 824.34064 1425.5593 825.09064Q1424.7937 825.84064 1423.5125 825.84064Q1422.2468 825.84064 1421.4656 825.09064Q1420.6843 824.34064 1420.6843 823.21564Q1420.6843 822.3719 1421.1062 821.8094Q1421.5437 821.2469 1422.325 821.04376ZM1422.1062 819.2469Q1422.1062 819.85626 1422.4968 820.2469Q1422.9031 820.6375 1423.5281 820.6375Q1424.1375 820.6375 1424.5281 820.2625Q1424.9187 819.8719 1424.9187 819.3094Q1424.9187 818.73126 1424.5125 818.34064Q1424.1062 817.9344 1423.5125 817.9344Q1422.9031 817.9344 1422.4968 818.325Q1422.1062 818.71564 1422.1062 819.2469ZM1421.7781 823.21564Q1421.7781 823.66876 1421.9812 824.09064Q1422.2 824.5125 1422.6218 824.7469Q1423.0437 824.98126 1423.5281 824.98126Q1424.2781 824.98126 1424.7625 824.4969Q1425.2625 824.0125 1425.2625 823.2625Q1425.2625 822.4969 1424.7625 821.9969Q1424.2625 821.4969 1423.4968 821.4969Q1422.7468 821.4969 1422.2625 821.9969Q1421.7781 822.48126 1421.7781 823.21564ZM1427.7 821.46564Q1427.7 819.9344 1428.0125 819.0125Q1428.325 818.075 1428.9343 817.575Q1429.5593 817.075 1430.4968 817.075Q1431.1843 817.075 1431.7 817.35626Q1432.2312 817.6375 1432.575 818.16876Q1432.9187 818.6844 1433.1062 819.4344Q1433.2937 820.1844 1433.2937 821.46564Q1433.2937 822.98126 1432.9812 823.90314Q1432.6843 824.825 1432.0593 825.34064Q1431.45 825.84064 1430.4968 825.84064Q1429.2625 825.84064 1428.5437 824.95Q1427.7 823.8875 1427.7 821.46564ZM1428.7781 821.46564Q1428.7781 823.575 1429.2781 824.27814Q1429.7781 824.98126 1430.4968 824.98126Q1431.2312 824.98126 1431.7156 824.27814Q1432.2156 823.575 1432.2156 821.46564Q1432.2156 819.34064 1431.7156 818.65314Q1431.2312 817.95 1430.4812 817.95Q1429.7625 817.95 1429.325 818.5594Q1428.7781 819.34064 1428.7781 821.46564ZM1434.7 821.46564Q1434.7 819.9344 1435.0125 819.0125Q1435.325 818.075 1435.9343 817.575Q1436.5593 817.075 1437.4968 817.075Q1438.1843 817.075 1438.7 817.35626Q1439.2312 817.6375 1439.575 818.16876Q1439.9187 818.6844 1440.1062 819.4344Q1440.2937 820.1844 1440.2937 821.46564Q1440.2937 822.98126 1439.9812 823.90314Q1439.6843 824.825 1439.0593 825.34064Q1438.45 825.84064 1437.4968 825.84064Q1436.2625 825.84064 1435.5437 824.95Q1434.7 823.8875 1434.7 821.46564ZM1435.7781 821.46564Q1435.7781 823.575 1436.2781 824.27814Q1436.7781 824.98126 1437.4968 824.98126Q1438.2312 824.98126 1438.7156 824.27814Q1439.2156 823.575 1439.2156 821.46564Q1439.2156 819.34064 1438.7156 818.65314Q1438.2312 817.95 1437.4812 817.95Q1436.7625 817.95 1436.325 818.5594Q1435.7781 819.34064 1435.7781 821.46564Z" fill-rule="nonzero"/><path fill="#000000" d="M1201.2688 825.7L1200.2219 825.7L1200.2219 818.98126Q1199.8313 819.34064 1199.2063 819.71564Q1198.5969 820.075 1198.1125 820.2469L1198.1125 819.23126Q1198.9875 818.8094 1199.6438 818.23126Q1200.3157 817.6375 1200.5969 817.075L1201.2688 817.075L1201.2688 825.7ZM1204.3 821.46564Q1204.3 819.9344 1204.6125 819.0125Q1204.925 818.075 1205.5344 817.575Q1206.1594 817.075 1207.0969 817.075Q1207.7844 817.075 1208.3 817.35626Q1208.8313 817.6375 1209.175 818.16876Q1209.5188 818.6844 1209.7063 819.4344Q1209.8938 820.1844 1209.8938 821.46564Q1209.8938 822.98126 1209.5813 823.90314Q1209.2844 824.825 1208.6594 825.34064Q1208.05 825.84064 1207.0969 825.84064Q1205.8625 825.84064 1205.1438 824.95Q1204.3 823.8875 1204.3 821.46564ZM1205.3782 821.46564Q1205.3782 823.575 1205.8782 824.27814Q1206.3782 824.98126 1207.0969 824.98126Q1207.8313 824.98126 1208.3157 824.27814Q1208.8157 823.575 1208.8157 821.46564Q1208.8157 819.34064 1208.3157 818.65314Q1207.8313 817.95 1207.0813 817.95Q1206.3625 817.95 1205.925 818.5594Q1205.3782 819.34064 1205.3782 821.46564ZM1211.3 821.46564Q1211.3 819.9344 1211.6125 819.0125Q1211.925 818.075 1212.5344 817.575Q1213.1594 817.075 1214.0969 817.075Q1214.7844 817.075 1215.3 817.35626Q1215.8313 817.6375 1216.175 818.16876Q1216.5188 818.6844 1216.7063 819.4344Q1216.8938 820.1844 1216.8938 821.46564Q1216.8938 822.98126 1216.5813 823.90314Q1216.2844 824.825 1215.6594 825.34064Q1215.05 825.84064 1214.0969 825.84064Q1212.8625 825.84064 1212.1438 824.95Q1211.3 823.8875 1211.3 821.46564ZM1212.3782 821.46564Q1212.3782 823.575 1212.8782 824.27814Q1213.3782 824.98126 1214.0969 824.98126Q1214.8313 824.98126 1215.3157 824.27814Q1215.8157 823.575 1215.8157 821.46564Q1215.8157 819.34064 1215.3157 818.65314Q1214.8313 817.95 1214.0813 817.95Q1213.3625 817.95 1212.925 818.5594Q1212.3782 819.34064 1212.3782 821.46564ZM1218.3 821.46564Q1218.3 819.9344 1218.6125 819.0125Q1218.925 818.075 1219.5344 817.575Q1220.1594 817.075 1221.0969 817.075Q1221.7844 817.075 1222.3 817.35626Q1222.8313 817.6375 1223.175 818.16876Q1223.5188 818.6844 1223.7063 819.4344Q1223.8938 820.1844 1223.8938 821.46564Q1223.8938 822.98126 1223.5813 823.90314Q1223.2844 824.825 1222.6594 825.34064Q1222.05 825.84064 1221.0969 825.84064Q1219.8625 825.84064 1219.1438 824.95Q1218.3 823.8875 1218.3 821.46564ZM1219.3782 821.46564Q1219.3782 823.575 1219.8782 824.27814Q1220.3782 824.98126 1221.0969 824.98126Q1221.8313 824.98126 1222.3157 824.27814Q1222.8157 823.575 1222.8157 821.46564Q1222.8157 819.34064 1222.3157 818.65314Q1221.8313 817.95 1221.0813 817.95Q1220.3625 817.95 1219.925 818.5594Q1219.3782 819.34064 1219.3782 821.46564Z" fill-rule="nonzero"/><path fill="#000000" d="M981.3688 825.7L980.3219 825.7L980.3219 818.98126Q979.9313 819.34064 979.3063 819.71564Q978.6969 820.075 978.2125 820.2469L978.2125 819.23126Q979.0875 818.8094 979.7438 818.23126Q980.41565 817.6375 980.6969 817.075L981.3688 817.075L981.3688 825.7ZM989.9469 824.6844L989.9469 825.7L984.2594 825.7Q984.2594 825.325 984.3844 824.96564Q984.60315 824.3875 985.0719 823.825Q985.5563 823.2625 986.4625 822.52814Q987.8688 821.3719 988.35315 820.7Q988.85315 820.02814 988.85315 819.4344Q988.85315 818.8094 988.4 818.3875Q987.9469 817.95 987.22815 817.95Q986.4625 817.95 986.0094 818.40314Q985.5563 818.85626 985.54065 819.66876L984.4625 819.5594Q984.5719 818.34064 985.29065 817.71564Q986.025 817.075 987.2594 817.075Q988.4938 817.075 989.2125 817.7625Q989.9313 818.45 989.9313 819.46564Q989.9313 819.98126 989.7125 820.48126Q989.5094 820.96564 989.0094 821.52814Q988.525 822.075 987.4 823.02814Q986.4469 823.825 986.16565 824.1219Q985.9 824.40314 985.72815 824.6844L989.9469 824.6844ZM991.4 821.46564Q991.4 819.9344 991.7125 819.0125Q992.025 818.075 992.6344 817.575Q993.2594 817.075 994.1969 817.075Q994.8844 817.075 995.4 817.35626Q995.9313 817.6375 996.275 818.16876Q996.6188 818.6844 996.8063 819.4344Q996.9938 820.1844 996.9938 821.46564Q996.9938 822.98126 996.6813 823.90314Q996.3844 824.825 995.7594 825.34064Q995.15 825.84064 994.1969 825.84064Q992.9625 825.84064 992.2438 824.95Q991.4 823.8875 991.4 821.46564ZM992.47815 821.46564Q992.47815 823.575 992.97815 824.27814Q993.47815 824.98126 994.1969 824.98126Q994.9313 824.98126 995.41565 824.27814Q995.91565 823.575 995.91565 821.46564Q995.91565 819.34064 995.41565 818.65314Q994.9313 817.95 994.1813 817.95Q993.4625 817.95 993.025 818.5594Q992.47815 819.34064 992.47815 821.46564ZM998.4 821.46564Q998.4 819.9344 998.7125 819.0125Q999.025 818.075 999.6344 817.575Q1000.2594 817.075 1001.1969 817.075Q1001.8844 817.075 1002.4 817.35626Q1002.9313 817.6375 1003.275 818.16876Q1003.6188 818.6844 1003.8063 819.4344Q1003.9938 820.1844 1003.9938 821.46564Q1003.9938 822.98126 1003.6813 823.90314Q1003.3844 824.825 1002.7594 825.34064Q1002.15 825.84064 1001.1969 825.84064Q999.9625 825.84064 999.2438 824.95Q998.4 823.8875 998.4 821.46564ZM999.47815 821.46564Q999.47815 823.575 999.97815 824.27814Q1000.47815 824.98126 1001.1969 824.98126Q1001.9313 824.98126 1002.41565 824.27814Q1002.91565 823.575 1002.91565 821.46564Q1002.91565 819.34064 1002.41565 818.65314Q1001.9313 817.95 1001.1813 817.95Q1000.4625 817.95 1000.025 818.5594Q999.47815 819.34064 999.47815 821.46564Z" fill-rule="nonzero"/><path fill="#000000" d="M761.46875 825.7L760.4219 825.7L760.4219 818.98126Q760.03125 819.34064 759.40625 819.71564Q758.7969 820.075 758.3125 820.2469L758.3125 819.23126Q759.1875 818.8094 759.84375 818.23126Q760.5156 817.6375 760.7969 817.075L761.46875 817.075L761.46875 825.7ZM767.875 825.7L767.875 823.6375L764.15625 823.6375L764.15625 822.66876L768.0781 817.10626L768.9375 817.10626L768.9375 822.66876L770.09375 822.66876L770.09375 823.6375L768.9375 823.6375L768.9375 825.7L767.875 825.7ZM767.875 822.66876L767.875 818.8094L765.1875 822.66876L767.875 822.66876ZM771.5 821.46564Q771.5 819.9344 771.8125 819.0125Q772.125 818.075 772.7344 817.575Q773.3594 817.075 774.2969 817.075Q774.9844 817.075 775.5 817.35626Q776.03125 817.6375 776.375 818.16876Q776.71875 818.6844 776.90625 819.4344Q777.09375 820.1844 777.09375 821.46564Q777.09375 822.98126 776.78125 823.90314Q776.4844 824.825 775.8594 825.34064Q775.25 825.84064 774.2969 825.84064Q773.0625 825.84064 772.34375 824.95Q771.5 823.8875 771.5 821.46564ZM772.5781 821.46564Q772.5781 823.575 773.0781 824.27814Q773.5781 824.98126 774.2969 824.98126Q775.03125 824.98126 775.5156 824.27814Q776.0156 823.575 776.0156 821.46564Q776.0156 819.34064 775.5156 818.65314Q775.03125 817.95 774.28125 817.95Q773.5625 817.95 773.125 818.5594Q772.5781 819.34064 772.5781 821.46564ZM778.5 821.46564Q778.5 819.9344 778.8125 819.0125Q779.125 818.075 779.7344 817.575Q780.3594 817.075 781.2969 817.075Q781.9844 817.075 782.5 817.35626Q783.03125 817.6375 783.375 818.16876Q783.71875 818.6844 783.90625 819.4344Q784.09375 820.1844 784.09375 821.46564Q784.09375 822.98126 783.78125 823.90314Q783.4844 824.825 782.8594 825.34064Q782.25 825.84064 781.2969 825.84064Q780.0625 825.84064 779.34375 824.95Q778.5 823.8875 778.5 821.46564ZM779.5781 821.46564Q779.5781 823.575 780.0781 824.27814Q780.5781 824.98126 781.2969 824.98126Q782.03125 824.98126 782.5156 824.27814Q783.0156 823.575 783.0156 821.46564Q783.0156 819.34064 782.5156 818.65314Q782.03125 817.95 781.28125 817.95Q780.5625 817.95 780.125 818.5594Q779.5781 819.34064 779.5781 821.46564Z" fill-rule="nonzero"/><path fill="#000000" d="M541.5687 825.7L540.52185 825.7L540.52185 818.98126Q540.1312 819.34064 539.5062 819.71564Q538.89685 820.075 538.4125 820.2469L538.4125 819.23126Q539.2875 818.8094 539.9437 818.23126Q540.6156 817.6375 540.89685 817.075L541.5687 817.075L541.5687 825.7ZM550.0687 819.21564L549.02185 819.29376Q548.8812 818.66876 548.6312 818.3875Q548.1937 817.9344 547.5687 817.9344Q547.0687 817.9344 546.6781 818.21564Q546.1937 818.59064 545.89685 819.29376Q545.6156 819.98126 545.6 821.2625Q545.975 820.6844 546.52185 820.40314Q547.08435 820.1219 547.6937 820.1219Q548.7406 820.1219 549.475 820.90314Q550.225 821.6844 550.225 822.90314Q550.225 823.71564 549.8656 824.41876Q549.52185 825.10626 548.9125 825.48126Q548.3031 825.84064 547.5375 825.84064Q546.20935 825.84064 545.3812 824.8719Q544.5531 823.90314 544.5531 821.6844Q544.5531 819.1844 545.475 818.0594Q546.27185 817.075 547.6312 817.075Q548.64685 817.075 549.2875 817.65314Q549.9437 818.21564 550.0687 819.21564ZM545.77185 822.91876Q545.77185 823.46564 545.9906 823.96564Q546.225 824.45 546.6312 824.71564Q547.0531 824.98126 547.52185 824.98126Q548.1781 824.98126 548.6625 824.45Q549.14685 823.90314 549.14685 822.98126Q549.14685 822.09064 548.6625 821.575Q548.1937 821.0594 547.475 821.0594Q546.7562 821.0594 546.2562 821.575Q545.77185 822.09064 545.77185 822.91876ZM551.6 821.46564Q551.6 819.9344 551.9125 819.0125Q552.225 818.075 552.83435 817.575Q553.45935 817.075 554.39685 817.075Q555.08435 817.075 555.6 817.35626Q556.1312 817.6375 556.475 818.16876Q556.8187 818.6844 557.0062 819.4344Q557.1937 820.1844 557.1937 821.46564Q557.1937 822.98126 556.8812 823.90314Q556.58435 824.825 555.95935 825.34064Q555.35 825.84064 554.39685 825.84064Q553.1625 825.84064 552.4437 824.95Q551.6 823.8875 551.6 821.46564ZM552.6781 821.46564Q552.6781 823.575 553.1781 824.27814Q553.6781 824.98126 554.39685 824.98126Q555.1312 824.98126 555.6156 824.27814Q556.1156 823.575 556.1156 821.46564Q556.1156 819.34064 555.6156 818.65314Q555.1312 817.95 554.3812 817.95Q553.6625 817.95 553.225 818.5594Q552.6781 819.34064 552.6781 821.46564ZM558.6 821.46564Q558.6 819.9344 558.9125 819.0125Q559.225 818.075 559.83435 817.575Q560.45935 817.075 561.39685 817.075Q562.08435 817.075 562.6 817.35626Q563.1312 817.6375 563.475 818.16876Q563.8187 818.6844 564.0062 819.4344Q564.1937 820.1844 564.1937 821.46564Q564.1937 822.98126 563.8812 823.90314Q563.58435 824.825 562.95935 825.34064Q562.35 825.84064 561.39685 825.84064Q560.1625 825.84064 559.4437 824.95Q558.6 823.8875 558.6 821.46564ZM559.6781 821.46564Q559.6781 823.575 560.1781 824.27814Q560.6781 824.98126 561.39685 824.98126Q562.1312 824.98126 562.6156 824.27814Q563.1156 823.575 563.1156 821.46564Q563.1156 819.34064 562.6156 818.65314Q562.1312 817.95 561.3812 817.95Q560.6625 817.95 560.225 818.5594Q559.6781 819.34064 559.6781 821.46564Z" fill-rule="nonzero"/><path fill="#000000" d="M321.66876 825.7L320.6219 825.7L320.6219 818.98126Q320.23126 819.34064 319.60626 819.71564Q318.9969 820.075 318.5125 820.2469L318.5125 819.23126Q319.3875 818.8094 320.04376 818.23126Q320.71564 817.6375 320.9969 817.075L321.66876 817.075L321.66876 825.7ZM326.325 821.04376Q325.66876 820.79376 325.34064 820.35626Q325.02814 819.90314 325.02814 819.29376Q325.02814 818.35626 325.7 817.71564Q326.3875 817.075 327.4969 817.075Q328.6219 817.075 329.3094 817.73126Q329.9969 818.3875 329.9969 819.325Q329.9969 819.91876 329.6844 820.35626Q329.3719 820.79376 328.73126 821.04376Q329.52814 821.29376 329.9344 821.8719Q330.34064 822.45 330.34064 823.2469Q330.34064 824.34064 329.5594 825.09064Q328.79376 825.84064 327.5125 825.84064Q326.2469 825.84064 325.46564 825.09064Q324.6844 824.34064 324.6844 823.21564Q324.6844 822.3719 325.10626 821.8094Q325.54376 821.2469 326.325 821.04376ZM326.10626 819.2469Q326.10626 819.85626 326.4969 820.2469Q326.90314 820.6375 327.52814 820.6375Q328.1375 820.6375 328.52814 820.2625Q328.91876 819.8719 328.91876 819.3094Q328.91876 818.73126 328.5125 818.34064Q328.10626 817.9344 327.5125 817.9344Q326.90314 817.9344 326.4969 818.325Q326.10626 818.71564 326.10626 819.2469ZM325.77814 823.21564Q325.77814 823.66876 325.98126 824.09064Q326.2 824.5125 326.6219 824.7469Q327.04376 824.98126 327.52814 824.98126Q328.27814 824.98126 328.7625 824.4969Q329.2625 824.0125 329.2625 823.2625Q329.2625 822.4969 328.7625 821.9969Q328.2625 821.4969 327.4969 821.4969Q326.7469 821.4969 326.2625 821.9969Q325.77814 822.48126 325.77814 823.21564ZM331.7 821.46564Q331.7 819.9344 332.0125 819.0125Q332.325 818.075 332.9344 817.575Q333.5594 817.075 334.4969 817.075Q335.1844 817.075 335.7 817.35626Q336.23126 817.6375 336.575 818.16876Q336.91876 818.6844 337.10626 819.4344Q337.29376 820.1844 337.29376 821.46564Q337.29376 822.98126 336.98126 823.90314Q336.6844 824.825 336.0594 825.34064Q335.45 825.84064 334.4969 825.84064Q333.2625 825.84064 332.54376 824.95Q331.7 823.8875 331.7 821.46564ZM332.77814 821.46564Q332.77814 823.575 333.27814 824.27814Q333.77814 824.98126 334.4969 824.98126Q335.23126 824.98126 335.71564 824.27814Q336.21564 823.575 336.21564 821.46564Q336.21564 819.34064 335.71564 818.65314Q335.23126 817.95 334.48126 817.95Q333.7625 817.95 333.325 818.5594Q332.77814 819.34064 332.77814 821.46564ZM338.7 821.46564Q338.7 819.9344 339.0125 819.0125Q339.325 818.075 339.9344 817.575Q340.5594 817.075 341.4969 817.075Q342.1844 817.075 342.7 817.35626Q343.23126 817.6375 343.575 818.16876Q343.91876 818.6844 344.10626 819.4344Q344.29376 820.1844 344.29376 821.46564Q344.29376 822.98126 343.98126 823.90314Q343.6844 824.825 343.0594 825.34064Q342.45 825.84064 341.4969 825.84064Q340.2625 825.84064 339.54376 824.95Q338.7 823.8875 338.7 821.46564ZM339.77814 821.46564Q339.77814 823.575 340.27814 824.27814Q340.77814 824.98126 341.4969 824.98126Q342.23126 824.98126 342.71564 824.27814Q343.21564 823.575 343.21564 821.46564Q343.21564 819.34064 342.71564 818.65314Q342.23126 817.95 341.48126 817.95Q340.7625 817.95 340.325 818.5594Q339.77814 819.34064 339.77814 821.46564Z" fill-rule="nonzero"/><path fill="#000000" d="M103.34688 824.6844L103.34688 825.7L97.65938 825.7Q97.65938 825.325 97.78438 824.96564Q98.00313 824.3875 98.47188 823.825Q98.95625 823.2625 99.8625 822.52814Q101.26875 821.3719 101.75313 820.7Q102.25313 820.02814 102.25313 819.4344Q102.25313 818.8094 101.8 818.3875Q101.34688 817.95 100.62813 817.95Q99.8625 817.95 99.40938 818.40314Q98.95625 818.85626 98.94063 819.66876L97.8625 819.5594Q97.97188 818.34064 98.69063 817.71564Q99.425 817.075 100.65938 817.075Q101.89375 817.075 102.6125 817.7625Q103.33125 818.45 103.33125 819.46564Q103.33125 819.98126 103.1125 820.48126Q102.90938 820.96564 102.40938 821.52814Q101.925 822.075 100.8 823.02814Q99.84688 823.825 99.56563 824.1219Q99.3 824.40314 99.12813 824.6844L103.34688 824.6844ZM104.8 821.46564Q104.8 819.9344 105.1125 819.0125Q105.425 818.075 106.03438 817.575Q106.65938 817.075 107.59688 817.075Q108.28438 817.075 108.8 817.35626Q109.33125 817.6375 109.675 818.16876Q110.01875 818.6844 110.20625 819.4344Q110.39375 820.1844 110.39375 821.46564Q110.39375 822.98126 110.08125 823.90314Q109.78438 824.825 109.15938 825.34064Q108.55 825.84064 107.59688 825.84064Q106.3625 825.84064 105.64375 824.95Q104.8 823.8875 104.8 821.46564ZM105.87813 821.46564Q105.87813 823.575 106.37813 824.27814Q106.87813 824.98126 107.59688 824.98126Q108.33125 824.98126 108.81563 824.27814Q109.31563 823.575 109.31563 821.46564Q109.31563 819.34064 108.81563 818.65314Q108.33125 817.95 107.58125 817.95Q106.8625 817.95 106.425 818.5594Q105.87813 819.34064 105.87813 821.46564ZM111.8 821.46564Q111.8 819.9344 112.1125 819.0125Q112.425 818.075 113.03438 817.575Q113.65938 817.075 114.59688 817.075Q115.28438 817.075 115.8 817.35626Q116.33125 817.6375 116.675 818.16876Q117.01875 818.6844 117.20625 819.4344Q117.39375 820.1844 117.39375 821.46564Q117.39375 822.98126 117.08125 823.90314Q116.78438 824.825 116.15938 825.34064Q115.55 825.84064 114.59688 825.84064Q113.3625 825.84064 112.64375 824.95Q111.8 823.8875 111.8 821.46564ZM112.87813 821.46564Q112.87813 823.575 113.37813 824.27814Q113.87813 824.98126 114.59688 824.98126Q115.33125 824.98126 115.81563 824.27814Q116.31563 823.575 116.31563 821.46564Q116.31563 819.34064 115.81563 818.65314Q115.33125 817.95 114.58125 817.95Q113.8625 817.95 113.425 818.5594Q112.87813 819.34064 112.87813 821.46564ZM118.8 821.46564Q118.8 819.9344 119.1125 819.0125Q119.425 818.075 120.03438 817.575Q120.65938 817.075 121.59688 817.075Q122.28438 817.075 122.8 817.35626Q123.33125 817.6375 123.675 818.16876Q124.01875 818.6844 124.20625 819.4344Q124.39375 820.1844 124.39375 821.46564Q124.39375 822.98126 124.08125 823.90314Q123.78438 824.825 123.15938 825.34064Q122.55 825.84064 121.59688 825.84064Q120.3625 825.84064 119.64375 824.95Q118.8 823.8875 118.8 821.46564ZM119.87813 821.46564Q119.87813 823.575 120.37813 824.27814Q120.87813 824.98126 121.59688 824.98126Q122.33125 824.98126 122.81563 824.27814Q123.31563 823.575 123.31563 821.46564Q123.31563 819.34064 122.81563 818.65314Q122.33125 817.95 121.58125 817.95Q120.8625 817.95 120.425 818.5594Q119.87813 819.34064 119.87813 821.46564Z" fill-rule="nonzero"/><path fill="#757575" d="M46.784374 64.3L46.784374 49.987503L49.64375 49.987503L53.01875 60.112503Q53.4875 61.534378 53.70625 62.237503Q53.95625 61.456253 54.471874 59.940628L57.89375 49.987503L60.440624 49.987503L60.440624 64.3L58.628124 64.3L58.628124 52.315628L54.45625 64.3L52.753124 64.3L48.6125 52.112503L48.6125 64.3L46.784374 64.3ZM70.72188 60.956253L72.53438 61.190628Q72.1125 62.768753 70.94063 63.659378Q69.78438 64.53438 67.97188 64.53438Q65.70625 64.53438 64.3625 63.143753Q63.034374 61.737503 63.034374 59.206253Q63.034374 56.581253 64.37813 55.143753Q65.72188 53.690628 67.87813 53.690628Q69.95625 53.690628 71.26875 55.112503Q72.59688 56.518753 72.59688 59.096878Q72.59688 59.253128 72.58125 59.565628L64.84688 59.565628Q64.94063 61.268753 65.81563 62.175003Q66.69063 63.081253 67.9875 63.081253Q68.95625 63.081253 69.62813 62.581253Q70.31563 62.065628 70.72188 60.956253ZM64.94063 58.112503L70.7375 58.112503Q70.62813 56.815628 70.08125 56.159378Q69.2375 55.143753 67.89375 55.143753Q66.69063 55.143753 65.8625 55.956253Q65.03438 56.753128 64.94063 58.112503ZM81.39375 63.018753Q80.40938 63.846878 79.50313 64.19063Q78.59688 64.53438 77.56563 64.53438Q75.8625 64.53438 74.94063 63.706253Q74.01875 62.862503 74.01875 61.565628Q74.01875 60.800003 74.3625 60.175003Q74.72188 59.550003 75.28438 59.175003Q75.84688 58.784378 76.55 58.581253Q77.06563 58.456253 78.1125 58.315628Q80.2375 58.065628 81.2375 57.721878Q81.25313 57.362503 81.25313 57.253128Q81.25313 56.190628 80.75313 55.737503Q80.08125 55.143753 78.75313 55.143753Q77.50313 55.143753 76.90938 55.581253Q76.33125 56.018753 76.05 57.128128L74.33125 56.893753Q74.56563 55.784378 75.09688 55.112503Q75.62813 54.425003 76.64375 54.065628Q77.65938 53.690628 79.00313 53.690628Q80.33125 53.690628 81.15938 54.003128Q81.9875 54.315628 82.37813 54.800003Q82.76875 55.268753 82.925 55.987503Q83.01875 56.440628 83.01875 57.612503L83.01875 59.956253Q83.01875 62.409378 83.12813 63.065628Q83.2375 63.706253 83.58125 64.3L81.7375 64.3Q81.47188 63.753128 81.39375 63.018753ZM81.2375 59.096878Q80.28438 59.487503 78.3625 59.753128Q77.28438 59.909378 76.83125 60.112503Q76.39375 60.300003 76.14375 60.675003Q75.89375 61.050003 75.89375 61.518753Q75.89375 62.221878 76.425 62.690628Q76.95625 63.159378 77.9875 63.159378Q79.00313 63.159378 79.78438 62.721878Q80.58125 62.268753 80.95625 61.503128Q81.2375 60.893753 81.2375 59.737503L81.2375 59.096878ZM85.6125 64.3L85.6125 53.925003L87.20625 53.925003L87.20625 55.409378Q88.34688 53.690628 90.50313 53.690628Q91.44063 53.690628 92.22188 54.034378Q93.01875 54.362503 93.40938 54.909378Q93.8 55.456253 93.95625 56.206253Q94.05 56.706253 94.05 57.925003L94.05 64.3L92.28438 64.3L92.28438 57.987503Q92.28438 56.909378 92.08125 56.378128Q91.87813 55.846878 91.34688 55.534378Q90.83125 55.221878 90.12813 55.221878Q89.00313 55.221878 88.19063 55.940628Q87.37813 56.643753 87.37813 58.628128L87.37813 64.3L85.6125 64.3ZM101.94063 64.3L101.94063 49.987503L111.59688 49.987503L111.59688 51.675003L103.83125 51.675003L103.83125 56.112503L110.55 56.112503L110.55 57.800003L103.83125 57.800003L103.83125 64.3L101.94063 64.3ZM122.3625 62.612503L122.3625 64.3L112.90938 64.3Q112.89375 63.659378 113.1125 63.081253Q113.47188 62.112503 114.26875 61.175003Q115.06563 60.237503 116.56563 59.003128Q118.90938 57.096878 119.72188 55.987503Q120.55 54.862503 120.55 53.862503Q120.55 52.815628 119.8 52.096878Q119.05 51.378128 117.84688 51.378128Q116.58125 51.378128 115.81563 52.143753Q115.05 52.909378 115.05 54.253128L113.2375 54.065628Q113.425 52.050003 114.62813 50.987503Q115.84688 49.925003 117.89375 49.925003Q119.94063 49.925003 121.14375 51.065628Q122.34688 52.206253 122.34688 53.893753Q122.34688 54.753128 121.9875 55.596878Q121.64375 56.425003 120.83125 57.346878Q120.01875 58.253128 118.12813 59.862503Q116.53438 61.190628 116.08125 61.659378Q115.64375 62.128128 115.34688 62.612503L122.3625 62.612503ZM133.50313 64.3L129.55 53.925003L131.40938 53.925003L133.64375 60.143753Q134.00313 61.143753 134.3 62.221878Q134.53438 61.409378 134.95625 60.253128L137.25313 53.925003L139.06563 53.925003L135.14375 64.3L133.50313 64.3ZM138.90938 61.206253L140.65938 60.925003Q140.8 61.971878 141.47188 62.534378Q142.14375 63.081253 143.34688 63.081253Q144.55 63.081253 145.12813 62.596878Q145.72188 62.096878 145.72188 61.440628Q145.72188 60.846878 145.20625 60.503128Q144.84688 60.268753 143.40938 59.909378Q141.47188 59.409378 140.72188 59.065628Q139.9875 58.706253 139.59688 58.081253Q139.20625 57.440628 139.20625 56.675003Q139.20625 55.987503 139.51875 55.393753Q139.84688 54.800003 140.39375 54.409378Q140.8 54.112503 141.50313 53.909378Q142.22188 53.690628 143.03438 53.690628Q144.25313 53.690628 145.175 54.050003Q146.09688 54.393753 146.53438 55.003128Q146.97188 55.596878 147.14375 56.596878L145.425 56.831253Q145.3 56.034378 144.7375 55.596878Q144.175 55.143753 143.15938 55.143753Q141.94063 55.143753 141.425 55.550003Q140.90938 55.940628 140.90938 56.471878Q140.90938 56.815628 141.12813 57.096878Q141.33125 57.378128 141.8 57.565628Q142.06563 57.659378 143.34688 58.003128Q145.22188 58.503128 145.95625 58.831253Q146.69063 59.143753 147.1125 59.753128Q147.53438 60.346878 147.53438 61.253128Q147.53438 62.128128 147.01875 62.909378Q146.50313 63.690628 145.53438 64.1125Q144.56563 64.53438 143.34688 64.53438Q141.33125 64.53438 140.26875 63.690628Q139.20625 62.846878 138.90938 61.206253ZM155.94063 64.3L155.94063 49.987503L165.59688 49.987503L165.59688 51.675003L157.83125 51.675003L157.83125 56.112503L164.55 56.112503L164.55 57.800003L157.83125 57.800003L157.83125 64.3L155.94063 64.3ZM173.75313 64.3L171.9875 64.3L171.9875 53.096878Q171.3625 53.706253 170.33125 54.315628Q169.3 54.909378 168.47188 55.221878L168.47188 53.518753Q169.95625 52.831253 171.05 51.846878Q172.15938 50.846878 172.6125 49.925003L173.75313 49.925003L173.75313 64.3ZM183.94063 60.003128L183.94063 58.237503L189.33125 58.237503L189.33125 60.003128L183.94063 60.003128ZM197.94063 64.3L197.94063 49.987503L207.59688 49.987503L207.59688 51.675003L199.83125 51.675003L199.83125 56.112503L206.55 56.112503L206.55 57.800003L199.83125 57.800003L199.83125 64.3L197.94063 64.3ZM216.72188 60.956253L218.53438 61.190628Q218.1125 62.768753 216.94063 63.659378Q215.78438 64.53438 213.97188 64.53438Q211.70625 64.53438 210.3625 63.143753Q209.03438 61.737503 209.03438 59.206253Q209.03438 56.581253 210.37813 55.143753Q211.72188 53.690628 213.87813 53.690628Q215.95625 53.690628 217.26875 55.112503Q218.59688 56.518753 218.59688 59.096878Q218.59688 59.253128 218.58125 59.565628L210.84688 59.565628Q210.94063 61.268753 211.81563 62.175003Q212.69063 63.081253 213.9875 63.081253Q214.95625 63.081253 215.62813 62.581253Q216.31563 62.065628 216.72188 60.956253ZM210.94063 58.112503L216.7375 58.112503Q216.62813 56.815628 216.08125 56.159378Q215.2375 55.143753 213.89375 55.143753Q212.69063 55.143753 211.8625 55.956253Q211.03438 56.753128 210.94063 58.112503ZM220.6125 64.3L220.6125 53.925003L222.19063 53.925003L222.19063 55.378128Q222.675 54.628128 223.4875 54.159378Q224.3 53.690628 225.33125 53.690628Q226.4875 53.690628 227.22188 54.175003Q227.95625 54.643753 228.26875 55.503128Q229.50313 53.690628 231.47188 53.690628Q233.01875 53.690628 233.84688 54.550003Q234.675 55.409378 234.675 57.175003L234.675 64.3L232.925 64.3L232.925 57.768753Q232.925 56.706253 232.75313 56.253128Q232.58125 55.784378 232.12813 55.503128Q231.69063 55.221878 231.08125 55.221878Q229.9875 55.221878 229.25313 55.956253Q228.53438 56.675003 228.53438 58.268753L228.53438 64.3L226.78438 64.3L226.78438 57.565628Q226.78438 56.393753 226.34688 55.815628Q225.925 55.221878 224.94063 55.221878Q224.20625 55.221878 223.56563 55.612503Q222.94063 56.003128 222.65938 56.753128Q222.37813 57.503128 222.37813 58.925003L222.37813 64.3L220.6125 64.3ZM243.39375 63.018753Q242.40938 63.846878 241.50313 64.19063Q240.59688 64.53438 239.56563 64.53438Q237.8625 64.53438 236.94063 63.706253Q236.01875 62.862503 236.01875 61.565628Q236.01875 60.800003 236.3625 60.175003Q236.72188 59.550003 237.28438 59.175003Q237.84688 58.784378 238.55 58.581253Q239.06563 58.456253 240.1125 58.315628Q242.2375 58.065628 243.2375 57.721878Q243.25313 57.362503 243.25313 57.253128Q243.25313 56.190628 242.75313 55.737503Q242.08125 55.143753 240.75313 55.143753Q239.50313 55.143753 238.90938 55.581253Q238.33125 56.018753 238.05 57.128128L236.33125 56.893753Q236.56563 55.784378 237.09688 55.112503Q237.62813 54.425003 238.64375 54.065628Q239.65938 53.690628 241.00313 53.690628Q242.33125 53.690628 243.15938 54.003128Q243.9875 54.315628 244.37813 54.800003Q244.76875 55.268753 244.925 55.987503Q245.01875 56.440628 245.01875 57.612503L245.01875 59.956253Q245.01875 62.409378 245.12813 63.065628Q245.2375 63.706253 245.58125 64.3L243.7375 64.3Q243.47188 63.753128 243.39375 63.018753ZM243.2375 59.096878Q242.28438 59.487503 240.3625 59.753128Q239.28438 59.909378 238.83125 60.112503Q238.39375 60.300003 238.14375 60.675003Q237.89375 61.050003 237.89375 61.518753Q237.89375 62.221878 238.425 62.690628Q238.95625 63.159378 239.9875 63.159378Q241.00313 63.159378 241.78438 62.721878Q242.58125 62.268753 242.95625 61.503128Q243.2375 60.893753 243.2375 59.737503L243.2375 59.096878ZM247.58125 64.3L247.58125 49.987503L249.33125 49.987503L249.33125 64.3L247.58125 64.3ZM258.72186 60.956253L260.53436 61.190628Q260.1125 62.768753 258.9406 63.659378Q257.78436 64.53438 255.97188 64.53438Q253.70625 64.53438 252.3625 63.143753Q251.03438 61.737503 251.03438 59.206253Q251.03438 56.581253 252.37813 55.143753Q253.72188 53.690628 255.87813 53.690628Q257.95624 53.690628 259.26874 55.112503Q260.59686 56.518753 260.59686 59.096878Q260.59686 59.253128 260.58124 59.565628L252.84688 59.565628Q252.94063 61.268753 253.81563 62.175003Q254.69063 63.081253 255.9875 63.081253Q256.95624 63.081253 257.6281 62.581253Q258.3156 62.065628 258.72186 60.956253ZM252.94063 58.112503L258.7375 58.112503Q258.6281 56.815628 258.08124 56.159378Q257.2375 55.143753 255.89375 55.143753Q254.69063 55.143753 253.8625 55.956253Q253.03438 56.753128 252.94063 58.112503ZM268.7531 64.3L266.9875 64.3L266.9875 53.096878Q266.3625 53.706253 265.33124 54.315628Q264.3 54.909378 263.47186 55.221878L263.47186 53.518753Q264.95624 52.831253 266.05 51.846878Q267.15936 50.846878 267.6125 49.925003L268.7531 49.925003L268.7531 64.3Z" fill-rule="nonzero"/></svg>