<svg version="1.1" viewBox="0.0 0.0 647.0 399.0" fill="none" stroke="none" stroke-linecap="square" stroke-miterlimit="10" width="647" height="399" xmlns:xlink="http://www.w3.org/1999/xlink" xmlns="http://www.w3.org/2000/svg"><path fill="#ffffff" d="M0 0L647.0 0L647.0 399.0L0 399.0L0 0Z" fill-rule="nonzero"/><path stroke="#333333" stroke-width="1.0" stroke-linecap="butt" d="M85.5 327.5L627.5 327.5" fill-rule="nonzero"/><path stroke="#cccccc" stroke-width="1.0" stroke-linecap="butt" d="M85.5 287.5L627.5 287.5" fill-rule="nonzero"/><path stroke="#cccccc" stroke-width="1.0" stroke-linecap="butt" d="M85.5 248.5L627.5 248.5" fill-rule="nonzero"/><path stroke="#cccccc" stroke-width="1.0" stroke-linecap="butt" d="M85.5 209.5L627.5 209.5" fill-rule="nonzero"/><path stroke="#cccccc" stroke-width="1.0" stroke-linecap="butt" d="M85.5 170.5L627.5 170.5" fill-rule="nonzero"/><path stroke="#cccccc" stroke-width="1.0" stroke-linecap="butt" d="M85.5 130.5L627.5 130.5" fill-rule="nonzero"/><path stroke="#cccccc" stroke-width="1.0" stroke-linecap="butt" d="M85.5 91.5L627.5 91.5" fill-rule="nonzero"/><path stroke="#e6e6e6" stroke-width="1.0" stroke-linecap="butt" d="M85.5 307.5L627.5 307.5" fill-rule="nonzero"/><path stroke="#e6e6e6" stroke-width="1.0" stroke-linecap="butt" d="M85.5 268.5L627.5 268.5" fill-rule="nonzero"/><path stroke="#e6e6e6" stroke-width="1.0" stroke-linecap="butt" d="M85.5 228.5L627.5 228.5" fill-rule="nonzero"/><path stroke="#e6e6e6" stroke-width="1.0" stroke-linecap="butt" d="M85.5 189.5L627.5 189.5" fill-rule="nonzero"/><path stroke="#e6e6e6" stroke-width="1.0" stroke-linecap="butt" d="M85.5 150.5L627.5 150.5" fill-rule="nonzero"/><path stroke="#e6e6e6" stroke-width="1.0" stroke-linecap="butt" d="M85.5 111.5L627.5 111.5" fill-rule="nonzero"/><clipPath id="id_0"><path d="M85.95 91.55L627.05 91.55L627.05 327.05L85.95 327.05L85.95 91.55Z" clip-rule="nonzero"/></clipPath><path stroke="#000000" stroke-width="2.0" stroke-linecap="butt" stroke-opacity="0.0" clip-path="url(#id_0)" d="M194.0 327.0L144.0 327.0L144.0 292.0C144.0 290.89542 144.89543 290.0 146.0 290.0L192.0 290.0C193.10457 290.0 194.0 290.89542 194.0 292.0Z" fill-rule="nonzero"/><path fill="#4285f4" clip-path="url(#id_0)" d="M194.0 327.0L144.0 327.0L144.0 292.0C144.0 290.89542 144.89543 290.0 146.0 290.0L192.0 290.0C193.10457 290.0 194.0 290.89542 194.0 292.0Z" fill-rule="nonzero"/><path stroke="#000000" stroke-width="2.0" stroke-linecap="butt" stroke-opacity="0.0" clip-path="url(#id_0)" d="M356.0 327.0L306.0 327.0L306.0 223.0C306.0 221.89543 306.89542 221.0 308.0 221.0L354.0 221.0C355.10458 221.0 356.0 221.89543 356.0 223.0Z" fill-rule="nonzero"/><path fill="#4285f4" clip-path="url(#id_0)" d="M356.0 327.0L306.0 327.0L306.0 223.0C306.0 221.89543 306.89542 221.0 308.0 221.0L354.0 221.0C355.10458 221.0 356.0 221.89543 356.0 223.0Z" fill-rule="nonzero"/><path stroke="#000000" stroke-width="2.0" stroke-linecap="butt" stroke-opacity="0.0" clip-path="url(#id_0)" d="M517.0 327.0L467.0 327.0L467.0 130.0C467.0 128.89543 467.89542 128.0 469.0 128.0L515.0 128.0C516.10455 128.0 517.0 128.89543 517.0 130.0Z" fill-rule="nonzero"/><path fill="#4285f4" clip-path="url(#id_0)" d="M517.0 327.0L467.0 327.0L467.0 130.0C467.0 128.89543 467.89542 128.0 469.0 128.0L515.0 128.0C516.10455 128.0 517.0 128.89543 517.0 130.0Z" fill-rule="nonzero"/><path stroke="#000000" stroke-width="2.0" stroke-linecap="butt" stroke-opacity="0.0" clip-path="url(#id_0)" d="M246.0 327.0L196.0 327.0L196.0 281.0C196.0 279.89542 196.89543 279.0 198.0 279.0L244.0 279.0C245.10457 279.0 246.0 279.89542 246.0 281.0Z" fill-rule="nonzero"/><path fill="#ea4335" clip-path="url(#id_0)" d="M246.0 327.0L196.0 327.0L196.0 281.0C196.0 279.89542 196.89543 279.0 198.0 279.0L244.0 279.0C245.10457 279.0 246.0 279.89542 246.0 281.0Z" fill-rule="nonzero"/><path stroke="#000000" stroke-width="2.0" stroke-linecap="butt" stroke-opacity="0.0" clip-path="url(#id_0)" d="M408.0 327.0L358.0 327.0L358.0 220.0C358.0 218.89543 358.89542 218.0 360.0 218.0L406.0 218.0C407.10458 218.0 408.0 218.89543 408.0 220.0Z" fill-rule="nonzero"/><path fill="#ea4335" clip-path="url(#id_0)" d="M408.0 327.0L358.0 327.0L358.0 220.0C358.0 218.89543 358.89542 218.0 360.0 218.0L406.0 218.0C407.10458 218.0 408.0 218.89543 408.0 220.0Z" fill-rule="nonzero"/><path stroke="#000000" stroke-width="2.0" stroke-linecap="butt" stroke-opacity="0.0" clip-path="url(#id_0)" d="M569.0 327.0L519.0 327.0L519.0 134.0C519.0 132.89543 519.89545 132.0 521.0 132.0L567.0 132.0C568.10455 132.0 569.0 132.89543 569.0 134.0Z" fill-rule="nonzero"/><path fill="#ea4335" clip-path="url(#id_0)" d="M569.0 327.0L519.0 327.0L519.0 134.0C519.0 132.89543 519.89545 132.0 521.0 132.0L567.0 132.0C568.10455 132.0 569.0 132.89543 569.0 134.0Z" fill-rule="nonzero"/><path stroke="#ffffff" stroke-width="3.0" stroke-linejoin="round" stroke-linecap="round" d="M163.78125 272.31055L164.96875 272.31055L164.96875 273.18555L163.78125 273.18555L163.78125 275.16992L162.70312 275.16992L162.70312 273.18555L158.8125 273.18555L158.8125 272.54492L162.625 266.63867L163.78125 266.63867L163.78125 272.31055ZM160.04688 272.31055L162.70312 272.31055L162.70312 268.12305L162.5625 268.35742L160.04688 272.31055ZM171.71875 267.24805L168.1875 275.16992L167.04688 275.16992L170.5625 267.5293L165.95312 267.5293L165.95312 266.63867L171.71875 266.63867L171.71875 267.24805ZM178.5625 271.5293Q178.5625 273.43555 177.90625 274.37305Q177.26562 275.29492 175.875 275.29492Q174.51562 275.29492 173.85938 274.38867Q173.20312 273.48242 173.17188 271.66992L173.17188 270.23242Q173.17188 268.3418 173.8125 267.43555Q174.46875 266.51367 175.85938 266.51367Q177.23438 266.51367 177.89062 267.4043Q178.54688 268.2793 178.5625 270.12305L178.5625 271.5293ZM177.46875 270.04492Q177.46875 268.66992 177.07812 268.04492Q176.70312 267.4043 175.85938 267.4043Q175.03125 267.4043 174.64062 268.04492Q174.26562 268.66992 174.26562 269.9668L174.26562 271.70117Q174.26562 273.07617 174.65625 273.74805Q175.0625 274.4043 175.875 274.4043Q176.67188 274.4043 177.0625 273.7793Q177.45312 273.1543 177.46875 271.82617L177.46875 270.04492Z" fill-rule="nonzero"/><path fill="#4285f4" d="M163.78125 272.31055L164.96875 272.31055L164.96875 273.18555L163.78125 273.18555L163.78125 275.16992L162.70312 275.16992L162.70312 273.18555L158.8125 273.18555L158.8125 272.54492L162.625 266.63867L163.78125 266.63867L163.78125 272.31055ZM160.04688 272.31055L162.70312 272.31055L162.70312 268.12305L162.5625 268.35742L160.04688 272.31055ZM171.71875 267.24805L168.1875 275.16992L167.04688 275.16992L170.5625 267.5293L165.95312 267.5293L165.95312 266.63867L171.71875 266.63867L171.71875 267.24805ZM178.5625 271.5293Q178.5625 273.43555 177.90625 274.37305Q177.26562 275.29492 175.875 275.29492Q174.51562 275.29492 173.85938 274.38867Q173.20312 273.48242 173.17188 271.66992L173.17188 270.23242Q173.17188 268.3418 173.8125 267.43555Q174.46875 266.51367 175.85938 266.51367Q177.23438 266.51367 177.89062 267.4043Q178.54688 268.2793 178.5625 270.12305L178.5625 271.5293ZM177.46875 270.04492Q177.46875 268.66992 177.07812 268.04492Q176.70312 267.4043 175.85938 267.4043Q175.03125 267.4043 174.64062 268.04492Q174.26562 268.66992 174.26562 269.9668L174.26562 271.70117Q174.26562 273.07617 174.65625 273.74805Q175.0625 274.4043 175.875 274.4043Q176.67188 274.4043 177.0625 273.7793Q177.45312 273.1543 177.46875 271.82617L177.46875 270.04492Z" fill-rule="nonzero"/><path stroke="#ffffff" stroke-width="3.0" stroke-linejoin="round" stroke-linecap="round" d="M321.26562 206.10718L320.1875 206.10718L320.1875 198.88843L318.0 199.6853L318.0 198.70093L321.10938 197.52905L321.26562 197.52905L321.26562 206.10718ZM326.28125 201.3103L327.09375 201.3103Q327.875 201.29468 328.3125 200.90405Q328.75 200.51343 328.75 199.84155Q328.75 198.34155 327.25 198.34155Q326.54688 198.34155 326.125 198.7478Q325.71875 199.15405 325.71875 199.8103L324.625 199.8103Q324.625 198.79468 325.35938 198.1228Q326.10938 197.45093 327.25 197.45093Q328.45312 197.45093 329.14062 198.09155Q329.82812 198.73218 329.82812 199.8728Q329.82812 200.4353 329.46875 200.95093Q329.10938 201.46655 328.48438 201.73218Q329.1875 201.95093 329.5625 202.46655Q329.95312 202.98218 329.95312 203.73218Q329.95312 204.8728 329.20312 205.5603Q328.45312 206.23218 327.25 206.23218Q326.0625 206.23218 325.29688 205.57593Q324.54688 204.91968 324.54688 203.85718L325.64062 203.85718Q325.64062 204.52905 326.07812 204.9353Q326.51562 205.34155 327.26562 205.34155Q328.04688 205.34155 328.45312 204.9353Q328.875 204.51343 328.875 203.7478Q328.875 203.01343 328.42188 202.6228Q327.96875 202.21655 327.09375 202.20093L326.28125 202.20093L326.28125 201.3103ZM332.20312 201.82593L332.64062 197.57593L337.01562 197.57593L337.01562 198.57593L333.5625 198.57593L333.29688 200.90405Q333.9375 200.52905 334.73438 200.52905Q335.89062 200.52905 336.57812 201.3103Q337.26562 202.07593 337.26562 203.38843Q337.26562 204.70093 336.54688 205.46655Q335.84375 206.23218 334.5625 206.23218Q333.4375 206.23218 332.71875 205.60718Q332.0 204.96655 331.90625 203.85718L332.92188 203.85718Q333.03125 204.59155 333.45312 204.96655Q333.875 205.34155 334.5625 205.34155Q335.3125 205.34155 335.75 204.82593Q336.1875 204.3103 336.1875 203.40405Q336.1875 202.54468 335.71875 202.02905Q335.25 201.51343 334.46875 201.51343Q333.76562 201.51343 333.35938 201.8103L333.07812 202.04468L332.20312 201.82593ZM344.0625 202.46655Q344.0625 204.3728 343.40625 205.3103Q342.76562 206.23218 341.375 206.23218Q340.01562 206.23218 339.35938 205.32593Q338.70312 204.41968 338.67188 202.60718L338.67188 201.16968Q338.67188 199.27905 339.3125 198.3728Q339.96875 197.45093 341.35938 197.45093Q342.73438 197.45093 343.39062 198.34155Q344.04688 199.21655 344.0625 201.0603L344.0625 202.46655ZM342.96875 200.98218Q342.96875 199.60718 342.57812 198.98218Q342.20312 198.34155 341.35938 198.34155Q340.53125 198.34155 340.14062 198.98218Q339.76562 199.60718 339.76562 200.90405L339.76562 202.63843Q339.76562 204.01343 340.15625 204.6853Q340.5625 205.34155 341.375 205.34155Q342.17188 205.34155 342.5625 204.71655Q342.95312 204.09155 342.96875 202.76343L342.96875 200.98218Z" fill-rule="nonzero"/><path fill="#4285f4" d="M321.26562 206.10718L320.1875 206.10718L320.1875 198.88843L318.0 199.6853L318.0 198.70093L321.10938 197.52905L321.26562 197.52905L321.26562 206.10718ZM326.28125 201.3103L327.09375 201.3103Q327.875 201.29468 328.3125 200.90405Q328.75 200.51343 328.75 199.84155Q328.75 198.34155 327.25 198.34155Q326.54688 198.34155 326.125 198.7478Q325.71875 199.15405 325.71875 199.8103L324.625 199.8103Q324.625 198.79468 325.35938 198.1228Q326.10938 197.45093 327.25 197.45093Q328.45312 197.45093 329.14062 198.09155Q329.82812 198.73218 329.82812 199.8728Q329.82812 200.4353 329.46875 200.95093Q329.10938 201.46655 328.48438 201.73218Q329.1875 201.95093 329.5625 202.46655Q329.95312 202.98218 329.95312 203.73218Q329.95312 204.8728 329.20312 205.5603Q328.45312 206.23218 327.25 206.23218Q326.0625 206.23218 325.29688 205.57593Q324.54688 204.91968 324.54688 203.85718L325.64062 203.85718Q325.64062 204.52905 326.07812 204.9353Q326.51562 205.34155 327.26562 205.34155Q328.04688 205.34155 328.45312 204.9353Q328.875 204.51343 328.875 203.7478Q328.875 203.01343 328.42188 202.6228Q327.96875 202.21655 327.09375 202.20093L326.28125 202.20093L326.28125 201.3103ZM332.20312 201.82593L332.64062 197.57593L337.01562 197.57593L337.01562 198.57593L333.5625 198.57593L333.29688 200.90405Q333.9375 200.52905 334.73438 200.52905Q335.89062 200.52905 336.57812 201.3103Q337.26562 202.07593 337.26562 203.38843Q337.26562 204.70093 336.54688 205.46655Q335.84375 206.23218 334.5625 206.23218Q333.4375 206.23218 332.71875 205.60718Q332.0 204.96655 331.90625 203.85718L332.92188 203.85718Q333.03125 204.59155 333.45312 204.96655Q333.875 205.34155 334.5625 205.34155Q335.3125 205.34155 335.75 204.82593Q336.1875 204.3103 336.1875 203.40405Q336.1875 202.54468 335.71875 202.02905Q335.25 201.51343 334.46875 201.51343Q333.76562 201.51343 333.35938 201.8103L333.07812 202.04468L332.20312 201.82593ZM344.0625 202.46655Q344.0625 204.3728 343.40625 205.3103Q342.76562 206.23218 341.375 206.23218Q340.01562 206.23218 339.35938 205.32593Q338.70312 204.41968 338.67188 202.60718L338.67188 201.16968Q338.67188 199.27905 339.3125 198.3728Q339.96875 197.45093 341.35938 197.45093Q342.73438 197.45093 343.39062 198.34155Q344.04688 199.21655 344.0625 201.0603L344.0625 202.46655ZM342.96875 200.98218Q342.96875 199.60718 342.57812 198.98218Q342.20312 198.34155 341.35938 198.34155Q340.53125 198.34155 340.14062 198.98218Q339.76562 199.60718 339.76562 200.90405L339.76562 202.63843Q339.76562 204.01343 340.15625 204.6853Q340.5625 205.34155 341.375 205.34155Q342.17188 205.34155 342.5625 204.71655Q342.95312 204.09155 342.96875 202.76343L342.96875 200.98218Z" fill-rule="nonzero"/><path stroke="#ffffff" stroke-width="3.0" stroke-linejoin="round" stroke-linecap="round" d="M484.29688 112.95595L478.70312 112.95595L478.70312 112.1747L481.65625 108.89345Q482.3125 108.14345 482.5625 107.69032Q482.8125 107.22157 482.8125 106.72157Q482.8125 106.0497 482.40625 105.62782Q482.01562 105.19032 481.32812 105.19032Q480.53125 105.19032 480.07812 105.65907Q479.625 106.1122 479.625 106.94032L478.54688 106.94032Q478.54688 105.75282 479.29688 105.03407Q480.0625 104.2997 481.32812 104.2997Q482.53125 104.2997 483.21875 104.9247Q483.90625 105.5497 483.90625 106.59657Q483.90625 107.84657 482.29688 109.59657L480.01562 112.06532L484.29688 112.06532L484.29688 112.95595ZM486.20312 108.6747L486.64062 104.4247L491.01562 104.4247L491.01562 105.4247L487.5625 105.4247L487.29688 107.75282Q487.9375 107.37782 488.73438 107.37782Q489.89062 107.37782 490.57812 108.15907Q491.26562 108.9247 491.26562 110.2372Q491.26562 111.5497 490.54688 112.31532Q489.84375 113.08095 488.5625 113.08095Q487.4375 113.08095 486.71875 112.45595Q486.0 111.81532 485.90625 110.70595L486.92188 110.70595Q487.03125 111.44032 487.45312 111.81532Q487.875 112.19032 488.5625 112.19032Q489.3125 112.19032 489.75 111.6747Q490.1875 111.15907 490.1875 110.25282Q490.1875 109.39345 489.71875 108.87782Q489.25 108.3622 488.46875 108.3622Q487.76562 108.3622 487.35938 108.65907L487.07812 108.89345L486.20312 108.6747ZM494.28125 108.15907L495.09375 108.15907Q495.875 108.14345 496.3125 107.75282Q496.75 107.3622 496.75 106.69032Q496.75 105.19032 495.25 105.19032Q494.54688 105.19032 494.125 105.59657Q493.71875 106.00282 493.71875 106.65907L492.625 106.65907Q492.625 105.64345 493.35938 104.97157Q494.10938 104.2997 495.25 104.2997Q496.45312 104.2997 497.14062 104.94032Q497.82812 105.58095 497.82812 106.72157Q497.82812 107.28407 497.46875 107.7997Q497.10938 108.31532 496.48438 108.58095Q497.1875 108.7997 497.5625 109.31532Q497.95312 109.83095 497.95312 110.58095Q497.95312 111.72157 497.20312 112.40907Q496.45312 113.08095 495.25 113.08095Q494.0625 113.08095 493.29688 112.4247Q492.54688 111.76845 492.54688 110.70595L493.64062 110.70595Q493.64062 111.37782 494.07812 111.78407Q494.51562 112.19032 495.26562 112.19032Q496.04688 112.19032 496.45312 111.78407Q496.875 111.3622 496.875 110.59657Q496.875 109.8622 496.42188 109.47157Q495.96875 109.06532 495.09375 109.0497L494.28125 109.0497L494.28125 108.15907ZM503.96875 104.4247L503.96875 105.33095L503.76562 105.33095Q502.5 105.3622 501.75 106.09657Q501.0 106.81532 500.875 108.12782Q501.5625 107.3622 502.71875 107.3622Q503.82812 107.3622 504.5 108.14345Q505.17188 108.9247 505.17188 110.1747Q505.17188 111.4872 504.45312 112.28407Q503.73438 113.08095 502.51562 113.08095Q501.29688 113.08095 500.53125 112.14345Q499.78125 111.19032 499.78125 109.70595L499.78125 109.2997Q499.78125 106.94032 500.78125 105.69032Q501.78125 104.44032 503.76562 104.4247L503.96875 104.4247ZM502.54688 108.26845Q501.98438 108.26845 501.51562 108.59657Q501.04688 108.9247 500.85938 109.44032L500.85938 109.83095Q500.85938 110.89345 501.32812 111.53407Q501.8125 112.1747 502.51562 112.1747Q503.25 112.1747 503.67188 111.64345Q504.09375 111.09657 504.09375 110.22157Q504.09375 109.34657 503.67188 108.81532Q503.25 108.26845 502.54688 108.26845Z" fill-rule="nonzero"/><path fill="#4285f4" d="M484.29688 112.95595L478.70312 112.95595L478.70312 112.1747L481.65625 108.89345Q482.3125 108.14345 482.5625 107.69032Q482.8125 107.22157 482.8125 106.72157Q482.8125 106.0497 482.40625 105.62782Q482.01562 105.19032 481.32812 105.19032Q480.53125 105.19032 480.07812 105.65907Q479.625 106.1122 479.625 106.94032L478.54688 106.94032Q478.54688 105.75282 479.29688 105.03407Q480.0625 104.2997 481.32812 104.2997Q482.53125 104.2997 483.21875 104.9247Q483.90625 105.5497 483.90625 106.59657Q483.90625 107.84657 482.29688 109.59657L480.01562 112.06532L484.29688 112.06532L484.29688 112.95595ZM486.20312 108.6747L486.64062 104.4247L491.01562 104.4247L491.01562 105.4247L487.5625 105.4247L487.29688 107.75282Q487.9375 107.37782 488.73438 107.37782Q489.89062 107.37782 490.57812 108.15907Q491.26562 108.9247 491.26562 110.2372Q491.26562 111.5497 490.54688 112.31532Q489.84375 113.08095 488.5625 113.08095Q487.4375 113.08095 486.71875 112.45595Q486.0 111.81532 485.90625 110.70595L486.92188 110.70595Q487.03125 111.44032 487.45312 111.81532Q487.875 112.19032 488.5625 112.19032Q489.3125 112.19032 489.75 111.6747Q490.1875 111.15907 490.1875 110.25282Q490.1875 109.39345 489.71875 108.87782Q489.25 108.3622 488.46875 108.3622Q487.76562 108.3622 487.35938 108.65907L487.07812 108.89345L486.20312 108.6747ZM494.28125 108.15907L495.09375 108.15907Q495.875 108.14345 496.3125 107.75282Q496.75 107.3622 496.75 106.69032Q496.75 105.19032 495.25 105.19032Q494.54688 105.19032 494.125 105.59657Q493.71875 106.00282 493.71875 106.65907L492.625 106.65907Q492.625 105.64345 493.35938 104.97157Q494.10938 104.2997 495.25 104.2997Q496.45312 104.2997 497.14062 104.94032Q497.82812 105.58095 497.82812 106.72157Q497.82812 107.28407 497.46875 107.7997Q497.10938 108.31532 496.48438 108.58095Q497.1875 108.7997 497.5625 109.31532Q497.95312 109.83095 497.95312 110.58095Q497.95312 111.72157 497.20312 112.40907Q496.45312 113.08095 495.25 113.08095Q494.0625 113.08095 493.29688 112.4247Q492.54688 111.76845 492.54688 110.70595L493.64062 110.70595Q493.64062 111.37782 494.07812 111.78407Q494.51562 112.19032 495.26562 112.19032Q496.04688 112.19032 496.45312 111.78407Q496.875 111.3622 496.875 110.59657Q496.875 109.8622 496.42188 109.47157Q495.96875 109.06532 495.09375 109.0497L494.28125 109.0497L494.28125 108.15907ZM503.96875 104.4247L503.96875 105.33095L503.76562 105.33095Q502.5 105.3622 501.75 106.09657Q501.0 106.81532 500.875 108.12782Q501.5625 107.3622 502.71875 107.3622Q503.82812 107.3622 504.5 108.14345Q505.17188 108.9247 505.17188 110.1747Q505.17188 111.4872 504.45312 112.28407Q503.73438 113.08095 502.51562 113.08095Q501.29688 113.08095 500.53125 112.14345Q499.78125 111.19032 499.78125 109.70595L499.78125 109.2997Q499.78125 106.94032 500.78125 105.69032Q501.78125 104.44032 503.76562 104.4247L503.96875 104.4247ZM502.54688 108.26845Q501.98438 108.26845 501.51562 108.59657Q501.04688 108.9247 500.85938 109.44032L500.85938 109.83095Q500.85938 110.89345 501.32812 111.53407Q501.8125 112.1747 502.51562 112.1747Q503.25 112.1747 503.67188 111.64345Q504.09375 111.09657 504.09375 110.22157Q504.09375 109.34657 503.67188 108.81532Q503.25 108.26845 502.54688 108.26845Z" fill-rule="nonzero"/><path stroke="#ffffff" stroke-width="3.0" stroke-linejoin="round" stroke-linecap="round" d="M215.46875 255.3119L215.46875 256.21814L215.26562 256.21814Q214.0 256.2494 213.25 256.98376Q212.5 257.7025 212.375 259.015Q213.0625 258.2494 214.21875 258.2494Q215.32812 258.2494 216.0 259.03064Q216.67188 259.8119 216.67188 261.0619Q216.67188 262.3744 215.95312 263.17126Q215.23438 263.96814 214.01562 263.96814Q212.79688 263.96814 212.03125 263.03064Q211.28125 262.0775 211.28125 260.59314L211.28125 260.1869Q211.28125 257.8275 212.28125 256.5775Q213.28125 255.32753 215.26562 255.3119L215.46875 255.3119ZM214.04688 259.15564Q213.48438 259.15564 213.01562 259.48376Q212.54688 259.8119 212.35938 260.3275L212.35938 260.71814Q212.35938 261.78064 212.82812 262.42126Q213.3125 263.0619 214.01562 263.0619Q214.75 263.0619 215.17188 262.53064Q215.59375 261.98376 215.59375 261.10876Q215.59375 260.23376 215.17188 259.7025Q214.75 259.15564 214.04688 259.15564ZM221.76562 263.84314L220.6875 263.84314L220.6875 256.6244L218.5 257.42126L218.5 256.4369L221.60938 255.26503L221.76562 255.26503L221.76562 263.84314ZM229.78125 260.98376L230.96875 260.98376L230.96875 261.85876L229.78125 261.85876L229.78125 263.84314L228.70312 263.84314L228.70312 261.85876L224.8125 261.85876L224.8125 261.21814L228.625 255.3119L229.78125 255.3119L229.78125 260.98376ZM226.04688 260.98376L228.70312 260.98376L228.70312 256.79626L228.5625 257.03064L226.04688 260.98376Z" fill-rule="nonzero"/><path fill="#ea4335" d="M215.46875 255.31189L215.46875 256.21814L215.26562 256.21814Q214.0 256.2494 213.25 256.98376Q212.5 257.7025 212.375 259.015Q213.0625 258.2494 214.21875 258.2494Q215.32812 258.2494 216.0 259.03064Q216.67188 259.8119 216.67188 261.0619Q216.67188 262.3744 215.95312 263.17126Q215.23438 263.96814 214.01562 263.96814Q212.79688 263.96814 212.03125 263.03064Q211.28125 262.0775 211.28125 260.59314L211.28125 260.1869Q211.28125 257.8275 212.28125 256.5775Q213.28125 255.32751 215.26562 255.31189L215.46875 255.31189ZM214.04688 259.15564Q213.48438 259.15564 213.01562 259.48376Q212.54688 259.8119 212.35938 260.3275L212.35938 260.71814Q212.35938 261.78064 212.82812 262.42126Q213.3125 263.0619 214.01562 263.0619Q214.75 263.0619 215.17188 262.53064Q215.59375 261.98376 215.59375 261.10876Q215.59375 260.23376 215.17188 259.7025Q214.75 259.15564 214.04688 259.15564ZM221.76562 263.84314L220.6875 263.84314L220.6875 256.6244L218.5 257.42126L218.5 256.4369L221.60938 255.26501L221.76562 255.26501L221.76562 263.84314ZM229.78125 260.98376L230.96875 260.98376L230.96875 261.85876L229.78125 261.85876L229.78125 263.84314L228.70312 263.84314L228.70312 261.85876L224.8125 261.85876L224.8125 261.21814L228.625 255.31189L229.78125 255.31189L229.78125 260.98376ZM226.04688 260.98376L228.70312 260.98376L228.70312 256.79626L228.5625 257.03064L226.04688 260.98376Z" fill-rule="nonzero"/><path stroke="#ffffff" stroke-width="3.0" stroke-linejoin="round" stroke-linecap="round" d="M373.26562 203.03627L372.1875 203.03627L372.1875 195.81752L370.0 196.6144L370.0 195.63002L373.10938 194.45815L373.26562 194.45815L373.26562 203.03627ZM378.28125 198.2394L379.09375 198.2394Q379.875 198.22377 380.3125 197.83315Q380.75 197.44252 380.75 196.77065Q380.75 195.27065 379.25 195.27065Q378.54688 195.27065 378.125 195.6769Q377.71875 196.08315 377.71875 196.7394L376.625 196.7394Q376.625 195.72377 377.35938 195.0519Q378.10938 194.38002 379.25 194.38002Q380.45312 194.38002 381.14062 195.02065Q381.82812 195.66127 381.82812 196.8019Q381.82812 197.3644 381.46875 197.88002Q381.10938 198.39565 380.48438 198.66127Q381.1875 198.88002 381.5625 199.39565Q381.95312 199.91127 381.95312 200.66127Q381.95312 201.8019 381.20312 202.4894Q380.45312 203.16127 379.25 203.16127Q378.0625 203.16127 377.29688 202.50502Q376.54688 201.84877 376.54688 200.78627L377.64062 200.78627Q377.64062 201.45815 378.07812 201.8644Q378.51562 202.27065 379.26562 202.27065Q380.04688 202.27065 380.45312 201.8644Q380.875 201.44252 380.875 200.6769Q380.875 199.94252 380.42188 199.5519Q379.96875 199.14565 379.09375 199.13002L378.28125 199.13002L378.28125 198.2394ZM388.89062 196.72377Q388.89062 197.3644 388.54688 197.8644Q388.20312 198.3644 387.64062 198.64565Q388.29688 198.9269 388.6875 199.4894Q389.07812 200.03627 389.07812 200.7394Q389.07812 201.83315 388.32812 202.50502Q387.59375 203.16127 386.375 203.16127Q385.14062 203.16127 384.39062 202.50502Q383.65625 201.83315 383.65625 200.7394Q383.65625 200.03627 384.03125 199.4894Q384.40625 198.9269 385.07812 198.64565Q384.51562 198.3644 384.1875 197.8644Q383.85938 197.3644 383.85938 196.72377Q383.85938 195.64565 384.54688 195.02065Q385.23438 194.38002 386.375 194.38002Q387.5 194.38002 388.1875 195.02065Q388.89062 195.64565 388.89062 196.72377ZM388.0 200.70815Q388.0 199.9894 387.54688 199.5519Q387.09375 199.09877 386.35938 199.09877Q385.625 199.09877 385.17188 199.5519Q384.73438 199.9894 384.73438 200.72377Q384.73438 201.44252 385.17188 201.8644Q385.60938 202.27065 386.375 202.27065Q387.125 202.27065 387.5625 201.84877Q388.0 201.4269 388.0 200.70815ZM386.375 195.27065Q385.73438 195.27065 385.32812 195.6769Q384.9375 196.06752 384.9375 196.75502Q384.9375 197.39565 385.32812 197.8019Q385.71875 198.20815 386.35938 198.20815Q387.01562 198.20815 387.40625 197.8019Q387.79688 197.39565 387.79688 196.75502Q387.79688 196.09877 387.39062 195.69252Q386.98438 195.27065 386.375 195.27065ZM394.85938 199.28627Q394.53125 199.69252 394.04688 199.94252Q393.57812 200.1769 393.01562 200.1769Q392.28125 200.1769 391.73438 199.81752Q391.1875 199.45815 390.89062 198.8019Q390.59375 198.13002 390.59375 197.33315Q390.59375 196.4894 390.90625 195.8019Q391.23438 195.1144 391.82812 194.75502Q392.4375 194.38002 393.23438 194.38002Q394.5 194.38002 395.21875 195.33315Q395.95312 196.28627 395.95312 197.91127L395.95312 198.22377Q395.95312 200.72377 394.96875 201.8644Q393.98438 203.00502 392.0 203.03627L391.78125 203.03627L391.78125 202.13002L392.01562 202.13002Q393.35938 202.09877 394.07812 201.4269Q394.79688 200.75502 394.85938 199.28627ZM393.1875 199.28627Q393.73438 199.28627 394.1875 198.95815Q394.65625 198.6144 394.875 198.13002L394.875 197.69252Q394.875 196.63002 394.40625 195.95815Q393.9375 195.28627 393.23438 195.28627Q392.51562 195.28627 392.07812 195.83315Q391.65625 196.38002 391.65625 197.28627Q391.65625 198.16127 392.0625 198.72377Q392.48438 199.28627 393.1875 199.28627Z" fill-rule="nonzero"/><path fill="#ea4335" d="M373.26562 203.03627L372.1875 203.03627L372.1875 195.81752L370.0 196.6144L370.0 195.63002L373.10938 194.45815L373.26562 194.45815L373.26562 203.03627ZM378.28125 198.2394L379.09375 198.2394Q379.875 198.22377 380.3125 197.83315Q380.75 197.44252 380.75 196.77065Q380.75 195.27065 379.25 195.27065Q378.54688 195.27065 378.125 195.6769Q377.71875 196.08315 377.71875 196.7394L376.625 196.7394Q376.625 195.72377 377.35938 195.0519Q378.10938 194.38002 379.25 194.38002Q380.45312 194.38002 381.14062 195.02065Q381.82812 195.66127 381.82812 196.8019Q381.82812 197.3644 381.46875 197.88002Q381.10938 198.39565 380.48438 198.66127Q381.1875 198.88002 381.5625 199.39565Q381.95312 199.91127 381.95312 200.66127Q381.95312 201.8019 381.20312 202.4894Q380.45312 203.16127 379.25 203.16127Q378.0625 203.16127 377.29688 202.50502Q376.54688 201.84877 376.54688 200.78627L377.64062 200.78627Q377.64062 201.45815 378.07812 201.8644Q378.51562 202.27065 379.26562 202.27065Q380.04688 202.27065 380.45312 201.8644Q380.875 201.44252 380.875 200.6769Q380.875 199.94252 380.42188 199.5519Q379.96875 199.14565 379.09375 199.13002L378.28125 199.13002L378.28125 198.2394ZM388.89062 196.72377Q388.89062 197.3644 388.54688 197.8644Q388.20312 198.3644 387.64062 198.64565Q388.29688 198.9269 388.6875 199.4894Q389.07812 200.03627 389.07812 200.7394Q389.07812 201.83315 388.32812 202.50502Q387.59375 203.16127 386.375 203.16127Q385.14062 203.16127 384.39062 202.50502Q383.65625 201.83315 383.65625 200.7394Q383.65625 200.03627 384.03125 199.4894Q384.40625 198.9269 385.07812 198.64565Q384.51562 198.3644 384.1875 197.8644Q383.85938 197.3644 383.85938 196.72377Q383.85938 195.64565 384.54688 195.02065Q385.23438 194.38002 386.375 194.38002Q387.5 194.38002 388.1875 195.02065Q388.89062 195.64565 388.89062 196.72377ZM388.0 200.70815Q388.0 199.9894 387.54688 199.5519Q387.09375 199.09877 386.35938 199.09877Q385.625 199.09877 385.17188 199.5519Q384.73438 199.9894 384.73438 200.72377Q384.73438 201.44252 385.17188 201.8644Q385.60938 202.27065 386.375 202.27065Q387.125 202.27065 387.5625 201.84877Q388.0 201.4269 388.0 200.70815ZM386.375 195.27065Q385.73438 195.27065 385.32812 195.6769Q384.9375 196.06752 384.9375 196.75502Q384.9375 197.39565 385.32812 197.8019Q385.71875 198.20815 386.35938 198.20815Q387.01562 198.20815 387.40625 197.8019Q387.79688 197.39565 387.79688 196.75502Q387.79688 196.09877 387.39062 195.69252Q386.98438 195.27065 386.375 195.27065ZM394.85938 199.28627Q394.53125 199.69252 394.04688 199.94252Q393.57812 200.1769 393.01562 200.1769Q392.28125 200.1769 391.73438 199.81752Q391.1875 199.45815 390.89062 198.8019Q390.59375 198.13002 390.59375 197.33315Q390.59375 196.4894 390.90625 195.8019Q391.23438 195.1144 391.82812 194.75502Q392.4375 194.38002 393.23438 194.38002Q394.5 194.38002 395.21875 195.33315Q395.95312 196.28627 395.95312 197.91127L395.95312 198.22377Q395.95312 200.72377 394.96875 201.8644Q393.98438 203.00502 392.0 203.03627L391.78125 203.03627L391.78125 202.13002L392.01562 202.13002Q393.35938 202.09877 394.07812 201.4269Q394.79688 200.75502 394.85938 199.28627ZM393.1875 199.28627Q393.73438 199.28627 394.1875 198.95815Q394.65625 198.6144 394.875 198.13002L394.875 197.69252Q394.875 196.63002 394.40625 195.95815Q393.9375 195.28627 393.23438 195.28627Q392.51562 195.28627 392.07812 195.83315Q391.65625 196.38002 391.65625 197.28627Q391.65625 198.16127 392.0625 198.72377Q392.48438 199.28627 393.1875 199.28627Z" fill-rule="nonzero"/><path stroke="#ffffff" stroke-width="3.0" stroke-linejoin="round" stroke-linecap="round" d="M536.2969 116.75378L530.7031 116.75378L530.7031 115.97253L533.65625 112.69128Q534.3125 111.94128 534.5625 111.48815Q534.8125 111.0194 534.8125 110.5194Q534.8125 109.84753 534.40625 109.42565Q534.0156 108.98815 533.3281 108.98815Q532.53125 108.98815 532.0781 109.4569Q531.625 109.91003 531.625 110.73815L530.5469 110.73815Q530.5469 109.55065 531.2969 108.8319Q532.0625 108.09753 533.3281 108.09753Q534.53125 108.09753 535.21875 108.72253Q535.90625 109.34753 535.90625 110.3944Q535.90625 111.6444 534.2969 113.3944L532.0156 115.86315L536.2969 115.86315L536.2969 116.75378ZM542.28125 113.8944L543.46875 113.8944L543.46875 114.7694L542.28125 114.7694L542.28125 116.75378L541.2031 116.75378L541.2031 114.7694L537.3125 114.7694L537.3125 114.12878L541.125 108.22253L542.28125 108.22253L542.28125 113.8944ZM538.5469 113.8944L541.2031 113.8944L541.2031 109.7069L541.0625 109.94128L538.5469 113.8944ZM549.8906 110.44128Q549.8906 111.0819 549.5469 111.5819Q549.2031 112.0819 548.6406 112.36315Q549.2969 112.6444 549.6875 113.2069Q550.0781 113.75378 550.0781 114.4569Q550.0781 115.55065 549.3281 116.22253Q548.59375 116.87878 547.375 116.87878Q546.1406 116.87878 545.3906 116.22253Q544.65625 115.55065 544.65625 114.4569Q544.65625 113.75378 545.03125 113.2069Q545.40625 112.6444 546.0781 112.36315Q545.5156 112.0819 545.1875 111.5819Q544.8594 111.0819 544.8594 110.44128Q544.8594 109.36315 545.5469 108.73815Q546.2344 108.09753 547.375 108.09753Q548.5 108.09753 549.1875 108.73815Q549.8906 109.36315 549.8906 110.44128ZM549.0 114.42565Q549.0 113.7069 548.5469 113.2694Q548.09375 112.81628 547.3594 112.81628Q546.625 112.81628 546.1719 113.2694Q545.7344 113.7069 545.7344 114.44128Q545.7344 115.16003 546.1719 115.5819Q546.6094 115.98815 547.375 115.98815Q548.125 115.98815 548.5625 115.56628Q549.0 115.1444 549.0 114.42565ZM547.375 108.98815Q546.7344 108.98815 546.3281 109.3944Q545.9375 109.78503 545.9375 110.47253Q545.9375 111.11315 546.3281 111.5194Q546.71875 111.92565 547.3594 111.92565Q548.0156 111.92565 548.40625 111.5194Q548.7969 111.11315 548.7969 110.47253Q548.7969 109.81628 548.3906 109.41003Q547.9844 108.98815 547.375 108.98815ZM556.8906 110.44128Q556.8906 111.0819 556.5469 111.5819Q556.2031 112.0819 555.6406 112.36315Q556.2969 112.6444 556.6875 113.2069Q557.0781 113.75378 557.0781 114.4569Q557.0781 115.55065 556.3281 116.22253Q555.59375 116.87878 554.375 116.87878Q553.1406 116.87878 552.3906 116.22253Q551.65625 115.55065 551.65625 114.4569Q551.65625 113.75378 552.03125 113.2069Q552.40625 112.6444 553.0781 112.36315Q552.5156 112.0819 552.1875 111.5819Q551.8594 111.0819 551.8594 110.44128Q551.8594 109.36315 552.5469 108.73815Q553.2344 108.09753 554.375 108.09753Q555.5 108.09753 556.1875 108.73815Q556.8906 109.36315 556.8906 110.44128ZM556.0 114.42565Q556.0 113.7069 555.5469 113.2694Q555.09375 112.81628 554.3594 112.81628Q553.625 112.81628 553.1719 113.2694Q552.7344 113.7069 552.7344 114.44128Q552.7344 115.16003 553.1719 115.5819Q553.6094 115.98815 554.375 115.98815Q555.125 115.98815 555.5625 115.56628Q556.0 115.1444 556.0 114.42565ZM554.375 108.98815Q553.7344 108.98815 553.3281 109.3944Q552.9375 109.78503 552.9375 110.47253Q552.9375 111.11315 553.3281 111.5194Q553.71875 111.92565 554.3594 111.92565Q555.0156 111.92565 555.40625 111.5194Q555.7969 111.11315 555.7969 110.47253Q555.7969 109.81628 555.3906 109.41003Q554.9844 108.98815 554.375 108.98815Z" fill-rule="nonzero"/><path fill="#ea4335" d="M536.2969 116.75378L530.7031 116.75378L530.7031 115.97253L533.65625 112.69128Q534.3125 111.94128 534.5625 111.48815Q534.8125 111.0194 534.8125 110.5194Q534.8125 109.84753 534.40625 109.42565Q534.0156 108.98815 533.3281 108.98815Q532.53125 108.98815 532.0781 109.4569Q531.625 109.91003 531.625 110.73815L530.5469 110.73815Q530.5469 109.55065 531.2969 108.8319Q532.0625 108.09753 533.3281 108.09753Q534.53125 108.09753 535.21875 108.72253Q535.90625 109.34753 535.90625 110.3944Q535.90625 111.6444 534.2969 113.3944L532.0156 115.86315L536.2969 115.86315L536.2969 116.75378ZM542.28125 113.8944L543.46875 113.8944L543.46875 114.7694L542.28125 114.7694L542.28125 116.75378L541.2031 116.75378L541.2031 114.7694L537.3125 114.7694L537.3125 114.12878L541.125 108.22253L542.28125 108.22253L542.28125 113.8944ZM538.5469 113.8944L541.2031 113.8944L541.2031 109.7069L541.0625 109.94128L538.5469 113.8944ZM549.8906 110.44128Q549.8906 111.0819 549.5469 111.5819Q549.2031 112.0819 548.6406 112.36315Q549.2969 112.6444 549.6875 113.2069Q550.0781 113.75378 550.0781 114.4569Q550.0781 115.55065 549.3281 116.22253Q548.59375 116.87878 547.375 116.87878Q546.1406 116.87878 545.3906 116.22253Q544.65625 115.55065 544.65625 114.4569Q544.65625 113.75378 545.03125 113.2069Q545.40625 112.6444 546.0781 112.36315Q545.5156 112.0819 545.1875 111.5819Q544.8594 111.0819 544.8594 110.44128Q544.8594 109.36315 545.5469 108.73815Q546.2344 108.09753 547.375 108.09753Q548.5 108.09753 549.1875 108.73815Q549.8906 109.36315 549.8906 110.44128ZM549.0 114.42565Q549.0 113.7069 548.5469 113.2694Q548.09375 112.81628 547.3594 112.81628Q546.625 112.81628 546.1719 113.2694Q545.7344 113.7069 545.7344 114.44128Q545.7344 115.16003 546.1719 115.5819Q546.6094 115.98815 547.375 115.98815Q548.125 115.98815 548.5625 115.56628Q549.0 115.1444 549.0 114.42565ZM547.375 108.98815Q546.7344 108.98815 546.3281 109.3944Q545.9375 109.78503 545.9375 110.47253Q545.9375 111.11315 546.3281 111.5194Q546.71875 111.92565 547.3594 111.92565Q548.0156 111.92565 548.40625 111.5194Q548.7969 111.11315 548.7969 110.47253Q548.7969 109.81628 548.3906 109.41003Q547.9844 108.98815 547.375 108.98815ZM556.8906 110.44128Q556.8906 111.0819 556.5469 111.5819Q556.2031 112.0819 555.6406 112.36315Q556.2969 112.6444 556.6875 113.2069Q557.0781 113.75378 557.0781 114.4569Q557.0781 115.55065 556.3281 116.22253Q555.59375 116.87878 554.375 116.87878Q553.1406 116.87878 552.3906 116.22253Q551.65625 115.55065 551.65625 114.4569Q551.65625 113.75378 552.03125 113.2069Q552.40625 112.6444 553.0781 112.36315Q552.5156 112.0819 552.1875 111.5819Q551.8594 111.0819 551.8594 110.44128Q551.8594 109.36315 552.5469 108.73815Q553.2344 108.09753 554.375 108.09753Q555.5 108.09753 556.1875 108.73815Q556.8906 109.36315 556.8906 110.44128ZM556.0 114.42565Q556.0 113.7069 555.5469 113.2694Q555.09375 112.81628 554.3594 112.81628Q553.625 112.81628 553.1719 113.2694Q552.7344 113.7069 552.7344 114.44128Q552.7344 115.16003 553.1719 115.5819Q553.6094 115.98815 554.375 115.98815Q555.125 115.98815 555.5625 115.56628Q556.0 115.1444 556.0 114.42565ZM554.375 108.98815Q553.7344 108.98815 553.3281 109.3944Q552.9375 109.78503 552.9375 110.47253Q552.9375 111.11315 553.3281 111.5194Q553.71875 111.92565 554.3594 111.92565Q555.0156 111.92565 555.40625 111.5194Q555.7969 111.11315 555.7969 110.47253Q555.7969 109.81628 555.3906 109.41003Q554.9844 108.98815 554.375 108.98815Z" fill-rule="nonzero"/><path fill="#000000" d="M330.98438 376.05L330.98438 367.45624L336.78125 367.45624L336.78125 368.47186L332.125 368.47186L332.125 371.1281L336.15625 371.1281L336.15625 372.14374L332.125 372.14374L332.125 376.05L330.98438 376.05ZM337.40625 372.9406Q337.40625 371.20624 338.35938 370.3781Q339.15625 369.6906 340.3125 369.6906Q341.59375 369.6906 342.40625 370.53436Q343.23438 371.3625 343.23438 372.84686Q343.23438 374.05 342.875 374.7375Q342.51562 375.425 341.8125 375.8156Q341.125 376.1906 340.3125 376.1906Q339.01562 376.1906 338.20312 375.3625Q337.40625 374.51874 337.40625 372.9406ZM338.48438 372.9406Q338.48438 374.1281 339.0 374.72186Q339.53125 375.3156 340.3125 375.3156Q341.10938 375.3156 341.625 374.72186Q342.14062 374.1281 342.14062 372.90936Q342.14062 371.7531 341.60938 371.15936Q341.09375 370.5656 340.3125 370.5656Q339.53125 370.5656 339.0 371.15936Q338.48438 371.7375 338.48438 372.9406ZM344.78125 376.05L344.78125 369.83124L345.73438 369.83124L345.73438 370.76874Q346.09375 370.1125 346.39062 369.90936Q346.70312 369.6906 347.07812 369.6906Q347.60938 369.6906 348.15625 370.01874L347.79688 371.0031Q347.40625 370.76874 347.03125 370.76874Q346.67188 370.76874 346.39062 370.9875Q346.125 371.1906 346.01562 371.5656Q345.82812 372.1281 345.82812 372.78436L345.82812 376.05L344.78125 376.05ZM348.79688 376.05L348.79688 369.83124L349.73438 369.83124L349.73438 370.70624Q350.03125 370.2375 350.51562 369.97186Q351.0 369.6906 351.625 369.6906Q352.3125 369.6906 352.75 369.97186Q353.20312 370.2531 353.375 370.76874Q354.125 369.6906 355.29688 369.6906Q356.23438 369.6906 356.71875 370.20624Q357.21875 370.70624 357.21875 371.78436L357.21875 376.05L356.17188 376.05L356.17188 372.1281Q356.17188 371.5031 356.0625 371.22186Q355.96875 370.9406 355.70312 370.76874Q355.4375 370.59686 355.0625 370.59686Q354.40625 370.59686 353.96875 371.03436Q353.54688 371.47186 353.54688 372.4406L353.54688 376.05L352.48438 376.05L352.48438 372.0031Q352.48438 371.3 352.21875 370.95624Q351.96875 370.59686 351.39062 370.59686Q350.9375 370.59686 350.5625 370.83124Q350.1875 371.0656 350.01562 371.51874Q349.84375 371.97186 349.84375 372.8156L349.84375 376.05L348.79688 376.05ZM363.85938 375.28436Q363.26562 375.78436 362.71875 375.9875Q362.1875 376.1906 361.5625 376.1906Q360.53125 376.1906 359.98438 375.6906Q359.4375 375.1906 359.4375 374.40936Q359.4375 373.95624 359.64062 373.58124Q359.84375 373.1906 360.1875 372.97186Q360.53125 372.7375 360.95312 372.6281Q361.25 372.53436 361.89062 372.45624Q363.15625 372.3156 363.76562 372.09686Q363.76562 371.8781 363.76562 371.83124Q363.76562 371.175 363.46875 370.90936Q363.0625 370.5656 362.26562 370.5656Q361.53125 370.5656 361.17188 370.83124Q360.8125 371.08124 360.64062 371.7375L359.60938 371.59686Q359.75 370.9406 360.07812 370.53436Q360.40625 370.1281 361.01562 369.90936Q361.625 369.6906 362.42188 369.6906Q363.21875 369.6906 363.71875 369.8781Q364.21875 370.0656 364.45312 370.34686Q364.6875 370.6281 364.78125 371.0656Q364.82812 371.33124 364.82812 372.03436L364.82812 373.4406Q364.82812 374.90936 364.89062 375.3Q364.96875 375.6906 365.17188 376.05L364.0625 376.05Q363.90625 375.72186 363.85938 375.28436ZM363.76562 372.925Q363.1875 373.15936 362.04688 373.33124Q361.39062 373.425 361.125 373.55Q360.85938 373.65936 360.70312 373.8781Q360.5625 374.09686 360.5625 374.3781Q360.5625 374.8 360.875 375.08124Q361.20312 375.3625 361.8125 375.3625Q362.42188 375.3625 362.89062 375.09686Q363.375 374.83124 363.59375 374.3625Q363.76562 374.0031 363.76562 373.3156L363.76562 372.925ZM366.79688 376.05L366.79688 369.83124L367.73438 369.83124L367.73438 370.70624Q368.42188 369.6906 369.71875 369.6906Q370.28125 369.6906 370.75 369.89374Q371.23438 370.09686 371.46875 370.425Q371.70312 370.7531 371.79688 371.1906Q371.84375 371.4875 371.84375 372.22186L371.84375 376.05L370.79688 376.05L370.79688 372.26874Q370.79688 371.6125 370.67188 371.3Q370.54688 370.9875 370.23438 370.8Q369.92188 370.59686 369.5 370.59686Q368.82812 370.59686 368.32812 371.03436Q367.84375 371.45624 367.84375 372.64374L367.84375 376.05L366.79688 376.05ZM376.09375 375.1125L376.25 376.03436Q375.79688 376.1281 375.45312 376.1281Q374.875 376.1281 374.5625 375.95624Q374.25 375.76874 374.10938 375.47186Q373.98438 375.175 373.98438 374.22186L373.98438 370.64374L373.21875 370.64374L373.21875 369.83124L373.98438 369.83124L373.98438 368.28436L375.03125 367.65936L375.03125 369.83124L376.09375 369.83124L376.09375 370.64374L375.03125 370.64374L375.03125 374.28436Q375.03125 374.7375 375.07812 374.8625Q375.14062 374.9875 375.26562 375.0656Q375.39062 375.14374 375.625 375.14374Q375.8125 375.14374 376.09375 375.1125ZM376.375 374.1906L377.40625 374.03436Q377.5 374.65936 377.89062 374.9875Q378.29688 375.3156 379.03125 375.3156Q379.75 375.3156 380.09375 375.03436Q380.45312 374.7375 380.45312 374.33124Q380.45312 373.97186 380.14062 373.76874Q379.92188 373.6281 379.0625 373.40936Q377.90625 373.1125 377.45312 372.90936Q377.01562 372.6906 376.78125 372.3156Q376.54688 371.9406 376.54688 371.47186Q376.54688 371.0656 376.73438 370.70624Q376.92188 370.34686 377.25 370.1125Q377.5 369.9406 377.92188 369.8156Q378.34375 369.6906 378.84375 369.6906Q379.5625 369.6906 380.10938 369.90936Q380.67188 370.1125 380.9375 370.47186Q381.20312 370.83124 381.29688 371.425L380.26562 371.5656Q380.20312 371.09686 379.85938 370.83124Q379.53125 370.55 378.90625 370.55Q378.1875 370.55 377.875 370.8Q377.5625 371.03436 377.5625 371.3625Q377.5625 371.5656 377.6875 371.72186Q377.82812 371.89374 378.09375 372.0031Q378.25 372.0656 379.03125 372.26874Q380.15625 372.58124 380.59375 372.76874Q381.03125 372.95624 381.28125 373.3156Q381.53125 373.675 381.53125 374.22186Q381.53125 374.7531 381.21875 375.22186Q380.92188 375.675 380.34375 375.9406Q379.76562 376.1906 379.03125 376.1906Q377.8125 376.1906 377.17188 375.6906Q376.54688 375.175 376.375 374.1906Z" fill-rule="nonzero"/><path fill="#000000" d="M30.949987 254.81563L22.356237 254.81563L22.356237 249.01875L23.371862 249.01875L23.371862 253.675L26.028112 253.675L26.028112 249.64375L27.043737 249.64375L27.043737 253.675L30.949987 253.675L30.949987 254.81563ZM30.949987 248.01875L24.731237 248.01875L24.731237 247.06563L25.668737 247.06563Q25.012487 246.70625 24.809362 246.40938Q24.590612 246.09688 24.590612 245.72188Q24.590612 245.19063 24.918737 244.64375L25.903112 245.00313Q25.668737 245.39375 25.668737 245.76875Q25.668737 246.12813 25.887487 246.40938Q26.090612 246.675 26.465612 246.78438Q27.028112 246.97188 27.684362 246.97188L30.949987 246.97188L30.949987 248.01875ZM28.949987 239.75313L29.074987 238.65938Q30.028112 238.90938 30.559362 239.6125Q31.090612 240.31563 31.090612 241.39375Q31.090612 242.75313 30.246862 243.56563Q29.403112 244.3625 27.887487 244.3625Q26.324987 244.3625 25.465612 243.55Q24.590612 242.7375 24.590612 241.45625Q24.590612 240.20625 25.434362 239.425Q26.278112 238.62813 27.824987 238.62813Q27.918737 238.62813 28.106237 238.62813L28.106237 243.26875Q29.137487 243.20625 29.684362 242.69063Q30.215612 242.175 30.215612 241.39375Q30.215612 240.81563 29.918737 240.40938Q29.606237 239.9875 28.949987 239.75313ZM27.246862 243.20625L27.246862 239.7375Q26.449987 239.8 26.059362 240.12813Q25.449987 240.64375 25.449987 241.44063Q25.449987 242.175 25.934362 242.675Q26.418737 243.15938 27.246862 243.20625ZM33.340614 233.03438L30.293737 233.03438Q30.637487 233.28438 30.871862 233.7375Q31.090612 234.175 31.090612 234.675Q31.090612 235.78438 30.215612 236.58125Q29.324987 237.37813 27.778112 237.37813Q26.840612 237.37813 26.106237 237.05Q25.356237 236.72188 24.981237 236.1125Q24.590612 235.4875 24.590612 234.75313Q24.590612 233.59688 25.559362 232.94063L24.731237 232.94063L24.731237 231.9875L33.340614 231.9875L33.340614 233.03438ZM27.824987 236.3Q29.028112 236.3 29.621862 235.8Q30.215612 235.28438 30.215612 234.58125Q30.215612 233.90938 29.653112 233.425Q29.074987 232.94063 27.918737 232.94063Q26.668737 232.94063 26.043737 233.45625Q25.418737 233.95625 25.418737 234.65938Q25.418737 235.33125 26.012487 235.81563Q26.590612 236.3 27.824987 236.3ZM30.949987 225.925L30.028112 225.925Q31.090612 226.65938 31.090612 227.90938Q31.090612 228.45625 30.887487 228.94063Q30.668737 229.40938 30.356237 229.64375Q30.028112 229.87813 29.559362 229.97188Q29.262487 230.03438 28.574987 230.03438L24.731237 230.03438L24.731237 228.97188L28.184362 228.97188Q28.996862 228.97188 29.293737 228.90938Q29.699987 228.81563 29.949987 228.50313Q30.184362 228.175 30.184362 227.69063Q30.184362 227.22188 29.949987 226.81563Q29.699987 226.39375 29.278112 226.22188Q28.856237 226.03438 28.059362 226.03438L24.731237 226.03438L24.731237 224.9875L30.949987 224.9875L30.949987 225.925ZM28.949987 218.75313L29.074987 217.65938Q30.028112 217.90938 30.559362 218.6125Q31.090612 219.31563 31.090612 220.39375Q31.090612 221.75313 30.246862 222.56563Q29.403112 223.3625 27.887487 223.3625Q26.324987 223.3625 25.465612 222.55Q24.590612 221.7375 24.590612 220.45625Q24.590612 219.20625 25.434362 218.425Q26.278112 217.62813 27.824987 217.62813Q27.918737 217.62813 28.106237 217.62813L28.106237 222.26875Q29.137487 222.20625 29.684362 221.69063Q30.215612 221.175 30.215612 220.39375Q30.215612 219.81563 29.918737 219.40938Q29.606237 218.9875 28.949987 218.75313ZM27.246862 222.20625L27.246862 218.7375Q26.449987 218.8 26.059362 219.12813Q25.449987 219.64375 25.449987 220.44063Q25.449987 221.175 25.934362 221.675Q26.418737 222.15938 27.246862 222.20625ZM30.949987 216.00313L24.731237 216.00313L24.731237 215.06563L25.606237 215.06563Q24.590612 214.37813 24.590612 213.08125Q24.590612 212.51875 24.793737 212.05Q24.996862 211.56563 25.324987 211.33125Q25.653112 211.09688 26.090612 211.00313Q26.387487 210.95625 27.121862 210.95625L30.949987 210.95625L30.949987 212.00313L27.168737 212.00313Q26.512487 212.00313 26.199987 212.12813Q25.887487 212.25313 25.699987 212.56563Q25.496862 212.87813 25.496862 213.3Q25.496862 213.97188 25.934362 214.47188Q26.356237 214.95625 27.543737 214.95625L30.949987 214.95625L30.949987 216.00313ZM28.668737 204.94063L28.809362 203.90938Q29.871862 204.08125 30.481237 204.78438Q31.090612 205.4875 31.090612 206.50313Q31.090612 207.78438 30.262487 208.56563Q29.418737 209.33125 27.856237 209.33125Q26.856237 209.33125 26.106237 209.00313Q25.340612 208.65938 24.965612 207.9875Q24.590612 207.3 24.590612 206.4875Q24.590612 205.4875 25.106237 204.84688Q25.606237 204.19063 26.559362 204.00313L26.715612 205.03438Q26.090612 205.175 25.778112 205.55Q25.449987 205.925 25.449987 206.45625Q25.449987 207.25313 26.028112 207.75313Q26.590612 208.25313 27.824987 208.25313Q29.090612 208.25313 29.653112 207.76875Q30.215612 207.28438 30.215612 206.51875Q30.215612 205.89375 29.840612 205.4875Q29.465612 205.06563 28.668737 204.94063ZM33.340614 203.05L32.35624 203.175Q32.44999 202.83125 32.44999 202.56563Q32.44999 202.22188 32.32499 202.01875Q32.215614 201.8 32.01249 201.65938Q31.840612 201.56563 31.215612 201.33125Q31.137487 201.31563 30.965612 201.2375L24.731237 203.6125L24.731237 202.47188L28.324987 201.175Q29.012487 200.925 29.778112 200.72188Q29.043737 200.53438 28.356237 200.28438L24.731237 198.95625L24.731237 197.90938L31.059362 200.26875Q32.07499 200.65938 32.465614 200.8625Q32.996864 201.14375 33.23124 201.51875Q33.48124 201.87813 33.48124 202.37813Q33.48124 202.675 33.340614 203.05ZM33.48124 192.9875Q32.371864 193.8625 30.903112 194.47188Q29.418737 195.06563 27.840612 195.06563Q26.449987 195.06563 25.168737 194.62813Q23.684362 194.09688 22.215612 192.9875L22.215612 192.2375Q23.434362 192.94063 23.949987 193.175Q24.762487 193.53438 25.637487 193.7375Q26.731237 193.9875 27.840612 193.9875Q30.668737 193.9875 33.48124 192.2375L33.48124 192.9875ZM30.949987 191.00313L22.356237 191.00313L22.356237 189.95625L25.434362 189.95625Q24.590612 189.22188 24.590612 188.09688Q24.590612 187.39375 24.871862 186.89375Q25.137487 186.37813 25.621862 186.15938Q26.090612 185.94063 27.012487 185.94063L30.949987 185.94063L30.949987 186.9875L27.012487 186.9875Q26.215612 186.9875 25.856237 187.33125Q25.496862 187.675 25.496862 188.3Q25.496862 188.76875 25.746862 189.19063Q25.981237 189.59688 26.403112 189.78438Q26.809362 189.95625 27.543737 189.95625L30.949987 189.95625L30.949987 191.00313ZM30.949987 184.56563L30.090612 184.56563L25.543737 180.59688Q25.574987 181.28438 25.574987 181.8L25.574987 184.33125L24.731237 184.33125L24.731237 179.2375L25.418737 179.2375L29.371862 182.6125L30.090612 183.26875Q30.043737 182.55 30.043737 181.94063L30.043737 179.05L30.949987 179.05L30.949987 184.56563ZM33.48124 178.31563L33.48124 179.06563Q30.668737 177.31563 27.840612 177.31563Q26.746862 177.31563 25.653112 177.56563Q24.778112 177.76875 23.965612 178.12813Q23.449987 178.3625 22.215612 179.06563L22.215612 178.31563Q23.684362 177.22188 25.168737 176.69063Q26.449987 176.2375 27.840612 176.2375Q29.418737 176.2375 30.903112 176.84688Q32.371864 177.45625 33.48124 178.31563Z" fill-rule="nonzero"/><path fill="#000000" d="M73.45 326.8156Q73.45 325.28436 73.7625 324.3625Q74.075 323.425 74.68437 322.925Q75.30937 322.425 76.24687 322.425Q76.93437 322.425 77.45 322.70624Q77.98125 322.9875 78.325 323.51874Q78.66875 324.03436 78.85625 324.78436Q79.04375 325.53436 79.04375 326.8156Q79.04375 328.33124 78.73125 329.2531Q78.43437 330.175 77.80937 330.6906Q77.2 331.1906 76.24687 331.1906Q75.0125 331.1906 74.29375 330.3Q73.45 329.2375 73.45 326.8156ZM74.52812 326.8156Q74.52812 328.925 75.02812 329.6281Q75.52812 330.33124 76.24687 330.33124Q76.98125 330.33124 77.46562 329.6281Q77.96562 328.925 77.96562 326.8156Q77.96562 324.6906 77.46562 324.0031Q76.98125 323.3 76.23125 323.3Q75.5125 323.3 75.075 323.90936Q74.52812 324.6906 74.52812 326.8156Z" fill-rule="nonzero"/><path fill="#000000" d="M59.45 289.55L60.559376 289.45624Q60.684376 290.26874 61.121876 290.675Q61.575 291.08124 62.215626 291.08124Q62.965626 291.08124 63.496876 290.5031Q64.02812 289.925 64.02812 288.9875Q64.02812 288.08124 63.5125 287.5656Q63.0125 287.03436 62.184376 287.03436Q61.684376 287.03436 61.2625 287.26874Q60.85625 287.5031 60.621876 287.8625L59.6375 287.7375L60.465626 283.33124L64.74687 283.33124L64.74687 284.33124L61.309376 284.33124L60.85625 286.64374Q61.621876 286.09686 62.465626 286.09686Q63.590626 286.09686 64.35625 286.8781Q65.1375 287.65936 65.1375 288.89374Q65.1375 290.05 64.46562 290.90936Q63.6375 291.9406 62.215626 291.9406Q61.04375 291.9406 60.29375 291.28436Q59.559376 290.6281 59.45 289.55ZM66.45 287.5656Q66.45 286.03436 66.7625 285.1125Q67.075 284.175 67.68437 283.675Q68.30937 283.175 69.24687 283.175Q69.93437 283.175 70.45 283.45624Q70.98125 283.7375 71.325 284.26874Q71.66875 284.78436 71.85625 285.53436Q72.04375 286.28436 72.04375 287.5656Q72.04375 289.08124 71.73125 290.0031Q71.43437 290.925 70.80937 291.4406Q70.2 291.9406 69.24687 291.9406Q68.0125 291.9406 67.29375 291.05Q66.45 289.9875 66.45 287.5656ZM67.52812 287.5656Q67.52812 289.675 68.02812 290.3781Q68.52812 291.08124 69.24687 291.08124Q69.98125 291.08124 70.46562 290.3781Q70.96562 289.675 70.96562 287.5656Q70.96562 285.4406 70.46562 284.7531Q69.98125 284.05 69.23125 284.05Q68.5125 284.05 68.075 284.65936Q67.52812 285.4406 67.52812 287.5656ZM73.45 287.5656Q73.45 286.03436 73.7625 285.1125Q74.075 284.175 74.68437 283.675Q75.30937 283.175 76.24687 283.175Q76.93437 283.175 77.45 283.45624Q77.98125 283.7375 78.325 284.26874Q78.66875 284.78436 78.85625 285.53436Q79.04375 286.28436 79.04375 287.5656Q79.04375 289.08124 78.73125 290.0031Q78.43437 290.925 77.80937 291.4406Q77.2 291.9406 76.24687 291.9406Q75.0125 291.9406 74.29375 291.05Q73.45 289.9875 73.45 287.5656ZM74.52812 287.5656Q74.52812 289.675 75.02812 290.3781Q75.52812 291.08124 76.24687 291.08124Q76.98125 291.08124 77.46562 290.3781Q77.96562 289.675 77.96562 287.5656Q77.96562 285.4406 77.46562 284.7531Q76.98125 284.05 76.23125 284.05Q75.5125 284.05 75.075 284.65936Q74.52812 285.4406 74.52812 287.5656Z" fill-rule="nonzero"/><path fill="#000000" d="M56.41875 252.55L55.371876 252.55L55.371876 245.83125Q54.98125 246.19063 54.35625 246.56563Q53.746876 246.925 53.2625 247.09688L53.2625 246.08125Q54.1375 245.65938 54.79375 245.08125Q55.465626 244.4875 55.746876 243.925L56.41875 243.925L56.41875 252.55ZM59.45 248.31563Q59.45 246.78438 59.7625 245.8625Q60.075 244.925 60.684376 244.425Q61.309376 243.925 62.246876 243.925Q62.934376 243.925 63.45 244.20625Q63.98125 244.4875 64.325 245.01875Q64.66875 245.53438 64.85625 246.28438Q65.04375 247.03438 65.04375 248.31563Q65.04375 249.83125 64.73125 250.75313Q64.43437 251.675 63.809376 252.19063Q63.2 252.69063 62.246876 252.69063Q61.0125 252.69063 60.29375 251.8Q59.45 250.7375 59.45 248.31563ZM60.528126 248.31563Q60.528126 250.425 61.028126 251.12813Q61.528126 251.83125 62.246876 251.83125Q62.98125 251.83125 63.465626 251.12813Q63.965626 250.425 63.965626 248.31563Q63.965626 246.19063 63.465626 245.50313Q62.98125 244.8 62.23125 244.8Q61.5125 244.8 61.075 245.40938Q60.528126 246.19063 60.528126 248.31563ZM66.45 248.31563Q66.45 246.78438 66.7625 245.8625Q67.075 244.925 67.68437 244.425Q68.30937 243.925 69.24687 243.925Q69.93437 243.925 70.45 244.20625Q70.98125 244.4875 71.325 245.01875Q71.66875 245.53438 71.85625 246.28438Q72.04375 247.03438 72.04375 248.31563Q72.04375 249.83125 71.73125 250.75313Q71.43437 251.675 70.80937 252.19063Q70.2 252.69063 69.24687 252.69063Q68.0125 252.69063 67.29375 251.8Q66.45 250.7375 66.45 248.31563ZM67.52812 248.31563Q67.52812 250.425 68.02812 251.12813Q68.52812 251.83125 69.24687 251.83125Q69.98125 251.83125 70.46562 251.12813Q70.96562 250.425 70.96562 248.31563Q70.96562 246.19063 70.46562 245.50313Q69.98125 244.8 69.23125 244.8Q68.5125 244.8 68.075 245.40938Q67.52812 246.19063 67.52812 248.31563ZM73.45 248.31563Q73.45 246.78438 73.7625 245.8625Q74.075 244.925 74.68437 244.425Q75.30937 243.925 76.24687 243.925Q76.93437 243.925 77.45 244.20625Q77.98125 244.4875 78.325 245.01875Q78.66875 245.53438 78.85625 246.28438Q79.04375 247.03438 79.04375 248.31563Q79.04375 249.83125 78.73125 250.75313Q78.43437 251.675 77.80937 252.19063Q77.2 252.69063 76.24687 252.69063Q75.0125 252.69063 74.29375 251.8Q73.45 250.7375 73.45 248.31563ZM74.52812 248.31563Q74.52812 250.425 75.02812 251.12813Q75.52812 251.83125 76.24687 251.83125Q76.98125 251.83125 77.46562 251.12813Q77.96562 250.425 77.96562 248.31563Q77.96562 246.19063 77.46562 245.50313Q76.98125 244.8 76.23125 244.8Q75.5125 244.8 75.075 245.40938Q74.52812 246.19063 74.52812 248.31563Z" fill-rule="nonzero"/><path fill="#000000" d="M56.41875 213.3L55.371876 213.3L55.371876 206.58125Q54.98125 206.94063 54.35625 207.31563Q53.746876 207.675 53.2625 207.84688L53.2625 206.83125Q54.1375 206.40938 54.79375 205.83125Q55.465626 205.2375 55.746876 204.675L56.41875 204.675L56.41875 213.3ZM59.45 211.05L60.559376 210.95625Q60.684376 211.76875 61.121876 212.175Q61.575 212.58125 62.215626 212.58125Q62.965626 212.58125 63.496876 212.00313Q64.02812 211.425 64.02812 210.4875Q64.02812 209.58125 63.5125 209.06563Q63.0125 208.53438 62.184376 208.53438Q61.684376 208.53438 61.2625 208.76875Q60.85625 209.00313 60.621876 209.3625L59.6375 209.2375L60.465626 204.83125L64.74687 204.83125L64.74687 205.83125L61.309376 205.83125L60.85625 208.14375Q61.621876 207.59688 62.465626 207.59688Q63.590626 207.59688 64.35625 208.37813Q65.1375 209.15938 65.1375 210.39375Q65.1375 211.55 64.46562 212.40938Q63.6375 213.44063 62.215626 213.44063Q61.04375 213.44063 60.29375 212.78438Q59.559376 212.12813 59.45 211.05ZM66.45 209.06563Q66.45 207.53438 66.7625 206.6125Q67.075 205.675 67.68437 205.175Q68.30937 204.675 69.24687 204.675Q69.93437 204.675 70.45 204.95625Q70.98125 205.2375 71.325 205.76875Q71.66875 206.28438 71.85625 207.03438Q72.04375 207.78438 72.04375 209.06563Q72.04375 210.58125 71.73125 211.50313Q71.43437 212.425 70.80937 212.94063Q70.2 213.44063 69.24687 213.44063Q68.0125 213.44063 67.29375 212.55Q66.45 211.4875 66.45 209.06563ZM67.52812 209.06563Q67.52812 211.175 68.02812 211.87813Q68.52812 212.58125 69.24687 212.58125Q69.98125 212.58125 70.46562 211.87813Q70.96562 211.175 70.96562 209.06563Q70.96562 206.94063 70.46562 206.25313Q69.98125 205.55 69.23125 205.55Q68.5125 205.55 68.075 206.15938Q67.52812 206.94063 67.52812 209.06563ZM73.45 209.06563Q73.45 207.53438 73.7625 206.6125Q74.075 205.675 74.68437 205.175Q75.30937 204.675 76.24687 204.675Q76.93437 204.675 77.45 204.95625Q77.98125 205.2375 78.325 205.76875Q78.66875 206.28438 78.85625 207.03438Q79.04375 207.78438 79.04375 209.06563Q79.04375 210.58125 78.73125 211.50313Q78.43437 212.425 77.80937 212.94063Q77.2 213.44063 76.24687 213.44063Q75.0125 213.44063 74.29375 212.55Q73.45 211.4875 73.45 209.06563ZM74.52812 209.06563Q74.52812 211.175 75.02812 211.87813Q75.52812 212.58125 76.24687 212.58125Q76.98125 212.58125 77.46562 211.87813Q77.96562 211.175 77.96562 209.06563Q77.96562 206.94063 77.46562 206.25313Q76.98125 205.55 76.23125 205.55Q75.5125 205.55 75.075 206.15938Q74.52812 206.94063 74.52812 209.06563Z" fill-rule="nonzero"/><path fill="#000000" d="M57.996876 173.03438L57.996876 174.05L52.309376 174.05Q52.309376 173.675 52.434376 173.31563Q52.653126 172.7375 53.121876 172.175Q53.60625 171.6125 54.5125 170.87813Q55.91875 169.72188 56.403126 169.05Q56.903126 168.37813 56.903126 167.78438Q56.903126 167.15938 56.45 166.7375Q55.996876 166.3 55.278126 166.3Q54.5125 166.3 54.059376 166.75313Q53.60625 167.20625 53.590626 168.01875L52.5125 167.90938Q52.621876 166.69063 53.340626 166.06563Q54.075 165.425 55.309376 165.425Q56.54375 165.425 57.2625 166.1125Q57.98125 166.8 57.98125 167.81563Q57.98125 168.33125 57.7625 168.83125Q57.559376 169.31563 57.059376 169.87813Q56.575 170.425 55.45 171.37813Q54.496876 172.175 54.215626 172.47188Q53.95 172.75313 53.778126 173.03438L57.996876 173.03438ZM59.45 169.81563Q59.45 168.28438 59.7625 167.3625Q60.075 166.425 60.684376 165.925Q61.309376 165.425 62.246876 165.425Q62.934376 165.425 63.45 165.70625Q63.98125 165.9875 64.325 166.51875Q64.66875 167.03438 64.85625 167.78438Q65.04375 168.53438 65.04375 169.81563Q65.04375 171.33125 64.73125 172.25313Q64.43437 173.175 63.809376 173.69063Q63.2 174.19063 62.246876 174.19063Q61.0125 174.19063 60.29375 173.3Q59.45 172.2375 59.45 169.81563ZM60.528126 169.81563Q60.528126 171.925 61.028126 172.62813Q61.528126 173.33125 62.246876 173.33125Q62.98125 173.33125 63.465626 172.62813Q63.965626 171.925 63.965626 169.81563Q63.965626 167.69063 63.465626 167.00313Q62.98125 166.3 62.23125 166.3Q61.5125 166.3 61.075 166.90938Q60.528126 167.69063 60.528126 169.81563ZM66.45 169.81563Q66.45 168.28438 66.7625 167.3625Q67.075 166.425 67.68437 165.925Q68.30937 165.425 69.24687 165.425Q69.93437 165.425 70.45 165.70625Q70.98125 165.9875 71.325 166.51875Q71.66875 167.03438 71.85625 167.78438Q72.04375 168.53438 72.04375 169.81563Q72.04375 171.33125 71.73125 172.25313Q71.43437 173.175 70.80937 173.69063Q70.2 174.19063 69.24687 174.19063Q68.0125 174.19063 67.29375 173.3Q66.45 172.2375 66.45 169.81563ZM67.52812 169.81563Q67.52812 171.925 68.02812 172.62813Q68.52812 173.33125 69.24687 173.33125Q69.98125 173.33125 70.46562 172.62813Q70.96562 171.925 70.96562 169.81563Q70.96562 167.69063 70.46562 167.00313Q69.98125 166.3 69.23125 166.3Q68.5125 166.3 68.075 166.90938Q67.52812 167.69063 67.52812 169.81563ZM73.45 169.81563Q73.45 168.28438 73.7625 167.3625Q74.075 166.425 74.68437 165.925Q75.30937 165.425 76.24687 165.425Q76.93437 165.425 77.45 165.70625Q77.98125 165.9875 78.325 166.51875Q78.66875 167.03438 78.85625 167.78438Q79.04375 168.53438 79.04375 169.81563Q79.04375 171.33125 78.73125 172.25313Q78.43437 173.175 77.80937 173.69063Q77.2 174.19063 76.24687 174.19063Q75.0125 174.19063 74.29375 173.3Q73.45 172.2375 73.45 169.81563ZM74.52812 169.81563Q74.52812 171.925 75.02812 172.62813Q75.52812 173.33125 76.24687 173.33125Q76.98125 173.33125 77.46562 172.62813Q77.96562 171.925 77.96562 169.81563Q77.96562 167.69063 77.46562 167.00313Q76.98125 166.3 76.23125 166.3Q75.5125 166.3 75.075 166.90938Q74.52812 167.69063 74.52812 169.81563Z" fill-rule="nonzero"/><path fill="#000000" d="M57.996876 133.78438L57.996876 134.8L52.309376 134.8Q52.309376 134.425 52.434376 134.06563Q52.653126 133.4875 53.121876 132.925Q53.60625 132.3625 54.5125 131.62813Q55.91875 130.47188 56.403126 129.8Q56.903126 129.12813 56.903126 128.53438Q56.903126 127.90938 56.45 127.4875Q55.996876 127.05 55.278126 127.05Q54.5125 127.05 54.059376 127.50313Q53.60625 127.95625 53.590626 128.76875L52.5125 128.65938Q52.621876 127.44063 53.340626 126.81563Q54.075 126.175 55.309376 126.175Q56.54375 126.175 57.2625 126.8625Q57.98125 127.55 57.98125 128.56563Q57.98125 129.08125 57.7625 129.58125Q57.559376 130.06563 57.059376 130.62813Q56.575 131.175 55.45 132.12813Q54.496876 132.925 54.215626 133.22188Q53.95 133.50313 53.778126 133.78438L57.996876 133.78438ZM59.45 132.55L60.559376 132.45625Q60.684376 133.26875 61.121876 133.675Q61.575 134.08125 62.215626 134.08125Q62.965626 134.08125 63.496876 133.50313Q64.02812 132.925 64.02812 131.9875Q64.02812 131.08125 63.5125 130.56563Q63.0125 130.03438 62.184376 130.03438Q61.684376 130.03438 61.2625 130.26875Q60.85625 130.50313 60.621876 130.8625L59.6375 130.7375L60.465626 126.33125L64.74687 126.33125L64.74687 127.33125L61.309376 127.33125L60.85625 129.64375Q61.621876 129.09688 62.465626 129.09688Q63.590626 129.09688 64.35625 129.87813Q65.1375 130.65938 65.1375 131.89375Q65.1375 133.05 64.46562 133.90938Q63.6375 134.94063 62.215626 134.94063Q61.04375 134.94063 60.29375 134.28438Q59.559376 133.62813 59.45 132.55ZM66.45 130.56563Q66.45 129.03438 66.7625 128.1125Q67.075 127.175 67.68437 126.675Q68.30937 126.175 69.24687 126.175Q69.93437 126.175 70.45 126.45625Q70.98125 126.7375 71.325 127.26875Q71.66875 127.78438 71.85625 128.53438Q72.04375 129.28438 72.04375 130.56563Q72.04375 132.08125 71.73125 133.00313Q71.43437 133.925 70.80937 134.44063Q70.2 134.94063 69.24687 134.94063Q68.0125 134.94063 67.29375 134.05Q66.45 132.9875 66.45 130.56563ZM67.52812 130.56563Q67.52812 132.675 68.02812 133.37813Q68.52812 134.08125 69.24687 134.08125Q69.98125 134.08125 70.46562 133.37813Q70.96562 132.675 70.96562 130.56563Q70.96562 128.44063 70.46562 127.75313Q69.98125 127.05 69.23125 127.05Q68.5125 127.05 68.075 127.65938Q67.52812 128.44063 67.52812 130.56563ZM73.45 130.56563Q73.45 129.03438 73.7625 128.1125Q74.075 127.175 74.68437 126.675Q75.30937 126.175 76.24687 126.175Q76.93437 126.175 77.45 126.45625Q77.98125 126.7375 78.325 127.26875Q78.66875 127.78438 78.85625 128.53438Q79.04375 129.28438 79.04375 130.56563Q79.04375 132.08125 78.73125 133.00313Q78.43437 133.925 77.80937 134.44063Q77.2 134.94063 76.24687 134.94063Q75.0125 134.94063 74.29375 134.05Q73.45 132.9875 73.45 130.56563ZM74.52812 130.56563Q74.52812 132.675 75.02812 133.37813Q75.52812 134.08125 76.24687 134.08125Q76.98125 134.08125 77.46562 133.37813Q77.96562 132.675 77.96562 130.56563Q77.96562 128.44063 77.46562 127.75313Q76.98125 127.05 76.23125 127.05Q75.5125 127.05 75.075 127.65938Q74.52812 128.44063 74.52812 130.56563Z" fill-rule="nonzero"/><path fill="#000000" d="M52.45 93.28438L53.5125 93.14375Q53.684376 94.03438 54.121876 94.44063Q54.559376 94.83125 55.184376 94.83125Q55.934376 94.83125 56.45 94.31563Q56.965626 93.8 56.965626 93.03438Q56.965626 92.31563 56.48125 91.84688Q56.0125 91.3625 55.278126 91.3625Q54.98125 91.3625 54.528126 91.4875L54.653126 90.55Q54.7625 90.56563 54.825 90.56563Q55.496876 90.56563 56.028126 90.22188Q56.575 89.8625 56.575 89.12813Q56.575 88.55 56.184376 88.175Q55.79375 87.78438 55.16875 87.78438Q54.559376 87.78438 54.1375 88.175Q53.73125 88.56563 53.621876 89.33125L52.559376 89.14375Q52.746876 88.09688 53.434376 87.51875Q54.121876 86.925 55.1375 86.925Q55.840626 86.925 56.434376 87.2375Q57.028126 87.53438 57.340626 88.05Q57.653126 88.56563 57.653126 89.15938Q57.653126 89.70625 57.35625 90.175Q57.059376 90.62813 56.48125 90.89375Q57.23125 91.06563 57.653126 91.62813Q58.075 92.175 58.075 93.01875Q58.075 94.14375 57.246876 94.925Q56.434376 95.70625 55.184376 95.70625Q54.059376 95.70625 53.309376 95.03438Q52.559376 94.34688 52.45 93.28438ZM59.45 91.31563Q59.45 89.78438 59.7625 88.8625Q60.075 87.925 60.684376 87.425Q61.309376 86.925 62.246876 86.925Q62.934376 86.925 63.45 87.20625Q63.98125 87.4875 64.325 88.01875Q64.66875 88.53438 64.85625 89.28438Q65.04375 90.03438 65.04375 91.31563Q65.04375 92.83125 64.73125 93.75313Q64.43437 94.675 63.809376 95.19063Q63.2 95.69063 62.246876 95.69063Q61.0125 95.69063 60.29375 94.8Q59.45 93.7375 59.45 91.31563ZM60.528126 91.31563Q60.528126 93.425 61.028126 94.12813Q61.528126 94.83125 62.246876 94.83125Q62.98125 94.83125 63.465626 94.12813Q63.965626 93.425 63.965626 91.31563Q63.965626 89.19063 63.465626 88.50313Q62.98125 87.8 62.23125 87.8Q61.5125 87.8 61.075 88.40938Q60.528126 89.19063 60.528126 91.31563ZM66.45 91.31563Q66.45 89.78438 66.7625 88.8625Q67.075 87.925 67.68437 87.425Q68.30937 86.925 69.24687 86.925Q69.93437 86.925 70.45 87.20625Q70.98125 87.4875 71.325 88.01875Q71.66875 88.53438 71.85625 89.28438Q72.04375 90.03438 72.04375 91.31563Q72.04375 92.83125 71.73125 93.75313Q71.43437 94.675 70.80937 95.19063Q70.2 95.69063 69.24687 95.69063Q68.0125 95.69063 67.29375 94.8Q66.45 93.7375 66.45 91.31563ZM67.52812 91.31563Q67.52812 93.425 68.02812 94.12813Q68.52812 94.83125 69.24687 94.83125Q69.98125 94.83125 70.46562 94.12813Q70.96562 93.425 70.96562 91.31563Q70.96562 89.19063 70.46562 88.50313Q69.98125 87.8 69.23125 87.8Q68.5125 87.8 68.075 88.40938Q67.52812 89.19063 67.52812 91.31563ZM73.45 91.31563Q73.45 89.78438 73.7625 88.8625Q74.075 87.925 74.68437 87.425Q75.30937 86.925 76.24687 86.925Q76.93437 86.925 77.45 87.20625Q77.98125 87.4875 78.325 88.01875Q78.66875 88.53438 78.85625 89.28438Q79.04375 90.03438 79.04375 91.31563Q79.04375 92.83125 78.73125 93.75313Q78.43437 94.675 77.80937 95.19063Q77.2 95.69063 76.24687 95.69063Q75.0125 95.69063 74.29375 94.8Q73.45 93.7375 73.45 91.31563ZM74.52812 91.31563Q74.52812 93.425 75.02812 94.12813Q75.52812 94.83125 76.24687 94.83125Q76.98125 94.83125 77.46562 94.12813Q77.96562 93.425 77.96562 91.31563Q77.96562 89.19063 77.46562 88.50313Q76.98125 87.8 76.23125 87.8Q75.5125 87.8 75.075 88.40938Q74.52812 89.19063 74.52812 91.31563Z" fill-rule="nonzero"/><path fill="#000000" d="M188.96199 344.05L188.96199 335.45624L194.75887 335.45624L194.75887 336.47186L190.10262 336.47186L190.10262 339.1281L194.13387 339.1281L194.13387 340.14374L190.10262 340.14374L190.10262 344.05L188.96199 344.05ZM199.44637 344.05L198.39949 344.05L198.39949 337.33124Q198.00887 337.6906 197.38387 338.0656Q196.77449 338.425 196.29012 338.59686L196.29012 337.58124Q197.16512 337.15936 197.82137 336.58124Q198.49324 335.9875 198.77449 335.425L199.44637 335.425L199.44637 344.05Z" fill-rule="nonzero"/><path fill="#000000" d="M350.48438 344.05L350.48438 335.45624L356.28125 335.45624L356.28125 336.47186L351.625 336.47186L351.625 339.1281L355.65625 339.1281L355.65625 340.14374L351.625 340.14374L351.625 344.05L350.48438 344.05ZM362.54688 343.03436L362.54688 344.05L356.85938 344.05Q356.85938 343.675 356.98438 343.3156Q357.20312 342.7375 357.67188 342.175Q358.15625 341.6125 359.0625 340.8781Q360.46875 339.72186 360.95312 339.05Q361.45312 338.3781 361.45312 337.78436Q361.45312 337.15936 361.0 336.7375Q360.54688 336.3 359.82812 336.3Q359.0625 336.3 358.60938 336.7531Q358.15625 337.20624 358.14062 338.01874L357.0625 337.90936Q357.17188 336.6906 357.89062 336.0656Q358.625 335.425 359.85938 335.425Q361.09375 335.425 361.8125 336.1125Q362.53125 336.8 362.53125 337.8156Q362.53125 338.33124 362.3125 338.83124Q362.10938 339.3156 361.60938 339.8781Q361.125 340.425 360.0 341.3781Q359.04688 342.175 358.76562 342.47186Q358.5 342.7531 358.32812 343.03436L362.54688 343.03436Z" fill-rule="nonzero"/><path fill="#000000" d="M512.0068 344.05L512.0068 335.45624L517.80365 335.45624L517.80365 336.47186L513.1474 336.47186L513.1474 339.1281L517.17865 339.1281L517.17865 340.14374L513.1474 340.14374L513.1474 344.05L512.0068 344.05ZM518.5224 341.78436L519.5849 341.64374Q519.7568 342.53436 520.1943 342.9406Q520.6318 343.33124 521.2568 343.33124Q522.0068 343.33124 522.5224 342.8156Q523.038 342.3 523.038 341.53436Q523.038 340.8156 522.55365 340.34686Q522.0849 339.8625 521.3505 339.8625Q521.05365 339.8625 520.6005 339.9875L520.7255 339.05Q520.8349 339.0656 520.8974 339.0656Q521.5693 339.0656 522.1005 338.72186Q522.6474 338.3625 522.6474 337.6281Q522.6474 337.05 522.2568 336.675Q521.86615 336.28436 521.24115 336.28436Q520.6318 336.28436 520.2099 336.675Q519.80365 337.0656 519.6943 337.83124L518.6318 337.64374Q518.8193 336.59686 519.5068 336.01874Q520.1943 335.425 521.2099 335.425Q521.913 335.425 522.5068 335.7375Q523.1005 336.03436 523.413 336.55Q523.7255 337.0656 523.7255 337.65936Q523.7255 338.20624 523.42865 338.675Q523.1318 339.1281 522.55365 339.39374Q523.30365 339.5656 523.7255 340.1281Q524.1474 340.675 524.1474 341.51874Q524.1474 342.64374 523.3193 343.425Q522.5068 344.20624 521.2568 344.20624Q520.1318 344.20624 519.3818 343.53436Q518.6318 342.84686 518.5224 341.78436Z" fill-rule="nonzero"/><path fill="#4285f4" d="M261.5 59.25C261.5 58.697716 261.94772 58.25 262.5 58.25L272.5 58.25C273.05228 58.25 273.5 58.697716 273.5 59.25L273.5 69.25C273.5 69.802284 273.05228 70.25 272.5 70.25L262.5 70.25C261.94772 70.25 261.5 69.802284 261.5 69.25Z" fill-rule="nonzero"/><path fill="#1a1a1a" d="M282.39062 68.25L282.39062 59.65625L284.10938 59.65625L286.14062 65.734375Q286.42188 66.59375 286.54688 67.015625Q286.6875 66.546875 287.0 65.640625L289.0625 59.65625L290.59375 59.65625L290.59375 68.25L289.5 68.25L289.5 61.0625L287.0 68.25L285.96875 68.25L283.48438 60.9375L283.48438 68.25L282.39062 68.25ZM295.35938 67.484375Q294.76562 67.984375 294.21875 68.1875Q293.6875 68.390625 293.0625 68.390625Q292.03125 68.390625 291.48438 67.890625Q290.9375 67.390625 290.9375 66.609375Q290.9375 66.15625 291.14062 65.78125Q291.34375 65.390625 291.6875 65.171875Q292.03125 64.9375 292.45312 64.828125Q292.75 64.734375 293.39062 64.65625Q294.65625 64.515625 295.26562 64.296875Q295.26562 64.078125 295.26562 64.03125Q295.26562 63.375 294.96875 63.109375Q294.5625 62.765625 293.76562 62.765625Q293.03125 62.765625 292.67188 63.03125Q292.3125 63.28125 292.14062 63.9375L291.10938 63.796875Q291.25 63.140625 291.57812 62.734375Q291.90625 62.328125 292.51562 62.109375Q293.125 61.890625 293.92188 61.890625Q294.71875 61.890625 295.21875 62.078125Q295.71875 62.265625 295.95312 62.546875Q296.1875 62.828125 296.28125 63.265625Q296.32812 63.53125 296.32812 64.234375L296.32812 65.640625Q296.32812 67.109375 296.39062 67.5Q296.46875 67.890625 296.67188 68.25L295.5625 68.25Q295.40625 67.921875 295.35938 67.484375ZM295.26562 65.125Q294.6875 65.359375 293.54688 65.53125Q292.89062 65.625 292.625 65.75Q292.35938 65.859375 292.20312 66.078125Q292.0625 66.296875 292.0625 66.578125Q292.0625 67.0 292.375 67.28125Q292.70312 67.5625 293.3125 67.5625Q293.92188 67.5625 294.39062 67.296875Q294.875 67.03125 295.09375 66.5625Q295.26562 66.203125 295.26562 65.515625L295.26562 65.125ZM298.26562 68.25L298.26562 59.65625L299.32812 59.65625L299.32812 68.25L298.26562 68.25ZM305.54688 66.25L306.64062 66.375Q306.39062 67.328125 305.6875 67.859375Q304.98438 68.390625 303.90625 68.390625Q302.54688 68.390625 301.73438 67.546875Q300.9375 66.703125 300.9375 65.1875Q300.9375 63.625 301.75 62.765625Q302.5625 61.890625 303.84375 61.890625Q305.09375 61.890625 305.875 62.734375Q306.67188 63.578125 306.67188 65.125Q306.67188 65.21875 306.67188 65.40625L302.03125 65.40625Q302.09375 66.4375 302.60938 66.984375Q303.125 67.515625 303.90625 67.515625Q304.48438 67.515625 304.89062 67.21875Q305.3125 66.90625 305.54688 66.25ZM302.09375 64.546875L305.5625 64.546875Q305.5 63.75 305.17188 63.359375Q304.65625 62.75 303.85938 62.75Q303.125 62.75 302.625 63.234375Q302.14062 63.71875 302.09375 64.546875Z" fill-rule="nonzero"/><path fill="#ea4335" d="M323.5 59.25C323.5 58.697716 323.94772 58.25 324.5 58.25L334.5 58.25C335.05228 58.25 335.5 58.697716 335.5 59.25L335.5 69.25C335.5 69.802284 335.05228 70.25 334.5 70.25L324.5 70.25C323.94772 70.25 323.5 69.802284 323.5 69.25Z" fill-rule="nonzero"/><path fill="#1a1a1a" d="M344.48438 68.25L344.48438 59.65625L350.28125 59.65625L350.28125 60.671875L345.625 60.671875L345.625 63.328125L349.65625 63.328125L349.65625 64.34375L345.625 64.34375L345.625 68.25L344.48438 68.25ZM355.54688 66.25L356.64062 66.375Q356.39062 67.328125 355.6875 67.859375Q354.98438 68.390625 353.90625 68.390625Q352.54688 68.390625 351.73438 67.546875Q350.9375 66.703125 350.9375 65.1875Q350.9375 63.625 351.75 62.765625Q352.5625 61.890625 353.84375 61.890625Q355.09375 61.890625 355.875 62.734375Q356.67188 63.578125 356.67188 65.125Q356.67188 65.21875 356.67188 65.40625L352.03125 65.40625Q352.09375 66.4375 352.60938 66.984375Q353.125 67.515625 353.90625 67.515625Q354.48438 67.515625 354.89062 67.21875Q355.3125 66.90625 355.54688 66.25ZM352.09375 64.546875L355.5625 64.546875Q355.5 63.75 355.17188 63.359375Q354.65625 62.75 353.85938 62.75Q353.125 62.75 352.625 63.234375Q352.14062 63.71875 352.09375 64.546875ZM358.29688 68.25L358.29688 62.03125L359.23438 62.03125L359.23438 62.90625Q359.53125 62.4375 360.01562 62.171875Q360.5 61.890625 361.125 61.890625Q361.8125 61.890625 362.25 62.171875Q362.70312 62.453125 362.875 62.96875Q363.625 61.890625 364.79688 61.890625Q365.73438 61.890625 366.21875 62.40625Q366.71875 62.90625 366.71875 63.984375L366.71875 68.25L365.67188 68.25L365.67188 64.328125Q365.67188 63.703125 365.5625 63.421875Q365.46875 63.140625 365.20312 62.96875Q364.9375 62.796875 364.5625 62.796875Q363.90625 62.796875 363.46875 63.234375Q363.04688 63.671875 363.04688 64.640625L363.04688 68.25L361.98438 68.25L361.98438 64.203125Q361.98438 63.5 361.71875 63.15625Q361.46875 62.796875 360.89062 62.796875Q360.4375 62.796875 360.0625 63.03125Q359.6875 63.265625 359.51562 63.71875Q359.34375 64.171875 359.34375 65.015625L359.34375 68.25L358.29688 68.25ZM373.35938 67.484375Q372.76562 67.984375 372.21875 68.1875Q371.6875 68.390625 371.0625 68.390625Q370.03125 68.390625 369.48438 67.890625Q368.9375 67.390625 368.9375 66.609375Q368.9375 66.15625 369.14062 65.78125Q369.34375 65.390625 369.6875 65.171875Q370.03125 64.9375 370.45312 64.828125Q370.75 64.734375 371.39062 64.65625Q372.65625 64.515625 373.26562 64.296875Q373.26562 64.078125 373.26562 64.03125Q373.26562 63.375 372.96875 63.109375Q372.5625 62.765625 371.76562 62.765625Q371.03125 62.765625 370.67188 63.03125Q370.3125 63.28125 370.14062 63.9375L369.10938 63.796875Q369.25 63.140625 369.57812 62.734375Q369.90625 62.328125 370.51562 62.109375Q371.125 61.890625 371.92188 61.890625Q372.71875 61.890625 373.21875 62.078125Q373.71875 62.265625 373.95312 62.546875Q374.1875 62.828125 374.28125 63.265625Q374.32812 63.53125 374.32812 64.234375L374.32812 65.640625Q374.32812 67.109375 374.39062 67.5Q374.46875 67.890625 374.67188 68.25L373.5625 68.25Q373.40625 67.921875 373.35938 67.484375ZM373.26562 65.125Q372.6875 65.359375 371.54688 65.53125Q370.89062 65.625 370.625 65.75Q370.35938 65.859375 370.20312 66.078125Q370.0625 66.296875 370.0625 66.578125Q370.0625 67.0 370.375 67.28125Q370.70312 67.5625 371.3125 67.5625Q371.92188 67.5625 372.39062 67.296875Q372.875 67.03125 373.09375 66.5625Q373.26562 66.203125 373.26562 65.515625L373.26562 65.125ZM376.26562 68.25L376.26562 59.65625L377.32812 59.65625L377.32812 68.25L376.26562 68.25ZM383.54688 66.25L384.64062 66.375Q384.39062 67.328125 383.6875 67.859375Q382.98438 68.390625 381.90625 68.390625Q380.54688 68.390625 379.73438 67.546875Q378.9375 66.703125 378.9375 65.1875Q378.9375 63.625 379.75 62.765625Q380.5625 61.890625 381.84375 61.890625Q383.09375 61.890625 383.875 62.734375Q384.67188 63.578125 384.67188 65.125Q384.67188 65.21875 384.67188 65.40625L380.03125 65.40625Q380.09375 66.4375 380.60938 66.984375Q381.125 67.515625 381.90625 67.515625Q382.48438 67.515625 382.89062 67.21875Q383.3125 66.90625 383.54688 66.25ZM380.09375 64.546875L383.5625 64.546875Q383.5 63.75 383.17188 63.359375Q382.65625 62.75 381.85938 62.75Q381.125 62.75 380.625 63.234375Q380.14062 63.71875 380.09375 64.546875Z" fill-rule="nonzero"/><path fill="#757575" d="M193.48438 38.95L193.48438 24.6375L196.34375 24.6375L199.71875 34.7625Q200.1875 36.184376 200.40625 36.8875Q200.65625 36.10625 201.17188 34.590626L204.59375 24.6375L207.14062 24.6375L207.14062 38.95L205.32812 38.95L205.32812 26.965626L201.15625 38.95L199.45312 38.95L195.3125 26.7625L195.3125 38.95L193.48438 38.95ZM217.42188 35.60625L219.23438 35.840626Q218.8125 37.41875 217.64062 38.309376Q216.48438 39.184376 214.67188 39.184376Q212.40625 39.184376 211.0625 37.79375Q209.73438 36.3875 209.73438 33.85625Q209.73438 31.23125 211.07812 29.79375Q212.42188 28.340626 214.57812 28.340626Q216.65625 28.340626 217.96875 29.7625Q219.29688 31.16875 219.29688 33.746876Q219.29688 33.903126 219.28125 34.215626L211.54688 34.215626Q211.64062 35.91875 212.51562 36.825Q213.39062 37.73125 214.6875 37.73125Q215.65625 37.73125 216.32812 37.23125Q217.01562 36.715626 217.42188 35.60625ZM211.64062 32.7625L217.4375 32.7625Q217.32812 31.465626 216.78125 30.809376Q215.9375 29.79375 214.59375 29.79375Q213.39062 29.79375 212.5625 30.60625Q211.73438 31.403126 211.64062 32.7625ZM228.09375 37.66875Q227.10938 38.496876 226.20312 38.840626Q225.29688 39.184376 224.26562 39.184376Q222.5625 39.184376 221.64062 38.35625Q220.71875 37.5125 220.71875 36.215626Q220.71875 35.45 221.0625 34.825Q221.42188 34.2 221.98438 33.825Q222.54688 33.434376 223.25 33.23125Q223.76562 33.10625 224.8125 32.965626Q226.9375 32.715626 227.9375 32.371876Q227.95312 32.0125 227.95312 31.903126Q227.95312 30.840626 227.45312 30.3875Q226.78125 29.79375 225.45312 29.79375Q224.20312 29.79375 223.60938 30.23125Q223.03125 30.66875 222.75 31.778126L221.03125 31.54375Q221.26562 30.434376 221.79688 29.7625Q222.32812 29.075 223.34375 28.715626Q224.35938 28.340626 225.70312 28.340626Q227.03125 28.340626 227.85938 28.653126Q228.6875 28.965626 229.07812 29.45Q229.46875 29.91875 229.625 30.6375Q229.71875 31.090626 229.71875 32.2625L229.71875 34.60625Q229.71875 37.059376 229.82812 37.715626Q229.9375 38.35625 230.28125 38.95L228.4375 38.95Q228.17188 38.403126 228.09375 37.66875ZM227.9375 33.746876Q226.98438 34.1375 225.0625 34.403126Q223.98438 34.559376 223.53125 34.7625Q223.09375 34.95 222.84375 35.325Q222.59375 35.7 222.59375 36.16875Q222.59375 36.871876 223.125 37.340626Q223.65625 37.809376 224.6875 37.809376Q225.70312 37.809376 226.48438 37.371876Q227.28125 36.91875 227.65625 36.153126Q227.9375 35.54375 227.9375 34.3875L227.9375 33.746876ZM232.3125 38.95L232.3125 28.575L233.90625 28.575L233.90625 30.059376Q235.04688 28.340626 237.20312 28.340626Q238.14062 28.340626 238.92188 28.684376Q239.71875 29.0125 240.10938 29.559376Q240.5 30.10625 240.65625 30.85625Q240.75 31.35625 240.75 32.575L240.75 38.95L238.98438 38.95L238.98438 32.6375Q238.98438 31.559376 238.78125 31.028126Q238.57812 30.496876 238.04688 30.184376Q237.53125 29.871876 236.82812 29.871876Q235.70312 29.871876 234.89062 30.590626Q234.07812 31.29375 234.07812 33.278126L234.07812 38.95L232.3125 38.95ZM248.64062 38.95L248.64062 24.6375L258.29688 24.6375L258.29688 26.325L250.53125 26.325L250.53125 30.7625L257.25 30.7625L257.25 32.45L250.53125 32.45L250.53125 38.95L248.64062 38.95ZM259.67188 33.7625Q259.67188 30.8875 261.26562 29.496876Q262.60938 28.340626 264.53125 28.340626Q266.67188 28.340626 268.01562 29.746876Q269.375 31.153126 269.375 33.621876Q269.375 35.621876 268.78125 36.778126Q268.1875 37.91875 267.03125 38.559376Q265.89062 39.184376 264.53125 39.184376Q262.34375 39.184376 261.0 37.79375Q259.67188 36.3875 259.67188 33.7625ZM261.46875 33.7625Q261.46875 35.7625 262.32812 36.746876Q263.20312 37.73125 264.53125 37.73125Q265.84375 37.73125 266.70312 36.746876Q267.57812 35.746876 267.57812 33.7Q267.57812 31.778126 266.70312 30.79375Q265.82812 29.79375 264.53125 29.79375Q263.20312 29.79375 262.32812 30.79375Q261.46875 31.778126 261.46875 33.7625ZM271.29688 38.95L271.29688 28.575L272.875 28.575L272.875 30.153126Q273.48438 29.04375 274.0 28.7Q274.51562 28.340626 275.125 28.340626Q276.01562 28.340626 276.9375 28.903126L276.32812 30.54375Q275.6875 30.153126 275.04688 30.153126Q274.46875 30.153126 274.0 30.5125Q273.54688 30.85625 273.34375 31.465626Q273.0625 32.403126 273.0625 33.5125L273.0625 38.95L271.29688 38.95ZM278.3125 38.95L278.3125 28.575L279.89062 28.575L279.89062 30.028126Q280.375 29.278126 281.1875 28.809376Q282.0 28.340626 283.03125 28.340626Q284.1875 28.340626 284.92188 28.825Q285.65625 29.29375 285.96875 30.153126Q287.20312 28.340626 289.17188 28.340626Q290.71875 28.340626 291.54688 29.2Q292.375 30.059376 292.375 31.825L292.375 38.95L290.625 38.95L290.625 32.41875Q290.625 31.35625 290.45312 30.903126Q290.28125 30.434376 289.82812 30.153126Q289.39062 29.871876 288.78125 29.871876Q287.6875 29.871876 286.95312 30.60625Q286.23438 31.325 286.23438 32.91875L286.23438 38.95L284.48438 38.95L284.48438 32.215626Q284.48438 31.04375 284.04688 30.465626Q283.625 29.871876 282.64062 29.871876Q281.90625 29.871876 281.26562 30.2625Q280.64062 30.653126 280.35938 31.403126Q280.07812 32.153126 280.07812 33.575L280.07812 38.95L278.3125 38.95ZM301.09375 37.66875Q300.10938 38.496876 299.20312 38.840626Q298.29688 39.184376 297.26562 39.184376Q295.5625 39.184376 294.64062 38.35625Q293.71875 37.5125 293.71875 36.215626Q293.71875 35.45 294.0625 34.825Q294.42188 34.2 294.98438 33.825Q295.54688 33.434376 296.25 33.23125Q296.76562 33.10625 297.8125 32.965626Q299.9375 32.715626 300.9375 32.371876Q300.95312 32.0125 300.95312 31.903126Q300.95312 30.840626 300.45312 30.3875Q299.78125 29.79375 298.45312 29.79375Q297.20312 29.79375 296.60938 30.23125Q296.03125 30.66875 295.75 31.778126L294.03125 31.54375Q294.26562 30.434376 294.79688 29.7625Q295.32812 29.075 296.34375 28.715626Q297.35938 28.340626 298.70312 28.340626Q300.03125 28.340626 300.85938 28.653126Q301.6875 28.965626 302.07812 29.45Q302.46875 29.91875 302.625 30.6375Q302.71875 31.090626 302.71875 32.2625L302.71875 34.60625Q302.71875 37.059376 302.82812 37.715626Q302.9375 38.35625 303.28125 38.95L301.4375 38.95Q301.17188 38.403126 301.09375 37.66875ZM300.9375 33.746876Q299.98438 34.1375 298.0625 34.403126Q296.98438 34.559376 296.53125 34.7625Q296.09375 34.95 295.84375 35.325Q295.59375 35.7 295.59375 36.16875Q295.59375 36.871876 296.125 37.340626Q296.65625 37.809376 297.6875 37.809376Q298.70312 37.809376 299.48438 37.371876Q300.28125 36.91875 300.65625 36.153126Q300.9375 35.54375 300.9375 34.3875L300.9375 33.746876ZM305.3125 38.95L305.3125 28.575L306.90625 28.575L306.90625 30.059376Q308.04688 28.340626 310.20312 28.340626Q311.14062 28.340626 311.92188 28.684376Q312.71875 29.0125 313.10938 29.559376Q313.5 30.10625 313.65625 30.85625Q313.75 31.35625 313.75 32.575L313.75 38.95L311.98438 38.95L311.98438 32.6375Q311.98438 31.559376 311.78125 31.028126Q311.57812 30.496876 311.04688 30.184376Q310.53125 29.871876 309.82812 29.871876Q308.70312 29.871876 307.89062 30.590626Q307.07812 31.29375 307.07812 33.278126L307.07812 38.95L305.3125 38.95ZM319.15625 37.371876L319.40625 38.934376Q318.67188 39.090626 318.07812 39.090626Q317.125 39.090626 316.59375 38.79375Q316.07812 38.48125 315.85938 37.996876Q315.64062 37.496876 315.64062 35.91875L315.64062 29.95L314.35938 29.95L314.35938 28.575L315.64062 28.575L315.64062 26.0125L317.39062 24.95L317.39062 28.575L319.15625 28.575L319.15625 29.95L317.39062 29.95L317.39062 36.0125Q317.39062 36.7625 317.48438 36.98125Q317.57812 37.184376 317.78125 37.325Q318.0 37.45 318.39062 37.45Q318.67188 37.45 319.15625 37.371876ZM320.60938 35.85625L322.35938 35.575Q322.5 36.621876 323.17188 37.184376Q323.84375 37.73125 325.04688 37.73125Q326.25 37.73125 326.82812 37.246876Q327.42188 36.746876 327.42188 36.090626Q327.42188 35.496876 326.90625 35.153126Q326.54688 34.91875 325.10938 34.559376Q323.17188 34.059376 322.42188 33.715626Q321.6875 33.35625 321.29688 32.73125Q320.90625 32.090626 320.90625 31.325Q320.90625 30.6375 321.21875 30.04375Q321.54688 29.45 322.09375 29.059376Q322.5 28.7625 323.20312 28.559376Q323.92188 28.340626 324.73438 28.340626Q325.95312 28.340626 326.875 28.7Q327.79688 29.04375 328.23438 29.653126Q328.67188 30.246876 328.84375 31.246876L327.125 31.48125Q327.0 30.684376 326.4375 30.246876Q325.875 29.79375 324.85938 29.79375Q323.64062 29.79375 323.125 30.2Q322.60938 30.590626 322.60938 31.121876Q322.60938 31.465626 322.82812 31.746876Q323.03125 32.028126 323.5 32.215626Q323.76562 32.309376 325.04688 32.653126Q326.92188 33.153126 327.65625 33.48125Q328.39062 33.79375 328.8125 34.403126Q329.23438 34.996876 329.23438 35.903126Q329.23438 36.778126 328.71875 37.559376Q328.20312 38.340626 327.23438 38.7625Q326.26562 39.184376 325.04688 39.184376Q323.03125 39.184376 321.96875 38.340626Q320.90625 37.496876 320.60938 35.85625ZM336.64062 34.653126L336.64062 32.8875L342.03125 32.8875L342.03125 34.653126L336.64062 34.653126ZM357.25 33.340626L357.25 31.653126L363.3125 31.6375L363.3125 36.95Q361.90625 38.075 360.42188 38.6375Q358.9375 39.2 357.375 39.2Q355.26562 39.2 353.54688 38.29375Q351.82812 37.3875 350.9375 35.684376Q350.0625 33.965626 350.0625 31.85625Q350.0625 29.7625 350.9375 27.965626Q351.8125 26.153126 353.45312 25.278126Q355.09375 24.3875 357.23438 24.3875Q358.78125 24.3875 360.03125 24.8875Q361.29688 25.3875 362.0 26.29375Q362.71875 27.184376 363.09375 28.6375L361.39062 29.10625Q361.0625 28.0125 360.57812 27.3875Q360.10938 26.7625 359.21875 26.3875Q358.32812 26.0125 357.25 26.0125Q355.9375 26.0125 354.98438 26.403126Q354.04688 26.79375 353.46875 27.45Q352.89062 28.090626 352.5625 28.85625Q352.01562 30.184376 352.01562 31.746876Q352.01562 33.653126 352.67188 34.95Q353.34375 36.23125 354.59375 36.85625Q355.85938 37.48125 357.26562 37.48125Q358.5 37.48125 359.67188 37.0125Q360.84375 36.54375 361.45312 35.996876L361.45312 33.340626L357.25 33.340626ZM373.42188 35.60625L375.23438 35.840626Q374.8125 37.41875 373.64062 38.309376Q372.48438 39.184376 370.67188 39.184376Q368.40625 39.184376 367.0625 37.79375Q365.73438 36.3875 365.73438 33.85625Q365.73438 31.23125 367.07812 29.79375Q368.42188 28.340626 370.57812 28.340626Q372.65625 28.340626 373.96875 29.7625Q375.29688 31.16875 375.29688 33.746876Q375.29688 33.903126 375.28125 34.215626L367.54688 34.215626Q367.64062 35.91875 368.51562 36.825Q369.39062 37.73125 370.6875 37.73125Q371.65625 37.73125 372.32812 37.23125Q373.01562 36.715626 373.42188 35.60625ZM367.64062 32.7625L373.4375 32.7625Q373.32812 31.465626 372.78125 30.809376Q371.9375 29.79375 370.59375 29.79375Q369.39062 29.79375 368.5625 30.60625Q367.73438 31.403126 367.64062 32.7625ZM377.3125 38.95L377.3125 28.575L378.90625 28.575L378.90625 30.059376Q380.04688 28.340626 382.20312 28.340626Q383.14062 28.340626 383.92188 28.684376Q384.71875 29.0125 385.10938 29.559376Q385.5 30.10625 385.65625 30.85625Q385.75 31.35625 385.75 32.575L385.75 38.95L383.98438 38.95L383.98438 32.6375Q383.98438 31.559376 383.78125 31.028126Q383.57812 30.496876 383.04688 30.184376Q382.53125 29.871876 381.82812 29.871876Q380.70312 29.871876 379.89062 30.590626Q379.07812 31.29375 379.07812 33.278126L379.07812 38.95L377.3125 38.95ZM394.04688 38.95L394.04688 37.6375Q393.0625 39.184376 391.14062 39.184376Q389.90625 39.184376 388.85938 38.496876Q387.82812 37.809376 387.25 36.590626Q386.6875 35.371876 386.6875 33.778126Q386.6875 32.215626 387.20312 30.95Q387.71875 29.684376 388.75 29.0125Q389.79688 28.340626 391.0625 28.340626Q392.0 28.340626 392.73438 28.746876Q393.46875 29.1375 393.9375 29.7625L393.9375 24.6375L395.67188 24.6375L395.67188 38.95L394.04688 38.95ZM388.48438 33.778126Q388.48438 35.7625 389.32812 36.746876Q390.17188 37.73125 391.3125 37.73125Q392.46875 37.73125 393.26562 36.79375Q394.07812 35.85625 394.07812 33.91875Q394.07812 31.79375 393.25 30.79375Q392.4375 29.79375 391.23438 29.79375Q390.0625 29.79375 389.26562 30.7625Q388.48438 31.715626 388.48438 33.778126ZM405.42188 35.60625L407.23438 35.840626Q406.8125 37.41875 405.64062 38.309376Q404.48438 39.184376 402.67188 39.184376Q400.40625 39.184376 399.0625 37.79375Q397.73438 36.3875 397.73438 33.85625Q397.73438 31.23125 399.07812 29.79375Q400.42188 28.340626 402.57812 28.340626Q404.65625 28.340626 405.96875 29.7625Q407.29688 31.16875 407.29688 33.746876Q407.29688 33.903126 407.28125 34.215626L399.54688 34.215626Q399.64062 35.91875 400.51562 36.825Q401.39062 37.73125 402.6875 37.73125Q403.65625 37.73125 404.32812 37.23125Q405.01562 36.715626 405.42188 35.60625ZM399.64062 32.7625L405.4375 32.7625Q405.32812 31.465626 404.78125 30.809376Q403.9375 29.79375 402.59375 29.79375Q401.39062 29.79375 400.5625 30.60625Q399.73438 31.403126 399.64062 32.7625ZM409.29688 38.95L409.29688 28.575L410.875 28.575L410.875 30.153126Q411.48438 29.04375 412.0 28.7Q412.51562 28.340626 413.125 28.340626Q414.01562 28.340626 414.9375 28.903126L414.32812 30.54375Q413.6875 30.153126 413.04688 30.153126Q412.46875 30.153126 412.0 30.5125Q411.54688 30.85625 411.34375 31.465626Q411.0625 32.403126 411.0625 33.5125L411.0625 38.95L409.29688 38.95ZM418.23438 38.95L415.0625 28.575L416.875 28.575L418.53125 34.559376L419.14062 36.79375Q419.1875 36.621876 419.67188 34.653126L421.32812 28.575L423.14062 28.575L424.6875 34.590626L425.20312 36.575L425.79688 34.575L427.57812 28.575L429.28125 28.575L426.04688 38.95L424.21875 38.95L422.5625 32.73125L422.17188 30.965626L420.0625 38.95L418.23438 38.95ZM431.32812 26.653126L431.32812 24.6375L433.09375 24.6375L433.09375 26.653126L431.32812 26.653126ZM431.32812 38.95L431.32812 28.575L433.09375 28.575L433.09375 38.95L431.32812 38.95ZM434.60938 35.85625L436.35938 35.575Q436.5 36.621876 437.17188 37.184376Q437.84375 37.73125 439.04688 37.73125Q440.25 37.73125 440.82812 37.246876Q441.42188 36.746876 441.42188 36.090626Q441.42188 35.496876 440.90625 35.153126Q440.54688 34.91875 439.10938 34.559376Q437.17188 34.059376 436.42188 33.715626Q435.6875 33.35625 435.29688 32.73125Q434.90625 32.090626 434.90625 31.325Q434.90625 30.6375 435.21875 30.04375Q435.54688 29.45 436.09375 29.059376Q436.5 28.7625 437.20312 28.559376Q437.92188 28.340626 438.73438 28.340626Q439.95312 28.340626 440.875 28.7Q441.79688 29.04375 442.23438 29.653126Q442.67188 30.246876 442.84375 31.246876L441.125 31.48125Q441.0 30.684376 440.4375 30.246876Q439.875 29.79375 438.85938 29.79375Q437.64062 29.79375 437.125 30.2Q436.60938 30.590626 436.60938 31.121876Q436.60938 31.465626 436.82812 31.746876Q437.03125 32.028126 437.5 32.215626Q437.76562 32.309376 439.04688 32.653126Q440.92188 33.153126 441.65625 33.48125Q442.39062 33.79375 442.8125 34.403126Q443.23438 34.996876 443.23438 35.903126Q443.23438 36.778126 442.71875 37.559376Q442.20312 38.340626 441.23438 38.7625Q440.26562 39.184376 439.04688 39.184376Q437.03125 39.184376 435.96875 38.340626Q434.90625 37.496876 434.60938 35.85625ZM452.42188 35.60625L454.23438 35.840626Q453.8125 37.41875 452.64062 38.309376Q451.48438 39.184376 449.67188 39.184376Q447.40625 39.184376 446.0625 37.79375Q444.73438 36.3875 444.73438 33.85625Q444.73438 31.23125 446.07812 29.79375Q447.42188 28.340626 449.57812 28.340626Q451.65625 28.340626 452.96875 29.7625Q454.29688 31.16875 454.29688 33.746876Q454.29688 33.903126 454.28125 34.215626L446.54688 34.215626Q446.64062 35.91875 447.51562 36.825Q448.39062 37.73125 449.6875 37.73125Q450.65625 37.73125 451.32812 37.23125Q452.01562 36.715626 452.42188 35.60625ZM446.64062 32.7625L452.4375 32.7625Q452.32812 31.465626 451.78125 30.809376Q450.9375 29.79375 449.59375 29.79375Q448.39062 29.79375 447.5625 30.60625Q446.73438 31.403126 446.64062 32.7625Z" fill-rule="nonzero"/></svg>