<svg version="1.1" viewBox="0.0 0.0 1421.0 872.0" fill="none" stroke="none" stroke-linecap="square" stroke-miterlimit="10" width="1421" height="872" xmlns:xlink="http://www.w3.org/1999/xlink" xmlns="http://www.w3.org/2000/svg"><path fill="#ffffff" d="M0 0L1421.0 0L1421.0 872.0L0 872.0L0 0Z" fill-rule="nonzero"/><path stroke="#cccccc" stroke-width="1.0" stroke-linecap="butt" d="M1377.5 103.5L1377.5 776.5" fill-rule="nonzero"/><path stroke="#cccccc" stroke-width="1.0" stroke-linecap="butt" d="M1166.5 103.5L1166.5 776.5" fill-rule="nonzero"/><path stroke="#cccccc" stroke-width="1.0" stroke-linecap="butt" d="M954.5 103.5L954.5 776.5" fill-rule="nonzero"/><path stroke="#cccccc" stroke-width="1.0" stroke-linecap="butt" d="M743.5 103.5L743.5 776.5" fill-rule="nonzero"/><path stroke="#cccccc" stroke-width="1.0" stroke-linecap="butt" d="M532.5 103.5L532.5 776.5" fill-rule="nonzero"/><path stroke="#cccccc" stroke-width="1.0" stroke-linecap="butt" d="M320.5 103.5L320.5 776.5" fill-rule="nonzero"/><path stroke="#cccccc" stroke-width="1.0" stroke-linecap="butt" d="M109.5 103.5L109.5 776.5" fill-rule="nonzero"/><path stroke="#e6e6e6" stroke-width="1.0" stroke-linecap="butt" d="M1271.5 103.5L1271.5 776.5" fill-rule="nonzero"/><path stroke="#e6e6e6" stroke-width="1.0" stroke-linecap="butt" d="M1060.5 103.5L1060.5 776.5" fill-rule="nonzero"/><path stroke="#e6e6e6" stroke-width="1.0" stroke-linecap="butt" d="M849.5 103.5L849.5 776.5" fill-rule="nonzero"/><path stroke="#e6e6e6" stroke-width="1.0" stroke-linecap="butt" d="M637.5 103.5L637.5 776.5" fill-rule="nonzero"/><path stroke="#e6e6e6" stroke-width="1.0" stroke-linecap="butt" d="M426.5 103.5L426.5 776.5" fill-rule="nonzero"/><path stroke="#e6e6e6" stroke-width="1.0" stroke-linecap="butt" d="M215.5 103.5L215.5 776.5" fill-rule="nonzero"/><path stroke="#cccccc" stroke-width="1.0" stroke-linecap="butt" d="M109.5 776.5L1377.5 776.5" fill-rule="nonzero"/><path stroke="#cccccc" stroke-width="1.0" stroke-linecap="butt" d="M109.5 608.5L1377.5 608.5" fill-rule="nonzero"/><path stroke="#cccccc" stroke-width="1.0" stroke-linecap="butt" d="M109.5 440.5L1377.5 440.5" fill-rule="nonzero"/><path stroke="#cccccc" stroke-width="1.0" stroke-linecap="butt" d="M109.5 271.5L1377.5 271.5" fill-rule="nonzero"/><path stroke="#cccccc" stroke-width="1.0" stroke-linecap="butt" d="M109.5 103.5L1377.5 103.5" fill-rule="nonzero"/><path stroke="#e6e6e6" stroke-width="1.0" stroke-linecap="butt" d="M109.5 692.5L1377.5 692.5" fill-rule="nonzero"/><path stroke="#e6e6e6" stroke-width="1.0" stroke-linecap="butt" d="M109.5 524.5L1377.5 524.5" fill-rule="nonzero"/><path stroke="#e6e6e6" stroke-width="1.0" stroke-linecap="butt" d="M109.5 355.5L1377.5 355.5" fill-rule="nonzero"/><path stroke="#e6e6e6" stroke-width="1.0" stroke-linecap="butt" d="M109.5 187.5L1377.5 187.5" fill-rule="nonzero"/><path stroke="#eeeeee" stroke-width="1.0" stroke-linecap="butt" d="M611.4586 299.30856L611.4586 315.30856" fill-rule="nonzero"/><path stroke="#eeeeee" stroke-width="1.0" stroke-linecap="butt" d="M197.99736 524.11926L197.99736 540.11926" fill-rule="nonzero"/><path stroke="#eeeeee" stroke-width="1.0" stroke-linecap="butt" d="M819.90607 405.2725L819.90607 421.2725" fill-rule="nonzero"/><path stroke="#eeeeee" stroke-width="1.0" stroke-linecap="butt" d="M553.3617 579.3002L553.3617 595.3002" fill-rule="nonzero"/><path stroke="#eeeeee" stroke-width="1.0" stroke-linecap="butt" d="M389.58307 587.60004L389.58307 603.60004" fill-rule="nonzero"/><path stroke="#eeeeee" stroke-width="1.0" stroke-linecap="butt" d="M929.6659 322.3329L929.6659 338.3329" fill-rule="nonzero"/><path stroke="#eeeeee" stroke-width="1.0" stroke-linecap="butt" d="M977.69434 534.06726L977.69434 550.06726" fill-rule="nonzero"/><clipPath id="id_0"><path d="M109.6 103.666664L1377.4 103.666664L1377.4 776.4L109.6 776.4L109.6 103.666664Z" clip-rule="nonzero"/></clipPath><path fill="#0000ff" clip-path="url(#id_0)" d="M617.4586 315.30856C617.4586 318.62228 614.77234 321.30856 611.4586 321.30856C608.1449 321.30856 605.4586 318.62228 605.4586 315.30856C605.4586 311.99487 608.1449 309.30856 611.4586 309.30856C614.77234 309.30856 617.4586 311.99487 617.4586 315.30856Z" fill-rule="nonzero"/><path fill="#0000ff" clip-path="url(#id_0)" d="M203.99736 540.11926C203.99736 543.4329 201.31107 546.11926 197.99736 546.11926C194.68364 546.11926 191.99736 543.4329 191.99736 540.11926C191.99736 536.80554 194.68364 534.11926 197.99736 534.11926C201.31107 534.11926 203.99736 536.80554 203.99736 540.11926Z" fill-rule="nonzero"/><path fill="#0000ff" clip-path="url(#id_0)" d="M825.90607 421.2725C825.90607 424.58618 823.2198 427.2725 819.90607 427.2725C816.59235 427.2725 813.90607 424.58618 813.90607 421.2725C813.90607 417.95877 816.59235 415.2725 819.90607 415.2725C823.2198 415.2725 825.90607 417.95877 825.90607 421.2725Z" fill-rule="nonzero"/><path fill="#0000ff" clip-path="url(#id_0)" d="M559.3617 595.3002C559.3617 598.6139 556.6754 601.3002 553.3617 601.3002C550.048 601.3002 547.3617 598.6139 547.3617 595.3002C547.3617 591.98645 550.048 589.3002 553.3617 589.3002C556.6754 589.3002 559.3617 591.98645 559.3617 595.3002Z" fill-rule="nonzero"/><path fill="#0000ff" clip-path="url(#id_0)" d="M395.58307 603.60004C395.58307 606.91376 392.89676 609.60004 389.58307 609.60004C386.26935 609.60004 383.58307 606.91376 383.58307 603.60004C383.58307 600.2863 386.26935 597.60004 389.58307 597.60004C392.89676 597.60004 395.58307 600.2863 395.58307 603.60004Z" fill-rule="nonzero"/><path fill="#0000ff" clip-path="url(#id_0)" d="M935.6659 338.3329C935.6659 341.64658 932.97955 344.3329 929.6659 344.3329C926.3522 344.3329 923.6659 341.64658 923.6659 338.3329C923.6659 335.01917 926.3522 332.3329 929.6659 332.3329C932.97955 332.3329 935.6659 335.01917 935.6659 338.3329Z" fill-rule="nonzero"/><path fill="#0000ff" clip-path="url(#id_0)" d="M983.69434 550.06726C983.69434 553.381 981.00806 556.06726 977.69434 556.06726C974.3807 556.06726 971.69434 553.381 971.69434 550.06726C971.69434 546.7536 974.3807 544.06726 977.69434 544.06726C981.00806 544.06726 983.69434 546.7536 983.69434 550.06726Z" fill-rule="nonzero"/><path stroke="#ffffff" stroke-width="3.0" stroke-linejoin="round" stroke-linecap="round" d="M613.16174 295.0742L609.5836 295.0742L608.78674 297.30856L607.6305 297.30856L610.8805 288.7773L611.86487 288.7773L615.1305 297.30856L613.97424 297.30856L613.16174 295.0742ZM609.92737 294.1523L612.8336 294.1523L611.3805 290.16794L609.92737 294.1523Z" fill-rule="nonzero"/><path fill="#0000ff" d="M613.16174 295.0742L609.5836 295.0742L608.78674 297.30856L607.6305 297.30856L610.8805 288.7773L611.86487 288.7773L615.1305 297.30856L613.97424 297.30856L613.16174 295.0742ZM609.92737 294.1523L612.8336 294.1523L611.3805 290.16794L609.92737 294.1523Z" fill-rule="nonzero"/><path stroke="#ffffff" stroke-width="3.0" stroke-linejoin="round" stroke-linecap="round" d="M200.30986 518.18176L196.60674 518.18176L196.60674 521.1974L200.90361 521.1974L200.90361 522.11926L195.48174 522.11926L195.48174 513.588L200.85674 513.588L200.85674 514.5099L196.60674 514.5099L196.60674 517.2599L200.30986 517.2599L200.30986 518.18176Z" fill-rule="nonzero"/><path fill="#0000ff" d="M200.30986 518.18176L196.60674 518.18176L196.60674 521.1974L200.90361 521.1974L200.90361 522.11926L195.48174 522.11926L195.48174 513.588L200.85674 513.588L200.85674 514.5099L196.60674 514.5099L196.60674 517.2599L200.30986 517.2599L200.30986 518.18176Z" fill-rule="nonzero"/><path stroke="#ffffff" stroke-width="3.0" stroke-linejoin="round" stroke-linecap="round" d="M821.21857 399.335L817.51544 399.335L817.51544 402.35062L821.8123 402.35062L821.8123 403.2725L816.39044 403.2725L816.39044 394.74124L821.76544 394.74124L821.76544 395.66312L817.51544 395.66312L817.51544 398.41312L821.21857 398.41312L821.21857 399.335ZM823.89044 394.92874L823.76544 397.085L823.01544 397.085L823.01544 394.2725L823.89044 394.2725L823.89044 394.92874Z" fill-rule="nonzero"/><path fill="#0000ff" d="M821.21857 399.335L817.51544 399.335L817.51544 402.35062L821.8123 402.35062L821.8123 403.2725L816.39044 403.2725L816.39044 394.74124L821.76544 394.74124L821.76544 395.66312L817.51544 395.66312L817.51544 398.41312L821.21857 398.41312L821.21857 399.335ZM823.89044 394.92874L823.76544 397.085L823.01544 397.085L823.01544 394.2725L823.89044 394.2725L823.89044 394.92874Z" fill-rule="nonzero"/><path stroke="#ffffff" stroke-width="3.0" stroke-linejoin="round" stroke-linecap="round" d="M554.0648 577.3002L552.9398 577.3002L552.9398 568.7689L554.0648 568.7689L554.0648 577.3002Z" fill-rule="nonzero"/><path fill="#0000ff" d="M554.0648 577.3002L552.9398 577.3002L552.9398 568.7689L554.0648 568.7689L554.0648 577.3002Z" fill-rule="nonzero"/><path stroke="#ffffff" stroke-width="3.0" stroke-linejoin="round" stroke-linecap="round" d="M389.2862 585.60004L388.1612 585.60004L388.1612 577.0688L389.2862 577.0688L389.2862 585.60004ZM391.56744 577.2563L391.44244 579.41254L390.69244 579.41254L390.69244 576.60004L391.56744 576.60004L391.56744 577.2563Z" fill-rule="nonzero"/><path fill="#0000ff" d="M389.2862 585.60004L388.1612 585.60004L388.1612 577.0688L389.2862 577.0688L389.2862 585.60004ZM391.56744 577.2563L391.44244 579.41254L390.69244 579.41254L390.69244 576.60004L391.56744 576.60004L391.56744 577.2563Z" fill-rule="nonzero"/><path stroke="#ffffff" stroke-width="3.0" stroke-linejoin="round" stroke-linecap="round" d="M933.21277 316.3485Q933.21277 317.5985 932.7909 318.536Q932.369 319.4579 931.58777 319.9579Q930.82214 320.4579 929.7909 320.4579Q928.7909 320.4579 928.00964 319.9579Q927.2284 319.4579 926.7909 318.55164Q926.369 317.62976 926.3534 316.411L926.3534 315.80164Q926.3534 314.56726 926.77527 313.62976Q927.21277 312.69226 927.994 312.19226Q928.77527 311.67664 929.7909 311.67664Q930.8065 311.67664 931.58777 312.17664Q932.369 312.67664 932.7909 313.61414Q933.21277 314.55164 933.21277 315.80164L933.21277 316.3485ZM932.1034 315.786Q932.1034 314.2704 931.494 313.4579Q930.88464 312.6454 929.7909 312.6454Q928.71277 312.6454 928.1034 313.4579Q927.494 314.2704 927.4784 315.7079L927.4784 316.3485Q927.4784 317.81726 928.08777 318.661Q928.71277 319.48914 929.7909 319.48914Q930.88464 319.48914 931.4784 318.7079Q932.08777 317.911 932.1034 316.42664L932.1034 315.786Z" fill-rule="nonzero"/><path fill="#0000ff" d="M933.21277 316.3485Q933.21277 317.5985 932.7909 318.536Q932.369 319.4579 931.58777 319.9579Q930.82214 320.4579 929.7909 320.4579Q928.7909 320.4579 928.00964 319.9579Q927.2284 319.4579 926.7909 318.55164Q926.369 317.62976 926.3534 316.411L926.3534 315.80164Q926.3534 314.56726 926.77527 313.62976Q927.21277 312.69226 927.994 312.19226Q928.77527 311.67664 929.7909 311.67664Q930.8065 311.67664 931.58777 312.17664Q932.369 312.67664 932.7909 313.61414Q933.21277 314.55164 933.21277 315.80164L933.21277 316.3485ZM932.1034 315.786Q932.1034 314.2704 931.494 313.4579Q930.88464 312.6454 929.7909 312.6454Q928.71277 312.6454 928.1034 313.4579Q927.494 314.2704 927.4784 315.7079L927.4784 316.3485Q927.4784 317.81726 928.08777 318.661Q928.71277 319.48914 929.7909 319.48914Q930.88464 319.48914 931.4784 318.7079Q932.08777 317.911 932.1034 316.42664L932.1034 315.786Z" fill-rule="nonzero"/><path stroke="#ffffff" stroke-width="3.0" stroke-linejoin="round" stroke-linecap="round" d="M980.69434 523.536L980.69434 529.3329Q980.6787 530.536 979.9287 531.31726Q979.1787 532.0829 977.89746 532.17664L977.58496 532.19226Q976.19434 532.19226 975.3506 531.44226Q974.52246 530.67664 974.52246 529.3485L974.52246 523.536L975.63184 523.536L975.63184 529.31726Q975.63184 530.23914 976.13184 530.75476Q976.64746 531.2704 977.58496 531.2704Q978.5537 531.2704 979.0537 530.75476Q979.5537 530.23914 979.5537 529.31726L979.5537 523.536L980.69434 523.536Z" fill-rule="nonzero"/><path fill="#0000ff" d="M980.69434 523.536L980.69434 529.3329Q980.6787 530.536 979.9287 531.31726Q979.1787 532.0829 977.89746 532.17664L977.58496 532.19226Q976.19434 532.19226 975.3506 531.44226Q974.52246 530.67664 974.52246 529.3485L974.52246 523.536L975.63184 523.536L975.63184 529.31726Q975.63184 530.23914 976.13184 530.75476Q976.64746 531.2704 977.58496 531.2704Q978.5537 531.2704 979.0537 530.75476Q979.5537 530.23914 979.5537 529.31726L979.5537 523.536L980.69434 523.536Z" fill-rule="nonzero"/><path fill="#000000" d="M724.9844 825.4L724.9844 816.8063L730.78125 816.8063L730.78125 817.8219L726.125 817.8219L726.125 820.47815L730.15625 820.47815L730.15625 821.4938L726.125 821.4938L726.125 825.4L724.9844 825.4ZM737.0469 824.3844L737.0469 825.4L731.3594 825.4Q731.3594 825.025 731.4844 824.66565Q731.7031 824.0875 732.1719 823.525Q732.65625 822.9625 733.5625 822.22815Q734.96875 821.0719 735.4531 820.4Q735.9531 819.72815 735.9531 819.1344Q735.9531 818.5094 735.5 818.0875Q735.0469 817.65 734.3281 817.65Q733.5625 817.65 733.1094 818.10315Q732.65625 818.5563 732.6406 819.3688L731.5625 819.2594Q731.6719 818.04065 732.3906 817.41565Q733.125 816.775 734.3594 816.775Q735.59375 816.775 736.3125 817.4625Q737.03125 818.15 737.03125 819.16565Q737.03125 819.6813 736.8125 820.1813Q736.6094 820.66565 736.1094 821.22815Q735.625 821.775 734.5 822.72815Q733.5469 823.525 733.2656 823.8219Q733.0 824.10315 732.8281 824.3844L737.0469 824.3844ZM743.8125 827.9313Q742.9375 826.8219 742.3281 825.35315Q741.7344 823.8688 741.7344 822.29065Q741.7344 820.9 742.1719 819.6188Q742.7031 818.1344 743.8125 816.66565L744.5625 816.66565Q743.8594 817.8844 743.625 818.4Q743.2656 819.2125 743.0625 820.0875Q742.8125 821.1813 742.8125 822.29065Q742.8125 825.1188 744.5625 827.9313L743.8125 827.9313ZM745.96875 825.4L745.96875 816.8063L747.09375 816.8063L747.09375 820.3375L751.5625 820.3375L751.5625 816.8063L752.7031 816.8063L752.7031 825.4L751.5625 825.4L751.5625 821.35315L747.09375 821.35315L747.09375 825.4L745.96875 825.4ZM754.2344 825.4L754.2344 824.54065L758.2031 819.9938Q757.5156 820.025 757.0 820.025L754.46875 820.025L754.46875 819.1813L759.5625 819.1813L759.5625 819.8688L756.1875 823.8219L755.53125 824.54065Q756.25 824.4938 756.8594 824.4938L759.75 824.4938L759.75 825.4L754.2344 825.4ZM760.4844 827.9313L759.7344 827.9313Q761.4844 825.1188 761.4844 822.29065Q761.4844 821.1969 761.2344 820.10315Q761.03125 819.22815 760.6719 818.41565Q760.4375 817.9 759.7344 816.66565L760.4844 816.66565Q761.5781 818.1344 762.1094 819.6188Q762.5625 820.9 762.5625 822.29065Q762.5625 823.8688 761.9531 825.35315Q761.34375 826.8219 760.4844 827.9313Z" fill-rule="nonzero"/><path fill="#000000" d="M54.600025 465.04895L46.006275 465.04895L46.006275 459.25208L47.0219 459.25208L47.0219 463.90833L49.67815 463.90833L49.67815 459.87708L50.693775 459.87708L50.693775 463.90833L54.600025 463.90833L54.600025 465.04895ZM54.600025 454.56458L54.600025 455.61145L47.881275 455.61145Q48.24065 456.00208 48.61565 456.62708Q48.975025 457.23645 49.1469 457.72083L48.131275 457.72083Q47.7094 456.84583 47.131275 456.18958Q46.537525 455.5177 45.975025 455.23645L45.975025 454.56458L54.600025 454.56458ZM57.131275 446.22083Q56.0219 447.09583 54.55315 447.7052Q53.068775 448.29895 51.49065 448.29895Q50.100025 448.29895 48.818775 447.86145Q47.3344 447.3302 45.86565 446.22083L45.86565 445.47083Q47.0844 446.17395 47.600025 446.40833Q48.412525 446.7677 49.287525 446.97083Q50.381275 447.22083 51.49065 447.22083Q54.318775 447.22083 57.131275 445.47083L57.131275 446.22083ZM54.600025 444.06458L46.006275 444.06458L46.006275 442.93958L49.537525 442.93958L49.537525 438.47083L46.006275 438.47083L46.006275 437.3302L54.600025 437.3302L54.600025 438.47083L50.55315 438.47083L50.55315 442.93958L54.600025 442.93958L54.600025 444.06458ZM54.600025 435.79895L53.74065 435.79895L49.193775 431.8302Q49.225025 432.5177 49.225025 433.03333L49.225025 435.56458L48.381275 435.56458L48.381275 430.47083L49.068775 430.47083L53.0219 433.84583L53.74065 434.50208Q53.693775 433.78333 53.693775 433.17395L53.693775 430.28333L54.600025 430.28333L54.600025 435.79895ZM57.131275 429.54895L57.131275 430.29895Q54.318775 428.54895 51.49065 428.54895Q50.3969 428.54895 49.30315 428.79895Q48.42815 429.00208 47.61565 429.36145Q47.100025 429.59583 45.86565 430.29895L45.86565 429.54895Q47.3344 428.4552 48.818775 427.92395Q50.100025 427.47083 51.49065 427.47083Q53.068775 427.47083 54.55315 428.0802Q56.0219 428.68958 57.131275 429.54895Z" fill-rule="nonzero"/><path fill="#000000" d="M88.64687 779.3844L88.64687 780.4L82.95937 780.4Q82.95937 780.025 83.08437 779.66565Q83.30312 779.0875 83.77187 778.525Q84.25625 777.9625 85.1625 777.22815Q86.56875 776.0719 87.05312 775.4Q87.55312 774.72815 87.55312 774.1344Q87.55312 773.5094 87.1 773.0875Q86.64687 772.65 85.92812 772.65Q85.1625 772.65 84.70937 773.10315Q84.25625 773.5563 84.24062 774.3688L83.1625 774.2594Q83.27187 773.04065 83.99062 772.41565Q84.725 771.775 85.95937 771.775Q87.19375 771.775 87.9125 772.4625Q88.63125 773.15 88.63125 774.16565Q88.63125 774.6813 88.4125 775.1813Q88.20937 775.66565 87.70937 776.22815Q87.225 776.775 86.1 777.72815Q85.14687 778.525 84.86562 778.8219Q84.6 779.10315 84.42812 779.3844L88.64687 779.3844ZM90.1 776.16565Q90.1 774.6344 90.4125 773.7125Q90.725 772.775 91.33437 772.275Q91.95937 771.775 92.89687 771.775Q93.58437 771.775 94.1 772.0563Q94.63125 772.3375 94.975 772.8688Q95.31875 773.3844 95.50625 774.1344Q95.69375 774.8844 95.69375 776.16565Q95.69375 777.6813 95.38125 778.60315Q95.08437 779.525 94.45937 780.04065Q93.85 780.54065 92.89687 780.54065Q91.6625 780.54065 90.94375 779.65Q90.1 778.5875 90.1 776.16565ZM91.17812 776.16565Q91.17812 778.275 91.67812 778.97815Q92.17812 779.6813 92.89687 779.6813Q93.63125 779.6813 94.11562 778.97815Q94.61562 778.275 94.61562 776.16565Q94.61562 774.04065 94.11562 773.35315Q93.63125 772.65 92.88125 772.65Q92.1625 772.65 91.725 773.2594Q91.17812 774.04065 91.17812 776.16565ZM97.1 776.16565Q97.1 774.6344 97.4125 773.7125Q97.725 772.775 98.33437 772.275Q98.95937 771.775 99.89687 771.775Q100.58437 771.775 101.1 772.0563Q101.63125 772.3375 101.975 772.8688Q102.31875 773.3844 102.50625 774.1344Q102.69375 774.8844 102.69375 776.16565Q102.69375 777.6813 102.38125 778.60315Q102.08437 779.525 101.45937 780.04065Q100.85 780.54065 99.89687 780.54065Q98.6625 780.54065 97.94375 779.65Q97.1 778.5875 97.1 776.16565ZM98.17812 776.16565Q98.17812 778.275 98.67812 778.97815Q99.17812 779.6813 99.89687 779.6813Q100.63125 779.6813 101.11562 778.97815Q101.61562 778.275 101.61562 776.16565Q101.61562 774.04065 101.11562 773.35315Q100.63125 772.65 99.88125 772.65Q99.1625 772.65 98.725 773.2594Q98.17812 774.04065 98.17812 776.16565Z" fill-rule="nonzero"/><path fill="#000000" d="M86.475 612.2167L86.475 610.1542L82.75625 610.1542L82.75625 609.1854L86.67812 603.6229L87.5375 603.6229L87.5375 609.1854L88.69375 609.1854L88.69375 610.1542L87.5375 610.1542L87.5375 612.2167L86.475 612.2167ZM86.475 609.1854L86.475 605.32605L83.7875 609.1854L86.475 609.1854ZM90.1 607.9823Q90.1 606.45105 90.4125 605.5292Q90.725 604.5917 91.33437 604.0917Q91.95937 603.5917 92.89687 603.5917Q93.58437 603.5917 94.1 603.8729Q94.63125 604.1542 94.975 604.6854Q95.31875 605.20105 95.50625 605.95105Q95.69375 606.70105 95.69375 607.9823Q95.69375 609.4979 95.38125 610.4198Q95.08437 611.3417 94.45937 611.8573Q93.85 612.3573 92.89687 612.3573Q91.6625 612.3573 90.94375 611.4667Q90.1 610.4042 90.1 607.9823ZM91.17812 607.9823Q91.17812 610.0917 91.67812 610.7948Q92.17812 611.4979 92.89687 611.4979Q93.63125 611.4979 94.11562 610.7948Q94.61562 610.0917 94.61562 607.9823Q94.61562 605.8573 94.11562 605.1698Q93.63125 604.4667 92.88125 604.4667Q92.1625 604.4667 91.725 605.07605Q91.17812 605.8573 91.17812 607.9823ZM97.1 607.9823Q97.1 606.45105 97.4125 605.5292Q97.725 604.5917 98.33437 604.0917Q98.95937 603.5917 99.89687 603.5917Q100.58437 603.5917 101.1 603.8729Q101.63125 604.1542 101.975 604.6854Q102.31875 605.20105 102.50625 605.95105Q102.69375 606.70105 102.69375 607.9823Q102.69375 609.4979 102.38125 610.4198Q102.08437 611.3417 101.45937 611.8573Q100.85 612.3573 99.89687 612.3573Q98.6625 612.3573 97.94375 611.4667Q97.1 610.4042 97.1 607.9823ZM98.17812 607.9823Q98.17812 610.0917 98.67812 610.7948Q99.17812 611.4979 99.89687 611.4979Q100.63125 611.4979 101.11562 610.7948Q101.61562 610.0917 101.61562 607.9823Q101.61562 605.8573 101.11562 605.1698Q100.63125 604.4667 99.88125 604.4667Q99.1625 604.4667 98.725 605.07605Q98.17812 605.8573 98.17812 607.9823Z" fill-rule="nonzero"/><path fill="#000000" d="M88.56875 437.54895L87.52187 437.62708Q87.38125 437.00208 87.13125 436.72083Q86.69375 436.2677 86.06875 436.2677Q85.56875 436.2677 85.17812 436.54895Q84.69375 436.92395 84.39687 437.62708Q84.11562 438.31458 84.1 439.59583Q84.475 439.0177 85.02187 438.73645Q85.58437 438.4552 86.19375 438.4552Q87.24062 438.4552 87.975 439.23645Q88.725 440.0177 88.725 441.23645Q88.725 442.04895 88.36562 442.75208Q88.02187 443.43958 87.4125 443.81458Q86.80312 444.17395 86.0375 444.17395Q84.70937 444.17395 83.88125 443.2052Q83.05312 442.23645 83.05312 440.0177Q83.05312 437.5177 83.975 436.3927Q84.77187 435.40833 86.13125 435.40833Q87.14687 435.40833 87.7875 435.98645Q88.44375 436.54895 88.56875 437.54895ZM84.27187 441.25208Q84.27187 441.79895 84.49062 442.29895Q84.725 442.78333 85.13125 443.04895Q85.55312 443.31458 86.02187 443.31458Q86.67812 443.31458 87.1625 442.78333Q87.64687 442.23645 87.64687 441.31458Q87.64687 440.42395 87.1625 439.90833Q86.69375 439.3927 85.975 439.3927Q85.25625 439.3927 84.75625 439.90833Q84.27187 440.42395 84.27187 441.25208ZM90.1 439.79895Q90.1 438.2677 90.4125 437.34583Q90.725 436.40833 91.33437 435.90833Q91.95937 435.40833 92.89687 435.40833Q93.58437 435.40833 94.1 435.68958Q94.63125 435.97083 94.975 436.50208Q95.31875 437.0177 95.50625 437.7677Q95.69375 438.5177 95.69375 439.79895Q95.69375 441.31458 95.38125 442.23645Q95.08437 443.15833 94.45937 443.67395Q93.85 444.17395 92.89687 444.17395Q91.6625 444.17395 90.94375 443.28333Q90.1 442.22083 90.1 439.79895ZM91.17812 439.79895Q91.17812 441.90833 91.67812 442.61145Q92.17812 443.31458 92.89687 443.31458Q93.63125 443.31458 94.11562 442.61145Q94.61562 441.90833 94.61562 439.79895Q94.61562 437.67395 94.11562 436.98645Q93.63125 436.28333 92.88125 436.28333Q92.1625 436.28333 91.725 436.8927Q91.17812 437.67395 91.17812 439.79895ZM97.1 439.79895Q97.1 438.2677 97.4125 437.34583Q97.725 436.40833 98.33437 435.90833Q98.95937 435.40833 99.89687 435.40833Q100.58437 435.40833 101.1 435.68958Q101.63125 435.97083 101.975 436.50208Q102.31875 437.0177 102.50625 437.7677Q102.69375 438.5177 102.69375 439.79895Q102.69375 441.31458 102.38125 442.23645Q102.08437 443.15833 101.45937 443.67395Q100.85 444.17395 99.89687 444.17395Q98.6625 444.17395 97.94375 443.28333Q97.1 442.22083 97.1 439.79895ZM98.17812 439.79895Q98.17812 441.90833 98.67812 442.61145Q99.17812 443.31458 99.89687 443.31458Q100.63125 443.31458 101.11562 442.61145Q101.61562 441.90833 101.61562 439.79895Q101.61562 437.67395 101.11562 436.98645Q100.63125 436.28333 99.88125 436.28333Q99.1625 436.28333 98.725 436.8927Q98.17812 437.67395 98.17812 439.79895Z" fill-rule="nonzero"/><path fill="#000000" d="M84.725 271.19376Q84.06875 270.94376 83.74062 270.50626Q83.42812 270.05313 83.42812 269.44376Q83.42812 268.50626 84.1 267.86563Q84.7875 267.225 85.89687 267.225Q87.02187 267.225 87.70937 267.88126Q88.39687 268.5375 88.39687 269.475Q88.39687 270.06876 88.08437 270.50626Q87.77187 270.94376 87.13125 271.19376Q87.92812 271.44376 88.33437 272.02188Q88.74062 272.6 88.74062 273.39688Q88.74062 274.49063 87.95937 275.24063Q87.19375 275.99063 85.9125 275.99063Q84.64687 275.99063 83.86562 275.24063Q83.08437 274.49063 83.08437 273.36563Q83.08437 272.52188 83.50625 271.95938Q83.94375 271.39688 84.725 271.19376ZM84.50625 269.39688Q84.50625 270.00626 84.89687 270.39688Q85.30312 270.7875 85.92812 270.7875Q86.5375 270.7875 86.92812 270.4125Q87.31875 270.02188 87.31875 269.45938Q87.31875 268.88126 86.9125 268.49063Q86.50625 268.08438 85.9125 268.08438Q85.30312 268.08438 84.89687 268.475Q84.50625 268.86563 84.50625 269.39688ZM84.17812 273.36563Q84.17812 273.81876 84.38125 274.24063Q84.6 274.6625 85.02187 274.89688Q85.44375 275.13126 85.92812 275.13126Q86.67812 275.13126 87.1625 274.64688Q87.6625 274.1625 87.6625 273.4125Q87.6625 272.64688 87.1625 272.14688Q86.6625 271.64688 85.89687 271.64688Q85.14687 271.64688 84.6625 272.14688Q84.17812 272.63126 84.17812 273.36563ZM90.1 271.61563Q90.1 270.08438 90.4125 269.1625Q90.725 268.225 91.33437 267.725Q91.95937 267.225 92.89687 267.225Q93.58437 267.225 94.1 267.50626Q94.63125 267.7875 94.975 268.31876Q95.31875 268.83438 95.50625 269.58438Q95.69375 270.33438 95.69375 271.61563Q95.69375 273.13126 95.38125 274.05313Q95.08437 274.975 94.45937 275.49063Q93.85 275.99063 92.89687 275.99063Q91.6625 275.99063 90.94375 275.1Q90.1 274.0375 90.1 271.61563ZM91.17812 271.61563Q91.17812 273.725 91.67812 274.42813Q92.17812 275.13126 92.89687 275.13126Q93.63125 275.13126 94.11562 274.42813Q94.61562 273.725 94.61562 271.61563Q94.61562 269.49063 94.11562 268.80313Q93.63125 268.1 92.88125 268.1Q92.1625 268.1 91.725 268.70938Q91.17812 269.49063 91.17812 271.61563ZM97.1 271.61563Q97.1 270.08438 97.4125 269.1625Q97.725 268.225 98.33437 267.725Q98.95937 267.225 99.89687 267.225Q100.58437 267.225 101.1 267.50626Q101.63125 267.7875 101.975 268.31876Q102.31875 268.83438 102.50625 269.58438Q102.69375 270.33438 102.69375 271.61563Q102.69375 273.13126 102.38125 274.05313Q102.08437 274.975 101.45937 275.49063Q100.85 275.99063 99.89687 275.99063Q98.6625 275.99063 97.94375 275.1Q97.1 274.0375 97.1 271.61563ZM98.17812 271.61563Q98.17812 273.725 98.67812 274.42813Q99.17812 275.13126 99.89687 275.13126Q100.63125 275.13126 101.11562 274.42813Q101.61562 273.725 101.61562 271.61563Q101.61562 269.49063 101.11562 268.80313Q100.63125 268.1 99.88125 268.1Q99.1625 268.1 98.725 268.70938Q98.17812 269.49063 98.17812 271.61563Z" fill-rule="nonzero"/><path fill="#000000" d="M80.06875 107.666664L79.02187 107.666664L79.02187 100.947914Q78.63125 101.30729 78.00625 101.68229Q77.39687 102.041664 76.9125 102.21354L76.9125 101.197914Q77.7875 100.77604 78.44375 100.197914Q79.11562 99.604164 79.39687 99.041664L80.06875 99.041664L80.06875 107.666664ZM83.1 103.43229Q83.1 101.90104 83.4125 100.979164Q83.725 100.041664 84.33437 99.541664Q84.95937 99.041664 85.89687 99.041664Q86.58437 99.041664 87.1 99.322914Q87.63125 99.604164 87.975 100.135414Q88.31875 100.65104 88.50625 101.40104Q88.69375 102.15104 88.69375 103.43229Q88.69375 104.947914 88.38125 105.86979Q88.08437 106.791664 87.45937 107.30729Q86.85 107.80729 85.89687 107.80729Q84.6625 107.80729 83.94375 106.916664Q83.1 105.854164 83.1 103.43229ZM84.17812 103.43229Q84.17812 105.541664 84.67812 106.24479Q85.17812 106.947914 85.89687 106.947914Q86.63125 106.947914 87.11562 106.24479Q87.61562 105.541664 87.61562 103.43229Q87.61562 101.30729 87.11562 100.61979Q86.63125 99.916664 85.88125 99.916664Q85.1625 99.916664 84.725 100.52604Q84.17812 101.30729 84.17812 103.43229ZM90.1 103.43229Q90.1 101.90104 90.4125 100.979164Q90.725 100.041664 91.33437 99.541664Q91.95937 99.041664 92.89687 99.041664Q93.58437 99.041664 94.1 99.322914Q94.63125 99.604164 94.975 100.135414Q95.31875 100.65104 95.50625 101.40104Q95.69375 102.15104 95.69375 103.43229Q95.69375 104.947914 95.38125 105.86979Q95.08437 106.791664 94.45937 107.30729Q93.85 107.80729 92.89687 107.80729Q91.6625 107.80729 90.94375 106.916664Q90.1 105.854164 90.1 103.43229ZM91.17812 103.43229Q91.17812 105.541664 91.67812 106.24479Q92.17812 106.947914 92.89687 106.947914Q93.63125 106.947914 94.11562 106.24479Q94.61562 105.541664 94.61562 103.43229Q94.61562 101.30729 94.11562 100.61979Q93.63125 99.916664 92.88125 99.916664Q92.1625 99.916664 91.725 100.52604Q91.17812 101.30729 91.17812 103.43229ZM97.1 103.43229Q97.1 101.90104 97.4125 100.979164Q97.725 100.041664 98.33437 99.541664Q98.95937 99.041664 99.89687 99.041664Q100.58437 99.041664 101.1 99.322914Q101.63125 99.604164 101.975 100.135414Q102.31875 100.65104 102.50625 101.40104Q102.69375 102.15104 102.69375 103.43229Q102.69375 104.947914 102.38125 105.86979Q102.08437 106.791664 101.45937 107.30729Q100.85 107.80729 99.89687 107.80729Q98.6625 107.80729 97.94375 106.916664Q97.1 105.854164 97.1 103.43229ZM98.17812 103.43229Q98.17812 105.541664 98.67812 106.24479Q99.17812 106.947914 99.89687 106.947914Q100.63125 106.947914 101.11562 106.24479Q101.61562 105.541664 101.61562 103.43229Q101.61562 101.30729 101.11562 100.61979Q100.63125 99.916664 99.88125 99.916664Q99.1625 99.916664 98.725 100.52604Q98.17812 101.30729 98.17812 103.43229Z" fill-rule="nonzero"/><path fill="#000000" d="M1369.025 788.7438Q1368.3688 788.4938 1368.0406 788.0563Q1367.7281 787.60315 1367.7281 786.9938Q1367.7281 786.0563 1368.4 785.41565Q1369.0875 784.775 1370.1969 784.775Q1371.3219 784.775 1372.0094 785.4313Q1372.6969 786.0875 1372.6969 787.025Q1372.6969 787.6188 1372.3844 788.0563Q1372.0719 788.4938 1371.4313 788.7438Q1372.2281 788.9938 1372.6344 789.5719Q1373.0406 790.15 1373.0406 790.9469Q1373.0406 792.04065 1372.2594 792.79065Q1371.4938 793.54065 1370.2125 793.54065Q1368.9469 793.54065 1368.1656 792.79065Q1367.3844 792.04065 1367.3844 790.91565Q1367.3844 790.0719 1367.8063 789.5094Q1368.2438 788.9469 1369.025 788.7438ZM1368.8063 786.9469Q1368.8063 787.5563 1369.1969 787.9469Q1369.6031 788.3375 1370.2281 788.3375Q1370.8375 788.3375 1371.2281 787.9625Q1371.6188 787.5719 1371.6188 787.0094Q1371.6188 786.4313 1371.2125 786.04065Q1370.8063 785.6344 1370.2125 785.6344Q1369.6031 785.6344 1369.1969 786.025Q1368.8063 786.41565 1368.8063 786.9469ZM1368.4781 790.91565Q1368.4781 791.3688 1368.6813 791.79065Q1368.9 792.2125 1369.3219 792.4469Q1369.7438 792.6813 1370.2281 792.6813Q1370.9781 792.6813 1371.4625 792.1969Q1371.9625 791.7125 1371.9625 790.9625Q1371.9625 790.1969 1371.4625 789.6969Q1370.9625 789.1969 1370.1969 789.1969Q1369.4469 789.1969 1368.9625 789.6969Q1368.4781 790.1813 1368.4781 790.91565ZM1374.4 789.16565Q1374.4 787.6344 1374.7125 786.7125Q1375.025 785.775 1375.6344 785.275Q1376.2594 784.775 1377.1969 784.775Q1377.8844 784.775 1378.4 785.0563Q1378.9313 785.3375 1379.275 785.8688Q1379.6188 786.3844 1379.8063 787.1344Q1379.9938 787.8844 1379.9938 789.16565Q1379.9938 790.6813 1379.6813 791.60315Q1379.3844 792.525 1378.7594 793.04065Q1378.15 793.54065 1377.1969 793.54065Q1375.9625 793.54065 1375.2438 792.65Q1374.4 791.5875 1374.4 789.16565ZM1375.4781 789.16565Q1375.4781 791.275 1375.9781 791.97815Q1376.4781 792.6813 1377.1969 792.6813Q1377.9313 792.6813 1378.4156 791.97815Q1378.9156 791.275 1378.9156 789.16565Q1378.9156 787.04065 1378.4156 786.35315Q1377.9313 785.65 1377.1813 785.65Q1376.4625 785.65 1376.025 786.2594Q1375.4781 787.04065 1375.4781 789.16565ZM1381.4 789.16565Q1381.4 787.6344 1381.7125 786.7125Q1382.025 785.775 1382.6344 785.275Q1383.2594 784.775 1384.1969 784.775Q1384.8844 784.775 1385.4 785.0563Q1385.9313 785.3375 1386.275 785.8688Q1386.6188 786.3844 1386.8063 787.1344Q1386.9938 787.8844 1386.9938 789.16565Q1386.9938 790.6813 1386.6813 791.60315Q1386.3844 792.525 1385.7594 793.04065Q1385.15 793.54065 1384.1969 793.54065Q1382.9625 793.54065 1382.2438 792.65Q1381.4 791.5875 1381.4 789.16565ZM1382.4781 789.16565Q1382.4781 791.275 1382.9781 791.97815Q1383.4781 792.6813 1384.1969 792.6813Q1384.9313 792.6813 1385.4156 791.97815Q1385.9156 791.275 1385.9156 789.16565Q1385.9156 787.04065 1385.4156 786.35315Q1384.9313 785.65 1384.1813 785.65Q1383.4625 785.65 1383.025 786.2594Q1382.4781 787.04065 1382.4781 789.16565Z" fill-rule="nonzero"/><path fill="#000000" d="M1156.5687 793.4L1155.5219 793.4L1155.5219 786.6813Q1155.1312 787.04065 1154.5062 787.41565Q1153.8969 787.775 1153.4125 787.9469L1153.4125 786.9313Q1154.2875 786.5094 1154.9437 785.9313Q1155.6156 785.3375 1155.8969 784.775L1156.5687 784.775L1156.5687 793.4ZM1159.6 789.16565Q1159.6 787.6344 1159.9125 786.7125Q1160.225 785.775 1160.8344 785.275Q1161.4594 784.775 1162.3969 784.775Q1163.0844 784.775 1163.6 785.0563Q1164.1312 785.3375 1164.475 785.8688Q1164.8187 786.3844 1165.0062 787.1344Q1165.1937 787.8844 1165.1937 789.16565Q1165.1937 790.6813 1164.8812 791.60315Q1164.5844 792.525 1163.9594 793.04065Q1163.35 793.54065 1162.3969 793.54065Q1161.1625 793.54065 1160.4437 792.65Q1159.6 791.5875 1159.6 789.16565ZM1160.6781 789.16565Q1160.6781 791.275 1161.1781 791.97815Q1161.6781 792.6813 1162.3969 792.6813Q1163.1312 792.6813 1163.6156 791.97815Q1164.1156 791.275 1164.1156 789.16565Q1164.1156 787.04065 1163.6156 786.35315Q1163.1312 785.65 1162.3812 785.65Q1161.6625 785.65 1161.225 786.2594Q1160.6781 787.04065 1160.6781 789.16565ZM1166.6 789.16565Q1166.6 787.6344 1166.9125 786.7125Q1167.225 785.775 1167.8344 785.275Q1168.4594 784.775 1169.3969 784.775Q1170.0844 784.775 1170.6 785.0563Q1171.1312 785.3375 1171.475 785.8688Q1171.8187 786.3844 1172.0062 787.1344Q1172.1937 787.8844 1172.1937 789.16565Q1172.1937 790.6813 1171.8812 791.60315Q1171.5844 792.525 1170.9594 793.04065Q1170.35 793.54065 1169.3969 793.54065Q1168.1625 793.54065 1167.4437 792.65Q1166.6 791.5875 1166.6 789.16565ZM1167.6781 789.16565Q1167.6781 791.275 1168.1781 791.97815Q1168.6781 792.6813 1169.3969 792.6813Q1170.1312 792.6813 1170.6156 791.97815Q1171.1156 791.275 1171.1156 789.16565Q1171.1156 787.04065 1170.6156 786.35315Q1170.1312 785.65 1169.3812 785.65Q1168.6625 785.65 1168.225 786.2594Q1167.6781 787.04065 1167.6781 789.16565ZM1173.6 789.16565Q1173.6 787.6344 1173.9125 786.7125Q1174.225 785.775 1174.8344 785.275Q1175.4594 784.775 1176.3969 784.775Q1177.0844 784.775 1177.6 785.0563Q1178.1312 785.3375 1178.475 785.8688Q1178.8187 786.3844 1179.0062 787.1344Q1179.1937 787.8844 1179.1937 789.16565Q1179.1937 790.6813 1178.8812 791.60315Q1178.5844 792.525 1177.9594 793.04065Q1177.35 793.54065 1176.3969 793.54065Q1175.1625 793.54065 1174.4437 792.65Q1173.6 791.5875 1173.6 789.16565ZM1174.6781 789.16565Q1174.6781 791.275 1175.1781 791.97815Q1175.6781 792.6813 1176.3969 792.6813Q1177.1312 792.6813 1177.6156 791.97815Q1178.1156 791.275 1178.1156 789.16565Q1178.1156 787.04065 1177.6156 786.35315Q1177.1312 785.65 1176.3812 785.65Q1175.6625 785.65 1175.225 786.2594Q1174.6781 787.04065 1174.6781 789.16565Z" fill-rule="nonzero"/><path fill="#000000" d="M945.26874 793.4L944.22186 793.4L944.22186 786.6813Q943.83124 787.04065 943.20624 787.41565Q942.59686 787.775 942.1125 787.9469L942.1125 786.9313Q942.9875 786.5094 943.64374 785.9313Q944.3156 785.3375 944.59686 784.775L945.26874 784.775L945.26874 793.4ZM953.84686 792.3844L953.84686 793.4L948.15936 793.4Q948.15936 793.025 948.28436 792.66565Q948.5031 792.0875 948.97186 791.525Q949.45624 790.9625 950.3625 790.22815Q951.76874 789.0719 952.2531 788.4Q952.7531 787.72815 952.7531 787.1344Q952.7531 786.5094 952.3 786.0875Q951.84686 785.65 951.1281 785.65Q950.3625 785.65 949.90936 786.10315Q949.45624 786.5563 949.4406 787.3688L948.3625 787.2594Q948.47186 786.04065 949.1906 785.41565Q949.925 784.775 951.15936 784.775Q952.39374 784.775 953.1125 785.4625Q953.83124 786.15 953.83124 787.16565Q953.83124 787.6813 953.6125 788.1813Q953.40936 788.66565 952.90936 789.22815Q952.425 789.775 951.3 790.72815Q950.34686 791.525 950.0656 791.8219Q949.8 792.10315 949.6281 792.3844L953.84686 792.3844ZM955.3 789.16565Q955.3 787.6344 955.6125 786.7125Q955.925 785.775 956.53436 785.275Q957.15936 784.775 958.09686 784.775Q958.78436 784.775 959.3 785.0563Q959.83124 785.3375 960.175 785.8688Q960.51874 786.3844 960.70624 787.1344Q960.89374 787.8844 960.89374 789.16565Q960.89374 790.6813 960.58124 791.60315Q960.28436 792.525 959.65936 793.04065Q959.05 793.54065 958.09686 793.54065Q956.8625 793.54065 956.14374 792.65Q955.3 791.5875 955.3 789.16565ZM956.3781 789.16565Q956.3781 791.275 956.8781 791.97815Q957.3781 792.6813 958.09686 792.6813Q958.83124 792.6813 959.3156 791.97815Q959.8156 791.275 959.8156 789.16565Q959.8156 787.04065 959.3156 786.35315Q958.83124 785.65 958.08124 785.65Q957.3625 785.65 956.925 786.2594Q956.3781 787.04065 956.3781 789.16565ZM962.3 789.16565Q962.3 787.6344 962.6125 786.7125Q962.925 785.775 963.53436 785.275Q964.15936 784.775 965.09686 784.775Q965.78436 784.775 966.3 785.0563Q966.83124 785.3375 967.175 785.8688Q967.51874 786.3844 967.70624 787.1344Q967.89374 787.8844 967.89374 789.16565Q967.89374 790.6813 967.58124 791.60315Q967.28436 792.525 966.65936 793.04065Q966.05 793.54065 965.09686 793.54065Q963.8625 793.54065 963.14374 792.65Q962.3 791.5875 962.3 789.16565ZM963.3781 789.16565Q963.3781 791.275 963.8781 791.97815Q964.3781 792.6813 965.09686 792.6813Q965.83124 792.6813 966.3156 791.97815Q966.8156 791.275 966.8156 789.16565Q966.8156 787.04065 966.3156 786.35315Q965.83124 785.65 965.08124 785.65Q964.3625 785.65 963.925 786.2594Q963.3781 787.04065 963.3781 789.16565Z" fill-rule="nonzero"/><path fill="#000000" d="M733.96875 793.4L732.9219 793.4L732.9219 786.6813Q732.53125 787.04065 731.90625 787.41565Q731.2969 787.775 730.8125 787.9469L730.8125 786.9313Q731.6875 786.5094 732.34375 785.9313Q733.0156 785.3375 733.2969 784.775L733.96875 784.775L733.96875 793.4ZM740.375 793.4L740.375 791.3375L736.65625 791.3375L736.65625 790.3688L740.5781 784.8063L741.4375 784.8063L741.4375 790.3688L742.59375 790.3688L742.59375 791.3375L741.4375 791.3375L741.4375 793.4L740.375 793.4ZM740.375 790.3688L740.375 786.5094L737.6875 790.3688L740.375 790.3688ZM744.0 789.16565Q744.0 787.6344 744.3125 786.7125Q744.625 785.775 745.2344 785.275Q745.8594 784.775 746.7969 784.775Q747.4844 784.775 748.0 785.0563Q748.53125 785.3375 748.875 785.8688Q749.21875 786.3844 749.40625 787.1344Q749.59375 787.8844 749.59375 789.16565Q749.59375 790.6813 749.28125 791.60315Q748.9844 792.525 748.3594 793.04065Q747.75 793.54065 746.7969 793.54065Q745.5625 793.54065 744.84375 792.65Q744.0 791.5875 744.0 789.16565ZM745.0781 789.16565Q745.0781 791.275 745.5781 791.97815Q746.0781 792.6813 746.7969 792.6813Q747.53125 792.6813 748.0156 791.97815Q748.5156 791.275 748.5156 789.16565Q748.5156 787.04065 748.0156 786.35315Q747.53125 785.65 746.78125 785.65Q746.0625 785.65 745.625 786.2594Q745.0781 787.04065 745.0781 789.16565ZM751.0 789.16565Q751.0 787.6344 751.3125 786.7125Q751.625 785.775 752.2344 785.275Q752.8594 784.775 753.7969 784.775Q754.4844 784.775 755.0 785.0563Q755.53125 785.3375 755.875 785.8688Q756.21875 786.3844 756.40625 787.1344Q756.59375 787.8844 756.59375 789.16565Q756.59375 790.6813 756.28125 791.60315Q755.9844 792.525 755.3594 793.04065Q754.75 793.54065 753.7969 793.54065Q752.5625 793.54065 751.84375 792.65Q751.0 791.5875 751.0 789.16565ZM752.0781 789.16565Q752.0781 791.275 752.5781 791.97815Q753.0781 792.6813 753.7969 792.6813Q754.53125 792.6813 755.0156 791.97815Q755.5156 791.275 755.5156 789.16565Q755.5156 787.04065 755.0156 786.35315Q754.53125 785.65 753.78125 785.65Q753.0625 785.65 752.625 786.2594Q752.0781 787.04065 752.0781 789.16565Z" fill-rule="nonzero"/><path fill="#000000" d="M522.66876 793.4L521.6219 793.4L521.6219 786.6813Q521.23126 787.04065 520.60626 787.41565Q519.9969 787.775 519.5125 787.9469L519.5125 786.9313Q520.3875 786.5094 521.04376 785.9313Q521.71564 785.3375 521.9969 784.775L522.66876 784.775L522.66876 793.4ZM531.16876 786.91565L530.1219 786.9938Q529.98126 786.3688 529.73126 786.0875Q529.29376 785.6344 528.66876 785.6344Q528.16876 785.6344 527.77814 785.91565Q527.29376 786.29065 526.9969 786.9938Q526.71564 787.6813 526.7 788.9625Q527.075 788.3844 527.6219 788.10315Q528.1844 787.8219 528.79376 787.8219Q529.84064 787.8219 530.575 788.60315Q531.325 789.3844 531.325 790.60315Q531.325 791.41565 530.96564 792.1188Q530.6219 792.8063 530.0125 793.1813Q529.40314 793.54065 528.6375 793.54065Q527.3094 793.54065 526.48126 792.5719Q525.65314 791.60315 525.65314 789.3844Q525.65314 786.8844 526.575 785.7594Q527.3719 784.775 528.73126 784.775Q529.7469 784.775 530.3875 785.35315Q531.04376 785.91565 531.16876 786.91565ZM526.8719 790.6188Q526.8719 791.16565 527.09064 791.66565Q527.325 792.15 527.73126 792.41565Q528.15314 792.6813 528.6219 792.6813Q529.27814 792.6813 529.7625 792.15Q530.2469 791.60315 530.2469 790.6813Q530.2469 789.79065 529.7625 789.275Q529.29376 788.7594 528.575 788.7594Q527.85626 788.7594 527.35626 789.275Q526.8719 789.79065 526.8719 790.6188ZM532.7 789.16565Q532.7 787.6344 533.0125 786.7125Q533.325 785.775 533.9344 785.275Q534.5594 784.775 535.4969 784.775Q536.1844 784.775 536.7 785.0563Q537.23126 785.3375 537.575 785.8688Q537.91876 786.3844 538.10626 787.1344Q538.29376 787.8844 538.29376 789.16565Q538.29376 790.6813 537.98126 791.60315Q537.6844 792.525 537.0594 793.04065Q536.45 793.54065 535.4969 793.54065Q534.2625 793.54065 533.54376 792.65Q532.7 791.5875 532.7 789.16565ZM533.77814 789.16565Q533.77814 791.275 534.27814 791.97815Q534.77814 792.6813 535.4969 792.6813Q536.23126 792.6813 536.71564 791.97815Q537.21564 791.275 537.21564 789.16565Q537.21564 787.04065 536.71564 786.35315Q536.23126 785.65 535.48126 785.65Q534.7625 785.65 534.325 786.2594Q533.77814 787.04065 533.77814 789.16565ZM539.7 789.16565Q539.7 787.6344 540.0125 786.7125Q540.325 785.775 540.9344 785.275Q541.5594 784.775 542.4969 784.775Q543.1844 784.775 543.7 785.0563Q544.23126 785.3375 544.575 785.8688Q544.91876 786.3844 545.10626 787.1344Q545.29376 787.8844 545.29376 789.16565Q545.29376 790.6813 544.98126 791.60315Q544.6844 792.525 544.0594 793.04065Q543.45 793.54065 542.4969 793.54065Q541.2625 793.54065 540.54376 792.65Q539.7 791.5875 539.7 789.16565ZM540.77814 789.16565Q540.77814 791.275 541.27814 791.97815Q541.77814 792.6813 542.4969 792.6813Q543.23126 792.6813 543.71564 791.97815Q544.21564 791.275 544.21564 789.16565Q544.21564 787.04065 543.71564 786.35315Q543.23126 785.65 542.48126 785.65Q541.7625 785.65 541.325 786.2594Q540.77814 787.04065 540.77814 789.16565Z" fill-rule="nonzero"/><path fill="#000000" d="M311.36874 793.4L310.32187 793.4L310.32187 786.6813Q309.93124 787.04065 309.30624 787.41565Q308.69687 787.775 308.2125 787.9469L308.2125 786.9313Q309.0875 786.5094 309.74374 785.9313Q310.41562 785.3375 310.69687 784.775L311.36874 784.775L311.36874 793.4ZM316.025 788.7438Q315.36874 788.4938 315.04062 788.0563Q314.72812 787.60315 314.72812 786.9938Q314.72812 786.0563 315.4 785.41565Q316.0875 784.775 317.19687 784.775Q318.32187 784.775 319.00937 785.4313Q319.69687 786.0875 319.69687 787.025Q319.69687 787.6188 319.38437 788.0563Q319.07187 788.4938 318.43124 788.7438Q319.22812 788.9938 319.63437 789.5719Q320.04062 790.15 320.04062 790.9469Q320.04062 792.04065 319.25937 792.79065Q318.49374 793.54065 317.2125 793.54065Q315.94687 793.54065 315.16562 792.79065Q314.38437 792.04065 314.38437 790.91565Q314.38437 790.0719 314.80624 789.5094Q315.24374 788.9469 316.025 788.7438ZM315.80624 786.9469Q315.80624 787.5563 316.19687 787.9469Q316.60312 788.3375 317.22812 788.3375Q317.8375 788.3375 318.22812 787.9625Q318.61874 787.5719 318.61874 787.0094Q318.61874 786.4313 318.2125 786.04065Q317.80624 785.6344 317.2125 785.6344Q316.60312 785.6344 316.19687 786.025Q315.80624 786.41565 315.80624 786.9469ZM315.47812 790.91565Q315.47812 791.3688 315.68124 791.79065Q315.9 792.2125 316.32187 792.4469Q316.74374 792.6813 317.22812 792.6813Q317.97812 792.6813 318.4625 792.1969Q318.9625 791.7125 318.9625 790.9625Q318.9625 790.1969 318.4625 789.6969Q317.9625 789.1969 317.19687 789.1969Q316.44687 789.1969 315.9625 789.6969Q315.47812 790.1813 315.47812 790.91565ZM321.4 789.16565Q321.4 787.6344 321.7125 786.7125Q322.025 785.775 322.63437 785.275Q323.25937 784.775 324.19687 784.775Q324.88437 784.775 325.4 785.0563Q325.93124 785.3375 326.275 785.8688Q326.61874 786.3844 326.80624 787.1344Q326.99374 787.8844 326.99374 789.16565Q326.99374 790.6813 326.68124 791.60315Q326.38437 792.525 325.75937 793.04065Q325.15 793.54065 324.19687 793.54065Q322.9625 793.54065 322.24374 792.65Q321.4 791.5875 321.4 789.16565ZM322.47812 789.16565Q322.47812 791.275 322.97812 791.97815Q323.47812 792.6813 324.19687 792.6813Q324.93124 792.6813 325.41562 791.97815Q325.91562 791.275 325.91562 789.16565Q325.91562 787.04065 325.41562 786.35315Q324.93124 785.65 324.18124 785.65Q323.4625 785.65 323.025 786.2594Q322.47812 787.04065 322.47812 789.16565ZM328.4 789.16565Q328.4 787.6344 328.7125 786.7125Q329.025 785.775 329.63437 785.275Q330.25937 784.775 331.19687 784.775Q331.88437 784.775 332.4 785.0563Q332.93124 785.3375 333.275 785.8688Q333.61874 786.3844 333.80624 787.1344Q333.99374 787.8844 333.99374 789.16565Q333.99374 790.6813 333.68124 791.60315Q333.38437 792.525 332.75937 793.04065Q332.15 793.54065 331.19687 793.54065Q329.9625 793.54065 329.24374 792.65Q328.4 791.5875 328.4 789.16565ZM329.47812 789.16565Q329.47812 791.275 329.97812 791.97815Q330.47812 792.6813 331.19687 792.6813Q331.93124 792.6813 332.41562 791.97815Q332.91562 791.275 332.91562 789.16565Q332.91562 787.04065 332.41562 786.35315Q331.93124 785.65 331.18124 785.65Q330.4625 785.65 330.025 786.2594Q329.47812 787.04065 329.47812 789.16565Z" fill-rule="nonzero"/><path fill="#000000" d="M101.64687 792.3844L101.64687 793.4L95.95937 793.4Q95.95937 793.025 96.08437 792.66565Q96.30312 792.0875 96.77187 791.525Q97.25625 790.9625 98.1625 790.22815Q99.56875 789.0719 100.05312 788.4Q100.55312 787.72815 100.55312 787.1344Q100.55312 786.5094 100.1 786.0875Q99.64687 785.65 98.92812 785.65Q98.1625 785.65 97.70937 786.10315Q97.25625 786.5563 97.24062 787.3688L96.1625 787.2594Q96.27187 786.04065 96.99062 785.41565Q97.725 784.775 98.95937 784.775Q100.19375 784.775 100.9125 785.4625Q101.63125 786.15 101.63125 787.16565Q101.63125 787.6813 101.4125 788.1813Q101.20937 788.66565 100.70937 789.22815Q100.225 789.775 99.1 790.72815Q98.14687 791.525 97.86562 791.8219Q97.6 792.10315 97.42812 792.3844L101.64687 792.3844ZM103.1 789.16565Q103.1 787.6344 103.4125 786.7125Q103.725 785.775 104.33437 785.275Q104.95937 784.775 105.89687 784.775Q106.58437 784.775 107.1 785.0563Q107.63125 785.3375 107.975 785.8688Q108.31875 786.3844 108.50625 787.1344Q108.69375 787.8844 108.69375 789.16565Q108.69375 790.6813 108.38125 791.60315Q108.08437 792.525 107.45937 793.04065Q106.85 793.54065 105.89687 793.54065Q104.6625 793.54065 103.94375 792.65Q103.1 791.5875 103.1 789.16565ZM104.17812 789.16565Q104.17812 791.275 104.67812 791.97815Q105.17812 792.6813 105.89687 792.6813Q106.63125 792.6813 107.11562 791.97815Q107.61562 791.275 107.61562 789.16565Q107.61562 787.04065 107.11562 786.35315Q106.63125 785.65 105.88125 785.65Q105.1625 785.65 104.725 786.2594Q104.17812 787.04065 104.17812 789.16565ZM110.1 789.16565Q110.1 787.6344 110.4125 786.7125Q110.725 785.775 111.33437 785.275Q111.95937 784.775 112.89687 784.775Q113.58437 784.775 114.1 785.0563Q114.63125 785.3375 114.975 785.8688Q115.31875 786.3844 115.50625 787.1344Q115.69375 787.8844 115.69375 789.16565Q115.69375 790.6813 115.38125 791.60315Q115.08437 792.525 114.45937 793.04065Q113.85 793.54065 112.89687 793.54065Q111.6625 793.54065 110.94375 792.65Q110.1 791.5875 110.1 789.16565ZM111.17812 789.16565Q111.17812 791.275 111.67812 791.97815Q112.17812 792.6813 112.89687 792.6813Q113.63125 792.6813 114.11562 791.97815Q114.61562 791.275 114.61562 789.16565Q114.61562 787.04065 114.11562 786.35315Q113.63125 785.65 112.88125 785.65Q112.1625 785.65 111.725 786.2594Q111.17812 787.04065 111.17812 789.16565ZM117.1 789.16565Q117.1 787.6344 117.4125 786.7125Q117.725 785.775 118.33437 785.275Q118.95937 784.775 119.89687 784.775Q120.58437 784.775 121.1 785.0563Q121.63125 785.3375 121.975 785.8688Q122.31875 786.3844 122.50625 787.1344Q122.69375 787.8844 122.69375 789.16565Q122.69375 790.6813 122.38125 791.60315Q122.08437 792.525 121.45937 793.04065Q120.85 793.54065 119.89687 793.54065Q118.6625 793.54065 117.94375 792.65Q117.1 791.5875 117.1 789.16565ZM118.17812 789.16565Q118.17812 791.275 118.67812 791.97815Q119.17812 792.6813 119.89687 792.6813Q120.63125 792.6813 121.11562 791.97815Q121.61562 791.275 121.61562 789.16565Q121.61562 787.04065 121.11562 786.35315Q120.63125 785.65 119.88125 785.65Q119.1625 785.65 118.725 786.2594Q118.17812 787.04065 118.17812 789.16565Z" fill-rule="nonzero"/><path fill="#757575" d="M45.084373 62.6L45.084373 48.2875L47.94375 48.2875L51.31875 58.4125Q51.7875 59.834373 52.00625 60.5375Q52.25625 59.75625 52.771873 58.240623L56.19375 48.2875L58.740623 48.2875L58.740623 62.6L56.928123 62.6L56.928123 50.615623L52.75625 62.6L51.053123 62.6L46.9125 50.4125L46.9125 62.6L45.084373 62.6ZM69.02187 59.25625L70.83437 59.490623Q70.4125 61.06875 69.24062 61.959373Q68.08437 62.834373 66.27187 62.834373Q64.00625 62.834373 62.6625 61.44375Q61.334373 60.0375 61.334373 57.50625Q61.334373 54.88125 62.678123 53.44375Q64.02187 51.990623 66.17812 51.990623Q68.25625 51.990623 69.56875 53.4125Q70.89687 54.81875 70.89687 57.396873Q70.89687 57.553123 70.88125 57.865623L63.146873 57.865623Q63.240623 59.56875 64.11562 60.475Q64.99062 61.38125 66.2875 61.38125Q67.25625 61.38125 67.92812 60.88125Q68.61562 60.365623 69.02187 59.25625ZM63.240623 56.4125L69.0375 56.4125Q68.92812 55.115623 68.38125 54.459373Q67.5375 53.44375 66.19375 53.44375Q64.99062 53.44375 64.1625 54.25625Q63.334373 55.053123 63.240623 56.4125ZM79.69375 61.31875Q78.70937 62.146873 77.80312 62.490623Q76.89687 62.834373 75.86562 62.834373Q74.1625 62.834373 73.24062 62.00625Q72.31875 61.1625 72.31875 59.865623Q72.31875 59.1 72.6625 58.475Q73.02187 57.85 73.58437 57.475Q74.14687 57.084373 74.85 56.88125Q75.36562 56.75625 76.4125 56.615623Q78.5375 56.365623 79.5375 56.021873Q79.55312 55.6625 79.55312 55.553123Q79.55312 54.490623 79.05312 54.0375Q78.38125 53.44375 77.05312 53.44375Q75.80312 53.44375 75.20937 53.88125Q74.63125 54.31875 74.35 55.428123L72.63125 55.19375Q72.86562 54.084373 73.39687 53.4125Q73.92812 52.725 74.94375 52.365623Q75.95937 51.990623 77.30312 51.990623Q78.63125 51.990623 79.45937 52.303123Q80.2875 52.615623 80.67812 53.1Q81.06875 53.56875 81.225 54.2875Q81.31875 54.740623 81.31875 55.9125L81.31875 58.25625Q81.31875 60.709373 81.42812 61.365623Q81.5375 62.00625 81.88125 62.6L80.0375 62.6Q79.77187 62.053123 79.69375 61.31875ZM79.5375 57.396873Q78.58437 57.7875 76.6625 58.053123Q75.58437 58.209373 75.13125 58.4125Q74.69375 58.6 74.44375 58.975Q74.19375 59.35 74.19375 59.81875Q74.19375 60.521873 74.725 60.990623Q75.25625 61.459373 76.2875 61.459373Q77.30312 61.459373 78.08437 61.021873Q78.88125 60.56875 79.25625 59.803123Q79.5375 59.19375 79.5375 58.0375L79.5375 57.396873ZM83.9125 62.6L83.9125 52.225L85.50625 52.225L85.50625 53.709373Q86.64687 51.990623 88.80312 51.990623Q89.74062 51.990623 90.52187 52.334373Q91.31875 52.6625 91.70937 53.209373Q92.1 53.75625 92.25625 54.50625Q92.35 55.00625 92.35 56.225L92.35 62.6L90.58437 62.6L90.58437 56.2875Q90.58437 55.209373 90.38125 54.678123Q90.17812 54.146873 89.64687 53.834373Q89.13125 53.521873 88.42812 53.521873Q87.30312 53.521873 86.49062 54.240623Q85.67812 54.94375 85.67812 56.928123L85.67812 62.6L83.9125 62.6ZM100.24062 62.6L100.24062 48.2875L109.89687 48.2875L109.89687 49.975L102.13125 49.975L102.13125 54.4125L108.85 54.4125L108.85 56.1L102.13125 56.1L102.13125 62.6L100.24062 62.6ZM120.6625 60.9125L120.6625 62.6L111.20937 62.6Q111.19375 61.959373 111.4125 61.38125Q111.77187 60.4125 112.56875 59.475Q113.36562 58.5375 114.86562 57.303123Q117.20937 55.396873 118.02187 54.2875Q118.85 53.1625 118.85 52.1625Q118.85 51.115623 118.1 50.396873Q117.35 49.678123 116.14687 49.678123Q114.88125 49.678123 114.11562 50.44375Q113.35 51.209373 113.35 52.553123L111.5375 52.365623Q111.725 50.35 112.92812 49.2875Q114.14687 48.225 116.19375 48.225Q118.24062 48.225 119.44375 49.365623Q120.64687 50.50625 120.64687 52.19375Q120.64687 53.053123 120.2875 53.896873Q119.94375 54.725 119.13125 55.646873Q118.31875 56.553123 116.42812 58.1625Q114.83437 59.490623 114.38125 59.959373Q113.94375 60.428123 113.64687 60.9125L120.6625 60.9125ZM131.80313 62.6L127.85 52.225L129.70938 52.225L131.94376 58.44375Q132.30313 59.44375 132.6 60.521873Q132.83438 59.709373 133.25626 58.553123L135.55313 52.225L137.36563 52.225L133.44376 62.6L131.80313 62.6ZM137.20938 59.50625L138.95938 59.225Q139.1 60.271873 139.77188 60.834373Q140.44376 61.38125 141.64688 61.38125Q142.85 61.38125 143.42813 60.896873Q144.02188 60.396873 144.02188 59.740623Q144.02188 59.146873 143.50626 58.803123Q143.14688 58.56875 141.70938 58.209373Q139.77188 57.709373 139.02188 57.365623Q138.2875 57.00625 137.89688 56.38125Q137.50626 55.740623 137.50626 54.975Q137.50626 54.2875 137.81876 53.69375Q138.14688 53.1 138.69376 52.709373Q139.1 52.4125 139.80313 52.209373Q140.52188 51.990623 141.33438 51.990623Q142.55313 51.990623 143.475 52.35Q144.39688 52.69375 144.83438 53.303123Q145.27188 53.896873 145.44376 54.896873L143.725 55.13125Q143.6 54.334373 143.0375 53.896873Q142.475 53.44375 141.45938 53.44375Q140.24063 53.44375 139.725 53.85Q139.20938 54.240623 139.20938 54.771873Q139.20938 55.115623 139.42813 55.396873Q139.63126 55.678123 140.1 55.865623Q140.36563 55.959373 141.64688 56.303123Q143.52188 56.803123 144.25626 57.13125Q144.99063 57.44375 145.4125 58.053123Q145.83438 58.646873 145.83438 59.553123Q145.83438 60.428123 145.31876 61.209373Q144.80313 61.990623 143.83438 62.4125Q142.86563 62.834373 141.64688 62.834373Q139.63126 62.834373 138.56876 61.990623Q137.50626 61.146873 137.20938 59.50625ZM154.24063 62.6L154.24063 48.2875L163.89688 48.2875L163.89688 49.975L156.13126 49.975L156.13126 54.4125L162.85 54.4125L162.85 56.1L156.13126 56.1L156.13126 62.6L154.24063 62.6ZM172.05313 62.6L170.2875 62.6L170.2875 51.396873Q169.6625 52.00625 168.63126 52.615623Q167.6 53.209373 166.77188 53.521873L166.77188 51.81875Q168.25626 51.13125 169.35 50.146873Q170.45938 49.146873 170.9125 48.225L172.05313 48.225L172.05313 62.6ZM182.24063 58.303123L182.24063 56.5375L187.63126 56.5375L187.63126 58.303123L182.24063 58.303123ZM196.24063 62.6L196.24063 48.2875L205.89688 48.2875L205.89688 49.975L198.13126 49.975L198.13126 54.4125L204.85 54.4125L204.85 56.1L198.13126 56.1L198.13126 62.6L196.24063 62.6ZM215.02188 59.25625L216.83438 59.490623Q216.4125 61.06875 215.24063 61.959373Q214.08438 62.834373 212.27188 62.834373Q210.00626 62.834373 208.6625 61.44375Q207.33438 60.0375 207.33438 57.50625Q207.33438 54.88125 208.67813 53.44375Q210.02188 51.990623 212.17813 51.990623Q214.25626 51.990623 215.56876 53.4125Q216.89688 54.81875 216.89688 57.396873Q216.89688 57.553123 216.88126 57.865623L209.14688 57.865623Q209.24063 59.56875 210.11563 60.475Q210.99063 61.38125 212.2875 61.38125Q213.25626 61.38125 213.92813 60.88125Q214.61563 60.365623 215.02188 59.25625ZM209.24063 56.4125L215.0375 56.4125Q214.92813 55.115623 214.38126 54.459373Q213.5375 53.44375 212.19376 53.44375Q210.99063 53.44375 210.1625 54.25625Q209.33438 55.053123 209.24063 56.4125ZM218.9125 62.6L218.9125 52.225L220.49063 52.225L220.49063 53.678123Q220.975 52.928123 221.7875 52.459373Q222.6 51.990623 223.63126 51.990623Q224.7875 51.990623 225.52188 52.475Q226.25626 52.94375 226.56876 53.803123Q227.80313 51.990623 229.77188 51.990623Q231.31876 51.990623 232.14688 52.85Q232.975 53.709373 232.975 55.475L232.975 62.6L231.225 62.6L231.225 56.06875Q231.225 55.00625 231.05313 54.553123Q230.88126 54.084373 230.42813 53.803123Q229.99063 53.521873 229.38126 53.521873Q228.2875 53.521873 227.55313 54.25625Q226.83438 54.975 226.83438 56.56875L226.83438 62.6L225.08438 62.6L225.08438 55.865623Q225.08438 54.69375 224.64688 54.115623Q224.225 53.521873 223.24063 53.521873Q222.50626 53.521873 221.86563 53.9125Q221.24063 54.303123 220.95938 55.053123Q220.67813 55.803123 220.67813 57.225L220.67813 62.6L218.9125 62.6ZM241.69376 61.31875Q240.70938 62.146873 239.80313 62.490623Q238.89688 62.834373 237.86563 62.834373Q236.1625 62.834373 235.24063 62.00625Q234.31876 61.1625 234.31876 59.865623Q234.31876 59.1 234.6625 58.475Q235.02188 57.85 235.58438 57.475Q236.14688 57.084373 236.85 56.88125Q237.36563 56.75625 238.4125 56.615623Q240.5375 56.365623 241.5375 56.021873Q241.55313 55.6625 241.55313 55.553123Q241.55313 54.490623 241.05313 54.0375Q240.38126 53.44375 239.05313 53.44375Q237.80313 53.44375 237.20938 53.88125Q236.63126 54.31875 236.35 55.428123L234.63126 55.19375Q234.86563 54.084373 235.39688 53.4125Q235.92813 52.725 236.94376 52.365623Q237.95938 51.990623 239.30313 51.990623Q240.63126 51.990623 241.45938 52.303123Q242.2875 52.615623 242.67813 53.1Q243.06876 53.56875 243.225 54.2875Q243.31876 54.740623 243.31876 55.9125L243.31876 58.25625Q243.31876 60.709373 243.42813 61.365623Q243.5375 62.00625 243.88126 62.6L242.0375 62.6Q241.77188 62.053123 241.69376 61.31875ZM241.5375 57.396873Q240.58438 57.7875 238.6625 58.053123Q237.58438 58.209373 237.13126 58.4125Q236.69376 58.6 236.44376 58.975Q236.19376 59.35 236.19376 59.81875Q236.19376 60.521873 236.725 60.990623Q237.25626 61.459373 238.2875 61.459373Q239.30313 61.459373 240.08438 61.021873Q240.88126 60.56875 241.25626 59.803123Q241.5375 59.19375 241.5375 58.0375L241.5375 57.396873ZM245.88126 62.6L245.88126 48.2875L247.63126 48.2875L247.63126 62.6L245.88126 62.6ZM257.02188 59.25625L258.83438 59.490623Q258.4125 61.06875 257.24063 61.959373Q256.08438 62.834373 254.27188 62.834373Q252.00626 62.834373 250.6625 61.44375Q249.33438 60.0375 249.33438 57.50625Q249.33438 54.88125 250.67813 53.44375Q252.02188 51.990623 254.17813 51.990623Q256.25626 51.990623 257.56876 53.4125Q258.89688 54.81875 258.89688 57.396873Q258.89688 57.553123 258.88126 57.865623L251.14688 57.865623Q251.24063 59.56875 252.11563 60.475Q252.99063 61.38125 254.2875 61.38125Q255.25626 61.38125 255.92813 60.88125Q256.61563 60.365623 257.02188 59.25625ZM251.24063 56.4125L257.0375 56.4125Q256.92813 55.115623 256.38126 54.459373Q255.5375 53.44375 254.19376 53.44375Q252.99063 53.44375 252.1625 54.25625Q251.33438 55.053123 251.24063 56.4125ZM269.6625 60.9125L269.6625 62.6L260.20938 62.6Q260.19376 61.959373 260.4125 61.38125Q260.77188 60.4125 261.56876 59.475Q262.36563 58.5375 263.86563 57.303123Q266.20938 55.396873 267.02188 54.2875Q267.85 53.1625 267.85 52.1625Q267.85 51.115623 267.1 50.396873Q266.35 49.678123 265.14688 49.678123Q263.88126 49.678123 263.11563 50.44375Q262.35 51.209373 262.35 52.553123L260.5375 52.365623Q260.725 50.35 261.92813 49.2875Q263.14688 48.225 265.19376 48.225Q267.24063 48.225 268.44376 49.365623Q269.64688 50.50625 269.64688 52.19375Q269.64688 53.053123 269.2875 53.896873Q268.94376 54.725 268.13126 55.646873Q267.31876 56.553123 265.42813 58.1625Q263.83438 59.490623 263.38126 59.959373Q262.94376 60.428123 262.64688 60.9125L269.6625 60.9125Z" fill-rule="nonzero"/></svg>