<svg version="1.1" viewBox="0.0 0.0 1258.0 785.0" fill="none" stroke="none" stroke-linecap="square" stroke-miterlimit="10" width="1258" height="785" xmlns:xlink="http://www.w3.org/1999/xlink" xmlns="http://www.w3.org/2000/svg"><path fill="#ffffff" d="M0 0L1258.0 0L1258.0 785.0L0 785.0L0 0Z" fill-rule="nonzero"/><path stroke="#cccccc" stroke-width="1.0" stroke-linecap="butt" d="M1218.5 96.5L1218.5 693.5" fill-rule="nonzero"/><path stroke="#cccccc" stroke-width="1.0" stroke-linecap="butt" d="M1033.5 96.5L1033.5 693.5" fill-rule="nonzero"/><path stroke="#cccccc" stroke-width="1.0" stroke-linecap="butt" d="M847.5 96.5L847.5 693.5" fill-rule="nonzero"/><path stroke="#cccccc" stroke-width="1.0" stroke-linecap="butt" d="M662.5 96.5L662.5 693.5" fill-rule="nonzero"/><path stroke="#cccccc" stroke-width="1.0" stroke-linecap="butt" d="M476.5 96.5L476.5 693.5" fill-rule="nonzero"/><path stroke="#cccccc" stroke-width="1.0" stroke-linecap="butt" d="M290.5 96.5L290.5 693.5" fill-rule="nonzero"/><path stroke="#cccccc" stroke-width="1.0" stroke-linecap="butt" d="M105.5 96.5L105.5 693.5" fill-rule="nonzero"/><path stroke="#e6e6e6" stroke-width="1.0" stroke-linecap="butt" d="M1125.5 96.5L1125.5 693.5" fill-rule="nonzero"/><path stroke="#e6e6e6" stroke-width="1.0" stroke-linecap="butt" d="M940.5 96.5L940.5 693.5" fill-rule="nonzero"/><path stroke="#e6e6e6" stroke-width="1.0" stroke-linecap="butt" d="M754.5 96.5L754.5 693.5" fill-rule="nonzero"/><path stroke="#e6e6e6" stroke-width="1.0" stroke-linecap="butt" d="M569.5 96.5L569.5 693.5" fill-rule="nonzero"/><path stroke="#e6e6e6" stroke-width="1.0" stroke-linecap="butt" d="M383.5 96.5L383.5 693.5" fill-rule="nonzero"/><path stroke="#e6e6e6" stroke-width="1.0" stroke-linecap="butt" d="M198.5 96.5L198.5 693.5" fill-rule="nonzero"/><path stroke="#cccccc" stroke-width="1.0" stroke-linecap="butt" d="M105.5 693.5L1218.5 693.5" fill-rule="nonzero"/><path stroke="#cccccc" stroke-width="1.0" stroke-linecap="butt" d="M105.5 544.5L1218.5 544.5" fill-rule="nonzero"/><path stroke="#cccccc" stroke-width="1.0" stroke-linecap="butt" d="M105.5 395.5L1218.5 395.5" fill-rule="nonzero"/><path stroke="#cccccc" stroke-width="1.0" stroke-linecap="butt" d="M105.5 245.5L1218.5 245.5" fill-rule="nonzero"/><path stroke="#cccccc" stroke-width="1.0" stroke-linecap="butt" d="M105.5 96.5L1218.5 96.5" fill-rule="nonzero"/><path stroke="#e6e6e6" stroke-width="1.0" stroke-linecap="butt" d="M105.5 619.5L1218.5 619.5" fill-rule="nonzero"/><path stroke="#e6e6e6" stroke-width="1.0" stroke-linecap="butt" d="M105.5 469.5L1218.5 469.5" fill-rule="nonzero"/><path stroke="#e6e6e6" stroke-width="1.0" stroke-linecap="butt" d="M105.5 320.5L1218.5 320.5" fill-rule="nonzero"/><path stroke="#e6e6e6" stroke-width="1.0" stroke-linecap="butt" d="M105.5 171.5L1218.5 171.5" fill-rule="nonzero"/><path stroke="#eeeeee" stroke-width="1.0" stroke-linecap="butt" d="M767.4206 377.53772L767.4206 393.53772" fill-rule="nonzero"/><path stroke="#eeeeee" stroke-width="1.0" stroke-linecap="butt" d="M332.7473 503.03L332.7473 519.03" fill-rule="nonzero"/><path stroke="#eeeeee" stroke-width="1.0" stroke-linecap="butt" d="M871.338 485.6924L871.338 501.6924" fill-rule="nonzero"/><path stroke="#eeeeee" stroke-width="1.0" stroke-linecap="butt" d="M254.58891 560.1799L254.58891 576.1799" fill-rule="nonzero"/><path stroke="#eeeeee" stroke-width="1.0" stroke-linecap="butt" d="M351.1572 524.31744L351.1572 540.31744" fill-rule="nonzero"/><path stroke="#eeeeee" stroke-width="1.0" stroke-linecap="butt" d="M1053.2932 466.44333L1053.2932 482.44333" fill-rule="nonzero"/><path stroke="#eeeeee" stroke-width="1.0" stroke-linecap="butt" d="M875.95905 560.6801L875.95905 576.6801" fill-rule="nonzero"/><clipPath id="id_0"><path d="M105.25 96.416664L1218.75 96.416664L1218.75 693.75L105.25 693.75L105.25 96.416664Z" clip-rule="nonzero"/></clipPath><path fill="#0000ff" clip-path="url(#id_0)" d="M773.4206 393.53772C773.4206 396.85144 770.7343 399.53772 767.4206 399.53772C764.10693 399.53772 761.4206 396.85144 761.4206 393.53772C761.4206 390.22403 764.10693 387.53772 767.4206 387.53772C770.7343 387.53772 773.4206 390.22403 773.4206 393.53772Z" fill-rule="nonzero"/><path fill="#0000ff" clip-path="url(#id_0)" d="M338.7473 519.03C338.7473 522.3437 336.06104 525.03 332.7473 525.03C329.43362 525.03 326.7473 522.3437 326.7473 519.03C326.7473 515.7163 329.43362 513.03 332.7473 513.03C336.06104 513.03 338.7473 515.7163 338.7473 519.03Z" fill-rule="nonzero"/><path fill="#0000ff" clip-path="url(#id_0)" d="M877.338 501.6924C877.338 505.0061 874.65173 507.6924 871.338 507.6924C868.0243 507.6924 865.338 505.0061 865.338 501.6924C865.338 498.3787 868.0243 495.6924 871.338 495.6924C874.65173 495.6924 877.338 498.3787 877.338 501.6924Z" fill-rule="nonzero"/><path fill="#0000ff" clip-path="url(#id_0)" d="M260.5889 576.1799C260.5889 579.4936 257.90262 582.1799 254.58891 582.1799C251.27519 582.1799 248.58891 579.4936 248.58891 576.1799C248.58891 572.86615 251.27519 570.1799 254.58891 570.1799C257.90262 570.1799 260.5889 572.86615 260.5889 576.1799Z" fill-rule="nonzero"/><path fill="#0000ff" clip-path="url(#id_0)" d="M357.1572 540.31744C357.1572 543.63116 354.47092 546.31744 351.1572 546.31744C347.84348 546.31744 345.1572 543.63116 345.1572 540.31744C345.1572 537.0038 347.84348 534.31744 351.1572 534.31744C354.47092 534.31744 357.1572 537.0038 357.1572 540.31744Z" fill-rule="nonzero"/><path fill="#0000ff" clip-path="url(#id_0)" d="M1059.2932 482.44333C1059.2932 485.75705 1056.6069 488.44333 1053.2932 488.44333C1049.9795 488.44333 1047.2932 485.75705 1047.2932 482.44333C1047.2932 479.12964 1049.9795 476.44333 1053.2932 476.44333C1056.6069 476.44333 1059.2932 479.12964 1059.2932 482.44333Z" fill-rule="nonzero"/><path fill="#0000ff" clip-path="url(#id_0)" d="M881.95905 576.6801C881.95905 579.99384 879.2727 582.6801 875.95905 582.6801C872.6453 582.6801 869.95905 579.99384 869.95905 576.6801C869.95905 573.36646 872.6453 570.6801 875.95905 570.6801C879.2727 570.6801 881.95905 573.36646 881.95905 576.6801Z" fill-rule="nonzero"/><path stroke="#ffffff" stroke-width="3.0" stroke-linejoin="round" stroke-linecap="round" d="M769.1237 373.30334L765.5456 373.30334L764.7487 375.53772L763.59247 375.53772L766.84247 367.00647L767.82684 367.00647L771.09247 375.53772L769.9362 375.53772L769.1237 373.30334ZM765.88934 372.38147L768.7956 372.38147L767.34247 368.3971L765.88934 372.38147Z" fill-rule="nonzero"/><path fill="#0000ff" d="M769.1237 373.30334L765.5456 373.30334L764.7487 375.53772L763.59247 375.53772L766.84247 367.00647L767.82684 367.00647L771.09247 375.53772L769.9362 375.53772L769.1237 373.30334ZM765.88934 372.38147L768.7956 372.38147L767.34247 368.3971L765.88934 372.38147Z" fill-rule="nonzero"/><path stroke="#ffffff" stroke-width="3.0" stroke-linejoin="round" stroke-linecap="round" d="M335.0598 497.0925L331.3567 497.0925L331.3567 500.10812L335.65356 500.10812L335.65356 501.03L330.2317 501.03L330.2317 492.49875L335.6067 492.49875L335.6067 493.42062L331.3567 493.42062L331.3567 496.17062L335.0598 496.17062L335.0598 497.0925Z" fill-rule="nonzero"/><path fill="#0000ff" d="M335.0598 497.0925L331.3567 497.0925L331.3567 500.10812L335.65356 500.10812L335.65356 501.03L330.2317 501.03L330.2317 492.49875L335.6067 492.49875L335.6067 493.42062L331.3567 493.42062L331.3567 496.17062L335.0598 496.17062L335.0598 497.0925Z" fill-rule="nonzero"/><path stroke="#ffffff" stroke-width="3.0" stroke-linejoin="round" stroke-linecap="round" d="M872.6505 479.7549L868.9474 479.7549L868.9474 482.77054L873.24426 482.77054L873.24426 483.6924L867.8224 483.6924L867.8224 475.16116L873.1974 475.16116L873.1974 476.08304L868.9474 476.08304L868.9474 478.83304L872.6505 478.83304L872.6505 479.7549ZM875.3224 475.34866L875.1974 477.5049L874.4474 477.5049L874.4474 474.6924L875.3224 474.6924L875.3224 475.34866Z" fill-rule="nonzero"/><path fill="#0000ff" d="M872.6505 479.7549L868.9474 479.7549L868.9474 482.77054L873.24426 482.77054L873.24426 483.6924L867.8224 483.6924L867.8224 475.16116L873.1974 475.16116L873.1974 476.08304L868.9474 476.08304L868.9474 478.83304L872.6505 478.83304L872.6505 479.7549ZM875.3224 475.34866L875.1974 477.5049L874.4474 477.5049L874.4474 474.6924L875.3224 474.6924L875.3224 475.34866Z" fill-rule="nonzero"/><path stroke="#ffffff" stroke-width="3.0" stroke-linejoin="round" stroke-linecap="round" d="M255.29204 558.1799L254.16704 558.1799L254.16704 549.6486L255.29204 549.6486L255.29204 558.1799Z" fill-rule="nonzero"/><path fill="#0000ff" d="M255.29204 558.1799L254.16704 558.1799L254.16704 549.6486L255.29204 549.6486L255.29204 558.1799Z" fill-rule="nonzero"/><path stroke="#ffffff" stroke-width="3.0" stroke-linejoin="round" stroke-linecap="round" d="M350.86032 522.31744L349.73532 522.31744L349.73532 513.7862L350.86032 513.7862L350.86032 522.31744ZM353.14157 513.9737L353.01657 516.12994L352.26657 516.12994L352.26657 513.31744L353.14157 513.31744L353.14157 513.9737Z" fill-rule="nonzero"/><path fill="#0000ff" d="M350.86032 522.31744L349.73532 522.31744L349.73532 513.7862L350.86032 513.7862L350.86032 522.31744ZM353.14157 513.9737L353.01657 516.12994L352.26657 516.12994L352.26657 513.31744L353.14157 513.31744L353.14157 513.9737Z" fill-rule="nonzero"/><path stroke="#ffffff" stroke-width="3.0" stroke-linejoin="round" stroke-linecap="round" d="M1056.8401 460.45895Q1056.8401 461.70895 1056.4182 462.64645Q1055.9963 463.56833 1055.2151 464.06833Q1054.4495 464.56833 1053.4182 464.56833Q1052.4182 464.56833 1051.637 464.06833Q1050.8557 463.56833 1050.4182 462.66208Q1049.9963 461.7402 1049.9807 460.52145L1049.9807 459.91208Q1049.9807 458.6777 1050.4026 457.7402Q1050.8401 456.8027 1051.6213 456.3027Q1052.4026 455.78708 1053.4182 455.78708Q1054.4338 455.78708 1055.2151 456.28708Q1055.9963 456.78708 1056.4182 457.72458Q1056.8401 458.66208 1056.8401 459.91208L1056.8401 460.45895ZM1055.7307 459.89645Q1055.7307 458.38083 1055.1213 457.56833Q1054.512 456.75583 1053.4182 456.75583Q1052.3401 456.75583 1051.7307 457.56833Q1051.1213 458.38083 1051.1057 459.81833L1051.1057 460.45895Q1051.1057 461.9277 1051.7151 462.77145Q1052.3401 463.59958 1053.4182 463.59958Q1054.512 463.59958 1055.1057 462.81833Q1055.7151 462.02145 1055.7307 460.53708L1055.7307 459.89645Z" fill-rule="nonzero"/><path fill="#0000ff" d="M1056.8401 460.45895Q1056.8401 461.70895 1056.4182 462.64645Q1055.9963 463.56833 1055.2151 464.06833Q1054.4495 464.56833 1053.4182 464.56833Q1052.4182 464.56833 1051.637 464.06833Q1050.8557 463.56833 1050.4182 462.66208Q1049.9963 461.7402 1049.9807 460.52145L1049.9807 459.91208Q1049.9807 458.6777 1050.4026 457.7402Q1050.8401 456.8027 1051.6213 456.3027Q1052.4026 455.78708 1053.4182 455.78708Q1054.4338 455.78708 1055.2151 456.28708Q1055.9963 456.78708 1056.4182 457.72458Q1056.8401 458.66208 1056.8401 459.91208L1056.8401 460.45895ZM1055.7307 459.89645Q1055.7307 458.38083 1055.1213 457.56833Q1054.512 456.75583 1053.4182 456.75583Q1052.3401 456.75583 1051.7307 457.56833Q1051.1213 458.38083 1051.1057 459.81833L1051.1057 460.45895Q1051.1057 461.9277 1051.7151 462.77145Q1052.3401 463.59958 1053.4182 463.59958Q1054.512 463.59958 1055.1057 462.81833Q1055.7151 462.02145 1055.7307 460.53708L1055.7307 459.89645Z" fill-rule="nonzero"/><path stroke="#ffffff" stroke-width="3.0" stroke-linejoin="round" stroke-linecap="round" d="M878.95905 550.14886L878.95905 555.94574Q878.9434 557.14886 878.1934 557.9301Q877.4434 558.69574 876.1622 558.7895L875.8497 558.8051Q874.45905 558.8051 873.6153 558.0551Q872.7872 557.2895 872.7872 555.96136L872.7872 550.14886L873.89655 550.14886L873.89655 555.9301Q873.89655 556.852 874.39655 557.3676Q874.9122 557.88324 875.8497 557.88324Q876.8184 557.88324 877.3184 557.3676Q877.8184 556.852 877.8184 555.9301L877.8184 550.14886L878.95905 550.14886Z" fill-rule="nonzero"/><path fill="#0000ff" d="M878.95905 550.14886L878.95905 555.94574Q878.9434 557.14886 878.1934 557.9301Q877.4434 558.69574 876.1622 558.7895L875.8497 558.8051Q874.45905 558.8051 873.6153 558.0551Q872.7872 557.2895 872.7872 555.96136L872.7872 550.14886L873.89655 550.14886L873.89655 555.9301Q873.89655 556.852 874.39655 557.3676Q874.9122 557.88324 875.8497 557.88324Q876.8184 557.88324 877.3184 557.3676Q877.8184 556.852 877.8184 555.9301L877.8184 550.14886L878.95905 550.14886Z" fill-rule="nonzero"/><path fill="#000000" d="M643.4844 742.75L643.4844 734.15625L649.28125 734.15625L649.28125 735.1719L644.625 735.1719L644.625 737.8281L648.65625 737.8281L648.65625 738.84375L644.625 738.84375L644.625 742.75L643.4844 742.75ZM655.5469 741.7344L655.5469 742.75L649.8594 742.75Q649.8594 742.375 649.9844 742.0156Q650.2031 741.4375 650.6719 740.875Q651.15625 740.3125 652.0625 739.5781Q653.46875 738.4219 653.9531 737.75Q654.4531 737.0781 654.4531 736.4844Q654.4531 735.8594 654.0 735.4375Q653.5469 735.0 652.8281 735.0Q652.0625 735.0 651.6094 735.4531Q651.15625 735.90625 651.1406 736.71875L650.0625 736.6094Q650.1719 735.3906 650.8906 734.7656Q651.625 734.125 652.8594 734.125Q654.09375 734.125 654.8125 734.8125Q655.53125 735.5 655.53125 736.5156Q655.53125 737.03125 655.3125 737.53125Q655.1094 738.0156 654.6094 738.5781Q654.125 739.125 653.0 740.0781Q652.0469 740.875 651.7656 741.1719Q651.5 741.4531 651.3281 741.7344L655.5469 741.7344ZM662.3125 745.28125Q661.4375 744.1719 660.8281 742.7031Q660.2344 741.21875 660.2344 739.6406Q660.2344 738.25 660.6719 736.96875Q661.2031 735.4844 662.3125 734.0156L663.0625 734.0156Q662.3594 735.2344 662.125 735.75Q661.7656 736.5625 661.5625 737.4375Q661.3125 738.53125 661.3125 739.6406Q661.3125 742.46875 663.0625 745.28125L662.3125 745.28125ZM664.46875 742.75L664.46875 734.15625L665.59375 734.15625L665.59375 737.6875L670.0625 737.6875L670.0625 734.15625L671.2031 734.15625L671.2031 742.75L670.0625 742.75L670.0625 738.7031L665.59375 738.7031L665.59375 742.75L664.46875 742.75ZM672.7344 742.75L672.7344 741.8906L676.7031 737.34375Q676.0156 737.375 675.5 737.375L672.96875 737.375L672.96875 736.53125L678.0625 736.53125L678.0625 737.21875L674.6875 741.1719L674.03125 741.8906Q674.75 741.84375 675.3594 741.84375L678.25 741.84375L678.25 742.75L672.7344 742.75ZM678.9844 745.28125L678.2344 745.28125Q679.9844 742.46875 679.9844 739.6406Q679.9844 738.5469 679.7344 737.4531Q679.53125 736.5781 679.1719 735.7656Q678.9375 735.25 678.2344 734.0156L678.9844 734.0156Q680.0781 735.4844 680.6094 736.96875Q681.0625 738.25 681.0625 739.6406Q681.0625 741.21875 680.4531 742.7031Q679.84375 744.1719 678.9844 745.28125Z" fill-rule="nonzero"/><path fill="#000000" d="M50.25 420.09897L41.65625 420.09897L41.65625 414.3021L42.671875 414.3021L42.671875 418.95834L45.328125 418.95834L45.328125 414.9271L46.34375 414.9271L46.34375 418.95834L50.25 418.95834L50.25 420.09897ZM50.25 409.6146L50.25 410.66147L43.53125 410.66147Q43.890625 411.0521 44.265625 411.6771Q44.625 412.28647 44.796875 412.77084L43.78125 412.77084Q43.359375 411.89584 42.78125 411.2396Q42.1875 410.56772 41.625 410.28647L41.625 409.6146L50.25 409.6146ZM52.78125 401.27084Q51.671875 402.14584 50.203125 402.75522Q48.71875 403.34897 47.140625 403.34897Q45.75 403.34897 44.46875 402.91147Q42.984375 402.38022 41.515625 401.27084L41.515625 400.52084Q42.734375 401.22397 43.25 401.45834Q44.0625 401.81772 44.9375 402.02084Q46.03125 402.27084 47.140625 402.27084Q49.96875 402.27084 52.78125 400.52084L52.78125 401.27084ZM50.25 399.1146L41.65625 399.1146L41.65625 397.9896L45.1875 397.9896L45.1875 393.52084L41.65625 393.52084L41.65625 392.38022L50.25 392.38022L50.25 393.52084L46.203125 393.52084L46.203125 397.9896L50.25 397.9896L50.25 399.1146ZM50.25 390.84897L49.390625 390.84897L44.84375 386.88022Q44.875 387.56772 44.875 388.08334L44.875 390.6146L44.03125 390.6146L44.03125 385.52084L44.71875 385.52084L48.671875 388.89584L49.390625 389.5521Q49.34375 388.83334 49.34375 388.22397L49.34375 385.33334L50.25 385.33334L50.25 390.84897ZM52.78125 384.59897L52.78125 385.34897Q49.96875 383.59897 47.140625 383.59897Q46.046875 383.59897 44.953125 383.84897Q44.078125 384.0521 43.265625 384.41147Q42.75 384.64584 41.515625 385.34897L41.515625 384.59897Q42.984375 383.50522 44.46875 382.97397Q45.75 382.52084 47.140625 382.52084Q48.71875 382.52084 50.203125 383.13022Q51.671875 383.7396 52.78125 384.59897Z" fill-rule="nonzero"/><path fill="#000000" d="M84.296875 696.7344L84.296875 697.75L78.609375 697.75Q78.609375 697.375 78.734375 697.0156Q78.953125 696.4375 79.421875 695.875Q79.90625 695.3125 80.8125 694.5781Q82.21875 693.4219 82.703125 692.75Q83.203125 692.0781 83.203125 691.4844Q83.203125 690.8594 82.75 690.4375Q82.296875 690.0 81.578125 690.0Q80.8125 690.0 80.359375 690.4531Q79.90625 690.90625 79.890625 691.71875L78.8125 691.6094Q78.921875 690.3906 79.640625 689.7656Q80.375 689.125 81.609375 689.125Q82.84375 689.125 83.5625 689.8125Q84.28125 690.5 84.28125 691.5156Q84.28125 692.03125 84.0625 692.53125Q83.859375 693.0156 83.359375 693.5781Q82.875 694.125 81.75 695.0781Q80.796875 695.875 80.515625 696.1719Q80.25 696.4531 80.078125 696.7344L84.296875 696.7344ZM85.75 693.5156Q85.75 691.9844 86.0625 691.0625Q86.375 690.125 86.984375 689.625Q87.609375 689.125 88.546875 689.125Q89.234375 689.125 89.75 689.40625Q90.28125 689.6875 90.625 690.21875Q90.96875 690.7344 91.15625 691.4844Q91.34375 692.2344 91.34375 693.5156Q91.34375 695.03125 91.03125 695.9531Q90.734375 696.875 90.109375 697.3906Q89.5 697.8906 88.546875 697.8906Q87.3125 697.8906 86.59375 697.0Q85.75 695.9375 85.75 693.5156ZM86.828125 693.5156Q86.828125 695.625 87.328125 696.3281Q87.828125 697.03125 88.546875 697.03125Q89.28125 697.03125 89.765625 696.3281Q90.265625 695.625 90.265625 693.5156Q90.265625 691.3906 89.765625 690.7031Q89.28125 690.0 88.53125 690.0Q87.8125 690.0 87.375 690.6094Q86.828125 691.3906 86.828125 693.5156ZM92.75 693.5156Q92.75 691.9844 93.0625 691.0625Q93.375 690.125 93.984375 689.625Q94.609375 689.125 95.546875 689.125Q96.234375 689.125 96.75 689.40625Q97.28125 689.6875 97.625 690.21875Q97.96875 690.7344 98.15625 691.4844Q98.34375 692.2344 98.34375 693.5156Q98.34375 695.03125 98.03125 695.9531Q97.734375 696.875 97.109375 697.3906Q96.5 697.8906 95.546875 697.8906Q94.3125 697.8906 93.59375 697.0Q92.75 695.9375 92.75 693.5156ZM93.828125 693.5156Q93.828125 695.625 94.328125 696.3281Q94.828125 697.03125 95.546875 697.03125Q96.28125 697.03125 96.765625 696.3281Q97.265625 695.625 97.265625 693.5156Q97.265625 691.3906 96.765625 690.7031Q96.28125 690.0 95.53125 690.0Q94.8125 690.0 94.375 690.6094Q93.828125 691.3906 93.828125 693.5156Z" fill-rule="nonzero"/><path fill="#000000" d="M82.125 548.4167L82.125 546.3542L78.40625 546.3542L78.40625 545.38544L82.328125 539.82294L83.1875 539.82294L83.1875 545.38544L84.34375 545.38544L84.34375 546.3542L83.1875 546.3542L83.1875 548.4167L82.125 548.4167ZM82.125 545.38544L82.125 541.52606L79.4375 545.38544L82.125 545.38544ZM85.75 544.1823Q85.75 542.65106 86.0625 541.7292Q86.375 540.7917 86.984375 540.2917Q87.609375 539.7917 88.546875 539.7917Q89.234375 539.7917 89.75 540.07294Q90.28125 540.3542 90.625 540.88544Q90.96875 541.40106 91.15625 542.15106Q91.34375 542.90106 91.34375 544.1823Q91.34375 545.69794 91.03125 546.6198Q90.734375 547.5417 90.109375 548.0573Q89.5 548.5573 88.546875 548.5573Q87.3125 548.5573 86.59375 547.6667Q85.75 546.6042 85.75 544.1823ZM86.828125 544.1823Q86.828125 546.2917 87.328125 546.9948Q87.828125 547.69794 88.546875 547.69794Q89.28125 547.69794 89.765625 546.9948Q90.265625 546.2917 90.265625 544.1823Q90.265625 542.0573 89.765625 541.3698Q89.28125 540.6667 88.53125 540.6667Q87.8125 540.6667 87.375 541.27606Q86.828125 542.0573 86.828125 544.1823ZM92.75 544.1823Q92.75 542.65106 93.0625 541.7292Q93.375 540.7917 93.984375 540.2917Q94.609375 539.7917 95.546875 539.7917Q96.234375 539.7917 96.75 540.07294Q97.28125 540.3542 97.625 540.88544Q97.96875 541.40106 98.15625 542.15106Q98.34375 542.90106 98.34375 544.1823Q98.34375 545.69794 98.03125 546.6198Q97.734375 547.5417 97.109375 548.0573Q96.5 548.5573 95.546875 548.5573Q94.3125 548.5573 93.59375 547.6667Q92.75 546.6042 92.75 544.1823ZM93.828125 544.1823Q93.828125 546.2917 94.328125 546.9948Q94.828125 547.69794 95.546875 547.69794Q96.28125 547.69794 96.765625 546.9948Q97.265625 546.2917 97.265625 544.1823Q97.265625 542.0573 96.765625 541.3698Q96.28125 540.6667 95.53125 540.6667Q94.8125 540.6667 94.375 541.27606Q93.828125 542.0573 93.828125 544.1823Z" fill-rule="nonzero"/><path fill="#000000" d="M84.21875 392.59897L83.171875 392.6771Q83.03125 392.0521 82.78125 391.77084Q82.34375 391.31772 81.71875 391.31772Q81.21875 391.31772 80.828125 391.59897Q80.34375 391.97397 80.046875 392.6771Q79.765625 393.3646 79.75 394.64584Q80.125 394.06772 80.671875 393.78647Q81.234375 393.50522 81.84375 393.50522Q82.890625 393.50522 83.625 394.28647Q84.375 395.06772 84.375 396.28647Q84.375 397.09897 84.015625 397.8021Q83.671875 398.4896 83.0625 398.8646Q82.453125 399.22397 81.6875 399.22397Q80.359375 399.22397 79.53125 398.25522Q78.703125 397.28647 78.703125 395.06772Q78.703125 392.56772 79.625 391.44272Q80.421875 390.45834 81.78125 390.45834Q82.796875 390.45834 83.4375 391.03647Q84.09375 391.59897 84.21875 392.59897ZM79.921875 396.3021Q79.921875 396.84897 80.140625 397.34897Q80.375 397.83334 80.78125 398.09897Q81.203125 398.3646 81.671875 398.3646Q82.328125 398.3646 82.8125 397.83334Q83.296875 397.28647 83.296875 396.3646Q83.296875 395.47397 82.8125 394.95834Q82.34375 394.44272 81.625 394.44272Q80.90625 394.44272 80.40625 394.95834Q79.921875 395.47397 79.921875 396.3021ZM85.75 394.84897Q85.75 393.31772 86.0625 392.39584Q86.375 391.45834 86.984375 390.95834Q87.609375 390.45834 88.546875 390.45834Q89.234375 390.45834 89.75 390.7396Q90.28125 391.02084 90.625 391.5521Q90.96875 392.06772 91.15625 392.81772Q91.34375 393.56772 91.34375 394.84897Q91.34375 396.3646 91.03125 397.28647Q90.734375 398.20834 90.109375 398.72397Q89.5 399.22397 88.546875 399.22397Q87.3125 399.22397 86.59375 398.33334Q85.75 397.27084 85.75 394.84897ZM86.828125 394.84897Q86.828125 396.95834 87.328125 397.66147Q87.828125 398.3646 88.546875 398.3646Q89.28125 398.3646 89.765625 397.66147Q90.265625 396.95834 90.265625 394.84897Q90.265625 392.72397 89.765625 392.03647Q89.28125 391.33334 88.53125 391.33334Q87.8125 391.33334 87.375 391.94272Q86.828125 392.72397 86.828125 394.84897ZM92.75 394.84897Q92.75 393.31772 93.0625 392.39584Q93.375 391.45834 93.984375 390.95834Q94.609375 390.45834 95.546875 390.45834Q96.234375 390.45834 96.75 390.7396Q97.28125 391.02084 97.625 391.5521Q97.96875 392.06772 98.15625 392.81772Q98.34375 393.56772 98.34375 394.84897Q98.34375 396.3646 98.03125 397.28647Q97.734375 398.20834 97.109375 398.72397Q96.5 399.22397 95.546875 399.22397Q94.3125 399.22397 93.59375 398.33334Q92.75 397.27084 92.75 394.84897ZM93.828125 394.84897Q93.828125 396.95834 94.328125 397.66147Q94.828125 398.3646 95.546875 398.3646Q96.28125 398.3646 96.765625 397.66147Q97.265625 396.95834 97.265625 394.84897Q97.265625 392.72397 96.765625 392.03647Q96.28125 391.33334 95.53125 391.33334Q94.8125 391.33334 94.375 391.94272Q93.828125 392.72397 93.828125 394.84897Z" fill-rule="nonzero"/><path fill="#000000" d="M80.375 245.09375Q79.71875 244.84375 79.390625 244.40625Q79.078125 243.95312 79.078125 243.34375Q79.078125 242.40625 79.75 241.76562Q80.4375 241.125 81.546875 241.125Q82.671875 241.125 83.359375 241.78125Q84.046875 242.4375 84.046875 243.375Q84.046875 243.96875 83.734375 244.40625Q83.421875 244.84375 82.78125 245.09375Q83.578125 245.34375 83.984375 245.92188Q84.390625 246.5 84.390625 247.29688Q84.390625 248.39062 83.609375 249.14062Q82.84375 249.89062 81.5625 249.89062Q80.296875 249.89062 79.515625 249.14062Q78.734375 248.39062 78.734375 247.26562Q78.734375 246.42188 79.15625 245.85938Q79.59375 245.29688 80.375 245.09375ZM80.15625 243.29688Q80.15625 243.90625 80.546875 244.29688Q80.953125 244.6875 81.578125 244.6875Q82.1875 244.6875 82.578125 244.3125Q82.96875 243.92188 82.96875 243.35938Q82.96875 242.78125 82.5625 242.39062Q82.15625 241.98438 81.5625 241.98438Q80.953125 241.98438 80.546875 242.375Q80.15625 242.76562 80.15625 243.29688ZM79.828125 247.26562Q79.828125 247.71875 80.03125 248.14062Q80.25 248.5625 80.671875 248.79688Q81.09375 249.03125 81.578125 249.03125Q82.328125 249.03125 82.8125 248.54688Q83.3125 248.0625 83.3125 247.3125Q83.3125 246.54688 82.8125 246.04688Q82.3125 245.54688 81.546875 245.54688Q80.796875 245.54688 80.3125 246.04688Q79.828125 246.53125 79.828125 247.26562ZM85.75 245.51562Q85.75 243.98438 86.0625 243.0625Q86.375 242.125 86.984375 241.625Q87.609375 241.125 88.546875 241.125Q89.234375 241.125 89.75 241.40625Q90.28125 241.6875 90.625 242.21875Q90.96875 242.73438 91.15625 243.48438Q91.34375 244.23438 91.34375 245.51562Q91.34375 247.03125 91.03125 247.95312Q90.734375 248.875 90.109375 249.39062Q89.5 249.89062 88.546875 249.89062Q87.3125 249.89062 86.59375 249.0Q85.75 247.9375 85.75 245.51562ZM86.828125 245.51562Q86.828125 247.625 87.328125 248.32812Q87.828125 249.03125 88.546875 249.03125Q89.28125 249.03125 89.765625 248.32812Q90.265625 247.625 90.265625 245.51562Q90.265625 243.39062 89.765625 242.70312Q89.28125 242.0 88.53125 242.0Q87.8125 242.0 87.375 242.60938Q86.828125 243.39062 86.828125 245.51562ZM92.75 245.51562Q92.75 243.98438 93.0625 243.0625Q93.375 242.125 93.984375 241.625Q94.609375 241.125 95.546875 241.125Q96.234375 241.125 96.75 241.40625Q97.28125 241.6875 97.625 242.21875Q97.96875 242.73438 98.15625 243.48438Q98.34375 244.23438 98.34375 245.51562Q98.34375 247.03125 98.03125 247.95312Q97.734375 248.875 97.109375 249.39062Q96.5 249.89062 95.546875 249.89062Q94.3125 249.89062 93.59375 249.0Q92.75 247.9375 92.75 245.51562ZM93.828125 245.51562Q93.828125 247.625 94.328125 248.32812Q94.828125 249.03125 95.546875 249.03125Q96.28125 249.03125 96.765625 248.32812Q97.265625 247.625 97.265625 245.51562Q97.265625 243.39062 96.765625 242.70312Q96.28125 242.0 95.53125 242.0Q94.8125 242.0 94.375 242.60938Q93.828125 243.39062 93.828125 245.51562Z" fill-rule="nonzero"/><path fill="#000000" d="M75.71875 100.416664L74.671875 100.416664L74.671875 93.697914Q74.28125 94.05729 73.65625 94.43229Q73.046875 94.791664 72.5625 94.96354L72.5625 93.947914Q73.4375 93.52604 74.09375 92.947914Q74.765625 92.354164 75.046875 91.791664L75.71875 91.791664L75.71875 100.416664ZM78.75 96.18229Q78.75 94.65104 79.0625 93.729164Q79.375 92.791664 79.984375 92.291664Q80.609375 91.791664 81.546875 91.791664Q82.234375 91.791664 82.75 92.072914Q83.28125 92.354164 83.625 92.885414Q83.96875 93.40104 84.15625 94.15104Q84.34375 94.90104 84.34375 96.18229Q84.34375 97.697914 84.03125 98.61979Q83.734375 99.541664 83.109375 100.05729Q82.5 100.55729 81.546875 100.55729Q80.3125 100.55729 79.59375 99.666664Q78.75 98.604164 78.75 96.18229ZM79.828125 96.18229Q79.828125 98.291664 80.328125 98.99479Q80.828125 99.697914 81.546875 99.697914Q82.28125 99.697914 82.765625 98.99479Q83.265625 98.291664 83.265625 96.18229Q83.265625 94.05729 82.765625 93.36979Q82.28125 92.666664 81.53125 92.666664Q80.8125 92.666664 80.375 93.27604Q79.828125 94.05729 79.828125 96.18229ZM85.75 96.18229Q85.75 94.65104 86.0625 93.729164Q86.375 92.791664 86.984375 92.291664Q87.609375 91.791664 88.546875 91.791664Q89.234375 91.791664 89.75 92.072914Q90.28125 92.354164 90.625 92.885414Q90.96875 93.40104 91.15625 94.15104Q91.34375 94.90104 91.34375 96.18229Q91.34375 97.697914 91.03125 98.61979Q90.734375 99.541664 90.109375 100.05729Q89.5 100.55729 88.546875 100.55729Q87.3125 100.55729 86.59375 99.666664Q85.75 98.604164 85.75 96.18229ZM86.828125 96.18229Q86.828125 98.291664 87.328125 98.99479Q87.828125 99.697914 88.546875 99.697914Q89.28125 99.697914 89.765625 98.99479Q90.265625 98.291664 90.265625 96.18229Q90.265625 94.05729 89.765625 93.36979Q89.28125 92.666664 88.53125 92.666664Q87.8125 92.666664 87.375 93.27604Q86.828125 94.05729 86.828125 96.18229ZM92.75 96.18229Q92.75 94.65104 93.0625 93.729164Q93.375 92.791664 93.984375 92.291664Q94.609375 91.791664 95.546875 91.791664Q96.234375 91.791664 96.75 92.072914Q97.28125 92.354164 97.625 92.885414Q97.96875 93.40104 98.15625 94.15104Q98.34375 94.90104 98.34375 96.18229Q98.34375 97.697914 98.03125 98.61979Q97.734375 99.541664 97.109375 100.05729Q96.5 100.55729 95.546875 100.55729Q94.3125 100.55729 93.59375 99.666664Q92.75 98.604164 92.75 96.18229ZM93.828125 96.18229Q93.828125 98.291664 94.328125 98.99479Q94.828125 99.697914 95.546875 99.697914Q96.28125 99.697914 96.765625 98.99479Q97.265625 98.291664 97.265625 96.18229Q97.265625 94.05729 96.765625 93.36979Q96.28125 92.666664 95.53125 92.666664Q94.8125 92.666664 94.375 93.27604Q93.828125 94.05729 93.828125 96.18229Z" fill-rule="nonzero"/><path fill="#000000" d="M1210.375 706.09375Q1209.7188 705.84375 1209.3906 705.40625Q1209.0781 704.9531 1209.0781 704.34375Q1209.0781 703.40625 1209.75 702.7656Q1210.4375 702.125 1211.5469 702.125Q1212.6719 702.125 1213.3594 702.78125Q1214.0469 703.4375 1214.0469 704.375Q1214.0469 704.96875 1213.7344 705.40625Q1213.4219 705.84375 1212.7812 706.09375Q1213.5781 706.34375 1213.9844 706.9219Q1214.3906 707.5 1214.3906 708.2969Q1214.3906 709.3906 1213.6094 710.1406Q1212.8438 710.8906 1211.5625 710.8906Q1210.2969 710.8906 1209.5156 710.1406Q1208.7344 709.3906 1208.7344 708.2656Q1208.7344 707.4219 1209.1562 706.8594Q1209.5938 706.2969 1210.375 706.09375ZM1210.1562 704.2969Q1210.1562 704.90625 1210.5469 705.2969Q1210.9531 705.6875 1211.5781 705.6875Q1212.1875 705.6875 1212.5781 705.3125Q1212.9688 704.9219 1212.9688 704.3594Q1212.9688 703.78125 1212.5625 703.3906Q1212.1562 702.9844 1211.5625 702.9844Q1210.9531 702.9844 1210.5469 703.375Q1210.1562 703.7656 1210.1562 704.2969ZM1209.8281 708.2656Q1209.8281 708.71875 1210.0312 709.1406Q1210.25 709.5625 1210.6719 709.7969Q1211.0938 710.03125 1211.5781 710.03125Q1212.3281 710.03125 1212.8125 709.5469Q1213.3125 709.0625 1213.3125 708.3125Q1213.3125 707.5469 1212.8125 707.0469Q1212.3125 706.5469 1211.5469 706.5469Q1210.7969 706.5469 1210.3125 707.0469Q1209.8281 707.53125 1209.8281 708.2656ZM1215.75 706.5156Q1215.75 704.9844 1216.0625 704.0625Q1216.375 703.125 1216.9844 702.625Q1217.6094 702.125 1218.5469 702.125Q1219.2344 702.125 1219.75 702.40625Q1220.2812 702.6875 1220.625 703.21875Q1220.9688 703.7344 1221.1562 704.4844Q1221.3438 705.2344 1221.3438 706.5156Q1221.3438 708.03125 1221.0312 708.9531Q1220.7344 709.875 1220.1094 710.3906Q1219.5 710.8906 1218.5469 710.8906Q1217.3125 710.8906 1216.5938 710.0Q1215.75 708.9375 1215.75 706.5156ZM1216.8281 706.5156Q1216.8281 708.625 1217.3281 709.3281Q1217.8281 710.03125 1218.5469 710.03125Q1219.2812 710.03125 1219.7656 709.3281Q1220.2656 708.625 1220.2656 706.5156Q1220.2656 704.3906 1219.7656 703.7031Q1219.2812 703.0 1218.5312 703.0Q1217.8125 703.0 1217.375 703.6094Q1216.8281 704.3906 1216.8281 706.5156ZM1222.75 706.5156Q1222.75 704.9844 1223.0625 704.0625Q1223.375 703.125 1223.9844 702.625Q1224.6094 702.125 1225.5469 702.125Q1226.2344 702.125 1226.75 702.40625Q1227.2812 702.6875 1227.625 703.21875Q1227.9688 703.7344 1228.1562 704.4844Q1228.3438 705.2344 1228.3438 706.5156Q1228.3438 708.03125 1228.0312 708.9531Q1227.7344 709.875 1227.1094 710.3906Q1226.5 710.8906 1225.5469 710.8906Q1224.3125 710.8906 1223.5938 710.0Q1222.75 708.9375 1222.75 706.5156ZM1223.8281 706.5156Q1223.8281 708.625 1224.3281 709.3281Q1224.8281 710.03125 1225.5469 710.03125Q1226.2812 710.03125 1226.7656 709.3281Q1227.2656 708.625 1227.2656 706.5156Q1227.2656 704.3906 1226.7656 703.7031Q1226.2812 703.0 1225.5312 703.0Q1224.8125 703.0 1224.375 703.6094Q1223.8281 704.3906 1223.8281 706.5156Z" fill-rule="nonzero"/><path fill="#000000" d="M1023.63544 710.75L1022.58856 710.75L1022.58856 704.03125Q1022.19794 704.3906 1021.57294 704.7656Q1020.96356 705.125 1020.4792 705.2969L1020.4792 704.28125Q1021.3542 703.8594 1022.01044 703.28125Q1022.6823 702.6875 1022.96356 702.125L1023.63544 702.125L1023.63544 710.75ZM1026.6667 706.5156Q1026.6667 704.9844 1026.9792 704.0625Q1027.2917 703.125 1027.9011 702.625Q1028.5261 702.125 1029.4636 702.125Q1030.1511 702.125 1030.6667 702.40625Q1031.198 702.6875 1031.5417 703.21875Q1031.8855 703.7344 1032.073 704.4844Q1032.2605 705.2344 1032.2605 706.5156Q1032.2605 708.03125 1031.948 708.9531Q1031.6511 709.875 1031.0261 710.3906Q1030.4167 710.8906 1029.4636 710.8906Q1028.2292 710.8906 1027.5105 710.0Q1026.6667 708.9375 1026.6667 706.5156ZM1027.7449 706.5156Q1027.7449 708.625 1028.2449 709.3281Q1028.7449 710.03125 1029.4636 710.03125Q1030.198 710.03125 1030.6824 709.3281Q1031.1824 708.625 1031.1824 706.5156Q1031.1824 704.3906 1030.6824 703.7031Q1030.198 703.0 1029.448 703.0Q1028.7292 703.0 1028.2917 703.6094Q1027.7449 704.3906 1027.7449 706.5156ZM1033.6667 706.5156Q1033.6667 704.9844 1033.9792 704.0625Q1034.2917 703.125 1034.9011 702.625Q1035.5261 702.125 1036.4636 702.125Q1037.1511 702.125 1037.6667 702.40625Q1038.198 702.6875 1038.5417 703.21875Q1038.8855 703.7344 1039.073 704.4844Q1039.2605 705.2344 1039.2605 706.5156Q1039.2605 708.03125 1038.948 708.9531Q1038.6511 709.875 1038.0261 710.3906Q1037.4167 710.8906 1036.4636 710.8906Q1035.2292 710.8906 1034.5105 710.0Q1033.6667 708.9375 1033.6667 706.5156ZM1034.7449 706.5156Q1034.7449 708.625 1035.2449 709.3281Q1035.7449 710.03125 1036.4636 710.03125Q1037.198 710.03125 1037.6824 709.3281Q1038.1824 708.625 1038.1824 706.5156Q1038.1824 704.3906 1037.6824 703.7031Q1037.198 703.0 1036.448 703.0Q1035.7292 703.0 1035.2917 703.6094Q1034.7449 704.3906 1034.7449 706.5156ZM1040.6667 706.5156Q1040.6667 704.9844 1040.9792 704.0625Q1041.2917 703.125 1041.9011 702.625Q1042.5261 702.125 1043.4636 702.125Q1044.1511 702.125 1044.6667 702.40625Q1045.198 702.6875 1045.5417 703.21875Q1045.8855 703.7344 1046.073 704.4844Q1046.2605 705.2344 1046.2605 706.5156Q1046.2605 708.03125 1045.948 708.9531Q1045.6511 709.875 1045.0261 710.3906Q1044.4167 710.8906 1043.4636 710.8906Q1042.2292 710.8906 1041.5105 710.0Q1040.6667 708.9375 1040.6667 706.5156ZM1041.7449 706.5156Q1041.7449 708.625 1042.2449 709.3281Q1042.7449 710.03125 1043.4636 710.03125Q1044.198 710.03125 1044.6824 709.3281Q1045.1824 708.625 1045.1824 706.5156Q1045.1824 704.3906 1044.6824 703.7031Q1044.198 703.0 1043.448 703.0Q1042.7292 703.0 1042.2917 703.6094Q1041.7449 704.3906 1041.7449 706.5156Z" fill-rule="nonzero"/><path fill="#000000" d="M838.05206 710.75L837.0052 710.75L837.0052 704.03125Q836.61456 704.3906 835.98956 704.7656Q835.3802 705.125 834.8958 705.2969L834.8958 704.28125Q835.7708 703.8594 836.42706 703.28125Q837.09894 702.6875 837.3802 702.125L838.05206 702.125L838.05206 710.75ZM846.6302 709.7344L846.6302 710.75L840.9427 710.75Q840.9427 710.375 841.0677 710.0156Q841.28644 709.4375 841.7552 708.875Q842.23956 708.3125 843.1458 707.5781Q844.55206 706.4219 845.03644 705.75Q845.53644 705.0781 845.53644 704.4844Q845.53644 703.8594 845.0833 703.4375Q844.6302 703.0 843.91144 703.0Q843.1458 703.0 842.6927 703.4531Q842.23956 703.90625 842.22394 704.71875L841.1458 704.6094Q841.2552 703.3906 841.97394 702.7656Q842.7083 702.125 843.9427 702.125Q845.17706 702.125 845.8958 702.8125Q846.61456 703.5 846.61456 704.5156Q846.61456 705.03125 846.3958 705.53125Q846.1927 706.0156 845.6927 706.5781Q845.2083 707.125 844.0833 708.0781Q843.1302 708.875 842.84894 709.1719Q842.5833 709.4531 842.41144 709.7344L846.6302 709.7344ZM848.0833 706.5156Q848.0833 704.9844 848.3958 704.0625Q848.7083 703.125 849.3177 702.625Q849.9427 702.125 850.8802 702.125Q851.5677 702.125 852.0833 702.40625Q852.61456 702.6875 852.9583 703.21875Q853.30206 703.7344 853.48956 704.4844Q853.67706 705.2344 853.67706 706.5156Q853.67706 708.03125 853.36456 708.9531Q853.0677 709.875 852.4427 710.3906Q851.8333 710.8906 850.8802 710.8906Q849.6458 710.8906 848.92706 710.0Q848.0833 708.9375 848.0833 706.5156ZM849.16144 706.5156Q849.16144 708.625 849.66144 709.3281Q850.16144 710.03125 850.8802 710.03125Q851.61456 710.03125 852.09894 709.3281Q852.59894 708.625 852.59894 706.5156Q852.59894 704.3906 852.09894 703.7031Q851.61456 703.0 850.86456 703.0Q850.1458 703.0 849.7083 703.6094Q849.16144 704.3906 849.16144 706.5156ZM855.0833 706.5156Q855.0833 704.9844 855.3958 704.0625Q855.7083 703.125 856.3177 702.625Q856.9427 702.125 857.8802 702.125Q858.5677 702.125 859.0833 702.40625Q859.61456 702.6875 859.9583 703.21875Q860.30206 703.7344 860.48956 704.4844Q860.67706 705.2344 860.67706 706.5156Q860.67706 708.03125 860.36456 708.9531Q860.0677 709.875 859.4427 710.3906Q858.8333 710.8906 857.8802 710.8906Q856.6458 710.8906 855.92706 710.0Q855.0833 708.9375 855.0833 706.5156ZM856.16144 706.5156Q856.16144 708.625 856.66144 709.3281Q857.16144 710.03125 857.8802 710.03125Q858.61456 710.03125 859.09894 709.3281Q859.59894 708.625 859.59894 706.5156Q859.59894 704.3906 859.09894 703.7031Q858.61456 703.0 857.86456 703.0Q857.1458 703.0 856.7083 703.6094Q856.16144 704.3906 856.16144 706.5156Z" fill-rule="nonzero"/><path fill="#000000" d="M652.46875 710.75L651.4219 710.75L651.4219 704.03125Q651.03125 704.3906 650.40625 704.7656Q649.7969 705.125 649.3125 705.2969L649.3125 704.28125Q650.1875 703.8594 650.84375 703.28125Q651.5156 702.6875 651.7969 702.125L652.46875 702.125L652.46875 710.75ZM658.875 710.75L658.875 708.6875L655.15625 708.6875L655.15625 707.71875L659.0781 702.15625L659.9375 702.15625L659.9375 707.71875L661.09375 707.71875L661.09375 708.6875L659.9375 708.6875L659.9375 710.75L658.875 710.75ZM658.875 707.71875L658.875 703.8594L656.1875 707.71875L658.875 707.71875ZM662.5 706.5156Q662.5 704.9844 662.8125 704.0625Q663.125 703.125 663.7344 702.625Q664.3594 702.125 665.2969 702.125Q665.9844 702.125 666.5 702.40625Q667.03125 702.6875 667.375 703.21875Q667.71875 703.7344 667.90625 704.4844Q668.09375 705.2344 668.09375 706.5156Q668.09375 708.03125 667.78125 708.9531Q667.4844 709.875 666.8594 710.3906Q666.25 710.8906 665.2969 710.8906Q664.0625 710.8906 663.34375 710.0Q662.5 708.9375 662.5 706.5156ZM663.5781 706.5156Q663.5781 708.625 664.0781 709.3281Q664.5781 710.03125 665.2969 710.03125Q666.03125 710.03125 666.5156 709.3281Q667.0156 708.625 667.0156 706.5156Q667.0156 704.3906 666.5156 703.7031Q666.03125 703.0 665.28125 703.0Q664.5625 703.0 664.125 703.6094Q663.5781 704.3906 663.5781 706.5156ZM669.5 706.5156Q669.5 704.9844 669.8125 704.0625Q670.125 703.125 670.7344 702.625Q671.3594 702.125 672.2969 702.125Q672.9844 702.125 673.5 702.40625Q674.03125 702.6875 674.375 703.21875Q674.71875 703.7344 674.90625 704.4844Q675.09375 705.2344 675.09375 706.5156Q675.09375 708.03125 674.78125 708.9531Q674.4844 709.875 673.8594 710.3906Q673.25 710.8906 672.2969 710.8906Q671.0625 710.8906 670.34375 710.0Q669.5 708.9375 669.5 706.5156ZM670.5781 706.5156Q670.5781 708.625 671.0781 709.3281Q671.5781 710.03125 672.2969 710.03125Q673.03125 710.03125 673.5156 709.3281Q674.0156 708.625 674.0156 706.5156Q674.0156 704.3906 673.5156 703.7031Q673.03125 703.0 672.28125 703.0Q671.5625 703.0 671.125 703.6094Q670.5781 704.3906 670.5781 706.5156Z" fill-rule="nonzero"/><path fill="#000000" d="M466.8854 710.75L465.83853 710.75L465.83853 704.03125Q465.4479 704.3906 464.8229 704.7656Q464.21353 705.125 463.72916 705.2969L463.72916 704.28125Q464.60416 703.8594 465.2604 703.28125Q465.93228 702.6875 466.21353 702.125L466.8854 702.125L466.8854 710.75ZM475.3854 704.2656L474.33853 704.34375Q474.1979 703.71875 473.9479 703.4375Q473.5104 702.9844 472.8854 702.9844Q472.3854 702.9844 471.99478 703.2656Q471.5104 703.6406 471.21353 704.34375Q470.93228 705.03125 470.91666 706.3125Q471.29166 705.7344 471.83853 705.4531Q472.40103 705.1719 473.0104 705.1719Q474.05728 705.1719 474.79166 705.9531Q475.54166 706.7344 475.54166 707.9531Q475.54166 708.7656 475.18228 709.46875Q474.83853 710.15625 474.22916 710.53125Q473.61978 710.8906 472.85416 710.8906Q471.52603 710.8906 470.6979 709.9219Q469.86978 708.9531 469.86978 706.7344Q469.86978 704.2344 470.79166 703.1094Q471.58853 702.125 472.9479 702.125Q473.96353 702.125 474.60416 702.7031Q475.2604 703.2656 475.3854 704.2656ZM471.08853 707.96875Q471.08853 708.5156 471.30728 709.0156Q471.54166 709.5 471.9479 709.7656Q472.36978 710.03125 472.83853 710.03125Q473.49478 710.03125 473.97916 709.5Q474.46353 708.9531 474.46353 708.03125Q474.46353 707.1406 473.97916 706.625Q473.5104 706.1094 472.79166 706.1094Q472.0729 706.1094 471.5729 706.625Q471.08853 707.1406 471.08853 707.96875ZM476.91666 706.5156Q476.91666 704.9844 477.22916 704.0625Q477.54166 703.125 478.15103 702.625Q478.77603 702.125 479.71353 702.125Q480.40103 702.125 480.91666 702.40625Q481.4479 702.6875 481.79166 703.21875Q482.1354 703.7344 482.3229 704.4844Q482.5104 705.2344 482.5104 706.5156Q482.5104 708.03125 482.1979 708.9531Q481.90103 709.875 481.27603 710.3906Q480.66666 710.8906 479.71353 710.8906Q478.47916 710.8906 477.7604 710.0Q476.91666 708.9375 476.91666 706.5156ZM477.99478 706.5156Q477.99478 708.625 478.49478 709.3281Q478.99478 710.03125 479.71353 710.03125Q480.4479 710.03125 480.93228 709.3281Q481.43228 708.625 481.43228 706.5156Q481.43228 704.3906 480.93228 703.7031Q480.4479 703.0 479.6979 703.0Q478.97916 703.0 478.54166 703.6094Q477.99478 704.3906 477.99478 706.5156ZM483.91666 706.5156Q483.91666 704.9844 484.22916 704.0625Q484.54166 703.125 485.15103 702.625Q485.77603 702.125 486.71353 702.125Q487.40103 702.125 487.91666 702.40625Q488.4479 702.6875 488.79166 703.21875Q489.1354 703.7344 489.3229 704.4844Q489.5104 705.2344 489.5104 706.5156Q489.5104 708.03125 489.1979 708.9531Q488.90103 709.875 488.27603 710.3906Q487.66666 710.8906 486.71353 710.8906Q485.47916 710.8906 484.7604 710.0Q483.91666 708.9375 483.91666 706.5156ZM484.99478 706.5156Q484.99478 708.625 485.49478 709.3281Q485.99478 710.03125 486.71353 710.03125Q487.4479 710.03125 487.93228 709.3281Q488.43228 708.625 488.43228 706.5156Q488.43228 704.3906 487.93228 703.7031Q487.4479 703.0 486.6979 703.0Q485.97916 703.0 485.54166 703.6094Q484.99478 704.3906 484.99478 706.5156Z" fill-rule="nonzero"/><path fill="#000000" d="M281.3021 710.75L280.25522 710.75L280.25522 704.03125Q279.8646 704.3906 279.2396 704.7656Q278.63022 705.125 278.14584 705.2969L278.14584 704.28125Q279.02084 703.8594 279.6771 703.28125Q280.34897 702.6875 280.63022 702.125L281.3021 702.125L281.3021 710.75ZM285.95834 706.09375Q285.3021 705.84375 284.97397 705.40625Q284.66147 704.9531 284.66147 704.34375Q284.66147 703.40625 285.33334 702.7656Q286.02084 702.125 287.13022 702.125Q288.25522 702.125 288.94272 702.78125Q289.63022 703.4375 289.63022 704.375Q289.63022 704.96875 289.31772 705.40625Q289.00522 705.84375 288.3646 706.09375Q289.16147 706.34375 289.56772 706.9219Q289.97397 707.5 289.97397 708.2969Q289.97397 709.3906 289.19272 710.1406Q288.4271 710.8906 287.14584 710.8906Q285.88022 710.8906 285.09897 710.1406Q284.31772 709.3906 284.31772 708.2656Q284.31772 707.4219 284.7396 706.8594Q285.1771 706.2969 285.95834 706.09375ZM285.7396 704.2969Q285.7396 704.90625 286.13022 705.2969Q286.53647 705.6875 287.16147 705.6875Q287.77084 705.6875 288.16147 705.3125Q288.5521 704.9219 288.5521 704.3594Q288.5521 703.78125 288.14584 703.3906Q287.7396 702.9844 287.14584 702.9844Q286.53647 702.9844 286.13022 703.375Q285.7396 703.7656 285.7396 704.2969ZM285.41147 708.2656Q285.41147 708.71875 285.6146 709.1406Q285.83334 709.5625 286.25522 709.7969Q286.6771 710.03125 287.16147 710.03125Q287.91147 710.03125 288.39584 709.5469Q288.89584 709.0625 288.89584 708.3125Q288.89584 707.5469 288.39584 707.0469Q287.89584 706.5469 287.13022 706.5469Q286.38022 706.5469 285.89584 707.0469Q285.41147 707.53125 285.41147 708.2656ZM291.33334 706.5156Q291.33334 704.9844 291.64584 704.0625Q291.95834 703.125 292.56772 702.625Q293.19272 702.125 294.13022 702.125Q294.81772 702.125 295.33334 702.40625Q295.8646 702.6875 296.20834 703.21875Q296.5521 703.7344 296.7396 704.4844Q296.9271 705.2344 296.9271 706.5156Q296.9271 708.03125 296.6146 708.9531Q296.31772 709.875 295.69272 710.3906Q295.08334 710.8906 294.13022 710.8906Q292.89584 710.8906 292.1771 710.0Q291.33334 708.9375 291.33334 706.5156ZM292.41147 706.5156Q292.41147 708.625 292.91147 709.3281Q293.41147 710.03125 294.13022 710.03125Q294.8646 710.03125 295.34897 709.3281Q295.84897 708.625 295.84897 706.5156Q295.84897 704.3906 295.34897 703.7031Q294.8646 703.0 294.1146 703.0Q293.39584 703.0 292.95834 703.6094Q292.41147 704.3906 292.41147 706.5156ZM298.33334 706.5156Q298.33334 704.9844 298.64584 704.0625Q298.95834 703.125 299.56772 702.625Q300.19272 702.125 301.13022 702.125Q301.81772 702.125 302.33334 702.40625Q302.8646 702.6875 303.20834 703.21875Q303.5521 703.7344 303.7396 704.4844Q303.9271 705.2344 303.9271 706.5156Q303.9271 708.03125 303.6146 708.9531Q303.31772 709.875 302.69272 710.3906Q302.08334 710.8906 301.13022 710.8906Q299.89584 710.8906 299.1771 710.0Q298.33334 708.9375 298.33334 706.5156ZM299.41147 706.5156Q299.41147 708.625 299.91147 709.3281Q300.41147 710.03125 301.13022 710.03125Q301.8646 710.03125 302.34897 709.3281Q302.84897 708.625 302.84897 706.5156Q302.84897 704.3906 302.34897 703.7031Q301.8646 703.0 301.1146 703.0Q300.39584 703.0 299.95834 703.6094Q299.41147 704.3906 299.41147 706.5156Z" fill-rule="nonzero"/><path fill="#000000" d="M97.296875 709.7344L97.296875 710.75L91.609375 710.75Q91.609375 710.375 91.734375 710.0156Q91.953125 709.4375 92.421875 708.875Q92.90625 708.3125 93.8125 707.5781Q95.21875 706.4219 95.703125 705.75Q96.203125 705.0781 96.203125 704.4844Q96.203125 703.8594 95.75 703.4375Q95.296875 703.0 94.578125 703.0Q93.8125 703.0 93.359375 703.4531Q92.90625 703.90625 92.890625 704.71875L91.8125 704.6094Q91.921875 703.3906 92.640625 702.7656Q93.375 702.125 94.609375 702.125Q95.84375 702.125 96.5625 702.8125Q97.28125 703.5 97.28125 704.5156Q97.28125 705.03125 97.0625 705.53125Q96.859375 706.0156 96.359375 706.5781Q95.875 707.125 94.75 708.0781Q93.796875 708.875 93.515625 709.1719Q93.25 709.4531 93.078125 709.7344L97.296875 709.7344ZM98.75 706.5156Q98.75 704.9844 99.0625 704.0625Q99.375 703.125 99.984375 702.625Q100.609375 702.125 101.546875 702.125Q102.234375 702.125 102.75 702.40625Q103.28125 702.6875 103.625 703.21875Q103.96875 703.7344 104.15625 704.4844Q104.34375 705.2344 104.34375 706.5156Q104.34375 708.03125 104.03125 708.9531Q103.734375 709.875 103.109375 710.3906Q102.5 710.8906 101.546875 710.8906Q100.3125 710.8906 99.59375 710.0Q98.75 708.9375 98.75 706.5156ZM99.828125 706.5156Q99.828125 708.625 100.328125 709.3281Q100.828125 710.03125 101.546875 710.03125Q102.28125 710.03125 102.765625 709.3281Q103.265625 708.625 103.265625 706.5156Q103.265625 704.3906 102.765625 703.7031Q102.28125 703.0 101.53125 703.0Q100.8125 703.0 100.375 703.6094Q99.828125 704.3906 99.828125 706.5156ZM105.75 706.5156Q105.75 704.9844 106.0625 704.0625Q106.375 703.125 106.984375 702.625Q107.609375 702.125 108.546875 702.125Q109.234375 702.125 109.75 702.40625Q110.28125 702.6875 110.625 703.21875Q110.96875 703.7344 111.15625 704.4844Q111.34375 705.2344 111.34375 706.5156Q111.34375 708.03125 111.03125 708.9531Q110.734375 709.875 110.109375 710.3906Q109.5 710.8906 108.546875 710.8906Q107.3125 710.8906 106.59375 710.0Q105.75 708.9375 105.75 706.5156ZM106.828125 706.5156Q106.828125 708.625 107.328125 709.3281Q107.828125 710.03125 108.546875 710.03125Q109.28125 710.03125 109.765625 709.3281Q110.265625 708.625 110.265625 706.5156Q110.265625 704.3906 109.765625 703.7031Q109.28125 703.0 108.53125 703.0Q107.8125 703.0 107.375 703.6094Q106.828125 704.3906 106.828125 706.5156ZM112.75 706.5156Q112.75 704.9844 113.0625 704.0625Q113.375 703.125 113.984375 702.625Q114.609375 702.125 115.546875 702.125Q116.234375 702.125 116.75 702.40625Q117.28125 702.6875 117.625 703.21875Q117.96875 703.7344 118.15625 704.4844Q118.34375 705.2344 118.34375 706.5156Q118.34375 708.03125 118.03125 708.9531Q117.734375 709.875 117.109375 710.3906Q116.5 710.8906 115.546875 710.8906Q114.3125 710.8906 113.59375 710.0Q112.75 708.9375 112.75 706.5156ZM113.828125 706.5156Q113.828125 708.625 114.328125 709.3281Q114.828125 710.03125 115.546875 710.03125Q116.28125 710.03125 116.765625 709.3281Q117.265625 708.625 117.265625 706.5156Q117.265625 704.3906 116.765625 703.7031Q116.28125 703.0 115.53125 703.0Q114.8125 703.0 114.375 703.6094Q113.828125 704.3906 113.828125 706.5156Z" fill-rule="nonzero"/><path fill="#757575" d="M40.734375 58.25L40.734375 43.9375L43.59375 43.9375L46.96875 54.0625Q47.4375 55.484375 47.65625 56.1875Q47.90625 55.40625 48.421875 53.890625L51.84375 43.9375L54.390625 43.9375L54.390625 58.25L52.578125 58.25L52.578125 46.265625L48.40625 58.25L46.703125 58.25L42.5625 46.0625L42.5625 58.25L40.734375 58.25ZM64.671875 54.90625L66.484375 55.140625Q66.0625 56.71875 64.890625 57.609375Q63.734375 58.484375 61.921875 58.484375Q59.65625 58.484375 58.3125 57.09375Q56.984375 55.6875 56.984375 53.15625Q56.984375 50.53125 58.328125 49.09375Q59.671875 47.640625 61.828125 47.640625Q63.90625 47.640625 65.21875 49.0625Q66.546875 50.46875 66.546875 53.046875Q66.546875 53.203125 66.53125 53.515625L58.796875 53.515625Q58.890625 55.21875 59.765625 56.125Q60.640625 57.03125 61.9375 57.03125Q62.90625 57.03125 63.578125 56.53125Q64.265625 56.015625 64.671875 54.90625ZM58.890625 52.0625L64.6875 52.0625Q64.578125 50.765625 64.03125 50.109375Q63.1875 49.09375 61.84375 49.09375Q60.640625 49.09375 59.8125 49.90625Q58.984375 50.703125 58.890625 52.0625ZM75.34375 56.96875Q74.359375 57.796875 73.453125 58.140625Q72.546875 58.484375 71.515625 58.484375Q69.8125 58.484375 68.890625 57.65625Q67.96875 56.8125 67.96875 55.515625Q67.96875 54.75 68.3125 54.125Q68.671875 53.5 69.234375 53.125Q69.796875 52.734375 70.5 52.53125Q71.015625 52.40625 72.0625 52.265625Q74.1875 52.015625 75.1875 51.671875Q75.203125 51.3125 75.203125 51.203125Q75.203125 50.140625 74.703125 49.6875Q74.03125 49.09375 72.703125 49.09375Q71.453125 49.09375 70.859375 49.53125Q70.28125 49.96875 70.0 51.078125L68.28125 50.84375Q68.515625 49.734375 69.046875 49.0625Q69.578125 48.375 70.59375 48.015625Q71.609375 47.640625 72.953125 47.640625Q74.28125 47.640625 75.109375 47.953125Q75.9375 48.265625 76.328125 48.75Q76.71875 49.21875 76.875 49.9375Q76.96875 50.390625 76.96875 51.5625L76.96875 53.90625Q76.96875 56.359375 77.078125 57.015625Q77.1875 57.65625 77.53125 58.25L75.6875 58.25Q75.421875 57.703125 75.34375 56.96875ZM75.1875 53.046875Q74.234375 53.4375 72.3125 53.703125Q71.234375 53.859375 70.78125 54.0625Q70.34375 54.25 70.09375 54.625Q69.84375 55.0 69.84375 55.46875Q69.84375 56.171875 70.375 56.640625Q70.90625 57.109375 71.9375 57.109375Q72.953125 57.109375 73.734375 56.671875Q74.53125 56.21875 74.90625 55.453125Q75.1875 54.84375 75.1875 53.6875L75.1875 53.046875ZM79.5625 58.25L79.5625 47.875L81.15625 47.875L81.15625 49.359375Q82.296875 47.640625 84.453125 47.640625Q85.390625 47.640625 86.171875 47.984375Q86.96875 48.3125 87.359375 48.859375Q87.75 49.40625 87.90625 50.15625Q88.0 50.65625 88.0 51.875L88.0 58.25L86.234375 58.25L86.234375 51.9375Q86.234375 50.859375 86.03125 50.328125Q85.828125 49.796875 85.296875 49.484375Q84.78125 49.171875 84.078125 49.171875Q82.953125 49.171875 82.140625 49.890625Q81.328125 50.59375 81.328125 52.578125L81.328125 58.25L79.5625 58.25ZM95.890625 58.25L95.890625 43.9375L105.546875 43.9375L105.546875 45.625L97.78125 45.625L97.78125 50.0625L104.5 50.0625L104.5 51.75L97.78125 51.75L97.78125 58.25L95.890625 58.25ZM116.3125 56.5625L116.3125 58.25L106.859375 58.25Q106.84375 57.609375 107.0625 57.03125Q107.421875 56.0625 108.21875 55.125Q109.015625 54.1875 110.515625 52.953125Q112.859375 51.046875 113.671875 49.9375Q114.5 48.8125 114.5 47.8125Q114.5 46.765625 113.75 46.046875Q113.0 45.328125 111.796875 45.328125Q110.53125 45.328125 109.765625 46.09375Q109.0 46.859375 109.0 48.203125L107.1875 48.015625Q107.375 46.0 108.578125 44.9375Q109.796875 43.875 111.84375 43.875Q113.890625 43.875 115.09375 45.015625Q116.296875 46.15625 116.296875 47.84375Q116.296875 48.703125 115.9375 49.546875Q115.59375 50.375 114.78125 51.296875Q113.96875 52.203125 112.078125 53.8125Q110.484375 55.140625 110.03125 55.609375Q109.59375 56.078125 109.296875 56.5625L116.3125 56.5625ZM127.453125 58.25L123.5 47.875L125.359375 47.875L127.59375 54.09375Q127.953125 55.09375 128.25 56.171875Q128.48438 55.359375 128.90625 54.203125L131.20312 47.875L133.01562 47.875L129.09375 58.25L127.453125 58.25ZM132.85938 55.15625L134.60938 54.875Q134.75 55.921875 135.42188 56.484375Q136.09375 57.03125 137.29688 57.03125Q138.5 57.03125 139.07812 56.546875Q139.67188 56.046875 139.67188 55.390625Q139.67188 54.796875 139.15625 54.453125Q138.79688 54.21875 137.35938 53.859375Q135.42188 53.359375 134.67188 53.015625Q133.9375 52.65625 133.54688 52.03125Q133.15625 51.390625 133.15625 50.625Q133.15625 49.9375 133.46875 49.34375Q133.79688 48.75 134.34375 48.359375Q134.75 48.0625 135.45312 47.859375Q136.17188 47.640625 136.98438 47.640625Q138.20312 47.640625 139.125 48.0Q140.04688 48.34375 140.48438 48.953125Q140.92188 49.546875 141.09375 50.546875L139.375 50.78125Q139.25 49.984375 138.6875 49.546875Q138.125 49.09375 137.10938 49.09375Q135.89062 49.09375 135.375 49.5Q134.85938 49.890625 134.85938 50.421875Q134.85938 50.765625 135.07812 51.046875Q135.28125 51.328125 135.75 51.515625Q136.01562 51.609375 137.29688 51.953125Q139.17188 52.453125 139.90625 52.78125Q140.64062 53.09375 141.0625 53.703125Q141.48438 54.296875 141.48438 55.203125Q141.48438 56.078125 140.96875 56.859375Q140.45312 57.640625 139.48438 58.0625Q138.51562 58.484375 137.29688 58.484375Q135.28125 58.484375 134.21875 57.640625Q133.15625 56.796875 132.85938 55.15625ZM149.89062 58.25L149.89062 43.9375L159.54688 43.9375L159.54688 45.625L151.78125 45.625L151.78125 50.0625L158.5 50.0625L158.5 51.75L151.78125 51.75L151.78125 58.25L149.89062 58.25ZM167.70312 58.25L165.9375 58.25L165.9375 47.046875Q165.3125 47.65625 164.28125 48.265625Q163.25 48.859375 162.42188 49.171875L162.42188 47.46875Q163.90625 46.78125 165.0 45.796875Q166.10938 44.796875 166.5625 43.875L167.70312 43.875L167.70312 58.25ZM177.89062 53.953125L177.89062 52.1875L183.28125 52.1875L183.28125 53.953125L177.89062 53.953125ZM191.73438 58.25L191.73438 43.9375L194.59375 43.9375L197.96875 54.0625Q198.4375 55.484375 198.65625 56.1875Q198.90625 55.40625 199.42188 53.890625L202.84375 43.9375L205.39062 43.9375L205.39062 58.25L203.57812 58.25L203.57812 46.265625L199.40625 58.25L197.70312 58.25L193.5625 46.0625L193.5625 58.25L191.73438 58.25ZM215.34375 56.96875Q214.35938 57.796875 213.45312 58.140625Q212.54688 58.484375 211.51562 58.484375Q209.8125 58.484375 208.89062 57.65625Q207.96875 56.8125 207.96875 55.515625Q207.96875 54.75 208.3125 54.125Q208.67188 53.5 209.23438 53.125Q209.79688 52.734375 210.5 52.53125Q211.01562 52.40625 212.0625 52.265625Q214.1875 52.015625 215.1875 51.671875Q215.20312 51.3125 215.20312 51.203125Q215.20312 50.140625 214.70312 49.6875Q214.03125 49.09375 212.70312 49.09375Q211.45312 49.09375 210.85938 49.53125Q210.28125 49.96875 210.0 51.078125L208.28125 50.84375Q208.51562 49.734375 209.04688 49.0625Q209.57812 48.375 210.59375 48.015625Q211.60938 47.640625 212.95312 47.640625Q214.28125 47.640625 215.10938 47.953125Q215.9375 48.265625 216.32812 48.75Q216.71875 49.21875 216.875 49.9375Q216.96875 50.390625 216.96875 51.5625L216.96875 53.90625Q216.96875 56.359375 217.07812 57.015625Q217.1875 57.65625 217.53125 58.25L215.6875 58.25Q215.42188 57.703125 215.34375 56.96875ZM215.1875 53.046875Q214.23438 53.4375 212.3125 53.703125Q211.23438 53.859375 210.78125 54.0625Q210.34375 54.25 210.09375 54.625Q209.84375 55.0 209.84375 55.46875Q209.84375 56.171875 210.375 56.640625Q210.90625 57.109375 211.9375 57.109375Q212.95312 57.109375 213.73438 56.671875Q214.53125 56.21875 214.90625 55.453125Q215.1875 54.84375 215.1875 53.6875L215.1875 53.046875ZM219.53125 58.25L219.53125 43.9375L221.28125 43.9375L221.28125 58.25L219.53125 58.25ZM230.67188 54.90625L232.48438 55.140625Q232.0625 56.71875 230.89062 57.609375Q229.73438 58.484375 227.92188 58.484375Q225.65625 58.484375 224.3125 57.09375Q222.98438 55.6875 222.98438 53.15625Q222.98438 50.53125 224.32812 49.09375Q225.67188 47.640625 227.82812 47.640625Q229.90625 47.640625 231.21875 49.0625Q232.54688 50.46875 232.54688 53.046875Q232.54688 53.203125 232.53125 53.515625L224.79688 53.515625Q224.89062 55.21875 225.76562 56.125Q226.64062 57.03125 227.9375 57.03125Q228.90625 57.03125 229.57812 56.53125Q230.26562 56.015625 230.67188 54.90625ZM224.89062 52.0625L230.6875 52.0625Q230.57812 50.765625 230.03125 50.109375Q229.1875 49.09375 227.84375 49.09375Q226.64062 49.09375 225.8125 49.90625Q224.98438 50.703125 224.89062 52.0625Z" fill-rule="nonzero"/></svg>