<svg version="1.1" viewBox="0.0 0.0 546.0 335.0" fill="none" stroke="none" stroke-linecap="square" stroke-miterlimit="10" width="546" height="335" xmlns:xlink="http://www.w3.org/1999/xlink" xmlns="http://www.w3.org/2000/svg"><path fill="#ffffff" d="M0 0L546.0 0L546.0 335.0L0 335.0L0 0Z" fill-rule="nonzero"/><path stroke="#cccccc" stroke-width="1.0" stroke-linecap="butt" d="M529.5 58.5L529.5 266.5" fill-rule="nonzero"/><path stroke="#cccccc" stroke-width="1.0" stroke-linecap="butt" d="M455.5 58.5L455.5 266.5" fill-rule="nonzero"/><path stroke="#cccccc" stroke-width="1.0" stroke-linecap="butt" d="M381.5 58.5L381.5 266.5" fill-rule="nonzero"/><path stroke="#cccccc" stroke-width="1.0" stroke-linecap="butt" d="M307.5 58.5L307.5 266.5" fill-rule="nonzero"/><path stroke="#cccccc" stroke-width="1.0" stroke-linecap="butt" d="M233.5 58.5L233.5 266.5" fill-rule="nonzero"/><path stroke="#cccccc" stroke-width="1.0" stroke-linecap="butt" d="M159.5 58.5L159.5 266.5" fill-rule="nonzero"/><path stroke="#cccccc" stroke-width="1.0" stroke-linecap="butt" d="M85.5 58.5L85.5 266.5" fill-rule="nonzero"/><path stroke="#e6e6e6" stroke-width="1.0" stroke-linecap="butt" d="M492.5 58.5L492.5 266.5" fill-rule="nonzero"/><path stroke="#e6e6e6" stroke-width="1.0" stroke-linecap="butt" d="M418.5 58.5L418.5 266.5" fill-rule="nonzero"/><path stroke="#e6e6e6" stroke-width="1.0" stroke-linecap="butt" d="M344.5 58.5L344.5 266.5" fill-rule="nonzero"/><path stroke="#e6e6e6" stroke-width="1.0" stroke-linecap="butt" d="M270.5 58.5L270.5 266.5" fill-rule="nonzero"/><path stroke="#e6e6e6" stroke-width="1.0" stroke-linecap="butt" d="M196.5 58.5L196.5 266.5" fill-rule="nonzero"/><path stroke="#e6e6e6" stroke-width="1.0" stroke-linecap="butt" d="M122.5 58.5L122.5 266.5" fill-rule="nonzero"/><path stroke="#cccccc" stroke-width="1.0" stroke-linecap="butt" d="M85.5 266.5L529.5 266.5" fill-rule="nonzero"/><path stroke="#cccccc" stroke-width="1.0" stroke-linecap="butt" d="M85.5 214.5L529.5 214.5" fill-rule="nonzero"/><path stroke="#cccccc" stroke-width="1.0" stroke-linecap="butt" d="M85.5 162.5L529.5 162.5" fill-rule="nonzero"/><path stroke="#cccccc" stroke-width="1.0" stroke-linecap="butt" d="M85.5 110.5L529.5 110.5" fill-rule="nonzero"/><path stroke="#cccccc" stroke-width="1.0" stroke-linecap="butt" d="M85.5 58.5L529.5 58.5" fill-rule="nonzero"/><path stroke="#e6e6e6" stroke-width="1.0" stroke-linecap="butt" d="M85.5 240.5L529.5 240.5" fill-rule="nonzero"/><path stroke="#e6e6e6" stroke-width="1.0" stroke-linecap="butt" d="M85.5 188.5L529.5 188.5" fill-rule="nonzero"/><path stroke="#e6e6e6" stroke-width="1.0" stroke-linecap="butt" d="M85.5 136.5L529.5 136.5" fill-rule="nonzero"/><path stroke="#e6e6e6" stroke-width="1.0" stroke-linecap="butt" d="M85.5 84.5L529.5 84.5" fill-rule="nonzero"/><path stroke="#eeeeee" stroke-width="1.0" stroke-linecap="butt" d="M320.2654 174.7055L320.2654 190.7055" fill-rule="nonzero"/><path stroke="#eeeeee" stroke-width="1.0" stroke-linecap="butt" d="M212.51709 115.535164L212.51709 131.53517" fill-rule="nonzero"/><path stroke="#eeeeee" stroke-width="1.0" stroke-linecap="butt" d="M371.1718 124.46087L371.1718 140.46086" fill-rule="nonzero"/><path stroke="#eeeeee" stroke-width="1.0" stroke-linecap="butt" d="M189.56596 89.06388L189.56596 105.06388" fill-rule="nonzero"/><path stroke="#eeeeee" stroke-width="1.0" stroke-linecap="butt" d="M183.69328 96.17283L183.69328 112.17283" fill-rule="nonzero"/><path stroke="#eeeeee" stroke-width="1.0" stroke-linecap="butt" d="M412.54297 131.58536L412.54297 147.58536" fill-rule="nonzero"/><path stroke="#eeeeee" stroke-width="1.0" stroke-linecap="butt" d="M362.65662 93.94917L362.65662 109.94917" fill-rule="nonzero"/><clipPath id="id_0"><path d="M85.75 58.916668L529.25 58.916668L529.25 266.25L85.75 266.25L85.75 58.916668Z" clip-rule="nonzero"/></clipPath><path fill="#0000ff" clip-path="url(#id_0)" d="M326.2654 190.7055C326.2654 194.01921 323.57913 196.7055 320.2654 196.7055C316.9517 196.7055 314.2654 194.01921 314.2654 190.7055C314.2654 187.3918 316.9517 184.7055 320.2654 184.7055C323.57913 184.7055 326.2654 187.3918 326.2654 190.7055Z" fill-rule="nonzero"/><path fill="#0000ff" clip-path="url(#id_0)" d="M218.51709 131.53517C218.51709 134.84888 215.8308 137.53517 212.51709 137.53517C209.20337 137.53517 206.51709 134.84888 206.51709 131.53517C206.51709 128.22145 209.20337 125.535164 212.51709 125.535164C215.8308 125.535164 218.51709 128.22145 218.51709 131.53517Z" fill-rule="nonzero"/><path fill="#0000ff" clip-path="url(#id_0)" d="M377.1718 140.46086C377.1718 143.77458 374.48553 146.46086 371.1718 146.46086C367.8581 146.46086 365.1718 143.77458 365.1718 140.46086C365.1718 137.14716 367.8581 134.46086 371.1718 134.46086C374.48553 134.46086 377.1718 137.14716 377.1718 140.46086Z" fill-rule="nonzero"/><path fill="#0000ff" clip-path="url(#id_0)" d="M195.56596 105.06388C195.56596 108.377594 192.87967 111.06388 189.56596 111.06388C186.25224 111.06388 183.56596 108.377594 183.56596 105.06388C183.56596 101.750175 186.25224 99.06388 189.56596 99.06388C192.87967 99.06388 195.56596 101.750175 195.56596 105.06388Z" fill-rule="nonzero"/><path fill="#0000ff" clip-path="url(#id_0)" d="M189.69328 112.17283C189.69328 115.486534 187.00699 118.17283 183.69328 118.17283C180.37958 118.17283 177.69328 115.486534 177.69328 112.17283C177.69328 108.859116 180.37958 106.17283 183.69328 106.17283C187.00699 106.17283 189.69328 108.859116 189.69328 112.17283Z" fill-rule="nonzero"/><path fill="#0000ff" clip-path="url(#id_0)" d="M418.54297 147.58536C418.54297 150.89906 415.8567 153.58536 412.54297 153.58536C409.22928 153.58536 406.54297 150.89906 406.54297 147.58536C406.54297 144.27165 409.22928 141.58536 412.54297 141.58536C415.8567 141.58536 418.54297 144.27165 418.54297 147.58536Z" fill-rule="nonzero"/><path fill="#0000ff" clip-path="url(#id_0)" d="M368.65662 109.94917C368.65662 113.262886 365.97034 115.94917 362.65662 115.94917C359.3429 115.94917 356.65662 113.262886 356.65662 109.94917C356.65662 106.63547 359.3429 103.94917 362.65662 103.94917C365.97034 103.94917 368.65662 106.63547 368.65662 109.94917Z" fill-rule="nonzero"/><path stroke="#ffffff" stroke-width="3.0" stroke-linejoin="round" stroke-linecap="round" d="M321.96854 170.47113L318.3904 170.47113L317.59354 172.7055L316.4373 172.7055L319.6873 164.17426L320.67166 164.17426L323.9373 172.7055L322.78104 172.7055L321.96854 170.47113ZM318.73416 169.54926L321.6404 169.54926L320.1873 165.56488L318.73416 169.54926Z" fill-rule="nonzero"/><path fill="#0000ff" d="M321.96854 170.47113L318.3904 170.47113L317.59354 172.7055L316.4373 172.7055L319.6873 164.17426L320.67166 164.17426L323.9373 172.7055L322.78104 172.7055L321.96854 170.47113ZM318.73416 169.54926L321.6404 169.54926L320.1873 165.56488L318.73416 169.54926Z" fill-rule="nonzero"/><path stroke="#ffffff" stroke-width="3.0" stroke-linejoin="round" stroke-linecap="round" d="M214.82959 109.597664L211.12646 109.597664L211.12646 112.61329L215.42334 112.61329L215.42334 113.535164L210.00146 113.535164L210.00146 105.003914L215.37646 105.003914L215.37646 105.92579L211.12646 105.92579L211.12646 108.67579L214.82959 108.67579L214.82959 109.597664Z" fill-rule="nonzero"/><path fill="#0000ff" d="M214.82959 109.597664L211.12646 109.597664L211.12646 112.61329L215.42334 112.61329L215.42334 113.535164L210.00146 113.535164L210.00146 105.003914L215.37646 105.003914L215.37646 105.92579L211.12646 105.92579L211.12646 108.67579L214.82959 108.67579L214.82959 109.597664Z" fill-rule="nonzero"/><path stroke="#ffffff" stroke-width="3.0" stroke-linejoin="round" stroke-linecap="round" d="M372.4843 118.52337L368.7812 118.52337L368.7812 121.538994L373.07806 121.538994L373.07806 122.46087L367.6562 122.46087L367.6562 113.92962L373.0312 113.92962L373.0312 114.851494L368.7812 114.851494L368.7812 117.601494L372.4843 117.601494L372.4843 118.52337ZM375.1562 114.11712L375.0312 116.27337L374.2812 116.27337L374.2812 113.46087L375.1562 113.46087L375.1562 114.11712Z" fill-rule="nonzero"/><path fill="#0000ff" d="M372.4843 118.52337L368.7812 118.52337L368.7812 121.538994L373.07806 121.538994L373.07806 122.46087L367.6562 122.46087L367.6562 113.92962L373.0312 113.92962L373.0312 114.851494L368.7812 114.851494L368.7812 117.601494L372.4843 117.601494L372.4843 118.52337ZM375.1562 114.11712L375.0312 116.27337L374.2812 116.27337L374.2812 113.46087L375.1562 113.46087L375.1562 114.11712Z" fill-rule="nonzero"/><path stroke="#ffffff" stroke-width="3.0" stroke-linejoin="round" stroke-linecap="round" d="M190.26909 87.06388L189.14409 87.06388L189.14409 78.53263L190.26909 78.53263L190.26909 87.06388Z" fill-rule="nonzero"/><path fill="#0000ff" d="M190.26909 87.06388L189.14409 87.06388L189.14409 78.53263L190.26909 78.53263L190.26909 87.06388Z" fill-rule="nonzero"/><path stroke="#ffffff" stroke-width="3.0" stroke-linejoin="round" stroke-linecap="round" d="M183.39641 94.17283L182.27141 94.17283L182.27141 85.64158L183.39641 85.64158L183.39641 94.17283ZM185.67766 85.82908L185.55266 87.98533L184.80266 87.98533L184.80266 85.17283L185.67766 85.17283L185.67766 85.82908Z" fill-rule="nonzero"/><path fill="#0000ff" d="M183.39641 94.17283L182.27141 94.17283L182.27141 85.64158L183.39641 85.64158L183.39641 94.17283ZM185.67766 85.82908L185.55266 87.98533L184.80266 87.98533L184.80266 85.17283L185.67766 85.17283L185.67766 85.82908Z" fill-rule="nonzero"/><path stroke="#ffffff" stroke-width="3.0" stroke-linejoin="round" stroke-linecap="round" d="M416.08984 125.60098Q416.08984 126.85098 415.66797 127.78848Q415.2461 128.71036 414.46484 129.21036Q413.69922 129.71036 412.66797 129.71036Q411.66797 129.71036 410.88672 129.21036Q410.10547 128.71036 409.66797 127.80411Q409.2461 126.88223 409.23047 125.66348L409.23047 125.05411Q409.23047 123.81973 409.65234 122.88223Q410.08984 121.94473 410.8711 121.44473Q411.65234 120.92911 412.66797 120.92911Q413.6836 120.92911 414.46484 121.42911Q415.2461 121.92911 415.66797 122.86661Q416.08984 123.80411 416.08984 125.05411L416.08984 125.60098ZM414.98047 125.03848Q414.98047 123.52286 414.3711 122.71036Q413.76172 121.89786 412.66797 121.89786Q411.58984 121.89786 410.98047 122.71036Q410.3711 123.52286 410.35547 124.96036L410.35547 125.60098Q410.35547 127.06973 410.96484 127.91348Q411.58984 128.74161 412.66797 128.74161Q413.76172 128.74161 414.35547 127.96036Q414.96484 127.16348 414.98047 125.67911L414.98047 125.03848Z" fill-rule="nonzero"/><path fill="#0000ff" d="M416.08984 125.60098Q416.08984 126.85098 415.66797 127.78848Q415.2461 128.71036 414.46484 129.21036Q413.69922 129.71036 412.66797 129.71036Q411.66797 129.71036 410.88672 129.21036Q410.10547 128.71036 409.66797 127.80411Q409.2461 126.88223 409.23047 125.66348L409.23047 125.05411Q409.23047 123.81973 409.65234 122.88223Q410.08984 121.94473 410.8711 121.44473Q411.65234 120.92911 412.66797 120.92911Q413.6836 120.92911 414.46484 121.42911Q415.2461 121.92911 415.66797 122.86661Q416.08984 123.80411 416.08984 125.05411L416.08984 125.60098ZM414.98047 125.03848Q414.98047 123.52286 414.3711 122.71036Q413.76172 121.89786 412.66797 121.89786Q411.58984 121.89786 410.98047 122.71036Q410.3711 123.52286 410.35547 124.96036L410.35547 125.60098Q410.35547 127.06973 410.96484 127.91348Q411.58984 128.74161 412.66797 128.74161Q413.76172 128.74161 414.35547 127.96036Q414.96484 127.16348 414.98047 125.67911L414.98047 125.03848Z" fill-rule="nonzero"/><path stroke="#ffffff" stroke-width="3.0" stroke-linejoin="round" stroke-linecap="round" d="M365.65662 83.41792L365.65662 89.2148Q365.641 90.41792 364.891 91.19917Q364.141 91.9648 362.85974 92.05855L362.54724 92.07417Q361.15662 92.07417 360.31287 91.32417Q359.48474 90.55855 359.48474 89.23042L359.48474 83.41792L360.59412 83.41792L360.59412 89.19917Q360.59412 90.12105 361.09412 90.63667Q361.60974 91.1523 362.54724 91.1523Q363.516 91.1523 364.016 90.63667Q364.516 90.12105 364.516 89.19917L364.516 83.41792L365.65662 83.41792Z" fill-rule="nonzero"/><path fill="#0000ff" d="M365.65662 83.41792L365.65662 89.2148Q365.641 90.41792 364.891 91.19917Q364.141 91.9648 362.85974 92.05855L362.54724 92.07417Q361.15662 92.07417 360.31287 91.32417Q359.48474 90.55855 359.48474 89.23042L359.48474 83.41792L360.59412 83.41792L360.59412 89.19917Q360.59412 90.12105 361.09412 90.63667Q361.60974 91.1523 362.54724 91.1523Q363.516 91.1523 364.016 90.63667Q364.516 90.12105 364.516 89.19917L364.516 83.41792L365.65662 83.41792Z" fill-rule="nonzero"/><path fill="#000000" d="M288.98438 315.25L288.98438 306.65625L294.78125 306.65625L294.78125 307.67188L290.125 307.67188L290.125 310.32812L294.15625 310.32812L294.15625 311.34375L290.125 311.34375L290.125 315.25L288.98438 315.25ZM301.04688 314.23438L301.04688 315.25L295.35938 315.25Q295.35938 314.875 295.48438 314.51562Q295.70312 313.9375 296.17188 313.375Q296.65625 312.8125 297.5625 312.07812Q298.96875 310.92188 299.45312 310.25Q299.95312 309.57812 299.95312 308.98438Q299.95312 308.35938 299.5 307.9375Q299.04688 307.5 298.32812 307.5Q297.5625 307.5 297.10938 307.95312Q296.65625 308.40625 296.64062 309.21875L295.5625 309.10938Q295.67188 307.89062 296.39062 307.26562Q297.125 306.625 298.35938 306.625Q299.59375 306.625 300.3125 307.3125Q301.03125 308.0 301.03125 309.01562Q301.03125 309.53125 300.8125 310.03125Q300.60938 310.51562 300.10938 311.07812Q299.625 311.625 298.5 312.57812Q297.54688 313.375 297.26562 313.67188Q297.0 313.95312 296.82812 314.23438L301.04688 314.23438ZM307.8125 317.78125Q306.9375 316.67188 306.32812 315.20312Q305.73438 313.71875 305.73438 312.14062Q305.73438 310.75 306.17188 309.46875Q306.70312 307.98438 307.8125 306.51562L308.5625 306.51562Q307.85938 307.73438 307.625 308.25Q307.26562 309.0625 307.0625 309.9375Q306.8125 311.03125 306.8125 312.14062Q306.8125 314.96875 308.5625 317.78125L307.8125 317.78125ZM309.96875 315.25L309.96875 306.65625L311.09375 306.65625L311.09375 310.1875L315.5625 310.1875L315.5625 306.65625L316.70312 306.65625L316.70312 315.25L315.5625 315.25L315.5625 311.20312L311.09375 311.20312L311.09375 315.25L309.96875 315.25ZM318.23438 315.25L318.23438 314.39062L322.20312 309.84375Q321.51562 309.875 321.0 309.875L318.46875 309.875L318.46875 309.03125L323.5625 309.03125L323.5625 309.71875L320.1875 313.67188L319.53125 314.39062Q320.25 314.34375 320.85938 314.34375L323.75 314.34375L323.75 315.25L318.23438 315.25ZM324.48438 317.78125L323.73438 317.78125Q325.48438 314.96875 325.48438 312.14062Q325.48438 311.04688 325.23438 309.95312Q325.03125 309.07812 324.67188 308.26562Q324.4375 307.75 323.73438 306.51562L324.48438 306.51562Q325.57812 307.98438 326.10938 309.46875Q326.5625 310.75 326.5625 312.14062Q326.5625 313.71875 325.95312 315.20312Q325.34375 316.67188 324.48438 317.78125Z" fill-rule="nonzero"/><path fill="#000000" d="M27.75 187.59897L19.15625 187.59897L19.15625 181.8021L20.171875 181.8021L20.171875 186.45834L22.828125 186.45834L22.828125 182.4271L23.84375 182.4271L23.84375 186.45834L27.75 186.45834L27.75 187.59897ZM27.75 177.1146L27.75 178.16147L21.03125 178.16147Q21.390625 178.5521 21.765625 179.1771Q22.125 179.78647 22.296875 180.27084L21.28125 180.27084Q20.859375 179.39584 20.28125 178.7396Q19.6875 178.06772 19.125 177.78647L19.125 177.1146L27.75 177.1146ZM30.28125 168.77084Q29.171875 169.64584 27.703125 170.25522Q26.21875 170.84897 24.640625 170.84897Q23.25 170.84897 21.96875 170.41147Q20.484375 169.88022 19.015625 168.77084L19.015625 168.02084Q20.234375 168.72397 20.75 168.95834Q21.5625 169.31772 22.4375 169.52084Q23.53125 169.77084 24.640625 169.77084Q27.46875 169.77084 30.28125 168.02084L30.28125 168.77084ZM27.75 166.6146L19.15625 166.6146L19.15625 165.4896L22.6875 165.4896L22.6875 161.02084L19.15625 161.02084L19.15625 159.88022L27.75 159.88022L27.75 161.02084L23.703125 161.02084L23.703125 165.4896L27.75 165.4896L27.75 166.6146ZM27.75 158.34897L26.890625 158.34897L22.34375 154.38022Q22.375 155.06772 22.375 155.58334L22.375 158.1146L21.53125 158.1146L21.53125 153.02084L22.21875 153.02084L26.171875 156.39584L26.890625 157.0521Q26.84375 156.33334 26.84375 155.72397L26.84375 152.83334L27.75 152.83334L27.75 158.34897ZM30.28125 152.09897L30.28125 152.84897Q27.46875 151.09897 24.640625 151.09897Q23.546875 151.09897 22.453125 151.34897Q21.578125 151.5521 20.765625 151.91147Q20.25 152.14584 19.015625 152.84897L19.015625 152.09897Q20.484375 151.00522 21.96875 150.47397Q23.25 150.02084 24.640625 150.02084Q26.21875 150.02084 27.703125 150.63022Q29.171875 151.2396 30.28125 152.09897Z" fill-rule="nonzero"/><path fill="#000000" d="M53.21875 270.25L52.171875 270.25L52.171875 263.53125Q51.78125 263.89062 51.15625 264.26562Q50.546875 264.625 50.0625 264.79688L50.0625 263.78125Q50.9375 263.35938 51.59375 262.78125Q52.265625 262.1875 52.546875 261.625L53.21875 261.625L53.21875 270.25ZM56.8125 270.25L56.8125 269.04688L58.015625 269.04688L58.015625 270.25Q58.015625 270.90625 57.78125 271.3125Q57.546875 271.73438 57.046875 271.95312L56.75 271.5Q57.078125 271.35938 57.234375 271.0625Q57.390625 270.78125 57.421875 270.25L56.8125 270.25ZM59.25 266.01562Q59.25 264.48438 59.5625 263.5625Q59.875 262.625 60.484375 262.125Q61.109375 261.625 62.046875 261.625Q62.734375 261.625 63.25 261.90625Q63.78125 262.1875 64.125 262.71875Q64.46875 263.23438 64.65625 263.98438Q64.84375 264.73438 64.84375 266.01562Q64.84375 267.53125 64.53125 268.45312Q64.234375 269.375 63.609375 269.89062Q63.0 270.39062 62.046875 270.39062Q60.8125 270.39062 60.09375 269.5Q59.25 268.4375 59.25 266.01562ZM60.328125 266.01562Q60.328125 268.125 60.828125 268.82812Q61.328125 269.53125 62.046875 269.53125Q62.78125 269.53125 63.265625 268.82812Q63.765625 268.125 63.765625 266.01562Q63.765625 263.89062 63.265625 263.20312Q62.78125 262.5 62.03125 262.5Q61.3125 262.5 60.875 263.10938Q60.328125 263.89062 60.328125 266.01562ZM66.25 266.01562Q66.25 264.48438 66.5625 263.5625Q66.875 262.625 67.484375 262.125Q68.109375 261.625 69.046875 261.625Q69.734375 261.625 70.25 261.90625Q70.78125 262.1875 71.125 262.71875Q71.46875 263.23438 71.65625 263.98438Q71.84375 264.73438 71.84375 266.01562Q71.84375 267.53125 71.53125 268.45312Q71.234375 269.375 70.609375 269.89062Q70.0 270.39062 69.046875 270.39062Q67.8125 270.39062 67.09375 269.5Q66.25 268.4375 66.25 266.01562ZM67.328125 266.01562Q67.328125 268.125 67.828125 268.82812Q68.328125 269.53125 69.046875 269.53125Q69.78125 269.53125 70.265625 268.82812Q70.765625 268.125 70.765625 266.01562Q70.765625 263.89062 70.265625 263.20312Q69.78125 262.5 69.03125 262.5Q68.3125 262.5 67.875 263.10938Q67.328125 263.89062 67.328125 266.01562ZM73.25 266.01562Q73.25 264.48438 73.5625 263.5625Q73.875 262.625 74.484375 262.125Q75.109375 261.625 76.046875 261.625Q76.734375 261.625 77.25 261.90625Q77.78125 262.1875 78.125 262.71875Q78.46875 263.23438 78.65625 263.98438Q78.84375 264.73438 78.84375 266.01562Q78.84375 267.53125 78.53125 268.45312Q78.234375 269.375 77.609375 269.89062Q77.0 270.39062 76.046875 270.39062Q74.8125 270.39062 74.09375 269.5Q73.25 268.4375 73.25 266.01562ZM74.328125 266.01562Q74.328125 268.125 74.828125 268.82812Q75.328125 269.53125 76.046875 269.53125Q76.78125 269.53125 77.265625 268.82812Q77.765625 268.125 77.765625 266.01562Q77.765625 263.89062 77.265625 263.20312Q76.78125 262.5 76.03125 262.5Q75.3125 262.5 74.875 263.10938Q74.328125 263.89062 74.328125 266.01562Z" fill-rule="nonzero"/><path fill="#000000" d="M60.875 213.76042Q60.21875 213.51042 59.890625 213.07292Q59.578125 212.6198 59.578125 212.01042Q59.578125 211.07292 60.25 210.4323Q60.9375 209.79167 62.046875 209.79167Q63.171875 209.79167 63.859375 210.44792Q64.546875 211.10417 64.546875 212.04167Q64.546875 212.63542 64.234375 213.07292Q63.921875 213.51042 63.28125 213.76042Q64.078125 214.01042 64.484375 214.58855Q64.890625 215.16667 64.890625 215.96355Q64.890625 217.0573 64.109375 217.8073Q63.34375 218.5573 62.0625 218.5573Q60.796875 218.5573 60.015625 217.8073Q59.234375 217.0573 59.234375 215.9323Q59.234375 215.08855 59.65625 214.52605Q60.09375 213.96355 60.875 213.76042ZM60.65625 211.96355Q60.65625 212.57292 61.046875 212.96355Q61.453125 213.35417 62.078125 213.35417Q62.6875 213.35417 63.078125 212.97917Q63.46875 212.58855 63.46875 212.02605Q63.46875 211.44792 63.0625 211.0573Q62.65625 210.65105 62.0625 210.65105Q61.453125 210.65105 61.046875 211.04167Q60.65625 211.4323 60.65625 211.96355ZM60.328125 215.9323Q60.328125 216.38542 60.53125 216.8073Q60.75 217.22917 61.171875 217.46355Q61.59375 217.69792 62.078125 217.69792Q62.828125 217.69792 63.3125 217.21355Q63.8125 216.72917 63.8125 215.97917Q63.8125 215.21355 63.3125 214.71355Q62.8125 214.21355 62.046875 214.21355Q61.296875 214.21355 60.8125 214.71355Q60.328125 215.19792 60.328125 215.9323ZM66.25 214.1823Q66.25 212.65105 66.5625 211.72917Q66.875 210.79167 67.484375 210.29167Q68.109375 209.79167 69.046875 209.79167Q69.734375 209.79167 70.25 210.07292Q70.78125 210.35417 71.125 210.88542Q71.46875 211.40105 71.65625 212.15105Q71.84375 212.90105 71.84375 214.1823Q71.84375 215.69792 71.53125 216.6198Q71.234375 217.54167 70.609375 218.0573Q70.0 218.5573 69.046875 218.5573Q67.8125 218.5573 67.09375 217.66667Q66.25 216.60417 66.25 214.1823ZM67.328125 214.1823Q67.328125 216.29167 67.828125 216.9948Q68.328125 217.69792 69.046875 217.69792Q69.78125 217.69792 70.265625 216.9948Q70.765625 216.29167 70.765625 214.1823Q70.765625 212.0573 70.265625 211.3698Q69.78125 210.66667 69.03125 210.66667Q68.3125 210.66667 67.875 211.27605Q67.328125 212.0573 67.328125 214.1823ZM73.25 214.1823Q73.25 212.65105 73.5625 211.72917Q73.875 210.79167 74.484375 210.29167Q75.109375 209.79167 76.046875 209.79167Q76.734375 209.79167 77.25 210.07292Q77.78125 210.35417 78.125 210.88542Q78.46875 211.40105 78.65625 212.15105Q78.84375 212.90105 78.84375 214.1823Q78.84375 215.69792 78.53125 216.6198Q78.234375 217.54167 77.609375 218.0573Q77.0 218.5573 76.046875 218.5573Q74.8125 218.5573 74.09375 217.66667Q73.25 216.60417 73.25 214.1823ZM74.328125 214.1823Q74.328125 216.29167 74.828125 216.9948Q75.328125 217.69792 76.046875 217.69792Q76.78125 217.69792 77.265625 216.9948Q77.765625 216.29167 77.765625 214.1823Q77.765625 212.0573 77.265625 211.3698Q76.78125 210.66667 76.03125 210.66667Q75.3125 210.66667 74.875 211.27605Q74.328125 212.0573 74.328125 214.1823Z" fill-rule="nonzero"/><path fill="#000000" d="M64.71875 160.09895L63.671875 160.17708Q63.53125 159.55208 63.28125 159.27083Q62.84375 158.8177 62.21875 158.8177Q61.71875 158.8177 61.328125 159.09895Q60.84375 159.47395 60.546875 160.17708Q60.265625 160.86458 60.25 162.14583Q60.625 161.5677 61.171875 161.28645Q61.734375 161.0052 62.34375 161.0052Q63.390625 161.0052 64.125 161.78645Q64.875 162.5677 64.875 163.78645Q64.875 164.59895 64.515625 165.30208Q64.171875 165.98958 63.5625 166.36458Q62.953125 166.72395 62.1875 166.72395Q60.859375 166.72395 60.03125 165.7552Q59.203125 164.78645 59.203125 162.5677Q59.203125 160.0677 60.125 158.9427Q60.921875 157.95833 62.28125 157.95833Q63.296875 157.95833 63.9375 158.53645Q64.59375 159.09895 64.71875 160.09895ZM60.421875 163.80208Q60.421875 164.34895 60.640625 164.84895Q60.875 165.33333 61.28125 165.59895Q61.703125 165.86458 62.171875 165.86458Q62.828125 165.86458 63.3125 165.33333Q63.796875 164.78645 63.796875 163.86458Q63.796875 162.97395 63.3125 162.45833Q62.84375 161.9427 62.125 161.9427Q61.40625 161.9427 60.90625 162.45833Q60.421875 162.97395 60.421875 163.80208ZM66.25 162.34895Q66.25 160.8177 66.5625 159.89583Q66.875 158.95833 67.484375 158.45833Q68.109375 157.95833 69.046875 157.95833Q69.734375 157.95833 70.25 158.23958Q70.78125 158.52083 71.125 159.05208Q71.46875 159.5677 71.65625 160.3177Q71.84375 161.0677 71.84375 162.34895Q71.84375 163.86458 71.53125 164.78645Q71.234375 165.70833 70.609375 166.22395Q70.0 166.72395 69.046875 166.72395Q67.8125 166.72395 67.09375 165.83333Q66.25 164.77083 66.25 162.34895ZM67.328125 162.34895Q67.328125 164.45833 67.828125 165.16145Q68.328125 165.86458 69.046875 165.86458Q69.78125 165.86458 70.265625 165.16145Q70.765625 164.45833 70.765625 162.34895Q70.765625 160.22395 70.265625 159.53645Q69.78125 158.83333 69.03125 158.83333Q68.3125 158.83333 67.875 159.4427Q67.328125 160.22395 67.328125 162.34895ZM73.25 162.34895Q73.25 160.8177 73.5625 159.89583Q73.875 158.95833 74.484375 158.45833Q75.109375 157.95833 76.046875 157.95833Q76.734375 157.95833 77.25 158.23958Q77.78125 158.52083 78.125 159.05208Q78.46875 159.5677 78.65625 160.3177Q78.84375 161.0677 78.84375 162.34895Q78.84375 163.86458 78.53125 164.78645Q78.234375 165.70833 77.609375 166.22395Q77.0 166.72395 76.046875 166.72395Q74.8125 166.72395 74.09375 165.83333Q73.25 164.77083 73.25 162.34895ZM74.328125 162.34895Q74.328125 164.45833 74.828125 165.16145Q75.328125 165.86458 76.046875 165.86458Q76.78125 165.86458 77.265625 165.16145Q77.765625 164.45833 77.765625 162.34895Q77.765625 160.22395 77.265625 159.53645Q76.78125 158.83333 76.03125 158.83333Q75.3125 158.83333 74.875 159.4427Q74.328125 160.22395 74.328125 162.34895Z" fill-rule="nonzero"/><path fill="#000000" d="M62.625 114.75L62.625 112.6875L58.90625 112.6875L58.90625 111.71875L62.828125 106.15625L63.6875 106.15625L63.6875 111.71875L64.84375 111.71875L64.84375 112.6875L63.6875 112.6875L63.6875 114.75L62.625 114.75ZM62.625 111.71875L62.625 107.859375L59.9375 111.71875L62.625 111.71875ZM66.25 110.515625Q66.25 108.984375 66.5625 108.0625Q66.875 107.125 67.484375 106.625Q68.109375 106.125 69.046875 106.125Q69.734375 106.125 70.25 106.40625Q70.78125 106.6875 71.125 107.21875Q71.46875 107.734375 71.65625 108.484375Q71.84375 109.234375 71.84375 110.515625Q71.84375 112.03125 71.53125 112.953125Q71.234375 113.875 70.609375 114.390625Q70.0 114.890625 69.046875 114.890625Q67.8125 114.890625 67.09375 114.0Q66.25 112.9375 66.25 110.515625ZM67.328125 110.515625Q67.328125 112.625 67.828125 113.328125Q68.328125 114.03125 69.046875 114.03125Q69.78125 114.03125 70.265625 113.328125Q70.765625 112.625 70.765625 110.515625Q70.765625 108.390625 70.265625 107.703125Q69.78125 107.0 69.03125 107.0Q68.3125 107.0 67.875 107.609375Q67.328125 108.390625 67.328125 110.515625ZM73.25 110.515625Q73.25 108.984375 73.5625 108.0625Q73.875 107.125 74.484375 106.625Q75.109375 106.125 76.046875 106.125Q76.734375 106.125 77.25 106.40625Q77.78125 106.6875 78.125 107.21875Q78.46875 107.734375 78.65625 108.484375Q78.84375 109.234375 78.84375 110.515625Q78.84375 112.03125 78.53125 112.953125Q78.234375 113.875 77.609375 114.390625Q77.0 114.890625 76.046875 114.890625Q74.8125 114.890625 74.09375 114.0Q73.25 112.9375 73.25 110.515625ZM74.328125 110.515625Q74.328125 112.625 74.828125 113.328125Q75.328125 114.03125 76.046875 114.03125Q76.78125 114.03125 77.265625 113.328125Q77.765625 112.625 77.765625 110.515625Q77.765625 108.390625 77.265625 107.703125Q76.78125 107.0 76.03125 107.0Q75.3125 107.0 74.875 107.609375Q74.328125 108.390625 74.328125 110.515625Z" fill-rule="nonzero"/><path fill="#000000" d="M64.796875 61.901043L64.796875 62.916668L59.109375 62.916668Q59.109375 62.541668 59.234375 62.182293Q59.453125 61.604168 59.921875 61.041668Q60.40625 60.479168 61.3125 59.744793Q62.71875 58.588543 63.203125 57.916668Q63.703125 57.244793 63.703125 56.651043Q63.703125 56.026043 63.25 55.604168Q62.796875 55.166668 62.078125 55.166668Q61.3125 55.166668 60.859375 55.619793Q60.40625 56.072918 60.390625 56.885418L59.3125 56.776043Q59.421875 55.557293 60.140625 54.932293Q60.875 54.291668 62.109375 54.291668Q63.34375 54.291668 64.0625 54.979168Q64.78125 55.666668 64.78125 56.682293Q64.78125 57.197918 64.5625 57.697918Q64.359375 58.182293 63.859375 58.744793Q63.375 59.291668 62.25 60.244793Q61.296875 61.041668 61.015625 61.338543Q60.75 61.619793 60.578125 61.901043L64.796875 61.901043ZM66.25 58.682293Q66.25 57.151043 66.5625 56.229168Q66.875 55.291668 67.484375 54.791668Q68.109375 54.291668 69.046875 54.291668Q69.734375 54.291668 70.25 54.572918Q70.78125 54.854168 71.125 55.385418Q71.46875 55.901043 71.65625 56.651043Q71.84375 57.401043 71.84375 58.682293Q71.84375 60.197918 71.53125 61.119793Q71.234375 62.041668 70.609375 62.557293Q70.0 63.057293 69.046875 63.057293Q67.8125 63.057293 67.09375 62.166668Q66.25 61.104168 66.25 58.682293ZM67.328125 58.682293Q67.328125 60.791668 67.828125 61.494793Q68.328125 62.197918 69.046875 62.197918Q69.78125 62.197918 70.265625 61.494793Q70.765625 60.791668 70.765625 58.682293Q70.765625 56.557293 70.265625 55.869793Q69.78125 55.166668 69.03125 55.166668Q68.3125 55.166668 67.875 55.776043Q67.328125 56.557293 67.328125 58.682293ZM73.25 58.682293Q73.25 57.151043 73.5625 56.229168Q73.875 55.291668 74.484375 54.791668Q75.109375 54.291668 76.046875 54.291668Q76.734375 54.291668 77.25 54.572918Q77.78125 54.854168 78.125 55.385418Q78.46875 55.901043 78.65625 56.651043Q78.84375 57.401043 78.84375 58.682293Q78.84375 60.197918 78.53125 61.119793Q78.234375 62.041668 77.609375 62.557293Q77.0 63.057293 76.046875 63.057293Q74.8125 63.057293 74.09375 62.166668Q73.25 61.104168 73.25 58.682293ZM74.328125 58.682293Q74.328125 60.791668 74.828125 61.494793Q75.328125 62.197918 76.046875 62.197918Q76.78125 62.197918 77.265625 61.494793Q77.765625 60.791668 77.765625 58.682293Q77.765625 56.557293 77.265625 55.869793Q76.78125 55.166668 76.03125 55.166668Q75.3125 55.166668 74.875 55.776043Q74.328125 56.557293 74.328125 58.682293Z" fill-rule="nonzero"/><path fill="#000000" d="M520.875 278.59375Q520.21875 278.34375 519.8906 277.90625Q519.5781 277.45312 519.5781 276.84375Q519.5781 275.90625 520.25 275.26562Q520.9375 274.625 522.0469 274.625Q523.1719 274.625 523.8594 275.28125Q524.5469 275.9375 524.5469 276.875Q524.5469 277.46875 524.2344 277.90625Q523.9219 278.34375 523.28125 278.59375Q524.0781 278.84375 524.4844 279.42188Q524.8906 280.0 524.8906 280.79688Q524.8906 281.89062 524.1094 282.64062Q523.34375 283.39062 522.0625 283.39062Q520.7969 283.39062 520.0156 282.64062Q519.2344 281.89062 519.2344 280.76562Q519.2344 279.92188 519.65625 279.35938Q520.09375 278.79688 520.875 278.59375ZM520.65625 276.79688Q520.65625 277.40625 521.0469 277.79688Q521.4531 278.1875 522.0781 278.1875Q522.6875 278.1875 523.0781 277.8125Q523.46875 277.42188 523.46875 276.85938Q523.46875 276.28125 523.0625 275.89062Q522.65625 275.48438 522.0625 275.48438Q521.4531 275.48438 521.0469 275.875Q520.65625 276.26562 520.65625 276.79688ZM520.3281 280.76562Q520.3281 281.21875 520.53125 281.64062Q520.75 282.0625 521.1719 282.29688Q521.59375 282.53125 522.0781 282.53125Q522.8281 282.53125 523.3125 282.04688Q523.8125 281.5625 523.8125 280.8125Q523.8125 280.04688 523.3125 279.54688Q522.8125 279.04688 522.0469 279.04688Q521.2969 279.04688 520.8125 279.54688Q520.3281 280.03125 520.3281 280.76562ZM526.25 279.01562Q526.25 277.48438 526.5625 276.5625Q526.875 275.625 527.4844 275.125Q528.1094 274.625 529.0469 274.625Q529.7344 274.625 530.25 274.90625Q530.78125 275.1875 531.125 275.71875Q531.46875 276.23438 531.65625 276.98438Q531.84375 277.73438 531.84375 279.01562Q531.84375 280.53125 531.53125 281.45312Q531.2344 282.375 530.6094 282.89062Q530.0 283.39062 529.0469 283.39062Q527.8125 283.39062 527.09375 282.5Q526.25 281.4375 526.25 279.01562ZM527.3281 279.01562Q527.3281 281.125 527.8281 281.82812Q528.3281 282.53125 529.0469 282.53125Q529.78125 282.53125 530.2656 281.82812Q530.7656 281.125 530.7656 279.01562Q530.7656 276.89062 530.2656 276.20312Q529.78125 275.5 529.03125 275.5Q528.3125 275.5 527.875 276.10938Q527.3281 276.89062 527.3281 279.01562ZM533.25 279.01562Q533.25 277.48438 533.5625 276.5625Q533.875 275.625 534.4844 275.125Q535.1094 274.625 536.0469 274.625Q536.7344 274.625 537.25 274.90625Q537.78125 275.1875 538.125 275.71875Q538.46875 276.23438 538.65625 276.98438Q538.84375 277.73438 538.84375 279.01562Q538.84375 280.53125 538.53125 281.45312Q538.2344 282.375 537.6094 282.89062Q537.0 283.39062 536.0469 283.39062Q534.8125 283.39062 534.09375 282.5Q533.25 281.4375 533.25 279.01562ZM534.3281 279.01562Q534.3281 281.125 534.8281 281.82812Q535.3281 282.53125 536.0469 282.53125Q536.78125 282.53125 537.2656 281.82812Q537.7656 281.125 537.7656 279.01562Q537.7656 276.89062 537.2656 276.20312Q536.78125 275.5 536.03125 275.5Q535.3125 275.5 534.875 276.10938Q534.3281 276.89062 534.3281 279.01562Z" fill-rule="nonzero"/><path fill="#000000" d="M445.8021 283.25L444.75522 283.25L444.75522 276.53125Q444.3646 276.89062 443.7396 277.26562Q443.13022 277.625 442.64584 277.79688L442.64584 276.78125Q443.52084 276.35938 444.1771 275.78125Q444.84897 275.1875 445.13022 274.625L445.8021 274.625L445.8021 283.25ZM448.83334 279.01562Q448.83334 277.48438 449.14584 276.5625Q449.45834 275.625 450.06772 275.125Q450.69272 274.625 451.63022 274.625Q452.31772 274.625 452.83334 274.90625Q453.3646 275.1875 453.70834 275.71875Q454.0521 276.23438 454.2396 276.98438Q454.4271 277.73438 454.4271 279.01562Q454.4271 280.53125 454.1146 281.45312Q453.81772 282.375 453.19272 282.89062Q452.58334 283.39062 451.63022 283.39062Q450.39584 283.39062 449.6771 282.5Q448.83334 281.4375 448.83334 279.01562ZM449.91147 279.01562Q449.91147 281.125 450.41147 281.82812Q450.91147 282.53125 451.63022 282.53125Q452.3646 282.53125 452.84897 281.82812Q453.34897 281.125 453.34897 279.01562Q453.34897 276.89062 452.84897 276.20312Q452.3646 275.5 451.6146 275.5Q450.89584 275.5 450.45834 276.10938Q449.91147 276.89062 449.91147 279.01562ZM455.83334 279.01562Q455.83334 277.48438 456.14584 276.5625Q456.45834 275.625 457.06772 275.125Q457.69272 274.625 458.63022 274.625Q459.31772 274.625 459.83334 274.90625Q460.3646 275.1875 460.70834 275.71875Q461.0521 276.23438 461.2396 276.98438Q461.4271 277.73438 461.4271 279.01562Q461.4271 280.53125 461.1146 281.45312Q460.81772 282.375 460.19272 282.89062Q459.58334 283.39062 458.63022 283.39062Q457.39584 283.39062 456.6771 282.5Q455.83334 281.4375 455.83334 279.01562ZM456.91147 279.01562Q456.91147 281.125 457.41147 281.82812Q457.91147 282.53125 458.63022 282.53125Q459.3646 282.53125 459.84897 281.82812Q460.34897 281.125 460.34897 279.01562Q460.34897 276.89062 459.84897 276.20312Q459.3646 275.5 458.6146 275.5Q457.89584 275.5 457.45834 276.10938Q456.91147 276.89062 456.91147 279.01562ZM462.83334 279.01562Q462.83334 277.48438 463.14584 276.5625Q463.45834 275.625 464.06772 275.125Q464.69272 274.625 465.63022 274.625Q466.31772 274.625 466.83334 274.90625Q467.3646 275.1875 467.70834 275.71875Q468.0521 276.23438 468.2396 276.98438Q468.4271 277.73438 468.4271 279.01562Q468.4271 280.53125 468.1146 281.45312Q467.81772 282.375 467.19272 282.89062Q466.58334 283.39062 465.63022 283.39062Q464.39584 283.39062 463.6771 282.5Q462.83334 281.4375 462.83334 279.01562ZM463.91147 279.01562Q463.91147 281.125 464.41147 281.82812Q464.91147 282.53125 465.63022 282.53125Q466.3646 282.53125 466.84897 281.82812Q467.34897 281.125 467.34897 279.01562Q467.34897 276.89062 466.84897 276.20312Q466.3646 275.5 465.6146 275.5Q464.89584 275.5 464.45834 276.10938Q463.91147 276.89062 463.91147 279.01562Z" fill-rule="nonzero"/><path fill="#000000" d="M371.8854 283.25L370.83853 283.25L370.83853 276.53125Q370.4479 276.89062 369.8229 277.26562Q369.21353 277.625 368.72916 277.79688L368.72916 276.78125Q369.60416 276.35938 370.2604 275.78125Q370.93228 275.1875 371.21353 274.625L371.8854 274.625L371.8854 283.25ZM380.46353 282.23438L380.46353 283.25L374.77603 283.25Q374.77603 282.875 374.90103 282.51562Q375.11978 281.9375 375.58853 281.375Q376.0729 280.8125 376.97916 280.07812Q378.3854 278.92188 378.86978 278.25Q379.36978 277.57812 379.36978 276.98438Q379.36978 276.35938 378.91666 275.9375Q378.46353 275.5 377.74478 275.5Q376.97916 275.5 376.52603 275.95312Q376.0729 276.40625 376.05728 277.21875L374.97916 277.10938Q375.08853 275.89062 375.80728 275.26562Q376.54166 274.625 377.77603 274.625Q379.0104 274.625 379.72916 275.3125Q380.4479 276.0 380.4479 277.01562Q380.4479 277.53125 380.22916 278.03125Q380.02603 278.51562 379.52603 279.07812Q379.04166 279.625 377.91666 280.57812Q376.96353 281.375 376.68228 281.67188Q376.41666 281.95312 376.24478 282.23438L380.46353 282.23438ZM381.91666 279.01562Q381.91666 277.48438 382.22916 276.5625Q382.54166 275.625 383.15103 275.125Q383.77603 274.625 384.71353 274.625Q385.40103 274.625 385.91666 274.90625Q386.4479 275.1875 386.79166 275.71875Q387.1354 276.23438 387.3229 276.98438Q387.5104 277.73438 387.5104 279.01562Q387.5104 280.53125 387.1979 281.45312Q386.90103 282.375 386.27603 282.89062Q385.66666 283.39062 384.71353 283.39062Q383.47916 283.39062 382.7604 282.5Q381.91666 281.4375 381.91666 279.01562ZM382.99478 279.01562Q382.99478 281.125 383.49478 281.82812Q383.99478 282.53125 384.71353 282.53125Q385.4479 282.53125 385.93228 281.82812Q386.43228 281.125 386.43228 279.01562Q386.43228 276.89062 385.93228 276.20312Q385.4479 275.5 384.6979 275.5Q383.97916 275.5 383.54166 276.10938Q382.99478 276.89062 382.99478 279.01562ZM388.91666 279.01562Q388.91666 277.48438 389.22916 276.5625Q389.54166 275.625 390.15103 275.125Q390.77603 274.625 391.71353 274.625Q392.40103 274.625 392.91666 274.90625Q393.4479 275.1875 393.79166 275.71875Q394.1354 276.23438 394.3229 276.98438Q394.5104 277.73438 394.5104 279.01562Q394.5104 280.53125 394.1979 281.45312Q393.90103 282.375 393.27603 282.89062Q392.66666 283.39062 391.71353 283.39062Q390.47916 283.39062 389.7604 282.5Q388.91666 281.4375 388.91666 279.01562ZM389.99478 279.01562Q389.99478 281.125 390.49478 281.82812Q390.99478 282.53125 391.71353 282.53125Q392.4479 282.53125 392.93228 281.82812Q393.43228 281.125 393.43228 279.01562Q393.43228 276.89062 392.93228 276.20312Q392.4479 275.5 391.6979 275.5Q390.97916 275.5 390.54166 276.10938Q389.99478 276.89062 389.99478 279.01562Z" fill-rule="nonzero"/><path fill="#000000" d="M297.96875 283.25L296.92188 283.25L296.92188 276.53125Q296.53125 276.89062 295.90625 277.26562Q295.29688 277.625 294.8125 277.79688L294.8125 276.78125Q295.6875 276.35938 296.34375 275.78125Q297.01562 275.1875 297.29688 274.625L297.96875 274.625L297.96875 283.25ZM304.375 283.25L304.375 281.1875L300.65625 281.1875L300.65625 280.21875L304.57812 274.65625L305.4375 274.65625L305.4375 280.21875L306.59375 280.21875L306.59375 281.1875L305.4375 281.1875L305.4375 283.25L304.375 283.25ZM304.375 280.21875L304.375 276.35938L301.6875 280.21875L304.375 280.21875ZM308.0 279.01562Q308.0 277.48438 308.3125 276.5625Q308.625 275.625 309.23438 275.125Q309.85938 274.625 310.79688 274.625Q311.48438 274.625 312.0 274.90625Q312.53125 275.1875 312.875 275.71875Q313.21875 276.23438 313.40625 276.98438Q313.59375 277.73438 313.59375 279.01562Q313.59375 280.53125 313.28125 281.45312Q312.98438 282.375 312.35938 282.89062Q311.75 283.39062 310.79688 283.39062Q309.5625 283.39062 308.84375 282.5Q308.0 281.4375 308.0 279.01562ZM309.07812 279.01562Q309.07812 281.125 309.57812 281.82812Q310.07812 282.53125 310.79688 282.53125Q311.53125 282.53125 312.01562 281.82812Q312.51562 281.125 312.51562 279.01562Q312.51562 276.89062 312.01562 276.20312Q311.53125 275.5 310.78125 275.5Q310.0625 275.5 309.625 276.10938Q309.07812 276.89062 309.07812 279.01562ZM315.0 279.01562Q315.0 277.48438 315.3125 276.5625Q315.625 275.625 316.23438 275.125Q316.85938 274.625 317.79688 274.625Q318.48438 274.625 319.0 274.90625Q319.53125 275.1875 319.875 275.71875Q320.21875 276.23438 320.40625 276.98438Q320.59375 277.73438 320.59375 279.01562Q320.59375 280.53125 320.28125 281.45312Q319.98438 282.375 319.35938 282.89062Q318.75 283.39062 317.79688 283.39062Q316.5625 283.39062 315.84375 282.5Q315.0 281.4375 315.0 279.01562ZM316.07812 279.01562Q316.07812 281.125 316.57812 281.82812Q317.07812 282.53125 317.79688 282.53125Q318.53125 282.53125 319.01562 281.82812Q319.51562 281.125 319.51562 279.01562Q319.51562 276.89062 319.01562 276.20312Q318.53125 275.5 317.78125 275.5Q317.0625 275.5 316.625 276.10938Q316.07812 276.89062 316.07812 279.01562Z" fill-rule="nonzero"/><path fill="#000000" d="M224.05208 283.25L223.0052 283.25L223.0052 276.53125Q222.61458 276.89062 221.98958 277.26562Q221.3802 277.625 220.89583 277.79688L220.89583 276.78125Q221.77083 276.35938 222.42708 275.78125Q223.09895 275.1875 223.3802 274.625L224.05208 274.625L224.05208 283.25ZM232.55208 276.76562L231.5052 276.84375Q231.36458 276.21875 231.11458 275.9375Q230.67708 275.48438 230.05208 275.48438Q229.55208 275.48438 229.16145 275.76562Q228.67708 276.14062 228.3802 276.84375Q228.09895 277.53125 228.08333 278.8125Q228.45833 278.23438 229.0052 277.95312Q229.5677 277.67188 230.17708 277.67188Q231.22395 277.67188 231.95833 278.45312Q232.70833 279.23438 232.70833 280.45312Q232.70833 281.26562 232.34895 281.96875Q232.0052 282.65625 231.39583 283.03125Q230.78645 283.39062 230.02083 283.39062Q228.6927 283.39062 227.86458 282.42188Q227.03645 281.45312 227.03645 279.23438Q227.03645 276.73438 227.95833 275.60938Q228.7552 274.625 230.11458 274.625Q231.1302 274.625 231.77083 275.20312Q232.42708 275.76562 232.55208 276.76562ZM228.2552 280.46875Q228.2552 281.01562 228.47395 281.51562Q228.70833 282.0 229.11458 282.26562Q229.53645 282.53125 230.0052 282.53125Q230.66145 282.53125 231.14583 282.0Q231.6302 281.45312 231.6302 280.53125Q231.6302 279.64062 231.14583 279.125Q230.67708 278.60938 229.95833 278.60938Q229.23958 278.60938 228.73958 279.125Q228.2552 279.64062 228.2552 280.46875ZM234.08333 279.01562Q234.08333 277.48438 234.39583 276.5625Q234.70833 275.625 235.3177 275.125Q235.9427 274.625 236.8802 274.625Q237.5677 274.625 238.08333 274.90625Q238.61458 275.1875 238.95833 275.71875Q239.30208 276.23438 239.48958 276.98438Q239.67708 277.73438 239.67708 279.01562Q239.67708 280.53125 239.36458 281.45312Q239.0677 282.375 238.4427 282.89062Q237.83333 283.39062 236.8802 283.39062Q235.64583 283.39062 234.92708 282.5Q234.08333 281.4375 234.08333 279.01562ZM235.16145 279.01562Q235.16145 281.125 235.66145 281.82812Q236.16145 282.53125 236.8802 282.53125Q237.61458 282.53125 238.09895 281.82812Q238.59895 281.125 238.59895 279.01562Q238.59895 276.89062 238.09895 276.20312Q237.61458 275.5 236.86458 275.5Q236.14583 275.5 235.70833 276.10938Q235.16145 276.89062 235.16145 279.01562ZM241.08333 279.01562Q241.08333 277.48438 241.39583 276.5625Q241.70833 275.625 242.3177 275.125Q242.9427 274.625 243.8802 274.625Q244.5677 274.625 245.08333 274.90625Q245.61458 275.1875 245.95833 275.71875Q246.30208 276.23438 246.48958 276.98438Q246.67708 277.73438 246.67708 279.01562Q246.67708 280.53125 246.36458 281.45312Q246.0677 282.375 245.4427 282.89062Q244.83333 283.39062 243.8802 283.39062Q242.64583 283.39062 241.92708 282.5Q241.08333 281.4375 241.08333 279.01562ZM242.16145 279.01562Q242.16145 281.125 242.66145 281.82812Q243.16145 282.53125 243.8802 282.53125Q244.61458 282.53125 245.09895 281.82812Q245.59895 281.125 245.59895 279.01562Q245.59895 276.89062 245.09895 276.20312Q244.61458 275.5 243.86458 275.5Q243.14583 275.5 242.70833 276.10938Q242.16145 276.89062 242.16145 279.01562Z" fill-rule="nonzero"/><path fill="#000000" d="M150.13542 283.25L149.08855 283.25L149.08855 276.53125Q148.69792 276.89062 148.07292 277.26562Q147.46355 277.625 146.97917 277.79688L146.97917 276.78125Q147.85417 276.35938 148.51042 275.78125Q149.1823 275.1875 149.46355 274.625L150.13542 274.625L150.13542 283.25ZM154.79167 278.59375Q154.13542 278.34375 153.8073 277.90625Q153.4948 277.45312 153.4948 276.84375Q153.4948 275.90625 154.16667 275.26562Q154.85417 274.625 155.96355 274.625Q157.08855 274.625 157.77605 275.28125Q158.46355 275.9375 158.46355 276.875Q158.46355 277.46875 158.15105 277.90625Q157.83855 278.34375 157.19792 278.59375Q157.9948 278.84375 158.40105 279.42188Q158.8073 280.0 158.8073 280.79688Q158.8073 281.89062 158.02605 282.64062Q157.26042 283.39062 155.97917 283.39062Q154.71355 283.39062 153.9323 282.64062Q153.15105 281.89062 153.15105 280.76562Q153.15105 279.92188 153.57292 279.35938Q154.01042 278.79688 154.79167 278.59375ZM154.57292 276.79688Q154.57292 277.40625 154.96355 277.79688Q155.3698 278.1875 155.9948 278.1875Q156.60417 278.1875 156.9948 277.8125Q157.38542 277.42188 157.38542 276.85938Q157.38542 276.28125 156.97917 275.89062Q156.57292 275.48438 155.97917 275.48438Q155.3698 275.48438 154.96355 275.875Q154.57292 276.26562 154.57292 276.79688ZM154.2448 280.76562Q154.2448 281.21875 154.44792 281.64062Q154.66667 282.0625 155.08855 282.29688Q155.51042 282.53125 155.9948 282.53125Q156.7448 282.53125 157.22917 282.04688Q157.72917 281.5625 157.72917 280.8125Q157.72917 280.04688 157.22917 279.54688Q156.72917 279.04688 155.96355 279.04688Q155.21355 279.04688 154.72917 279.54688Q154.2448 280.03125 154.2448 280.76562ZM160.16667 279.01562Q160.16667 277.48438 160.47917 276.5625Q160.79167 275.625 161.40105 275.125Q162.02605 274.625 162.96355 274.625Q163.65105 274.625 164.16667 274.90625Q164.69792 275.1875 165.04167 275.71875Q165.38542 276.23438 165.57292 276.98438Q165.76042 277.73438 165.76042 279.01562Q165.76042 280.53125 165.44792 281.45312Q165.15105 282.375 164.52605 282.89062Q163.91667 283.39062 162.96355 283.39062Q161.72917 283.39062 161.01042 282.5Q160.16667 281.4375 160.16667 279.01562ZM161.2448 279.01562Q161.2448 281.125 161.7448 281.82812Q162.2448 282.53125 162.96355 282.53125Q163.69792 282.53125 164.1823 281.82812Q164.6823 281.125 164.6823 279.01562Q164.6823 276.89062 164.1823 276.20312Q163.69792 275.5 162.94792 275.5Q162.22917 275.5 161.79167 276.10938Q161.2448 276.89062 161.2448 279.01562ZM167.16667 279.01562Q167.16667 277.48438 167.47917 276.5625Q167.79167 275.625 168.40105 275.125Q169.02605 274.625 169.96355 274.625Q170.65105 274.625 171.16667 274.90625Q171.69792 275.1875 172.04167 275.71875Q172.38542 276.23438 172.57292 276.98438Q172.76042 277.73438 172.76042 279.01562Q172.76042 280.53125 172.44792 281.45312Q172.15105 282.375 171.52605 282.89062Q170.91667 283.39062 169.96355 283.39062Q168.72917 283.39062 168.01042 282.5Q167.16667 281.4375 167.16667 279.01562ZM168.2448 279.01562Q168.2448 281.125 168.7448 281.82812Q169.2448 282.53125 169.96355 282.53125Q170.69792 282.53125 171.1823 281.82812Q171.6823 281.125 171.6823 279.01562Q171.6823 276.89062 171.1823 276.20312Q170.69792 275.5 169.94792 275.5Q169.22917 275.5 168.79167 276.10938Q168.2448 276.89062 168.2448 279.01562Z" fill-rule="nonzero"/><path fill="#000000" d="M77.796875 282.23438L77.796875 283.25L72.109375 283.25Q72.109375 282.875 72.234375 282.51562Q72.453125 281.9375 72.921875 281.375Q73.40625 280.8125 74.3125 280.07812Q75.71875 278.92188 76.203125 278.25Q76.703125 277.57812 76.703125 276.98438Q76.703125 276.35938 76.25 275.9375Q75.796875 275.5 75.078125 275.5Q74.3125 275.5 73.859375 275.95312Q73.40625 276.40625 73.390625 277.21875L72.3125 277.10938Q72.421875 275.89062 73.140625 275.26562Q73.875 274.625 75.109375 274.625Q76.34375 274.625 77.0625 275.3125Q77.78125 276.0 77.78125 277.01562Q77.78125 277.53125 77.5625 278.03125Q77.359375 278.51562 76.859375 279.07812Q76.375 279.625 75.25 280.57812Q74.296875 281.375 74.015625 281.67188Q73.75 281.95312 73.578125 282.23438L77.796875 282.23438ZM79.25 279.01562Q79.25 277.48438 79.5625 276.5625Q79.875 275.625 80.484375 275.125Q81.109375 274.625 82.046875 274.625Q82.734375 274.625 83.25 274.90625Q83.78125 275.1875 84.125 275.71875Q84.46875 276.23438 84.65625 276.98438Q84.84375 277.73438 84.84375 279.01562Q84.84375 280.53125 84.53125 281.45312Q84.234375 282.375 83.609375 282.89062Q83.0 283.39062 82.046875 283.39062Q80.8125 283.39062 80.09375 282.5Q79.25 281.4375 79.25 279.01562ZM80.328125 279.01562Q80.328125 281.125 80.828125 281.82812Q81.328125 282.53125 82.046875 282.53125Q82.78125 282.53125 83.265625 281.82812Q83.765625 281.125 83.765625 279.01562Q83.765625 276.89062 83.265625 276.20312Q82.78125 275.5 82.03125 275.5Q81.3125 275.5 80.875 276.10938Q80.328125 276.89062 80.328125 279.01562ZM86.25 279.01562Q86.25 277.48438 86.5625 276.5625Q86.875 275.625 87.484375 275.125Q88.109375 274.625 89.046875 274.625Q89.734375 274.625 90.25 274.90625Q90.78125 275.1875 91.125 275.71875Q91.46875 276.23438 91.65625 276.98438Q91.84375 277.73438 91.84375 279.01562Q91.84375 280.53125 91.53125 281.45312Q91.234375 282.375 90.609375 282.89062Q90.0 283.39062 89.046875 283.39062Q87.8125 283.39062 87.09375 282.5Q86.25 281.4375 86.25 279.01562ZM87.328125 279.01562Q87.328125 281.125 87.828125 281.82812Q88.328125 282.53125 89.046875 282.53125Q89.78125 282.53125 90.265625 281.82812Q90.765625 281.125 90.765625 279.01562Q90.765625 276.89062 90.265625 276.20312Q89.78125 275.5 89.03125 275.5Q88.3125 275.5 87.875 276.10938Q87.328125 276.89062 87.328125 279.01562ZM93.25 279.01562Q93.25 277.48438 93.5625 276.5625Q93.875 275.625 94.484375 275.125Q95.109375 274.625 96.046875 274.625Q96.734375 274.625 97.25 274.90625Q97.78125 275.1875 98.125 275.71875Q98.46875 276.23438 98.65625 276.98438Q98.84375 277.73438 98.84375 279.01562Q98.84375 280.53125 98.53125 281.45312Q98.234375 282.375 97.609375 282.89062Q97.0 283.39062 96.046875 283.39062Q94.8125 283.39062 94.09375 282.5Q93.25 281.4375 93.25 279.01562ZM94.328125 279.01562Q94.328125 281.125 94.828125 281.82812Q95.328125 282.53125 96.046875 282.53125Q96.78125 282.53125 97.265625 281.82812Q97.765625 281.125 97.765625 279.01562Q97.765625 276.89062 97.265625 276.20312Q96.78125 275.5 96.03125 275.5Q95.3125 275.5 94.875 276.10938Q94.328125 276.89062 94.328125 279.01562Z" fill-rule="nonzero"/><path fill="#757575" d="M18.234375 35.75L18.234375 21.4375L21.09375 21.4375L24.46875 31.5625Q24.9375 32.984375 25.15625 33.6875Q25.40625 32.90625 25.921875 31.390625L29.34375 21.4375L31.890625 21.4375L31.890625 35.75L30.078125 35.75L30.078125 23.765625L25.90625 35.75L24.203125 35.75L20.0625 23.5625L20.0625 35.75L18.234375 35.75ZM42.171875 32.40625L43.984375 32.640625Q43.5625 34.21875 42.390625 35.109375Q41.234375 35.984375 39.421875 35.984375Q37.15625 35.984375 35.8125 34.59375Q34.484375 33.1875 34.484375 30.65625Q34.484375 28.03125 35.828125 26.59375Q37.171875 25.140625 39.328125 25.140625Q41.40625 25.140625 42.71875 26.5625Q44.046875 27.96875 44.046875 30.546875Q44.046875 30.703125 44.03125 31.015625L36.296875 31.015625Q36.390625 32.71875 37.265625 33.625Q38.140625 34.53125 39.4375 34.53125Q40.40625 34.53125 41.078125 34.03125Q41.765625 33.515625 42.171875 32.40625ZM36.390625 29.5625L42.1875 29.5625Q42.078125 28.265625 41.53125 27.609375Q40.6875 26.59375 39.34375 26.59375Q38.140625 26.59375 37.3125 27.40625Q36.484375 28.203125 36.390625 29.5625ZM52.84375 34.46875Q51.859375 35.296875 50.953125 35.640625Q50.046875 35.984375 49.015625 35.984375Q47.3125 35.984375 46.390625 35.15625Q45.46875 34.3125 45.46875 33.015625Q45.46875 32.25 45.8125 31.625Q46.171875 31.0 46.734375 30.625Q47.296875 30.234375 48.0 30.03125Q48.515625 29.90625 49.5625 29.765625Q51.6875 29.515625 52.6875 29.171875Q52.703125 28.8125 52.703125 28.703125Q52.703125 27.640625 52.203125 27.1875Q51.53125 26.59375 50.203125 26.59375Q48.953125 26.59375 48.359375 27.03125Q47.78125 27.46875 47.5 28.578125L45.78125 28.34375Q46.015625 27.234375 46.546875 26.5625Q47.078125 25.875 48.09375 25.515625Q49.109375 25.140625 50.453125 25.140625Q51.78125 25.140625 52.609375 25.453125Q53.4375 25.765625 53.828125 26.25Q54.21875 26.71875 54.375 27.4375Q54.46875 27.890625 54.46875 29.0625L54.46875 31.40625Q54.46875 33.859375 54.578125 34.515625Q54.6875 35.15625 55.03125 35.75L53.1875 35.75Q52.921875 35.203125 52.84375 34.46875ZM52.6875 30.546875Q51.734375 30.9375 49.8125 31.203125Q48.734375 31.359375 48.28125 31.5625Q47.84375 31.75 47.59375 32.125Q47.34375 32.5 47.34375 32.96875Q47.34375 33.671875 47.875 34.140625Q48.40625 34.609375 49.4375 34.609375Q50.453125 34.609375 51.234375 34.171875Q52.03125 33.71875 52.40625 32.953125Q52.6875 32.34375 52.6875 31.1875L52.6875 30.546875ZM57.0625 35.75L57.0625 25.375L58.65625 25.375L58.65625 26.859375Q59.796875 25.140625 61.953125 25.140625Q62.890625 25.140625 63.671875 25.484375Q64.46875 25.8125 64.859375 26.359375Q65.25 26.90625 65.40625 27.65625Q65.5 28.15625 65.5 29.375L65.5 35.75L63.734375 35.75L63.734375 29.4375Q63.734375 28.359375 63.53125 27.828125Q63.328125 27.296875 62.796875 26.984375Q62.28125 26.671875 61.578125 26.671875Q60.453125 26.671875 59.640625 27.390625Q58.828125 28.09375 58.828125 30.078125L58.828125 35.75L57.0625 35.75ZM73.390625 35.75L73.390625 21.4375L83.046875 21.4375L83.046875 23.125L75.28125 23.125L75.28125 27.5625L82.0 27.5625L82.0 29.25L75.28125 29.25L75.28125 35.75L73.390625 35.75ZM93.8125 34.0625L93.8125 35.75L84.359375 35.75Q84.34375 35.109375 84.5625 34.53125Q84.921875 33.5625 85.71875 32.625Q86.515625 31.6875 88.015625 30.453125Q90.359375 28.546875 91.171875 27.4375Q92.0 26.3125 92.0 25.3125Q92.0 24.265625 91.25 23.546875Q90.5 22.828125 89.296875 22.828125Q88.03125 22.828125 87.265625 23.59375Q86.5 24.359375 86.5 25.703125L84.6875 25.515625Q84.875 23.5 86.078125 22.4375Q87.296875 21.375 89.34375 21.375Q91.390625 21.375 92.59375 22.515625Q93.796875 23.65625 93.796875 25.34375Q93.796875 26.203125 93.4375 27.046875Q93.09375 27.875 92.28125 28.796875Q91.46875 29.703125 89.578125 31.3125Q87.984375 32.640625 87.53125 33.109375Q87.09375 33.578125 86.796875 34.0625L93.8125 34.0625ZM104.953125 35.75L101.0 25.375L102.859375 25.375L105.09375 31.59375Q105.453125 32.59375 105.75 33.671875Q105.984375 32.859375 106.40625 31.703125L108.703125 25.375L110.515625 25.375L106.59375 35.75L104.953125 35.75ZM110.359375 32.65625L112.109375 32.375Q112.25 33.421875 112.921875 33.984375Q113.59375 34.53125 114.796875 34.53125Q116.0 34.53125 116.578125 34.046875Q117.171875 33.546875 117.171875 32.890625Q117.171875 32.296875 116.65625 31.953125Q116.296875 31.71875 114.859375 31.359375Q112.921875 30.859375 112.171875 30.515625Q111.4375 30.15625 111.046875 29.53125Q110.65625 28.890625 110.65625 28.125Q110.65625 27.4375 110.96875 26.84375Q111.296875 26.25 111.84375 25.859375Q112.25 25.5625 112.953125 25.359375Q113.671875 25.140625 114.484375 25.140625Q115.703125 25.140625 116.625 25.5Q117.546875 25.84375 117.984375 26.453125Q118.421875 27.046875 118.59375 28.046875L116.875 28.28125Q116.75 27.484375 116.1875 27.046875Q115.625 26.59375 114.609375 26.59375Q113.390625 26.59375 112.875 27.0Q112.359375 27.390625 112.359375 27.921875Q112.359375 28.265625 112.578125 28.546875Q112.78125 28.828125 113.25 29.015625Q113.515625 29.109375 114.796875 29.453125Q116.671875 29.953125 117.40625 30.28125Q118.140625 30.59375 118.5625 31.203125Q118.984375 31.796875 118.984375 32.703125Q118.984375 33.578125 118.46875 34.359375Q117.953125 35.140625 116.984375 35.5625Q116.015625 35.984375 114.796875 35.984375Q112.78125 35.984375 111.71875 35.140625Q110.65625 34.296875 110.359375 32.65625ZM127.390625 35.75L127.390625 21.4375L137.04688 21.4375L137.04688 23.125L129.28125 23.125L129.28125 27.5625L136.0 27.5625L136.0 29.25L129.28125 29.25L129.28125 35.75L127.390625 35.75ZM145.20312 35.75L143.4375 35.75L143.4375 24.546875Q142.8125 25.15625 141.78125 25.765625Q140.75 26.359375 139.92188 26.671875L139.92188 24.96875Q141.40625 24.28125 142.5 23.296875Q143.60938 22.296875 144.0625 21.375L145.20312 21.375L145.20312 35.75ZM155.39062 31.453125L155.39062 29.6875L160.78125 29.6875L160.78125 31.453125L155.39062 31.453125ZM167.71875 35.75L173.21875 21.4375L175.26562 21.4375L181.125 35.75L178.96875 35.75L177.29688 31.40625L171.3125 31.40625L169.73438 35.75L167.71875 35.75ZM171.85938 29.875L176.70312 29.875L175.21875 25.90625Q174.53125 24.09375 174.20312 22.9375Q173.92188 24.3125 173.42188 25.671875L171.85938 29.875ZM182.03125 35.75L182.03125 21.4375L183.78125 21.4375L183.78125 35.75L182.03125 35.75ZM186.03125 35.75L186.03125 21.4375L187.78125 21.4375L187.78125 35.75L186.03125 35.75Z" fill-rule="nonzero"/></svg>