<svg version="1.1" viewBox="0.0 0.0 1264.0 789.0" fill="none" stroke="none" stroke-linecap="square" stroke-miterlimit="10" width="1264" height="789" xmlns:xlink="http://www.w3.org/1999/xlink" xmlns="http://www.w3.org/2000/svg"><path fill="#ffffff" d="M0 0L1264.0 0L1264.0 789.0L0 789.0L0 0Z" fill-rule="nonzero"/><path stroke="#cccccc" stroke-width="1.0" stroke-linecap="butt" d="M1224.5 96.5L1224.5 697.5" fill-rule="nonzero"/><path stroke="#cccccc" stroke-width="1.0" stroke-linecap="butt" d="M1038.5 96.5L1038.5 697.5" fill-rule="nonzero"/><path stroke="#cccccc" stroke-width="1.0" stroke-linecap="butt" d="M851.5 96.5L851.5 697.5" fill-rule="nonzero"/><path stroke="#cccccc" stroke-width="1.0" stroke-linecap="butt" d="M665.5 96.5L665.5 697.5" fill-rule="nonzero"/><path stroke="#cccccc" stroke-width="1.0" stroke-linecap="butt" d="M478.5 96.5L478.5 697.5" fill-rule="nonzero"/><path stroke="#cccccc" stroke-width="1.0" stroke-linecap="butt" d="M291.5 96.5L291.5 697.5" fill-rule="nonzero"/><path stroke="#cccccc" stroke-width="1.0" stroke-linecap="butt" d="M105.5 96.5L105.5 697.5" fill-rule="nonzero"/><path stroke="#e6e6e6" stroke-width="1.0" stroke-linecap="butt" d="M1131.5 96.5L1131.5 697.5" fill-rule="nonzero"/><path stroke="#e6e6e6" stroke-width="1.0" stroke-linecap="butt" d="M944.5 96.5L944.5 697.5" fill-rule="nonzero"/><path stroke="#e6e6e6" stroke-width="1.0" stroke-linecap="butt" d="M758.5 96.5L758.5 697.5" fill-rule="nonzero"/><path stroke="#e6e6e6" stroke-width="1.0" stroke-linecap="butt" d="M571.5 96.5L571.5 697.5" fill-rule="nonzero"/><path stroke="#e6e6e6" stroke-width="1.0" stroke-linecap="butt" d="M385.5 96.5L385.5 697.5" fill-rule="nonzero"/><path stroke="#e6e6e6" stroke-width="1.0" stroke-linecap="butt" d="M198.5 96.5L198.5 697.5" fill-rule="nonzero"/><path stroke="#cccccc" stroke-width="1.0" stroke-linecap="butt" d="M105.5 697.5L1224.5 697.5" fill-rule="nonzero"/><path stroke="#cccccc" stroke-width="1.0" stroke-linecap="butt" d="M105.5 547.5L1224.5 547.5" fill-rule="nonzero"/><path stroke="#cccccc" stroke-width="1.0" stroke-linecap="butt" d="M105.5 397.5L1224.5 397.5" fill-rule="nonzero"/><path stroke="#cccccc" stroke-width="1.0" stroke-linecap="butt" d="M105.5 246.5L1224.5 246.5" fill-rule="nonzero"/><path stroke="#cccccc" stroke-width="1.0" stroke-linecap="butt" d="M105.5 96.5L1224.5 96.5" fill-rule="nonzero"/><path stroke="#e6e6e6" stroke-width="1.0" stroke-linecap="butt" d="M105.5 622.5L1224.5 622.5" fill-rule="nonzero"/><path stroke="#e6e6e6" stroke-width="1.0" stroke-linecap="butt" d="M105.5 472.5L1224.5 472.5" fill-rule="nonzero"/><path stroke="#e6e6e6" stroke-width="1.0" stroke-linecap="butt" d="M105.5 322.5L1224.5 322.5" fill-rule="nonzero"/><path stroke="#e6e6e6" stroke-width="1.0" stroke-linecap="butt" d="M105.5 171.5L1224.5 171.5" fill-rule="nonzero"/><path stroke="#eeeeee" stroke-width="1.0" stroke-linecap="butt" d="M617.2517 212.98608L617.2517 228.98608" fill-rule="nonzero"/><path stroke="#eeeeee" stroke-width="1.0" stroke-linecap="butt" d="M536.117 428.9812L536.117 444.9812" fill-rule="nonzero"/><path stroke="#eeeeee" stroke-width="1.0" stroke-linecap="butt" d="M732.4444 364.3952L732.4444 380.3952" fill-rule="nonzero"/><path stroke="#eeeeee" stroke-width="1.0" stroke-linecap="butt" d="M566.3047 520.3178L566.3047 536.3178" fill-rule="nonzero"/><path stroke="#eeeeee" stroke-width="1.0" stroke-linecap="butt" d="M352.5939 527.227L352.5939 543.227" fill-rule="nonzero"/><path stroke="#eeeeee" stroke-width="1.0" stroke-linecap="butt" d="M809.0655 382.70456L809.0655 398.70456" fill-rule="nonzero"/><path stroke="#eeeeee" stroke-width="1.0" stroke-linecap="butt" d="M730.30884 504.33652L730.30884 520.33655" fill-rule="nonzero"/><clipPath id="id_0"><path d="M105.45 96.75L1224.55 96.75L1224.55 697.55L105.45 697.55L105.45 96.75Z" clip-rule="nonzero"/></clipPath><path fill="#0000ff" clip-path="url(#id_0)" d="M623.2517 228.98608C623.2517 232.29979 620.5654 234.98608 617.2517 234.98608C613.93805 234.98608 611.2517 232.29979 611.2517 228.98608C611.2517 225.67238 613.93805 222.98608 617.2517 222.98608C620.5654 222.98608 623.2517 225.67238 623.2517 228.98608Z" fill-rule="nonzero"/><path fill="#0000ff" clip-path="url(#id_0)" d="M542.117 444.9812C542.117 448.2949 539.43066 450.9812 536.117 450.9812C532.8033 450.9812 530.117 448.2949 530.117 444.9812C530.117 441.66748 532.8033 438.9812 536.117 438.9812C539.43066 438.9812 542.117 441.66748 542.117 444.9812Z" fill-rule="nonzero"/><path fill="#0000ff" clip-path="url(#id_0)" d="M738.4444 380.3952C738.4444 383.7089 735.7581 386.3952 732.4444 386.3952C729.13074 386.3952 726.4444 383.7089 726.4444 380.3952C726.4444 377.08148 729.13074 374.3952 732.4444 374.3952C735.7581 374.3952 738.4444 377.08148 738.4444 380.3952Z" fill-rule="nonzero"/><path fill="#0000ff" clip-path="url(#id_0)" d="M572.3047 536.3178C572.3047 539.63153 569.6184 542.3178 566.3047 542.3178C562.991 542.3178 560.3047 539.63153 560.3047 536.3178C560.3047 533.0041 562.991 530.3178 566.3047 530.3178C569.6184 530.3178 572.3047 533.0041 572.3047 536.3178Z" fill-rule="nonzero"/><path fill="#0000ff" clip-path="url(#id_0)" d="M358.5939 543.227C358.5939 546.5407 355.90762 549.227 352.5939 549.227C349.2802 549.227 346.5939 546.5407 346.5939 543.227C346.5939 539.9133 349.2802 537.227 352.5939 537.227C355.90762 537.227 358.5939 539.9133 358.5939 543.227Z" fill-rule="nonzero"/><path fill="#0000ff" clip-path="url(#id_0)" d="M815.0655 398.70456C815.0655 402.01828 812.3792 404.70456 809.0655 404.70456C805.7518 404.70456 803.0655 402.01828 803.0655 398.70456C803.0655 395.39087 805.7518 392.70456 809.0655 392.70456C812.3792 392.70456 815.0655 395.39087 815.0655 398.70456Z" fill-rule="nonzero"/><path fill="#0000ff" clip-path="url(#id_0)" d="M736.30884 520.33655C736.30884 523.65027 733.6225 526.33655 730.30884 526.33655C726.9951 526.33655 724.30884 523.65027 724.30884 520.33655C724.30884 517.0228 726.9951 514.33655 730.30884 514.33655C733.6225 514.33655 736.30884 517.0228 736.30884 520.33655Z" fill-rule="nonzero"/><path stroke="#ffffff" stroke-width="3.0" stroke-linejoin="round" stroke-linecap="round" d="M618.95483 208.75171L615.3767 208.75171L614.57983 210.98608L613.4236 210.98608L616.6736 202.45483L617.65796 202.45483L620.9236 210.98608L619.76733 210.98608L618.95483 208.75171ZM615.72046 207.82983L618.6267 207.82983L617.1736 203.84546L615.72046 207.82983Z" fill-rule="nonzero"/><path fill="#0000ff" d="M618.95483 208.75171L615.3767 208.75171L614.57983 210.98608L613.4236 210.98608L616.6736 202.45483L617.65796 202.45483L620.9236 210.98608L619.76733 210.98608L618.95483 208.75171ZM615.72046 207.82983L618.6267 207.82983L617.1736 203.84546L615.72046 207.82983Z" fill-rule="nonzero"/><path stroke="#ffffff" stroke-width="3.0" stroke-linejoin="round" stroke-linecap="round" d="M538.4295 423.0437L534.7264 423.0437L534.7264 426.05933L539.02325 426.05933L539.02325 426.9812L533.6014 426.9812L533.6014 418.44995L538.9764 418.44995L538.9764 419.37183L534.7264 419.37183L534.7264 422.12183L538.4295 422.12183L538.4295 423.0437Z" fill-rule="nonzero"/><path fill="#0000ff" d="M538.4295 423.0437L534.7264 423.0437L534.7264 426.05933L539.02325 426.05933L539.02325 426.9812L533.6014 426.9812L533.6014 418.44995L538.9764 418.44995L538.9764 419.37183L534.7264 419.37183L534.7264 422.12183L538.4295 422.12183L538.4295 423.0437Z" fill-rule="nonzero"/><path stroke="#ffffff" stroke-width="3.0" stroke-linejoin="round" stroke-linecap="round" d="M733.7569 358.4577L730.0538 358.4577L730.0538 361.47333L734.35065 361.47333L734.35065 362.3952L728.9288 362.3952L728.9288 353.86395L734.3038 353.86395L734.3038 354.78583L730.0538 354.78583L730.0538 357.53583L733.7569 357.53583L733.7569 358.4577ZM736.4288 354.05145L736.3038 356.2077L735.5538 356.2077L735.5538 353.3952L736.4288 353.3952L736.4288 354.05145Z" fill-rule="nonzero"/><path fill="#0000ff" d="M733.7569 358.4577L730.0538 358.4577L730.0538 361.47333L734.35065 361.47333L734.35065 362.3952L728.9288 362.3952L728.9288 353.86395L734.3038 353.86395L734.3038 354.78583L730.0538 354.78583L730.0538 357.53583L733.7569 357.53583L733.7569 358.4577ZM736.4288 354.05145L736.3038 356.2077L735.5538 356.2077L735.5538 353.3952L736.4288 353.3952L736.4288 354.05145Z" fill-rule="nonzero"/><path stroke="#ffffff" stroke-width="3.0" stroke-linejoin="round" stroke-linecap="round" d="M567.0078 518.3178L565.8828 518.3178L565.8828 509.78656L567.0078 509.78656L567.0078 518.3178Z" fill-rule="nonzero"/><path fill="#0000ff" d="M567.0078 518.3178L565.8828 518.3178L565.8828 509.78656L567.0078 509.78656L567.0078 518.3178Z" fill-rule="nonzero"/><path stroke="#ffffff" stroke-width="3.0" stroke-linejoin="round" stroke-linecap="round" d="M352.29703 525.227L351.17203 525.227L351.17203 516.69574L352.29703 516.69574L352.29703 525.227ZM354.57828 516.88324L354.45328 519.0395L353.70328 519.0395L353.70328 516.227L354.57828 516.227L354.57828 516.88324Z" fill-rule="nonzero"/><path fill="#0000ff" d="M352.29703 525.227L351.17203 525.227L351.17203 516.69574L352.29703 516.69574L352.29703 525.227ZM354.57828 516.88324L354.45328 519.0395L353.70328 519.0395L353.70328 516.227L354.57828 516.227L354.57828 516.88324Z" fill-rule="nonzero"/><path stroke="#ffffff" stroke-width="3.0" stroke-linejoin="round" stroke-linecap="round" d="M812.61237 376.72018Q812.61237 377.97018 812.1905 378.90768Q811.7686 379.82956 810.98737 380.32956Q810.22174 380.82956 809.1905 380.82956Q808.1905 380.82956 807.40924 380.32956Q806.628 379.82956 806.1905 378.9233Q805.7686 378.00143 805.753 376.78268L805.753 376.1733Q805.753 374.93893 806.17487 374.00143Q806.61237 373.06393 807.3936 372.56393Q808.17487 372.0483 809.1905 372.0483Q810.2061 372.0483 810.98737 372.5483Q811.7686 373.0483 812.1905 373.9858Q812.61237 374.9233 812.61237 376.1733L812.61237 376.72018ZM811.503 376.15768Q811.503 374.64206 810.8936 373.82956Q810.28424 373.01706 809.1905 373.01706Q808.11237 373.01706 807.503 373.82956Q806.8936 374.64206 806.878 376.07956L806.878 376.72018Q806.878 378.18893 807.48737 379.03268Q808.11237 379.8608 809.1905 379.8608Q810.28424 379.8608 810.878 379.07956Q811.48737 378.28268 811.503 376.7983L811.503 376.15768Z" fill-rule="nonzero"/><path fill="#0000ff" d="M812.61237 376.72018Q812.61237 377.97018 812.1905 378.90768Q811.7686 379.82956 810.98737 380.32956Q810.22174 380.82956 809.1905 380.82956Q808.1905 380.82956 807.40924 380.32956Q806.628 379.82956 806.1905 378.9233Q805.7686 378.00143 805.753 376.78268L805.753 376.1733Q805.753 374.93893 806.17487 374.00143Q806.61237 373.06393 807.3936 372.56393Q808.17487 372.0483 809.1905 372.0483Q810.2061 372.0483 810.98737 372.5483Q811.7686 373.0483 812.1905 373.9858Q812.61237 374.9233 812.61237 376.1733L812.61237 376.72018ZM811.503 376.15768Q811.503 374.64206 810.8936 373.82956Q810.28424 373.01706 809.1905 373.01706Q808.11237 373.01706 807.503 373.82956Q806.8936 374.64206 806.878 376.07956L806.878 376.72018Q806.878 378.18893 807.48737 379.03268Q808.11237 379.8608 809.1905 379.8608Q810.28424 379.8608 810.878 379.07956Q811.48737 378.28268 811.503 376.7983L811.503 376.15768Z" fill-rule="nonzero"/><path stroke="#ffffff" stroke-width="3.0" stroke-linejoin="round" stroke-linecap="round" d="M733.30884 493.80527L733.30884 499.60214Q733.2932 500.80527 732.5432 501.58652Q731.7932 502.35214 730.51196 502.4459L730.19946 502.46152Q728.80884 502.46152 727.9651 501.71152Q727.13696 500.9459 727.13696 499.61777L727.13696 493.80527L728.24634 493.80527L728.24634 499.58652Q728.24634 500.5084 728.74634 501.02402Q729.26196 501.53964 730.19946 501.53964Q731.1682 501.53964 731.6682 501.02402Q732.1682 500.5084 732.1682 499.58652L732.1682 493.80527L733.30884 493.80527Z" fill-rule="nonzero"/><path fill="#0000ff" d="M733.30884 493.80527L733.30884 499.60214Q733.2932 500.80527 732.5432 501.58652Q731.7932 502.35214 730.51196 502.4459L730.19946 502.46152Q728.80884 502.46152 727.9651 501.71152Q727.13696 500.9459 727.13696 499.61777L727.13696 493.80527L728.24634 493.80527L728.24634 499.58652Q728.24634 500.5084 728.74634 501.02402Q729.26196 501.53964 730.19946 501.53964Q731.1682 501.53964 731.6682 501.02402Q732.1682 500.5084 732.1682 499.58652L732.1682 493.80527L733.30884 493.80527Z" fill-rule="nonzero"/><path fill="#000000" d="M646.4844 746.55L646.4844 737.95624L652.28125 737.95624L652.28125 738.97186L647.625 738.97186L647.625 741.6281L651.65625 741.6281L651.65625 742.64374L647.625 742.64374L647.625 746.55L646.4844 746.55ZM658.5469 745.53436L658.5469 746.55L652.8594 746.55Q652.8594 746.175 652.9844 745.8156Q653.2031 745.2375 653.6719 744.675Q654.15625 744.1125 655.0625 743.3781Q656.46875 742.22186 656.9531 741.55Q657.4531 740.8781 657.4531 740.28436Q657.4531 739.65936 657.0 739.2375Q656.5469 738.8 655.8281 738.8Q655.0625 738.8 654.6094 739.2531Q654.15625 739.70624 654.1406 740.51874L653.0625 740.40936Q653.1719 739.1906 653.8906 738.5656Q654.625 737.925 655.8594 737.925Q657.09375 737.925 657.8125 738.6125Q658.53125 739.3 658.53125 740.3156Q658.53125 740.83124 658.3125 741.33124Q658.1094 741.8156 657.6094 742.3781Q657.125 742.925 656.0 743.8781Q655.0469 744.675 654.7656 744.97186Q654.5 745.2531 654.3281 745.53436L658.5469 745.53436ZM665.3125 749.08124Q664.4375 747.97186 663.8281 746.5031Q663.2344 745.01874 663.2344 743.4406Q663.2344 742.05 663.6719 740.76874Q664.2031 739.28436 665.3125 737.8156L666.0625 737.8156Q665.3594 739.03436 665.125 739.55Q664.7656 740.3625 664.5625 741.2375Q664.3125 742.33124 664.3125 743.4406Q664.3125 746.26874 666.0625 749.08124L665.3125 749.08124ZM667.46875 746.55L667.46875 737.95624L668.59375 737.95624L668.59375 741.4875L673.0625 741.4875L673.0625 737.95624L674.2031 737.95624L674.2031 746.55L673.0625 746.55L673.0625 742.5031L668.59375 742.5031L668.59375 746.55L667.46875 746.55ZM675.7344 746.55L675.7344 745.6906L679.7031 741.14374Q679.0156 741.175 678.5 741.175L675.96875 741.175L675.96875 740.33124L681.0625 740.33124L681.0625 741.01874L677.6875 744.97186L677.03125 745.6906Q677.75 745.64374 678.3594 745.64374L681.25 745.64374L681.25 746.55L675.7344 746.55ZM681.9844 749.08124L681.2344 749.08124Q682.9844 746.26874 682.9844 743.4406Q682.9844 742.34686 682.7344 741.2531Q682.53125 740.3781 682.1719 739.5656Q681.9375 739.05 681.2344 737.8156L681.9844 737.8156Q683.0781 739.28436 683.6094 740.76874Q684.0625 742.05 684.0625 743.4406Q684.0625 745.01874 683.4531 746.5031Q682.84375 747.97186 681.9844 749.08124Z" fill-rule="nonzero"/><path fill="#000000" d="M50.44999 422.16562L41.85624 422.16562L41.85624 416.36874L42.871864 416.36874L42.871864 421.025L45.528114 421.025L45.528114 416.99374L46.54374 416.99374L46.54374 421.025L50.44999 421.025L50.44999 422.16562ZM50.44999 411.68124L50.44999 412.72812L43.73124 412.72812Q44.090614 413.11874 44.465614 413.74374Q44.82499 414.35312 44.996864 414.8375L43.98124 414.8375Q43.559364 413.9625 42.98124 413.30624Q42.38749 412.63437 41.82499 412.35312L41.82499 411.68124L50.44999 411.68124ZM52.98124 403.3375Q51.871864 404.2125 50.403114 404.82187Q48.91874 405.41562 47.340614 405.41562Q45.94999 405.41562 44.66874 404.97812Q43.184364 404.44687 41.715614 403.3375L41.715614 402.5875Q42.934364 403.29062 43.44999 403.525Q44.26249 403.88437 45.13749 404.0875Q46.23124 404.3375 47.340614 404.3375Q50.16874 404.3375 52.98124 402.5875L52.98124 403.3375ZM50.44999 401.18124L41.85624 401.18124L41.85624 400.05624L45.38749 400.05624L45.38749 395.5875L41.85624 395.5875L41.85624 394.44687L50.44999 394.44687L50.44999 395.5875L46.403114 395.5875L46.403114 400.05624L50.44999 400.05624L50.44999 401.18124ZM50.44999 392.91562L49.590614 392.91562L45.04374 388.94687Q45.07499 389.63437 45.07499 390.15L45.07499 392.68124L44.23124 392.68124L44.23124 387.5875L44.91874 387.5875L48.871864 390.9625L49.590614 391.61874Q49.54374 390.9 49.54374 390.29062L49.54374 387.4L50.44999 387.4L50.44999 392.91562ZM52.98124 386.66562L52.98124 387.41562Q50.16874 385.66562 47.340614 385.66562Q46.246864 385.66562 45.153114 385.91562Q44.278114 386.11874 43.465614 386.47812Q42.94999 386.7125 41.715614 387.41562L41.715614 386.66562Q43.184364 385.57187 44.66874 385.04062Q45.94999 384.5875 47.340614 384.5875Q48.91874 384.5875 50.403114 385.19687Q51.871864 385.80624 52.98124 386.66562Z" fill-rule="nonzero"/><path fill="#000000" d="M84.49687 700.53436L84.49687 701.55L78.80937 701.55Q78.80937 701.175 78.93437 700.8156Q79.15312 700.2375 79.62187 699.675Q80.10625 699.1125 81.0125 698.3781Q82.41875 697.22186 82.90312 696.55Q83.40312 695.8781 83.40312 695.28436Q83.40312 694.65936 82.95 694.2375Q82.49687 693.8 81.77812 693.8Q81.0125 693.8 80.55937 694.2531Q80.10625 694.70624 80.09062 695.51874L79.0125 695.40936Q79.12187 694.1906 79.84062 693.5656Q80.575 692.925 81.80937 692.925Q83.04375 692.925 83.7625 693.6125Q84.48125 694.3 84.48125 695.3156Q84.48125 695.83124 84.2625 696.33124Q84.05937 696.8156 83.55937 697.3781Q83.075 697.925 81.95 698.8781Q80.99687 699.675 80.71562 699.97186Q80.45 700.2531 80.27812 700.53436L84.49687 700.53436ZM85.95 697.3156Q85.95 695.78436 86.2625 694.8625Q86.575 693.925 87.18437 693.425Q87.80937 692.925 88.74687 692.925Q89.43437 692.925 89.95 693.20624Q90.48125 693.4875 90.825 694.01874Q91.16875 694.53436 91.35625 695.28436Q91.54375 696.03436 91.54375 697.3156Q91.54375 698.83124 91.23125 699.7531Q90.93437 700.675 90.30937 701.1906Q89.7 701.6906 88.74687 701.6906Q87.5125 701.6906 86.79375 700.8Q85.95 699.7375 85.95 697.3156ZM87.02812 697.3156Q87.02812 699.425 87.52812 700.1281Q88.02812 700.83124 88.74687 700.83124Q89.48125 700.83124 89.96562 700.1281Q90.46562 699.425 90.46562 697.3156Q90.46562 695.1906 89.96562 694.5031Q89.48125 693.8 88.73125 693.8Q88.0125 693.8 87.575 694.40936Q87.02812 695.1906 87.02812 697.3156ZM92.95 697.3156Q92.95 695.78436 93.2625 694.8625Q93.575 693.925 94.18437 693.425Q94.80937 692.925 95.74687 692.925Q96.43437 692.925 96.95 693.20624Q97.48125 693.4875 97.825 694.01874Q98.16875 694.53436 98.35625 695.28436Q98.54375 696.03436 98.54375 697.3156Q98.54375 698.83124 98.23125 699.7531Q97.93437 700.675 97.30937 701.1906Q96.7 701.6906 95.74687 701.6906Q94.5125 701.6906 93.79375 700.8Q92.95 699.7375 92.95 697.3156ZM94.02812 697.3156Q94.02812 699.425 94.52812 700.1281Q95.02812 700.83124 95.74687 700.83124Q96.48125 700.83124 96.96562 700.1281Q97.46562 699.425 97.46562 697.3156Q97.46562 695.1906 96.96562 694.5031Q96.48125 693.8 95.73125 693.8Q95.0125 693.8 94.575 694.40936Q94.02812 695.1906 94.02812 697.3156Z" fill-rule="nonzero"/><path fill="#000000" d="M82.325 551.35L82.325 549.2875L78.60625 549.2875L78.60625 548.3187L82.52812 542.7562L83.3875 542.7562L83.3875 548.3187L84.54375 548.3187L84.54375 549.2875L83.3875 549.2875L83.3875 551.35L82.325 551.35ZM82.325 548.3187L82.325 544.45935L79.6375 548.3187L82.325 548.3187ZM85.95 547.1156Q85.95 545.58435 86.2625 544.6625Q86.575 543.725 87.18437 543.225Q87.80937 542.725 88.74687 542.725Q89.43437 542.725 89.95 543.0062Q90.48125 543.2875 90.825 543.8187Q91.16875 544.33435 91.35625 545.08435Q91.54375 545.83435 91.54375 547.1156Q91.54375 548.6312 91.23125 549.5531Q90.93437 550.475 90.30937 550.9906Q89.7 551.4906 88.74687 551.4906Q87.5125 551.4906 86.79375 550.6Q85.95 549.5375 85.95 547.1156ZM87.02812 547.1156Q87.02812 549.225 87.52812 549.9281Q88.02812 550.6312 88.74687 550.6312Q89.48125 550.6312 89.96562 549.9281Q90.46562 549.225 90.46562 547.1156Q90.46562 544.9906 89.96562 544.3031Q89.48125 543.6 88.73125 543.6Q88.0125 543.6 87.575 544.20935Q87.02812 544.9906 87.02812 547.1156ZM92.95 547.1156Q92.95 545.58435 93.2625 544.6625Q93.575 543.725 94.18437 543.225Q94.80937 542.725 95.74687 542.725Q96.43437 542.725 96.95 543.0062Q97.48125 543.2875 97.825 543.8187Q98.16875 544.33435 98.35625 545.08435Q98.54375 545.83435 98.54375 547.1156Q98.54375 548.6312 98.23125 549.5531Q97.93437 550.475 97.30937 550.9906Q96.7 551.4906 95.74687 551.4906Q94.5125 551.4906 93.79375 550.6Q92.95 549.5375 92.95 547.1156ZM94.02812 547.1156Q94.02812 549.225 94.52812 549.9281Q95.02812 550.6312 95.74687 550.6312Q96.48125 550.6312 96.96562 549.9281Q97.46562 549.225 97.46562 547.1156Q97.46562 544.9906 96.96562 544.3031Q96.48125 543.6 95.73125 543.6Q95.0125 543.6 94.575 544.20935Q94.02812 544.9906 94.02812 547.1156Z" fill-rule="nonzero"/><path fill="#000000" d="M84.41875 394.66562L83.37187 394.74374Q83.23125 394.11874 82.98125 393.8375Q82.54375 393.38437 81.91875 393.38437Q81.41875 393.38437 81.02812 393.66562Q80.54375 394.04062 80.24687 394.74374Q79.96562 395.43124 79.95 396.7125Q80.325 396.13437 80.87187 395.85312Q81.43437 395.57187 82.04375 395.57187Q83.09062 395.57187 83.825 396.35312Q84.575 397.13437 84.575 398.35312Q84.575 399.16562 84.21562 399.86874Q83.87187 400.55624 83.2625 400.93124Q82.65312 401.29062 81.8875 401.29062Q80.55937 401.29062 79.73125 400.32187Q78.90312 399.35312 78.90312 397.13437Q78.90312 394.63437 79.825 393.50937Q80.62187 392.525 81.98125 392.525Q82.99687 392.525 83.6375 393.10312Q84.29375 393.66562 84.41875 394.66562ZM80.12187 398.36874Q80.12187 398.91562 80.34062 399.41562Q80.575 399.9 80.98125 400.16562Q81.40312 400.43124 81.87187 400.43124Q82.52812 400.43124 83.0125 399.9Q83.49687 399.35312 83.49687 398.43124Q83.49687 397.54062 83.0125 397.025Q82.54375 396.50937 81.825 396.50937Q81.10625 396.50937 80.60625 397.025Q80.12187 397.54062 80.12187 398.36874ZM85.95 396.91562Q85.95 395.38437 86.2625 394.4625Q86.575 393.525 87.18437 393.025Q87.80937 392.525 88.74687 392.525Q89.43437 392.525 89.95 392.80624Q90.48125 393.0875 90.825 393.61874Q91.16875 394.13437 91.35625 394.88437Q91.54375 395.63437 91.54375 396.91562Q91.54375 398.43124 91.23125 399.35312Q90.93437 400.275 90.30937 400.79062Q89.7 401.29062 88.74687 401.29062Q87.5125 401.29062 86.79375 400.4Q85.95 399.3375 85.95 396.91562ZM87.02812 396.91562Q87.02812 399.025 87.52812 399.72812Q88.02812 400.43124 88.74687 400.43124Q89.48125 400.43124 89.96562 399.72812Q90.46562 399.025 90.46562 396.91562Q90.46562 394.79062 89.96562 394.10312Q89.48125 393.4 88.73125 393.4Q88.0125 393.4 87.575 394.00937Q87.02812 394.79062 87.02812 396.91562ZM92.95 396.91562Q92.95 395.38437 93.2625 394.4625Q93.575 393.525 94.18437 393.025Q94.80937 392.525 95.74687 392.525Q96.43437 392.525 96.95 392.80624Q97.48125 393.0875 97.825 393.61874Q98.16875 394.13437 98.35625 394.88437Q98.54375 395.63437 98.54375 396.91562Q98.54375 398.43124 98.23125 399.35312Q97.93437 400.275 97.30937 400.79062Q96.7 401.29062 95.74687 401.29062Q94.5125 401.29062 93.79375 400.4Q92.95 399.3375 92.95 396.91562ZM94.02812 396.91562Q94.02812 399.025 94.52812 399.72812Q95.02812 400.43124 95.74687 400.43124Q96.48125 400.43124 96.96562 399.72812Q97.46562 399.025 97.46562 396.91562Q97.46562 394.79062 96.96562 394.10312Q96.48125 393.4 95.73125 393.4Q95.0125 393.4 94.575 394.00937Q94.02812 394.79062 94.02812 396.91562Z" fill-rule="nonzero"/><path fill="#000000" d="M80.575 246.29375Q79.91875 246.04375 79.59062 245.60625Q79.27812 245.15312 79.27812 244.54375Q79.27812 243.60625 79.95 242.96562Q80.6375 242.325 81.74687 242.325Q82.87187 242.325 83.55937 242.98125Q84.24687 243.6375 84.24687 244.575Q84.24687 245.16875 83.93437 245.60625Q83.62187 246.04375 82.98125 246.29375Q83.77812 246.54375 84.18437 247.12187Q84.59062 247.7 84.59062 248.49687Q84.59062 249.59062 83.80937 250.34062Q83.04375 251.09062 81.7625 251.09062Q80.49687 251.09062 79.71562 250.34062Q78.93437 249.59062 78.93437 248.46562Q78.93437 247.62187 79.35625 247.05937Q79.79375 246.49687 80.575 246.29375ZM80.35625 244.49687Q80.35625 245.10625 80.74687 245.49687Q81.15312 245.8875 81.77812 245.8875Q82.3875 245.8875 82.77812 245.5125Q83.16875 245.12187 83.16875 244.55937Q83.16875 243.98125 82.7625 243.59062Q82.35625 243.18437 81.7625 243.18437Q81.15312 243.18437 80.74687 243.575Q80.35625 243.96562 80.35625 244.49687ZM80.02812 248.46562Q80.02812 248.91875 80.23125 249.34062Q80.45 249.7625 80.87187 249.99687Q81.29375 250.23125 81.77812 250.23125Q82.52812 250.23125 83.0125 249.74687Q83.5125 249.2625 83.5125 248.5125Q83.5125 247.74687 83.0125 247.24687Q82.5125 246.74687 81.74687 246.74687Q80.99687 246.74687 80.5125 247.24687Q80.02812 247.73125 80.02812 248.46562ZM85.95 246.71562Q85.95 245.18437 86.2625 244.2625Q86.575 243.325 87.18437 242.825Q87.80937 242.325 88.74687 242.325Q89.43437 242.325 89.95 242.60625Q90.48125 242.8875 90.825 243.41875Q91.16875 243.93437 91.35625 244.68437Q91.54375 245.43437 91.54375 246.71562Q91.54375 248.23125 91.23125 249.15312Q90.93437 250.075 90.30937 250.59062Q89.7 251.09062 88.74687 251.09062Q87.5125 251.09062 86.79375 250.2Q85.95 249.1375 85.95 246.71562ZM87.02812 246.71562Q87.02812 248.825 87.52812 249.52812Q88.02812 250.23125 88.74687 250.23125Q89.48125 250.23125 89.96562 249.52812Q90.46562 248.825 90.46562 246.71562Q90.46562 244.59062 89.96562 243.90312Q89.48125 243.2 88.73125 243.2Q88.0125 243.2 87.575 243.80937Q87.02812 244.59062 87.02812 246.71562ZM92.95 246.71562Q92.95 245.18437 93.2625 244.2625Q93.575 243.325 94.18437 242.825Q94.80937 242.325 95.74687 242.325Q96.43437 242.325 96.95 242.60625Q97.48125 242.8875 97.825 243.41875Q98.16875 243.93437 98.35625 244.68437Q98.54375 245.43437 98.54375 246.71562Q98.54375 248.23125 98.23125 249.15312Q97.93437 250.075 97.30937 250.59062Q96.7 251.09062 95.74687 251.09062Q94.5125 251.09062 93.79375 250.2Q92.95 249.1375 92.95 246.71562ZM94.02812 246.71562Q94.02812 248.825 94.52812 249.52812Q95.02812 250.23125 95.74687 250.23125Q96.48125 250.23125 96.96562 249.52812Q97.46562 248.825 97.46562 246.71562Q97.46562 244.59062 96.96562 243.90312Q96.48125 243.2 95.73125 243.2Q95.0125 243.2 94.575 243.80937Q94.02812 244.59062 94.02812 246.71562Z" fill-rule="nonzero"/><path fill="#000000" d="M75.91875 100.75L74.87187 100.75L74.87187 94.03125Q74.48125 94.390625 73.85625 94.765625Q73.24687 95.125 72.7625 95.296875L72.7625 94.28125Q73.6375 93.859375 74.29375 93.28125Q74.96562 92.6875 75.24687 92.125L75.91875 92.125L75.91875 100.75ZM78.95 96.515625Q78.95 94.984375 79.2625 94.0625Q79.575 93.125 80.18437 92.625Q80.80937 92.125 81.74687 92.125Q82.43437 92.125 82.95 92.40625Q83.48125 92.6875 83.825 93.21875Q84.16875 93.734375 84.35625 94.484375Q84.54375 95.234375 84.54375 96.515625Q84.54375 98.03125 84.23125 98.953125Q83.93437 99.875 83.30937 100.390625Q82.7 100.890625 81.74687 100.890625Q80.5125 100.890625 79.79375 100.0Q78.95 98.9375 78.95 96.515625ZM80.02812 96.515625Q80.02812 98.625 80.52812 99.328125Q81.02812 100.03125 81.74687 100.03125Q82.48125 100.03125 82.96562 99.328125Q83.46562 98.625 83.46562 96.515625Q83.46562 94.390625 82.96562 93.703125Q82.48125 93.0 81.73125 93.0Q81.0125 93.0 80.575 93.609375Q80.02812 94.390625 80.02812 96.515625ZM85.95 96.515625Q85.95 94.984375 86.2625 94.0625Q86.575 93.125 87.18437 92.625Q87.80937 92.125 88.74687 92.125Q89.43437 92.125 89.95 92.40625Q90.48125 92.6875 90.825 93.21875Q91.16875 93.734375 91.35625 94.484375Q91.54375 95.234375 91.54375 96.515625Q91.54375 98.03125 91.23125 98.953125Q90.93437 99.875 90.30937 100.390625Q89.7 100.890625 88.74687 100.890625Q87.5125 100.890625 86.79375 100.0Q85.95 98.9375 85.95 96.515625ZM87.02812 96.515625Q87.02812 98.625 87.52812 99.328125Q88.02812 100.03125 88.74687 100.03125Q89.48125 100.03125 89.96562 99.328125Q90.46562 98.625 90.46562 96.515625Q90.46562 94.390625 89.96562 93.703125Q89.48125 93.0 88.73125 93.0Q88.0125 93.0 87.575 93.609375Q87.02812 94.390625 87.02812 96.515625ZM92.95 96.515625Q92.95 94.984375 93.2625 94.0625Q93.575 93.125 94.18437 92.625Q94.80937 92.125 95.74687 92.125Q96.43437 92.125 96.95 92.40625Q97.48125 92.6875 97.825 93.21875Q98.16875 93.734375 98.35625 94.484375Q98.54375 95.234375 98.54375 96.515625Q98.54375 98.03125 98.23125 98.953125Q97.93437 99.875 97.30937 100.390625Q96.7 100.890625 95.74687 100.890625Q94.5125 100.890625 93.79375 100.0Q92.95 98.9375 92.95 96.515625ZM94.02812 96.515625Q94.02812 98.625 94.52812 99.328125Q95.02812 100.03125 95.74687 100.03125Q96.48125 100.03125 96.96562 99.328125Q97.46562 98.625 97.46562 96.515625Q97.46562 94.390625 96.96562 93.703125Q96.48125 93.0 95.73125 93.0Q95.0125 93.0 94.575 93.609375Q94.02812 94.390625 94.02812 96.515625Z" fill-rule="nonzero"/><path fill="#000000" d="M1216.175 709.89374Q1215.5188 709.64374 1215.1907 709.20624Q1214.8782 708.7531 1214.8782 708.14374Q1214.8782 707.20624 1215.55 706.5656Q1216.2375 705.925 1217.3469 705.925Q1218.4719 705.925 1219.1594 706.58124Q1219.8469 707.2375 1219.8469 708.175Q1219.8469 708.76874 1219.5344 709.20624Q1219.2219 709.64374 1218.5813 709.89374Q1219.3782 710.14374 1219.7844 710.72186Q1220.1907 711.3 1220.1907 712.09686Q1220.1907 713.1906 1219.4094 713.9406Q1218.6438 714.6906 1217.3625 714.6906Q1216.0969 714.6906 1215.3157 713.9406Q1214.5344 713.1906 1214.5344 712.0656Q1214.5344 711.22186 1214.9563 710.65936Q1215.3938 710.09686 1216.175 709.89374ZM1215.9563 708.09686Q1215.9563 708.70624 1216.3469 709.09686Q1216.7532 709.4875 1217.3782 709.4875Q1217.9875 709.4875 1218.3782 709.1125Q1218.7688 708.72186 1218.7688 708.15936Q1218.7688 707.58124 1218.3625 707.1906Q1217.9563 706.78436 1217.3625 706.78436Q1216.7532 706.78436 1216.3469 707.175Q1215.9563 707.5656 1215.9563 708.09686ZM1215.6282 712.0656Q1215.6282 712.51874 1215.8313 712.9406Q1216.05 713.3625 1216.4719 713.59686Q1216.8938 713.83124 1217.3782 713.83124Q1218.1282 713.83124 1218.6125 713.34686Q1219.1125 712.8625 1219.1125 712.1125Q1219.1125 711.34686 1218.6125 710.84686Q1218.1125 710.34686 1217.3469 710.34686Q1216.5969 710.34686 1216.1125 710.84686Q1215.6282 711.33124 1215.6282 712.0656ZM1221.55 710.3156Q1221.55 708.78436 1221.8625 707.8625Q1222.175 706.925 1222.7844 706.425Q1223.4094 705.925 1224.3469 705.925Q1225.0344 705.925 1225.55 706.20624Q1226.0813 706.4875 1226.425 707.01874Q1226.7688 707.53436 1226.9563 708.28436Q1227.1438 709.03436 1227.1438 710.3156Q1227.1438 711.83124 1226.8313 712.7531Q1226.5344 713.675 1225.9094 714.1906Q1225.3 714.6906 1224.3469 714.6906Q1223.1125 714.6906 1222.3938 713.8Q1221.55 712.7375 1221.55 710.3156ZM1222.6282 710.3156Q1222.6282 712.425 1223.1282 713.1281Q1223.6282 713.83124 1224.3469 713.83124Q1225.0813 713.83124 1225.5657 713.1281Q1226.0657 712.425 1226.0657 710.3156Q1226.0657 708.1906 1225.5657 707.5031Q1225.0813 706.8 1224.3313 706.8Q1223.6125 706.8 1223.175 707.40936Q1222.6282 708.1906 1222.6282 710.3156ZM1228.55 710.3156Q1228.55 708.78436 1228.8625 707.8625Q1229.175 706.925 1229.7844 706.425Q1230.4094 705.925 1231.3469 705.925Q1232.0344 705.925 1232.55 706.20624Q1233.0813 706.4875 1233.425 707.01874Q1233.7688 707.53436 1233.9563 708.28436Q1234.1438 709.03436 1234.1438 710.3156Q1234.1438 711.83124 1233.8313 712.7531Q1233.5344 713.675 1232.9094 714.1906Q1232.3 714.6906 1231.3469 714.6906Q1230.1125 714.6906 1229.3938 713.8Q1228.55 712.7375 1228.55 710.3156ZM1229.6282 710.3156Q1229.6282 712.425 1230.1282 713.1281Q1230.6282 713.83124 1231.3469 713.83124Q1232.0813 713.83124 1232.5657 713.1281Q1233.0657 712.425 1233.0657 710.3156Q1233.0657 708.1906 1232.5657 707.5031Q1232.0813 706.8 1231.3313 706.8Q1230.6125 706.8 1230.175 707.40936Q1229.6282 708.1906 1229.6282 710.3156Z" fill-rule="nonzero"/><path fill="#000000" d="M1028.5021 714.55L1027.4552 714.55L1027.4552 707.83124Q1027.0646 708.1906 1026.4396 708.5656Q1025.8302 708.925 1025.3458 709.09686L1025.3458 708.08124Q1026.2208 707.65936 1026.8771 707.08124Q1027.549 706.4875 1027.8302 705.925L1028.5021 705.925L1028.5021 714.55ZM1031.5333 710.3156Q1031.5333 708.78436 1031.8458 707.8625Q1032.1583 706.925 1032.7677 706.425Q1033.3927 705.925 1034.3302 705.925Q1035.0177 705.925 1035.5333 706.20624Q1036.0646 706.4875 1036.4083 707.01874Q1036.7521 707.53436 1036.9396 708.28436Q1037.1271 709.03436 1037.1271 710.3156Q1037.1271 711.83124 1036.8146 712.7531Q1036.5177 713.675 1035.8927 714.1906Q1035.2833 714.6906 1034.3302 714.6906Q1033.0958 714.6906 1032.3771 713.8Q1031.5333 712.7375 1031.5333 710.3156ZM1032.6115 710.3156Q1032.6115 712.425 1033.1115 713.1281Q1033.6115 713.83124 1034.3302 713.83124Q1035.0646 713.83124 1035.549 713.1281Q1036.049 712.425 1036.049 710.3156Q1036.049 708.1906 1035.549 707.5031Q1035.0646 706.8 1034.3146 706.8Q1033.5958 706.8 1033.1583 707.40936Q1032.6115 708.1906 1032.6115 710.3156ZM1038.5333 710.3156Q1038.5333 708.78436 1038.8458 707.8625Q1039.1583 706.925 1039.7677 706.425Q1040.3927 705.925 1041.3302 705.925Q1042.0177 705.925 1042.5333 706.20624Q1043.0646 706.4875 1043.4083 707.01874Q1043.7521 707.53436 1043.9396 708.28436Q1044.1271 709.03436 1044.1271 710.3156Q1044.1271 711.83124 1043.8146 712.7531Q1043.5177 713.675 1042.8927 714.1906Q1042.2833 714.6906 1041.3302 714.6906Q1040.0958 714.6906 1039.3771 713.8Q1038.5333 712.7375 1038.5333 710.3156ZM1039.6115 710.3156Q1039.6115 712.425 1040.1115 713.1281Q1040.6115 713.83124 1041.3302 713.83124Q1042.0646 713.83124 1042.549 713.1281Q1043.049 712.425 1043.049 710.3156Q1043.049 708.1906 1042.549 707.5031Q1042.0646 706.8 1041.3146 706.8Q1040.5958 706.8 1040.1583 707.40936Q1039.6115 708.1906 1039.6115 710.3156ZM1045.5333 710.3156Q1045.5333 708.78436 1045.8458 707.8625Q1046.1583 706.925 1046.7677 706.425Q1047.3927 705.925 1048.3302 705.925Q1049.0177 705.925 1049.5333 706.20624Q1050.0646 706.4875 1050.4083 707.01874Q1050.7521 707.53436 1050.9396 708.28436Q1051.1271 709.03436 1051.1271 710.3156Q1051.1271 711.83124 1050.8146 712.7531Q1050.5177 713.675 1049.8927 714.1906Q1049.2833 714.6906 1048.3302 714.6906Q1047.0958 714.6906 1046.3771 713.8Q1045.5333 712.7375 1045.5333 710.3156ZM1046.6115 710.3156Q1046.6115 712.425 1047.1115 713.1281Q1047.6115 713.83124 1048.3302 713.83124Q1049.0646 713.83124 1049.549 713.1281Q1050.049 712.425 1050.049 710.3156Q1050.049 708.1906 1049.549 707.5031Q1049.0646 706.8 1048.3146 706.8Q1047.5958 706.8 1047.1583 707.40936Q1046.6115 708.1906 1046.6115 710.3156Z" fill-rule="nonzero"/><path fill="#000000" d="M841.9854 714.55L840.93854 714.55L840.93854 707.83124Q840.5479 708.1906 839.9229 708.5656Q839.31354 708.925 838.82916 709.09686L838.82916 708.08124Q839.70416 707.65936 840.3604 707.08124Q841.0323 706.4875 841.31354 705.925L841.9854 705.925L841.9854 714.55ZM850.56354 713.53436L850.56354 714.55L844.87604 714.55Q844.87604 714.175 845.00104 713.8156Q845.2198 713.2375 845.68854 712.675Q846.1729 712.1125 847.07916 711.3781Q848.4854 710.22186 848.9698 709.55Q849.4698 708.8781 849.4698 708.28436Q849.4698 707.65936 849.01666 707.2375Q848.56354 706.8 847.8448 706.8Q847.07916 706.8 846.62604 707.2531Q846.1729 707.70624 846.1573 708.51874L845.07916 708.40936Q845.18854 707.1906 845.9073 706.5656Q846.64166 705.925 847.87604 705.925Q849.1104 705.925 849.82916 706.6125Q850.5479 707.3 850.5479 708.3156Q850.5479 708.83124 850.32916 709.33124Q850.12604 709.8156 849.62604 710.3781Q849.14166 710.925 848.01666 711.8781Q847.06354 712.675 846.7823 712.97186Q846.51666 713.2531 846.3448 713.53436L850.56354 713.53436ZM852.01666 710.3156Q852.01666 708.78436 852.32916 707.8625Q852.64166 706.925 853.25104 706.425Q853.87604 705.925 854.81354 705.925Q855.50104 705.925 856.01666 706.20624Q856.5479 706.4875 856.89166 707.01874Q857.2354 707.53436 857.4229 708.28436Q857.6104 709.03436 857.6104 710.3156Q857.6104 711.83124 857.2979 712.7531Q857.00104 713.675 856.37604 714.1906Q855.76666 714.6906 854.81354 714.6906Q853.57916 714.6906 852.8604 713.8Q852.01666 712.7375 852.01666 710.3156ZM853.0948 710.3156Q853.0948 712.425 853.5948 713.1281Q854.0948 713.83124 854.81354 713.83124Q855.5479 713.83124 856.0323 713.1281Q856.5323 712.425 856.5323 710.3156Q856.5323 708.1906 856.0323 707.5031Q855.5479 706.8 854.7979 706.8Q854.07916 706.8 853.64166 707.40936Q853.0948 708.1906 853.0948 710.3156ZM859.01666 710.3156Q859.01666 708.78436 859.32916 707.8625Q859.64166 706.925 860.25104 706.425Q860.87604 705.925 861.81354 705.925Q862.50104 705.925 863.01666 706.20624Q863.5479 706.4875 863.89166 707.01874Q864.2354 707.53436 864.4229 708.28436Q864.6104 709.03436 864.6104 710.3156Q864.6104 711.83124 864.2979 712.7531Q864.00104 713.675 863.37604 714.1906Q862.76666 714.6906 861.81354 714.6906Q860.57916 714.6906 859.8604 713.8Q859.01666 712.7375 859.01666 710.3156ZM860.0948 710.3156Q860.0948 712.425 860.5948 713.1281Q861.0948 713.83124 861.81354 713.83124Q862.5479 713.83124 863.0323 713.1281Q863.5323 712.425 863.5323 710.3156Q863.5323 708.1906 863.0323 707.5031Q862.5479 706.8 861.7979 706.8Q861.07916 706.8 860.64166 707.40936Q860.0948 708.1906 860.0948 710.3156Z" fill-rule="nonzero"/><path fill="#000000" d="M655.46875 714.55L654.4219 714.55L654.4219 707.83124Q654.03125 708.1906 653.40625 708.5656Q652.7969 708.925 652.3125 709.09686L652.3125 708.08124Q653.1875 707.65936 653.84375 707.08124Q654.5156 706.4875 654.7969 705.925L655.46875 705.925L655.46875 714.55ZM661.875 714.55L661.875 712.4875L658.15625 712.4875L658.15625 711.51874L662.0781 705.95624L662.9375 705.95624L662.9375 711.51874L664.09375 711.51874L664.09375 712.4875L662.9375 712.4875L662.9375 714.55L661.875 714.55ZM661.875 711.51874L661.875 707.65936L659.1875 711.51874L661.875 711.51874ZM665.5 710.3156Q665.5 708.78436 665.8125 707.8625Q666.125 706.925 666.7344 706.425Q667.3594 705.925 668.2969 705.925Q668.9844 705.925 669.5 706.20624Q670.03125 706.4875 670.375 707.01874Q670.71875 707.53436 670.90625 708.28436Q671.09375 709.03436 671.09375 710.3156Q671.09375 711.83124 670.78125 712.7531Q670.4844 713.675 669.8594 714.1906Q669.25 714.6906 668.2969 714.6906Q667.0625 714.6906 666.34375 713.8Q665.5 712.7375 665.5 710.3156ZM666.5781 710.3156Q666.5781 712.425 667.0781 713.1281Q667.5781 713.83124 668.2969 713.83124Q669.03125 713.83124 669.5156 713.1281Q670.0156 712.425 670.0156 710.3156Q670.0156 708.1906 669.5156 707.5031Q669.03125 706.8 668.28125 706.8Q667.5625 706.8 667.125 707.40936Q666.5781 708.1906 666.5781 710.3156ZM672.5 710.3156Q672.5 708.78436 672.8125 707.8625Q673.125 706.925 673.7344 706.425Q674.3594 705.925 675.2969 705.925Q675.9844 705.925 676.5 706.20624Q677.03125 706.4875 677.375 707.01874Q677.71875 707.53436 677.90625 708.28436Q678.09375 709.03436 678.09375 710.3156Q678.09375 711.83124 677.78125 712.7531Q677.4844 713.675 676.8594 714.1906Q676.25 714.6906 675.2969 714.6906Q674.0625 714.6906 673.34375 713.8Q672.5 712.7375 672.5 710.3156ZM673.5781 710.3156Q673.5781 712.425 674.0781 713.1281Q674.5781 713.83124 675.2969 713.83124Q676.03125 713.83124 676.5156 713.1281Q677.0156 712.425 677.0156 710.3156Q677.0156 708.1906 676.5156 707.5031Q676.03125 706.8 675.28125 706.8Q674.5625 706.8 674.125 707.40936Q673.5781 708.1906 673.5781 710.3156Z" fill-rule="nonzero"/><path fill="#000000" d="M468.9521 714.55L467.9052 714.55L467.9052 707.83124Q467.5146 708.1906 466.8896 708.5656Q466.2802 708.925 465.79584 709.09686L465.79584 708.08124Q466.67084 707.65936 467.3271 707.08124Q467.99896 706.4875 468.2802 705.925L468.9521 705.925L468.9521 714.55ZM477.4521 708.0656L476.4052 708.14374Q476.2646 707.51874 476.0146 707.2375Q475.5771 706.78436 474.9521 706.78436Q474.4521 706.78436 474.06146 707.0656Q473.5771 707.4406 473.2802 708.14374Q472.99896 708.83124 472.98334 710.1125Q473.35834 709.53436 473.9052 709.2531Q474.4677 708.97186 475.0771 708.97186Q476.12396 708.97186 476.85834 709.7531Q477.60834 710.53436 477.60834 711.7531Q477.60834 712.5656 477.24896 713.26874Q476.9052 713.95624 476.29584 714.33124Q475.68646 714.6906 474.92084 714.6906Q473.5927 714.6906 472.7646 713.72186Q471.93646 712.7531 471.93646 710.53436Q471.93646 708.03436 472.85834 706.90936Q473.6552 705.925 475.0146 705.925Q476.0302 705.925 476.67084 706.5031Q477.3271 707.0656 477.4521 708.0656ZM473.1552 711.76874Q473.1552 712.3156 473.37396 712.8156Q473.60834 713.3 474.0146 713.5656Q474.43646 713.83124 474.9052 713.83124Q475.56146 713.83124 476.04584 713.3Q476.5302 712.7531 476.5302 711.83124Q476.5302 710.9406 476.04584 710.425Q475.5771 709.90936 474.85834 709.90936Q474.1396 709.90936 473.6396 710.425Q473.1552 710.9406 473.1552 711.76874ZM478.98334 710.3156Q478.98334 708.78436 479.29584 707.8625Q479.60834 706.925 480.2177 706.425Q480.8427 705.925 481.7802 705.925Q482.4677 705.925 482.98334 706.20624Q483.5146 706.4875 483.85834 707.01874Q484.2021 707.53436 484.3896 708.28436Q484.5771 709.03436 484.5771 710.3156Q484.5771 711.83124 484.2646 712.7531Q483.9677 713.675 483.3427 714.1906Q482.73334 714.6906 481.7802 714.6906Q480.54584 714.6906 479.8271 713.8Q478.98334 712.7375 478.98334 710.3156ZM480.06146 710.3156Q480.06146 712.425 480.56146 713.1281Q481.06146 713.83124 481.7802 713.83124Q482.5146 713.83124 482.99896 713.1281Q483.49896 712.425 483.49896 710.3156Q483.49896 708.1906 482.99896 707.5031Q482.5146 706.8 481.7646 706.8Q481.04584 706.8 480.60834 707.40936Q480.06146 708.1906 480.06146 710.3156ZM485.98334 710.3156Q485.98334 708.78436 486.29584 707.8625Q486.60834 706.925 487.2177 706.425Q487.8427 705.925 488.7802 705.925Q489.4677 705.925 489.98334 706.20624Q490.5146 706.4875 490.85834 707.01874Q491.2021 707.53436 491.3896 708.28436Q491.5771 709.03436 491.5771 710.3156Q491.5771 711.83124 491.2646 712.7531Q490.9677 713.675 490.3427 714.1906Q489.73334 714.6906 488.7802 714.6906Q487.54584 714.6906 486.8271 713.8Q485.98334 712.7375 485.98334 710.3156ZM487.06146 710.3156Q487.06146 712.425 487.56146 713.1281Q488.06146 713.83124 488.7802 713.83124Q489.5146 713.83124 489.99896 713.1281Q490.49896 712.425 490.49896 710.3156Q490.49896 708.1906 489.99896 707.5031Q489.5146 706.8 488.7646 706.8Q488.04584 706.8 487.60834 707.40936Q487.06146 708.1906 487.06146 710.3156Z" fill-rule="nonzero"/><path fill="#000000" d="M282.43542 714.55L281.38855 714.55L281.38855 707.83124Q280.99792 708.1906 280.37292 708.5656Q279.76355 708.925 279.27917 709.09686L279.27917 708.08124Q280.15417 707.65936 280.81042 707.08124Q281.4823 706.4875 281.76355 705.925L282.43542 705.925L282.43542 714.55ZM287.09167 709.89374Q286.43542 709.64374 286.1073 709.20624Q285.7948 708.7531 285.7948 708.14374Q285.7948 707.20624 286.46667 706.5656Q287.15417 705.925 288.26355 705.925Q289.38855 705.925 290.07605 706.58124Q290.76355 707.2375 290.76355 708.175Q290.76355 708.76874 290.45105 709.20624Q290.13855 709.64374 289.49792 709.89374Q290.2948 710.14374 290.70105 710.72186Q291.1073 711.3 291.1073 712.09686Q291.1073 713.1906 290.32605 713.9406Q289.56042 714.6906 288.27917 714.6906Q287.01355 714.6906 286.2323 713.9406Q285.45105 713.1906 285.45105 712.0656Q285.45105 711.22186 285.87292 710.65936Q286.31042 710.09686 287.09167 709.89374ZM286.87292 708.09686Q286.87292 708.70624 287.26355 709.09686Q287.6698 709.4875 288.2948 709.4875Q288.90417 709.4875 289.2948 709.1125Q289.68542 708.72186 289.68542 708.15936Q289.68542 707.58124 289.27917 707.1906Q288.87292 706.78436 288.27917 706.78436Q287.6698 706.78436 287.26355 707.175Q286.87292 707.5656 286.87292 708.09686ZM286.5448 712.0656Q286.5448 712.51874 286.74792 712.9406Q286.96667 713.3625 287.38855 713.59686Q287.81042 713.83124 288.2948 713.83124Q289.0448 713.83124 289.52917 713.34686Q290.02917 712.8625 290.02917 712.1125Q290.02917 711.34686 289.52917 710.84686Q289.02917 710.34686 288.26355 710.34686Q287.51355 710.34686 287.02917 710.84686Q286.5448 711.33124 286.5448 712.0656ZM292.46667 710.3156Q292.46667 708.78436 292.77917 707.8625Q293.09167 706.925 293.70105 706.425Q294.32605 705.925 295.26355 705.925Q295.95105 705.925 296.46667 706.20624Q296.99792 706.4875 297.34167 707.01874Q297.68542 707.53436 297.87292 708.28436Q298.06042 709.03436 298.06042 710.3156Q298.06042 711.83124 297.74792 712.7531Q297.45105 713.675 296.82605 714.1906Q296.21667 714.6906 295.26355 714.6906Q294.02917 714.6906 293.31042 713.8Q292.46667 712.7375 292.46667 710.3156ZM293.5448 710.3156Q293.5448 712.425 294.0448 713.1281Q294.5448 713.83124 295.26355 713.83124Q295.99792 713.83124 296.4823 713.1281Q296.9823 712.425 296.9823 710.3156Q296.9823 708.1906 296.4823 707.5031Q295.99792 706.8 295.24792 706.8Q294.52917 706.8 294.09167 707.40936Q293.5448 708.1906 293.5448 710.3156ZM299.46667 710.3156Q299.46667 708.78436 299.77917 707.8625Q300.09167 706.925 300.70105 706.425Q301.32605 705.925 302.26355 705.925Q302.95105 705.925 303.46667 706.20624Q303.99792 706.4875 304.34167 707.01874Q304.68542 707.53436 304.87292 708.28436Q305.06042 709.03436 305.06042 710.3156Q305.06042 711.83124 304.74792 712.7531Q304.45105 713.675 303.82605 714.1906Q303.21667 714.6906 302.26355 714.6906Q301.02917 714.6906 300.31042 713.8Q299.46667 712.7375 299.46667 710.3156ZM300.5448 710.3156Q300.5448 712.425 301.0448 713.1281Q301.5448 713.83124 302.26355 713.83124Q302.99792 713.83124 303.4823 713.1281Q303.9823 712.425 303.9823 710.3156Q303.9823 708.1906 303.4823 707.5031Q302.99792 706.8 302.24792 706.8Q301.52917 706.8 301.09167 707.40936Q300.5448 708.1906 300.5448 710.3156Z" fill-rule="nonzero"/><path fill="#000000" d="M97.49687 713.53436L97.49687 714.55L91.80937 714.55Q91.80937 714.175 91.93437 713.8156Q92.15312 713.2375 92.62187 712.675Q93.10625 712.1125 94.0125 711.3781Q95.41875 710.22186 95.90312 709.55Q96.40312 708.8781 96.40312 708.28436Q96.40312 707.65936 95.95 707.2375Q95.49687 706.8 94.77812 706.8Q94.0125 706.8 93.55937 707.2531Q93.10625 707.70624 93.09062 708.51874L92.0125 708.40936Q92.12187 707.1906 92.84062 706.5656Q93.575 705.925 94.80937 705.925Q96.04375 705.925 96.7625 706.6125Q97.48125 707.3 97.48125 708.3156Q97.48125 708.83124 97.2625 709.33124Q97.05937 709.8156 96.55937 710.3781Q96.075 710.925 94.95 711.8781Q93.99687 712.675 93.71562 712.97186Q93.45 713.2531 93.27812 713.53436L97.49687 713.53436ZM98.95 710.3156Q98.95 708.78436 99.2625 707.8625Q99.575 706.925 100.18437 706.425Q100.80937 705.925 101.74687 705.925Q102.43437 705.925 102.95 706.20624Q103.48125 706.4875 103.825 707.01874Q104.16875 707.53436 104.35625 708.28436Q104.54375 709.03436 104.54375 710.3156Q104.54375 711.83124 104.23125 712.7531Q103.93437 713.675 103.30937 714.1906Q102.7 714.6906 101.74687 714.6906Q100.5125 714.6906 99.79375 713.8Q98.95 712.7375 98.95 710.3156ZM100.02812 710.3156Q100.02812 712.425 100.52812 713.1281Q101.02812 713.83124 101.74687 713.83124Q102.48125 713.83124 102.96562 713.1281Q103.46562 712.425 103.46562 710.3156Q103.46562 708.1906 102.96562 707.5031Q102.48125 706.8 101.73125 706.8Q101.0125 706.8 100.575 707.40936Q100.02812 708.1906 100.02812 710.3156ZM105.95 710.3156Q105.95 708.78436 106.2625 707.8625Q106.575 706.925 107.18437 706.425Q107.80937 705.925 108.74687 705.925Q109.43437 705.925 109.95 706.20624Q110.48125 706.4875 110.825 707.01874Q111.16875 707.53436 111.35625 708.28436Q111.54375 709.03436 111.54375 710.3156Q111.54375 711.83124 111.23125 712.7531Q110.93437 713.675 110.30937 714.1906Q109.7 714.6906 108.74687 714.6906Q107.5125 714.6906 106.79375 713.8Q105.95 712.7375 105.95 710.3156ZM107.02812 710.3156Q107.02812 712.425 107.52812 713.1281Q108.02812 713.83124 108.74687 713.83124Q109.48125 713.83124 109.96562 713.1281Q110.46562 712.425 110.46562 710.3156Q110.46562 708.1906 109.96562 707.5031Q109.48125 706.8 108.73125 706.8Q108.0125 706.8 107.575 707.40936Q107.02812 708.1906 107.02812 710.3156ZM112.95 710.3156Q112.95 708.78436 113.2625 707.8625Q113.575 706.925 114.18437 706.425Q114.80937 705.925 115.74687 705.925Q116.43437 705.925 116.95 706.20624Q117.48125 706.4875 117.825 707.01874Q118.16875 707.53436 118.35625 708.28436Q118.54375 709.03436 118.54375 710.3156Q118.54375 711.83124 118.23125 712.7531Q117.93437 713.675 117.30937 714.1906Q116.7 714.6906 115.74687 714.6906Q114.5125 714.6906 113.79375 713.8Q112.95 712.7375 112.95 710.3156ZM114.02812 710.3156Q114.02812 712.425 114.52812 713.1281Q115.02812 713.83124 115.74687 713.83124Q116.48125 713.83124 116.96562 713.1281Q117.46562 712.425 117.46562 710.3156Q117.46562 708.1906 116.96562 707.5031Q116.48125 706.8 115.73125 706.8Q115.0125 706.8 114.575 707.40936Q114.02812 708.1906 114.02812 710.3156Z" fill-rule="nonzero"/><path fill="#757575" d="M40.934376 58.45L40.934376 44.1375L43.79375 44.1375L47.16875 54.2625Q47.6375 55.684376 47.85625 56.3875Q48.10625 55.60625 48.621876 54.090626L52.04375 44.1375L54.590626 44.1375L54.590626 58.45L52.778126 58.45L52.778126 46.465626L48.60625 58.45L46.903126 58.45L42.7625 46.2625L42.7625 58.45L40.934376 58.45ZM64.87187 55.10625L66.68437 55.340626Q66.2625 56.91875 65.09062 57.809376Q63.934376 58.684376 62.121876 58.684376Q59.85625 58.684376 58.5125 57.29375Q57.184376 55.8875 57.184376 53.35625Q57.184376 50.73125 58.528126 49.29375Q59.871876 47.840626 62.028126 47.840626Q64.10625 47.840626 65.41875 49.2625Q66.74687 50.66875 66.74687 53.246876Q66.74687 53.403126 66.73125 53.715626L58.996876 53.715626Q59.090626 55.41875 59.965626 56.325Q60.840626 57.23125 62.1375 57.23125Q63.10625 57.23125 63.778126 56.73125Q64.46562 56.215626 64.87187 55.10625ZM59.090626 52.2625L64.8875 52.2625Q64.77812 50.965626 64.23125 50.309376Q63.3875 49.29375 62.04375 49.29375Q60.840626 49.29375 60.0125 50.10625Q59.184376 50.903126 59.090626 52.2625ZM75.54375 57.16875Q74.55937 57.996876 73.65312 58.340626Q72.74687 58.684376 71.71562 58.684376Q70.0125 58.684376 69.09062 57.85625Q68.16875 57.0125 68.16875 55.715626Q68.16875 54.95 68.5125 54.325Q68.87187 53.7 69.43437 53.325Q69.99687 52.934376 70.7 52.73125Q71.21562 52.60625 72.2625 52.465626Q74.3875 52.215626 75.3875 51.871876Q75.40312 51.5125 75.40312 51.403126Q75.40312 50.340626 74.90312 49.8875Q74.23125 49.29375 72.90312 49.29375Q71.65312 49.29375 71.05937 49.73125Q70.48125 50.16875 70.2 51.278126L68.48125 51.04375Q68.71562 49.934376 69.24687 49.2625Q69.77812 48.575 70.79375 48.215626Q71.80937 47.840626 73.15312 47.840626Q74.48125 47.840626 75.30937 48.153126Q76.1375 48.465626 76.52812 48.95Q76.91875 49.41875 77.075 50.1375Q77.16875 50.590626 77.16875 51.7625L77.16875 54.10625Q77.16875 56.559376 77.27812 57.215626Q77.3875 57.85625 77.73125 58.45L75.8875 58.45Q75.62187 57.903126 75.54375 57.16875ZM75.3875 53.246876Q74.43437 53.6375 72.5125 53.903126Q71.43437 54.059376 70.98125 54.2625Q70.54375 54.45 70.29375 54.825Q70.04375 55.2 70.04375 55.66875Q70.04375 56.371876 70.575 56.840626Q71.10625 57.309376 72.1375 57.309376Q73.15312 57.309376 73.93437 56.871876Q74.73125 56.41875 75.10625 55.653126Q75.3875 55.04375 75.3875 53.8875L75.3875 53.246876ZM79.7625 58.45L79.7625 48.075L81.35625 48.075L81.35625 49.559376Q82.49687 47.840626 84.65312 47.840626Q85.59062 47.840626 86.37187 48.184376Q87.16875 48.5125 87.55937 49.059376Q87.95 49.60625 88.10625 50.35625Q88.2 50.85625 88.2 52.075L88.2 58.45L86.43437 58.45L86.43437 52.1375Q86.43437 51.059376 86.23125 50.528126Q86.02812 49.996876 85.49687 49.684376Q84.98125 49.371876 84.27812 49.371876Q83.15312 49.371876 82.34062 50.090626Q81.52812 50.79375 81.52812 52.778126L81.52812 58.45L79.7625 58.45ZM96.09062 58.45L96.09062 44.1375L105.74687 44.1375L105.74687 45.825L97.98125 45.825L97.98125 50.2625L104.7 50.2625L104.7 51.95L97.98125 51.95L97.98125 58.45L96.09062 58.45ZM116.5125 56.7625L116.5125 58.45L107.05937 58.45Q107.04375 57.809376 107.2625 57.23125Q107.62187 56.2625 108.41875 55.325Q109.21562 54.3875 110.71562 53.153126Q113.05937 51.246876 113.87187 50.1375Q114.7 49.0125 114.7 48.0125Q114.7 46.965626 113.95 46.246876Q113.2 45.528126 111.99687 45.528126Q110.73125 45.528126 109.96562 46.29375Q109.2 47.059376 109.2 48.403126L107.3875 48.215626Q107.575 46.2 108.77812 45.1375Q109.99687 44.075 112.04375 44.075Q114.09062 44.075 115.29375 45.215626Q116.49687 46.35625 116.49687 48.04375Q116.49687 48.903126 116.1375 49.746876Q115.79375 50.575 114.98125 51.496876Q114.16875 52.403126 112.27812 54.0125Q110.68437 55.340626 110.23125 55.809376Q109.79375 56.278126 109.49687 56.7625L116.5125 56.7625ZM127.65312 58.45L123.7 48.075L125.55937 48.075L127.79375 54.29375Q128.15312 55.29375 128.45 56.371876Q128.68437 55.559376 129.10625 54.403126L131.40312 48.075L133.21562 48.075L129.29375 58.45L127.65312 58.45ZM133.05937 55.35625L134.80937 55.075Q134.95 56.121876 135.62187 56.684376Q136.29375 57.23125 137.49687 57.23125Q138.7 57.23125 139.27812 56.746876Q139.87187 56.246876 139.87187 55.590626Q139.87187 54.996876 139.35625 54.653126Q138.99687 54.41875 137.55937 54.059376Q135.62187 53.559376 134.87187 53.215626Q134.1375 52.85625 133.74687 52.23125Q133.35625 51.590626 133.35625 50.825Q133.35625 50.1375 133.66875 49.54375Q133.99687 48.95 134.54375 48.559376Q134.95 48.2625 135.65312 48.059376Q136.37187 47.840626 137.18437 47.840626Q138.40312 47.840626 139.325 48.2Q140.24687 48.54375 140.68437 49.153126Q141.12187 49.746876 141.29375 50.746876L139.575 50.98125Q139.45 50.184376 138.8875 49.746876Q138.325 49.29375 137.30937 49.29375Q136.09062 49.29375 135.575 49.7Q135.05937 50.090626 135.05937 50.621876Q135.05937 50.965626 135.27812 51.246876Q135.48125 51.528126 135.95 51.715626Q136.21562 51.809376 137.49687 52.153126Q139.37187 52.653126 140.10625 52.98125Q140.84062 53.29375 141.2625 53.903126Q141.68437 54.496876 141.68437 55.403126Q141.68437 56.278126 141.16875 57.059376Q140.65312 57.840626 139.68437 58.2625Q138.71562 58.684376 137.49687 58.684376Q135.48125 58.684376 134.41875 57.840626Q133.35625 56.996876 133.05937 55.35625ZM150.09062 58.45L150.09062 44.1375L159.74687 44.1375L159.74687 45.825L151.98125 45.825L151.98125 50.2625L158.7 50.2625L158.7 51.95L151.98125 51.95L151.98125 58.45L150.09062 58.45ZM167.90312 58.45L166.1375 58.45L166.1375 47.246876Q165.5125 47.85625 164.48125 48.465626Q163.45 49.059376 162.62187 49.371876L162.62187 47.66875Q164.10625 46.98125 165.2 45.996876Q166.30937 44.996876 166.7625 44.075L167.90312 44.075L167.90312 58.45ZM178.09062 54.153126L178.09062 52.3875L183.48125 52.3875L183.48125 54.153126L178.09062 54.153126ZM192.09062 58.45L192.09062 44.1375L201.74687 44.1375L201.74687 45.825L193.98125 45.825L193.98125 50.2625L200.7 50.2625L200.7 51.95L193.98125 51.95L193.98125 58.45L192.09062 58.45ZM210.87187 55.10625L212.68437 55.340626Q212.2625 56.91875 211.09062 57.809376Q209.93437 58.684376 208.12187 58.684376Q205.85625 58.684376 204.5125 57.29375Q203.18437 55.8875 203.18437 53.35625Q203.18437 50.73125 204.52812 49.29375Q205.87187 47.840626 208.02812 47.840626Q210.10625 47.840626 211.41875 49.2625Q212.74687 50.66875 212.74687 53.246876Q212.74687 53.403126 212.73125 53.715626L204.99687 53.715626Q205.09062 55.41875 205.96562 56.325Q206.84062 57.23125 208.1375 57.23125Q209.10625 57.23125 209.77812 56.73125Q210.46562 56.215626 210.87187 55.10625ZM205.09062 52.2625L210.8875 52.2625Q210.77812 50.965626 210.23125 50.309376Q209.3875 49.29375 208.04375 49.29375Q206.84062 49.29375 206.0125 50.10625Q205.18437 50.903126 205.09062 52.2625ZM214.7625 58.45L214.7625 48.075L216.34062 48.075L216.34062 49.528126Q216.825 48.778126 217.6375 48.309376Q218.45 47.840626 219.48125 47.840626Q220.6375 47.840626 221.37187 48.325Q222.10625 48.79375 222.41875 49.653126Q223.65312 47.840626 225.62187 47.840626Q227.16875 47.840626 227.99687 48.7Q228.825 49.559376 228.825 51.325L228.825 58.45L227.075 58.45L227.075 51.91875Q227.075 50.85625 226.90312 50.403126Q226.73125 49.934376 226.27812 49.653126Q225.84062 49.371876 225.23125 49.371876Q224.1375 49.371876 223.40312 50.10625Q222.68437 50.825 222.68437 52.41875L222.68437 58.45L220.93437 58.45L220.93437 51.715626Q220.93437 50.54375 220.49687 49.965626Q220.075 49.371876 219.09062 49.371876Q218.35625 49.371876 217.71562 49.7625Q217.09062 50.153126 216.80937 50.903126Q216.52812 51.653126 216.52812 53.075L216.52812 58.45L214.7625 58.45ZM237.54375 57.16875Q236.55937 57.996876 235.65312 58.340626Q234.74687 58.684376 233.71562 58.684376Q232.0125 58.684376 231.09062 57.85625Q230.16875 57.0125 230.16875 55.715626Q230.16875 54.95 230.5125 54.325Q230.87187 53.7 231.43437 53.325Q231.99687 52.934376 232.7 52.73125Q233.21562 52.60625 234.2625 52.465626Q236.3875 52.215626 237.3875 51.871876Q237.40312 51.5125 237.40312 51.403126Q237.40312 50.340626 236.90312 49.8875Q236.23125 49.29375 234.90312 49.29375Q233.65312 49.29375 233.05937 49.73125Q232.48125 50.16875 232.2 51.278126L230.48125 51.04375Q230.71562 49.934376 231.24687 49.2625Q231.77812 48.575 232.79375 48.215626Q233.80937 47.840626 235.15312 47.840626Q236.48125 47.840626 237.30937 48.153126Q238.1375 48.465626 238.52812 48.95Q238.91875 49.41875 239.075 50.1375Q239.16875 50.590626 239.16875 51.7625L239.16875 54.10625Q239.16875 56.559376 239.27812 57.215626Q239.3875 57.85625 239.73125 58.45L237.8875 58.45Q237.62187 57.903126 237.54375 57.16875ZM237.3875 53.246876Q236.43437 53.6375 234.5125 53.903126Q233.43437 54.059376 232.98125 54.2625Q232.54375 54.45 232.29375 54.825Q232.04375 55.2 232.04375 55.66875Q232.04375 56.371876 232.575 56.840626Q233.10625 57.309376 234.1375 57.309376Q235.15312 57.309376 235.93437 56.871876Q236.73125 56.41875 237.10625 55.653126Q237.3875 55.04375 237.3875 53.8875L237.3875 53.246876ZM241.73125 58.45L241.73125 44.1375L243.48125 44.1375L243.48125 58.45L241.73125 58.45ZM252.87187 55.10625L254.68437 55.340626Q254.2625 56.91875 253.09062 57.809376Q251.93437 58.684376 250.12187 58.684376Q247.85625 58.684376 246.5125 57.29375Q245.18437 55.8875 245.18437 53.35625Q245.18437 50.73125 246.52812 49.29375Q247.87187 47.840626 250.02812 47.840626Q252.10625 47.840626 253.41875 49.2625Q254.74687 50.66875 254.74687 53.246876Q254.74687 53.403126 254.73125 53.715626L246.99687 53.715626Q247.09062 55.41875 247.96562 56.325Q248.84062 57.23125 250.1375 57.23125Q251.10625 57.23125 251.77812 56.73125Q252.46562 56.215626 252.87187 55.10625ZM247.09062 52.2625L252.8875 52.2625Q252.77812 50.965626 252.23125 50.309376Q251.3875 49.29375 250.04375 49.29375Q248.84062 49.29375 248.0125 50.10625Q247.18437 50.903126 247.09062 52.2625Z" fill-rule="nonzero"/></svg>