<svg version="1.1" viewBox="0.0 0.0 1573.0 965.0" fill="none" stroke="none" stroke-linecap="square" stroke-miterlimit="10" width="1573" height="965" xmlns:xlink="http://www.w3.org/1999/xlink" xmlns="http://www.w3.org/2000/svg"><path fill="#ffffff" d="M0 0L1573.0 0L1573.0 965.0L0 965.0L0 0Z" fill-rule="nonzero"/><path stroke="#cccccc" stroke-width="1.0" stroke-linecap="butt" d="M1524.5 111.5L1524.5 864.5" fill-rule="nonzero"/><path stroke="#cccccc" stroke-width="1.0" stroke-linecap="butt" d="M1289.5 111.5L1289.5 864.5" fill-rule="nonzero"/><path stroke="#cccccc" stroke-width="1.0" stroke-linecap="butt" d="M1054.5 111.5L1054.5 864.5" fill-rule="nonzero"/><path stroke="#cccccc" stroke-width="1.0" stroke-linecap="butt" d="M819.5 111.5L819.5 864.5" fill-rule="nonzero"/><path stroke="#cccccc" stroke-width="1.0" stroke-linecap="butt" d="M584.5 111.5L584.5 864.5" fill-rule="nonzero"/><path stroke="#cccccc" stroke-width="1.0" stroke-linecap="butt" d="M349.5 111.5L349.5 864.5" fill-rule="nonzero"/><path stroke="#cccccc" stroke-width="1.0" stroke-linecap="butt" d="M114.5 111.5L114.5 864.5" fill-rule="nonzero"/><path stroke="#e6e6e6" stroke-width="1.0" stroke-linecap="butt" d="M1407.5 111.5L1407.5 864.5" fill-rule="nonzero"/><path stroke="#e6e6e6" stroke-width="1.0" stroke-linecap="butt" d="M1172.5 111.5L1172.5 864.5" fill-rule="nonzero"/><path stroke="#e6e6e6" stroke-width="1.0" stroke-linecap="butt" d="M937.5 111.5L937.5 864.5" fill-rule="nonzero"/><path stroke="#e6e6e6" stroke-width="1.0" stroke-linecap="butt" d="M701.5 111.5L701.5 864.5" fill-rule="nonzero"/><path stroke="#e6e6e6" stroke-width="1.0" stroke-linecap="butt" d="M466.5 111.5L466.5 864.5" fill-rule="nonzero"/><path stroke="#e6e6e6" stroke-width="1.0" stroke-linecap="butt" d="M231.5 111.5L231.5 864.5" fill-rule="nonzero"/><path stroke="#cccccc" stroke-width="1.0" stroke-linecap="butt" d="M114.5 864.5L1524.5 864.5" fill-rule="nonzero"/><path stroke="#cccccc" stroke-width="1.0" stroke-linecap="butt" d="M114.5 676.5L1524.5 676.5" fill-rule="nonzero"/><path stroke="#cccccc" stroke-width="1.0" stroke-linecap="butt" d="M114.5 488.5L1524.5 488.5" fill-rule="nonzero"/><path stroke="#cccccc" stroke-width="1.0" stroke-linecap="butt" d="M114.5 299.5L1524.5 299.5" fill-rule="nonzero"/><path stroke="#cccccc" stroke-width="1.0" stroke-linecap="butt" d="M114.5 111.5L1524.5 111.5" fill-rule="nonzero"/><path stroke="#e6e6e6" stroke-width="1.0" stroke-linecap="butt" d="M114.5 770.5L1524.5 770.5" fill-rule="nonzero"/><path stroke="#e6e6e6" stroke-width="1.0" stroke-linecap="butt" d="M114.5 582.5L1524.5 582.5" fill-rule="nonzero"/><path stroke="#e6e6e6" stroke-width="1.0" stroke-linecap="butt" d="M114.5 393.5L1524.5 393.5" fill-rule="nonzero"/><path stroke="#e6e6e6" stroke-width="1.0" stroke-linecap="butt" d="M114.5 205.5L1524.5 205.5" fill-rule="nonzero"/><path stroke="#eeeeee" stroke-width="1.0" stroke-linecap="butt" d="M953.03906 470.1341L953.03906 486.1341" fill-rule="nonzero"/><path stroke="#eeeeee" stroke-width="1.0" stroke-linecap="butt" d="M402.4269 628.4L402.4269 644.4" fill-rule="nonzero"/><path stroke="#eeeeee" stroke-width="1.0" stroke-linecap="butt" d="M1084.674 606.5345L1084.674 622.5345" fill-rule="nonzero"/><path stroke="#eeeeee" stroke-width="1.0" stroke-linecap="butt" d="M303.42157 700.47516L303.42157 716.47516" fill-rule="nonzero"/><path stroke="#eeeeee" stroke-width="1.0" stroke-linecap="butt" d="M425.74716 655.2469L425.74716 671.2469" fill-rule="nonzero"/><path stroke="#eeeeee" stroke-width="1.0" stroke-linecap="butt" d="M1315.1615 582.25836L1315.1615 598.25836" fill-rule="nonzero"/><path stroke="#eeeeee" stroke-width="1.0" stroke-linecap="butt" d="M1090.5276 701.1061L1090.5276 717.1061" fill-rule="nonzero"/><clipPath id="id_0"><path d="M114.25 111.416664L1524.75 111.416664L1524.75 864.75L114.25 864.75L114.25 111.416664Z" clip-rule="nonzero"/></clipPath><path fill="#0000ff" clip-path="url(#id_0)" d="M959.03906 486.1341C959.03906 489.44778 956.3528 492.1341 953.03906 492.1341C949.7254 492.1341 947.03906 489.44778 947.03906 486.1341C947.03906 482.82037 949.7254 480.1341 953.03906 480.1341C956.3528 480.1341 959.03906 482.82037 959.03906 486.1341Z" fill-rule="nonzero"/><path fill="#0000ff" clip-path="url(#id_0)" d="M408.4269 644.4C408.4269 647.7137 405.7406 650.4 402.4269 650.4C399.1132 650.4 396.4269 647.7137 396.4269 644.4C396.4269 641.0863 399.1132 638.4 402.4269 638.4C405.7406 638.4 408.4269 641.0863 408.4269 644.4Z" fill-rule="nonzero"/><path fill="#0000ff" clip-path="url(#id_0)" d="M1090.674 622.5345C1090.674 625.8482 1087.9877 628.5345 1084.674 628.5345C1081.3604 628.5345 1078.674 625.8482 1078.674 622.5345C1078.674 619.22076 1081.3604 616.5345 1084.674 616.5345C1087.9877 616.5345 1090.674 619.22076 1090.674 622.5345Z" fill-rule="nonzero"/><path fill="#0000ff" clip-path="url(#id_0)" d="M309.42157 716.47516C309.42157 719.7889 306.73526 722.47516 303.42157 722.47516C300.10785 722.47516 297.42157 719.7889 297.42157 716.47516C297.42157 713.16144 300.10785 710.47516 303.42157 710.47516C306.73526 710.47516 309.42157 713.16144 309.42157 716.47516Z" fill-rule="nonzero"/><path fill="#0000ff" clip-path="url(#id_0)" d="M431.74716 671.2469C431.74716 674.5606 429.06088 677.2469 425.74716 677.2469C422.43347 677.2469 419.74716 674.5606 419.74716 671.2469C419.74716 667.9332 422.43347 665.2469 425.74716 665.2469C429.06088 665.2469 431.74716 667.9332 431.74716 671.2469Z" fill-rule="nonzero"/><path fill="#0000ff" clip-path="url(#id_0)" d="M1321.1615 598.25836C1321.1615 601.572 1318.4752 604.25836 1315.1615 604.25836C1311.8478 604.25836 1309.1615 601.572 1309.1615 598.25836C1309.1615 594.94464 1311.8478 592.25836 1315.1615 592.25836C1318.4752 592.25836 1321.1615 594.94464 1321.1615 598.25836Z" fill-rule="nonzero"/><path fill="#0000ff" clip-path="url(#id_0)" d="M1096.5276 717.1061C1096.5276 720.4198 1093.8413 723.1061 1090.5276 723.1061C1087.2139 723.1061 1084.5276 720.4198 1084.5276 717.1061C1084.5276 713.79236 1087.2139 711.1061 1090.5276 711.1061C1093.8413 711.1061 1096.5276 713.79236 1096.5276 717.1061Z" fill-rule="nonzero"/><path stroke="#ffffff" stroke-width="3.0" stroke-linejoin="round" stroke-linecap="round" d="M954.7422 465.89972L951.16406 465.89972L950.3672 468.1341L949.21094 468.1341L952.46094 459.60284L953.4453 459.60284L956.71094 468.1341L955.5547 468.1341L954.7422 465.89972ZM951.5078 464.97784L954.41406 464.97784L952.96094 460.99347L951.5078 464.97784Z" fill-rule="nonzero"/><path fill="#0000ff" d="M954.7422 465.89972L951.16406 465.89972L950.3672 468.1341L949.21094 468.1341L952.46094 459.60284L953.4453 459.60284L956.71094 468.1341L955.5547 468.1341L954.7422 465.89972ZM951.5078 464.97784L954.41406 464.97784L952.96094 460.99347L951.5078 464.97784Z" fill-rule="nonzero"/><path stroke="#ffffff" stroke-width="3.0" stroke-linejoin="round" stroke-linecap="round" d="M404.7394 622.4625L401.0363 622.4625L401.0363 625.47815L405.33316 625.47815L405.33316 626.4L399.9113 626.4L399.9113 617.8688L405.2863 617.8688L405.2863 618.79065L401.0363 618.79065L401.0363 621.54065L404.7394 621.54065L404.7394 622.4625Z" fill-rule="nonzero"/><path fill="#0000ff" d="M404.7394 622.4625L401.0363 622.4625L401.0363 625.47815L405.33316 625.47815L405.33316 626.4L399.9113 626.4L399.9113 617.8688L405.2863 617.8688L405.2863 618.79065L401.0363 618.79065L401.0363 621.54065L404.7394 621.54065L404.7394 622.4625Z" fill-rule="nonzero"/><path stroke="#ffffff" stroke-width="3.0" stroke-linejoin="round" stroke-linecap="round" d="M1085.9865 600.597L1082.2833 600.597L1082.2833 603.6126L1086.5802 603.6126L1086.5802 604.5345L1081.1583 604.5345L1081.1583 596.00323L1086.5333 596.00323L1086.5333 596.9251L1082.2833 596.9251L1082.2833 599.6751L1085.9865 599.6751L1085.9865 600.597ZM1088.6583 596.19073L1088.5333 598.347L1087.7833 598.347L1087.7833 595.5345L1088.6583 595.5345L1088.6583 596.19073Z" fill-rule="nonzero"/><path fill="#0000ff" d="M1085.9865 600.597L1082.2833 600.597L1082.2833 603.6126L1086.5802 603.6126L1086.5802 604.5345L1081.1583 604.5345L1081.1583 596.00323L1086.5333 596.00323L1086.5333 596.9251L1082.2833 596.9251L1082.2833 599.6751L1085.9865 599.6751L1085.9865 600.597ZM1088.6583 596.19073L1088.5333 598.347L1087.7833 598.347L1087.7833 595.5345L1088.6583 595.5345L1088.6583 596.19073Z" fill-rule="nonzero"/><path stroke="#ffffff" stroke-width="3.0" stroke-linejoin="round" stroke-linecap="round" d="M304.1247 698.47516L302.9997 698.47516L302.9997 689.9439L304.1247 689.9439L304.1247 698.47516Z" fill-rule="nonzero"/><path fill="#0000ff" d="M304.1247 698.47516L302.9997 698.47516L302.9997 689.9439L304.1247 689.9439L304.1247 698.47516Z" fill-rule="nonzero"/><path stroke="#ffffff" stroke-width="3.0" stroke-linejoin="round" stroke-linecap="round" d="M425.4503 653.2469L424.3253 653.2469L424.3253 644.71564L425.4503 644.71564L425.4503 653.2469ZM427.73154 644.90314L427.60654 647.0594L426.85654 647.0594L426.85654 644.2469L427.73154 644.2469L427.73154 644.90314Z" fill-rule="nonzero"/><path fill="#0000ff" d="M425.4503 653.2469L424.3253 653.2469L424.3253 644.71564L425.4503 644.71564L425.4503 653.2469ZM427.73154 644.90314L427.60654 647.0594L426.85654 647.0594L426.85654 644.2469L427.73154 644.2469L427.73154 644.90314Z" fill-rule="nonzero"/><path stroke="#ffffff" stroke-width="3.0" stroke-linejoin="round" stroke-linecap="round" d="M1318.7084 576.274Q1318.7084 577.524 1318.2865 578.4615Q1317.8646 579.38336 1317.0834 579.88336Q1316.3177 580.38336 1315.2865 580.38336Q1314.2865 580.38336 1313.5052 579.88336Q1312.724 579.38336 1312.2865 578.4771Q1311.8646 577.55524 1311.849 576.3365L1311.849 575.7271Q1311.849 574.49274 1312.2709 573.55524Q1312.7084 572.61774 1313.4896 572.11774Q1314.2709 571.6021 1315.2865 571.6021Q1316.3021 571.6021 1317.0834 572.1021Q1317.8646 572.6021 1318.2865 573.5396Q1318.7084 574.4771 1318.7084 575.7271L1318.7084 576.274ZM1317.599 575.7115Q1317.599 574.19586 1316.9896 573.38336Q1316.3802 572.57086 1315.2865 572.57086Q1314.2084 572.57086 1313.599 573.38336Q1312.9896 574.19586 1312.974 575.63336L1312.974 576.274Q1312.974 577.74274 1313.5834 578.5865Q1314.2084 579.4146 1315.2865 579.4146Q1316.3802 579.4146 1316.974 578.63336Q1317.5834 577.8365 1317.599 576.3521L1317.599 575.7115Z" fill-rule="nonzero"/><path fill="#0000ff" d="M1318.7084 576.274Q1318.7084 577.524 1318.2865 578.4615Q1317.8646 579.38336 1317.0834 579.88336Q1316.3177 580.38336 1315.2865 580.38336Q1314.2865 580.38336 1313.5052 579.88336Q1312.724 579.38336 1312.2865 578.4771Q1311.8646 577.55524 1311.849 576.3365L1311.849 575.7271Q1311.849 574.49274 1312.2709 573.55524Q1312.7084 572.61774 1313.4896 572.11774Q1314.2709 571.6021 1315.2865 571.6021Q1316.3021 571.6021 1317.0834 572.1021Q1317.8646 572.6021 1318.2865 573.5396Q1318.7084 574.4771 1318.7084 575.7271L1318.7084 576.274ZM1317.599 575.7115Q1317.599 574.19586 1316.9896 573.38336Q1316.3802 572.57086 1315.2865 572.57086Q1314.2084 572.57086 1313.599 573.38336Q1312.9896 574.19586 1312.974 575.63336L1312.974 576.274Q1312.974 577.74274 1313.5834 578.5865Q1314.2084 579.4146 1315.2865 579.4146Q1316.3802 579.4146 1316.974 578.63336Q1317.5834 577.8365 1317.599 576.3521L1317.599 575.7115Z" fill-rule="nonzero"/><path stroke="#ffffff" stroke-width="3.0" stroke-linejoin="round" stroke-linecap="round" d="M1093.5276 690.5748L1093.5276 696.3717Q1093.512 697.5748 1092.762 698.3561Q1092.012 699.1217 1090.7307 699.21545L1090.4182 699.2311Q1089.0276 699.2311 1088.1838 698.4811Q1087.3557 697.71545 1087.3557 696.3873L1087.3557 690.5748L1088.4651 690.5748L1088.4651 696.3561Q1088.4651 697.27795 1088.9651 697.7936Q1089.4807 698.3092 1090.4182 698.3092Q1091.387 698.3092 1091.887 697.7936Q1092.387 697.27795 1092.387 696.3561L1092.387 690.5748L1093.5276 690.5748Z" fill-rule="nonzero"/><path fill="#0000ff" d="M1093.5276 690.5748L1093.5276 696.3717Q1093.512 697.5748 1092.762 698.3561Q1092.012 699.1217 1090.7307 699.21545L1090.4182 699.2311Q1089.0276 699.2311 1088.1838 698.4811Q1087.3557 697.71545 1087.3557 696.3873L1087.3557 690.5748L1088.4651 690.5748L1088.4651 696.3561Q1088.4651 697.27795 1088.9651 697.7936Q1089.4807 698.3092 1090.4182 698.3092Q1091.387 698.3092 1091.887 697.7936Q1092.387 697.27795 1092.387 696.3561L1092.387 690.5748L1093.5276 690.5748Z" fill-rule="nonzero"/><path fill="#000000" d="M800.9844 913.75L800.9844 905.15625L806.78125 905.15625L806.78125 906.1719L802.125 906.1719L802.125 908.8281L806.15625 908.8281L806.15625 909.84375L802.125 909.84375L802.125 913.75L800.9844 913.75ZM813.0469 912.7344L813.0469 913.75L807.3594 913.75Q807.3594 913.375 807.4844 913.0156Q807.7031 912.4375 808.1719 911.875Q808.65625 911.3125 809.5625 910.5781Q810.96875 909.4219 811.4531 908.75Q811.9531 908.0781 811.9531 907.4844Q811.9531 906.8594 811.5 906.4375Q811.0469 906.0 810.3281 906.0Q809.5625 906.0 809.1094 906.4531Q808.65625 906.90625 808.6406 907.71875L807.5625 907.6094Q807.6719 906.3906 808.3906 905.7656Q809.125 905.125 810.3594 905.125Q811.59375 905.125 812.3125 905.8125Q813.03125 906.5 813.03125 907.5156Q813.03125 908.03125 812.8125 908.53125Q812.6094 909.0156 812.1094 909.5781Q811.625 910.125 810.5 911.0781Q809.5469 911.875 809.2656 912.1719Q809.0 912.4531 808.8281 912.7344L813.0469 912.7344ZM819.8125 916.28125Q818.9375 915.1719 818.3281 913.7031Q817.7344 912.21875 817.7344 910.6406Q817.7344 909.25 818.1719 907.96875Q818.7031 906.4844 819.8125 905.0156L820.5625 905.0156Q819.8594 906.2344 819.625 906.75Q819.2656 907.5625 819.0625 908.4375Q818.8125 909.53125 818.8125 910.6406Q818.8125 913.46875 820.5625 916.28125L819.8125 916.28125ZM821.96875 913.75L821.96875 905.15625L823.09375 905.15625L823.09375 908.6875L827.5625 908.6875L827.5625 905.15625L828.7031 905.15625L828.7031 913.75L827.5625 913.75L827.5625 909.7031L823.09375 909.7031L823.09375 913.75L821.96875 913.75ZM830.2344 913.75L830.2344 912.8906L834.2031 908.34375Q833.5156 908.375 833.0 908.375L830.46875 908.375L830.46875 907.53125L835.5625 907.53125L835.5625 908.21875L832.1875 912.1719L831.53125 912.8906Q832.25 912.84375 832.8594 912.84375L835.75 912.84375L835.75 913.75L830.2344 913.75ZM836.4844 916.28125L835.7344 916.28125Q837.4844 913.46875 837.4844 910.6406Q837.4844 909.5469 837.2344 908.4531Q837.03125 907.5781 836.6719 906.7656Q836.4375 906.25 835.7344 905.0156L836.4844 905.0156Q837.5781 906.4844 838.1094 907.96875Q838.5625 909.25 838.5625 910.6406Q838.5625 912.21875 837.9531 913.7031Q837.34375 915.1719 836.4844 916.28125Z" fill-rule="nonzero"/><path fill="#000000" d="M59.25 513.099L50.65625 513.099L50.65625 507.3021L51.671875 507.3021L51.671875 511.95834L54.328125 511.95834L54.328125 507.9271L55.34375 507.9271L55.34375 511.95834L59.25 511.95834L59.25 513.099ZM59.25 502.6146L59.25 503.66147L52.53125 503.66147Q52.890625 504.0521 53.265625 504.6771Q53.625 505.28647 53.796875 505.77084L52.78125 505.77084Q52.359375 504.89584 51.78125 504.2396Q51.1875 503.56772 50.625 503.28647L50.625 502.6146L59.25 502.6146ZM61.78125 494.27084Q60.671875 495.14584 59.203125 495.75522Q57.71875 496.34897 56.140625 496.34897Q54.75 496.34897 53.46875 495.91147Q51.984375 495.38022 50.515625 494.27084L50.515625 493.52084Q51.734375 494.22397 52.25 494.45834Q53.0625 494.81772 53.9375 495.02084Q55.03125 495.27084 56.140625 495.27084Q58.96875 495.27084 61.78125 493.52084L61.78125 494.27084ZM59.25 492.1146L50.65625 492.1146L50.65625 490.9896L54.1875 490.9896L54.1875 486.52084L50.65625 486.52084L50.65625 485.38022L59.25 485.38022L59.25 486.52084L55.203125 486.52084L55.203125 490.9896L59.25 490.9896L59.25 492.1146ZM59.25 483.84897L58.390625 483.84897L53.84375 479.88022Q53.875 480.56772 53.875 481.08334L53.875 483.6146L53.03125 483.6146L53.03125 478.52084L53.71875 478.52084L57.671875 481.89584L58.390625 482.5521Q58.34375 481.83334 58.34375 481.22397L58.34375 478.33334L59.25 478.33334L59.25 483.84897ZM61.78125 477.59897L61.78125 478.34897Q58.96875 476.59897 56.140625 476.59897Q55.046875 476.59897 53.953125 476.84897Q53.078125 477.0521 52.265625 477.41147Q51.75 477.64584 50.515625 478.34897L50.515625 477.59897Q51.984375 476.50522 53.46875 475.97397Q54.75 475.52084 56.140625 475.52084Q57.71875 475.52084 59.203125 476.13022Q60.671875 476.7396 61.78125 477.59897Z" fill-rule="nonzero"/><path fill="#000000" d="M93.296875 867.7344L93.296875 868.75L87.609375 868.75Q87.609375 868.375 87.734375 868.0156Q87.953125 867.4375 88.421875 866.875Q88.90625 866.3125 89.8125 865.5781Q91.21875 864.4219 91.703125 863.75Q92.203125 863.0781 92.203125 862.4844Q92.203125 861.8594 91.75 861.4375Q91.296875 861.0 90.578125 861.0Q89.8125 861.0 89.359375 861.4531Q88.90625 861.90625 88.890625 862.71875L87.8125 862.6094Q87.921875 861.3906 88.640625 860.7656Q89.375 860.125 90.609375 860.125Q91.84375 860.125 92.5625 860.8125Q93.28125 861.5 93.28125 862.5156Q93.28125 863.03125 93.0625 863.53125Q92.859375 864.0156 92.359375 864.5781Q91.875 865.125 90.75 866.0781Q89.796875 866.875 89.515625 867.1719Q89.25 867.4531 89.078125 867.7344L93.296875 867.7344ZM94.75 864.5156Q94.75 862.9844 95.0625 862.0625Q95.375 861.125 95.984375 860.625Q96.609375 860.125 97.546875 860.125Q98.234375 860.125 98.75 860.40625Q99.28125 860.6875 99.625 861.21875Q99.96875 861.7344 100.15625 862.4844Q100.34375 863.2344 100.34375 864.5156Q100.34375 866.03125 100.03125 866.9531Q99.734375 867.875 99.109375 868.3906Q98.5 868.8906 97.546875 868.8906Q96.3125 868.8906 95.59375 868.0Q94.75 866.9375 94.75 864.5156ZM95.828125 864.5156Q95.828125 866.625 96.328125 867.3281Q96.828125 868.03125 97.546875 868.03125Q98.28125 868.03125 98.765625 867.3281Q99.265625 866.625 99.265625 864.5156Q99.265625 862.3906 98.765625 861.7031Q98.28125 861.0 97.53125 861.0Q96.8125 861.0 96.375 861.6094Q95.828125 862.3906 95.828125 864.5156ZM101.75 864.5156Q101.75 862.9844 102.0625 862.0625Q102.375 861.125 102.984375 860.625Q103.609375 860.125 104.546875 860.125Q105.234375 860.125 105.75 860.40625Q106.28125 860.6875 106.625 861.21875Q106.96875 861.7344 107.15625 862.4844Q107.34375 863.2344 107.34375 864.5156Q107.34375 866.03125 107.03125 866.9531Q106.734375 867.875 106.109375 868.3906Q105.5 868.8906 104.546875 868.8906Q103.3125 868.8906 102.59375 868.0Q101.75 866.9375 101.75 864.5156ZM102.828125 864.5156Q102.828125 866.625 103.328125 867.3281Q103.828125 868.03125 104.546875 868.03125Q105.28125 868.03125 105.765625 867.3281Q106.265625 866.625 106.265625 864.5156Q106.265625 862.3906 105.765625 861.7031Q105.28125 861.0 104.53125 861.0Q103.8125 861.0 103.375 861.6094Q102.828125 862.3906 102.828125 864.5156Z" fill-rule="nonzero"/><path fill="#000000" d="M91.125 680.4167L91.125 678.3542L87.40625 678.3542L87.40625 677.38544L91.328125 671.82294L92.1875 671.82294L92.1875 677.38544L93.34375 677.38544L93.34375 678.3542L92.1875 678.3542L92.1875 680.4167L91.125 680.4167ZM91.125 677.38544L91.125 673.52606L88.4375 677.38544L91.125 677.38544ZM94.75 676.1823Q94.75 674.65106 95.0625 673.7292Q95.375 672.7917 95.984375 672.2917Q96.609375 671.7917 97.546875 671.7917Q98.234375 671.7917 98.75 672.07294Q99.28125 672.3542 99.625 672.88544Q99.96875 673.40106 100.15625 674.15106Q100.34375 674.90106 100.34375 676.1823Q100.34375 677.69794 100.03125 678.6198Q99.734375 679.5417 99.109375 680.0573Q98.5 680.5573 97.546875 680.5573Q96.3125 680.5573 95.59375 679.6667Q94.75 678.6042 94.75 676.1823ZM95.828125 676.1823Q95.828125 678.2917 96.328125 678.9948Q96.828125 679.69794 97.546875 679.69794Q98.28125 679.69794 98.765625 678.9948Q99.265625 678.2917 99.265625 676.1823Q99.265625 674.0573 98.765625 673.3698Q98.28125 672.6667 97.53125 672.6667Q96.8125 672.6667 96.375 673.27606Q95.828125 674.0573 95.828125 676.1823ZM101.75 676.1823Q101.75 674.65106 102.0625 673.7292Q102.375 672.7917 102.984375 672.2917Q103.609375 671.7917 104.546875 671.7917Q105.234375 671.7917 105.75 672.07294Q106.28125 672.3542 106.625 672.88544Q106.96875 673.40106 107.15625 674.15106Q107.34375 674.90106 107.34375 676.1823Q107.34375 677.69794 107.03125 678.6198Q106.734375 679.5417 106.109375 680.0573Q105.5 680.5573 104.546875 680.5573Q103.3125 680.5573 102.59375 679.6667Q101.75 678.6042 101.75 676.1823ZM102.828125 676.1823Q102.828125 678.2917 103.328125 678.9948Q103.828125 679.69794 104.546875 679.69794Q105.28125 679.69794 105.765625 678.9948Q106.265625 678.2917 106.265625 676.1823Q106.265625 674.0573 105.765625 673.3698Q105.28125 672.6667 104.53125 672.6667Q103.8125 672.6667 103.375 673.27606Q102.828125 674.0573 102.828125 676.1823Z" fill-rule="nonzero"/><path fill="#000000" d="M93.21875 485.59897L92.171875 485.6771Q92.03125 485.0521 91.78125 484.77084Q91.34375 484.31772 90.71875 484.31772Q90.21875 484.31772 89.828125 484.59897Q89.34375 484.97397 89.046875 485.6771Q88.765625 486.3646 88.75 487.64584Q89.125 487.06772 89.671875 486.78647Q90.234375 486.50522 90.84375 486.50522Q91.890625 486.50522 92.625 487.28647Q93.375 488.06772 93.375 489.28647Q93.375 490.09897 93.015625 490.8021Q92.671875 491.4896 92.0625 491.8646Q91.453125 492.22397 90.6875 492.22397Q89.359375 492.22397 88.53125 491.25522Q87.703125 490.28647 87.703125 488.06772Q87.703125 485.56772 88.625 484.44272Q89.421875 483.45834 90.78125 483.45834Q91.796875 483.45834 92.4375 484.03647Q93.09375 484.59897 93.21875 485.59897ZM88.921875 489.3021Q88.921875 489.84897 89.140625 490.34897Q89.375 490.83334 89.78125 491.09897Q90.203125 491.3646 90.671875 491.3646Q91.328125 491.3646 91.8125 490.83334Q92.296875 490.28647 92.296875 489.3646Q92.296875 488.47397 91.8125 487.95834Q91.34375 487.44272 90.625 487.44272Q89.90625 487.44272 89.40625 487.95834Q88.921875 488.47397 88.921875 489.3021ZM94.75 487.84897Q94.75 486.31772 95.0625 485.39584Q95.375 484.45834 95.984375 483.95834Q96.609375 483.45834 97.546875 483.45834Q98.234375 483.45834 98.75 483.7396Q99.28125 484.02084 99.625 484.5521Q99.96875 485.06772 100.15625 485.81772Q100.34375 486.56772 100.34375 487.84897Q100.34375 489.3646 100.03125 490.28647Q99.734375 491.20834 99.109375 491.72397Q98.5 492.22397 97.546875 492.22397Q96.3125 492.22397 95.59375 491.33334Q94.75 490.27084 94.75 487.84897ZM95.828125 487.84897Q95.828125 489.95834 96.328125 490.66147Q96.828125 491.3646 97.546875 491.3646Q98.28125 491.3646 98.765625 490.66147Q99.265625 489.95834 99.265625 487.84897Q99.265625 485.72397 98.765625 485.03647Q98.28125 484.33334 97.53125 484.33334Q96.8125 484.33334 96.375 484.94272Q95.828125 485.72397 95.828125 487.84897ZM101.75 487.84897Q101.75 486.31772 102.0625 485.39584Q102.375 484.45834 102.984375 483.95834Q103.609375 483.45834 104.546875 483.45834Q105.234375 483.45834 105.75 483.7396Q106.28125 484.02084 106.625 484.5521Q106.96875 485.06772 107.15625 485.81772Q107.34375 486.56772 107.34375 487.84897Q107.34375 489.3646 107.03125 490.28647Q106.734375 491.20834 106.109375 491.72397Q105.5 492.22397 104.546875 492.22397Q103.3125 492.22397 102.59375 491.33334Q101.75 490.27084 101.75 487.84897ZM102.828125 487.84897Q102.828125 489.95834 103.328125 490.66147Q103.828125 491.3646 104.546875 491.3646Q105.28125 491.3646 105.765625 490.66147Q106.265625 489.95834 106.265625 487.84897Q106.265625 485.72397 105.765625 485.03647Q105.28125 484.33334 104.53125 484.33334Q103.8125 484.33334 103.375 484.94272Q102.828125 485.72397 102.828125 487.84897Z" fill-rule="nonzero"/><path fill="#000000" d="M89.375 299.09375Q88.71875 298.84375 88.390625 298.40625Q88.078125 297.95312 88.078125 297.34375Q88.078125 296.40625 88.75 295.76562Q89.4375 295.125 90.546875 295.125Q91.671875 295.125 92.359375 295.78125Q93.046875 296.4375 93.046875 297.375Q93.046875 297.96875 92.734375 298.40625Q92.421875 298.84375 91.78125 299.09375Q92.578125 299.34375 92.984375 299.92188Q93.390625 300.5 93.390625 301.29688Q93.390625 302.39062 92.609375 303.14062Q91.84375 303.89062 90.5625 303.89062Q89.296875 303.89062 88.515625 303.14062Q87.734375 302.39062 87.734375 301.26562Q87.734375 300.42188 88.15625 299.85938Q88.59375 299.29688 89.375 299.09375ZM89.15625 297.29688Q89.15625 297.90625 89.546875 298.29688Q89.953125 298.6875 90.578125 298.6875Q91.1875 298.6875 91.578125 298.3125Q91.96875 297.92188 91.96875 297.35938Q91.96875 296.78125 91.5625 296.39062Q91.15625 295.98438 90.5625 295.98438Q89.953125 295.98438 89.546875 296.375Q89.15625 296.76562 89.15625 297.29688ZM88.828125 301.26562Q88.828125 301.71875 89.03125 302.14062Q89.25 302.5625 89.671875 302.79688Q90.09375 303.03125 90.578125 303.03125Q91.328125 303.03125 91.8125 302.54688Q92.3125 302.0625 92.3125 301.3125Q92.3125 300.54688 91.8125 300.04688Q91.3125 299.54688 90.546875 299.54688Q89.796875 299.54688 89.3125 300.04688Q88.828125 300.53125 88.828125 301.26562ZM94.75 299.51562Q94.75 297.98438 95.0625 297.0625Q95.375 296.125 95.984375 295.625Q96.609375 295.125 97.546875 295.125Q98.234375 295.125 98.75 295.40625Q99.28125 295.6875 99.625 296.21875Q99.96875 296.73438 100.15625 297.48438Q100.34375 298.23438 100.34375 299.51562Q100.34375 301.03125 100.03125 301.95312Q99.734375 302.875 99.109375 303.39062Q98.5 303.89062 97.546875 303.89062Q96.3125 303.89062 95.59375 303.0Q94.75 301.9375 94.75 299.51562ZM95.828125 299.51562Q95.828125 301.625 96.328125 302.32812Q96.828125 303.03125 97.546875 303.03125Q98.28125 303.03125 98.765625 302.32812Q99.265625 301.625 99.265625 299.51562Q99.265625 297.39062 98.765625 296.70312Q98.28125 296.0 97.53125 296.0Q96.8125 296.0 96.375 296.60938Q95.828125 297.39062 95.828125 299.51562ZM101.75 299.51562Q101.75 297.98438 102.0625 297.0625Q102.375 296.125 102.984375 295.625Q103.609375 295.125 104.546875 295.125Q105.234375 295.125 105.75 295.40625Q106.28125 295.6875 106.625 296.21875Q106.96875 296.73438 107.15625 297.48438Q107.34375 298.23438 107.34375 299.51562Q107.34375 301.03125 107.03125 301.95312Q106.734375 302.875 106.109375 303.39062Q105.5 303.89062 104.546875 303.89062Q103.3125 303.89062 102.59375 303.0Q101.75 301.9375 101.75 299.51562ZM102.828125 299.51562Q102.828125 301.625 103.328125 302.32812Q103.828125 303.03125 104.546875 303.03125Q105.28125 303.03125 105.765625 302.32812Q106.265625 301.625 106.265625 299.51562Q106.265625 297.39062 105.765625 296.70312Q105.28125 296.0 104.53125 296.0Q103.8125 296.0 103.375 296.60938Q102.828125 297.39062 102.828125 299.51562Z" fill-rule="nonzero"/><path fill="#000000" d="M84.71875 115.416664L83.671875 115.416664L83.671875 108.697914Q83.28125 109.05729 82.65625 109.43229Q82.046875 109.791664 81.5625 109.96354L81.5625 108.947914Q82.4375 108.52604 83.09375 107.947914Q83.765625 107.354164 84.046875 106.791664L84.71875 106.791664L84.71875 115.416664ZM87.75 111.18229Q87.75 109.65104 88.0625 108.729164Q88.375 107.791664 88.984375 107.291664Q89.609375 106.791664 90.546875 106.791664Q91.234375 106.791664 91.75 107.072914Q92.28125 107.354164 92.625 107.885414Q92.96875 108.40104 93.15625 109.15104Q93.34375 109.90104 93.34375 111.18229Q93.34375 112.697914 93.03125 113.61979Q92.734375 114.541664 92.109375 115.05729Q91.5 115.55729 90.546875 115.55729Q89.3125 115.55729 88.59375 114.666664Q87.75 113.604164 87.75 111.18229ZM88.828125 111.18229Q88.828125 113.291664 89.328125 113.99479Q89.828125 114.697914 90.546875 114.697914Q91.28125 114.697914 91.765625 113.99479Q92.265625 113.291664 92.265625 111.18229Q92.265625 109.05729 91.765625 108.36979Q91.28125 107.666664 90.53125 107.666664Q89.8125 107.666664 89.375 108.27604Q88.828125 109.05729 88.828125 111.18229ZM94.75 111.18229Q94.75 109.65104 95.0625 108.729164Q95.375 107.791664 95.984375 107.291664Q96.609375 106.791664 97.546875 106.791664Q98.234375 106.791664 98.75 107.072914Q99.28125 107.354164 99.625 107.885414Q99.96875 108.40104 100.15625 109.15104Q100.34375 109.90104 100.34375 111.18229Q100.34375 112.697914 100.03125 113.61979Q99.734375 114.541664 99.109375 115.05729Q98.5 115.55729 97.546875 115.55729Q96.3125 115.55729 95.59375 114.666664Q94.75 113.604164 94.75 111.18229ZM95.828125 111.18229Q95.828125 113.291664 96.328125 113.99479Q96.828125 114.697914 97.546875 114.697914Q98.28125 114.697914 98.765625 113.99479Q99.265625 113.291664 99.265625 111.18229Q99.265625 109.05729 98.765625 108.36979Q98.28125 107.666664 97.53125 107.666664Q96.8125 107.666664 96.375 108.27604Q95.828125 109.05729 95.828125 111.18229ZM101.75 111.18229Q101.75 109.65104 102.0625 108.729164Q102.375 107.791664 102.984375 107.291664Q103.609375 106.791664 104.546875 106.791664Q105.234375 106.791664 105.75 107.072914Q106.28125 107.354164 106.625 107.885414Q106.96875 108.40104 107.15625 109.15104Q107.34375 109.90104 107.34375 111.18229Q107.34375 112.697914 107.03125 113.61979Q106.734375 114.541664 106.109375 115.05729Q105.5 115.55729 104.546875 115.55729Q103.3125 115.55729 102.59375 114.666664Q101.75 113.604164 101.75 111.18229ZM102.828125 111.18229Q102.828125 113.291664 103.328125 113.99479Q103.828125 114.697914 104.546875 114.697914Q105.28125 114.697914 105.765625 113.99479Q106.265625 113.291664 106.265625 111.18229Q106.265625 109.05729 105.765625 108.36979Q105.28125 107.666664 104.53125 107.666664Q103.8125 107.666664 103.375 108.27604Q102.828125 109.05729 102.828125 111.18229Z" fill-rule="nonzero"/><path fill="#000000" d="M1516.375 877.09375Q1515.7188 876.84375 1515.3906 876.40625Q1515.0781 875.9531 1515.0781 875.34375Q1515.0781 874.40625 1515.75 873.7656Q1516.4375 873.125 1517.5469 873.125Q1518.6719 873.125 1519.3594 873.78125Q1520.0469 874.4375 1520.0469 875.375Q1520.0469 875.96875 1519.7344 876.40625Q1519.4219 876.84375 1518.7812 877.09375Q1519.5781 877.34375 1519.9844 877.9219Q1520.3906 878.5 1520.3906 879.2969Q1520.3906 880.3906 1519.6094 881.1406Q1518.8438 881.8906 1517.5625 881.8906Q1516.2969 881.8906 1515.5156 881.1406Q1514.7344 880.3906 1514.7344 879.2656Q1514.7344 878.4219 1515.1562 877.8594Q1515.5938 877.2969 1516.375 877.09375ZM1516.1562 875.2969Q1516.1562 875.90625 1516.5469 876.2969Q1516.9531 876.6875 1517.5781 876.6875Q1518.1875 876.6875 1518.5781 876.3125Q1518.9688 875.9219 1518.9688 875.3594Q1518.9688 874.78125 1518.5625 874.3906Q1518.1562 873.9844 1517.5625 873.9844Q1516.9531 873.9844 1516.5469 874.375Q1516.1562 874.7656 1516.1562 875.2969ZM1515.8281 879.2656Q1515.8281 879.71875 1516.0312 880.1406Q1516.25 880.5625 1516.6719 880.7969Q1517.0938 881.03125 1517.5781 881.03125Q1518.3281 881.03125 1518.8125 880.5469Q1519.3125 880.0625 1519.3125 879.3125Q1519.3125 878.5469 1518.8125 878.0469Q1518.3125 877.5469 1517.5469 877.5469Q1516.7969 877.5469 1516.3125 878.0469Q1515.8281 878.53125 1515.8281 879.2656ZM1521.75 877.5156Q1521.75 875.9844 1522.0625 875.0625Q1522.375 874.125 1522.9844 873.625Q1523.6094 873.125 1524.5469 873.125Q1525.2344 873.125 1525.75 873.40625Q1526.2812 873.6875 1526.625 874.21875Q1526.9688 874.7344 1527.1562 875.4844Q1527.3438 876.2344 1527.3438 877.5156Q1527.3438 879.03125 1527.0312 879.9531Q1526.7344 880.875 1526.1094 881.3906Q1525.5 881.8906 1524.5469 881.8906Q1523.3125 881.8906 1522.5938 881.0Q1521.75 879.9375 1521.75 877.5156ZM1522.8281 877.5156Q1522.8281 879.625 1523.3281 880.3281Q1523.8281 881.03125 1524.5469 881.03125Q1525.2812 881.03125 1525.7656 880.3281Q1526.2656 879.625 1526.2656 877.5156Q1526.2656 875.3906 1525.7656 874.7031Q1525.2812 874.0 1524.5312 874.0Q1523.8125 874.0 1523.375 874.6094Q1522.8281 875.3906 1522.8281 877.5156ZM1528.75 877.5156Q1528.75 875.9844 1529.0625 875.0625Q1529.375 874.125 1529.9844 873.625Q1530.6094 873.125 1531.5469 873.125Q1532.2344 873.125 1532.75 873.40625Q1533.2812 873.6875 1533.625 874.21875Q1533.9688 874.7344 1534.1562 875.4844Q1534.3438 876.2344 1534.3438 877.5156Q1534.3438 879.03125 1534.0312 879.9531Q1533.7344 880.875 1533.1094 881.3906Q1532.5 881.8906 1531.5469 881.8906Q1530.3125 881.8906 1529.5938 881.0Q1528.75 879.9375 1528.75 877.5156ZM1529.8281 877.5156Q1529.8281 879.625 1530.3281 880.3281Q1530.8281 881.03125 1531.5469 881.03125Q1532.2812 881.03125 1532.7656 880.3281Q1533.2656 879.625 1533.2656 877.5156Q1533.2656 875.3906 1532.7656 874.7031Q1532.2812 874.0 1531.5312 874.0Q1530.8125 874.0 1530.375 874.6094Q1529.8281 875.3906 1529.8281 877.5156Z" fill-rule="nonzero"/><path fill="#000000" d="M1280.1354 881.75L1279.0885 881.75L1279.0885 875.03125Q1278.6979 875.3906 1278.0729 875.7656Q1277.4635 876.125 1276.9791 876.2969L1276.9791 875.28125Q1277.8541 874.8594 1278.5104 874.28125Q1279.1823 873.6875 1279.4635 873.125L1280.1354 873.125L1280.1354 881.75ZM1283.1666 877.5156Q1283.1666 875.9844 1283.4791 875.0625Q1283.7916 874.125 1284.401 873.625Q1285.026 873.125 1285.9635 873.125Q1286.651 873.125 1287.1666 873.40625Q1287.6979 873.6875 1288.0416 874.21875Q1288.3854 874.7344 1288.5729 875.4844Q1288.7604 876.2344 1288.7604 877.5156Q1288.7604 879.03125 1288.4479 879.9531Q1288.151 880.875 1287.526 881.3906Q1286.9166 881.8906 1285.9635 881.8906Q1284.7291 881.8906 1284.0104 881.0Q1283.1666 879.9375 1283.1666 877.5156ZM1284.2448 877.5156Q1284.2448 879.625 1284.7448 880.3281Q1285.2448 881.03125 1285.9635 881.03125Q1286.6979 881.03125 1287.1823 880.3281Q1287.6823 879.625 1287.6823 877.5156Q1287.6823 875.3906 1287.1823 874.7031Q1286.6979 874.0 1285.9479 874.0Q1285.2291 874.0 1284.7916 874.6094Q1284.2448 875.3906 1284.2448 877.5156ZM1290.1666 877.5156Q1290.1666 875.9844 1290.4791 875.0625Q1290.7916 874.125 1291.401 873.625Q1292.026 873.125 1292.9635 873.125Q1293.651 873.125 1294.1666 873.40625Q1294.6979 873.6875 1295.0416 874.21875Q1295.3854 874.7344 1295.5729 875.4844Q1295.7604 876.2344 1295.7604 877.5156Q1295.7604 879.03125 1295.4479 879.9531Q1295.151 880.875 1294.526 881.3906Q1293.9166 881.8906 1292.9635 881.8906Q1291.7291 881.8906 1291.0104 881.0Q1290.1666 879.9375 1290.1666 877.5156ZM1291.2448 877.5156Q1291.2448 879.625 1291.7448 880.3281Q1292.2448 881.03125 1292.9635 881.03125Q1293.6979 881.03125 1294.1823 880.3281Q1294.6823 879.625 1294.6823 877.5156Q1294.6823 875.3906 1294.1823 874.7031Q1293.6979 874.0 1292.9479 874.0Q1292.2291 874.0 1291.7916 874.6094Q1291.2448 875.3906 1291.2448 877.5156ZM1297.1666 877.5156Q1297.1666 875.9844 1297.4791 875.0625Q1297.7916 874.125 1298.401 873.625Q1299.026 873.125 1299.9635 873.125Q1300.651 873.125 1301.1666 873.40625Q1301.6979 873.6875 1302.0416 874.21875Q1302.3854 874.7344 1302.5729 875.4844Q1302.7604 876.2344 1302.7604 877.5156Q1302.7604 879.03125 1302.4479 879.9531Q1302.151 880.875 1301.526 881.3906Q1300.9166 881.8906 1299.9635 881.8906Q1298.7291 881.8906 1298.0104 881.0Q1297.1666 879.9375 1297.1666 877.5156ZM1298.2448 877.5156Q1298.2448 879.625 1298.7448 880.3281Q1299.2448 881.03125 1299.9635 881.03125Q1300.6979 881.03125 1301.1823 880.3281Q1301.6823 879.625 1301.6823 877.5156Q1301.6823 875.3906 1301.1823 874.7031Q1300.6979 874.0 1299.9479 874.0Q1299.2291 874.0 1298.7916 874.6094Q1298.2448 875.3906 1298.2448 877.5156Z" fill-rule="nonzero"/><path fill="#000000" d="M1045.0521 881.75L1044.0052 881.75L1044.0052 875.03125Q1043.6146 875.3906 1042.9896 875.7656Q1042.3802 876.125 1041.8959 876.2969L1041.8959 875.28125Q1042.7709 874.8594 1043.4271 874.28125Q1044.099 873.6875 1044.3802 873.125L1045.0521 873.125L1045.0521 881.75ZM1053.6302 880.7344L1053.6302 881.75L1047.9427 881.75Q1047.9427 881.375 1048.0677 881.0156Q1048.2865 880.4375 1048.7552 879.875Q1049.2396 879.3125 1050.1459 878.5781Q1051.5521 877.4219 1052.0365 876.75Q1052.5365 876.0781 1052.5365 875.4844Q1052.5365 874.8594 1052.0834 874.4375Q1051.6302 874.0 1050.9115 874.0Q1050.1459 874.0 1049.6927 874.4531Q1049.2396 874.90625 1049.224 875.71875L1048.1459 875.6094Q1048.2552 874.3906 1048.974 873.7656Q1049.7084 873.125 1050.9427 873.125Q1052.1771 873.125 1052.8959 873.8125Q1053.6146 874.5 1053.6146 875.5156Q1053.6146 876.03125 1053.3959 876.53125Q1053.1927 877.0156 1052.6927 877.5781Q1052.2084 878.125 1051.0834 879.0781Q1050.1302 879.875 1049.849 880.1719Q1049.5834 880.4531 1049.4115 880.7344L1053.6302 880.7344ZM1055.0834 877.5156Q1055.0834 875.9844 1055.3959 875.0625Q1055.7084 874.125 1056.3177 873.625Q1056.9427 873.125 1057.8802 873.125Q1058.5677 873.125 1059.0834 873.40625Q1059.6146 873.6875 1059.9584 874.21875Q1060.3021 874.7344 1060.4896 875.4844Q1060.6771 876.2344 1060.6771 877.5156Q1060.6771 879.03125 1060.3646 879.9531Q1060.0677 880.875 1059.4427 881.3906Q1058.8334 881.8906 1057.8802 881.8906Q1056.6459 881.8906 1055.9271 881.0Q1055.0834 879.9375 1055.0834 877.5156ZM1056.1615 877.5156Q1056.1615 879.625 1056.6615 880.3281Q1057.1615 881.03125 1057.8802 881.03125Q1058.6146 881.03125 1059.099 880.3281Q1059.599 879.625 1059.599 877.5156Q1059.599 875.3906 1059.099 874.7031Q1058.6146 874.0 1057.8646 874.0Q1057.1459 874.0 1056.7084 874.6094Q1056.1615 875.3906 1056.1615 877.5156ZM1062.0834 877.5156Q1062.0834 875.9844 1062.3959 875.0625Q1062.7084 874.125 1063.3177 873.625Q1063.9427 873.125 1064.8802 873.125Q1065.5677 873.125 1066.0834 873.40625Q1066.6146 873.6875 1066.9584 874.21875Q1067.3021 874.7344 1067.4896 875.4844Q1067.6771 876.2344 1067.6771 877.5156Q1067.6771 879.03125 1067.3646 879.9531Q1067.0677 880.875 1066.4427 881.3906Q1065.8334 881.8906 1064.8802 881.8906Q1063.6459 881.8906 1062.9271 881.0Q1062.0834 879.9375 1062.0834 877.5156ZM1063.1615 877.5156Q1063.1615 879.625 1063.6615 880.3281Q1064.1615 881.03125 1064.8802 881.03125Q1065.6146 881.03125 1066.099 880.3281Q1066.599 879.625 1066.599 877.5156Q1066.599 875.3906 1066.099 874.7031Q1065.6146 874.0 1064.8646 874.0Q1064.1459 874.0 1063.7084 874.6094Q1063.1615 875.3906 1063.1615 877.5156Z" fill-rule="nonzero"/><path fill="#000000" d="M809.96875 881.75L808.9219 881.75L808.9219 875.03125Q808.53125 875.3906 807.90625 875.7656Q807.2969 876.125 806.8125 876.2969L806.8125 875.28125Q807.6875 874.8594 808.34375 874.28125Q809.0156 873.6875 809.2969 873.125L809.96875 873.125L809.96875 881.75ZM816.375 881.75L816.375 879.6875L812.65625 879.6875L812.65625 878.71875L816.5781 873.15625L817.4375 873.15625L817.4375 878.71875L818.59375 878.71875L818.59375 879.6875L817.4375 879.6875L817.4375 881.75L816.375 881.75ZM816.375 878.71875L816.375 874.8594L813.6875 878.71875L816.375 878.71875ZM820.0 877.5156Q820.0 875.9844 820.3125 875.0625Q820.625 874.125 821.2344 873.625Q821.8594 873.125 822.7969 873.125Q823.4844 873.125 824.0 873.40625Q824.53125 873.6875 824.875 874.21875Q825.21875 874.7344 825.40625 875.4844Q825.59375 876.2344 825.59375 877.5156Q825.59375 879.03125 825.28125 879.9531Q824.9844 880.875 824.3594 881.3906Q823.75 881.8906 822.7969 881.8906Q821.5625 881.8906 820.84375 881.0Q820.0 879.9375 820.0 877.5156ZM821.0781 877.5156Q821.0781 879.625 821.5781 880.3281Q822.0781 881.03125 822.7969 881.03125Q823.53125 881.03125 824.0156 880.3281Q824.5156 879.625 824.5156 877.5156Q824.5156 875.3906 824.0156 874.7031Q823.53125 874.0 822.78125 874.0Q822.0625 874.0 821.625 874.6094Q821.0781 875.3906 821.0781 877.5156ZM827.0 877.5156Q827.0 875.9844 827.3125 875.0625Q827.625 874.125 828.2344 873.625Q828.8594 873.125 829.7969 873.125Q830.4844 873.125 831.0 873.40625Q831.53125 873.6875 831.875 874.21875Q832.21875 874.7344 832.40625 875.4844Q832.59375 876.2344 832.59375 877.5156Q832.59375 879.03125 832.28125 879.9531Q831.9844 880.875 831.3594 881.3906Q830.75 881.8906 829.7969 881.8906Q828.5625 881.8906 827.84375 881.0Q827.0 879.9375 827.0 877.5156ZM828.0781 877.5156Q828.0781 879.625 828.5781 880.3281Q829.0781 881.03125 829.7969 881.03125Q830.53125 881.03125 831.0156 880.3281Q831.5156 879.625 831.5156 877.5156Q831.5156 875.3906 831.0156 874.7031Q830.53125 874.0 829.78125 874.0Q829.0625 874.0 828.625 874.6094Q828.0781 875.3906 828.0781 877.5156Z" fill-rule="nonzero"/><path fill="#000000" d="M574.88544 881.75L573.83856 881.75L573.83856 875.03125Q573.44794 875.3906 572.82294 875.7656Q572.21356 876.125 571.7292 876.2969L571.7292 875.28125Q572.6042 874.8594 573.26044 874.28125Q573.9323 873.6875 574.21356 873.125L574.88544 873.125L574.88544 881.75ZM583.38544 875.2656L582.33856 875.34375Q582.19794 874.71875 581.94794 874.4375Q581.51044 873.9844 580.88544 873.9844Q580.38544 873.9844 579.9948 874.2656Q579.51044 874.6406 579.21356 875.34375Q578.9323 876.03125 578.9167 877.3125Q579.2917 876.7344 579.83856 876.4531Q580.40106 876.1719 581.01044 876.1719Q582.0573 876.1719 582.7917 876.9531Q583.5417 877.7344 583.5417 878.9531Q583.5417 879.7656 583.1823 880.46875Q582.83856 881.15625 582.2292 881.53125Q581.6198 881.8906 580.8542 881.8906Q579.52606 881.8906 578.69794 880.9219Q577.8698 879.9531 577.8698 877.7344Q577.8698 875.2344 578.7917 874.1094Q579.58856 873.125 580.94794 873.125Q581.96356 873.125 582.6042 873.7031Q583.26044 874.2656 583.38544 875.2656ZM579.08856 878.96875Q579.08856 879.5156 579.3073 880.0156Q579.5417 880.5 579.94794 880.7656Q580.3698 881.03125 580.83856 881.03125Q581.4948 881.03125 581.9792 880.5Q582.46356 879.9531 582.46356 879.03125Q582.46356 878.1406 581.9792 877.625Q581.51044 877.1094 580.7917 877.1094Q580.07294 877.1094 579.57294 877.625Q579.08856 878.1406 579.08856 878.96875ZM584.9167 877.5156Q584.9167 875.9844 585.2292 875.0625Q585.5417 874.125 586.15106 873.625Q586.77606 873.125 587.71356 873.125Q588.40106 873.125 588.9167 873.40625Q589.44794 873.6875 589.7917 874.21875Q590.13544 874.7344 590.32294 875.4844Q590.51044 876.2344 590.51044 877.5156Q590.51044 879.03125 590.19794 879.9531Q589.90106 880.875 589.27606 881.3906Q588.6667 881.8906 587.71356 881.8906Q586.4792 881.8906 585.76044 881.0Q584.9167 879.9375 584.9167 877.5156ZM585.9948 877.5156Q585.9948 879.625 586.4948 880.3281Q586.9948 881.03125 587.71356 881.03125Q588.44794 881.03125 588.9323 880.3281Q589.4323 879.625 589.4323 877.5156Q589.4323 875.3906 588.9323 874.7031Q588.44794 874.0 587.69794 874.0Q586.9792 874.0 586.5417 874.6094Q585.9948 875.3906 585.9948 877.5156ZM591.9167 877.5156Q591.9167 875.9844 592.2292 875.0625Q592.5417 874.125 593.15106 873.625Q593.77606 873.125 594.71356 873.125Q595.40106 873.125 595.9167 873.40625Q596.44794 873.6875 596.7917 874.21875Q597.13544 874.7344 597.32294 875.4844Q597.51044 876.2344 597.51044 877.5156Q597.51044 879.03125 597.19794 879.9531Q596.90106 880.875 596.27606 881.3906Q595.6667 881.8906 594.71356 881.8906Q593.4792 881.8906 592.76044 881.0Q591.9167 879.9375 591.9167 877.5156ZM592.9948 877.5156Q592.9948 879.625 593.4948 880.3281Q593.9948 881.03125 594.71356 881.03125Q595.44794 881.03125 595.9323 880.3281Q596.4323 879.625 596.4323 877.5156Q596.4323 875.3906 595.9323 874.7031Q595.44794 874.0 594.69794 874.0Q593.9792 874.0 593.5417 874.6094Q592.9948 875.3906 592.9948 877.5156Z" fill-rule="nonzero"/><path fill="#000000" d="M339.8021 881.75L338.75522 881.75L338.75522 875.03125Q338.3646 875.3906 337.7396 875.7656Q337.13022 876.125 336.64584 876.2969L336.64584 875.28125Q337.52084 874.8594 338.1771 874.28125Q338.84897 873.6875 339.13022 873.125L339.8021 873.125L339.8021 881.75ZM344.45834 877.09375Q343.8021 876.84375 343.47397 876.40625Q343.16147 875.9531 343.16147 875.34375Q343.16147 874.40625 343.83334 873.7656Q344.52084 873.125 345.63022 873.125Q346.75522 873.125 347.44272 873.78125Q348.13022 874.4375 348.13022 875.375Q348.13022 875.96875 347.81772 876.40625Q347.50522 876.84375 346.8646 877.09375Q347.66147 877.34375 348.06772 877.9219Q348.47397 878.5 348.47397 879.2969Q348.47397 880.3906 347.69272 881.1406Q346.9271 881.8906 345.64584 881.8906Q344.38022 881.8906 343.59897 881.1406Q342.81772 880.3906 342.81772 879.2656Q342.81772 878.4219 343.2396 877.8594Q343.6771 877.2969 344.45834 877.09375ZM344.2396 875.2969Q344.2396 875.90625 344.63022 876.2969Q345.03647 876.6875 345.66147 876.6875Q346.27084 876.6875 346.66147 876.3125Q347.0521 875.9219 347.0521 875.3594Q347.0521 874.78125 346.64584 874.3906Q346.2396 873.9844 345.64584 873.9844Q345.03647 873.9844 344.63022 874.375Q344.2396 874.7656 344.2396 875.2969ZM343.91147 879.2656Q343.91147 879.71875 344.1146 880.1406Q344.33334 880.5625 344.75522 880.7969Q345.1771 881.03125 345.66147 881.03125Q346.41147 881.03125 346.89584 880.5469Q347.39584 880.0625 347.39584 879.3125Q347.39584 878.5469 346.89584 878.0469Q346.39584 877.5469 345.63022 877.5469Q344.88022 877.5469 344.39584 878.0469Q343.91147 878.53125 343.91147 879.2656ZM349.83334 877.5156Q349.83334 875.9844 350.14584 875.0625Q350.45834 874.125 351.06772 873.625Q351.69272 873.125 352.63022 873.125Q353.31772 873.125 353.83334 873.40625Q354.3646 873.6875 354.70834 874.21875Q355.0521 874.7344 355.2396 875.4844Q355.4271 876.2344 355.4271 877.5156Q355.4271 879.03125 355.1146 879.9531Q354.81772 880.875 354.19272 881.3906Q353.58334 881.8906 352.63022 881.8906Q351.39584 881.8906 350.6771 881.0Q349.83334 879.9375 349.83334 877.5156ZM350.91147 877.5156Q350.91147 879.625 351.41147 880.3281Q351.91147 881.03125 352.63022 881.03125Q353.3646 881.03125 353.84897 880.3281Q354.34897 879.625 354.34897 877.5156Q354.34897 875.3906 353.84897 874.7031Q353.3646 874.0 352.6146 874.0Q351.89584 874.0 351.45834 874.6094Q350.91147 875.3906 350.91147 877.5156ZM356.83334 877.5156Q356.83334 875.9844 357.14584 875.0625Q357.45834 874.125 358.06772 873.625Q358.69272 873.125 359.63022 873.125Q360.31772 873.125 360.83334 873.40625Q361.3646 873.6875 361.70834 874.21875Q362.0521 874.7344 362.2396 875.4844Q362.4271 876.2344 362.4271 877.5156Q362.4271 879.03125 362.1146 879.9531Q361.81772 880.875 361.19272 881.3906Q360.58334 881.8906 359.63022 881.8906Q358.39584 881.8906 357.6771 881.0Q356.83334 879.9375 356.83334 877.5156ZM357.91147 877.5156Q357.91147 879.625 358.41147 880.3281Q358.91147 881.03125 359.63022 881.03125Q360.3646 881.03125 360.84897 880.3281Q361.34897 879.625 361.34897 877.5156Q361.34897 875.3906 360.84897 874.7031Q360.3646 874.0 359.6146 874.0Q358.89584 874.0 358.45834 874.6094Q357.91147 875.3906 357.91147 877.5156Z" fill-rule="nonzero"/><path fill="#000000" d="M106.296875 880.7344L106.296875 881.75L100.609375 881.75Q100.609375 881.375 100.734375 881.0156Q100.953125 880.4375 101.421875 879.875Q101.90625 879.3125 102.8125 878.5781Q104.21875 877.4219 104.703125 876.75Q105.203125 876.0781 105.203125 875.4844Q105.203125 874.8594 104.75 874.4375Q104.296875 874.0 103.578125 874.0Q102.8125 874.0 102.359375 874.4531Q101.90625 874.90625 101.890625 875.71875L100.8125 875.6094Q100.921875 874.3906 101.640625 873.7656Q102.375 873.125 103.609375 873.125Q104.84375 873.125 105.5625 873.8125Q106.28125 874.5 106.28125 875.5156Q106.28125 876.03125 106.0625 876.53125Q105.859375 877.0156 105.359375 877.5781Q104.875 878.125 103.75 879.0781Q102.796875 879.875 102.515625 880.1719Q102.25 880.4531 102.078125 880.7344L106.296875 880.7344ZM107.75 877.5156Q107.75 875.9844 108.0625 875.0625Q108.375 874.125 108.984375 873.625Q109.609375 873.125 110.546875 873.125Q111.234375 873.125 111.75 873.40625Q112.28125 873.6875 112.625 874.21875Q112.96875 874.7344 113.15625 875.4844Q113.34375 876.2344 113.34375 877.5156Q113.34375 879.03125 113.03125 879.9531Q112.734375 880.875 112.109375 881.3906Q111.5 881.8906 110.546875 881.8906Q109.3125 881.8906 108.59375 881.0Q107.75 879.9375 107.75 877.5156ZM108.828125 877.5156Q108.828125 879.625 109.328125 880.3281Q109.828125 881.03125 110.546875 881.03125Q111.28125 881.03125 111.765625 880.3281Q112.265625 879.625 112.265625 877.5156Q112.265625 875.3906 111.765625 874.7031Q111.28125 874.0 110.53125 874.0Q109.8125 874.0 109.375 874.6094Q108.828125 875.3906 108.828125 877.5156ZM114.75 877.5156Q114.75 875.9844 115.0625 875.0625Q115.375 874.125 115.984375 873.625Q116.609375 873.125 117.546875 873.125Q118.234375 873.125 118.75 873.40625Q119.28125 873.6875 119.625 874.21875Q119.96875 874.7344 120.15625 875.4844Q120.34375 876.2344 120.34375 877.5156Q120.34375 879.03125 120.03125 879.9531Q119.734375 880.875 119.109375 881.3906Q118.5 881.8906 117.546875 881.8906Q116.3125 881.8906 115.59375 881.0Q114.75 879.9375 114.75 877.5156ZM115.828125 877.5156Q115.828125 879.625 116.328125 880.3281Q116.828125 881.03125 117.546875 881.03125Q118.28125 881.03125 118.765625 880.3281Q119.265625 879.625 119.265625 877.5156Q119.265625 875.3906 118.765625 874.7031Q118.28125 874.0 117.53125 874.0Q116.8125 874.0 116.375 874.6094Q115.828125 875.3906 115.828125 877.5156ZM121.75 877.5156Q121.75 875.9844 122.0625 875.0625Q122.375 874.125 122.984375 873.625Q123.609375 873.125 124.546875 873.125Q125.234375 873.125 125.75 873.40625Q126.28125 873.6875 126.625 874.21875Q126.96875 874.7344 127.15625 875.4844Q127.34375 876.2344 127.34375 877.5156Q127.34375 879.03125 127.03125 879.9531Q126.734375 880.875 126.109375 881.3906Q125.5 881.8906 124.546875 881.8906Q123.3125 881.8906 122.59375 881.0Q121.75 879.9375 121.75 877.5156ZM122.828125 877.5156Q122.828125 879.625 123.328125 880.3281Q123.828125 881.03125 124.546875 881.03125Q125.28125 881.03125 125.765625 880.3281Q126.265625 879.625 126.265625 877.5156Q126.265625 875.3906 125.765625 874.7031Q125.28125 874.0 124.53125 874.0Q123.8125 874.0 123.375 874.6094Q122.828125 875.3906 122.828125 877.5156Z" fill-rule="nonzero"/><path fill="#757575" d="M49.734375 67.25L49.734375 52.9375L52.59375 52.9375L55.96875 63.0625Q56.4375 64.484375 56.65625 65.1875Q56.90625 64.40625 57.421875 62.890625L60.84375 52.9375L63.390625 52.9375L63.390625 67.25L61.578125 67.25L61.578125 55.265625L57.40625 67.25L55.703125 67.25L51.5625 55.0625L51.5625 67.25L49.734375 67.25ZM73.671875 63.90625L75.484375 64.140625Q75.0625 65.71875 73.890625 66.609375Q72.734375 67.484375 70.921875 67.484375Q68.65625 67.484375 67.3125 66.09375Q65.984375 64.6875 65.984375 62.15625Q65.984375 59.53125 67.328125 58.09375Q68.671875 56.640625 70.828125 56.640625Q72.90625 56.640625 74.21875 58.0625Q75.546875 59.46875 75.546875 62.046875Q75.546875 62.203125 75.53125 62.515625L67.796875 62.515625Q67.890625 64.21875 68.765625 65.125Q69.640625 66.03125 70.9375 66.03125Q71.90625 66.03125 72.578125 65.53125Q73.265625 65.015625 73.671875 63.90625ZM67.890625 61.0625L73.6875 61.0625Q73.578125 59.765625 73.03125 59.109375Q72.1875 58.09375 70.84375 58.09375Q69.640625 58.09375 68.8125 58.90625Q67.984375 59.703125 67.890625 61.0625ZM84.34375 65.96875Q83.359375 66.796875 82.453125 67.140625Q81.546875 67.484375 80.515625 67.484375Q78.8125 67.484375 77.890625 66.65625Q76.96875 65.8125 76.96875 64.515625Q76.96875 63.75 77.3125 63.125Q77.671875 62.5 78.234375 62.125Q78.796875 61.734375 79.5 61.53125Q80.015625 61.40625 81.0625 61.265625Q83.1875 61.015625 84.1875 60.671875Q84.203125 60.3125 84.203125 60.203125Q84.203125 59.140625 83.703125 58.6875Q83.03125 58.09375 81.703125 58.09375Q80.453125 58.09375 79.859375 58.53125Q79.28125 58.96875 79.0 60.078125L77.28125 59.84375Q77.515625 58.734375 78.046875 58.0625Q78.578125 57.375 79.59375 57.015625Q80.609375 56.640625 81.953125 56.640625Q83.28125 56.640625 84.109375 56.953125Q84.9375 57.265625 85.328125 57.75Q85.71875 58.21875 85.875 58.9375Q85.96875 59.390625 85.96875 60.5625L85.96875 62.90625Q85.96875 65.359375 86.078125 66.015625Q86.1875 66.65625 86.53125 67.25L84.6875 67.25Q84.421875 66.703125 84.34375 65.96875ZM84.1875 62.046875Q83.234375 62.4375 81.3125 62.703125Q80.234375 62.859375 79.78125 63.0625Q79.34375 63.25 79.09375 63.625Q78.84375 64.0 78.84375 64.46875Q78.84375 65.171875 79.375 65.640625Q79.90625 66.109375 80.9375 66.109375Q81.953125 66.109375 82.734375 65.671875Q83.53125 65.21875 83.90625 64.453125Q84.1875 63.84375 84.1875 62.6875L84.1875 62.046875ZM88.5625 67.25L88.5625 56.875L90.15625 56.875L90.15625 58.359375Q91.296875 56.640625 93.453125 56.640625Q94.390625 56.640625 95.171875 56.984375Q95.96875 57.3125 96.359375 57.859375Q96.75 58.40625 96.90625 59.15625Q97.0 59.65625 97.0 60.875L97.0 67.25L95.234375 67.25L95.234375 60.9375Q95.234375 59.859375 95.03125 59.328125Q94.828125 58.796875 94.296875 58.484375Q93.78125 58.171875 93.078125 58.171875Q91.953125 58.171875 91.140625 58.890625Q90.328125 59.59375 90.328125 61.578125L90.328125 67.25L88.5625 67.25ZM104.890625 67.25L104.890625 52.9375L114.546875 52.9375L114.546875 54.625L106.78125 54.625L106.78125 59.0625L113.5 59.0625L113.5 60.75L106.78125 60.75L106.78125 67.25L104.890625 67.25ZM125.3125 65.5625L125.3125 67.25L115.859375 67.25Q115.84375 66.609375 116.0625 66.03125Q116.421875 65.0625 117.21875 64.125Q118.015625 63.1875 119.515625 61.953125Q121.859375 60.046875 122.671875 58.9375Q123.5 57.8125 123.5 56.8125Q123.5 55.765625 122.75 55.046875Q122.0 54.328125 120.796875 54.328125Q119.53125 54.328125 118.765625 55.09375Q118.0 55.859375 118.0 57.203125L116.1875 57.015625Q116.375 55.0 117.578125 53.9375Q118.796875 52.875 120.84375 52.875Q122.890625 52.875 124.09375 54.015625Q125.296875 55.15625 125.296875 56.84375Q125.296875 57.703125 124.9375 58.546875Q124.59375 59.375 123.78125 60.296875Q122.96875 61.203125 121.078125 62.8125Q119.484375 64.140625 119.03125 64.609375Q118.59375 65.078125 118.296875 65.5625L125.3125 65.5625ZM136.45312 67.25L132.5 56.875L134.35938 56.875L136.59375 63.09375Q136.95312 64.09375 137.25 65.171875Q137.48438 64.359375 137.90625 63.203125L140.20312 56.875L142.01562 56.875L138.09375 67.25L136.45312 67.25ZM141.85938 64.15625L143.60938 63.875Q143.75 64.921875 144.42188 65.484375Q145.09375 66.03125 146.29688 66.03125Q147.5 66.03125 148.07812 65.546875Q148.67188 65.046875 148.67188 64.390625Q148.67188 63.796875 148.15625 63.453125Q147.79688 63.21875 146.35938 62.859375Q144.42188 62.359375 143.67188 62.015625Q142.9375 61.65625 142.54688 61.03125Q142.15625 60.390625 142.15625 59.625Q142.15625 58.9375 142.46875 58.34375Q142.79688 57.75 143.34375 57.359375Q143.75 57.0625 144.45312 56.859375Q145.17188 56.640625 145.98438 56.640625Q147.20312 56.640625 148.125 57.0Q149.04688 57.34375 149.48438 57.953125Q149.92188 58.546875 150.09375 59.546875L148.375 59.78125Q148.25 58.984375 147.6875 58.546875Q147.125 58.09375 146.10938 58.09375Q144.89062 58.09375 144.375 58.5Q143.85938 58.890625 143.85938 59.421875Q143.85938 59.765625 144.07812 60.046875Q144.28125 60.328125 144.75 60.515625Q145.01562 60.609375 146.29688 60.953125Q148.17188 61.453125 148.90625 61.78125Q149.64062 62.09375 150.0625 62.703125Q150.48438 63.296875 150.48438 64.203125Q150.48438 65.078125 149.96875 65.859375Q149.45312 66.640625 148.48438 67.0625Q147.51562 67.484375 146.29688 67.484375Q144.28125 67.484375 143.21875 66.640625Q142.15625 65.796875 141.85938 64.15625ZM158.89062 67.25L158.89062 52.9375L168.54688 52.9375L168.54688 54.625L160.78125 54.625L160.78125 59.0625L167.5 59.0625L167.5 60.75L160.78125 60.75L160.78125 67.25L158.89062 67.25ZM176.70312 67.25L174.9375 67.25L174.9375 56.046875Q174.3125 56.65625 173.28125 57.265625Q172.25 57.859375 171.42188 58.171875L171.42188 56.46875Q172.90625 55.78125 174.0 54.796875Q175.10938 53.796875 175.5625 52.875L176.70312 52.875L176.70312 67.25ZM186.89062 62.953125L186.89062 61.1875L192.28125 61.1875L192.28125 62.953125L186.89062 62.953125ZM200.73438 67.25L200.73438 52.9375L203.59375 52.9375L206.96875 63.0625Q207.4375 64.484375 207.65625 65.1875Q207.90625 64.40625 208.42188 62.890625L211.84375 52.9375L214.39062 52.9375L214.39062 67.25L212.57812 67.25L212.57812 55.265625L208.40625 67.25L206.70312 67.25L202.5625 55.0625L202.5625 67.25L200.73438 67.25ZM224.34375 65.96875Q223.35938 66.796875 222.45312 67.140625Q221.54688 67.484375 220.51562 67.484375Q218.8125 67.484375 217.89062 66.65625Q216.96875 65.8125 216.96875 64.515625Q216.96875 63.75 217.3125 63.125Q217.67188 62.5 218.23438 62.125Q218.79688 61.734375 219.5 61.53125Q220.01562 61.40625 221.0625 61.265625Q223.1875 61.015625 224.1875 60.671875Q224.20312 60.3125 224.20312 60.203125Q224.20312 59.140625 223.70312 58.6875Q223.03125 58.09375 221.70312 58.09375Q220.45312 58.09375 219.85938 58.53125Q219.28125 58.96875 219.0 60.078125L217.28125 59.84375Q217.51562 58.734375 218.04688 58.0625Q218.57812 57.375 219.59375 57.015625Q220.60938 56.640625 221.95312 56.640625Q223.28125 56.640625 224.10938 56.953125Q224.9375 57.265625 225.32812 57.75Q225.71875 58.21875 225.875 58.9375Q225.96875 59.390625 225.96875 60.5625L225.96875 62.90625Q225.96875 65.359375 226.07812 66.015625Q226.1875 66.65625 226.53125 67.25L224.6875 67.25Q224.42188 66.703125 224.34375 65.96875ZM224.1875 62.046875Q223.23438 62.4375 221.3125 62.703125Q220.23438 62.859375 219.78125 63.0625Q219.34375 63.25 219.09375 63.625Q218.84375 64.0 218.84375 64.46875Q218.84375 65.171875 219.375 65.640625Q219.90625 66.109375 220.9375 66.109375Q221.95312 66.109375 222.73438 65.671875Q223.53125 65.21875 223.90625 64.453125Q224.1875 63.84375 224.1875 62.6875L224.1875 62.046875ZM228.53125 67.25L228.53125 52.9375L230.28125 52.9375L230.28125 67.25L228.53125 67.25ZM239.67188 63.90625L241.48438 64.140625Q241.0625 65.71875 239.89062 66.609375Q238.73438 67.484375 236.92188 67.484375Q234.65625 67.484375 233.3125 66.09375Q231.98438 64.6875 231.98438 62.15625Q231.98438 59.53125 233.32812 58.09375Q234.67188 56.640625 236.82812 56.640625Q238.90625 56.640625 240.21875 58.0625Q241.54688 59.46875 241.54688 62.046875Q241.54688 62.203125 241.53125 62.515625L233.79688 62.515625Q233.89062 64.21875 234.76562 65.125Q235.64062 66.03125 236.9375 66.03125Q237.90625 66.03125 238.57812 65.53125Q239.26562 65.015625 239.67188 63.90625ZM233.89062 61.0625L239.6875 61.0625Q239.57812 59.765625 239.03125 59.109375Q238.1875 58.09375 236.84375 58.09375Q235.64062 58.09375 234.8125 58.90625Q233.98438 59.703125 233.89062 61.0625ZM249.70312 67.25L247.9375 67.25L247.9375 56.046875Q247.3125 56.65625 246.28125 57.265625Q245.25 57.859375 244.42188 58.171875L244.42188 56.46875Q245.90625 55.78125 247.0 54.796875Q248.10938 53.796875 248.5625 52.875L249.70312 52.875L249.70312 67.25Z" fill-rule="nonzero"/></svg>