<svg version="1.1" viewBox="0.0 0.0 569.0 349.0" fill="none" stroke="none" stroke-linecap="square" stroke-miterlimit="10" width="569" height="349" xmlns:xlink="http://www.w3.org/1999/xlink" xmlns="http://www.w3.org/2000/svg"><path fill="#ffffff" d="M0 0L569.0 0L569.0 349.0L0 349.0L0 0Z" fill-rule="nonzero"/><path stroke="#cccccc" stroke-width="1.0" stroke-linecap="butt" d="M551.5 60.5L551.5 279.5" fill-rule="nonzero"/><path stroke="#cccccc" stroke-width="1.0" stroke-linecap="butt" d="M474.5 60.5L474.5 279.5" fill-rule="nonzero"/><path stroke="#cccccc" stroke-width="1.0" stroke-linecap="butt" d="M396.5 60.5L396.5 279.5" fill-rule="nonzero"/><path stroke="#cccccc" stroke-width="1.0" stroke-linecap="butt" d="M319.5 60.5L319.5 279.5" fill-rule="nonzero"/><path stroke="#cccccc" stroke-width="1.0" stroke-linecap="butt" d="M241.5 60.5L241.5 279.5" fill-rule="nonzero"/><path stroke="#cccccc" stroke-width="1.0" stroke-linecap="butt" d="M163.5 60.5L163.5 279.5" fill-rule="nonzero"/><path stroke="#cccccc" stroke-width="1.0" stroke-linecap="butt" d="M86.5 60.5L86.5 279.5" fill-rule="nonzero"/><path stroke="#e6e6e6" stroke-width="1.0" stroke-linecap="butt" d="M512.5 60.5L512.5 279.5" fill-rule="nonzero"/><path stroke="#e6e6e6" stroke-width="1.0" stroke-linecap="butt" d="M435.5 60.5L435.5 279.5" fill-rule="nonzero"/><path stroke="#e6e6e6" stroke-width="1.0" stroke-linecap="butt" d="M357.5 60.5L357.5 279.5" fill-rule="nonzero"/><path stroke="#e6e6e6" stroke-width="1.0" stroke-linecap="butt" d="M280.5 60.5L280.5 279.5" fill-rule="nonzero"/><path stroke="#e6e6e6" stroke-width="1.0" stroke-linecap="butt" d="M202.5 60.5L202.5 279.5" fill-rule="nonzero"/><path stroke="#e6e6e6" stroke-width="1.0" stroke-linecap="butt" d="M125.5 60.5L125.5 279.5" fill-rule="nonzero"/><path stroke="#cccccc" stroke-width="1.0" stroke-linecap="butt" d="M86.5 279.5L551.5 279.5" fill-rule="nonzero"/><path stroke="#cccccc" stroke-width="1.0" stroke-linecap="butt" d="M86.5 224.5L551.5 224.5" fill-rule="nonzero"/><path stroke="#cccccc" stroke-width="1.0" stroke-linecap="butt" d="M86.5 169.5L551.5 169.5" fill-rule="nonzero"/><path stroke="#cccccc" stroke-width="1.0" stroke-linecap="butt" d="M86.5 114.5L551.5 114.5" fill-rule="nonzero"/><path stroke="#cccccc" stroke-width="1.0" stroke-linecap="butt" d="M86.5 60.5L551.5 60.5" fill-rule="nonzero"/><path stroke="#e6e6e6" stroke-width="1.0" stroke-linecap="butt" d="M86.5 252.5L551.5 252.5" fill-rule="nonzero"/><path stroke="#e6e6e6" stroke-width="1.0" stroke-linecap="butt" d="M86.5 197.5L551.5 197.5" fill-rule="nonzero"/><path stroke="#e6e6e6" stroke-width="1.0" stroke-linecap="butt" d="M86.5 142.5L551.5 142.5" fill-rule="nonzero"/><path stroke="#e6e6e6" stroke-width="1.0" stroke-linecap="butt" d="M86.5 87.5L551.5 87.5" fill-rule="nonzero"/><path stroke="#eeeeee" stroke-width="1.0" stroke-linecap="butt" d="M363.03336 154.38454L363.03336 170.38454" fill-rule="nonzero"/><path stroke="#eeeeee" stroke-width="1.0" stroke-linecap="butt" d="M181.4738 108.277336L181.4738 124.277336" fill-rule="nonzero"/><path stroke="#eeeeee" stroke-width="1.0" stroke-linecap="butt" d="M406.4388 114.647354L406.4388 130.64735" fill-rule="nonzero"/><path stroke="#eeeeee" stroke-width="1.0" stroke-linecap="butt" d="M148.82767 87.27986L148.82767 103.27986" fill-rule="nonzero"/><path stroke="#eeeeee" stroke-width="1.0" stroke-linecap="butt" d="M189.16345 100.45609L189.16345 116.45609" fill-rule="nonzero"/><path stroke="#eeeeee" stroke-width="1.0" stroke-linecap="butt" d="M482.44 121.719666L482.44 137.71967" fill-rule="nonzero"/><path stroke="#eeeeee" stroke-width="1.0" stroke-linecap="butt" d="M408.36896 87.096054L408.36896 103.096054" fill-rule="nonzero"/><clipPath id="id_0"><path d="M86.45 60.083332L551.55 60.083332L551.55 279.55L86.45 279.55L86.45 60.083332Z" clip-rule="nonzero"/></clipPath><path fill="#0000ff" clip-path="url(#id_0)" d="M369.03336 170.38454C369.03336 173.69824 366.34705 176.38454 363.03336 176.38454C359.71964 176.38454 357.03336 173.69824 357.03336 170.38454C357.03336 167.07083 359.71964 164.38454 363.03336 164.38454C366.34705 164.38454 369.03336 167.07083 369.03336 170.38454Z" fill-rule="nonzero"/><path fill="#0000ff" clip-path="url(#id_0)" d="M187.4738 124.277336C187.4738 127.59104 184.78752 130.27733 181.4738 130.27733C178.1601 130.27733 175.4738 127.59104 175.4738 124.277336C175.4738 120.96362 178.1601 118.277336 181.4738 118.277336C184.78752 118.277336 187.4738 120.96362 187.4738 124.277336Z" fill-rule="nonzero"/><path fill="#0000ff" clip-path="url(#id_0)" d="M412.4388 130.64735C412.4388 133.96106 409.7525 136.64735 406.4388 136.64735C403.1251 136.64735 400.4388 133.96106 400.4388 130.64735C400.4388 127.33364 403.1251 124.647354 406.4388 124.647354C409.7525 124.647354 412.4388 127.33364 412.4388 130.64735Z" fill-rule="nonzero"/><path fill="#0000ff" clip-path="url(#id_0)" d="M154.82767 103.27986C154.82767 106.59357 152.14137 109.27986 148.82767 109.27986C145.51395 109.27986 142.82767 106.59357 142.82767 103.27986C142.82767 99.96615 145.51395 97.27986 148.82767 97.27986C152.14137 97.27986 154.82767 99.96615 154.82767 103.27986Z" fill-rule="nonzero"/><path fill="#0000ff" clip-path="url(#id_0)" d="M195.16345 116.45609C195.16345 119.7698 192.47717 122.45609 189.16345 122.45609C185.84975 122.45609 183.16345 119.7698 183.16345 116.45609C183.16345 113.14238 185.84975 110.45609 189.16345 110.45609C192.47717 110.45609 195.16345 113.14238 195.16345 116.45609Z" fill-rule="nonzero"/><path fill="#0000ff" clip-path="url(#id_0)" d="M488.44 137.71967C488.44 141.03337 485.75372 143.71967 482.44 143.71967C479.1263 143.71967 476.44 141.03337 476.44 137.71967C476.44 134.40596 479.1263 131.71967 482.44 131.71967C485.75372 131.71967 488.44 134.40596 488.44 137.71967Z" fill-rule="nonzero"/><path fill="#0000ff" clip-path="url(#id_0)" d="M414.36896 103.096054C414.36896 106.40977 411.68268 109.096054 408.36896 109.096054C405.05527 109.096054 402.36896 106.40977 402.36896 103.096054C402.36896 99.78235 405.05527 97.096054 408.36896 97.096054C411.68268 97.096054 414.36896 99.78235 414.36896 103.096054Z" fill-rule="nonzero"/><path stroke="#ffffff" stroke-width="3.0" stroke-linejoin="round" stroke-linecap="round" d="M364.73648 150.15016L361.15836 150.15016L360.36148 152.38454L359.20523 152.38454L362.45523 143.85329L363.4396 143.85329L366.70523 152.38454L365.54898 152.38454L364.73648 150.15016ZM361.5021 149.22829L364.40836 149.22829L362.95523 145.24391L361.5021 149.22829Z" fill-rule="nonzero"/><path fill="#0000ff" d="M364.73648 150.15016L361.15836 150.15016L360.36148 152.38454L359.20523 152.38454L362.45523 143.85329L363.4396 143.85329L366.70523 152.38454L365.54898 152.38454L364.73648 150.15016ZM361.5021 149.22829L364.40836 149.22829L362.95523 145.24391L361.5021 149.22829Z" fill-rule="nonzero"/><path stroke="#ffffff" stroke-width="3.0" stroke-linejoin="round" stroke-linecap="round" d="M183.7863 102.339836L180.08318 102.339836L180.08318 105.35546L184.38005 105.35546L184.38005 106.277336L178.95818 106.277336L178.95818 97.746086L184.33318 97.746086L184.33318 98.66796L180.08318 98.66796L180.08318 101.41796L183.7863 101.41796L183.7863 102.339836Z" fill-rule="nonzero"/><path fill="#0000ff" d="M183.7863 102.339836L180.08318 102.339836L180.08318 105.35546L184.38005 105.35546L184.38005 106.277336L178.95818 106.277336L178.95818 97.746086L184.33318 97.746086L184.33318 98.66796L180.08318 98.66796L180.08318 101.41796L183.7863 101.41796L183.7863 102.339836Z" fill-rule="nonzero"/><path stroke="#ffffff" stroke-width="3.0" stroke-linejoin="round" stroke-linecap="round" d="M407.7513 108.709854L404.0482 108.709854L404.0482 111.72548L408.34506 111.72548L408.34506 112.647354L402.9232 112.647354L402.9232 104.116104L408.2982 104.116104L408.2982 105.03798L404.0482 105.03798L404.0482 107.78798L407.7513 107.78798L407.7513 108.709854ZM410.4232 104.303604L410.2982 106.459854L409.5482 106.459854L409.5482 103.647354L410.4232 103.647354L410.4232 104.303604Z" fill-rule="nonzero"/><path fill="#0000ff" d="M407.7513 108.709854L404.0482 108.709854L404.0482 111.72548L408.34506 111.72548L408.34506 112.647354L402.9232 112.647354L402.9232 104.116104L408.2982 104.116104L408.2982 105.03798L404.0482 105.03798L404.0482 107.78798L407.7513 107.78798L407.7513 108.709854ZM410.4232 104.303604L410.2982 106.459854L409.5482 106.459854L409.5482 103.647354L410.4232 103.647354L410.4232 104.303604Z" fill-rule="nonzero"/><path stroke="#ffffff" stroke-width="3.0" stroke-linejoin="round" stroke-linecap="round" d="M149.53079 85.27986L148.40579 85.27986L148.40579 76.74861L149.53079 76.74861L149.53079 85.27986Z" fill-rule="nonzero"/><path fill="#0000ff" d="M149.53079 85.27986L148.40579 85.27986L148.40579 76.74861L149.53079 76.74861L149.53079 85.27986Z" fill-rule="nonzero"/><path stroke="#ffffff" stroke-width="3.0" stroke-linejoin="round" stroke-linecap="round" d="M188.86658 98.45609L187.74158 98.45609L187.74158 89.92484L188.86658 89.92484L188.86658 98.45609ZM191.14783 90.11234L191.02283 92.26859L190.27283 92.26859L190.27283 89.45609L191.14783 89.45609L191.14783 90.11234Z" fill-rule="nonzero"/><path fill="#0000ff" d="M188.86658 98.45609L187.74158 98.45609L187.74158 89.92484L188.86658 89.92484L188.86658 98.45609ZM191.14783 90.11234L191.02283 92.26859L190.27283 92.26859L190.27283 89.45609L191.14783 89.45609L191.14783 90.11234Z" fill-rule="nonzero"/><path stroke="#ffffff" stroke-width="3.0" stroke-linejoin="round" stroke-linecap="round" d="M485.98688 115.73529Q485.98688 116.98529 485.565 117.92279Q485.14313 118.844666 484.36188 119.344666Q483.59625 119.844666 482.565 119.844666Q481.565 119.844666 480.78375 119.344666Q480.0025 118.844666 479.565 117.938416Q479.14313 117.01654 479.1275 115.79779L479.1275 115.188416Q479.1275 113.95404 479.54938 113.01654Q479.98688 112.07904 480.76813 111.57904Q481.54938 111.063416 482.565 111.063416Q483.58063 111.063416 484.36188 111.563416Q485.14313 112.063416 485.565 113.000916Q485.98688 113.938416 485.98688 115.188416L485.98688 115.73529ZM484.8775 115.17279Q484.8775 113.657166 484.26813 112.844666Q483.65875 112.032166 482.565 112.032166Q481.48688 112.032166 480.8775 112.844666Q480.26813 113.657166 480.2525 115.094666L480.2525 115.73529Q480.2525 117.20404 480.86188 118.04779Q481.48688 118.875916 482.565 118.875916Q483.65875 118.875916 484.2525 118.094666Q484.86188 117.29779 484.8775 115.813416L484.8775 115.17279Z" fill-rule="nonzero"/><path fill="#0000ff" d="M485.98688 115.73529Q485.98688 116.98529 485.565 117.92279Q485.14313 118.844666 484.36188 119.344666Q483.59625 119.844666 482.565 119.844666Q481.565 119.844666 480.78375 119.344666Q480.0025 118.844666 479.565 117.938416Q479.14313 117.01654 479.1275 115.79779L479.1275 115.188416Q479.1275 113.95404 479.54938 113.01654Q479.98688 112.07904 480.76813 111.57904Q481.54938 111.063416 482.565 111.063416Q483.58063 111.063416 484.36188 111.563416Q485.14313 112.063416 485.565 113.000916Q485.98688 113.938416 485.98688 115.188416L485.98688 115.73529ZM484.8775 115.17279Q484.8775 113.657166 484.26813 112.844666Q483.65875 112.032166 482.565 112.032166Q481.48688 112.032166 480.8775 112.844666Q480.26813 113.657166 480.2525 115.094666L480.2525 115.73529Q480.2525 117.20404 480.86188 118.04779Q481.48688 118.875916 482.565 118.875916Q483.65875 118.875916 484.2525 118.094666Q484.86188 117.29779 484.8775 115.813416L484.8775 115.17279Z" fill-rule="nonzero"/><path stroke="#ffffff" stroke-width="3.0" stroke-linejoin="round" stroke-linecap="round" d="M411.36896 76.564804L411.36896 82.36168Q411.35333 83.564804 410.60333 84.346054Q409.85333 85.11168 408.57208 85.20543L408.25958 85.221054Q406.86896 85.221054 406.0252 84.471054Q405.19708 83.70543 405.19708 82.377304L405.19708 76.564804L406.30646 76.564804L406.30646 82.346054Q406.30646 83.26793 406.80646 83.783554Q407.32208 84.29918 408.25958 84.29918Q409.22833 84.29918 409.72833 83.783554Q410.22833 83.26793 410.22833 82.346054L410.22833 76.564804L411.36896 76.564804Z" fill-rule="nonzero"/><path fill="#0000ff" d="M411.36896 76.564804L411.36896 82.36168Q411.35333 83.564804 410.60333 84.346054Q409.85333 85.11168 408.57208 85.20543L408.25958 85.221054Q406.86896 85.221054 406.0252 84.471054Q405.19708 83.70543 405.19708 82.377304L405.19708 76.564804L406.30646 76.564804L406.30646 82.346054Q406.30646 83.26793 406.80646 83.783554Q407.32208 84.29918 408.25958 84.29918Q409.22833 84.29918 409.72833 83.783554Q410.22833 83.26793 410.22833 82.346054L410.22833 76.564804L411.36896 76.564804Z" fill-rule="nonzero"/><path fill="#000000" d="M300.48438 328.55L300.48438 319.95624L306.28125 319.95624L306.28125 320.97186L301.625 320.97186L301.625 323.6281L305.65625 323.6281L305.65625 324.64374L301.625 324.64374L301.625 328.55L300.48438 328.55ZM312.54688 327.53436L312.54688 328.55L306.85938 328.55Q306.85938 328.175 306.98438 327.8156Q307.20312 327.2375 307.67188 326.675Q308.15625 326.1125 309.0625 325.3781Q310.46875 324.22186 310.95312 323.55Q311.45312 322.8781 311.45312 322.28436Q311.45312 321.65936 311.0 321.2375Q310.54688 320.8 309.82812 320.8Q309.0625 320.8 308.60938 321.2531Q308.15625 321.70624 308.14062 322.51874L307.0625 322.40936Q307.17188 321.1906 307.89062 320.5656Q308.625 319.925 309.85938 319.925Q311.09375 319.925 311.8125 320.6125Q312.53125 321.3 312.53125 322.3156Q312.53125 322.83124 312.3125 323.33124Q312.10938 323.8156 311.60938 324.3781Q311.125 324.925 310.0 325.8781Q309.04688 326.675 308.76562 326.97186Q308.5 327.2531 308.32812 327.53436L312.54688 327.53436ZM319.3125 331.08124Q318.4375 329.97186 317.82812 328.5031Q317.23438 327.01874 317.23438 325.4406Q317.23438 324.05 317.67188 322.76874Q318.20312 321.28436 319.3125 319.8156L320.0625 319.8156Q319.35938 321.03436 319.125 321.55Q318.76562 322.3625 318.5625 323.2375Q318.3125 324.33124 318.3125 325.4406Q318.3125 328.26874 320.0625 331.08124L319.3125 331.08124ZM321.46875 328.55L321.46875 319.95624L322.59375 319.95624L322.59375 323.4875L327.0625 323.4875L327.0625 319.95624L328.20312 319.95624L328.20312 328.55L327.0625 328.55L327.0625 324.5031L322.59375 324.5031L322.59375 328.55L321.46875 328.55ZM329.73438 328.55L329.73438 327.6906L333.70312 323.14374Q333.01562 323.175 332.5 323.175L329.96875 323.175L329.96875 322.33124L335.0625 322.33124L335.0625 323.01874L331.6875 326.97186L331.03125 327.6906Q331.75 327.64374 332.35938 327.64374L335.25 327.64374L335.25 328.55L329.73438 328.55ZM335.98438 331.08124L335.23438 331.08124Q336.98438 328.26874 336.98438 325.4406Q336.98438 324.34686 336.73438 323.2531Q336.53125 322.3781 336.17188 321.5656Q335.9375 321.05 335.23438 319.8156L335.98438 319.8156Q337.07812 321.28436 337.60938 322.76874Q338.0625 324.05 338.0625 325.4406Q338.0625 327.01874 337.45312 328.5031Q336.84375 329.97186 335.98438 331.08124Z" fill-rule="nonzero"/><path fill="#000000" d="M28.449987 194.83229L19.856237 194.83229L19.856237 189.03542L20.871862 189.03542L20.871862 193.69167L23.528112 193.69167L23.528112 189.66042L24.543737 189.66042L24.543737 193.69167L28.449987 193.69167L28.449987 194.83229ZM28.449987 184.34792L28.449987 185.39479L21.731237 185.39479Q22.090612 185.78542 22.465612 186.41042Q22.824987 187.01979 22.996862 187.50417L21.981237 187.50417Q21.559362 186.62917 20.981237 185.97292Q20.387487 185.30104 19.824987 185.01979L19.824987 184.34792L28.449987 184.34792ZM30.981237 176.00417Q29.871862 176.87917 28.403112 177.48854Q26.918737 178.08229 25.340612 178.08229Q23.949987 178.08229 22.668737 177.64479Q21.184362 177.11354 19.715612 176.00417L19.715612 175.25417Q20.934362 175.95729 21.449987 176.19167Q22.262487 176.55104 23.137487 176.75417Q24.231237 177.00417 25.340612 177.00417Q28.168737 177.00417 30.981237 175.25417L30.981237 176.00417ZM28.449987 173.84792L19.856237 173.84792L19.856237 172.72292L23.387487 172.72292L23.387487 168.25417L19.856237 168.25417L19.856237 167.11354L28.449987 167.11354L28.449987 168.25417L24.403112 168.25417L24.403112 172.72292L28.449987 172.72292L28.449987 173.84792ZM28.449987 165.58229L27.590612 165.58229L23.043737 161.61354Q23.074987 162.30104 23.074987 162.81667L23.074987 165.34792L22.231237 165.34792L22.231237 160.25417L22.918737 160.25417L26.871862 163.62917L27.590612 164.28542Q27.543737 163.56667 27.543737 162.95729L27.543737 160.06667L28.449987 160.06667L28.449987 165.58229ZM30.981237 159.33229L30.981237 160.08229Q28.168737 158.33229 25.340612 158.33229Q24.246862 158.33229 23.153112 158.58229Q22.278112 158.78542 21.465612 159.14479Q20.949987 159.37917 19.715612 160.08229L19.715612 159.33229Q21.184362 158.23854 22.668737 157.70729Q23.949987 157.25417 25.340612 157.25417Q26.918737 157.25417 28.403112 157.86354Q29.871862 158.47292 30.981237 159.33229Z" fill-rule="nonzero"/><path fill="#000000" d="M53.91875 283.55L52.871876 283.55L52.871876 276.83124Q52.48125 277.1906 51.85625 277.5656Q51.246876 277.925 50.7625 278.09686L50.7625 277.08124Q51.6375 276.65936 52.29375 276.08124Q52.965626 275.4875 53.246876 274.925L53.91875 274.925L53.91875 283.55ZM57.5125 283.55L57.5125 282.34686L58.715626 282.34686L58.715626 283.55Q58.715626 284.20624 58.48125 284.6125Q58.246876 285.03436 57.746876 285.2531L57.45 284.8Q57.778126 284.65936 57.934376 284.3625Q58.090626 284.08124 58.121876 283.55L57.5125 283.55ZM59.95 279.3156Q59.95 277.78436 60.2625 276.8625Q60.575 275.925 61.184376 275.425Q61.809376 274.925 62.746876 274.925Q63.434376 274.925 63.95 275.20624Q64.48125 275.4875 64.825 276.01874Q65.16875 276.53436 65.35625 277.28436Q65.54375 278.03436 65.54375 279.3156Q65.54375 280.83124 65.23125 281.7531Q64.93437 282.675 64.30937 283.1906Q63.7 283.6906 62.746876 283.6906Q61.5125 283.6906 60.79375 282.8Q59.95 281.7375 59.95 279.3156ZM61.028126 279.3156Q61.028126 281.425 61.528126 282.1281Q62.028126 282.83124 62.746876 282.83124Q63.48125 282.83124 63.965626 282.1281Q64.46562 281.425 64.46562 279.3156Q64.46562 277.1906 63.965626 276.5031Q63.48125 275.8 62.73125 275.8Q62.0125 275.8 61.575 276.40936Q61.028126 277.1906 61.028126 279.3156ZM66.95 279.3156Q66.95 277.78436 67.2625 276.8625Q67.575 275.925 68.18437 275.425Q68.80937 274.925 69.74687 274.925Q70.43437 274.925 70.95 275.20624Q71.48125 275.4875 71.825 276.01874Q72.16875 276.53436 72.35625 277.28436Q72.54375 278.03436 72.54375 279.3156Q72.54375 280.83124 72.23125 281.7531Q71.93437 282.675 71.30937 283.1906Q70.7 283.6906 69.74687 283.6906Q68.5125 283.6906 67.79375 282.8Q66.95 281.7375 66.95 279.3156ZM68.02812 279.3156Q68.02812 281.425 68.52812 282.1281Q69.02812 282.83124 69.74687 282.83124Q70.48125 282.83124 70.96562 282.1281Q71.46562 281.425 71.46562 279.3156Q71.46562 277.1906 70.96562 276.5031Q70.48125 275.8 69.73125 275.8Q69.0125 275.8 68.575 276.40936Q68.02812 277.1906 68.02812 279.3156ZM73.95 279.3156Q73.95 277.78436 74.2625 276.8625Q74.575 275.925 75.18437 275.425Q75.80937 274.925 76.74687 274.925Q77.43437 274.925 77.95 275.20624Q78.48125 275.4875 78.825 276.01874Q79.16875 276.53436 79.35625 277.28436Q79.54375 278.03436 79.54375 279.3156Q79.54375 280.83124 79.23125 281.7531Q78.93437 282.675 78.30937 283.1906Q77.7 283.6906 76.74687 283.6906Q75.5125 283.6906 74.79375 282.8Q73.95 281.7375 73.95 279.3156ZM75.02812 279.3156Q75.02812 281.425 75.52812 282.1281Q76.02812 282.83124 76.74687 282.83124Q77.48125 282.83124 77.96562 282.1281Q78.46562 281.425 78.46562 279.3156Q78.46562 277.1906 77.96562 276.5031Q77.48125 275.8 76.73125 275.8Q76.0125 275.8 75.575 276.40936Q75.02812 277.1906 75.02812 279.3156Z" fill-rule="nonzero"/><path fill="#000000" d="M61.575 224.02708Q60.91875 223.77708 60.590626 223.33958Q60.278126 222.88646 60.278126 222.27708Q60.278126 221.33958 60.95 220.69896Q61.6375 220.05833 62.746876 220.05833Q63.871876 220.05833 64.55937 220.71458Q65.24687 221.37083 65.24687 222.30833Q65.24687 222.90208 64.93437 223.33958Q64.62187 223.77708 63.98125 224.02708Q64.77812 224.27708 65.18437 224.85521Q65.59062 225.43333 65.59062 226.23021Q65.59062 227.32396 64.80937 228.07396Q64.04375 228.82396 62.7625 228.82396Q61.496876 228.82396 60.715626 228.07396Q59.934376 227.32396 59.934376 226.19896Q59.934376 225.35521 60.35625 224.79271Q60.79375 224.23021 61.575 224.02708ZM61.35625 222.23021Q61.35625 222.83958 61.746876 223.23021Q62.153126 223.62083 62.778126 223.62083Q63.3875 223.62083 63.778126 223.24583Q64.16875 222.85521 64.16875 222.29271Q64.16875 221.71458 63.7625 221.32396Q63.35625 220.91771 62.7625 220.91771Q62.153126 220.91771 61.746876 221.30833Q61.35625 221.69896 61.35625 222.23021ZM61.028126 226.19896Q61.028126 226.65208 61.23125 227.07396Q61.45 227.49583 61.871876 227.73021Q62.29375 227.96458 62.778126 227.96458Q63.528126 227.96458 64.0125 227.48021Q64.5125 226.99583 64.5125 226.24583Q64.5125 225.48021 64.0125 224.98021Q63.5125 224.48021 62.746876 224.48021Q61.996876 224.48021 61.5125 224.98021Q61.028126 225.46458 61.028126 226.19896ZM66.95 224.44896Q66.95 222.91771 67.2625 221.99583Q67.575 221.05833 68.18437 220.55833Q68.80937 220.05833 69.74687 220.05833Q70.43437 220.05833 70.95 220.33958Q71.48125 220.62083 71.825 221.15208Q72.16875 221.66771 72.35625 222.41771Q72.54375 223.16771 72.54375 224.44896Q72.54375 225.96458 72.23125 226.88646Q71.93437 227.80833 71.30937 228.32396Q70.7 228.82396 69.74687 228.82396Q68.5125 228.82396 67.79375 227.93333Q66.95 226.87083 66.95 224.44896ZM68.02812 224.44896Q68.02812 226.55833 68.52812 227.26146Q69.02812 227.96458 69.74687 227.96458Q70.48125 227.96458 70.96562 227.26146Q71.46562 226.55833 71.46562 224.44896Q71.46562 222.32396 70.96562 221.63646Q70.48125 220.93333 69.73125 220.93333Q69.0125 220.93333 68.575 221.54271Q68.02812 222.32396 68.02812 224.44896ZM73.95 224.44896Q73.95 222.91771 74.2625 221.99583Q74.575 221.05833 75.18437 220.55833Q75.80937 220.05833 76.74687 220.05833Q77.43437 220.05833 77.95 220.33958Q78.48125 220.62083 78.825 221.15208Q79.16875 221.66771 79.35625 222.41771Q79.54375 223.16771 79.54375 224.44896Q79.54375 225.96458 79.23125 226.88646Q78.93437 227.80833 78.30937 228.32396Q77.7 228.82396 76.74687 228.82396Q75.5125 228.82396 74.79375 227.93333Q73.95 226.87083 73.95 224.44896ZM75.02812 224.44896Q75.02812 226.55833 75.52812 227.26146Q76.02812 227.96458 76.74687 227.96458Q77.48125 227.96458 77.96562 227.26146Q78.46562 226.55833 78.46562 224.44896Q78.46562 222.32396 77.96562 221.63646Q77.48125 220.93333 76.73125 220.93333Q76.0125 220.93333 75.575 221.54271Q75.02812 222.32396 75.02812 224.44896Z" fill-rule="nonzero"/><path fill="#000000" d="M65.41875 167.33229L64.37187 167.41042Q64.23125 166.78542 63.98125 166.50417Q63.54375 166.05104 62.91875 166.05104Q62.41875 166.05104 62.028126 166.33229Q61.54375 166.70729 61.246876 167.41042Q60.965626 168.09792 60.95 169.37917Q61.325 168.80104 61.871876 168.51979Q62.434376 168.23854 63.04375 168.23854Q64.09062 168.23854 64.825 169.01979Q65.575 169.80104 65.575 171.01979Q65.575 171.83229 65.21562 172.53542Q64.87187 173.22292 64.2625 173.59792Q63.653126 173.95729 62.8875 173.95729Q61.559376 173.95729 60.73125 172.98854Q59.903126 172.01979 59.903126 169.80104Q59.903126 167.30104 60.825 166.17604Q61.621876 165.19167 62.98125 165.19167Q63.996876 165.19167 64.6375 165.76979Q65.29375 166.33229 65.41875 167.33229ZM61.121876 171.03542Q61.121876 171.58229 61.340626 172.08229Q61.575 172.56667 61.98125 172.83229Q62.403126 173.09792 62.871876 173.09792Q63.528126 173.09792 64.0125 172.56667Q64.49687 172.01979 64.49687 171.09792Q64.49687 170.20729 64.0125 169.69167Q63.54375 169.17604 62.825 169.17604Q62.10625 169.17604 61.60625 169.69167Q61.121876 170.20729 61.121876 171.03542ZM66.95 169.58229Q66.95 168.05104 67.2625 167.12917Q67.575 166.19167 68.18437 165.69167Q68.80937 165.19167 69.74687 165.19167Q70.43437 165.19167 70.95 165.47292Q71.48125 165.75417 71.825 166.28542Q72.16875 166.80104 72.35625 167.55104Q72.54375 168.30104 72.54375 169.58229Q72.54375 171.09792 72.23125 172.01979Q71.93437 172.94167 71.30937 173.45729Q70.7 173.95729 69.74687 173.95729Q68.5125 173.95729 67.79375 173.06667Q66.95 172.00417 66.95 169.58229ZM68.02812 169.58229Q68.02812 171.69167 68.52812 172.39479Q69.02812 173.09792 69.74687 173.09792Q70.48125 173.09792 70.96562 172.39479Q71.46562 171.69167 71.46562 169.58229Q71.46562 167.45729 70.96562 166.76979Q70.48125 166.06667 69.73125 166.06667Q69.0125 166.06667 68.575 166.67604Q68.02812 167.45729 68.02812 169.58229ZM73.95 169.58229Q73.95 168.05104 74.2625 167.12917Q74.575 166.19167 75.18437 165.69167Q75.80937 165.19167 76.74687 165.19167Q77.43437 165.19167 77.95 165.47292Q78.48125 165.75417 78.825 166.28542Q79.16875 166.80104 79.35625 167.55104Q79.54375 168.30104 79.54375 169.58229Q79.54375 171.09792 79.23125 172.01979Q78.93437 172.94167 78.30937 173.45729Q77.7 173.95729 76.74687 173.95729Q75.5125 173.95729 74.79375 173.06667Q73.95 172.00417 73.95 169.58229ZM75.02812 169.58229Q75.02812 171.69167 75.52812 172.39479Q76.02812 173.09792 76.74687 173.09792Q77.48125 173.09792 77.96562 172.39479Q78.46562 171.69167 78.46562 169.58229Q78.46562 167.45729 77.96562 166.76979Q77.48125 166.06667 76.73125 166.06667Q76.0125 166.06667 75.575 166.67604Q75.02812 167.45729 75.02812 169.58229Z" fill-rule="nonzero"/><path fill="#000000" d="M63.325 118.95L63.325 116.8875L59.60625 116.8875L59.60625 115.91875L63.528126 110.35625L64.3875 110.35625L64.3875 115.91875L65.54375 115.91875L65.54375 116.8875L64.3875 116.8875L64.3875 118.95L63.325 118.95ZM63.325 115.91875L63.325 112.05937L60.6375 115.91875L63.325 115.91875ZM66.95 114.71562Q66.95 113.18437 67.2625 112.2625Q67.575 111.325 68.18437 110.825Q68.80937 110.325 69.74687 110.325Q70.43437 110.325 70.95 110.60625Q71.48125 110.8875 71.825 111.41875Q72.16875 111.93437 72.35625 112.68437Q72.54375 113.43437 72.54375 114.71562Q72.54375 116.23125 72.23125 117.15312Q71.93437 118.075 71.30937 118.59062Q70.7 119.09062 69.74687 119.09062Q68.5125 119.09062 67.79375 118.2Q66.95 117.1375 66.95 114.71562ZM68.02812 114.71562Q68.02812 116.825 68.52812 117.52812Q69.02812 118.23125 69.74687 118.23125Q70.48125 118.23125 70.96562 117.52812Q71.46562 116.825 71.46562 114.71562Q71.46562 112.59062 70.96562 111.90312Q70.48125 111.2 69.73125 111.2Q69.0125 111.2 68.575 111.80937Q68.02812 112.59062 68.02812 114.71562ZM73.95 114.71562Q73.95 113.18437 74.2625 112.2625Q74.575 111.325 75.18437 110.825Q75.80937 110.325 76.74687 110.325Q77.43437 110.325 77.95 110.60625Q78.48125 110.8875 78.825 111.41875Q79.16875 111.93437 79.35625 112.68437Q79.54375 113.43437 79.54375 114.71562Q79.54375 116.23125 79.23125 117.15312Q78.93437 118.075 78.30937 118.59062Q77.7 119.09062 76.74687 119.09062Q75.5125 119.09062 74.79375 118.2Q73.95 117.1375 73.95 114.71562ZM75.02812 114.71562Q75.02812 116.825 75.52812 117.52812Q76.02812 118.23125 76.74687 118.23125Q77.48125 118.23125 77.96562 117.52812Q78.46562 116.825 78.46562 114.71562Q78.46562 112.59062 77.96562 111.90312Q77.48125 111.2 76.73125 111.2Q76.0125 111.2 75.575 111.80937Q75.02812 112.59062 75.02812 114.71562Z" fill-rule="nonzero"/><path fill="#000000" d="M65.49687 63.06771L65.49687 64.083336L59.809376 64.083336Q59.809376 63.708336 59.934376 63.34896Q60.153126 62.770836 60.621876 62.208336Q61.10625 61.645836 62.0125 60.91146Q63.41875 59.75521 63.903126 59.083336Q64.40312 58.41146 64.40312 57.81771Q64.40312 57.19271 63.95 56.770836Q63.496876 56.333336 62.778126 56.333336Q62.0125 56.333336 61.559376 56.78646Q61.10625 57.239586 61.090626 58.052086L60.0125 57.94271Q60.121876 56.72396 60.840626 56.09896Q61.575 55.458336 62.809376 55.458336Q64.04375 55.458336 64.7625 56.145836Q65.48125 56.833336 65.48125 57.84896Q65.48125 58.364586 65.2625 58.864586Q65.05937 59.34896 64.55937 59.91146Q64.075 60.458336 62.95 61.41146Q61.996876 62.208336 61.715626 62.50521Q61.45 62.78646 61.278126 63.06771L65.49687 63.06771ZM66.95 59.84896Q66.95 58.31771 67.2625 57.395836Q67.575 56.458336 68.18437 55.958336Q68.80937 55.458336 69.74687 55.458336Q70.43437 55.458336 70.95 55.739586Q71.48125 56.020836 71.825 56.552086Q72.16875 57.06771 72.35625 57.81771Q72.54375 58.56771 72.54375 59.84896Q72.54375 61.364586 72.23125 62.28646Q71.93437 63.208336 71.30937 63.72396Q70.7 64.22396 69.74687 64.22396Q68.5125 64.22396 67.79375 63.333336Q66.95 62.270836 66.95 59.84896ZM68.02812 59.84896Q68.02812 61.958336 68.52812 62.66146Q69.02812 63.364586 69.74687 63.364586Q70.48125 63.364586 70.96562 62.66146Q71.46562 61.958336 71.46562 59.84896Q71.46562 57.72396 70.96562 57.03646Q70.48125 56.333336 69.73125 56.333336Q69.0125 56.333336 68.575 56.94271Q68.02812 57.72396 68.02812 59.84896ZM73.95 59.84896Q73.95 58.31771 74.2625 57.395836Q74.575 56.458336 75.18437 55.958336Q75.80937 55.458336 76.74687 55.458336Q77.43437 55.458336 77.95 55.739586Q78.48125 56.020836 78.825 56.552086Q79.16875 57.06771 79.35625 57.81771Q79.54375 58.56771 79.54375 59.84896Q79.54375 61.364586 79.23125 62.28646Q78.93437 63.208336 78.30937 63.72396Q77.7 64.22396 76.74687 64.22396Q75.5125 64.22396 74.79375 63.333336Q73.95 62.270836 73.95 59.84896ZM75.02812 59.84896Q75.02812 61.958336 75.52812 62.66146Q76.02812 63.364586 76.74687 63.364586Q77.48125 63.364586 77.96562 62.66146Q78.46562 61.958336 78.46562 59.84896Q78.46562 57.72396 77.96562 57.03646Q77.48125 56.333336 76.73125 56.333336Q76.0125 56.333336 75.575 56.94271Q75.02812 57.72396 75.02812 59.84896Z" fill-rule="nonzero"/><path fill="#000000" d="M543.175 291.89374Q542.51874 291.64374 542.1906 291.20624Q541.8781 290.7531 541.8781 290.14374Q541.8781 289.20624 542.55 288.5656Q543.2375 287.925 544.34686 287.925Q545.47186 287.925 546.15936 288.58124Q546.84686 289.2375 546.84686 290.175Q546.84686 290.76874 546.53436 291.20624Q546.22186 291.64374 545.58124 291.89374Q546.3781 292.14374 546.78436 292.72186Q547.1906 293.3 547.1906 294.09686Q547.1906 295.1906 546.40936 295.9406Q545.64374 296.6906 544.3625 296.6906Q543.09686 296.6906 542.3156 295.9406Q541.53436 295.1906 541.53436 294.0656Q541.53436 293.22186 541.95624 292.65936Q542.39374 292.09686 543.175 291.89374ZM542.95624 290.09686Q542.95624 290.70624 543.34686 291.09686Q543.7531 291.4875 544.3781 291.4875Q544.9875 291.4875 545.3781 291.1125Q545.76874 290.72186 545.76874 290.15936Q545.76874 289.58124 545.3625 289.1906Q544.95624 288.78436 544.3625 288.78436Q543.7531 288.78436 543.34686 289.175Q542.95624 289.5656 542.95624 290.09686ZM542.6281 294.0656Q542.6281 294.51874 542.83124 294.9406Q543.05 295.3625 543.47186 295.59686Q543.89374 295.83124 544.3781 295.83124Q545.1281 295.83124 545.6125 295.34686Q546.1125 294.8625 546.1125 294.1125Q546.1125 293.34686 545.6125 292.84686Q545.1125 292.34686 544.34686 292.34686Q543.59686 292.34686 543.1125 292.84686Q542.6281 293.33124 542.6281 294.0656ZM548.55 292.3156Q548.55 290.78436 548.8625 289.8625Q549.175 288.925 549.78436 288.425Q550.40936 287.925 551.34686 287.925Q552.03436 287.925 552.55 288.20624Q553.08124 288.4875 553.425 289.01874Q553.76874 289.53436 553.95624 290.28436Q554.14374 291.03436 554.14374 292.3156Q554.14374 293.83124 553.83124 294.7531Q553.53436 295.675 552.90936 296.1906Q552.3 296.6906 551.34686 296.6906Q550.1125 296.6906 549.39374 295.8Q548.55 294.7375 548.55 292.3156ZM549.6281 292.3156Q549.6281 294.425 550.1281 295.1281Q550.6281 295.83124 551.34686 295.83124Q552.08124 295.83124 552.5656 295.1281Q553.0656 294.425 553.0656 292.3156Q553.0656 290.1906 552.5656 289.5031Q552.08124 288.8 551.33124 288.8Q550.6125 288.8 550.175 289.40936Q549.6281 290.1906 549.6281 292.3156ZM555.55 292.3156Q555.55 290.78436 555.8625 289.8625Q556.175 288.925 556.78436 288.425Q557.40936 287.925 558.34686 287.925Q559.03436 287.925 559.55 288.20624Q560.08124 288.4875 560.425 289.01874Q560.76874 289.53436 560.95624 290.28436Q561.14374 291.03436 561.14374 292.3156Q561.14374 293.83124 560.83124 294.7531Q560.53436 295.675 559.90936 296.1906Q559.3 296.6906 558.34686 296.6906Q557.1125 296.6906 556.39374 295.8Q555.55 294.7375 555.55 292.3156ZM556.6281 292.3156Q556.6281 294.425 557.1281 295.1281Q557.6281 295.83124 558.34686 295.83124Q559.08124 295.83124 559.5656 295.1281Q560.0656 294.425 560.0656 292.3156Q560.0656 290.1906 559.5656 289.5031Q559.08124 288.8 558.33124 288.8Q557.6125 288.8 557.175 289.40936Q556.6281 290.1906 556.6281 292.3156Z" fill-rule="nonzero"/><path fill="#000000" d="M464.50208 296.55L463.4552 296.55L463.4552 289.83124Q463.06458 290.1906 462.43958 290.5656Q461.8302 290.925 461.34583 291.09686L461.34583 290.08124Q462.22083 289.65936 462.87708 289.08124Q463.54895 288.4875 463.8302 287.925L464.50208 287.925L464.50208 296.55ZM467.53333 292.3156Q467.53333 290.78436 467.84583 289.8625Q468.15833 288.925 468.7677 288.425Q469.3927 287.925 470.3302 287.925Q471.0177 287.925 471.53333 288.20624Q472.06458 288.4875 472.40833 289.01874Q472.75208 289.53436 472.93958 290.28436Q473.12708 291.03436 473.12708 292.3156Q473.12708 293.83124 472.81458 294.7531Q472.5177 295.675 471.8927 296.1906Q471.28333 296.6906 470.3302 296.6906Q469.09583 296.6906 468.37708 295.8Q467.53333 294.7375 467.53333 292.3156ZM468.61145 292.3156Q468.61145 294.425 469.11145 295.1281Q469.61145 295.83124 470.3302 295.83124Q471.06458 295.83124 471.54895 295.1281Q472.04895 294.425 472.04895 292.3156Q472.04895 290.1906 471.54895 289.5031Q471.06458 288.8 470.31458 288.8Q469.59583 288.8 469.15833 289.40936Q468.61145 290.1906 468.61145 292.3156ZM474.53333 292.3156Q474.53333 290.78436 474.84583 289.8625Q475.15833 288.925 475.7677 288.425Q476.3927 287.925 477.3302 287.925Q478.0177 287.925 478.53333 288.20624Q479.06458 288.4875 479.40833 289.01874Q479.75208 289.53436 479.93958 290.28436Q480.12708 291.03436 480.12708 292.3156Q480.12708 293.83124 479.81458 294.7531Q479.5177 295.675 478.8927 296.1906Q478.28333 296.6906 477.3302 296.6906Q476.09583 296.6906 475.37708 295.8Q474.53333 294.7375 474.53333 292.3156ZM475.61145 292.3156Q475.61145 294.425 476.11145 295.1281Q476.61145 295.83124 477.3302 295.83124Q478.06458 295.83124 478.54895 295.1281Q479.04895 294.425 479.04895 292.3156Q479.04895 290.1906 478.54895 289.5031Q478.06458 288.8 477.31458 288.8Q476.59583 288.8 476.15833 289.40936Q475.61145 290.1906 475.61145 292.3156ZM481.53333 292.3156Q481.53333 290.78436 481.84583 289.8625Q482.15833 288.925 482.7677 288.425Q483.3927 287.925 484.3302 287.925Q485.0177 287.925 485.53333 288.20624Q486.06458 288.4875 486.40833 289.01874Q486.75208 289.53436 486.93958 290.28436Q487.12708 291.03436 487.12708 292.3156Q487.12708 293.83124 486.81458 294.7531Q486.5177 295.675 485.8927 296.1906Q485.28333 296.6906 484.3302 296.6906Q483.09583 296.6906 482.37708 295.8Q481.53333 294.7375 481.53333 292.3156ZM482.61145 292.3156Q482.61145 294.425 483.11145 295.1281Q483.61145 295.83124 484.3302 295.83124Q485.06458 295.83124 485.54895 295.1281Q486.04895 294.425 486.04895 292.3156Q486.04895 290.1906 485.54895 289.5031Q485.06458 288.8 484.31458 288.8Q483.59583 288.8 483.15833 289.40936Q482.61145 290.1906 482.61145 292.3156Z" fill-rule="nonzero"/><path fill="#000000" d="M386.9854 296.55L385.93854 296.55L385.93854 289.83124Q385.5479 290.1906 384.9229 290.5656Q384.31354 290.925 383.82916 291.09686L383.82916 290.08124Q384.70416 289.65936 385.3604 289.08124Q386.0323 288.4875 386.31354 287.925L386.9854 287.925L386.9854 296.55ZM395.56354 295.53436L395.56354 296.55L389.87604 296.55Q389.87604 296.175 390.00104 295.8156Q390.2198 295.2375 390.68854 294.675Q391.1729 294.1125 392.07916 293.3781Q393.4854 292.22186 393.9698 291.55Q394.4698 290.8781 394.4698 290.28436Q394.4698 289.65936 394.01666 289.2375Q393.56354 288.8 392.8448 288.8Q392.07916 288.8 391.62604 289.2531Q391.1729 289.70624 391.1573 290.51874L390.07916 290.40936Q390.18854 289.1906 390.9073 288.5656Q391.64166 287.925 392.87604 287.925Q394.1104 287.925 394.82916 288.6125Q395.5479 289.3 395.5479 290.3156Q395.5479 290.83124 395.32916 291.33124Q395.12604 291.8156 394.62604 292.3781Q394.14166 292.925 393.01666 293.8781Q392.06354 294.675 391.7823 294.97186Q391.51666 295.2531 391.3448 295.53436L395.56354 295.53436ZM397.01666 292.3156Q397.01666 290.78436 397.32916 289.8625Q397.64166 288.925 398.25104 288.425Q398.87604 287.925 399.81354 287.925Q400.50104 287.925 401.01666 288.20624Q401.5479 288.4875 401.89166 289.01874Q402.2354 289.53436 402.4229 290.28436Q402.6104 291.03436 402.6104 292.3156Q402.6104 293.83124 402.2979 294.7531Q402.00104 295.675 401.37604 296.1906Q400.76666 296.6906 399.81354 296.6906Q398.57916 296.6906 397.8604 295.8Q397.01666 294.7375 397.01666 292.3156ZM398.0948 292.3156Q398.0948 294.425 398.5948 295.1281Q399.0948 295.83124 399.81354 295.83124Q400.5479 295.83124 401.0323 295.1281Q401.5323 294.425 401.5323 292.3156Q401.5323 290.1906 401.0323 289.5031Q400.5479 288.8 399.7979 288.8Q399.07916 288.8 398.64166 289.40936Q398.0948 290.1906 398.0948 292.3156ZM404.01666 292.3156Q404.01666 290.78436 404.32916 289.8625Q404.64166 288.925 405.25104 288.425Q405.87604 287.925 406.81354 287.925Q407.50104 287.925 408.01666 288.20624Q408.5479 288.4875 408.89166 289.01874Q409.2354 289.53436 409.4229 290.28436Q409.6104 291.03436 409.6104 292.3156Q409.6104 293.83124 409.2979 294.7531Q409.00104 295.675 408.37604 296.1906Q407.76666 296.6906 406.81354 296.6906Q405.57916 296.6906 404.8604 295.8Q404.01666 294.7375 404.01666 292.3156ZM405.0948 292.3156Q405.0948 294.425 405.5948 295.1281Q406.0948 295.83124 406.81354 295.83124Q407.5479 295.83124 408.0323 295.1281Q408.5323 294.425 408.5323 292.3156Q408.5323 290.1906 408.0323 289.5031Q407.5479 288.8 406.7979 288.8Q406.07916 288.8 405.64166 289.40936Q405.0948 290.1906 405.0948 292.3156Z" fill-rule="nonzero"/><path fill="#000000" d="M309.46875 296.55L308.42188 296.55L308.42188 289.83124Q308.03125 290.1906 307.40625 290.5656Q306.79688 290.925 306.3125 291.09686L306.3125 290.08124Q307.1875 289.65936 307.84375 289.08124Q308.51562 288.4875 308.79688 287.925L309.46875 287.925L309.46875 296.55ZM315.875 296.55L315.875 294.4875L312.15625 294.4875L312.15625 293.51874L316.07812 287.95624L316.9375 287.95624L316.9375 293.51874L318.09375 293.51874L318.09375 294.4875L316.9375 294.4875L316.9375 296.55L315.875 296.55ZM315.875 293.51874L315.875 289.65936L313.1875 293.51874L315.875 293.51874ZM319.5 292.3156Q319.5 290.78436 319.8125 289.8625Q320.125 288.925 320.73438 288.425Q321.35938 287.925 322.29688 287.925Q322.98438 287.925 323.5 288.20624Q324.03125 288.4875 324.375 289.01874Q324.71875 289.53436 324.90625 290.28436Q325.09375 291.03436 325.09375 292.3156Q325.09375 293.83124 324.78125 294.7531Q324.48438 295.675 323.85938 296.1906Q323.25 296.6906 322.29688 296.6906Q321.0625 296.6906 320.34375 295.8Q319.5 294.7375 319.5 292.3156ZM320.57812 292.3156Q320.57812 294.425 321.07812 295.1281Q321.57812 295.83124 322.29688 295.83124Q323.03125 295.83124 323.51562 295.1281Q324.01562 294.425 324.01562 292.3156Q324.01562 290.1906 323.51562 289.5031Q323.03125 288.8 322.28125 288.8Q321.5625 288.8 321.125 289.40936Q320.57812 290.1906 320.57812 292.3156ZM326.5 292.3156Q326.5 290.78436 326.8125 289.8625Q327.125 288.925 327.73438 288.425Q328.35938 287.925 329.29688 287.925Q329.98438 287.925 330.5 288.20624Q331.03125 288.4875 331.375 289.01874Q331.71875 289.53436 331.90625 290.28436Q332.09375 291.03436 332.09375 292.3156Q332.09375 293.83124 331.78125 294.7531Q331.48438 295.675 330.85938 296.1906Q330.25 296.6906 329.29688 296.6906Q328.0625 296.6906 327.34375 295.8Q326.5 294.7375 326.5 292.3156ZM327.57812 292.3156Q327.57812 294.425 328.07812 295.1281Q328.57812 295.83124 329.29688 295.83124Q330.03125 295.83124 330.51562 295.1281Q331.01562 294.425 331.01562 292.3156Q331.01562 290.1906 330.51562 289.5031Q330.03125 288.8 329.28125 288.8Q328.5625 288.8 328.125 289.40936Q327.57812 290.1906 327.57812 292.3156Z" fill-rule="nonzero"/><path fill="#000000" d="M231.95209 296.55L230.90521 296.55L230.90521 289.83124Q230.51459 290.1906 229.88959 290.5656Q229.28021 290.925 228.79584 291.09686L228.79584 290.08124Q229.67084 289.65936 230.32709 289.08124Q230.99896 288.4875 231.28021 287.925L231.95209 287.925L231.95209 296.55ZM240.45209 290.0656L239.40521 290.14374Q239.26459 289.51874 239.01459 289.2375Q238.57709 288.78436 237.95209 288.78436Q237.45209 288.78436 237.06146 289.0656Q236.57709 289.4406 236.28021 290.14374Q235.99896 290.83124 235.98334 292.1125Q236.35834 291.53436 236.90521 291.2531Q237.46771 290.97186 238.07709 290.97186Q239.12396 290.97186 239.85834 291.7531Q240.60834 292.53436 240.60834 293.7531Q240.60834 294.5656 240.24896 295.26874Q239.90521 295.95624 239.29584 296.33124Q238.68646 296.6906 237.92084 296.6906Q236.59271 296.6906 235.76459 295.72186Q234.93646 294.7531 234.93646 292.53436Q234.93646 290.03436 235.85834 288.90936Q236.65521 287.925 238.01459 287.925Q239.03021 287.925 239.67084 288.5031Q240.32709 289.0656 240.45209 290.0656ZM236.15521 293.76874Q236.15521 294.3156 236.37396 294.8156Q236.60834 295.3 237.01459 295.5656Q237.43646 295.83124 237.90521 295.83124Q238.56146 295.83124 239.04584 295.3Q239.53021 294.7531 239.53021 293.83124Q239.53021 292.9406 239.04584 292.425Q238.57709 291.90936 237.85834 291.90936Q237.13959 291.90936 236.63959 292.425Q236.15521 292.9406 236.15521 293.76874ZM241.98334 292.3156Q241.98334 290.78436 242.29584 289.8625Q242.60834 288.925 243.21771 288.425Q243.84271 287.925 244.78021 287.925Q245.46771 287.925 245.98334 288.20624Q246.51459 288.4875 246.85834 289.01874Q247.20209 289.53436 247.38959 290.28436Q247.57709 291.03436 247.57709 292.3156Q247.57709 293.83124 247.26459 294.7531Q246.96771 295.675 246.34271 296.1906Q245.73334 296.6906 244.78021 296.6906Q243.54584 296.6906 242.82709 295.8Q241.98334 294.7375 241.98334 292.3156ZM243.06146 292.3156Q243.06146 294.425 243.56146 295.1281Q244.06146 295.83124 244.78021 295.83124Q245.51459 295.83124 245.99896 295.1281Q246.49896 294.425 246.49896 292.3156Q246.49896 290.1906 245.99896 289.5031Q245.51459 288.8 244.76459 288.8Q244.04584 288.8 243.60834 289.40936Q243.06146 290.1906 243.06146 292.3156ZM248.98334 292.3156Q248.98334 290.78436 249.29584 289.8625Q249.60834 288.925 250.21771 288.425Q250.84271 287.925 251.78021 287.925Q252.46771 287.925 252.98334 288.20624Q253.51459 288.4875 253.85834 289.01874Q254.20209 289.53436 254.38959 290.28436Q254.57709 291.03436 254.57709 292.3156Q254.57709 293.83124 254.26459 294.7531Q253.96771 295.675 253.34271 296.1906Q252.73334 296.6906 251.78021 296.6906Q250.54584 296.6906 249.82709 295.8Q248.98334 294.7375 248.98334 292.3156ZM250.06146 292.3156Q250.06146 294.425 250.56146 295.1281Q251.06146 295.83124 251.78021 295.83124Q252.51459 295.83124 252.99896 295.1281Q253.49896 294.425 253.49896 292.3156Q253.49896 290.1906 252.99896 289.5031Q252.51459 288.8 251.76459 288.8Q251.04584 288.8 250.60834 289.40936Q250.06146 290.1906 250.06146 292.3156Z" fill-rule="nonzero"/><path fill="#000000" d="M154.43541 296.55L153.38853 296.55L153.38853 289.83124Q152.99791 290.1906 152.37291 290.5656Q151.76353 290.925 151.27916 291.09686L151.27916 290.08124Q152.15416 289.65936 152.81041 289.08124Q153.48228 288.4875 153.76353 287.925L154.43541 287.925L154.43541 296.55ZM159.09166 291.89374Q158.43541 291.64374 158.10728 291.20624Q157.79478 290.7531 157.79478 290.14374Q157.79478 289.20624 158.46666 288.5656Q159.15416 287.925 160.26353 287.925Q161.38853 287.925 162.07603 288.58124Q162.76353 289.2375 162.76353 290.175Q162.76353 290.76874 162.45103 291.20624Q162.13853 291.64374 161.49791 291.89374Q162.29478 292.14374 162.70103 292.72186Q163.10728 293.3 163.10728 294.09686Q163.10728 295.1906 162.32603 295.9406Q161.56041 296.6906 160.27916 296.6906Q159.01353 296.6906 158.23228 295.9406Q157.45103 295.1906 157.45103 294.0656Q157.45103 293.22186 157.87291 292.65936Q158.31041 292.09686 159.09166 291.89374ZM158.87291 290.09686Q158.87291 290.70624 159.26353 291.09686Q159.66978 291.4875 160.29478 291.4875Q160.90416 291.4875 161.29478 291.1125Q161.68541 290.72186 161.68541 290.15936Q161.68541 289.58124 161.27916 289.1906Q160.87291 288.78436 160.27916 288.78436Q159.66978 288.78436 159.26353 289.175Q158.87291 289.5656 158.87291 290.09686ZM158.54478 294.0656Q158.54478 294.51874 158.74791 294.9406Q158.96666 295.3625 159.38853 295.59686Q159.81041 295.83124 160.29478 295.83124Q161.04478 295.83124 161.52916 295.34686Q162.02916 294.8625 162.02916 294.1125Q162.02916 293.34686 161.52916 292.84686Q161.02916 292.34686 160.26353 292.34686Q159.51353 292.34686 159.02916 292.84686Q158.54478 293.33124 158.54478 294.0656ZM164.46666 292.3156Q164.46666 290.78436 164.77916 289.8625Q165.09166 288.925 165.70103 288.425Q166.32603 287.925 167.26353 287.925Q167.95103 287.925 168.46666 288.20624Q168.99791 288.4875 169.34166 289.01874Q169.68541 289.53436 169.87291 290.28436Q170.06041 291.03436 170.06041 292.3156Q170.06041 293.83124 169.74791 294.7531Q169.45103 295.675 168.82603 296.1906Q168.21666 296.6906 167.26353 296.6906Q166.02916 296.6906 165.31041 295.8Q164.46666 294.7375 164.46666 292.3156ZM165.54478 292.3156Q165.54478 294.425 166.04478 295.1281Q166.54478 295.83124 167.26353 295.83124Q167.99791 295.83124 168.48228 295.1281Q168.98228 294.425 168.98228 292.3156Q168.98228 290.1906 168.48228 289.5031Q167.99791 288.8 167.24791 288.8Q166.52916 288.8 166.09166 289.40936Q165.54478 290.1906 165.54478 292.3156ZM171.46666 292.3156Q171.46666 290.78436 171.77916 289.8625Q172.09166 288.925 172.70103 288.425Q173.32603 287.925 174.26353 287.925Q174.95103 287.925 175.46666 288.20624Q175.99791 288.4875 176.34166 289.01874Q176.68541 289.53436 176.87291 290.28436Q177.06041 291.03436 177.06041 292.3156Q177.06041 293.83124 176.74791 294.7531Q176.45103 295.675 175.82603 296.1906Q175.21666 296.6906 174.26353 296.6906Q173.02916 296.6906 172.31041 295.8Q171.46666 294.7375 171.46666 292.3156ZM172.54478 292.3156Q172.54478 294.425 173.04478 295.1281Q173.54478 295.83124 174.26353 295.83124Q174.99791 295.83124 175.48228 295.1281Q175.98228 294.425 175.98228 292.3156Q175.98228 290.1906 175.48228 289.5031Q174.99791 288.8 174.24791 288.8Q173.52916 288.8 173.09166 289.40936Q172.54478 290.1906 172.54478 292.3156Z" fill-rule="nonzero"/><path fill="#000000" d="M78.49687 295.53436L78.49687 296.55L72.80937 296.55Q72.80937 296.175 72.93437 295.8156Q73.15312 295.2375 73.62187 294.675Q74.10625 294.1125 75.0125 293.3781Q76.41875 292.22186 76.90312 291.55Q77.40312 290.8781 77.40312 290.28436Q77.40312 289.65936 76.95 289.2375Q76.49687 288.8 75.77812 288.8Q75.0125 288.8 74.55937 289.2531Q74.10625 289.70624 74.09062 290.51874L73.0125 290.40936Q73.12187 289.1906 73.84062 288.5656Q74.575 287.925 75.80937 287.925Q77.04375 287.925 77.7625 288.6125Q78.48125 289.3 78.48125 290.3156Q78.48125 290.83124 78.2625 291.33124Q78.05937 291.8156 77.55937 292.3781Q77.075 292.925 75.95 293.8781Q74.99687 294.675 74.71562 294.97186Q74.45 295.2531 74.27812 295.53436L78.49687 295.53436ZM79.95 292.3156Q79.95 290.78436 80.2625 289.8625Q80.575 288.925 81.18437 288.425Q81.80937 287.925 82.74687 287.925Q83.43437 287.925 83.95 288.20624Q84.48125 288.4875 84.825 289.01874Q85.16875 289.53436 85.35625 290.28436Q85.54375 291.03436 85.54375 292.3156Q85.54375 293.83124 85.23125 294.7531Q84.93437 295.675 84.30937 296.1906Q83.7 296.6906 82.74687 296.6906Q81.5125 296.6906 80.79375 295.8Q79.95 294.7375 79.95 292.3156ZM81.02812 292.3156Q81.02812 294.425 81.52812 295.1281Q82.02812 295.83124 82.74687 295.83124Q83.48125 295.83124 83.96562 295.1281Q84.46562 294.425 84.46562 292.3156Q84.46562 290.1906 83.96562 289.5031Q83.48125 288.8 82.73125 288.8Q82.0125 288.8 81.575 289.40936Q81.02812 290.1906 81.02812 292.3156ZM86.95 292.3156Q86.95 290.78436 87.2625 289.8625Q87.575 288.925 88.18437 288.425Q88.80937 287.925 89.74687 287.925Q90.43437 287.925 90.95 288.20624Q91.48125 288.4875 91.825 289.01874Q92.16875 289.53436 92.35625 290.28436Q92.54375 291.03436 92.54375 292.3156Q92.54375 293.83124 92.23125 294.7531Q91.93437 295.675 91.30937 296.1906Q90.7 296.6906 89.74687 296.6906Q88.5125 296.6906 87.79375 295.8Q86.95 294.7375 86.95 292.3156ZM88.02812 292.3156Q88.02812 294.425 88.52812 295.1281Q89.02812 295.83124 89.74687 295.83124Q90.48125 295.83124 90.96562 295.1281Q91.46562 294.425 91.46562 292.3156Q91.46562 290.1906 90.96562 289.5031Q90.48125 288.8 89.73125 288.8Q89.0125 288.8 88.575 289.40936Q88.02812 290.1906 88.02812 292.3156ZM93.95 292.3156Q93.95 290.78436 94.2625 289.8625Q94.575 288.925 95.18437 288.425Q95.80937 287.925 96.74687 287.925Q97.43437 287.925 97.95 288.20624Q98.48125 288.4875 98.825 289.01874Q99.16875 289.53436 99.35625 290.28436Q99.54375 291.03436 99.54375 292.3156Q99.54375 293.83124 99.23125 294.7531Q98.93437 295.675 98.30937 296.1906Q97.7 296.6906 96.74687 296.6906Q95.5125 296.6906 94.79375 295.8Q93.95 294.7375 93.95 292.3156ZM95.02812 292.3156Q95.02812 294.425 95.52812 295.1281Q96.02812 295.83124 96.74687 295.83124Q97.48125 295.83124 97.96562 295.1281Q98.46562 294.425 98.46562 292.3156Q98.46562 290.1906 97.96562 289.5031Q97.48125 288.8 96.73125 288.8Q96.0125 288.8 95.575 289.40936Q95.02812 290.1906 95.02812 292.3156Z" fill-rule="nonzero"/><path fill="#757575" d="M18.934376 36.45L18.934376 22.1375L21.79375 22.1375L25.16875 32.2625Q25.6375 33.684376 25.85625 34.3875Q26.10625 33.60625 26.621876 32.090626L30.04375 22.1375L32.590626 22.1375L32.590626 36.45L30.778126 36.45L30.778126 24.465626L26.60625 36.45L24.903126 36.45L20.7625 24.2625L20.7625 36.45L18.934376 36.45ZM42.871876 33.10625L44.684376 33.340626Q44.2625 34.91875 43.090626 35.809376Q41.934376 36.684376 40.121876 36.684376Q37.85625 36.684376 36.5125 35.29375Q35.184376 33.8875 35.184376 31.35625Q35.184376 28.73125 36.528126 27.29375Q37.871876 25.840626 40.028126 25.840626Q42.10625 25.840626 43.41875 27.2625Q44.746876 28.66875 44.746876 31.246876Q44.746876 31.403126 44.73125 31.715626L36.996876 31.715626Q37.090626 33.41875 37.965626 34.325Q38.840626 35.23125 40.1375 35.23125Q41.10625 35.23125 41.778126 34.73125Q42.465626 34.215626 42.871876 33.10625ZM37.090626 30.2625L42.8875 30.2625Q42.778126 28.965626 42.23125 28.309376Q41.3875 27.29375 40.04375 27.29375Q38.840626 27.29375 38.0125 28.10625Q37.184376 28.903126 37.090626 30.2625ZM53.54375 35.16875Q52.559376 35.996876 51.653126 36.340626Q50.746876 36.684376 49.715626 36.684376Q48.0125 36.684376 47.090626 35.85625Q46.16875 35.0125 46.16875 33.715626Q46.16875 32.95 46.5125 32.325Q46.871876 31.7 47.434376 31.325Q47.996876 30.934376 48.7 30.73125Q49.215626 30.60625 50.2625 30.465626Q52.3875 30.215626 53.3875 29.871876Q53.403126 29.5125 53.403126 29.403126Q53.403126 28.340626 52.903126 27.8875Q52.23125 27.29375 50.903126 27.29375Q49.653126 27.29375 49.059376 27.73125Q48.48125 28.16875 48.2 29.278126L46.48125 29.04375Q46.715626 27.934376 47.246876 27.2625Q47.778126 26.575 48.79375 26.215626Q49.809376 25.840626 51.153126 25.840626Q52.48125 25.840626 53.309376 26.153126Q54.1375 26.465626 54.528126 26.95Q54.91875 27.41875 55.075 28.1375Q55.16875 28.590626 55.16875 29.7625L55.16875 32.10625Q55.16875 34.559376 55.278126 35.215626Q55.3875 35.85625 55.73125 36.45L53.8875 36.45Q53.621876 35.903126 53.54375 35.16875ZM53.3875 31.246876Q52.434376 31.6375 50.5125 31.903126Q49.434376 32.059376 48.98125 32.2625Q48.54375 32.45 48.29375 32.825Q48.04375 33.2 48.04375 33.66875Q48.04375 34.371876 48.575 34.840626Q49.10625 35.309376 50.1375 35.309376Q51.153126 35.309376 51.934376 34.871876Q52.73125 34.41875 53.10625 33.653126Q53.3875 33.04375 53.3875 31.8875L53.3875 31.246876ZM57.7625 36.45L57.7625 26.075L59.35625 26.075L59.35625 27.559376Q60.496876 25.840626 62.653126 25.840626Q63.590626 25.840626 64.37187 26.184376Q65.16875 26.5125 65.55937 27.059376Q65.95 27.60625 66.10625 28.35625Q66.2 28.85625 66.2 30.075L66.2 36.45L64.43437 36.45L64.43437 30.1375Q64.43437 29.059376 64.23125 28.528126Q64.02812 27.996876 63.496876 27.684376Q62.98125 27.371876 62.278126 27.371876Q61.153126 27.371876 60.340626 28.090626Q59.528126 28.79375 59.528126 30.778126L59.528126 36.45L57.7625 36.45ZM74.09062 36.45L74.09062 22.1375L83.74687 22.1375L83.74687 23.825L75.98125 23.825L75.98125 28.2625L82.7 28.2625L82.7 29.95L75.98125 29.95L75.98125 36.45L74.09062 36.45ZM94.5125 34.7625L94.5125 36.45L85.05937 36.45Q85.04375 35.809376 85.2625 35.23125Q85.62187 34.2625 86.41875 33.325Q87.21562 32.3875 88.71562 31.153126Q91.05937 29.246876 91.87187 28.1375Q92.7 27.0125 92.7 26.0125Q92.7 24.965626 91.95 24.246876Q91.2 23.528126 89.99687 23.528126Q88.73125 23.528126 87.96562 24.29375Q87.2 25.059376 87.2 26.403126L85.3875 26.215626Q85.575 24.2 86.77812 23.1375Q87.99687 22.075 90.04375 22.075Q92.09062 22.075 93.29375 23.215626Q94.49687 24.35625 94.49687 26.04375Q94.49687 26.903126 94.1375 27.746876Q93.79375 28.575 92.98125 29.496876Q92.16875 30.403126 90.27812 32.0125Q88.68437 33.340626 88.23125 33.809376Q87.79375 34.278126 87.49687 34.7625L94.5125 34.7625ZM105.65312 36.45L101.7 26.075L103.55937 26.075L105.79375 32.29375Q106.15312 33.29375 106.45 34.371876Q106.68437 33.559376 107.10625 32.403126L109.40312 26.075L111.21562 26.075L107.29375 36.45L105.65312 36.45ZM111.05937 33.35625L112.80937 33.075Q112.95 34.121876 113.62187 34.684376Q114.29375 35.23125 115.49687 35.23125Q116.7 35.23125 117.27812 34.746876Q117.87187 34.246876 117.87187 33.590626Q117.87187 32.996876 117.35625 32.653126Q116.99687 32.41875 115.55937 32.059376Q113.62187 31.559376 112.87187 31.215626Q112.1375 30.85625 111.74687 30.23125Q111.35625 29.590626 111.35625 28.825Q111.35625 28.1375 111.66875 27.54375Q111.99687 26.95 112.54375 26.559376Q112.95 26.2625 113.65312 26.059376Q114.37187 25.840626 115.18437 25.840626Q116.40312 25.840626 117.325 26.2Q118.24687 26.54375 118.68437 27.153126Q119.12187 27.746876 119.29375 28.746876L117.575 28.98125Q117.45 28.184376 116.8875 27.746876Q116.325 27.29375 115.30937 27.29375Q114.09062 27.29375 113.575 27.7Q113.05937 28.090626 113.05937 28.621876Q113.05937 28.965626 113.27812 29.246876Q113.48125 29.528126 113.95 29.715626Q114.21562 29.809376 115.49687 30.153126Q117.37187 30.653126 118.10625 30.98125Q118.84062 31.29375 119.2625 31.903126Q119.68437 32.496876 119.68437 33.403126Q119.68437 34.278126 119.16875 35.059376Q118.65312 35.840626 117.68437 36.2625Q116.71562 36.684376 115.49687 36.684376Q113.48125 36.684376 112.41875 35.840626Q111.35625 34.996876 111.05937 33.35625ZM128.09062 36.45L128.09062 22.1375L137.74687 22.1375L137.74687 23.825L129.98125 23.825L129.98125 28.2625L136.7 28.2625L136.7 29.95L129.98125 29.95L129.98125 36.45L128.09062 36.45ZM145.90312 36.45L144.1375 36.45L144.1375 25.246876Q143.5125 25.85625 142.48125 26.465626Q141.45 27.059376 140.62187 27.371876L140.62187 25.66875Q142.10625 24.98125 143.2 23.996876Q144.30937 22.996876 144.7625 22.075L145.90312 22.075L145.90312 36.45ZM156.09062 32.153126L156.09062 30.3875L161.48125 30.3875L161.48125 32.153126L156.09062 32.153126ZM169.93437 36.45L169.93437 22.1375L172.79375 22.1375L176.16875 32.2625Q176.6375 33.684376 176.85625 34.3875Q177.10625 33.60625 177.62187 32.090626L181.04375 22.1375L183.59062 22.1375L183.59062 36.45L181.77812 36.45L181.77812 24.465626L177.60625 36.45L175.90312 36.45L171.7625 24.2625L171.7625 36.45L169.93437 36.45ZM193.54375 35.16875Q192.55937 35.996876 191.65312 36.340626Q190.74687 36.684376 189.71562 36.684376Q188.0125 36.684376 187.09062 35.85625Q186.16875 35.0125 186.16875 33.715626Q186.16875 32.95 186.5125 32.325Q186.87187 31.7 187.43437 31.325Q187.99687 30.934376 188.7 30.73125Q189.21562 30.60625 190.2625 30.465626Q192.3875 30.215626 193.3875 29.871876Q193.40312 29.5125 193.40312 29.403126Q193.40312 28.340626 192.90312 27.8875Q192.23125 27.29375 190.90312 27.29375Q189.65312 27.29375 189.05937 27.73125Q188.48125 28.16875 188.2 29.278126L186.48125 29.04375Q186.71562 27.934376 187.24687 27.2625Q187.77812 26.575 188.79375 26.215626Q189.80937 25.840626 191.15312 25.840626Q192.48125 25.840626 193.30937 26.153126Q194.1375 26.465626 194.52812 26.95Q194.91875 27.41875 195.075 28.1375Q195.16875 28.590626 195.16875 29.7625L195.16875 32.10625Q195.16875 34.559376 195.27812 35.215626Q195.3875 35.85625 195.73125 36.45L193.8875 36.45Q193.62187 35.903126 193.54375 35.16875ZM193.3875 31.246876Q192.43437 31.6375 190.5125 31.903126Q189.43437 32.059376 188.98125 32.2625Q188.54375 32.45 188.29375 32.825Q188.04375 33.2 188.04375 33.66875Q188.04375 34.371876 188.575 34.840626Q189.10625 35.309376 190.1375 35.309376Q191.15312 35.309376 191.93437 34.871876Q192.73125 34.41875 193.10625 33.653126Q193.3875 33.04375 193.3875 31.8875L193.3875 31.246876ZM197.73125 36.45L197.73125 22.1375L199.48125 22.1375L199.48125 36.45L197.73125 36.45ZM208.87187 33.10625L210.68437 33.340626Q210.2625 34.91875 209.09062 35.809376Q207.93437 36.684376 206.12187 36.684376Q203.85625 36.684376 202.5125 35.29375Q201.18437 33.8875 201.18437 31.35625Q201.18437 28.73125 202.52812 27.29375Q203.87187 25.840626 206.02812 25.840626Q208.10625 25.840626 209.41875 27.2625Q210.74687 28.66875 210.74687 31.246876Q210.74687 31.403126 210.73125 31.715626L202.99687 31.715626Q203.09062 33.41875 203.96562 34.325Q204.84062 35.23125 206.1375 35.23125Q207.10625 35.23125 207.77812 34.73125Q208.46562 34.215626 208.87187 33.10625ZM203.09062 30.2625L208.8875 30.2625Q208.77812 28.965626 208.23125 28.309376Q207.3875 27.29375 206.04375 27.29375Q204.84062 27.29375 204.0125 28.10625Q203.18437 28.903126 203.09062 30.2625ZM218.90312 36.45L217.1375 36.45L217.1375 25.246876Q216.5125 25.85625 215.48125 26.465626Q214.45 27.059376 213.62187 27.371876L213.62187 25.66875Q215.10625 24.98125 216.2 23.996876Q217.30937 22.996876 217.7625 22.075L218.90312 22.075L218.90312 36.45Z" fill-rule="nonzero"/></svg>