<svg version="1.1" viewBox="0.0 0.0 1284.0 788.0" fill="none" stroke="none" stroke-linecap="square" stroke-miterlimit="10" width="1284" height="788" xmlns:xlink="http://www.w3.org/1999/xlink" xmlns="http://www.w3.org/2000/svg"><path fill="#ffffff" d="M0 0L1284.0 0L1284.0 788.0L0 788.0L0 0Z" fill-rule="nonzero"/><path stroke="#cccccc" stroke-width="1.0" stroke-linecap="butt" d="M1244.5 96.5L1244.5 696.5" fill-rule="nonzero"/><path stroke="#cccccc" stroke-width="1.0" stroke-linecap="butt" d="M1054.5 96.5L1054.5 696.5" fill-rule="nonzero"/><path stroke="#cccccc" stroke-width="1.0" stroke-linecap="butt" d="M864.5 96.5L864.5 696.5" fill-rule="nonzero"/><path stroke="#cccccc" stroke-width="1.0" stroke-linecap="butt" d="M675.5 96.5L675.5 696.5" fill-rule="nonzero"/><path stroke="#cccccc" stroke-width="1.0" stroke-linecap="butt" d="M485.5 96.5L485.5 696.5" fill-rule="nonzero"/><path stroke="#cccccc" stroke-width="1.0" stroke-linecap="butt" d="M295.5 96.5L295.5 696.5" fill-rule="nonzero"/><path stroke="#cccccc" stroke-width="1.0" stroke-linecap="butt" d="M105.5 96.5L105.5 696.5" fill-rule="nonzero"/><path stroke="#e6e6e6" stroke-width="1.0" stroke-linecap="butt" d="M1149.5 96.5L1149.5 696.5" fill-rule="nonzero"/><path stroke="#e6e6e6" stroke-width="1.0" stroke-linecap="butt" d="M959.5 96.5L959.5 696.5" fill-rule="nonzero"/><path stroke="#e6e6e6" stroke-width="1.0" stroke-linecap="butt" d="M769.5 96.5L769.5 696.5" fill-rule="nonzero"/><path stroke="#e6e6e6" stroke-width="1.0" stroke-linecap="butt" d="M580.5 96.5L580.5 696.5" fill-rule="nonzero"/><path stroke="#e6e6e6" stroke-width="1.0" stroke-linecap="butt" d="M390.5 96.5L390.5 696.5" fill-rule="nonzero"/><path stroke="#e6e6e6" stroke-width="1.0" stroke-linecap="butt" d="M200.5 96.5L200.5 696.5" fill-rule="nonzero"/><path stroke="#cccccc" stroke-width="1.0" stroke-linecap="butt" d="M105.5 696.5L1244.5 696.5" fill-rule="nonzero"/><path stroke="#cccccc" stroke-width="1.0" stroke-linecap="butt" d="M105.5 546.5L1244.5 546.5" fill-rule="nonzero"/><path stroke="#cccccc" stroke-width="1.0" stroke-linecap="butt" d="M105.5 396.5L1244.5 396.5" fill-rule="nonzero"/><path stroke="#cccccc" stroke-width="1.0" stroke-linecap="butt" d="M105.5 246.5L1244.5 246.5" fill-rule="nonzero"/><path stroke="#cccccc" stroke-width="1.0" stroke-linecap="butt" d="M105.5 96.5L1244.5 96.5" fill-rule="nonzero"/><path stroke="#e6e6e6" stroke-width="1.0" stroke-linecap="butt" d="M105.5 621.5L1244.5 621.5" fill-rule="nonzero"/><path stroke="#e6e6e6" stroke-width="1.0" stroke-linecap="butt" d="M105.5 471.5L1244.5 471.5" fill-rule="nonzero"/><path stroke="#e6e6e6" stroke-width="1.0" stroke-linecap="butt" d="M105.5 321.5L1244.5 321.5" fill-rule="nonzero"/><path stroke="#e6e6e6" stroke-width="1.0" stroke-linecap="butt" d="M105.5 171.5L1244.5 171.5" fill-rule="nonzero"/><path stroke="#eeeeee" stroke-width="1.0" stroke-linecap="butt" d="M707.79 299.2599L707.79 315.2599" fill-rule="nonzero"/><path stroke="#eeeeee" stroke-width="1.0" stroke-linecap="butt" d="M431.02133 470.47336L431.02133 486.47336" fill-rule="nonzero"/><path stroke="#eeeeee" stroke-width="1.0" stroke-linecap="butt" d="M838.55115 444.6462L838.55115 460.6462" fill-rule="nonzero"/><path stroke="#eeeeee" stroke-width="1.0" stroke-linecap="butt" d="M372.06772 547.0698L372.06772 563.0698" fill-rule="nonzero"/><path stroke="#eeeeee" stroke-width="1.0" stroke-linecap="butt" d="M356.98282 526.49963L356.98282 542.49963" fill-rule="nonzero"/><path stroke="#eeeeee" stroke-width="1.0" stroke-linecap="butt" d="M944.8195 424.031L944.8195 440.031" fill-rule="nonzero"/><path stroke="#eeeeee" stroke-width="1.0" stroke-linecap="butt" d="M816.6785 532.9339L816.6785 548.9339" fill-rule="nonzero"/><clipPath id="id_0"><path d="M105.4 96.666664L1244.6 96.666664L1244.6 696.6L105.4 696.6L105.4 96.666664Z" clip-rule="nonzero"/></clipPath><path fill="#0000ff" clip-path="url(#id_0)" d="M713.79 315.2599C713.79 318.57358 711.1037 321.2599 707.79 321.2599C704.47626 321.2599 701.79 318.57358 701.79 315.2599C701.79 311.94617 704.47626 309.2599 707.79 309.2599C711.1037 309.2599 713.79 311.94617 713.79 315.2599Z" fill-rule="nonzero"/><path fill="#0000ff" clip-path="url(#id_0)" d="M437.02133 486.47336C437.02133 489.78705 434.33505 492.47336 431.02133 492.47336C427.7076 492.47336 425.02133 489.78705 425.02133 486.47336C425.02133 483.15964 427.7076 480.47336 431.02133 480.47336C434.33505 480.47336 437.02133 483.15964 437.02133 486.47336Z" fill-rule="nonzero"/><path fill="#0000ff" clip-path="url(#id_0)" d="M844.55115 460.6462C844.55115 463.95993 841.86487 466.6462 838.55115 466.6462C835.2374 466.6462 832.55115 463.95993 832.55115 460.6462C832.55115 457.33252 835.2374 454.6462 838.55115 454.6462C841.86487 454.6462 844.55115 457.33252 844.55115 460.6462Z" fill-rule="nonzero"/><path fill="#0000ff" clip-path="url(#id_0)" d="M378.06772 563.0698C378.06772 566.38354 375.38144 569.0698 372.06772 569.0698C368.75403 569.0698 366.06772 566.38354 366.06772 563.0698C366.06772 559.7561 368.75403 557.0698 372.06772 557.0698C375.38144 557.0698 378.06772 559.7561 378.06772 563.0698Z" fill-rule="nonzero"/><path fill="#0000ff" clip-path="url(#id_0)" d="M362.98282 542.49963C362.98282 545.81335 360.29654 548.49963 356.98282 548.49963C353.66913 548.49963 350.98282 545.81335 350.98282 542.49963C350.98282 539.1859 353.66913 536.49963 356.98282 536.49963C360.29654 536.49963 362.98282 539.1859 362.98282 542.49963Z" fill-rule="nonzero"/><path fill="#0000ff" clip-path="url(#id_0)" d="M950.8195 440.031C950.8195 443.34473 948.13324 446.031 944.8195 446.031C941.5058 446.031 938.8195 443.34473 938.8195 440.031C938.8195 436.71732 941.5058 434.031 944.8195 434.031C948.13324 434.031 950.8195 436.71732 950.8195 440.031Z" fill-rule="nonzero"/><path fill="#0000ff" clip-path="url(#id_0)" d="M822.6785 548.9339C822.6785 552.2476 819.9922 554.9339 816.6785 554.9339C813.3648 554.9339 810.6785 552.2476 810.6785 548.9339C810.6785 545.6202 813.3648 542.9339 816.6785 542.9339C819.9922 542.9339 822.6785 545.6202 822.6785 548.9339Z" fill-rule="nonzero"/><path stroke="#ffffff" stroke-width="3.0" stroke-linejoin="round" stroke-linecap="round" d="M709.4931 295.0255L705.915 295.0255L705.1181 297.2599L703.96185 297.2599L707.21185 288.72864L708.1962 288.72864L711.46185 297.2599L710.3056 297.2599L709.4931 295.0255ZM706.2587 294.10364L709.165 294.10364L707.71185 290.11926L706.2587 294.10364Z" fill-rule="nonzero"/><path fill="#0000ff" d="M709.4931 295.0255L705.915 295.0255L705.1181 297.2599L703.96185 297.2599L707.21185 288.72864L708.1962 288.72864L711.46185 297.2599L710.3056 297.2599L709.4931 295.0255ZM706.2587 294.10364L709.165 294.10364L707.71185 290.11926L706.2587 294.10364Z" fill-rule="nonzero"/><path stroke="#ffffff" stroke-width="3.0" stroke-linejoin="round" stroke-linecap="round" d="M433.33383 464.53586L429.6307 464.53586L429.6307 467.55148L433.92758 467.55148L433.92758 468.47336L428.5057 468.47336L428.5057 459.9421L433.8807 459.9421L433.8807 460.86398L429.6307 460.86398L429.6307 463.61398L433.33383 463.61398L433.33383 464.53586Z" fill-rule="nonzero"/><path fill="#0000ff" d="M433.33383 464.53586L429.6307 464.53586L429.6307 467.55148L433.92758 467.55148L433.92758 468.47336L428.5057 468.47336L428.5057 459.9421L433.8807 459.9421L433.8807 460.86398L429.6307 460.86398L429.6307 463.61398L433.33383 463.61398L433.33383 464.53586Z" fill-rule="nonzero"/><path stroke="#ffffff" stroke-width="3.0" stroke-linejoin="round" stroke-linecap="round" d="M839.86365 438.7087L836.1605 438.7087L836.1605 441.72433L840.4574 441.72433L840.4574 442.6462L835.0355 442.6462L835.0355 434.11496L840.4105 434.11496L840.4105 435.03683L836.1605 435.03683L836.1605 437.78683L839.86365 437.78683L839.86365 438.7087ZM842.5355 434.30246L842.4105 436.4587L841.6605 436.4587L841.6605 433.6462L842.5355 433.6462L842.5355 434.30246Z" fill-rule="nonzero"/><path fill="#0000ff" d="M839.86365 438.7087L836.1605 438.7087L836.1605 441.72433L840.4574 441.72433L840.4574 442.6462L835.0355 442.6462L835.0355 434.11496L840.4105 434.11496L840.4105 435.03683L836.1605 435.03683L836.1605 437.78683L839.86365 437.78683L839.86365 438.7087ZM842.5355 434.30246L842.4105 436.4587L841.6605 436.4587L841.6605 433.6462L842.5355 433.6462L842.5355 434.30246Z" fill-rule="nonzero"/><path stroke="#ffffff" stroke-width="3.0" stroke-linejoin="round" stroke-linecap="round" d="M372.77084 545.0698L371.64584 545.0698L371.64584 536.5386L372.77084 536.5386L372.77084 545.0698Z" fill-rule="nonzero"/><path fill="#0000ff" d="M372.77084 545.0698L371.64584 545.0698L371.64584 536.5386L372.77084 536.5386L372.77084 545.0698Z" fill-rule="nonzero"/><path stroke="#ffffff" stroke-width="3.0" stroke-linejoin="round" stroke-linecap="round" d="M356.68594 524.49963L355.56094 524.49963L355.56094 515.9684L356.68594 515.9684L356.68594 524.49963ZM358.9672 516.1559L358.8422 518.31213L358.0922 518.31213L358.0922 515.49963L358.9672 515.49963L358.9672 516.1559Z" fill-rule="nonzero"/><path fill="#0000ff" d="M356.68594 524.49963L355.56094 524.49963L355.56094 515.9684L356.68594 515.9684L356.68594 524.49963ZM358.9672 516.1559L358.8422 518.31213L358.0922 518.31213L358.0922 515.49963L358.9672 515.49963L358.9672 516.1559Z" fill-rule="nonzero"/><path stroke="#ffffff" stroke-width="3.0" stroke-linejoin="round" stroke-linecap="round" d="M948.3664 418.04663Q948.3664 419.29663 947.9445 420.23413Q947.52264 421.156 946.7414 421.656Q945.97577 422.156 944.9445 422.156Q943.9445 422.156 943.16327 421.656Q942.382 421.156 941.9445 420.24976Q941.52264 419.32788 941.507 418.10913L941.507 417.49976Q941.507 416.26538 941.9289 415.32788Q942.3664 414.39038 943.14764 413.89038Q943.9289 413.37476 944.9445 413.37476Q945.96014 413.37476 946.7414 413.87476Q947.52264 414.37476 947.9445 415.31226Q948.3664 416.24976 948.3664 417.49976L948.3664 418.04663ZM947.257 417.48413Q947.257 415.9685 946.64764 415.156Q946.03827 414.3435 944.9445 414.3435Q943.8664 414.3435 943.257 415.156Q942.64764 415.9685 942.632 417.406L942.632 418.04663Q942.632 419.51538 943.2414 420.35913Q943.8664 421.18726 944.9445 421.18726Q946.03827 421.18726 946.632 420.406Q947.2414 419.60913 947.257 418.12476L947.257 417.48413Z" fill-rule="nonzero"/><path fill="#0000ff" d="M948.3664 418.04663Q948.3664 419.29663 947.9445 420.23413Q947.52264 421.156 946.7414 421.656Q945.97577 422.156 944.9445 422.156Q943.9445 422.156 943.16327 421.656Q942.382 421.156 941.9445 420.24976Q941.52264 419.32788 941.507 418.10913L941.507 417.49976Q941.507 416.26538 941.9289 415.32788Q942.3664 414.39038 943.14764 413.89038Q943.9289 413.37476 944.9445 413.37476Q945.96014 413.37476 946.7414 413.87476Q947.52264 414.37476 947.9445 415.31226Q948.3664 416.24976 948.3664 417.49976L948.3664 418.04663ZM947.257 417.48413Q947.257 415.9685 946.64764 415.156Q946.03827 414.3435 944.9445 414.3435Q943.8664 414.3435 943.257 415.156Q942.64764 415.9685 942.632 417.406L942.632 418.04663Q942.632 419.51538 943.2414 420.35913Q943.8664 421.18726 944.9445 421.18726Q946.03827 421.18726 946.632 420.406Q947.2414 419.60913 947.257 418.12476L947.257 417.48413Z" fill-rule="nonzero"/><path stroke="#ffffff" stroke-width="3.0" stroke-linejoin="round" stroke-linecap="round" d="M819.6785 522.40265L819.6785 528.1995Q819.6629 529.40265 818.9129 530.1839Q818.1629 530.9495 816.88165 531.0433L816.56915 531.0589Q815.1785 531.0589 814.3348 530.3089Q813.50665 529.5433 813.50665 528.21515L813.50665 522.40265L814.616 522.40265L814.616 528.1839Q814.616 529.1058 815.116 529.6214Q815.63165 530.137 816.56915 530.137Q817.5379 530.137 818.0379 529.6214Q818.5379 529.1058 818.5379 528.1839L818.5379 522.40265L819.6785 522.40265Z" fill-rule="nonzero"/><path fill="#0000ff" d="M819.6785 522.40265L819.6785 528.1995Q819.6629 529.40265 818.9129 530.1839Q818.1629 530.9495 816.88165 531.0433L816.56915 531.0589Q815.1785 531.0589 814.3348 530.3089Q813.50665 529.5433 813.50665 528.21515L813.50665 522.40265L814.616 522.40265L814.616 528.1839Q814.616 529.1058 815.116 529.6214Q815.63165 530.137 816.56915 530.137Q817.5379 530.137 818.0379 529.6214Q818.5379 529.1058 818.5379 528.1839L818.5379 522.40265L819.6785 522.40265Z" fill-rule="nonzero"/><path fill="#000000" d="M656.4844 745.6L656.4844 737.0062L662.28125 737.0062L662.28125 738.02185L657.625 738.02185L657.625 740.6781L661.65625 740.6781L661.65625 741.6937L657.625 741.6937L657.625 745.6L656.4844 745.6ZM668.5469 744.58435L668.5469 745.6L662.8594 745.6Q662.8594 745.225 662.9844 744.8656Q663.2031 744.2875 663.6719 743.725Q664.15625 743.1625 665.0625 742.4281Q666.46875 741.27185 666.9531 740.6Q667.4531 739.9281 667.4531 739.33435Q667.4531 738.70935 667.0 738.2875Q666.5469 737.85 665.8281 737.85Q665.0625 737.85 664.6094 738.3031Q664.15625 738.7562 664.1406 739.5687L663.0625 739.45935Q663.1719 738.2406 663.8906 737.6156Q664.625 736.975 665.8594 736.975Q667.09375 736.975 667.8125 737.6625Q668.53125 738.35 668.53125 739.3656Q668.53125 739.8812 668.3125 740.3812Q668.1094 740.8656 667.6094 741.4281Q667.125 741.975 666.0 742.9281Q665.0469 743.725 664.7656 744.02185Q664.5 744.3031 664.3281 744.58435L668.5469 744.58435ZM675.3125 748.1312Q674.4375 747.02185 673.8281 745.5531Q673.2344 744.0687 673.2344 742.4906Q673.2344 741.1 673.6719 739.8187Q674.2031 738.33435 675.3125 736.8656L676.0625 736.8656Q675.3594 738.08435 675.125 738.6Q674.7656 739.4125 674.5625 740.2875Q674.3125 741.3812 674.3125 742.4906Q674.3125 745.3187 676.0625 748.1312L675.3125 748.1312ZM677.46875 745.6L677.46875 737.0062L678.59375 737.0062L678.59375 740.5375L683.0625 740.5375L683.0625 737.0062L684.2031 737.0062L684.2031 745.6L683.0625 745.6L683.0625 741.5531L678.59375 741.5531L678.59375 745.6L677.46875 745.6ZM685.7344 745.6L685.7344 744.7406L689.7031 740.1937Q689.0156 740.225 688.5 740.225L685.96875 740.225L685.96875 739.3812L691.0625 739.3812L691.0625 740.0687L687.6875 744.02185L687.03125 744.7406Q687.75 744.6937 688.3594 744.6937L691.25 744.6937L691.25 745.6L685.7344 745.6ZM691.9844 748.1312L691.2344 748.1312Q692.9844 745.3187 692.9844 742.4906Q692.9844 741.39685 692.7344 740.3031Q692.53125 739.4281 692.1719 738.6156Q691.9375 738.1 691.2344 736.8656L691.9844 736.8656Q693.0781 738.33435 693.6094 739.8187Q694.0625 741.1 694.0625 742.4906Q694.0625 744.0687 693.4531 745.5531Q692.84375 747.02185 691.9844 748.1312Z" fill-rule="nonzero"/><path fill="#000000" d="M50.399975 421.64896L41.806225 421.64896L41.806225 415.85208L42.82185 415.85208L42.82185 420.50833L45.4781 420.50833L45.4781 416.47708L46.493725 416.47708L46.493725 420.50833L50.399975 420.50833L50.399975 421.64896ZM50.399975 411.16458L50.399975 412.21146L43.681225 412.21146Q44.0406 412.60208 44.4156 413.22708Q44.774975 413.83646 44.94685 414.32083L43.931225 414.32083Q43.50935 413.44583 42.931225 412.78958Q42.337475 412.1177 41.774975 411.83646L41.774975 411.16458L50.399975 411.16458ZM52.931225 402.82083Q51.82185 403.69583 50.3531 404.3052Q48.868725 404.89896 47.2906 404.89896Q45.899975 404.89896 44.618725 404.46146Q43.13435 403.9302 41.6656 402.82083L41.6656 402.07083Q42.88435 402.77396 43.399975 403.00833Q44.212475 403.3677 45.087475 403.57083Q46.181225 403.82083 47.2906 403.82083Q50.118725 403.82083 52.931225 402.07083L52.931225 402.82083ZM50.399975 400.66458L41.806225 400.66458L41.806225 399.53958L45.337475 399.53958L45.337475 395.07083L41.806225 395.07083L41.806225 393.9302L50.399975 393.9302L50.399975 395.07083L46.3531 395.07083L46.3531 399.53958L50.399975 399.53958L50.399975 400.66458ZM50.399975 392.39896L49.5406 392.39896L44.993725 388.4302Q45.024975 389.1177 45.024975 389.63333L45.024975 392.16458L44.181225 392.16458L44.181225 387.07083L44.868725 387.07083L48.82185 390.44583L49.5406 391.10208Q49.493725 390.38333 49.493725 389.77396L49.493725 386.88333L50.399975 386.88333L50.399975 392.39896ZM52.931225 386.14896L52.931225 386.89896Q50.118725 385.14896 47.2906 385.14896Q46.19685 385.14896 45.1031 385.39896Q44.2281 385.60208 43.4156 385.96146Q42.899975 386.19583 41.6656 386.89896L41.6656 386.14896Q43.13435 385.0552 44.618725 384.52396Q45.899975 384.07083 47.2906 384.07083Q48.868725 384.07083 50.3531 384.6802Q51.82185 385.28958 52.931225 386.14896Z" fill-rule="nonzero"/><path fill="#000000" d="M84.44688 699.58435L84.44688 700.6L78.75938 700.6Q78.75938 700.225 78.88438 699.8656Q79.10313 699.2875 79.57188 698.725Q80.05625 698.1625 80.9625 697.4281Q82.36875 696.27185 82.85313 695.6Q83.35313 694.9281 83.35313 694.33435Q83.35313 693.70935 82.9 693.2875Q82.44688 692.85 81.72813 692.85Q80.9625 692.85 80.50938 693.3031Q80.05625 693.7562 80.04063 694.5687L78.9625 694.45935Q79.07188 693.2406 79.79063 692.6156Q80.525 691.975 81.75938 691.975Q82.99375 691.975 83.7125 692.6625Q84.43125 693.35 84.43125 694.3656Q84.43125 694.8812 84.2125 695.3812Q84.00938 695.8656 83.50938 696.4281Q83.025 696.975 81.9 697.9281Q80.94688 698.725 80.66563 699.02185Q80.4 699.3031 80.22813 699.58435L84.44688 699.58435ZM85.9 696.3656Q85.9 694.83435 86.2125 693.9125Q86.525 692.975 87.13438 692.475Q87.75938 691.975 88.69688 691.975Q89.38438 691.975 89.9 692.2562Q90.43125 692.5375 90.775 693.0687Q91.11875 693.58435 91.30625 694.33435Q91.49375 695.08435 91.49375 696.3656Q91.49375 697.8812 91.18125 698.8031Q90.88438 699.725 90.25938 700.2406Q89.65 700.7406 88.69688 700.7406Q87.4625 700.7406 86.74375 699.85Q85.9 698.7875 85.9 696.3656ZM86.97813 696.3656Q86.97813 698.475 87.47813 699.1781Q87.97813 699.8812 88.69688 699.8812Q89.43125 699.8812 89.91563 699.1781Q90.41563 698.475 90.41563 696.3656Q90.41563 694.2406 89.91563 693.5531Q89.43125 692.85 88.68125 692.85Q87.9625 692.85 87.525 693.45935Q86.97813 694.2406 86.97813 696.3656ZM92.9 696.3656Q92.9 694.83435 93.2125 693.9125Q93.525 692.975 94.13438 692.475Q94.75938 691.975 95.69688 691.975Q96.38438 691.975 96.9 692.2562Q97.43125 692.5375 97.775 693.0687Q98.11875 693.58435 98.30625 694.33435Q98.49375 695.08435 98.49375 696.3656Q98.49375 697.8812 98.18125 698.8031Q97.88438 699.725 97.25938 700.2406Q96.65 700.7406 95.69688 700.7406Q94.4625 700.7406 93.74375 699.85Q92.9 698.7875 92.9 696.3656ZM93.97813 696.3656Q93.97813 698.475 94.47813 699.1781Q94.97813 699.8812 95.69688 699.8812Q96.43125 699.8812 96.91563 699.1781Q97.41563 698.475 97.41563 696.3656Q97.41563 694.2406 96.91563 693.5531Q96.43125 692.85 95.68125 692.85Q94.9625 692.85 94.525 693.45935Q93.97813 694.2406 93.97813 696.3656Z" fill-rule="nonzero"/><path fill="#000000" d="M82.275 550.61664L82.275 548.55414L78.55625 548.55414L78.55625 547.5854L82.47813 542.0229L83.3375 542.0229L83.3375 547.5854L84.49375 547.5854L84.49375 548.55414L83.3375 548.55414L83.3375 550.61664L82.275 550.61664ZM82.275 547.5854L82.275 543.726L79.5875 547.5854L82.275 547.5854ZM85.9 546.38226Q85.9 544.851 86.2125 543.92914Q86.525 542.99164 87.13438 542.49164Q87.75938 541.99164 88.69688 541.99164Q89.38438 541.99164 89.9 542.2729Q90.43125 542.55414 90.775 543.0854Q91.11875 543.601 91.30625 544.351Q91.49375 545.101 91.49375 546.38226Q91.49375 547.8979 91.18125 548.81976Q90.88438 549.74164 90.25938 550.25726Q89.65 550.75726 88.69688 550.75726Q87.4625 550.75726 86.74375 549.86664Q85.9 548.80414 85.9 546.38226ZM86.97813 546.38226Q86.97813 548.49164 87.47813 549.19476Q87.97813 549.8979 88.69688 549.8979Q89.43125 549.8979 89.91563 549.19476Q90.41563 548.49164 90.41563 546.38226Q90.41563 544.25726 89.91563 543.56976Q89.43125 542.86664 88.68125 542.86664Q87.9625 542.86664 87.525 543.476Q86.97813 544.25726 86.97813 546.38226ZM92.9 546.38226Q92.9 544.851 93.2125 543.92914Q93.525 542.99164 94.13438 542.49164Q94.75938 541.99164 95.69688 541.99164Q96.38438 541.99164 96.9 542.2729Q97.43125 542.55414 97.775 543.0854Q98.11875 543.601 98.30625 544.351Q98.49375 545.101 98.49375 546.38226Q98.49375 547.8979 98.18125 548.81976Q97.88438 549.74164 97.25938 550.25726Q96.65 550.75726 95.69688 550.75726Q94.4625 550.75726 93.74375 549.86664Q92.9 548.80414 92.9 546.38226ZM93.97813 546.38226Q93.97813 548.49164 94.47813 549.19476Q94.97813 549.8979 95.69688 549.8979Q96.43125 549.8979 96.91563 549.19476Q97.41563 548.49164 97.41563 546.38226Q97.41563 544.25726 96.91563 543.56976Q96.43125 542.86664 95.68125 542.86664Q94.9625 542.86664 94.525 543.476Q93.97813 544.25726 93.97813 546.38226Z" fill-rule="nonzero"/><path fill="#000000" d="M84.36875 394.14896L83.32188 394.22708Q83.18125 393.60208 82.93125 393.32083Q82.49375 392.8677 81.86875 392.8677Q81.36875 392.8677 80.97813 393.14896Q80.49375 393.52396 80.19688 394.22708Q79.91563 394.91458 79.9 396.19583Q80.275 395.6177 80.82188 395.33646Q81.38438 395.0552 81.99375 395.0552Q83.04063 395.0552 83.775 395.83646Q84.525 396.6177 84.525 397.83646Q84.525 398.64896 84.16563 399.35208Q83.82188 400.03958 83.2125 400.41458Q82.60313 400.77396 81.8375 400.77396Q80.50938 400.77396 79.68125 399.8052Q78.85313 398.83646 78.85313 396.6177Q78.85313 394.1177 79.775 392.9927Q80.57188 392.00833 81.93125 392.00833Q82.94688 392.00833 83.5875 392.58646Q84.24375 393.14896 84.36875 394.14896ZM80.07188 397.85208Q80.07188 398.39896 80.29063 398.89896Q80.525 399.38333 80.93125 399.64896Q81.35313 399.91458 81.82188 399.91458Q82.47813 399.91458 82.9625 399.38333Q83.44688 398.83646 83.44688 397.91458Q83.44688 397.02396 82.9625 396.50833Q82.49375 395.9927 81.775 395.9927Q81.05625 395.9927 80.55625 396.50833Q80.07188 397.02396 80.07188 397.85208ZM85.9 396.39896Q85.9 394.8677 86.2125 393.94583Q86.525 393.00833 87.13438 392.50833Q87.75938 392.00833 88.69688 392.00833Q89.38438 392.00833 89.9 392.28958Q90.43125 392.57083 90.775 393.10208Q91.11875 393.6177 91.30625 394.3677Q91.49375 395.1177 91.49375 396.39896Q91.49375 397.91458 91.18125 398.83646Q90.88438 399.75833 90.25938 400.27396Q89.65 400.77396 88.69688 400.77396Q87.4625 400.77396 86.74375 399.88333Q85.9 398.82083 85.9 396.39896ZM86.97813 396.39896Q86.97813 398.50833 87.47813 399.21146Q87.97813 399.91458 88.69688 399.91458Q89.43125 399.91458 89.91563 399.21146Q90.41563 398.50833 90.41563 396.39896Q90.41563 394.27396 89.91563 393.58646Q89.43125 392.88333 88.68125 392.88333Q87.9625 392.88333 87.525 393.4927Q86.97813 394.27396 86.97813 396.39896ZM92.9 396.39896Q92.9 394.8677 93.2125 393.94583Q93.525 393.00833 94.13438 392.50833Q94.75938 392.00833 95.69688 392.00833Q96.38438 392.00833 96.9 392.28958Q97.43125 392.57083 97.775 393.10208Q98.11875 393.6177 98.30625 394.3677Q98.49375 395.1177 98.49375 396.39896Q98.49375 397.91458 98.18125 398.83646Q97.88438 399.75833 97.25938 400.27396Q96.65 400.77396 95.69688 400.77396Q94.4625 400.77396 93.74375 399.88333Q92.9 398.82083 92.9 396.39896ZM93.97813 396.39896Q93.97813 398.50833 94.47813 399.21146Q94.97813 399.91458 95.69688 399.91458Q96.43125 399.91458 96.91563 399.21146Q97.41563 398.50833 97.41563 396.39896Q97.41563 394.27396 96.91563 393.58646Q96.43125 392.88333 95.68125 392.88333Q94.9625 392.88333 94.525 393.4927Q93.97813 394.27396 93.97813 396.39896Z" fill-rule="nonzero"/><path fill="#000000" d="M80.525 245.99374Q79.86875 245.74374 79.54063 245.30624Q79.22813 244.85312 79.22813 244.24374Q79.22813 243.30624 79.9 242.66562Q80.5875 242.025 81.69688 242.025Q82.82188 242.025 83.50938 242.68124Q84.19688 243.3375 84.19688 244.275Q84.19688 244.86874 83.88438 245.30624Q83.57188 245.74374 82.93125 245.99374Q83.72813 246.24374 84.13438 246.82187Q84.54063 247.4 84.54063 248.19687Q84.54063 249.29062 83.75938 250.04062Q82.99375 250.79062 81.7125 250.79062Q80.44688 250.79062 79.66563 250.04062Q78.88438 249.29062 78.88438 248.16562Q78.88438 247.32187 79.30625 246.75937Q79.74375 246.19687 80.525 245.99374ZM80.30625 244.19687Q80.30625 244.80624 80.69688 245.19687Q81.10313 245.5875 81.72813 245.5875Q82.3375 245.5875 82.72813 245.2125Q83.11875 244.82187 83.11875 244.25937Q83.11875 243.68124 82.7125 243.29062Q82.30625 242.88437 81.7125 242.88437Q81.10313 242.88437 80.69688 243.275Q80.30625 243.66562 80.30625 244.19687ZM79.97813 248.16562Q79.97813 248.61874 80.18125 249.04062Q80.4 249.4625 80.82188 249.69687Q81.24375 249.93124 81.72813 249.93124Q82.47813 249.93124 82.9625 249.44687Q83.4625 248.9625 83.4625 248.2125Q83.4625 247.44687 82.9625 246.94687Q82.4625 246.44687 81.69688 246.44687Q80.94688 246.44687 80.4625 246.94687Q79.97813 247.43124 79.97813 248.16562ZM85.9 246.41562Q85.9 244.88437 86.2125 243.9625Q86.525 243.025 87.13438 242.525Q87.75938 242.025 88.69688 242.025Q89.38438 242.025 89.9 242.30624Q90.43125 242.5875 90.775 243.11874Q91.11875 243.63437 91.30625 244.38437Q91.49375 245.13437 91.49375 246.41562Q91.49375 247.93124 91.18125 248.85312Q90.88438 249.775 90.25938 250.29062Q89.65 250.79062 88.69688 250.79062Q87.4625 250.79062 86.74375 249.9Q85.9 248.8375 85.9 246.41562ZM86.97813 246.41562Q86.97813 248.525 87.47813 249.22812Q87.97813 249.93124 88.69688 249.93124Q89.43125 249.93124 89.91563 249.22812Q90.41563 248.525 90.41563 246.41562Q90.41563 244.29062 89.91563 243.60312Q89.43125 242.9 88.68125 242.9Q87.9625 242.9 87.525 243.50937Q86.97813 244.29062 86.97813 246.41562ZM92.9 246.41562Q92.9 244.88437 93.2125 243.9625Q93.525 243.025 94.13438 242.525Q94.75938 242.025 95.69688 242.025Q96.38438 242.025 96.9 242.30624Q97.43125 242.5875 97.775 243.11874Q98.11875 243.63437 98.30625 244.38437Q98.49375 245.13437 98.49375 246.41562Q98.49375 247.93124 98.18125 248.85312Q97.88438 249.775 97.25938 250.29062Q96.65 250.79062 95.69688 250.79062Q94.4625 250.79062 93.74375 249.9Q92.9 248.8375 92.9 246.41562ZM93.97813 246.41562Q93.97813 248.525 94.47813 249.22812Q94.97813 249.93124 95.69688 249.93124Q96.43125 249.93124 96.91563 249.22812Q97.41563 248.525 97.41563 246.41562Q97.41563 244.29062 96.91563 243.60312Q96.43125 242.9 95.68125 242.9Q94.9625 242.9 94.525 243.50937Q93.97813 244.29062 93.97813 246.41562Z" fill-rule="nonzero"/><path fill="#000000" d="M75.86875 100.666664L74.82188 100.666664L74.82188 93.947914Q74.43125 94.30729 73.80625 94.68229Q73.19688 95.041664 72.7125 95.21354L72.7125 94.197914Q73.5875 93.77604 74.24375 93.197914Q74.91563 92.604164 75.19688 92.041664L75.86875 92.041664L75.86875 100.666664ZM78.9 96.43229Q78.9 94.90104 79.2125 93.979164Q79.525 93.041664 80.13438 92.541664Q80.75938 92.041664 81.69688 92.041664Q82.38438 92.041664 82.9 92.322914Q83.43125 92.604164 83.775 93.135414Q84.11875 93.65104 84.30625 94.40104Q84.49375 95.15104 84.49375 96.43229Q84.49375 97.947914 84.18125 98.86979Q83.88438 99.791664 83.25938 100.30729Q82.65 100.80729 81.69688 100.80729Q80.4625 100.80729 79.74375 99.916664Q78.9 98.854164 78.9 96.43229ZM79.97813 96.43229Q79.97813 98.541664 80.47813 99.24479Q80.97813 99.947914 81.69688 99.947914Q82.43125 99.947914 82.91563 99.24479Q83.41563 98.541664 83.41563 96.43229Q83.41563 94.30729 82.91563 93.61979Q82.43125 92.916664 81.68125 92.916664Q80.9625 92.916664 80.525 93.52604Q79.97813 94.30729 79.97813 96.43229ZM85.9 96.43229Q85.9 94.90104 86.2125 93.979164Q86.525 93.041664 87.13438 92.541664Q87.75938 92.041664 88.69688 92.041664Q89.38438 92.041664 89.9 92.322914Q90.43125 92.604164 90.775 93.135414Q91.11875 93.65104 91.30625 94.40104Q91.49375 95.15104 91.49375 96.43229Q91.49375 97.947914 91.18125 98.86979Q90.88438 99.791664 90.25938 100.30729Q89.65 100.80729 88.69688 100.80729Q87.4625 100.80729 86.74375 99.916664Q85.9 98.854164 85.9 96.43229ZM86.97813 96.43229Q86.97813 98.541664 87.47813 99.24479Q87.97813 99.947914 88.69688 99.947914Q89.43125 99.947914 89.91563 99.24479Q90.41563 98.541664 90.41563 96.43229Q90.41563 94.30729 89.91563 93.61979Q89.43125 92.916664 88.68125 92.916664Q87.9625 92.916664 87.525 93.52604Q86.97813 94.30729 86.97813 96.43229ZM92.9 96.43229Q92.9 94.90104 93.2125 93.979164Q93.525 93.041664 94.13438 92.541664Q94.75938 92.041664 95.69688 92.041664Q96.38438 92.041664 96.9 92.322914Q97.43125 92.604164 97.775 93.135414Q98.11875 93.65104 98.30625 94.40104Q98.49375 95.15104 98.49375 96.43229Q98.49375 97.947914 98.18125 98.86979Q97.88438 99.791664 97.25938 100.30729Q96.65 100.80729 95.69688 100.80729Q94.4625 100.80729 93.74375 99.916664Q92.9 98.854164 92.9 96.43229ZM93.97813 96.43229Q93.97813 98.541664 94.47813 99.24479Q94.97813 99.947914 95.69688 99.947914Q96.43125 99.947914 96.91563 99.24479Q97.41563 98.541664 97.41563 96.43229Q97.41563 94.30729 96.91563 93.61979Q96.43125 92.916664 95.68125 92.916664Q94.9625 92.916664 94.525 93.52604Q93.97813 94.30729 93.97813 96.43229Z" fill-rule="nonzero"/><path fill="#000000" d="M1236.225 708.9437Q1235.5687 708.6937 1235.2406 708.2562Q1234.9281 707.8031 1234.9281 707.1937Q1234.9281 706.2562 1235.6 705.6156Q1236.2875 704.975 1237.3969 704.975Q1238.5219 704.975 1239.2094 705.6312Q1239.8969 706.2875 1239.8969 707.225Q1239.8969 707.8187 1239.5844 708.2562Q1239.2719 708.6937 1238.6312 708.9437Q1239.4281 709.1937 1239.8344 709.77185Q1240.2406 710.35 1240.2406 711.14685Q1240.2406 712.2406 1239.4594 712.9906Q1238.6937 713.7406 1237.4125 713.7406Q1236.1469 713.7406 1235.3656 712.9906Q1234.5844 712.2406 1234.5844 711.1156Q1234.5844 710.27185 1235.0062 709.70935Q1235.4437 709.14685 1236.225 708.9437ZM1236.0062 707.14685Q1236.0062 707.7562 1236.3969 708.14685Q1236.8031 708.5375 1237.4281 708.5375Q1238.0375 708.5375 1238.4281 708.1625Q1238.8187 707.77185 1238.8187 707.20935Q1238.8187 706.6312 1238.4125 706.2406Q1238.0062 705.83435 1237.4125 705.83435Q1236.8031 705.83435 1236.3969 706.225Q1236.0062 706.6156 1236.0062 707.14685ZM1235.6781 711.1156Q1235.6781 711.5687 1235.8812 711.9906Q1236.1 712.4125 1236.5219 712.64685Q1236.9437 712.8812 1237.4281 712.8812Q1238.1781 712.8812 1238.6625 712.39685Q1239.1625 711.9125 1239.1625 711.1625Q1239.1625 710.39685 1238.6625 709.89685Q1238.1625 709.39685 1237.3969 709.39685Q1236.6469 709.39685 1236.1625 709.89685Q1235.6781 710.3812 1235.6781 711.1156ZM1241.6 709.3656Q1241.6 707.83435 1241.9125 706.9125Q1242.225 705.975 1242.8344 705.475Q1243.4594 704.975 1244.3969 704.975Q1245.0844 704.975 1245.6 705.2562Q1246.1312 705.5375 1246.475 706.0687Q1246.8187 706.58435 1247.0062 707.33435Q1247.1937 708.08435 1247.1937 709.3656Q1247.1937 710.8812 1246.8812 711.8031Q1246.5844 712.725 1245.9594 713.2406Q1245.35 713.7406 1244.3969 713.7406Q1243.1625 713.7406 1242.4437 712.85Q1241.6 711.7875 1241.6 709.3656ZM1242.6781 709.3656Q1242.6781 711.475 1243.1781 712.1781Q1243.6781 712.8812 1244.3969 712.8812Q1245.1312 712.8812 1245.6156 712.1781Q1246.1156 711.475 1246.1156 709.3656Q1246.1156 707.2406 1245.6156 706.5531Q1245.1312 705.85 1244.3812 705.85Q1243.6625 705.85 1243.225 706.45935Q1242.6781 707.2406 1242.6781 709.3656ZM1248.6 709.3656Q1248.6 707.83435 1248.9125 706.9125Q1249.225 705.975 1249.8344 705.475Q1250.4594 704.975 1251.3969 704.975Q1252.0844 704.975 1252.6 705.2562Q1253.1312 705.5375 1253.475 706.0687Q1253.8187 706.58435 1254.0062 707.33435Q1254.1937 708.08435 1254.1937 709.3656Q1254.1937 710.8812 1253.8812 711.8031Q1253.5844 712.725 1252.9594 713.2406Q1252.35 713.7406 1251.3969 713.7406Q1250.1625 713.7406 1249.4437 712.85Q1248.6 711.7875 1248.6 709.3656ZM1249.6781 709.3656Q1249.6781 711.475 1250.1781 712.1781Q1250.6781 712.8812 1251.3969 712.8812Q1252.1312 712.8812 1252.6156 712.1781Q1253.1156 711.475 1253.1156 709.3656Q1253.1156 707.2406 1252.6156 706.5531Q1252.1312 705.85 1251.3812 705.85Q1250.6625 705.85 1250.225 706.45935Q1249.6781 707.2406 1249.6781 709.3656Z" fill-rule="nonzero"/><path fill="#000000" d="M1045.202 713.6L1044.1552 713.6L1044.1552 706.8812Q1043.7645 707.2406 1043.1395 707.6156Q1042.5302 707.975 1042.0458 708.14685L1042.0458 707.1312Q1042.9208 706.70935 1043.577 706.1312Q1044.2489 705.5375 1044.5302 704.975L1045.202 704.975L1045.202 713.6ZM1048.2333 709.3656Q1048.2333 707.83435 1048.5458 706.9125Q1048.8583 705.975 1049.4677 705.475Q1050.0927 704.975 1051.0302 704.975Q1051.7177 704.975 1052.2333 705.2562Q1052.7645 705.5375 1053.1083 706.0687Q1053.452 706.58435 1053.6395 707.33435Q1053.827 708.08435 1053.827 709.3656Q1053.827 710.8812 1053.5145 711.8031Q1053.2177 712.725 1052.5927 713.2406Q1051.9833 713.7406 1051.0302 713.7406Q1049.7958 713.7406 1049.077 712.85Q1048.2333 711.7875 1048.2333 709.3656ZM1049.3114 709.3656Q1049.3114 711.475 1049.8114 712.1781Q1050.3114 712.8812 1051.0302 712.8812Q1051.7645 712.8812 1052.2489 712.1781Q1052.7489 711.475 1052.7489 709.3656Q1052.7489 707.2406 1052.2489 706.5531Q1051.7645 705.85 1051.0145 705.85Q1050.2958 705.85 1049.8583 706.45935Q1049.3114 707.2406 1049.3114 709.3656ZM1055.2333 709.3656Q1055.2333 707.83435 1055.5458 706.9125Q1055.8583 705.975 1056.4677 705.475Q1057.0927 704.975 1058.0302 704.975Q1058.7177 704.975 1059.2333 705.2562Q1059.7645 705.5375 1060.1083 706.0687Q1060.452 706.58435 1060.6395 707.33435Q1060.827 708.08435 1060.827 709.3656Q1060.827 710.8812 1060.5145 711.8031Q1060.2177 712.725 1059.5927 713.2406Q1058.9833 713.7406 1058.0302 713.7406Q1056.7958 713.7406 1056.077 712.85Q1055.2333 711.7875 1055.2333 709.3656ZM1056.3114 709.3656Q1056.3114 711.475 1056.8114 712.1781Q1057.3114 712.8812 1058.0302 712.8812Q1058.7645 712.8812 1059.2489 712.1781Q1059.7489 711.475 1059.7489 709.3656Q1059.7489 707.2406 1059.2489 706.5531Q1058.7645 705.85 1058.0145 705.85Q1057.2958 705.85 1056.8583 706.45935Q1056.3114 707.2406 1056.3114 709.3656ZM1062.2333 709.3656Q1062.2333 707.83435 1062.5458 706.9125Q1062.8583 705.975 1063.4677 705.475Q1064.0927 704.975 1065.0302 704.975Q1065.7177 704.975 1066.2333 705.2562Q1066.7645 705.5375 1067.1083 706.0687Q1067.452 706.58435 1067.6395 707.33435Q1067.827 708.08435 1067.827 709.3656Q1067.827 710.8812 1067.5145 711.8031Q1067.2177 712.725 1066.5927 713.2406Q1065.9833 713.7406 1065.0302 713.7406Q1063.7958 713.7406 1063.077 712.85Q1062.2333 711.7875 1062.2333 709.3656ZM1063.3114 709.3656Q1063.3114 711.475 1063.8114 712.1781Q1064.3114 712.8812 1065.0302 712.8812Q1065.7645 712.8812 1066.2489 712.1781Q1066.7489 711.475 1066.7489 709.3656Q1066.7489 707.2406 1066.2489 706.5531Q1065.7645 705.85 1065.0145 705.85Q1064.2958 705.85 1063.8583 706.45935Q1063.3114 707.2406 1063.3114 709.3656Z" fill-rule="nonzero"/><path fill="#000000" d="M855.3354 713.6L854.2885 713.6L854.2885 706.8812Q853.8979 707.2406 853.2729 707.6156Q852.6635 707.975 852.17914 708.14685L852.17914 707.1312Q853.05414 706.70935 853.7104 706.1312Q854.38226 705.5375 854.6635 704.975L855.3354 704.975L855.3354 713.6ZM863.9135 712.58435L863.9135 713.6L858.226 713.6Q858.226 713.225 858.351 712.8656Q858.56976 712.2875 859.0385 711.725Q859.5229 711.1625 860.42914 710.4281Q861.8354 709.27185 862.31976 708.6Q862.81976 707.9281 862.81976 707.33435Q862.81976 706.70935 862.36664 706.2875Q861.9135 705.85 861.19476 705.85Q860.42914 705.85 859.976 706.3031Q859.5229 706.7562 859.50726 707.5687L858.42914 707.45935Q858.5385 706.2406 859.25726 705.6156Q859.99164 704.975 861.226 704.975Q862.4604 704.975 863.17914 705.6625Q863.8979 706.35 863.8979 707.3656Q863.8979 707.8812 863.67914 708.3812Q863.476 708.8656 862.976 709.4281Q862.49164 709.975 861.36664 710.9281Q860.4135 711.725 860.13226 712.02185Q859.86664 712.3031 859.69476 712.58435L863.9135 712.58435ZM865.36664 709.3656Q865.36664 707.83435 865.67914 706.9125Q865.99164 705.975 866.601 705.475Q867.226 704.975 868.1635 704.975Q868.851 704.975 869.36664 705.2562Q869.8979 705.5375 870.24164 706.0687Q870.5854 706.58435 870.7729 707.33435Q870.9604 708.08435 870.9604 709.3656Q870.9604 710.8812 870.6479 711.8031Q870.351 712.725 869.726 713.2406Q869.11664 713.7406 868.1635 713.7406Q866.92914 713.7406 866.2104 712.85Q865.36664 711.7875 865.36664 709.3656ZM866.44476 709.3656Q866.44476 711.475 866.94476 712.1781Q867.44476 712.8812 868.1635 712.8812Q868.8979 712.8812 869.38226 712.1781Q869.88226 711.475 869.88226 709.3656Q869.88226 707.2406 869.38226 706.5531Q868.8979 705.85 868.1479 705.85Q867.42914 705.85 866.99164 706.45935Q866.44476 707.2406 866.44476 709.3656ZM872.36664 709.3656Q872.36664 707.83435 872.67914 706.9125Q872.99164 705.975 873.601 705.475Q874.226 704.975 875.1635 704.975Q875.851 704.975 876.36664 705.2562Q876.8979 705.5375 877.24164 706.0687Q877.5854 706.58435 877.7729 707.33435Q877.9604 708.08435 877.9604 709.3656Q877.9604 710.8812 877.6479 711.8031Q877.351 712.725 876.726 713.2406Q876.11664 713.7406 875.1635 713.7406Q873.92914 713.7406 873.2104 712.85Q872.36664 711.7875 872.36664 709.3656ZM873.44476 709.3656Q873.44476 711.475 873.94476 712.1781Q874.44476 712.8812 875.1635 712.8812Q875.8979 712.8812 876.38226 712.1781Q876.88226 711.475 876.88226 709.3656Q876.88226 707.2406 876.38226 706.5531Q875.8979 705.85 875.1479 705.85Q874.42914 705.85 873.99164 706.45935Q873.44476 707.2406 873.44476 709.3656Z" fill-rule="nonzero"/><path fill="#000000" d="M665.46875 713.6L664.4219 713.6L664.4219 706.8812Q664.03125 707.2406 663.40625 707.6156Q662.7969 707.975 662.3125 708.14685L662.3125 707.1312Q663.1875 706.70935 663.84375 706.1312Q664.5156 705.5375 664.7969 704.975L665.46875 704.975L665.46875 713.6ZM671.875 713.6L671.875 711.5375L668.15625 711.5375L668.15625 710.5687L672.0781 705.0062L672.9375 705.0062L672.9375 710.5687L674.09375 710.5687L674.09375 711.5375L672.9375 711.5375L672.9375 713.6L671.875 713.6ZM671.875 710.5687L671.875 706.70935L669.1875 710.5687L671.875 710.5687ZM675.5 709.3656Q675.5 707.83435 675.8125 706.9125Q676.125 705.975 676.7344 705.475Q677.3594 704.975 678.2969 704.975Q678.9844 704.975 679.5 705.2562Q680.03125 705.5375 680.375 706.0687Q680.71875 706.58435 680.90625 707.33435Q681.09375 708.08435 681.09375 709.3656Q681.09375 710.8812 680.78125 711.8031Q680.4844 712.725 679.8594 713.2406Q679.25 713.7406 678.2969 713.7406Q677.0625 713.7406 676.34375 712.85Q675.5 711.7875 675.5 709.3656ZM676.5781 709.3656Q676.5781 711.475 677.0781 712.1781Q677.5781 712.8812 678.2969 712.8812Q679.03125 712.8812 679.5156 712.1781Q680.0156 711.475 680.0156 709.3656Q680.0156 707.2406 679.5156 706.5531Q679.03125 705.85 678.28125 705.85Q677.5625 705.85 677.125 706.45935Q676.5781 707.2406 676.5781 709.3656ZM682.5 709.3656Q682.5 707.83435 682.8125 706.9125Q683.125 705.975 683.7344 705.475Q684.3594 704.975 685.2969 704.975Q685.9844 704.975 686.5 705.2562Q687.03125 705.5375 687.375 706.0687Q687.71875 706.58435 687.90625 707.33435Q688.09375 708.08435 688.09375 709.3656Q688.09375 710.8812 687.78125 711.8031Q687.4844 712.725 686.8594 713.2406Q686.25 713.7406 685.2969 713.7406Q684.0625 713.7406 683.34375 712.85Q682.5 711.7875 682.5 709.3656ZM683.5781 709.3656Q683.5781 711.475 684.0781 712.1781Q684.5781 712.8812 685.2969 712.8812Q686.03125 712.8812 686.5156 712.1781Q687.0156 711.475 687.0156 709.3656Q687.0156 707.2406 686.5156 706.5531Q686.03125 705.85 685.28125 705.85Q684.5625 705.85 684.125 706.45935Q683.5781 707.2406 683.5781 709.3656Z" fill-rule="nonzero"/><path fill="#000000" d="M475.60208 713.6L474.5552 713.6L474.5552 706.8812Q474.16458 707.2406 473.53958 707.6156Q472.9302 707.975 472.44583 708.14685L472.44583 707.1312Q473.32083 706.70935 473.97708 706.1312Q474.64896 705.5375 474.9302 704.975L475.60208 704.975L475.60208 713.6ZM484.10208 707.1156L483.0552 707.1937Q482.91458 706.5687 482.66458 706.2875Q482.22708 705.83435 481.60208 705.83435Q481.10208 705.83435 480.71146 706.1156Q480.22708 706.4906 479.9302 707.1937Q479.64896 707.8812 479.63333 709.1625Q480.00833 708.58435 480.5552 708.3031Q481.1177 708.02185 481.72708 708.02185Q482.77396 708.02185 483.50833 708.8031Q484.25833 709.58435 484.25833 710.8031Q484.25833 711.6156 483.89896 712.3187Q483.5552 713.0062 482.94583 713.3812Q482.33646 713.7406 481.57083 713.7406Q480.2427 713.7406 479.41458 712.77185Q478.58646 711.8031 478.58646 709.58435Q478.58646 707.08435 479.50833 705.95935Q480.3052 704.975 481.66458 704.975Q482.6802 704.975 483.32083 705.5531Q483.97708 706.1156 484.10208 707.1156ZM479.8052 710.8187Q479.8052 711.3656 480.02396 711.8656Q480.25833 712.35 480.66458 712.6156Q481.08646 712.8812 481.5552 712.8812Q482.21146 712.8812 482.69583 712.35Q483.1802 711.8031 483.1802 710.8812Q483.1802 709.9906 482.69583 709.475Q482.22708 708.95935 481.50833 708.95935Q480.78958 708.95935 480.28958 709.475Q479.8052 709.9906 479.8052 710.8187ZM485.63333 709.3656Q485.63333 707.83435 485.94583 706.9125Q486.25833 705.975 486.8677 705.475Q487.4927 704.975 488.4302 704.975Q489.1177 704.975 489.63333 705.2562Q490.16458 705.5375 490.50833 706.0687Q490.85208 706.58435 491.03958 707.33435Q491.22708 708.08435 491.22708 709.3656Q491.22708 710.8812 490.91458 711.8031Q490.6177 712.725 489.9927 713.2406Q489.38333 713.7406 488.4302 713.7406Q487.19583 713.7406 486.47708 712.85Q485.63333 711.7875 485.63333 709.3656ZM486.71146 709.3656Q486.71146 711.475 487.21146 712.1781Q487.71146 712.8812 488.4302 712.8812Q489.16458 712.8812 489.64896 712.1781Q490.14896 711.475 490.14896 709.3656Q490.14896 707.2406 489.64896 706.5531Q489.16458 705.85 488.41458 705.85Q487.69583 705.85 487.25833 706.45935Q486.71146 707.2406 486.71146 709.3656ZM492.63333 709.3656Q492.63333 707.83435 492.94583 706.9125Q493.25833 705.975 493.8677 705.475Q494.4927 704.975 495.4302 704.975Q496.1177 704.975 496.63333 705.2562Q497.16458 705.5375 497.50833 706.0687Q497.85208 706.58435 498.03958 707.33435Q498.22708 708.08435 498.22708 709.3656Q498.22708 710.8812 497.91458 711.8031Q497.6177 712.725 496.9927 713.2406Q496.38333 713.7406 495.4302 713.7406Q494.19583 713.7406 493.47708 712.85Q492.63333 711.7875 492.63333 709.3656ZM493.71146 709.3656Q493.71146 711.475 494.21146 712.1781Q494.71146 712.8812 495.4302 712.8812Q496.16458 712.8812 496.64896 712.1781Q497.14896 711.475 497.14896 709.3656Q497.14896 707.2406 496.64896 706.5531Q496.16458 705.85 495.41458 705.85Q494.69583 705.85 494.25833 706.45935Q493.71146 707.2406 493.71146 709.3656Z" fill-rule="nonzero"/><path fill="#000000" d="M285.7354 713.6L284.68854 713.6L284.68854 706.8812Q284.2979 707.2406 283.6729 707.6156Q283.06354 707.975 282.57916 708.14685L282.57916 707.1312Q283.45416 706.70935 284.1104 706.1312Q284.7823 705.5375 285.06354 704.975L285.7354 704.975L285.7354 713.6ZM290.39166 708.9437Q289.7354 708.6937 289.4073 708.2562Q289.0948 707.8031 289.0948 707.1937Q289.0948 706.2562 289.76666 705.6156Q290.45416 704.975 291.56354 704.975Q292.68854 704.975 293.37604 705.6312Q294.06354 706.2875 294.06354 707.225Q294.06354 707.8187 293.75104 708.2562Q293.43854 708.6937 292.7979 708.9437Q293.5948 709.1937 294.00104 709.77185Q294.4073 710.35 294.4073 711.14685Q294.4073 712.2406 293.62604 712.9906Q292.8604 713.7406 291.57916 713.7406Q290.31354 713.7406 289.5323 712.9906Q288.75104 712.2406 288.75104 711.1156Q288.75104 710.27185 289.1729 709.70935Q289.6104 709.14685 290.39166 708.9437ZM290.1729 707.14685Q290.1729 707.7562 290.56354 708.14685Q290.9698 708.5375 291.5948 708.5375Q292.20416 708.5375 292.5948 708.1625Q292.9854 707.77185 292.9854 707.20935Q292.9854 706.6312 292.57916 706.2406Q292.1729 705.83435 291.57916 705.83435Q290.9698 705.83435 290.56354 706.225Q290.1729 706.6156 290.1729 707.14685ZM289.8448 711.1156Q289.8448 711.5687 290.0479 711.9906Q290.26666 712.4125 290.68854 712.64685Q291.1104 712.8812 291.5948 712.8812Q292.3448 712.8812 292.82916 712.39685Q293.32916 711.9125 293.32916 711.1625Q293.32916 710.39685 292.82916 709.89685Q292.32916 709.39685 291.56354 709.39685Q290.81354 709.39685 290.32916 709.89685Q289.8448 710.3812 289.8448 711.1156ZM295.76666 709.3656Q295.76666 707.83435 296.07916 706.9125Q296.39166 705.975 297.00104 705.475Q297.62604 704.975 298.56354 704.975Q299.25104 704.975 299.76666 705.2562Q300.2979 705.5375 300.64166 706.0687Q300.9854 706.58435 301.1729 707.33435Q301.3604 708.08435 301.3604 709.3656Q301.3604 710.8812 301.0479 711.8031Q300.75104 712.725 300.12604 713.2406Q299.51666 713.7406 298.56354 713.7406Q297.32916 713.7406 296.6104 712.85Q295.76666 711.7875 295.76666 709.3656ZM296.8448 709.3656Q296.8448 711.475 297.3448 712.1781Q297.8448 712.8812 298.56354 712.8812Q299.2979 712.8812 299.7823 712.1781Q300.2823 711.475 300.2823 709.3656Q300.2823 707.2406 299.7823 706.5531Q299.2979 705.85 298.5479 705.85Q297.82916 705.85 297.39166 706.45935Q296.8448 707.2406 296.8448 709.3656ZM302.76666 709.3656Q302.76666 707.83435 303.07916 706.9125Q303.39166 705.975 304.00104 705.475Q304.62604 704.975 305.56354 704.975Q306.25104 704.975 306.76666 705.2562Q307.2979 705.5375 307.64166 706.0687Q307.9854 706.58435 308.1729 707.33435Q308.3604 708.08435 308.3604 709.3656Q308.3604 710.8812 308.0479 711.8031Q307.75104 712.725 307.12604 713.2406Q306.51666 713.7406 305.56354 713.7406Q304.32916 713.7406 303.6104 712.85Q302.76666 711.7875 302.76666 709.3656ZM303.8448 709.3656Q303.8448 711.475 304.3448 712.1781Q304.8448 712.8812 305.56354 712.8812Q306.2979 712.8812 306.7823 712.1781Q307.2823 711.475 307.2823 709.3656Q307.2823 707.2406 306.7823 706.5531Q306.2979 705.85 305.5479 705.85Q304.82916 705.85 304.39166 706.45935Q303.8448 707.2406 303.8448 709.3656Z" fill-rule="nonzero"/><path fill="#000000" d="M97.44688 712.58435L97.44688 713.6L91.75938 713.6Q91.75938 713.225 91.88438 712.8656Q92.10313 712.2875 92.57188 711.725Q93.05625 711.1625 93.9625 710.4281Q95.36875 709.27185 95.85313 708.6Q96.35313 707.9281 96.35313 707.33435Q96.35313 706.70935 95.9 706.2875Q95.44688 705.85 94.72813 705.85Q93.9625 705.85 93.50938 706.3031Q93.05625 706.7562 93.04063 707.5687L91.9625 707.45935Q92.07188 706.2406 92.79063 705.6156Q93.525 704.975 94.75938 704.975Q95.99375 704.975 96.7125 705.6625Q97.43125 706.35 97.43125 707.3656Q97.43125 707.8812 97.2125 708.3812Q97.00938 708.8656 96.50938 709.4281Q96.025 709.975 94.9 710.9281Q93.94688 711.725 93.66563 712.02185Q93.4 712.3031 93.22813 712.58435L97.44688 712.58435ZM98.9 709.3656Q98.9 707.83435 99.2125 706.9125Q99.525 705.975 100.13438 705.475Q100.75938 704.975 101.69688 704.975Q102.38438 704.975 102.9 705.2562Q103.43125 705.5375 103.775 706.0687Q104.11875 706.58435 104.30625 707.33435Q104.49375 708.08435 104.49375 709.3656Q104.49375 710.8812 104.18125 711.8031Q103.88438 712.725 103.25938 713.2406Q102.65 713.7406 101.69688 713.7406Q100.4625 713.7406 99.74375 712.85Q98.9 711.7875 98.9 709.3656ZM99.97813 709.3656Q99.97813 711.475 100.47813 712.1781Q100.97813 712.8812 101.69688 712.8812Q102.43125 712.8812 102.91563 712.1781Q103.41563 711.475 103.41563 709.3656Q103.41563 707.2406 102.91563 706.5531Q102.43125 705.85 101.68125 705.85Q100.9625 705.85 100.525 706.45935Q99.97813 707.2406 99.97813 709.3656ZM105.9 709.3656Q105.9 707.83435 106.2125 706.9125Q106.525 705.975 107.13438 705.475Q107.75938 704.975 108.69688 704.975Q109.38438 704.975 109.9 705.2562Q110.43125 705.5375 110.775 706.0687Q111.11875 706.58435 111.30625 707.33435Q111.49375 708.08435 111.49375 709.3656Q111.49375 710.8812 111.18125 711.8031Q110.88438 712.725 110.25938 713.2406Q109.65 713.7406 108.69688 713.7406Q107.4625 713.7406 106.74375 712.85Q105.9 711.7875 105.9 709.3656ZM106.97813 709.3656Q106.97813 711.475 107.47813 712.1781Q107.97813 712.8812 108.69688 712.8812Q109.43125 712.8812 109.91563 712.1781Q110.41563 711.475 110.41563 709.3656Q110.41563 707.2406 109.91563 706.5531Q109.43125 705.85 108.68125 705.85Q107.9625 705.85 107.525 706.45935Q106.97813 707.2406 106.97813 709.3656ZM112.9 709.3656Q112.9 707.83435 113.2125 706.9125Q113.525 705.975 114.13438 705.475Q114.75938 704.975 115.69688 704.975Q116.38438 704.975 116.9 705.2562Q117.43125 705.5375 117.775 706.0687Q118.11875 706.58435 118.30625 707.33435Q118.49375 708.08435 118.49375 709.3656Q118.49375 710.8812 118.18125 711.8031Q117.88438 712.725 117.25938 713.2406Q116.65 713.7406 115.69688 713.7406Q114.4625 713.7406 113.74375 712.85Q112.9 711.7875 112.9 709.3656ZM113.97813 709.3656Q113.97813 711.475 114.47813 712.1781Q114.97813 712.8812 115.69688 712.8812Q116.43125 712.8812 116.91563 712.1781Q117.41563 711.475 117.41563 709.3656Q117.41563 707.2406 116.91563 706.5531Q116.43125 705.85 115.68125 705.85Q114.9625 705.85 114.525 706.45935Q113.97813 707.2406 113.97813 709.3656Z" fill-rule="nonzero"/><path fill="#757575" d="M40.884377 58.4L40.884377 44.0875L43.74375 44.0875L47.11875 54.2125Q47.5875 55.634377 47.80625 56.3375Q48.05625 55.55625 48.571877 54.040627L51.99375 44.0875L54.540627 44.0875L54.540627 58.4L52.728127 58.4L52.728127 46.415627L48.55625 58.4L46.853127 58.4L42.7125 46.2125L42.7125 58.4L40.884377 58.4ZM64.82188 55.05625L66.63438 55.290627Q66.2125 56.86875 65.04063 57.759377Q63.884377 58.634377 62.071877 58.634377Q59.80625 58.634377 58.4625 57.24375Q57.134377 55.8375 57.134377 53.30625Q57.134377 50.68125 58.478127 49.24375Q59.821877 47.790627 61.978127 47.790627Q64.05625 47.790627 65.36875 49.2125Q66.69688 50.61875 66.69688 53.196877Q66.69688 53.353127 66.68125 53.665627L58.946877 53.665627Q59.040627 55.36875 59.915627 56.275Q60.790627 57.18125 62.0875 57.18125Q63.05625 57.18125 63.728127 56.68125Q64.41563 56.165627 64.82188 55.05625ZM59.040627 52.2125L64.8375 52.2125Q64.72813 50.915627 64.18125 50.259377Q63.3375 49.24375 61.99375 49.24375Q60.790627 49.24375 59.9625 50.05625Q59.134377 50.853127 59.040627 52.2125ZM75.49375 57.11875Q74.50938 57.946877 73.60313 58.290627Q72.69688 58.634377 71.66563 58.634377Q69.9625 58.634377 69.04063 57.80625Q68.11875 56.9625 68.11875 55.665627Q68.11875 54.9 68.4625 54.275Q68.82188 53.65 69.38438 53.275Q69.94688 52.884377 70.65 52.68125Q71.16563 52.55625 72.2125 52.415627Q74.3375 52.165627 75.3375 51.821877Q75.35313 51.4625 75.35313 51.353127Q75.35313 50.290627 74.85313 49.8375Q74.18125 49.24375 72.85313 49.24375Q71.60313 49.24375 71.00938 49.68125Q70.43125 50.11875 70.15 51.228127L68.43125 50.99375Q68.66563 49.884377 69.19688 49.2125Q69.72813 48.525 70.74375 48.165627Q71.75938 47.790627 73.10313 47.790627Q74.43125 47.790627 75.25938 48.103127Q76.0875 48.415627 76.47813 48.9Q76.86875 49.36875 77.025 50.0875Q77.11875 50.540627 77.11875 51.7125L77.11875 54.05625Q77.11875 56.509377 77.22813 57.165627Q77.3375 57.80625 77.68125 58.4L75.8375 58.4Q75.57188 57.853127 75.49375 57.11875ZM75.3375 53.196877Q74.38438 53.5875 72.4625 53.853127Q71.38438 54.009377 70.93125 54.2125Q70.49375 54.4 70.24375 54.775Q69.99375 55.15 69.99375 55.61875Q69.99375 56.321877 70.525 56.790627Q71.05625 57.259377 72.0875 57.259377Q73.10313 57.259377 73.88438 56.821877Q74.68125 56.36875 75.05625 55.603127Q75.3375 54.99375 75.3375 53.8375L75.3375 53.196877ZM79.7125 58.4L79.7125 48.025L81.30625 48.025L81.30625 49.509377Q82.44688 47.790627 84.60313 47.790627Q85.54063 47.790627 86.32188 48.134377Q87.11875 48.4625 87.50938 49.009377Q87.9 49.55625 88.05625 50.30625Q88.15 50.80625 88.15 52.025L88.15 58.4L86.38438 58.4L86.38438 52.0875Q86.38438 51.009377 86.18125 50.478127Q85.97813 49.946877 85.44688 49.634377Q84.93125 49.321877 84.22813 49.321877Q83.10313 49.321877 82.29063 50.040627Q81.47813 50.74375 81.47813 52.728127L81.47813 58.4L79.7125 58.4ZM96.04063 58.4L96.04063 44.0875L105.69688 44.0875L105.69688 45.775L97.93125 45.775L97.93125 50.2125L104.65 50.2125L104.65 51.9L97.93125 51.9L97.93125 58.4L96.04063 58.4ZM116.4625 56.7125L116.4625 58.4L107.00938 58.4Q106.99375 57.759377 107.2125 57.18125Q107.57188 56.2125 108.36875 55.275Q109.16563 54.3375 110.66563 53.103127Q113.00938 51.196877 113.82188 50.0875Q114.65 48.9625 114.65 47.9625Q114.65 46.915627 113.9 46.196877Q113.15 45.478127 111.94688 45.478127Q110.68125 45.478127 109.91563 46.24375Q109.15 47.009377 109.15 48.353127L107.3375 48.165627Q107.525 46.15 108.72813 45.0875Q109.94688 44.025 111.99375 44.025Q114.04063 44.025 115.24375 45.165627Q116.44688 46.30625 116.44688 47.99375Q116.44688 48.853127 116.0875 49.696877Q115.74375 50.525 114.93125 51.446877Q114.11875 52.353127 112.22813 53.9625Q110.63438 55.290627 110.18125 55.759377Q109.74375 56.228127 109.44688 56.7125L116.4625 56.7125ZM127.60313 58.4L123.65 48.025L125.50938 48.025L127.74375 54.24375Q128.10312 55.24375 128.4 56.321877Q128.63437 55.509377 129.05624 54.353127L131.35312 48.025L133.16562 48.025L129.24374 58.4L127.60313 58.4ZM133.00937 55.30625L134.75937 55.025Q134.9 56.071877 135.57187 56.634377Q136.24374 57.18125 137.44687 57.18125Q138.65 57.18125 139.22812 56.696877Q139.82187 56.196877 139.82187 55.540627Q139.82187 54.946877 139.30624 54.603127Q138.94687 54.36875 137.50937 54.009377Q135.57187 53.509377 134.82187 53.165627Q134.0875 52.80625 133.69687 52.18125Q133.30624 51.540627 133.30624 50.775Q133.30624 50.0875 133.61874 49.49375Q133.94687 48.9 134.49374 48.509377Q134.9 48.2125 135.60312 48.009377Q136.32187 47.790627 137.13437 47.790627Q138.35312 47.790627 139.275 48.15Q140.19687 48.49375 140.63437 49.103127Q141.07187 49.696877 141.24374 50.696877L139.525 50.93125Q139.4 50.134377 138.8375 49.696877Q138.275 49.24375 137.25937 49.24375Q136.04062 49.24375 135.525 49.65Q135.00937 50.040627 135.00937 50.571877Q135.00937 50.915627 135.22812 51.196877Q135.43124 51.478127 135.9 51.665627Q136.16562 51.759377 137.44687 52.103127Q139.32187 52.603127 140.05624 52.93125Q140.79062 53.24375 141.2125 53.853127Q141.63437 54.446877 141.63437 55.353127Q141.63437 56.228127 141.11874 57.009377Q140.60312 57.790627 139.63437 58.2125Q138.66562 58.634377 137.44687 58.634377Q135.43124 58.634377 134.36874 57.790627Q133.30624 56.946877 133.00937 55.30625ZM150.04062 58.4L150.04062 44.0875L159.69687 44.0875L159.69687 45.775L151.93124 45.775L151.93124 50.2125L158.65 50.2125L158.65 51.9L151.93124 51.9L151.93124 58.4L150.04062 58.4ZM167.85312 58.4L166.0875 58.4L166.0875 47.196877Q165.4625 47.80625 164.43124 48.415627Q163.4 49.009377 162.57187 49.321877L162.57187 47.61875Q164.05624 46.93125 165.15 45.946877Q166.25937 44.946877 166.7125 44.025L167.85312 44.025L167.85312 58.4ZM178.04062 54.103127L178.04062 52.3375L183.43124 52.3375L183.43124 54.103127L178.04062 54.103127ZM190.36874 58.4L195.86874 44.0875L197.91562 44.0875L203.775 58.4L201.61874 58.4L199.94687 54.05625L193.9625 54.05625L192.38437 58.4L190.36874 58.4ZM194.50937 52.525L199.35312 52.525L197.86874 48.55625Q197.18124 46.74375 196.85312 45.5875Q196.57187 46.9625 196.07187 48.321877L194.50937 52.525ZM204.68124 58.4L204.68124 44.0875L206.43124 44.0875L206.43124 58.4L204.68124 58.4ZM208.68124 58.4L208.68124 44.0875L210.43124 44.0875L210.43124 58.4L208.68124 58.4Z" fill-rule="nonzero"/></svg>