<svg version="1.1" viewBox="0.0 0.0 569.0 355.0" fill="none" stroke="none" stroke-linecap="square" stroke-miterlimit="10" width="569" height="355" xmlns:xlink="http://www.w3.org/1999/xlink" xmlns="http://www.w3.org/2000/svg"><path fill="#ffffff" d="M0 0L569.0 0L569.0 355.0L0 355.0L0 0Z" fill-rule="nonzero"/><path stroke="#cccccc" stroke-width="1.0" stroke-linecap="butt" d="M551.5 60.5L551.5 285.5" fill-rule="nonzero"/><path stroke="#cccccc" stroke-width="1.0" stroke-linecap="butt" d="M473.5 60.5L473.5 285.5" fill-rule="nonzero"/><path stroke="#cccccc" stroke-width="1.0" stroke-linecap="butt" d="M396.5 60.5L396.5 285.5" fill-rule="nonzero"/><path stroke="#cccccc" stroke-width="1.0" stroke-linecap="butt" d="M319.5 60.5L319.5 285.5" fill-rule="nonzero"/><path stroke="#cccccc" stroke-width="1.0" stroke-linecap="butt" d="M241.5 60.5L241.5 285.5" fill-rule="nonzero"/><path stroke="#cccccc" stroke-width="1.0" stroke-linecap="butt" d="M164.5 60.5L164.5 285.5" fill-rule="nonzero"/><path stroke="#cccccc" stroke-width="1.0" stroke-linecap="butt" d="M86.5 60.5L86.5 285.5" fill-rule="nonzero"/><path stroke="#e6e6e6" stroke-width="1.0" stroke-linecap="butt" d="M512.5 60.5L512.5 285.5" fill-rule="nonzero"/><path stroke="#e6e6e6" stroke-width="1.0" stroke-linecap="butt" d="M435.5 60.5L435.5 285.5" fill-rule="nonzero"/><path stroke="#e6e6e6" stroke-width="1.0" stroke-linecap="butt" d="M357.5 60.5L357.5 285.5" fill-rule="nonzero"/><path stroke="#e6e6e6" stroke-width="1.0" stroke-linecap="butt" d="M280.5 60.5L280.5 285.5" fill-rule="nonzero"/><path stroke="#e6e6e6" stroke-width="1.0" stroke-linecap="butt" d="M202.5 60.5L202.5 285.5" fill-rule="nonzero"/><path stroke="#e6e6e6" stroke-width="1.0" stroke-linecap="butt" d="M125.5 60.5L125.5 285.5" fill-rule="nonzero"/><path stroke="#cccccc" stroke-width="1.0" stroke-linecap="butt" d="M86.5 285.5L551.5 285.5" fill-rule="nonzero"/><path stroke="#cccccc" stroke-width="1.0" stroke-linecap="butt" d="M86.5 229.5L551.5 229.5" fill-rule="nonzero"/><path stroke="#cccccc" stroke-width="1.0" stroke-linecap="butt" d="M86.5 172.5L551.5 172.5" fill-rule="nonzero"/><path stroke="#cccccc" stroke-width="1.0" stroke-linecap="butt" d="M86.5 116.5L551.5 116.5" fill-rule="nonzero"/><path stroke="#cccccc" stroke-width="1.0" stroke-linecap="butt" d="M86.5 60.5L551.5 60.5" fill-rule="nonzero"/><path stroke="#e6e6e6" stroke-width="1.0" stroke-linecap="butt" d="M86.5 257.5L551.5 257.5" fill-rule="nonzero"/><path stroke="#e6e6e6" stroke-width="1.0" stroke-linecap="butt" d="M86.5 201.5L551.5 201.5" fill-rule="nonzero"/><path stroke="#e6e6e6" stroke-width="1.0" stroke-linecap="butt" d="M86.5 144.5L551.5 144.5" fill-rule="nonzero"/><path stroke="#e6e6e6" stroke-width="1.0" stroke-linecap="butt" d="M86.5 88.5L551.5 88.5" fill-rule="nonzero"/><path stroke="#eeeeee" stroke-width="1.0" stroke-linecap="butt" d="M299.18134 219.80087L299.18134 235.80087" fill-rule="nonzero"/><path stroke="#eeeeee" stroke-width="1.0" stroke-linecap="butt" d="M265.5051 139.0304L265.5051 155.0304" fill-rule="nonzero"/><path stroke="#eeeeee" stroke-width="1.0" stroke-linecap="butt" d="M346.99387 163.18205L346.99387 179.18205" fill-rule="nonzero"/><path stroke="#eeeeee" stroke-width="1.0" stroke-linecap="butt" d="M278.03497 104.87544L278.03497 120.87544" fill-rule="nonzero"/><path stroke="#eeeeee" stroke-width="1.0" stroke-linecap="butt" d="M189.33095 102.29178L189.33095 118.29178" fill-rule="nonzero"/><path stroke="#eeeeee" stroke-width="1.0" stroke-linecap="butt" d="M378.79663 156.33534L378.79663 172.33534" fill-rule="nonzero"/><path stroke="#eeeeee" stroke-width="1.0" stroke-linecap="butt" d="M346.10745 110.85158L346.10745 126.85158" fill-rule="nonzero"/><clipPath id="id_0"><path d="M86.75 60.583332L551.25 60.583332L551.25 285.25L86.75 285.25L86.75 60.583332Z" clip-rule="nonzero"/></clipPath><path fill="#0000ff" clip-path="url(#id_0)" d="M305.18134 235.80087C305.18134 239.11458 302.49506 241.80087 299.18134 241.80087C295.8676 241.80087 293.18134 239.11458 293.18134 235.80087C293.18134 232.48715 295.8676 229.80087 299.18134 229.80087C302.49506 229.80087 305.18134 232.48715 305.18134 235.80087Z" fill-rule="nonzero"/><path fill="#0000ff" clip-path="url(#id_0)" d="M271.5051 155.0304C271.5051 158.3441 268.8188 161.0304 265.5051 161.0304C262.19138 161.0304 259.5051 158.3441 259.5051 155.0304C259.5051 151.71669 262.19138 149.0304 265.5051 149.0304C268.8188 149.0304 271.5051 151.71669 271.5051 155.0304Z" fill-rule="nonzero"/><path fill="#0000ff" clip-path="url(#id_0)" d="M352.99387 179.18205C352.99387 182.49577 350.3076 185.18205 346.99387 185.18205C343.68015 185.18205 340.99387 182.49577 340.99387 179.18205C340.99387 175.86835 343.68015 173.18205 346.99387 173.18205C350.3076 173.18205 352.99387 175.86835 352.99387 179.18205Z" fill-rule="nonzero"/><path fill="#0000ff" clip-path="url(#id_0)" d="M284.03497 120.87544C284.03497 124.18915 281.3487 126.87544 278.03497 126.87544C274.72125 126.87544 272.03497 124.18915 272.03497 120.87544C272.03497 117.56173 274.72125 114.87544 278.03497 114.87544C281.3487 114.87544 284.03497 117.56173 284.03497 120.87544Z" fill-rule="nonzero"/><path fill="#0000ff" clip-path="url(#id_0)" d="M195.33095 118.29178C195.33095 121.605484 192.64467 124.29178 189.33095 124.29178C186.01724 124.29178 183.33095 121.605484 183.33095 118.29178C183.33095 114.978065 186.01724 112.29178 189.33095 112.29178C192.64467 112.29178 195.33095 114.978065 195.33095 118.29178Z" fill-rule="nonzero"/><path fill="#0000ff" clip-path="url(#id_0)" d="M384.79663 172.33534C384.79663 175.64905 382.11035 178.33534 378.79663 178.33534C375.4829 178.33534 372.79663 175.64905 372.79663 172.33534C372.79663 169.02164 375.4829 166.33534 378.79663 166.33534C382.11035 166.33534 384.79663 169.02164 384.79663 172.33534Z" fill-rule="nonzero"/><path fill="#0000ff" clip-path="url(#id_0)" d="M352.10745 126.85158C352.10745 130.16528 349.42114 132.85158 346.10745 132.85158C342.79373 132.85158 340.10745 130.16528 340.10745 126.85158C340.10745 123.537865 342.79373 120.85158 346.10745 120.85158C349.42114 120.85158 352.10745 123.537865 352.10745 126.85158Z" fill-rule="nonzero"/><path stroke="#ffffff" stroke-width="3.0" stroke-linejoin="round" stroke-linecap="round" d="M300.88446 215.5665L297.30634 215.5665L296.50946 217.80087L295.3532 217.80087L298.6032 209.26962L299.5876 209.26962L302.8532 217.80087L301.69696 217.80087L300.88446 215.5665ZM297.6501 214.64462L300.55634 214.64462L299.1032 210.66025L297.6501 214.64462Z" fill-rule="nonzero"/><path fill="#0000ff" d="M300.88446 215.5665L297.30634 215.5665L296.50946 217.80087L295.3532 217.80087L298.6032 209.26962L299.5876 209.26962L302.8532 217.80087L301.69696 217.80087L300.88446 215.5665ZM297.6501 214.64462L300.55634 214.64462L299.1032 210.66025L297.6501 214.64462Z" fill-rule="nonzero"/><path stroke="#ffffff" stroke-width="3.0" stroke-linejoin="round" stroke-linecap="round" d="M267.8176 133.0929L264.11447 133.0929L264.11447 136.10852L268.41135 136.10852L268.41135 137.0304L262.98947 137.0304L262.98947 128.49915L268.36447 128.49915L268.36447 129.42102L264.11447 129.42102L264.11447 132.17102L267.8176 132.17102L267.8176 133.0929Z" fill-rule="nonzero"/><path fill="#0000ff" d="M267.8176 133.0929L264.11447 133.0929L264.11447 136.10852L268.41135 136.10852L268.41135 137.0304L262.98947 137.0304L262.98947 128.49915L268.36447 128.49915L268.36447 129.42102L264.11447 129.42102L264.11447 132.17102L267.8176 132.17102L267.8176 133.0929Z" fill-rule="nonzero"/><path stroke="#ffffff" stroke-width="3.0" stroke-linejoin="round" stroke-linecap="round" d="M348.30637 157.24455L344.60324 157.24455L344.60324 160.26018L348.90012 160.26018L348.90012 161.18205L343.47824 161.18205L343.47824 152.6508L348.85324 152.6508L348.85324 153.57268L344.60324 153.57268L344.60324 156.32268L348.30637 156.32268L348.30637 157.24455ZM350.97824 152.8383L350.85324 154.99455L350.10324 154.99455L350.10324 152.18205L350.97824 152.18205L350.97824 152.8383Z" fill-rule="nonzero"/><path fill="#0000ff" d="M348.30637 157.24455L344.60324 157.24455L344.60324 160.26018L348.90012 160.26018L348.90012 161.18205L343.47824 161.18205L343.47824 152.6508L348.85324 152.6508L348.85324 153.57268L344.60324 153.57268L344.60324 156.32268L348.30637 156.32268L348.30637 157.24455ZM350.97824 152.8383L350.85324 154.99455L350.10324 154.99455L350.10324 152.18205L350.97824 152.18205L350.97824 152.8383Z" fill-rule="nonzero"/><path stroke="#ffffff" stroke-width="3.0" stroke-linejoin="round" stroke-linecap="round" d="M278.7381 102.87544L277.6131 102.87544L277.6131 94.34419L278.7381 94.34419L278.7381 102.87544Z" fill-rule="nonzero"/><path fill="#0000ff" d="M278.7381 102.87544L277.6131 102.87544L277.6131 94.34419L278.7381 94.34419L278.7381 102.87544Z" fill-rule="nonzero"/><path stroke="#ffffff" stroke-width="3.0" stroke-linejoin="round" stroke-linecap="round" d="M189.03407 100.29178L187.90907 100.29178L187.90907 91.76053L189.03407 91.76053L189.03407 100.29178ZM191.31532 91.94803L191.19032 94.10428L190.44032 94.10428L190.44032 91.29178L191.31532 91.29178L191.31532 91.94803Z" fill-rule="nonzero"/><path fill="#0000ff" d="M189.03407 100.29178L187.90907 100.29178L187.90907 91.76053L189.03407 91.76053L189.03407 100.29178ZM191.31532 91.94803L191.19032 94.10428L190.44032 94.10428L190.44032 91.29178L191.31532 91.29178L191.31532 91.94803Z" fill-rule="nonzero"/><path stroke="#ffffff" stroke-width="3.0" stroke-linejoin="round" stroke-linecap="round" d="M382.3435 150.35097Q382.3435 151.60097 381.92163 152.53847Q381.49976 153.46034 380.7185 153.96034Q379.95288 154.46034 378.92163 154.46034Q377.92163 154.46034 377.14038 153.96034Q376.35913 153.46034 375.92163 152.5541Q375.49976 151.63222 375.48413 150.41347L375.48413 149.8041Q375.48413 148.56972 375.906 147.63222Q376.3435 146.69472 377.12476 146.19472Q377.906 145.6791 378.92163 145.6791Q379.93726 145.6791 380.7185 146.1791Q381.49976 146.6791 381.92163 147.6166Q382.3435 148.5541 382.3435 149.8041L382.3435 150.35097ZM381.23413 149.78847Q381.23413 148.27284 380.62476 147.46034Q380.01538 146.64784 378.92163 146.64784Q377.8435 146.64784 377.23413 147.46034Q376.62476 148.27284 376.60913 149.71034L376.60913 150.35097Q376.60913 151.81972 377.2185 152.66347Q377.8435 153.4916 378.92163 153.4916Q380.01538 153.4916 380.60913 152.71034Q381.2185 151.91347 381.23413 150.4291L381.23413 149.78847Z" fill-rule="nonzero"/><path fill="#0000ff" d="M382.3435 150.35097Q382.3435 151.60097 381.92163 152.53847Q381.49976 153.46034 380.7185 153.96034Q379.95288 154.46034 378.92163 154.46034Q377.92163 154.46034 377.14038 153.96034Q376.35913 153.46034 375.92163 152.5541Q375.49976 151.63222 375.48413 150.41347L375.48413 149.8041Q375.48413 148.56972 375.906 147.63222Q376.3435 146.69472 377.12476 146.19472Q377.906 145.6791 378.92163 145.6791Q379.93726 145.6791 380.7185 146.1791Q381.49976 146.6791 381.92163 147.6166Q382.3435 148.5541 382.3435 149.8041L382.3435 150.35097ZM381.23413 149.78847Q381.23413 148.27284 380.62476 147.46034Q380.01538 146.64784 378.92163 146.64784Q377.8435 146.64784 377.23413 147.46034Q376.62476 148.27284 376.60913 149.71034L376.60913 150.35097Q376.60913 151.81972 377.2185 152.66347Q377.8435 153.4916 378.92163 153.4916Q380.01538 153.4916 380.60913 152.71034Q381.2185 151.91347 381.23413 150.4291L381.23413 149.78847Z" fill-rule="nonzero"/><path stroke="#ffffff" stroke-width="3.0" stroke-linejoin="round" stroke-linecap="round" d="M349.10745 100.32033L349.10745 106.1172Q349.09183 107.32033 348.34183 108.10158Q347.59183 108.8672 346.31058 108.96095L345.99808 108.97658Q344.60745 108.97658 343.7637 108.22658Q342.93558 107.46095 342.93558 106.13283L342.93558 100.32033L344.04495 100.32033L344.04495 106.10158Q344.04495 107.02345 344.54495 107.53908Q345.06058 108.0547 345.99808 108.0547Q346.96683 108.0547 347.46683 107.53908Q347.96683 107.02345 347.96683 106.10158L347.96683 100.32033L349.10745 100.32033Z" fill-rule="nonzero"/><path fill="#0000ff" d="M349.10745 100.32033L349.10745 106.1172Q349.09183 107.32033 348.34183 108.10158Q347.59183 108.8672 346.31058 108.96095L345.99808 108.97658Q344.60745 108.97658 343.7637 108.22658Q342.93558 107.46095 342.93558 106.13283L342.93558 100.32033L344.04495 100.32033L344.04495 106.10158Q344.04495 107.02345 344.54495 107.53908Q345.06058 108.0547 345.99808 108.0547Q346.96683 108.0547 347.46683 107.53908Q347.96683 107.02345 347.96683 106.10158L347.96683 100.32033L349.10745 100.32033Z" fill-rule="nonzero"/><path fill="#000000" d="M300.48438 334.25L300.48438 325.65625L306.28125 325.65625L306.28125 326.67188L301.625 326.67188L301.625 329.32812L305.65625 329.32812L305.65625 330.34375L301.625 330.34375L301.625 334.25L300.48438 334.25ZM312.54688 333.23438L312.54688 334.25L306.85938 334.25Q306.85938 333.875 306.98438 333.51562Q307.20312 332.9375 307.67188 332.375Q308.15625 331.8125 309.0625 331.07812Q310.46875 329.92188 310.95312 329.25Q311.45312 328.57812 311.45312 327.98438Q311.45312 327.35938 311.0 326.9375Q310.54688 326.5 309.82812 326.5Q309.0625 326.5 308.60938 326.95312Q308.15625 327.40625 308.14062 328.21875L307.0625 328.10938Q307.17188 326.89062 307.89062 326.26562Q308.625 325.625 309.85938 325.625Q311.09375 325.625 311.8125 326.3125Q312.53125 327.0 312.53125 328.01562Q312.53125 328.53125 312.3125 329.03125Q312.10938 329.51562 311.60938 330.07812Q311.125 330.625 310.0 331.57812Q309.04688 332.375 308.76562 332.67188Q308.5 332.95312 308.32812 333.23438L312.54688 333.23438ZM319.3125 336.78125Q318.4375 335.67188 317.82812 334.20312Q317.23438 332.71875 317.23438 331.14062Q317.23438 329.75 317.67188 328.46875Q318.20312 326.98438 319.3125 325.51562L320.0625 325.51562Q319.35938 326.73438 319.125 327.25Q318.76562 328.0625 318.5625 328.9375Q318.3125 330.03125 318.3125 331.14062Q318.3125 333.96875 320.0625 336.78125L319.3125 336.78125ZM321.46875 334.25L321.46875 325.65625L322.59375 325.65625L322.59375 329.1875L327.0625 329.1875L327.0625 325.65625L328.20312 325.65625L328.20312 334.25L327.0625 334.25L327.0625 330.20312L322.59375 330.20312L322.59375 334.25L321.46875 334.25ZM329.73438 334.25L329.73438 333.39062L333.70312 328.84375Q333.01562 328.875 332.5 328.875L329.96875 328.875L329.96875 328.03125L335.0625 328.03125L335.0625 328.71875L331.6875 332.67188L331.03125 333.39062Q331.75 333.34375 332.35938 333.34375L335.25 333.34375L335.25 334.25L329.73438 334.25ZM335.98438 336.78125L335.23438 336.78125Q336.98438 333.96875 336.98438 331.14062Q336.98438 330.04688 336.73438 328.95312Q336.53125 328.07812 336.17188 327.26562Q335.9375 326.75 335.23438 325.51562L335.98438 325.51562Q337.07812 326.98438 337.60938 328.46875Q338.0625 329.75 338.0625 331.14062Q338.0625 332.71875 337.45312 334.20312Q336.84375 335.67188 335.98438 336.78125Z" fill-rule="nonzero"/><path fill="#000000" d="M28.75 197.93228L20.15625 197.93228L20.15625 192.1354L21.171875 192.1354L21.171875 196.79166L23.828125 196.79166L23.828125 192.7604L24.84375 192.7604L24.84375 196.79166L28.75 196.79166L28.75 197.93228ZM28.75 187.4479L28.75 188.49478L22.03125 188.49478Q22.390625 188.8854 22.765625 189.5104Q23.125 190.11978 23.296875 190.60416L22.28125 190.60416Q21.859375 189.72916 21.28125 189.0729Q20.6875 188.40103 20.125 188.11978L20.125 187.4479L28.75 187.4479ZM31.28125 179.10416Q30.171875 179.97916 28.703125 180.58853Q27.21875 181.18228 25.640625 181.18228Q24.25 181.18228 22.96875 180.74478Q21.484375 180.21353 20.015625 179.10416L20.015625 178.35416Q21.234375 179.05728 21.75 179.29166Q22.5625 179.65103 23.4375 179.85416Q24.53125 180.10416 25.640625 180.10416Q28.46875 180.10416 31.28125 178.35416L31.28125 179.10416ZM28.75 176.9479L20.15625 176.9479L20.15625 175.8229L23.6875 175.8229L23.6875 171.35416L20.15625 171.35416L20.15625 170.21353L28.75 170.21353L28.75 171.35416L24.703125 171.35416L24.703125 175.8229L28.75 175.8229L28.75 176.9479ZM28.75 168.68228L27.890625 168.68228L23.34375 164.71353Q23.375 165.40103 23.375 165.91666L23.375 168.4479L22.53125 168.4479L22.53125 163.35416L23.21875 163.35416L27.171875 166.72916L27.890625 167.3854Q27.84375 166.66666 27.84375 166.05728L27.84375 163.16666L28.75 163.16666L28.75 168.68228ZM31.28125 162.43228L31.28125 163.18228Q28.46875 161.43228 25.640625 161.43228Q24.546875 161.43228 23.453125 161.68228Q22.578125 161.8854 21.765625 162.24478Q21.25 162.47916 20.015625 163.18228L20.015625 162.43228Q21.484375 161.33853 22.96875 160.80728Q24.25 160.35416 25.640625 160.35416Q27.21875 160.35416 28.703125 160.96353Q30.171875 161.5729 31.28125 162.43228Z" fill-rule="nonzero"/><path fill="#000000" d="M54.21875 289.25L53.171875 289.25L53.171875 282.53125Q52.78125 282.89062 52.15625 283.26562Q51.546875 283.625 51.0625 283.79688L51.0625 282.78125Q51.9375 282.35938 52.59375 281.78125Q53.265625 281.1875 53.546875 280.625L54.21875 280.625L54.21875 289.25ZM57.8125 289.25L57.8125 288.04688L59.015625 288.04688L59.015625 289.25Q59.015625 289.90625 58.78125 290.3125Q58.546875 290.73438 58.046875 290.95312L57.75 290.5Q58.078125 290.35938 58.234375 290.0625Q58.390625 289.78125 58.421875 289.25L57.8125 289.25ZM60.25 285.01562Q60.25 283.48438 60.5625 282.5625Q60.875 281.625 61.484375 281.125Q62.109375 280.625 63.046875 280.625Q63.734375 280.625 64.25 280.90625Q64.78125 281.1875 65.125 281.71875Q65.46875 282.23438 65.65625 282.98438Q65.84375 283.73438 65.84375 285.01562Q65.84375 286.53125 65.53125 287.45312Q65.234375 288.375 64.609375 288.89062Q64.0 289.39062 63.046875 289.39062Q61.8125 289.39062 61.09375 288.5Q60.25 287.4375 60.25 285.01562ZM61.328125 285.01562Q61.328125 287.125 61.828125 287.82812Q62.328125 288.53125 63.046875 288.53125Q63.78125 288.53125 64.265625 287.82812Q64.765625 287.125 64.765625 285.01562Q64.765625 282.89062 64.265625 282.20312Q63.78125 281.5 63.03125 281.5Q62.3125 281.5 61.875 282.10938Q61.328125 282.89062 61.328125 285.01562ZM67.25 285.01562Q67.25 283.48438 67.5625 282.5625Q67.875 281.625 68.484375 281.125Q69.109375 280.625 70.046875 280.625Q70.734375 280.625 71.25 280.90625Q71.78125 281.1875 72.125 281.71875Q72.46875 282.23438 72.65625 282.98438Q72.84375 283.73438 72.84375 285.01562Q72.84375 286.53125 72.53125 287.45312Q72.234375 288.375 71.609375 288.89062Q71.0 289.39062 70.046875 289.39062Q68.8125 289.39062 68.09375 288.5Q67.25 287.4375 67.25 285.01562ZM68.328125 285.01562Q68.328125 287.125 68.828125 287.82812Q69.328125 288.53125 70.046875 288.53125Q70.78125 288.53125 71.265625 287.82812Q71.765625 287.125 71.765625 285.01562Q71.765625 282.89062 71.265625 282.20312Q70.78125 281.5 70.03125 281.5Q69.3125 281.5 68.875 282.10938Q68.328125 282.89062 68.328125 285.01562ZM74.25 285.01562Q74.25 283.48438 74.5625 282.5625Q74.875 281.625 75.484375 281.125Q76.109375 280.625 77.046875 280.625Q77.734375 280.625 78.25 280.90625Q78.78125 281.1875 79.125 281.71875Q79.46875 282.23438 79.65625 282.98438Q79.84375 283.73438 79.84375 285.01562Q79.84375 286.53125 79.53125 287.45312Q79.234375 288.375 78.609375 288.89062Q78.0 289.39062 77.046875 289.39062Q75.8125 289.39062 75.09375 288.5Q74.25 287.4375 74.25 285.01562ZM75.328125 285.01562Q75.328125 287.125 75.828125 287.82812Q76.328125 288.53125 77.046875 288.53125Q77.78125 288.53125 78.265625 287.82812Q78.765625 287.125 78.765625 285.01562Q78.765625 282.89062 78.265625 282.20312Q77.78125 281.5 77.03125 281.5Q76.3125 281.5 75.875 282.10938Q75.328125 282.89062 75.328125 285.01562Z" fill-rule="nonzero"/><path fill="#000000" d="M61.875 228.42708Q61.21875 228.17708 60.890625 227.73958Q60.578125 227.28645 60.578125 226.67708Q60.578125 225.73958 61.25 225.09895Q61.9375 224.45833 63.046875 224.45833Q64.171875 224.45833 64.859375 225.11458Q65.546875 225.77083 65.546875 226.70833Q65.546875 227.30208 65.234375 227.73958Q64.921875 228.17708 64.28125 228.42708Q65.078125 228.67708 65.484375 229.2552Q65.890625 229.83333 65.890625 230.6302Q65.890625 231.72395 65.109375 232.47395Q64.34375 233.22395 63.0625 233.22395Q61.796875 233.22395 61.015625 232.47395Q60.234375 231.72395 60.234375 230.59895Q60.234375 229.7552 60.65625 229.1927Q61.09375 228.6302 61.875 228.42708ZM61.65625 226.6302Q61.65625 227.23958 62.046875 227.6302Q62.453125 228.02083 63.078125 228.02083Q63.6875 228.02083 64.078125 227.64583Q64.46875 227.2552 64.46875 226.6927Q64.46875 226.11458 64.0625 225.72395Q63.65625 225.3177 63.0625 225.3177Q62.453125 225.3177 62.046875 225.70833Q61.65625 226.09895 61.65625 226.6302ZM61.328125 230.59895Q61.328125 231.05208 61.53125 231.47395Q61.75 231.89583 62.171875 232.1302Q62.59375 232.36458 63.078125 232.36458Q63.828125 232.36458 64.3125 231.8802Q64.8125 231.39583 64.8125 230.64583Q64.8125 229.8802 64.3125 229.3802Q63.8125 228.8802 63.046875 228.8802Q62.296875 228.8802 61.8125 229.3802Q61.328125 229.86458 61.328125 230.59895ZM67.25 228.84895Q67.25 227.3177 67.5625 226.39583Q67.875 225.45833 68.484375 224.95833Q69.109375 224.45833 70.046875 224.45833Q70.734375 224.45833 71.25 224.73958Q71.78125 225.02083 72.125 225.55208Q72.46875 226.0677 72.65625 226.8177Q72.84375 227.5677 72.84375 228.84895Q72.84375 230.36458 72.53125 231.28645Q72.234375 232.20833 71.609375 232.72395Q71.0 233.22395 70.046875 233.22395Q68.8125 233.22395 68.09375 232.33333Q67.25 231.27083 67.25 228.84895ZM68.328125 228.84895Q68.328125 230.95833 68.828125 231.66145Q69.328125 232.36458 70.046875 232.36458Q70.78125 232.36458 71.265625 231.66145Q71.765625 230.95833 71.765625 228.84895Q71.765625 226.72395 71.265625 226.03645Q70.78125 225.33333 70.03125 225.33333Q69.3125 225.33333 68.875 225.9427Q68.328125 226.72395 68.328125 228.84895ZM74.25 228.84895Q74.25 227.3177 74.5625 226.39583Q74.875 225.45833 75.484375 224.95833Q76.109375 224.45833 77.046875 224.45833Q77.734375 224.45833 78.25 224.73958Q78.78125 225.02083 79.125 225.55208Q79.46875 226.0677 79.65625 226.8177Q79.84375 227.5677 79.84375 228.84895Q79.84375 230.36458 79.53125 231.28645Q79.234375 232.20833 78.609375 232.72395Q78.0 233.22395 77.046875 233.22395Q75.8125 233.22395 75.09375 232.33333Q74.25 231.27083 74.25 228.84895ZM75.328125 228.84895Q75.328125 230.95833 75.828125 231.66145Q76.328125 232.36458 77.046875 232.36458Q77.78125 232.36458 78.265625 231.66145Q78.765625 230.95833 78.765625 228.84895Q78.765625 226.72395 78.265625 226.03645Q77.78125 225.33333 77.03125 225.33333Q76.3125 225.33333 75.875 225.9427Q75.328125 226.72395 75.328125 228.84895Z" fill-rule="nonzero"/><path fill="#000000" d="M65.71875 170.4323L64.671875 170.51042Q64.53125 169.88542 64.28125 169.60417Q63.84375 169.15105 63.21875 169.15105Q62.71875 169.15105 62.328125 169.4323Q61.84375 169.8073 61.546875 170.51042Q61.265625 171.19792 61.25 172.47917Q61.625 171.90105 62.171875 171.6198Q62.734375 171.33855 63.34375 171.33855Q64.390625 171.33855 65.125 172.1198Q65.875 172.90105 65.875 174.1198Q65.875 174.9323 65.515625 175.63542Q65.171875 176.32292 64.5625 176.69792Q63.953125 177.0573 63.1875 177.0573Q61.859375 177.0573 61.03125 176.08855Q60.203125 175.1198 60.203125 172.90105Q60.203125 170.40105 61.125 169.27605Q61.921875 168.29167 63.28125 168.29167Q64.296875 168.29167 64.9375 168.8698Q65.59375 169.4323 65.71875 170.4323ZM61.421875 174.13542Q61.421875 174.6823 61.640625 175.1823Q61.875 175.66667 62.28125 175.9323Q62.703125 176.19792 63.171875 176.19792Q63.828125 176.19792 64.3125 175.66667Q64.796875 175.1198 64.796875 174.19792Q64.796875 173.3073 64.3125 172.79167Q63.84375 172.27605 63.125 172.27605Q62.40625 172.27605 61.90625 172.79167Q61.421875 173.3073 61.421875 174.13542ZM67.25 172.6823Q67.25 171.15105 67.5625 170.22917Q67.875 169.29167 68.484375 168.79167Q69.109375 168.29167 70.046875 168.29167Q70.734375 168.29167 71.25 168.57292Q71.78125 168.85417 72.125 169.38542Q72.46875 169.90105 72.65625 170.65105Q72.84375 171.40105 72.84375 172.6823Q72.84375 174.19792 72.53125 175.1198Q72.234375 176.04167 71.609375 176.5573Q71.0 177.0573 70.046875 177.0573Q68.8125 177.0573 68.09375 176.16667Q67.25 175.10417 67.25 172.6823ZM68.328125 172.6823Q68.328125 174.79167 68.828125 175.4948Q69.328125 176.19792 70.046875 176.19792Q70.78125 176.19792 71.265625 175.4948Q71.765625 174.79167 71.765625 172.6823Q71.765625 170.5573 71.265625 169.8698Q70.78125 169.16667 70.03125 169.16667Q69.3125 169.16667 68.875 169.77605Q68.328125 170.5573 68.328125 172.6823ZM74.25 172.6823Q74.25 171.15105 74.5625 170.22917Q74.875 169.29167 75.484375 168.79167Q76.109375 168.29167 77.046875 168.29167Q77.734375 168.29167 78.25 168.57292Q78.78125 168.85417 79.125 169.38542Q79.46875 169.90105 79.65625 170.65105Q79.84375 171.40105 79.84375 172.6823Q79.84375 174.19792 79.53125 175.1198Q79.234375 176.04167 78.609375 176.5573Q78.0 177.0573 77.046875 177.0573Q75.8125 177.0573 75.09375 176.16667Q74.25 175.10417 74.25 172.6823ZM75.328125 172.6823Q75.328125 174.79167 75.828125 175.4948Q76.328125 176.19792 77.046875 176.19792Q77.78125 176.19792 78.265625 175.4948Q78.765625 174.79167 78.765625 172.6823Q78.765625 170.5573 78.265625 169.8698Q77.78125 169.16667 77.03125 169.16667Q76.3125 169.16667 75.875 169.77605Q75.328125 170.5573 75.328125 172.6823Z" fill-rule="nonzero"/><path fill="#000000" d="M63.625 120.75L63.625 118.6875L59.90625 118.6875L59.90625 117.71875L63.828125 112.15625L64.6875 112.15625L64.6875 117.71875L65.84375 117.71875L65.84375 118.6875L64.6875 118.6875L64.6875 120.75L63.625 120.75ZM63.625 117.71875L63.625 113.859375L60.9375 117.71875L63.625 117.71875ZM67.25 116.515625Q67.25 114.984375 67.5625 114.0625Q67.875 113.125 68.484375 112.625Q69.109375 112.125 70.046875 112.125Q70.734375 112.125 71.25 112.40625Q71.78125 112.6875 72.125 113.21875Q72.46875 113.734375 72.65625 114.484375Q72.84375 115.234375 72.84375 116.515625Q72.84375 118.03125 72.53125 118.953125Q72.234375 119.875 71.609375 120.390625Q71.0 120.890625 70.046875 120.890625Q68.8125 120.890625 68.09375 120.0Q67.25 118.9375 67.25 116.515625ZM68.328125 116.515625Q68.328125 118.625 68.828125 119.328125Q69.328125 120.03125 70.046875 120.03125Q70.78125 120.03125 71.265625 119.328125Q71.765625 118.625 71.765625 116.515625Q71.765625 114.390625 71.265625 113.703125Q70.78125 113.0 70.03125 113.0Q69.3125 113.0 68.875 113.609375Q68.328125 114.390625 68.328125 116.515625ZM74.25 116.515625Q74.25 114.984375 74.5625 114.0625Q74.875 113.125 75.484375 112.625Q76.109375 112.125 77.046875 112.125Q77.734375 112.125 78.25 112.40625Q78.78125 112.6875 79.125 113.21875Q79.46875 113.734375 79.65625 114.484375Q79.84375 115.234375 79.84375 116.515625Q79.84375 118.03125 79.53125 118.953125Q79.234375 119.875 78.609375 120.390625Q78.0 120.890625 77.046875 120.890625Q75.8125 120.890625 75.09375 120.0Q74.25 118.9375 74.25 116.515625ZM75.328125 116.515625Q75.328125 118.625 75.828125 119.328125Q76.328125 120.03125 77.046875 120.03125Q77.78125 120.03125 78.265625 119.328125Q78.765625 118.625 78.765625 116.515625Q78.765625 114.390625 78.265625 113.703125Q77.78125 113.0 77.03125 113.0Q76.3125 113.0 75.875 113.609375Q75.328125 114.390625 75.328125 116.515625Z" fill-rule="nonzero"/><path fill="#000000" d="M65.796875 63.56771L65.796875 64.583336L60.109375 64.583336Q60.109375 64.208336 60.234375 63.84896Q60.453125 63.270836 60.921875 62.708336Q61.40625 62.145836 62.3125 61.41146Q63.71875 60.25521 64.203125 59.583336Q64.703125 58.91146 64.703125 58.31771Q64.703125 57.69271 64.25 57.270836Q63.796875 56.833336 63.078125 56.833336Q62.3125 56.833336 61.859375 57.28646Q61.40625 57.739586 61.390625 58.552086L60.3125 58.44271Q60.421875 57.22396 61.140625 56.59896Q61.875 55.958336 63.109375 55.958336Q64.34375 55.958336 65.0625 56.645836Q65.78125 57.333336 65.78125 58.34896Q65.78125 58.864586 65.5625 59.364586Q65.359375 59.84896 64.859375 60.41146Q64.375 60.958336 63.25 61.91146Q62.296875 62.708336 62.015625 63.00521Q61.75 63.28646 61.578125 63.56771L65.796875 63.56771ZM67.25 60.34896Q67.25 58.81771 67.5625 57.895836Q67.875 56.958336 68.484375 56.458336Q69.109375 55.958336 70.046875 55.958336Q70.734375 55.958336 71.25 56.239586Q71.78125 56.520836 72.125 57.052086Q72.46875 57.56771 72.65625 58.31771Q72.84375 59.06771 72.84375 60.34896Q72.84375 61.864586 72.53125 62.78646Q72.234375 63.708336 71.609375 64.22396Q71.0 64.72396 70.046875 64.72396Q68.8125 64.72396 68.09375 63.833336Q67.25 62.770836 67.25 60.34896ZM68.328125 60.34896Q68.328125 62.458336 68.828125 63.16146Q69.328125 63.864586 70.046875 63.864586Q70.78125 63.864586 71.265625 63.16146Q71.765625 62.458336 71.765625 60.34896Q71.765625 58.22396 71.265625 57.53646Q70.78125 56.833336 70.03125 56.833336Q69.3125 56.833336 68.875 57.44271Q68.328125 58.22396 68.328125 60.34896ZM74.25 60.34896Q74.25 58.81771 74.5625 57.895836Q74.875 56.958336 75.484375 56.458336Q76.109375 55.958336 77.046875 55.958336Q77.734375 55.958336 78.25 56.239586Q78.78125 56.520836 79.125 57.052086Q79.46875 57.56771 79.65625 58.31771Q79.84375 59.06771 79.84375 60.34896Q79.84375 61.864586 79.53125 62.78646Q79.234375 63.708336 78.609375 64.22396Q78.0 64.72396 77.046875 64.72396Q75.8125 64.72396 75.09375 63.833336Q74.25 62.770836 74.25 60.34896ZM75.328125 60.34896Q75.328125 62.458336 75.828125 63.16146Q76.328125 63.864586 77.046875 63.864586Q77.78125 63.864586 78.265625 63.16146Q78.765625 62.458336 78.765625 60.34896Q78.765625 58.22396 78.265625 57.53646Q77.78125 56.833336 77.03125 56.833336Q76.3125 56.833336 75.875 57.44271Q75.328125 58.22396 75.328125 60.34896Z" fill-rule="nonzero"/><path fill="#000000" d="M542.875 297.59375Q542.21875 297.34375 541.8906 296.90625Q541.5781 296.45312 541.5781 295.84375Q541.5781 294.90625 542.25 294.26562Q542.9375 293.625 544.0469 293.625Q545.1719 293.625 545.8594 294.28125Q546.5469 294.9375 546.5469 295.875Q546.5469 296.46875 546.2344 296.90625Q545.9219 297.34375 545.28125 297.59375Q546.0781 297.84375 546.4844 298.42188Q546.8906 299.0 546.8906 299.79688Q546.8906 300.89062 546.1094 301.64062Q545.34375 302.39062 544.0625 302.39062Q542.7969 302.39062 542.0156 301.64062Q541.2344 300.89062 541.2344 299.76562Q541.2344 298.92188 541.65625 298.35938Q542.09375 297.79688 542.875 297.59375ZM542.65625 295.79688Q542.65625 296.40625 543.0469 296.79688Q543.4531 297.1875 544.0781 297.1875Q544.6875 297.1875 545.0781 296.8125Q545.46875 296.42188 545.46875 295.85938Q545.46875 295.28125 545.0625 294.89062Q544.65625 294.48438 544.0625 294.48438Q543.4531 294.48438 543.0469 294.875Q542.65625 295.26562 542.65625 295.79688ZM542.3281 299.76562Q542.3281 300.21875 542.53125 300.64062Q542.75 301.0625 543.1719 301.29688Q543.59375 301.53125 544.0781 301.53125Q544.8281 301.53125 545.3125 301.04688Q545.8125 300.5625 545.8125 299.8125Q545.8125 299.04688 545.3125 298.54688Q544.8125 298.04688 544.0469 298.04688Q543.2969 298.04688 542.8125 298.54688Q542.3281 299.03125 542.3281 299.76562ZM548.25 298.01562Q548.25 296.48438 548.5625 295.5625Q548.875 294.625 549.4844 294.125Q550.1094 293.625 551.0469 293.625Q551.7344 293.625 552.25 293.90625Q552.78125 294.1875 553.125 294.71875Q553.46875 295.23438 553.65625 295.98438Q553.84375 296.73438 553.84375 298.01562Q553.84375 299.53125 553.53125 300.45312Q553.2344 301.375 552.6094 301.89062Q552.0 302.39062 551.0469 302.39062Q549.8125 302.39062 549.09375 301.5Q548.25 300.4375 548.25 298.01562ZM549.3281 298.01562Q549.3281 300.125 549.8281 300.82812Q550.3281 301.53125 551.0469 301.53125Q551.78125 301.53125 552.2656 300.82812Q552.7656 300.125 552.7656 298.01562Q552.7656 295.89062 552.2656 295.20312Q551.78125 294.5 551.03125 294.5Q550.3125 294.5 549.875 295.10938Q549.3281 295.89062 549.3281 298.01562ZM555.25 298.01562Q555.25 296.48438 555.5625 295.5625Q555.875 294.625 556.4844 294.125Q557.1094 293.625 558.0469 293.625Q558.7344 293.625 559.25 293.90625Q559.78125 294.1875 560.125 294.71875Q560.46875 295.23438 560.65625 295.98438Q560.84375 296.73438 560.84375 298.01562Q560.84375 299.53125 560.53125 300.45312Q560.2344 301.375 559.6094 301.89062Q559.0 302.39062 558.0469 302.39062Q556.8125 302.39062 556.09375 301.5Q555.25 300.4375 555.25 298.01562ZM556.3281 298.01562Q556.3281 300.125 556.8281 300.82812Q557.3281 301.53125 558.0469 301.53125Q558.78125 301.53125 559.2656 300.82812Q559.7656 300.125 559.7656 298.01562Q559.7656 295.89062 559.2656 295.20312Q558.78125 294.5 558.03125 294.5Q557.3125 294.5 556.875 295.10938Q556.3281 295.89062 556.3281 298.01562Z" fill-rule="nonzero"/><path fill="#000000" d="M464.3021 302.25L463.25522 302.25L463.25522 295.53125Q462.8646 295.89062 462.2396 296.26562Q461.63022 296.625 461.14584 296.79688L461.14584 295.78125Q462.02084 295.35938 462.6771 294.78125Q463.34897 294.1875 463.63022 293.625L464.3021 293.625L464.3021 302.25ZM467.33334 298.01562Q467.33334 296.48438 467.64584 295.5625Q467.95834 294.625 468.56772 294.125Q469.19272 293.625 470.13022 293.625Q470.81772 293.625 471.33334 293.90625Q471.8646 294.1875 472.20834 294.71875Q472.5521 295.23438 472.7396 295.98438Q472.9271 296.73438 472.9271 298.01562Q472.9271 299.53125 472.6146 300.45312Q472.31772 301.375 471.69272 301.89062Q471.08334 302.39062 470.13022 302.39062Q468.89584 302.39062 468.1771 301.5Q467.33334 300.4375 467.33334 298.01562ZM468.41147 298.01562Q468.41147 300.125 468.91147 300.82812Q469.41147 301.53125 470.13022 301.53125Q470.8646 301.53125 471.34897 300.82812Q471.84897 300.125 471.84897 298.01562Q471.84897 295.89062 471.34897 295.20312Q470.8646 294.5 470.1146 294.5Q469.39584 294.5 468.95834 295.10938Q468.41147 295.89062 468.41147 298.01562ZM474.33334 298.01562Q474.33334 296.48438 474.64584 295.5625Q474.95834 294.625 475.56772 294.125Q476.19272 293.625 477.13022 293.625Q477.81772 293.625 478.33334 293.90625Q478.8646 294.1875 479.20834 294.71875Q479.5521 295.23438 479.7396 295.98438Q479.9271 296.73438 479.9271 298.01562Q479.9271 299.53125 479.6146 300.45312Q479.31772 301.375 478.69272 301.89062Q478.08334 302.39062 477.13022 302.39062Q475.89584 302.39062 475.1771 301.5Q474.33334 300.4375 474.33334 298.01562ZM475.41147 298.01562Q475.41147 300.125 475.91147 300.82812Q476.41147 301.53125 477.13022 301.53125Q477.8646 301.53125 478.34897 300.82812Q478.84897 300.125 478.84897 298.01562Q478.84897 295.89062 478.34897 295.20312Q477.8646 294.5 477.1146 294.5Q476.39584 294.5 475.95834 295.10938Q475.41147 295.89062 475.41147 298.01562ZM481.33334 298.01562Q481.33334 296.48438 481.64584 295.5625Q481.95834 294.625 482.56772 294.125Q483.19272 293.625 484.13022 293.625Q484.81772 293.625 485.33334 293.90625Q485.8646 294.1875 486.20834 294.71875Q486.5521 295.23438 486.7396 295.98438Q486.9271 296.73438 486.9271 298.01562Q486.9271 299.53125 486.6146 300.45312Q486.31772 301.375 485.69272 301.89062Q485.08334 302.39062 484.13022 302.39062Q482.89584 302.39062 482.1771 301.5Q481.33334 300.4375 481.33334 298.01562ZM482.41147 298.01562Q482.41147 300.125 482.91147 300.82812Q483.41147 301.53125 484.13022 301.53125Q484.8646 301.53125 485.34897 300.82812Q485.84897 300.125 485.84897 298.01562Q485.84897 295.89062 485.34897 295.20312Q484.8646 294.5 484.1146 294.5Q483.39584 294.5 482.95834 295.10938Q482.41147 295.89062 482.41147 298.01562Z" fill-rule="nonzero"/><path fill="#000000" d="M386.8854 302.25L385.83853 302.25L385.83853 295.53125Q385.4479 295.89062 384.8229 296.26562Q384.21353 296.625 383.72916 296.79688L383.72916 295.78125Q384.60416 295.35938 385.2604 294.78125Q385.93228 294.1875 386.21353 293.625L386.8854 293.625L386.8854 302.25ZM395.46353 301.23438L395.46353 302.25L389.77603 302.25Q389.77603 301.875 389.90103 301.51562Q390.11978 300.9375 390.58853 300.375Q391.0729 299.8125 391.97916 299.07812Q393.3854 297.92188 393.86978 297.25Q394.36978 296.57812 394.36978 295.98438Q394.36978 295.35938 393.91666 294.9375Q393.46353 294.5 392.74478 294.5Q391.97916 294.5 391.52603 294.95312Q391.0729 295.40625 391.05728 296.21875L389.97916 296.10938Q390.08853 294.89062 390.80728 294.26562Q391.54166 293.625 392.77603 293.625Q394.0104 293.625 394.72916 294.3125Q395.4479 295.0 395.4479 296.01562Q395.4479 296.53125 395.22916 297.03125Q395.02603 297.51562 394.52603 298.07812Q394.04166 298.625 392.91666 299.57812Q391.96353 300.375 391.68228 300.67188Q391.41666 300.95312 391.24478 301.23438L395.46353 301.23438ZM396.91666 298.01562Q396.91666 296.48438 397.22916 295.5625Q397.54166 294.625 398.15103 294.125Q398.77603 293.625 399.71353 293.625Q400.40103 293.625 400.91666 293.90625Q401.4479 294.1875 401.79166 294.71875Q402.1354 295.23438 402.3229 295.98438Q402.5104 296.73438 402.5104 298.01562Q402.5104 299.53125 402.1979 300.45312Q401.90103 301.375 401.27603 301.89062Q400.66666 302.39062 399.71353 302.39062Q398.47916 302.39062 397.7604 301.5Q396.91666 300.4375 396.91666 298.01562ZM397.99478 298.01562Q397.99478 300.125 398.49478 300.82812Q398.99478 301.53125 399.71353 301.53125Q400.4479 301.53125 400.93228 300.82812Q401.43228 300.125 401.43228 298.01562Q401.43228 295.89062 400.93228 295.20312Q400.4479 294.5 399.6979 294.5Q398.97916 294.5 398.54166 295.10938Q397.99478 295.89062 397.99478 298.01562ZM403.91666 298.01562Q403.91666 296.48438 404.22916 295.5625Q404.54166 294.625 405.15103 294.125Q405.77603 293.625 406.71353 293.625Q407.40103 293.625 407.91666 293.90625Q408.4479 294.1875 408.79166 294.71875Q409.1354 295.23438 409.3229 295.98438Q409.5104 296.73438 409.5104 298.01562Q409.5104 299.53125 409.1979 300.45312Q408.90103 301.375 408.27603 301.89062Q407.66666 302.39062 406.71353 302.39062Q405.47916 302.39062 404.7604 301.5Q403.91666 300.4375 403.91666 298.01562ZM404.99478 298.01562Q404.99478 300.125 405.49478 300.82812Q405.99478 301.53125 406.71353 301.53125Q407.4479 301.53125 407.93228 300.82812Q408.43228 300.125 408.43228 298.01562Q408.43228 295.89062 407.93228 295.20312Q407.4479 294.5 406.6979 294.5Q405.97916 294.5 405.54166 295.10938Q404.99478 295.89062 404.99478 298.01562Z" fill-rule="nonzero"/><path fill="#000000" d="M309.46875 302.25L308.42188 302.25L308.42188 295.53125Q308.03125 295.89062 307.40625 296.26562Q306.79688 296.625 306.3125 296.79688L306.3125 295.78125Q307.1875 295.35938 307.84375 294.78125Q308.51562 294.1875 308.79688 293.625L309.46875 293.625L309.46875 302.25ZM315.875 302.25L315.875 300.1875L312.15625 300.1875L312.15625 299.21875L316.07812 293.65625L316.9375 293.65625L316.9375 299.21875L318.09375 299.21875L318.09375 300.1875L316.9375 300.1875L316.9375 302.25L315.875 302.25ZM315.875 299.21875L315.875 295.35938L313.1875 299.21875L315.875 299.21875ZM319.5 298.01562Q319.5 296.48438 319.8125 295.5625Q320.125 294.625 320.73438 294.125Q321.35938 293.625 322.29688 293.625Q322.98438 293.625 323.5 293.90625Q324.03125 294.1875 324.375 294.71875Q324.71875 295.23438 324.90625 295.98438Q325.09375 296.73438 325.09375 298.01562Q325.09375 299.53125 324.78125 300.45312Q324.48438 301.375 323.85938 301.89062Q323.25 302.39062 322.29688 302.39062Q321.0625 302.39062 320.34375 301.5Q319.5 300.4375 319.5 298.01562ZM320.57812 298.01562Q320.57812 300.125 321.07812 300.82812Q321.57812 301.53125 322.29688 301.53125Q323.03125 301.53125 323.51562 300.82812Q324.01562 300.125 324.01562 298.01562Q324.01562 295.89062 323.51562 295.20312Q323.03125 294.5 322.28125 294.5Q321.5625 294.5 321.125 295.10938Q320.57812 295.89062 320.57812 298.01562ZM326.5 298.01562Q326.5 296.48438 326.8125 295.5625Q327.125 294.625 327.73438 294.125Q328.35938 293.625 329.29688 293.625Q329.98438 293.625 330.5 293.90625Q331.03125 294.1875 331.375 294.71875Q331.71875 295.23438 331.90625 295.98438Q332.09375 296.73438 332.09375 298.01562Q332.09375 299.53125 331.78125 300.45312Q331.48438 301.375 330.85938 301.89062Q330.25 302.39062 329.29688 302.39062Q328.0625 302.39062 327.34375 301.5Q326.5 300.4375 326.5 298.01562ZM327.57812 298.01562Q327.57812 300.125 328.07812 300.82812Q328.57812 301.53125 329.29688 301.53125Q330.03125 301.53125 330.51562 300.82812Q331.01562 300.125 331.01562 298.01562Q331.01562 295.89062 330.51562 295.20312Q330.03125 294.5 329.28125 294.5Q328.5625 294.5 328.125 295.10938Q327.57812 295.89062 327.57812 298.01562Z" fill-rule="nonzero"/><path fill="#000000" d="M232.05208 302.25L231.0052 302.25L231.0052 295.53125Q230.61458 295.89062 229.98958 296.26562Q229.3802 296.625 228.89583 296.79688L228.89583 295.78125Q229.77083 295.35938 230.42708 294.78125Q231.09895 294.1875 231.3802 293.625L232.05208 293.625L232.05208 302.25ZM240.55208 295.76562L239.5052 295.84375Q239.36458 295.21875 239.11458 294.9375Q238.67708 294.48438 238.05208 294.48438Q237.55208 294.48438 237.16145 294.76562Q236.67708 295.14062 236.3802 295.84375Q236.09895 296.53125 236.08333 297.8125Q236.45833 297.23438 237.0052 296.95312Q237.5677 296.67188 238.17708 296.67188Q239.22395 296.67188 239.95833 297.45312Q240.70833 298.23438 240.70833 299.45312Q240.70833 300.26562 240.34895 300.96875Q240.0052 301.65625 239.39583 302.03125Q238.78645 302.39062 238.02083 302.39062Q236.6927 302.39062 235.86458 301.42188Q235.03645 300.45312 235.03645 298.23438Q235.03645 295.73438 235.95833 294.60938Q236.7552 293.625 238.11458 293.625Q239.1302 293.625 239.77083 294.20312Q240.42708 294.76562 240.55208 295.76562ZM236.2552 299.46875Q236.2552 300.01562 236.47395 300.51562Q236.70833 301.0 237.11458 301.26562Q237.53645 301.53125 238.0052 301.53125Q238.66145 301.53125 239.14583 301.0Q239.6302 300.45312 239.6302 299.53125Q239.6302 298.64062 239.14583 298.125Q238.67708 297.60938 237.95833 297.60938Q237.23958 297.60938 236.73958 298.125Q236.2552 298.64062 236.2552 299.46875ZM242.08333 298.01562Q242.08333 296.48438 242.39583 295.5625Q242.70833 294.625 243.3177 294.125Q243.9427 293.625 244.8802 293.625Q245.5677 293.625 246.08333 293.90625Q246.61458 294.1875 246.95833 294.71875Q247.30208 295.23438 247.48958 295.98438Q247.67708 296.73438 247.67708 298.01562Q247.67708 299.53125 247.36458 300.45312Q247.0677 301.375 246.4427 301.89062Q245.83333 302.39062 244.8802 302.39062Q243.64583 302.39062 242.92708 301.5Q242.08333 300.4375 242.08333 298.01562ZM243.16145 298.01562Q243.16145 300.125 243.66145 300.82812Q244.16145 301.53125 244.8802 301.53125Q245.61458 301.53125 246.09895 300.82812Q246.59895 300.125 246.59895 298.01562Q246.59895 295.89062 246.09895 295.20312Q245.61458 294.5 244.86458 294.5Q244.14583 294.5 243.70833 295.10938Q243.16145 295.89062 243.16145 298.01562ZM249.08333 298.01562Q249.08333 296.48438 249.39583 295.5625Q249.70833 294.625 250.3177 294.125Q250.9427 293.625 251.8802 293.625Q252.5677 293.625 253.08333 293.90625Q253.61458 294.1875 253.95833 294.71875Q254.30208 295.23438 254.48958 295.98438Q254.67708 296.73438 254.67708 298.01562Q254.67708 299.53125 254.36458 300.45312Q254.0677 301.375 253.4427 301.89062Q252.83333 302.39062 251.8802 302.39062Q250.64583 302.39062 249.92708 301.5Q249.08333 300.4375 249.08333 298.01562ZM250.16145 298.01562Q250.16145 300.125 250.66145 300.82812Q251.16145 301.53125 251.8802 301.53125Q252.61458 301.53125 253.09895 300.82812Q253.59895 300.125 253.59895 298.01562Q253.59895 295.89062 253.09895 295.20312Q252.61458 294.5 251.86458 294.5Q251.14583 294.5 250.70833 295.10938Q250.16145 295.89062 250.16145 298.01562Z" fill-rule="nonzero"/><path fill="#000000" d="M154.63542 302.25L153.58855 302.25L153.58855 295.53125Q153.19792 295.89062 152.57292 296.26562Q151.96355 296.625 151.47917 296.79688L151.47917 295.78125Q152.35417 295.35938 153.01042 294.78125Q153.6823 294.1875 153.96355 293.625L154.63542 293.625L154.63542 302.25ZM159.29167 297.59375Q158.63542 297.34375 158.3073 296.90625Q157.9948 296.45312 157.9948 295.84375Q157.9948 294.90625 158.66667 294.26562Q159.35417 293.625 160.46355 293.625Q161.58855 293.625 162.27605 294.28125Q162.96355 294.9375 162.96355 295.875Q162.96355 296.46875 162.65105 296.90625Q162.33855 297.34375 161.69792 297.59375Q162.4948 297.84375 162.90105 298.42188Q163.3073 299.0 163.3073 299.79688Q163.3073 300.89062 162.52605 301.64062Q161.76042 302.39062 160.47917 302.39062Q159.21355 302.39062 158.4323 301.64062Q157.65105 300.89062 157.65105 299.76562Q157.65105 298.92188 158.07292 298.35938Q158.51042 297.79688 159.29167 297.59375ZM159.07292 295.79688Q159.07292 296.40625 159.46355 296.79688Q159.8698 297.1875 160.4948 297.1875Q161.10417 297.1875 161.4948 296.8125Q161.88542 296.42188 161.88542 295.85938Q161.88542 295.28125 161.47917 294.89062Q161.07292 294.48438 160.47917 294.48438Q159.8698 294.48438 159.46355 294.875Q159.07292 295.26562 159.07292 295.79688ZM158.7448 299.76562Q158.7448 300.21875 158.94792 300.64062Q159.16667 301.0625 159.58855 301.29688Q160.01042 301.53125 160.4948 301.53125Q161.2448 301.53125 161.72917 301.04688Q162.22917 300.5625 162.22917 299.8125Q162.22917 299.04688 161.72917 298.54688Q161.22917 298.04688 160.46355 298.04688Q159.71355 298.04688 159.22917 298.54688Q158.7448 299.03125 158.7448 299.76562ZM164.66667 298.01562Q164.66667 296.48438 164.97917 295.5625Q165.29167 294.625 165.90105 294.125Q166.52605 293.625 167.46355 293.625Q168.15105 293.625 168.66667 293.90625Q169.19792 294.1875 169.54167 294.71875Q169.88542 295.23438 170.07292 295.98438Q170.26042 296.73438 170.26042 298.01562Q170.26042 299.53125 169.94792 300.45312Q169.65105 301.375 169.02605 301.89062Q168.41667 302.39062 167.46355 302.39062Q166.22917 302.39062 165.51042 301.5Q164.66667 300.4375 164.66667 298.01562ZM165.7448 298.01562Q165.7448 300.125 166.2448 300.82812Q166.7448 301.53125 167.46355 301.53125Q168.19792 301.53125 168.6823 300.82812Q169.1823 300.125 169.1823 298.01562Q169.1823 295.89062 168.6823 295.20312Q168.19792 294.5 167.44792 294.5Q166.72917 294.5 166.29167 295.10938Q165.7448 295.89062 165.7448 298.01562ZM171.66667 298.01562Q171.66667 296.48438 171.97917 295.5625Q172.29167 294.625 172.90105 294.125Q173.52605 293.625 174.46355 293.625Q175.15105 293.625 175.66667 293.90625Q176.19792 294.1875 176.54167 294.71875Q176.88542 295.23438 177.07292 295.98438Q177.26042 296.73438 177.26042 298.01562Q177.26042 299.53125 176.94792 300.45312Q176.65105 301.375 176.02605 301.89062Q175.41667 302.39062 174.46355 302.39062Q173.22917 302.39062 172.51042 301.5Q171.66667 300.4375 171.66667 298.01562ZM172.7448 298.01562Q172.7448 300.125 173.2448 300.82812Q173.7448 301.53125 174.46355 301.53125Q175.19792 301.53125 175.6823 300.82812Q176.1823 300.125 176.1823 298.01562Q176.1823 295.89062 175.6823 295.20312Q175.19792 294.5 174.44792 294.5Q173.72917 294.5 173.29167 295.10938Q172.7448 295.89062 172.7448 298.01562Z" fill-rule="nonzero"/><path fill="#000000" d="M78.796875 301.23438L78.796875 302.25L73.109375 302.25Q73.109375 301.875 73.234375 301.51562Q73.453125 300.9375 73.921875 300.375Q74.40625 299.8125 75.3125 299.07812Q76.71875 297.92188 77.203125 297.25Q77.703125 296.57812 77.703125 295.98438Q77.703125 295.35938 77.25 294.9375Q76.796875 294.5 76.078125 294.5Q75.3125 294.5 74.859375 294.95312Q74.40625 295.40625 74.390625 296.21875L73.3125 296.10938Q73.421875 294.89062 74.140625 294.26562Q74.875 293.625 76.109375 293.625Q77.34375 293.625 78.0625 294.3125Q78.78125 295.0 78.78125 296.01562Q78.78125 296.53125 78.5625 297.03125Q78.359375 297.51562 77.859375 298.07812Q77.375 298.625 76.25 299.57812Q75.296875 300.375 75.015625 300.67188Q74.75 300.95312 74.578125 301.23438L78.796875 301.23438ZM80.25 298.01562Q80.25 296.48438 80.5625 295.5625Q80.875 294.625 81.484375 294.125Q82.109375 293.625 83.046875 293.625Q83.734375 293.625 84.25 293.90625Q84.78125 294.1875 85.125 294.71875Q85.46875 295.23438 85.65625 295.98438Q85.84375 296.73438 85.84375 298.01562Q85.84375 299.53125 85.53125 300.45312Q85.234375 301.375 84.609375 301.89062Q84.0 302.39062 83.046875 302.39062Q81.8125 302.39062 81.09375 301.5Q80.25 300.4375 80.25 298.01562ZM81.328125 298.01562Q81.328125 300.125 81.828125 300.82812Q82.328125 301.53125 83.046875 301.53125Q83.78125 301.53125 84.265625 300.82812Q84.765625 300.125 84.765625 298.01562Q84.765625 295.89062 84.265625 295.20312Q83.78125 294.5 83.03125 294.5Q82.3125 294.5 81.875 295.10938Q81.328125 295.89062 81.328125 298.01562ZM87.25 298.01562Q87.25 296.48438 87.5625 295.5625Q87.875 294.625 88.484375 294.125Q89.109375 293.625 90.046875 293.625Q90.734375 293.625 91.25 293.90625Q91.78125 294.1875 92.125 294.71875Q92.46875 295.23438 92.65625 295.98438Q92.84375 296.73438 92.84375 298.01562Q92.84375 299.53125 92.53125 300.45312Q92.234375 301.375 91.609375 301.89062Q91.0 302.39062 90.046875 302.39062Q88.8125 302.39062 88.09375 301.5Q87.25 300.4375 87.25 298.01562ZM88.328125 298.01562Q88.328125 300.125 88.828125 300.82812Q89.328125 301.53125 90.046875 301.53125Q90.78125 301.53125 91.265625 300.82812Q91.765625 300.125 91.765625 298.01562Q91.765625 295.89062 91.265625 295.20312Q90.78125 294.5 90.03125 294.5Q89.3125 294.5 88.875 295.10938Q88.328125 295.89062 88.328125 298.01562ZM94.25 298.01562Q94.25 296.48438 94.5625 295.5625Q94.875 294.625 95.484375 294.125Q96.109375 293.625 97.046875 293.625Q97.734375 293.625 98.25 293.90625Q98.78125 294.1875 99.125 294.71875Q99.46875 295.23438 99.65625 295.98438Q99.84375 296.73438 99.84375 298.01562Q99.84375 299.53125 99.53125 300.45312Q99.234375 301.375 98.609375 301.89062Q98.0 302.39062 97.046875 302.39062Q95.8125 302.39062 95.09375 301.5Q94.25 300.4375 94.25 298.01562ZM95.328125 298.01562Q95.328125 300.125 95.828125 300.82812Q96.328125 301.53125 97.046875 301.53125Q97.78125 301.53125 98.265625 300.82812Q98.765625 300.125 98.765625 298.01562Q98.765625 295.89062 98.265625 295.20312Q97.78125 294.5 97.03125 294.5Q96.3125 294.5 95.875 295.10938Q95.328125 295.89062 95.328125 298.01562Z" fill-rule="nonzero"/><path fill="#757575" d="M19.234375 36.75L19.234375 22.4375L22.09375 22.4375L25.46875 32.5625Q25.9375 33.984375 26.15625 34.6875Q26.40625 33.90625 26.921875 32.390625L30.34375 22.4375L32.890625 22.4375L32.890625 36.75L31.078125 36.75L31.078125 24.765625L26.90625 36.75L25.203125 36.75L21.0625 24.5625L21.0625 36.75L19.234375 36.75ZM43.171875 33.40625L44.984375 33.640625Q44.5625 35.21875 43.390625 36.109375Q42.234375 36.984375 40.421875 36.984375Q38.15625 36.984375 36.8125 35.59375Q35.484375 34.1875 35.484375 31.65625Q35.484375 29.03125 36.828125 27.59375Q38.171875 26.140625 40.328125 26.140625Q42.40625 26.140625 43.71875 27.5625Q45.046875 28.96875 45.046875 31.546875Q45.046875 31.703125 45.03125 32.015625L37.296875 32.015625Q37.390625 33.71875 38.265625 34.625Q39.140625 35.53125 40.4375 35.53125Q41.40625 35.53125 42.078125 35.03125Q42.765625 34.515625 43.171875 33.40625ZM37.390625 30.5625L43.1875 30.5625Q43.078125 29.265625 42.53125 28.609375Q41.6875 27.59375 40.34375 27.59375Q39.140625 27.59375 38.3125 28.40625Q37.484375 29.203125 37.390625 30.5625ZM53.84375 35.46875Q52.859375 36.296875 51.953125 36.640625Q51.046875 36.984375 50.015625 36.984375Q48.3125 36.984375 47.390625 36.15625Q46.46875 35.3125 46.46875 34.015625Q46.46875 33.25 46.8125 32.625Q47.171875 32.0 47.734375 31.625Q48.296875 31.234375 49.0 31.03125Q49.515625 30.90625 50.5625 30.765625Q52.6875 30.515625 53.6875 30.171875Q53.703125 29.8125 53.703125 29.703125Q53.703125 28.640625 53.203125 28.1875Q52.53125 27.59375 51.203125 27.59375Q49.953125 27.59375 49.359375 28.03125Q48.78125 28.46875 48.5 29.578125L46.78125 29.34375Q47.015625 28.234375 47.546875 27.5625Q48.078125 26.875 49.09375 26.515625Q50.109375 26.140625 51.453125 26.140625Q52.78125 26.140625 53.609375 26.453125Q54.4375 26.765625 54.828125 27.25Q55.21875 27.71875 55.375 28.4375Q55.46875 28.890625 55.46875 30.0625L55.46875 32.40625Q55.46875 34.859375 55.578125 35.515625Q55.6875 36.15625 56.03125 36.75L54.1875 36.75Q53.921875 36.203125 53.84375 35.46875ZM53.6875 31.546875Q52.734375 31.9375 50.8125 32.203125Q49.734375 32.359375 49.28125 32.5625Q48.84375 32.75 48.59375 33.125Q48.34375 33.5 48.34375 33.96875Q48.34375 34.671875 48.875 35.140625Q49.40625 35.609375 50.4375 35.609375Q51.453125 35.609375 52.234375 35.171875Q53.03125 34.71875 53.40625 33.953125Q53.6875 33.34375 53.6875 32.1875L53.6875 31.546875ZM58.0625 36.75L58.0625 26.375L59.65625 26.375L59.65625 27.859375Q60.796875 26.140625 62.953125 26.140625Q63.890625 26.140625 64.671875 26.484375Q65.46875 26.8125 65.859375 27.359375Q66.25 27.90625 66.40625 28.65625Q66.5 29.15625 66.5 30.375L66.5 36.75L64.734375 36.75L64.734375 30.4375Q64.734375 29.359375 64.53125 28.828125Q64.328125 28.296875 63.796875 27.984375Q63.28125 27.671875 62.578125 27.671875Q61.453125 27.671875 60.640625 28.390625Q59.828125 29.09375 59.828125 31.078125L59.828125 36.75L58.0625 36.75ZM74.390625 36.75L74.390625 22.4375L84.046875 22.4375L84.046875 24.125L76.28125 24.125L76.28125 28.5625L83.0 28.5625L83.0 30.25L76.28125 30.25L76.28125 36.75L74.390625 36.75ZM94.8125 35.0625L94.8125 36.75L85.359375 36.75Q85.34375 36.109375 85.5625 35.53125Q85.921875 34.5625 86.71875 33.625Q87.515625 32.6875 89.015625 31.453125Q91.359375 29.546875 92.171875 28.4375Q93.0 27.3125 93.0 26.3125Q93.0 25.265625 92.25 24.546875Q91.5 23.828125 90.296875 23.828125Q89.03125 23.828125 88.265625 24.59375Q87.5 25.359375 87.5 26.703125L85.6875 26.515625Q85.875 24.5 87.078125 23.4375Q88.296875 22.375 90.34375 22.375Q92.390625 22.375 93.59375 23.515625Q94.796875 24.65625 94.796875 26.34375Q94.796875 27.203125 94.4375 28.046875Q94.09375 28.875 93.28125 29.796875Q92.46875 30.703125 90.578125 32.3125Q88.984375 33.640625 88.53125 34.109375Q88.09375 34.578125 87.796875 35.0625L94.8125 35.0625ZM105.953125 36.75L102.0 26.375L103.859375 26.375L106.09375 32.59375Q106.453125 33.59375 106.75 34.671875Q106.984375 33.859375 107.40625 32.703125L109.703125 26.375L111.515625 26.375L107.59375 36.75L105.953125 36.75ZM111.359375 33.65625L113.109375 33.375Q113.25 34.421875 113.921875 34.984375Q114.59375 35.53125 115.796875 35.53125Q117.0 35.53125 117.578125 35.046875Q118.171875 34.546875 118.171875 33.890625Q118.171875 33.296875 117.65625 32.953125Q117.296875 32.71875 115.859375 32.359375Q113.921875 31.859375 113.171875 31.515625Q112.4375 31.15625 112.046875 30.53125Q111.65625 29.890625 111.65625 29.125Q111.65625 28.4375 111.96875 27.84375Q112.296875 27.25 112.84375 26.859375Q113.25 26.5625 113.953125 26.359375Q114.671875 26.140625 115.484375 26.140625Q116.703125 26.140625 117.625 26.5Q118.546875 26.84375 118.984375 27.453125Q119.421875 28.046875 119.59375 29.046875L117.875 29.28125Q117.75 28.484375 117.1875 28.046875Q116.625 27.59375 115.609375 27.59375Q114.390625 27.59375 113.875 28.0Q113.359375 28.390625 113.359375 28.921875Q113.359375 29.265625 113.578125 29.546875Q113.78125 29.828125 114.25 30.015625Q114.515625 30.109375 115.796875 30.453125Q117.671875 30.953125 118.40625 31.28125Q119.140625 31.59375 119.5625 32.203125Q119.984375 32.796875 119.984375 33.703125Q119.984375 34.578125 119.46875 35.359375Q118.953125 36.140625 117.984375 36.5625Q117.015625 36.984375 115.796875 36.984375Q113.78125 36.984375 112.71875 36.140625Q111.65625 35.296875 111.359375 33.65625ZM128.39062 36.75L128.39062 22.4375L138.04688 22.4375L138.04688 24.125L130.28125 24.125L130.28125 28.5625L137.0 28.5625L137.0 30.25L130.28125 30.25L130.28125 36.75L128.39062 36.75ZM146.20312 36.75L144.4375 36.75L144.4375 25.546875Q143.8125 26.15625 142.78125 26.765625Q141.75 27.359375 140.92188 27.671875L140.92188 25.96875Q142.40625 25.28125 143.5 24.296875Q144.60938 23.296875 145.0625 22.375L146.20312 22.375L146.20312 36.75ZM156.39062 32.453125L156.39062 30.6875L161.78125 30.6875L161.78125 32.453125L156.39062 32.453125ZM170.39062 36.75L170.39062 22.4375L180.04688 22.4375L180.04688 24.125L172.28125 24.125L172.28125 28.5625L179.0 28.5625L179.0 30.25L172.28125 30.25L172.28125 36.75L170.39062 36.75ZM189.17188 33.40625L190.98438 33.640625Q190.5625 35.21875 189.39062 36.109375Q188.23438 36.984375 186.42188 36.984375Q184.15625 36.984375 182.8125 35.59375Q181.48438 34.1875 181.48438 31.65625Q181.48438 29.03125 182.82812 27.59375Q184.17188 26.140625 186.32812 26.140625Q188.40625 26.140625 189.71875 27.5625Q191.04688 28.96875 191.04688 31.546875Q191.04688 31.703125 191.03125 32.015625L183.29688 32.015625Q183.39062 33.71875 184.26562 34.625Q185.14062 35.53125 186.4375 35.53125Q187.40625 35.53125 188.07812 35.03125Q188.76562 34.515625 189.17188 33.40625ZM183.39062 30.5625L189.1875 30.5625Q189.07812 29.265625 188.53125 28.609375Q187.6875 27.59375 186.34375 27.59375Q185.14062 27.59375 184.3125 28.40625Q183.48438 29.203125 183.39062 30.5625ZM193.0625 36.75L193.0625 26.375L194.64062 26.375L194.64062 27.828125Q195.125 27.078125 195.9375 26.609375Q196.75 26.140625 197.78125 26.140625Q198.9375 26.140625 199.67188 26.625Q200.40625 27.09375 200.71875 27.953125Q201.95312 26.140625 203.92188 26.140625Q205.46875 26.140625 206.29688 27.0Q207.125 27.859375 207.125 29.625L207.125 36.75L205.375 36.75L205.375 30.21875Q205.375 29.15625 205.20312 28.703125Q205.03125 28.234375 204.57812 27.953125Q204.14062 27.671875 203.53125 27.671875Q202.4375 27.671875 201.70312 28.40625Q200.98438 29.125 200.98438 30.71875L200.98438 36.75L199.23438 36.75L199.23438 30.015625Q199.23438 28.84375 198.79688 28.265625Q198.375 27.671875 197.39062 27.671875Q196.65625 27.671875 196.01562 28.0625Q195.39062 28.453125 195.10938 29.203125Q194.82812 29.953125 194.82812 31.375L194.82812 36.75L193.0625 36.75ZM215.84375 35.46875Q214.85938 36.296875 213.95312 36.640625Q213.04688 36.984375 212.01562 36.984375Q210.3125 36.984375 209.39062 36.15625Q208.46875 35.3125 208.46875 34.015625Q208.46875 33.25 208.8125 32.625Q209.17188 32.0 209.73438 31.625Q210.29688 31.234375 211.0 31.03125Q211.51562 30.90625 212.5625 30.765625Q214.6875 30.515625 215.6875 30.171875Q215.70312 29.8125 215.70312 29.703125Q215.70312 28.640625 215.20312 28.1875Q214.53125 27.59375 213.20312 27.59375Q211.95312 27.59375 211.35938 28.03125Q210.78125 28.46875 210.5 29.578125L208.78125 29.34375Q209.01562 28.234375 209.54688 27.5625Q210.07812 26.875 211.09375 26.515625Q212.10938 26.140625 213.45312 26.140625Q214.78125 26.140625 215.60938 26.453125Q216.4375 26.765625 216.82812 27.25Q217.21875 27.71875 217.375 28.4375Q217.46875 28.890625 217.46875 30.0625L217.46875 32.40625Q217.46875 34.859375 217.57812 35.515625Q217.6875 36.15625 218.03125 36.75L216.1875 36.75Q215.92188 36.203125 215.84375 35.46875ZM215.6875 31.546875Q214.73438 31.9375 212.8125 32.203125Q211.73438 32.359375 211.28125 32.5625Q210.84375 32.75 210.59375 33.125Q210.34375 33.5 210.34375 33.96875Q210.34375 34.671875 210.875 35.140625Q211.40625 35.609375 212.4375 35.609375Q213.45312 35.609375 214.23438 35.171875Q215.03125 34.71875 215.40625 33.953125Q215.6875 33.34375 215.6875 32.1875L215.6875 31.546875ZM220.03125 36.75L220.03125 22.4375L221.78125 22.4375L221.78125 36.75L220.03125 36.75ZM231.17188 33.40625L232.98438 33.640625Q232.5625 35.21875 231.39062 36.109375Q230.23438 36.984375 228.42188 36.984375Q226.15625 36.984375 224.8125 35.59375Q223.48438 34.1875 223.48438 31.65625Q223.48438 29.03125 224.82812 27.59375Q226.17188 26.140625 228.32812 26.140625Q230.40625 26.140625 231.71875 27.5625Q233.04688 28.96875 233.04688 31.546875Q233.04688 31.703125 233.03125 32.015625L225.29688 32.015625Q225.39062 33.71875 226.26562 34.625Q227.14062 35.53125 228.4375 35.53125Q229.40625 35.53125 230.07812 35.03125Q230.76562 34.515625 231.17188 33.40625ZM225.39062 30.5625L231.1875 30.5625Q231.07812 29.265625 230.53125 28.609375Q229.6875 27.59375 228.34375 27.59375Q227.14062 27.59375 226.3125 28.40625Q225.48438 29.203125 225.39062 30.5625Z" fill-rule="nonzero"/></svg>